<svg width="260" height="260" viewBox="0 0 260 260" fill="none" xmlns="http://www.w3.org/2000/svg">
<g clip-path="url(#clip0_216_2758)">
<path d="M-250 0L18.7006 268.701" stroke="#4E29FF"/>
<path d="M-220 0L48.7006 268.701" stroke="#4E29FF"/>
<path d="M-190 0L78.7006 268.701" stroke="#4E29FF"/>
<path d="M-160 0L108.701 268.701" stroke="#4E29FF"/>
<path d="M-130 0L138.701 268.701" stroke="#4E29FF"/>
<path d="M-100 0L168.701 268.701" stroke="#4E29FF"/>
<path d="M-70 0L198.701 268.701" stroke="#4E29FF"/>
<path d="M-40 0L228.701 268.701" stroke="#4E29FF"/>
<path d="M-10 0L258.701 268.701" stroke="#4E29FF"/>
<path d="M20 0L288.701 268.701" stroke="#4E29FF"/>
<path d="M50 0L318.701 268.701" stroke="#4E29FF"/>
<path d="M80 0L348.701 268.701" stroke="#4E29FF"/>
<path d="M110 0L378.701 268.701" stroke="#4E29FF"/>
<path d="M140 0L408.701 268.701" stroke="#4E29FF"/>
<path d="M170 0L438.701 268.701" stroke="#4E29FF"/>
<path d="M200 0L468.701 268.701" stroke="#4E29FF"/>
<path d="M230 0L498.701 268.701" stroke="#4E29FF"/>
<path d="M260 0L528.701 268.701" stroke="#4E29FF"/>
</g>
<defs>
<clipPath id="clip0_216_2758">
<rect width="260" height="260" fill="white"/>
</clipPath>
</defs>
</svg>
