<svg width="77" height="100" fill="none" xmlns="http://www.w3.org/2000/svg"><g clip-path="url(#a)"><path fill-rule="evenodd" clip-rule="evenodd" d="M76.375 79.053 39.58 100 0 77.481v-2.19l36.838-18.799 39.537 20.37v2.19Z" fill="#171552"/><path fill-rule="evenodd" clip-rule="evenodd" d="M39.558 99.986 0 77.481v-2.19l14.055-7.17h25.503v31.865Z" fill="#231889"/><path fill-rule="evenodd" clip-rule="evenodd" d="M76.375 76.862 39.58 97.816 0 75.29l36.838-20.982 39.537 22.554Z" fill="#0147FF"/><path fill-rule="evenodd" clip-rule="evenodd" d="m76.375 76.862-9.159 5.216-10.119 1.099-13.255-19.563 5.522-2.163 27.011 15.411Z" fill="#231889"/><path fill-rule="evenodd" clip-rule="evenodd" d="m38.209 67.599-25.42 14.694-5.96-3.22 25.037-14.757 6.343 3.282Z" fill="#171552"/><path fill-rule="evenodd" clip-rule="evenodd" d="m27.081 74.031-1.488.863-4.542-2.073-4.172.473-.042-.118 15.029-8.86 6.342 3.282-7.038 4.069-4.43 1.168.341 1.197Z" fill="#171552"/><path fill-rule="evenodd" clip-rule="evenodd" d="m27.019 9.208 4.18 2.413L16.871 19.8l-4.145-2.414L27.02 9.208Z" fill="url(#b)"/><path fill-rule="evenodd" clip-rule="evenodd" d="m27.018 9.208 4.18 2.413-6.342 3.616-.119.014-1.293-4.005 3.575-2.038Z" fill="#C3BDAF"/><path fill-rule="evenodd" clip-rule="evenodd" d="M16.872 73.315V19.8l14.326-8.179v53.48l-14.326 8.214Z" fill="#231889"/><path fill-rule="evenodd" clip-rule="evenodd" d="m16.872 73.315.014-53.515-4.159-2.413v53.501l4.145 2.427Z" fill="url(#c)"/><path fill-rule="evenodd" clip-rule="evenodd" d="m24.71 17.31.02-6.433 14.32-8.186v6.406L24.71 17.31Z" fill="#171552"/><path fill-rule="evenodd" clip-rule="evenodd" d="m24.724 15.265.02-4.395-4.165-2.406v4.381l4.145 2.42Zm-4.73 2.755 38.772 10.668v52.159h-.083c.092.22.128.459.104.696.008.345-.1.682-.306.96a1.53 1.53 0 0 1-1.335.639c-7.99-.382-18.159-3.72-26.935-7.198l-5.439-2.219v-.333l-3.72-1.648-.327.201-.78-.361.05-53.565Z" fill="#231889"/><path fill-rule="evenodd" clip-rule="evenodd" d="m27.276 74.713-2.504-1.022v-.334l-3.303-1.454 1.175-2.559 2.998-.334 1.634 5.703Z" fill="#231889"/><path fill-rule="evenodd" clip-rule="evenodd" d="m20.947 71.771-.222.14-.78-.362.05-53.502.966 2.532-.014 51.192Z" fill="#171552"/><path fill-rule="evenodd" clip-rule="evenodd" d="M19.946 18.02c9.861 4.645 25.794 11.168 37.207 11.725a1.566 1.566 0 0 0 1.537-2.087c-2.087-5.563-13.367-14.646-19.716-20.46L19.946 18.019Z" fill="url(#d)"/><path fill-rule="evenodd" clip-rule="evenodd" d="m41.032 9.02-2.058-1.843-14.16 8.068 3.526-.432 10.69-6.092.987.897 1.015-.598Z" fill="#231889"/><path fill-rule="evenodd" clip-rule="evenodd" d="M22.602 18.082c8.513 4.006 23.41 9.736 32.944 10.759.466.048 1.593.16 1.871-.223a1.328 1.328 0 0 0 .174-1.266C55.79 22.915 44.51 13.735 39.03 8.721l-16.427 9.36Z" fill="#171552"/><path fill-rule="evenodd" clip-rule="evenodd" d="M39.03 24.696c5.869 2.003 11.822 3.644 16.516 4.172.466.05 1.593.16 1.871-.222a1.328 1.328 0 0 0 .174-1.266C55.79 22.943 44.51 13.763 39.03 8.75v15.947Z" fill="#231889"/><path fill-rule="evenodd" clip-rule="evenodd" d="m40.017 9.618-.988-.897v1.732h.988v-.835Z" fill="#171552"/><path fill-rule="evenodd" clip-rule="evenodd" d="M57.57 28.347a1.187 1.187 0 0 0-.062-.209C55.713 23.701 44.433 14.521 38.953 9.5l-15.641 8.909c8.617 3.985 22.95 9.437 32.234 10.432.467.048 1.593.16 1.871-.223a1.3 1.3 0 0 0 .153-.271Z" fill="#231889"/><path fill-rule="evenodd" clip-rule="evenodd" d="M57.57 28.347a1.195 1.195 0 0 0-.063-.209c-1.759-4.353-12.657-13.276-18.24-18.346L23.84 18.576a167.543 167.543 0 0 0 19.473 7.497 69.588 69.588 0 0 0 12.261 2.782c.466.048 1.593.16 1.87-.223a1.27 1.27 0 0 0 .126-.285Z" fill="url(#e)"/><path fill-rule="evenodd" clip-rule="evenodd" d="m40.023 10.473-.758-.695-9.486 5.404 2.462-.285 7.782-4.424Z" fill="#231889"/><path fill-rule="evenodd" clip-rule="evenodd" d="M25.642 24.341c9.625 4.173 22.157 8.756 31.615 9.215a2.085 2.085 0 0 0 1.51-.751v47.048h-.084c.032.076.057.155.077.236v.786c-.033.224-.13.434-.279.605a1.703 1.703 0 0 1-1.335.64c-7.977-.383-18.165-3.693-26.942-7.233a180.47 180.47 0 0 1-4.57-1.885l.008-48.66Z" fill="#fff"/><path d="M57.313 33.869h-.063c-9.736-.473-22.596-5.279-31.671-9.229a.14.14 0 0 1-.07-.18.139.139 0 0 1 .188-.077c9.04 3.943 21.865 8.735 31.567 9.208a1.899 1.899 0 0 0 1.39-.696.139.139 0 0 1 .195 0 .153.153 0 0 1 0 .202 2.225 2.225 0 0 1-1.536.772Z" fill="url(#f)"/><path d="M57.313 36.957h-.063c-9.736-.473-22.595-5.279-31.67-9.23a.146.146 0 0 1-.07-.187.146.146 0 0 1 .187-.07c9.041 3.937 21.866 8.736 31.567 9.202a1.864 1.864 0 0 0 1.391-.696.139.139 0 0 1 .195 0 .146.146 0 0 1 0 .195 2.205 2.205 0 0 1-1.537.786Z" fill="url(#g)"/><path d="M57.313 40.038h-.063c-9.736-.473-22.596-5.279-31.671-9.23a.14.14 0 0 1 .009-.256.146.146 0 0 1 .109 0c9.04 3.943 21.865 8.734 31.567 9.207a1.927 1.927 0 0 0 1.39-.695.132.132 0 0 1 .195 0 .139.139 0 0 1 0 .195 2.225 2.225 0 0 1-1.536.779Z" fill="url(#h)"/><path d="M57.313 43.126h-.063c-9.736-.473-22.595-5.28-31.67-9.23a.142.142 0 0 1-.038-.232.142.142 0 0 1 .155-.025c9.041 3.937 21.866 8.735 31.567 9.201a1.876 1.876 0 0 0 1.391-.695.139.139 0 0 1 .195 0 .146.146 0 0 1 0 .195 2.204 2.204 0 0 1-1.537.785Z" fill="url(#i)"/><path d="M57.313 46.213h-.063c-9.736-.473-22.595-5.278-31.67-9.221a.146.146 0 0 1-.07-.188.14.14 0 0 1 .187-.07c9.041 3.936 21.873 8.728 31.567 9.201a1.865 1.865 0 0 0 1.391-.695.13.13 0 0 1 .097-.043.132.132 0 0 1 .098.043.14.14 0 0 1 0 .194 2.206 2.206 0 0 1-1.537.78Z" fill="url(#j)"/><path d="M57.313 49.294h-.063c-9.736-.473-22.596-5.278-31.671-9.229a.14.14 0 0 1-.07-.18.139.139 0 0 1 .188-.077c9.04 3.943 21.865 8.735 31.567 9.208a1.912 1.912 0 0 0 1.39-.695.139.139 0 0 1 .195 0 .153.153 0 0 1 0 .201 2.225 2.225 0 0 1-1.536.772Z" fill="url(#k)"/><path d="M57.313 52.382h-.063c-9.736-.466-22.595-5.279-31.67-9.222a.146.146 0 0 1-.07-.188.14.14 0 0 1 .187-.07c9.041 3.937 21.866 8.736 31.567 9.202a1.893 1.893 0 0 0 1.391-.696.13.13 0 0 1 .097-.042.132.132 0 0 1 .098.042.14.14 0 0 1 0 .195 2.206 2.206 0 0 1-1.537.779Z" fill="url(#l)"/><path d="M57.313 55.463h-.063c-9.736-.473-22.596-5.279-31.671-9.229a.14.14 0 0 1-.07-.18.139.139 0 0 1 .188-.077c9.04 3.943 21.872 8.735 31.567 9.208a1.864 1.864 0 0 0 1.39-.696.139.139 0 0 1 .195 0 .153.153 0 0 1 0 .202 2.225 2.225 0 0 1-1.536.772Z" fill="url(#m)"/><path d="M57.313 58.558h-.063c-9.736-.473-22.595-5.279-31.67-9.229a.146.146 0 0 1-.07-.188.14.14 0 0 1 .187-.07c9.041 3.937 21.873 8.736 31.567 9.202a1.838 1.838 0 0 0 1.391-.696.13.13 0 0 1 .097-.043.132.132 0 0 1 .098.043.146.146 0 0 1 0 .195 2.203 2.203 0 0 1-1.537.786Z" fill="url(#n)"/><path d="M57.313 61.632h-.063c-9.736-.473-22.596-5.279-31.671-9.23a.14.14 0 0 1 .009-.256.146.146 0 0 1 .109 0c9.04 3.943 21.872 8.734 31.567 9.207a1.94 1.94 0 0 0 1.39-.695.139.139 0 0 1 .195 0 .153.153 0 0 1 0 .201 2.225 2.225 0 0 1-1.536.773Z" fill="url(#o)"/><path d="M57.313 64.72h-.063c-9.736-.474-22.595-5.28-31.67-9.23a.141.141 0 1 1 .117-.257c9.041 3.937 21.872 8.735 31.567 9.208a1.94 1.94 0 0 0 1.391-.695.139.139 0 0 1 .195 0 .146.146 0 0 1 0 .201 2.198 2.198 0 0 1-1.537.772Z" fill="url(#p)"/><path d="M57.313 67.8h-.063c-9.736-.473-22.595-5.278-31.67-9.221a.146.146 0 0 1-.07-.188.14.14 0 0 1 .187-.07c9.041 3.936 21.866 8.728 31.567 9.201a1.864 1.864 0 0 0 1.391-.695.14.14 0 0 1 .216.174 2.171 2.171 0 0 1-1.558.8Z" fill="url(#q)"/><path d="M57.313 70.888h-.063c-9.736-.473-22.596-5.278-31.671-9.229a.14.14 0 0 1-.07-.18.139.139 0 0 1 .188-.077c9.04 3.943 21.865 8.735 31.567 9.208a1.856 1.856 0 0 0 1.39-.695.139.139 0 0 1 .195 0 .153.153 0 0 1 0 .201 2.224 2.224 0 0 1-1.536.772Z" fill="url(#r)"/><path d="M57.313 73.976h-.063c-9.736-.466-22.595-5.272-31.67-9.222a.146.146 0 0 1-.07-.188.146.146 0 0 1 .187-.07c9.041 3.937 21.873 8.736 31.567 9.202a1.855 1.855 0 0 0 1.391-.696.132.132 0 0 1 .195 0 .139.139 0 0 1 0 .195 2.205 2.205 0 0 1-1.537.779Z" fill="url(#s)"/><path d="M57.313 77.057h-.063c-9.736-.473-22.596-5.279-31.671-9.229a.14.14 0 0 1-.07-.18.139.139 0 0 1 .188-.077c9.04 3.943 21.872 8.735 31.567 9.208a1.912 1.912 0 0 0 1.39-.696.139.139 0 0 1 .195 0 .153.153 0 0 1 0 .202 2.225 2.225 0 0 1-1.536.772Z" fill="url(#t)"/><path d="M57.313 80.117h-.063c-9.736-.473-22.595-5.279-31.67-9.229a.146.146 0 0 1-.07-.188.146.146 0 0 1 .187-.07c9.041 3.937 21.873 8.736 31.567 9.202a1.864 1.864 0 0 0 1.391-.696.139.139 0 0 1 .195 0 .139.139 0 0 1 0 .195 2.177 2.177 0 0 1-1.537.786Z" fill="url(#u)"/><path fill-rule="evenodd" clip-rule="evenodd" d="M23.5 67.133V26.886l-1.44-.813v40.434l1.44.626Z" fill="#2137FF"/><path fill-rule="evenodd" clip-rule="evenodd" d="M23.5 66.806v-39.92l-1.127-.632v40.065l1.127.487Z" fill="#fff"/><path fill-rule="evenodd" clip-rule="evenodd" d="M23.5 67.132v-.291l-1.127-.508-.313.174 1.44.625Z" fill="url(#v)"/><path fill-rule="evenodd" clip-rule="evenodd" d="m15.078 46.95-.765-.438.764.438Zm0 23.646V69.29l-.765-.439v1.308l.764.438Zm0-2.629V66.66l-.765-.438v1.307l.764.438Zm0-2.629v-1.307l-.765-.438V64.9l.764.438Zm0-2.628v-1.308l-.765-.438v1.307l.764.439Zm0-2.63v-1.307l-.765-.438v1.308l.764.438Zm0-2.628v-1.308l-.765-.438v1.308l.764.438Zm0-2.629V53.51l-.765-.432v1.308l.764.438Zm0-2.629v-1.286l-.765-.432v1.308l.764.438v-.028Zm0-2.629v-1.3l-.765-.431v1.307l.764.438v-.014Zm0-5.257v-1.315l-.765-.438v1.315l.764.438Zm0-2.63v-1.313l-.765-.439v1.315l.764.438Zm0-2.628v-1.314l-.765-.438v1.307l.764.445Zm0-2.636v-1.293l-.765-.438v1.307l.764.438v-.014Zm0-2.629v-1.307l-.765-.438v1.307l.764.438Zm0-2.628v-1.308l-.765-.438v1.328l.764.438v-.02Zm0-2.63v-1.265l-.765-.438v1.307l.764.439v-.042Zm0-2.628V24.59l-.765-.438v1.308l.764.438Z" fill="url(#w)"/><path fill-rule="evenodd" clip-rule="evenodd" d="m15.078 46.784-.62-.355.62.355Zm-.62 22.164v1.147l.62.355v-1.148l-.62-.354Zm0-2.629v1.147l.62.355v-1.147l-.62-.355Zm0-2.629v1.127l.62.355v-1.148l-.62-.355v.021Zm0-2.629v1.148l.62.354v-1.147l-.62-.355Zm0-2.629v1.141l.62.362v-1.148l-.62-.355Zm0-2.628v1.14l.62.362v-1.148l-.62-.354Zm0-2.63v1.141l.62.362v-1.154l-.62-.348Zm0-2.628v1.14l.62.355v-1.133l-.62-.348v-.014Zm0-2.636v1.148l.62.354v-1.147l-.62-.355Zm0-5.257V43.8l.62.355v-1.148l-.62-.354Zm0-2.63v1.148l.62.355v-1.148l-.62-.354Zm0-2.628v1.147l.62.355V37.75l-.62-.355Zm0-2.629v1.148l.62.354v-1.147l-.62-.355Zm0-2.629v1.148l.62.354v-1.147l-.62-.355Zm0-2.629v1.148l.62.355v-1.148l-.62-.355Zm0-2.628v1.147l.62.355v-1.12l-.62-.355v-.027Zm0-2.63v1.148l.62.355v-1.148l-.62-.354Z" fill="#fff"/><path fill-rule="evenodd" clip-rule="evenodd" d="M39.356 13.77v1.342c3.477 0 6.26 1.607 6.26 3.596s-2.783 3.595-6.26 3.595v1.342c4.284 0 7.761-2.211 7.761-4.937 0-2.726-3.477-4.938-7.761-4.938Zm0 7.692v-1.308l1.127.647-1.127.696v-.035Zm0-2.087v-1.349l.633-.361-.633-.362v-1.28l.076-.048 4.743 2.726-1.154.695-1.864-1.036-1.801 1.015Zm0-5.633c-4.284 0-7.754 2.212-7.754 4.938 0 2.726 3.477 4.93 7.754 4.938v-1.342c-3.477 0-6.26-1.614-6.26-3.596s2.783-3.596 6.26-3.596v-1.342Zm0 2.281v1.28l-1.134-.633 1.134-.647Zm0 2.003v1.35l-.654.375.654.375v1.308l-4.806-2.712 1.21-.696 1.78 1.023 1.816-1.023Z" fill="url(#x)"/><path fill-rule="evenodd" clip-rule="evenodd" d="M37.854 5.32v1.308l-.765.438V5.758l.765-.438Zm-9.041 5.154v1.314l-.765.431v-1.307l.765-.438Zm1.127-.647v1.314l-.766.438v-1.314l.765-.438Zm1.133-.647v1.308l-.765.438V9.618l.765-.438Zm1.127-.647v1.343l-.765.43V9l.765-.438v-.028Zm1.126-.646V9.18l-.765.438V8.304l.765-.438v.02Zm1.127-.64v1.307l-.765.438V7.685l.765-.438ZM35.58 6.6v1.314l-.765.432V7.038l.765-.438Zm1.126-.647v1.315l-.765.438V6.398l.765-.445Z" fill="#171552"/><path fill-rule="evenodd" clip-rule="evenodd" d="M37.089 6.885V5.758l.605-.354v1.133l-.605.348Zm-8.415 3.686v1.127l-.613.347V10.92l.613-.348Zm1.126-.647v1.134l-.612.348v-1.134l.612-.348Zm1.127-.646v1.133l-.605.348V9.632l.605-.354Zm1.133-.64v1.126l-.612.348V8.985l.612-.347Zm1.127-.647v1.134l-.612.347V8.34l.612-.348Zm1.127-.647v1.14l-.612.348V7.706l.612-.355v-.007Zm1.126-.64v1.127l-.612.348V7.052l.612-.348Zm1.127-.646V7.19l-.612.348v-1.14l.612-.341Z" fill="url(#y)"/><path fill-rule="evenodd" clip-rule="evenodd" d="m25.58 14.82.013-2.97 1.314-.744v2.956l-1.328.758Z" fill="#171552"/><path fill-rule="evenodd" clip-rule="evenodd" d="m25.58 14.646.013-2.796 1.148-.653v2.782l-1.162.667Z" fill="url(#z)"/><path fill-rule="evenodd" clip-rule="evenodd" d="M18.937 17.846v-.37l-2.065-.806-2.066 1.05v.126l2.066 1.182 2.065-1.182Z" fill="#171552"/><path fill-rule="evenodd" clip-rule="evenodd" d="m15.863 17.178-1.057.299v.368l2.066 1.183v-1.85h-1.009Z" fill="#231889"/><path fill-rule="evenodd" clip-rule="evenodd" d="m18.937 17.477-2.065-1.175-2.066 1.175 2.066 1.175 2.065-1.175Z" fill="url(#A)"/><path fill-rule="evenodd" clip-rule="evenodd" d="M22.067 16.225v-.369l-2.072-.806-2.059 1.05v.125l2.066 1.182 2.065-1.182Z" fill="#171552"/><path fill-rule="evenodd" clip-rule="evenodd" d="m18.993 15.565-1.057.292v.368l2.066 1.182v-1.842h-1.009Z" fill="#231889"/><path fill-rule="evenodd" clip-rule="evenodd" d="m22.067 15.857-2.072-1.176-2.059 1.176 2.066 1.175 2.065-1.175Z" fill="url(#B)"/><path fill-rule="evenodd" clip-rule="evenodd" d="m34.87.278 4.778 2.518v.215l-14.32 8.186-4.75-2.733V8.24L34.87.278Z" fill="#171552"/><path fill-rule="evenodd" clip-rule="evenodd" d="m34.87.063 4.778 2.733-14.32 8.185-4.75-2.74L34.87.063Z" fill="url(#C)"/><path fill-rule="evenodd" clip-rule="evenodd" d="M24.772 69.95v3.407l-3.72-1.641-.327.195v-4.187l4.047 2.225Z" fill="#231889"/><path fill-rule="evenodd" clip-rule="evenodd" d="M24.773 69.699v3.658l-3.721-1.641v-4.062l3.72 2.045Z" fill="#171552"/><path fill-rule="evenodd" clip-rule="evenodd" d="m16.927 68.384 5.85 2.622 2.864-1.731v-.265l-5.688-2.295-3.026 1.405v.264Z" fill="#171552"/><path fill-rule="evenodd" clip-rule="evenodd" d="m16.927 68.385 5.842 2.614v-3.15l-.348-.139h-4.617l-.877.41v.265Z" fill="#2137FF"/><path fill-rule="evenodd" clip-rule="evenodd" d="m16.927 68.12 5.85 2.622 2.864-1.732-5.688-2.559-3.026 1.67Z" fill="url(#D)"/><path fill-rule="evenodd" clip-rule="evenodd" d="m20.92 66.882-.968-.43-3.025 1.668 3.992-1.238Z" fill="#231889"/><path fill-rule="evenodd" clip-rule="evenodd" d="M12.894 72.884c-.911 0-1.655.473-1.655 1.057s.744 1.05 1.655 1.05 1.655-.473 1.655-1.05c0-.577-.737-1.057-1.655-1.057Z" fill="#171552"/><path fill-rule="evenodd" clip-rule="evenodd" d="M14.605 71.424a.418.418 0 0 1 .041.132c0 .041.125.146.112.195a.348.348 0 0 0 .104.375.446.446 0 0 0 .042.417c0 .112-.063.23 0 .334a.633.633 0 0 1-.112.32.348.348 0 0 0-.062.202c0 .062-.07.076-.118.125-.04.07-.084.138-.133.202a.598.598 0 0 1-.104.153l-.118.083s-.049.097-.084.097l-.313.147a.952.952 0 0 0-.083.083.432.432 0 0 0-.257.111.235.235 0 0 0-.084.042.46.46 0 0 0-.271.063c-.07 0-.09 0-.153-.042a.556.556 0 0 0-.424 0 .45.45 0 0 0-.14 0 .362.362 0 0 0-.208-.056.411.411 0 0 0-.39-.18.927.927 0 0 0-.264-.202.368.368 0 0 0-.264-.355.327.327 0 0 0-.243-.313.49.49 0 0 1-.056-.16.396.396 0 0 0-.056-.25.578.578 0 0 0-.062-.48.627.627 0 0 1 .055-.174 1.219 1.219 0 0 1 0-.16.494.494 0 0 0 .056-.313.23.23 0 0 1 .077-.09c.083-.119.146-.181.125-.334-.021-.153.111-.105.125-.174.014-.07.111-.097.167-.16.056-.063.132-.084.188-.14a.348.348 0 0 0 .243-.208h.056a.452.452 0 0 0 .396-.118c.077-.035.167 0 .25 0a1.26 1.26 0 0 0 .313-.09c.11.07.238.11.369.11a.362.362 0 0 1 .209.043c.132.034.187-.05.257.041.07.09.243.153.368.244.126.09.23.271.37.382.138.112.034.077.076.098Z" fill="url(#E)"/><path fill-rule="evenodd" clip-rule="evenodd" d="M14.382 71.368a.293.293 0 0 1 0 .111s.104.119.098.16a.285.285 0 0 0 .09.313.347.347 0 0 0 0 .348c0 .09-.056.188 0 .271a.53.53 0 0 1-.09.271.285.285 0 0 0-.056.167.458.458 0 0 1-.098.105c-.041.055-.07.11-.118.167a.519.519 0 0 1-.09.125l-.098.07s-.041.083-.07.083c-.09.034-.179.076-.263.125a.339.339 0 0 0-.077.063.376.376 0 0 0-.215.09.216.216 0 0 0-.07.035.459.459 0 0 0-.236.055h-.126a.5.5 0 0 0-.361 0h-.119a.271.271 0 0 0-.187-.07.335.335 0 0 0-.327-.152.696.696 0 0 0-.23-.167.32.32 0 0 0-.222-.3.271.271 0 0 0-.202-.257.306.306 0 0 1-.049-.132.319.319 0 0 0-.048-.208.452.452 0 0 0-.056-.355c.01-.05.027-.1.049-.146a.832.832 0 0 1 0-.132.417.417 0 0 0 .048-.257.166.166 0 0 1 .063-.077c.07-.097.125-.153.111-.278-.014-.125.09-.084.105-.146a1.16 1.16 0 0 1 .146-.125c.041-.049.111-.07.153-.126a.286.286 0 0 0 .208-.166h.049a.361.361 0 0 0 .334-.098h.215a.883.883 0 0 0 .265-.076.557.557 0 0 0 .313.097.409.409 0 0 1 .18 0c.112 0 .154-.035.216 0 .063.035.209.132.313.209.104.076.202.222.313.313.111.09.07.076.14.09Z" fill="url(#F)"/><path fill-rule="evenodd" clip-rule="evenodd" d="M14.11 71.389v.083c0 .028.084.098.077.132a.223.223 0 0 0 .077.25.286.286 0 0 0 0 .279c0 .07-.049.146 0 .216a.452.452 0 0 1-.084.215.229.229 0 0 0-.041.132.238.238 0 0 1-.084.084.931.931 0 0 1-.097.132.29.29 0 0 1-.077.104l-.076.056s-.042.062-.063.07c-.077.026-.15.058-.222.097a.187.187 0 0 0-.056.048.375.375 0 0 0-.188.077.137.137 0 0 0-.055 0 .382.382 0 0 0-.195.042h-.104a.438.438 0 0 0-.3 0h-.104a.215.215 0 0 0-.146-.035.294.294 0 0 0-.271-.125.639.639 0 0 0-.195-.132.243.243 0 0 0-.18-.237.23.23 0 0 0-.175-.209.328.328 0 0 1-.041-.104.278.278 0 0 0-.035-.167.404.404 0 0 0-.049-.285.696.696 0 0 1 .035-.111v-.112a.313.313 0 0 0 .035-.208l.055-.056c.056-.083.105-.125.09-.222-.013-.098.077-.07.091-.119.014-.048.077-.062.119-.104.045-.03.09-.063.132-.097a.215.215 0 0 0 .166-.132h.042a.37.37 0 0 0 .285-.077h.174a.809.809 0 0 0 .223-.063.48.48 0 0 0 .257.077.286.286 0 0 1 .153 0h.181c.049 0 .174.104.264.16.09.056.16.18.258.257.097.077.09.07.125.084Z" fill="url(#G)"/><path fill-rule="evenodd" clip-rule="evenodd" d="M13.944 71.368v.07c0 .02.07.076.063.104a.182.182 0 0 0 .062.195.201.201 0 0 0 0 .215c0 .063-.041.118 0 .174a.32.32 0 0 1-.07.174.139.139 0 0 0-.034.104.23.23 0 0 1-.076.063l-.077.104a.406.406 0 0 1-.07.084l-.07.041s-.034.05-.048.05l-.194.076-.05.041a.3.3 0 0 0-.16.063h-.048a.272.272 0 0 0-.167.035h-.097a.361.361 0 0 0-.257 0h-.084a.264.264 0 0 0-.132 0 .258.258 0 0 0-.237-.098.634.634 0 0 0-.16-.104.21.21 0 0 0-.16-.188.195.195 0 0 0-.152-.16.217.217 0 0 1-.035-.083.18.18 0 0 0 0-.132.277.277 0 0 0-.035-.223.455.455 0 0 1 0-.09v-.084a.236.236 0 0 0 0-.167.312.312 0 0 1 .049-.048c.048-.063.09-.09.083-.174-.007-.084.063-.056.077-.09a.974.974 0 0 1 .097-.084c.035 0 .084-.042.111-.07a.216.216 0 0 0 .153-.11h.035a.298.298 0 0 0 .244-.063.576.576 0 0 1 .152 0 .574.574 0 0 0 .188-.05c.07.043.149.064.23.063a.265.265 0 0 1 .125 0h.16c.049 0 .146.077.223.126.076.048.146.146.229.201.083.056.104.028.132.035Z" fill="url(#H)"/><path fill-rule="evenodd" clip-rule="evenodd" d="M13.75 71.389v.041c0 .042.062.056.055.07a.111.111 0 0 0 .055.14.112.112 0 0 0 0 .145c0 .042-.034.084 0 .125a.264.264 0 0 1-.055.119.1.1 0 0 0-.035.07l-.056.048-.07.07a.188.188 0 0 1-.048.055h-.063s0 .035-.041.035l-.153.055h-.042a.271.271 0 0 0-.132.042h-.042a.484.484 0 0 0-.139 0 .084.084 0 0 1-.07 0 .376.376 0 0 0-.215 0h-.07a.258.258 0 0 0-.104 0 .222.222 0 0 0-.195-.062.41.41 0 0 0-.132-.077.14.14 0 0 0-.132-.125.132.132 0 0 0-.118-.111.125.125 0 0 1 0-.063.153.153 0 0 0 0-.09.16.16 0 0 0-.035-.153v-.119a.155.155 0 0 0 0-.118h.035c.042-.049.076-.07.07-.125-.008-.056.048-.035.062-.063l.084-.055.09-.049a.166.166 0 0 0 .118-.076h.035a.298.298 0 0 0 .195 0 .376.376 0 0 1 .125 0 .694.694 0 0 0 .16-.035.384.384 0 0 0 .18.041.274.274 0 0 1 .105 0h.132c.042 0 .118.056.18.084.063.028.119.097.189.139l.076.042Z" fill="url(#I)"/><path fill-rule="evenodd" clip-rule="evenodd" d="M10.21 74.358c-.919 0-1.656.473-1.656 1.057 0 .585.737 1.05 1.655 1.05s1.656-.465 1.656-1.05c0-.584-.745-1.057-1.656-1.057Z" fill="#171552"/><path fill-rule="evenodd" clip-rule="evenodd" d="M11.92 72.905a.333.333 0 0 1 .042.125c0 .049.118.146.111.195a.334.334 0 0 0 .105.375.445.445 0 0 0 0 .418c0 .111-.063.23 0 .334a.764.764 0 0 1-.112.326.313.313 0 0 0-.062.195.41.41 0 0 1-.118.125c-.05.077-.084.14-.132.202a.508.508 0 0 1-.112.153l-.111.09s-.056.09-.084.09c-.027 0-.215.098-.313.154a.314.314 0 0 0-.09.076.452.452 0 0 0-.257.112.168.168 0 0 0-.077.041.543.543 0 0 0-.278.063c-.063 0-.09 0-.146-.042a.556.556 0 0 0-.424 0h-.146a.313.313 0 0 0-.209-.062.396.396 0 0 0-.382-.181.862.862 0 0 0-.272-.202.362.362 0 0 0-.257-.355.327.327 0 0 0-.243-.313.438.438 0 0 1-.056-.16.397.397 0 0 0-.056-.25.584.584 0 0 0-.07-.431 1 1 0 0 1 .056-.174v-.16a.494.494 0 0 0 .05-.313.483.483 0 0 1 .076-.09c.083-.118.146-.181.132-.334-.014-.153.104-.104.125-.174.052-.055.108-.106.167-.153.056-.056.132-.083.18-.146a.32.32 0 0 0 .244-.209h.063a.458.458 0 0 0 .396-.118c.07-.035.167 0 .25 0a.916.916 0 0 0 .306-.09.7.7 0 0 0 .37.111.39.39 0 0 1 .215.042c.125.035.18-.049.257.041.076.09.243.154.362.244.118.09.236.278.368.382.043.024.087.045.132.063Z" fill="url(#J)"/><path fill-rule="evenodd" clip-rule="evenodd" d="M11.663 72.85a.373.373 0 0 1 0 .104c0 .034.104.118.097.16a.278.278 0 0 0 .084.313.382.382 0 0 0 0 .347c0 .09-.056.188 0 .278a.577.577 0 0 1-.098.265.292.292 0 0 0-.048.167.374.374 0 0 1-.105.104l-.11.167a.41.41 0 0 1-.091.125.368.368 0 0 0-.098.077s-.048.076-.07.076a1.6 1.6 0 0 0-.27.125.296.296 0 0 0-.07.063.382.382 0 0 0-.223.097h-.069a.431.431 0 0 0-.23.056c-.055 0-.076 0-.125-.035a.5.5 0 0 0-.361 0H9.75a.257.257 0 0 0-.173-.049.355.355 0 0 0-.327-.153.884.884 0 0 0-.23-.167.306.306 0 0 0-.222-.292.285.285 0 0 0-.209-.264.3.3 0 0 1-.042-.125.348.348 0 0 0-.048-.209.473.473 0 0 0-.063-.361.555.555 0 0 1 .049-.14v-.139a.369.369 0 0 0 .041-.257.243.243 0 0 1 .07-.076.348.348 0 0 0 .104-.279c0-.048.09-.083.112-.139a.831.831 0 0 1 .139-.132c.048-.049.11-.07.153-.118a.278.278 0 0 0 .208-.174h.049a.39.39 0 0 0 .34-.09c.063-.035.14 0 .216 0a.84.84 0 0 0 .258-.077.57.57 0 0 0 .313.097.384.384 0 0 1 .18 0c.112.035.16 0 .223.035s.202.132.306.209c.104.076.202.223.313.32.111.097.09.07.153.09Z" fill="url(#K)"/><path fill-rule="evenodd" clip-rule="evenodd" d="M11.42 72.863a.193.193 0 0 1 0 .084c0 .034.09.097.083.132a.216.216 0 0 0 .07.25.286.286 0 0 0 0 .278c0 .07-.043.146 0 .223a.444.444 0 0 1-.077.209.236.236 0 0 0-.049.132c0 .041-.049.055-.076.09l-.098.125a.244.244 0 0 1-.076.105l-.084.062s-.034.056-.055.063l-.223.097-.063.049a.327.327 0 0 0-.18.076h-.056a.362.362 0 0 0-.195.042h-.111a.404.404 0 0 0-.299 0 .235.235 0 0 0-.097 0 .278.278 0 0 0-.153 0 .285.285 0 0 0-.272-.125.693.693 0 0 0-.187-.132.257.257 0 0 0-.188-.237.222.222 0 0 0-.174-.208.265.265 0 0 1 0-.105.243.243 0 0 0-.042-.215.347.347 0 0 0-.048-.285.363.363 0 0 1 .041-.112.59.59 0 0 1 0-.11.32.32 0 0 0 .042-.21l.056-.055c.055-.084.097-.125.09-.223-.007-.097.07-.07.083-.118l.119-.104c.041-.035.097-.056.132-.09a.237.237 0 0 0 .174-.14h.041a.326.326 0 0 0 .279-.076h.18a.872.872 0 0 0 .223-.056.53.53 0 0 0 .257.07.286.286 0 0 1 .153 0h.181c.056 0 .167.104.258.166.09.063.166.181.257.25.09.07.055.084.083.098Z" fill="url(#L)"/><path fill-rule="evenodd" clip-rule="evenodd" d="M11.26 72.85a.219.219 0 0 1 0 .062s.076.076.07.104a.16.16 0 0 0 .062.195.23.23 0 0 0 0 .222v.174a.307.307 0 0 1-.063.167.195.195 0 0 0-.042.105s-.041.041-.07.062a.608.608 0 0 1-.083.105.374.374 0 0 1-.062.083l-.077.042s0 .048-.048.055l-.188.077a.165.165 0 0 0-.056.041.265.265 0 0 0-.16.056h-.048a.342.342 0 0 0-.167.035h-.09a.41.41 0 0 0-.258 0h-.09a.257.257 0 0 0-.126 0 .278.278 0 0 0-.236-.097.697.697 0 0 0-.167-.105.195.195 0 0 0-.16-.188.174.174 0 0 0-.146-.16.215.215 0 0 1 0-.083.188.188 0 0 0-.035-.132.257.257 0 0 0-.041-.223.243.243 0 0 1 .034-.09.327.327 0 0 1 0-.084.237.237 0 0 0 .035-.166.139.139 0 0 1 .049-.042c.048-.07.083-.097.076-.174-.007-.077.063-.056.077-.097a.999.999 0 0 1 .104-.077l.111-.076a.188.188 0 0 0 .146-.112h.042a.3.3 0 0 0 .244-.062.585.585 0 0 1 .152 0 .914.914 0 0 0 .188-.042.459.459 0 0 0 .223.056.279.279 0 0 1 .132 0h.16c.049 0 .146.083.223.132.076.049.139.139.222.195.02.015.04.029.063.041Z" fill="url(#M)"/><path fill-rule="evenodd" clip-rule="evenodd" d="M11.065 72.863v.042c0 .042.062.055.055.076a.098.098 0 0 0 .049.133.139.139 0 0 0 0 .152v.119a.174.174 0 0 1-.056.118v.07c0 .027-.034 0-.055.048l-.07.07s0 .041-.056.055h-.055l-.042.035-.16.049h-.042a.418.418 0 0 0-.132.042h-.034a.292.292 0 0 0-.14 0h-.076a.354.354 0 0 0-.209 0h-.07a.282.282 0 0 0-.11 0 .236.236 0 0 0-.188-.063.691.691 0 0 0-.14-.076.146.146 0 0 0-.125-.126.132.132 0 0 0-.125-.111v-.146a.167.167 0 0 0 0-.16v-.118a.133.133 0 0 0 0-.112.105.105 0 0 1 .042 0c.042-.041.07-.07.063-.118-.007-.048.055-.041.062-.062l.084-.063a.375.375 0 0 0 .09-.049.18.18 0 0 0 .125-.076c.07.005.14-.01.202-.042a.376.376 0 0 1 .125 0c.05.004.102.004.153 0a.53.53 0 0 0 .18.042h.237c.035 0 .126.055.188.09.063.035.118.098.18.132.063.035.029.042.05.05Z" fill="url(#N)"/><path fill-rule="evenodd" clip-rule="evenodd" d="M7.63 75.61c-.919 0-1.656.473-1.656 1.057 0 .585.737 1.05 1.655 1.05s1.655-.465 1.655-1.05c0-.584-.744-1.057-1.655-1.057Z" fill="#171552"/><path fill-rule="evenodd" clip-rule="evenodd" d="M9.34 74.15a.417.417 0 0 1 .042.132c0 .042.118.146.11.195a.34.34 0 0 0 .105.375.445.445 0 0 0 0 .417c0 .112-.062.23 0 .334a.695.695 0 0 1-.111.32.348.348 0 0 0-.063.202.41.41 0 0 1-.118.125l-.132.202a.62.62 0 0 1-.111.153l-.112.09s-.055.09-.083.09c-.028 0-.216.098-.313.154a.313.313 0 0 0-.09.076.452.452 0 0 0-.258.111.167.167 0 0 0-.076.042.543.543 0 0 0-.278.063c-.063 0-.09 0-.147-.042a.556.556 0 0 0-.424 0h-.146a.313.313 0 0 0-.208-.063.396.396 0 0 0-.383-.18.86.86 0 0 0-.271-.202.362.362 0 0 0-.257-.355.327.327 0 0 0-.244-.313.438.438 0 0 1-.056-.16.397.397 0 0 0-.055-.25.584.584 0 0 0-.07-.431 1 1 0 0 1 .056-.174v-.16a.494.494 0 0 0 .049-.313.481.481 0 0 1 .076-.09c.084-.119.146-.181.132-.334-.014-.153.105-.105.125-.174a1.72 1.72 0 0 1 .167-.153c.056-.056.133-.084.181-.146a.334.334 0 0 0 .244-.209h.062a.458.458 0 0 0 .397-.118h.25a.916.916 0 0 0 .306-.09c.11.07.238.109.369.11a.39.39 0 0 1 .215.042c.125 0 .181-.048.257.042.077.09.244.153.362.244.118.09.237.27.369.382a.561.561 0 0 0 .132.056Z" fill="url(#O)"/><path fill-rule="evenodd" clip-rule="evenodd" d="M9.083 74.101a.37.37 0 0 1 .034.105c0 .034.105.118.098.16a.278.278 0 0 0 .083.312.39.39 0 0 0 .035.348c0 .09-.056.188 0 .278a.577.577 0 0 1-.097.265.292.292 0 0 0-.049.166.376.376 0 0 1-.104.105l-.112.167a.412.412 0 0 1-.09.125.366.366 0 0 0-.097.076s-.05.077-.07.077a1.918 1.918 0 0 0-.271.125.299.299 0 0 0-.07.063.425.425 0 0 0-.222.09l-.07.035a.431.431 0 0 0-.23.055c-.055 0-.076 0-.124-.034a.5.5 0 0 0-.362 0H7.24a.257.257 0 0 0-.174-.049.355.355 0 0 0-.327-.153.882.882 0 0 0-.23-.167.306.306 0 0 0-.222-.292.285.285 0 0 0-.209-.264.292.292 0 0 1-.041-.132.369.369 0 0 0-.05-.209.459.459 0 0 0-.062-.355.556.556 0 0 1 .049-.139v-.139a.369.369 0 0 0 .042-.257.188.188 0 0 1 .07-.077.347.347 0 0 0 .104-.278c.034-.049.09-.083.11-.146a1.19 1.19 0 0 1 .14-.125c.049-.049.111-.07.153-.125a.271.271 0 0 0 .209-.167h.048a.39.39 0 0 0 .341-.09c.063-.035.14 0 .216 0a.84.84 0 0 0 .257-.077.57.57 0 0 0 .313.097.381.381 0 0 1 .18 0c.112.035.16-.034.223.035.063.07.202.132.306.209.105.076.202.222.313.313a.913.913 0 0 0 .084.07Z" fill="url(#P)"/><path fill-rule="evenodd" clip-rule="evenodd" d="M8.819 74.115a.195.195 0 0 1 0 .083s.09.098.083.133a.216.216 0 0 0 .07.25.285.285 0 0 0 0 .278c0 .07-.042.146 0 .216a.445.445 0 0 1-.077.215.236.236 0 0 0-.049.132.3.3 0 0 1-.076.084l-.097.132a.291.291 0 0 1-.077.104l-.083.056s0 .063-.056.07l-.223.097-.062.049a.326.326 0 0 0-.181.076.137.137 0 0 0-.056 0 .361.361 0 0 0-.194.042h-.112a.438.438 0 0 0-.299 0h-.097a.279.279 0 0 0-.153-.035.285.285 0 0 0-.271-.125.696.696 0 0 0-.188-.132.257.257 0 0 0-.188-.237.223.223 0 0 0-.174-.208.306.306 0 0 1 0-.105.243.243 0 0 0-.041-.167.348.348 0 0 0-.05-.285.361.361 0 0 1 .043-.111.585.585 0 0 1 0-.111.32.32 0 0 0 .041-.209.21.21 0 0 1 .056-.056c.056-.083.097-.125.09-.222-.007-.098.07-.07.084-.118l.118-.105a.92.92 0 0 0 .132-.097.215.215 0 0 0 .174-.132h.042a.326.326 0 0 0 .278-.077h.18a.759.759 0 0 0 .216-.055.577.577 0 0 0 .265.07.286.286 0 0 1 .153 0h.18c.056 0 .167.104.258.166.09.063.167.181.257.25.09.07.084.07.084.084Z" fill="url(#Q)"/><path fill-rule="evenodd" clip-rule="evenodd" d="M8.68 74.101a.223.223 0 0 1 0 .063s.076.076.069.104a.16.16 0 0 0 .063.195.215.215 0 0 0 0 .215c0 .063-.035.126 0 .174a.313.313 0 0 1-.063.174.174.174 0 0 0-.042.105s-.042.041-.07.062a.612.612 0 0 1-.083.104.376.376 0 0 1-.062.084l-.077.042s0 .048-.049.055l-.187.077-.056.034a.32.32 0 0 0-.16.063h-.049a.342.342 0 0 0-.167 0h-.09a.41.41 0 0 0-.257 0h-.09a.257.257 0 0 0-.126 0 .278.278 0 0 0-.236-.097.696.696 0 0 0-.167-.105.194.194 0 0 0-.16-.187.174.174 0 0 0-.146-.16.216.216 0 0 1-.035-.084.188.188 0 0 0 0-.132.257.257 0 0 0-.042-.222.243.243 0 0 1 0-.09.326.326 0 0 1 0-.084.236.236 0 0 0 .035-.167.316.316 0 0 1 .049-.049c.048-.063.083-.09.076-.174-.007-.083.063-.049.077-.09a.999.999 0 0 1 .104-.077c.035-.028.073-.053.111-.076a.203.203 0 0 0 .146-.112h.042a.298.298 0 0 0 .244-.062.594.594 0 0 1 .152 0 .626.626 0 0 0 .188-.049.397.397 0 0 0 .223.063.276.276 0 0 1 .132 0h.16c.049 0 .146.083.222.132.077.049.14.14.223.195a.5.5 0 0 0 .097.076Z" fill="url(#R)"/><path fill-rule="evenodd" clip-rule="evenodd" d="M8.484 74.115v.042c0 .041.063.055.056.07a.104.104 0 0 0 .049.138.14.14 0 0 0 0 .153v.118a.174.174 0 0 1-.056.119v.07c0 .027 0 0-.063.048a.569.569 0 0 1-.062.07s0 .041-.056.055h-.097l-.16.056h-.042a.415.415 0 0 0-.132.041h-.035a.416.416 0 0 0-.139 0h-.076a.355.355 0 0 0-.209 0h-.035a.285.285 0 0 0-.111 0 .215.215 0 0 0-.188-.062.697.697 0 0 0-.139-.077c0-.062-.042-.104-.125-.125a.132.132 0 0 0-.125-.111v-.056a.125.125 0 0 0 0-.097.16.16 0 0 0 0-.153v-.118a.132.132 0 0 0 0-.112.104.104 0 0 1 .042-.034c.041-.042.07-.07.062-.119-.007-.048.056-.041.063-.07l.083-.055s.07 0 .09-.048a.18.18 0 0 0 .126-.077c.07.005.14-.01.201-.042a.376.376 0 0 1 .126 0c.05.004.102.004.153 0 .06.01.12.01.18 0a.285.285 0 0 1 .112 0h.125c.035 0 .125.056.188.084.062.028.11.104.18.139.07.035-.006.139.014.153Z" fill="url(#S)"/><path fill-rule="evenodd" clip-rule="evenodd" d="M23.075 78.177c-.918 0-1.655.472-1.655 1.05 0 .577.737 1.057 1.655 1.057s1.655-.473 1.655-1.057c0-.585-.744-1.05-1.655-1.05Z" fill="#171552"/><path fill-rule="evenodd" clip-rule="evenodd" d="M24.814 76.716a.385.385 0 0 1 .042.125c0 .049.118.146.111.195a.347.347 0 0 0 .104.376.445.445 0 0 0 0 .417c0 .111-.062.23 0 .334a.696.696 0 0 1-.111.327.34.34 0 0 0-.063.194c0 .063-.07.084-.118.132-.04.068-.084.133-.132.195a.656.656 0 0 1-.111.16.421.421 0 0 0-.112.084s-.055.09-.083.097c-.107.041-.212.09-.313.146l-.09.076a.452.452 0 0 0-.258.112.27.27 0 0 0-.076.041.542.542 0 0 0-.278.063c-.063 0-.09 0-.146-.035a.529.529 0 0 0-.425 0 .47.47 0 0 0-.139 0 .299.299 0 0 0-.215-.055.382.382 0 0 0-.383-.188.987.987 0 0 0-.271-.202.368.368 0 0 0-.257-.355.334.334 0 0 0-.244-.312.44.44 0 0 1-.055-.16.403.403 0 0 0-.056-.25.591.591 0 0 0-.07-.432.787.787 0 0 1 .056-.167v-.167a.494.494 0 0 0 .049-.313.34.34 0 0 1 .083-.09c.077-.118.14-.181.125-.327-.014-.146.105-.111.126-.18.02-.07.11-.098.166-.154.056-.056.133-.083.181-.146a.328.328 0 0 0 .244-.202h.062a.471.471 0 0 0 .397-.11c.07-.043.167 0 .25 0 .109-.014.214-.044.313-.091a.696.696 0 0 0 .362.118.452.452 0 0 1 .215.035c.125.041.181-.042.258.041.076.084.243.153.361.25.118.098.237.272.369.383.132.112.062.007.132.035Z" fill="url(#T)"/><path fill-rule="evenodd" clip-rule="evenodd" d="M24.529 76.64a.605.605 0 0 1 0 .104c0 .042.104.118.097.16a.292.292 0 0 0 .084.313.382.382 0 0 0 0 .347c0 .09-.056.188 0 .279a.64.64 0 0 1-.098.27.257.257 0 0 0-.048.16.377.377 0 0 1-.105.105.871.871 0 0 1-.11.167.445.445 0 0 1-.091.132.346.346 0 0 0-.098.07s-.048.076-.07.076l-.27.126a.566.566 0 0 0-.07.062.383.383 0 0 0-.222.097.167.167 0 0 0-.07 0 .445.445 0 0 0-.23.05h-.125a.44.44 0 0 0-.361 0 .36.36 0 0 0-.126 0 .298.298 0 0 0-.173-.05.34.34 0 0 0-.327-.146.798.798 0 0 0-.23-.174.306.306 0 0 0-.222-.292.286.286 0 0 0-.209-.264.382.382 0 0 1-.042-.125.354.354 0 0 0-.048-.209.508.508 0 0 0-.056-.361.528.528 0 0 1 .042-.14v-.139a.368.368 0 0 0 .041-.257s.05-.056.07-.076c.02-.021.118-.153.104-.272a.739.739 0 0 0 .112-.146 1.25 1.25 0 0 1 .139-.132c.054-.035.105-.075.153-.118a.264.264 0 0 0 .208-.174h.056a.411.411 0 0 0 .334-.097h.215c.09-.014.18-.037.265-.07a.57.57 0 0 0 .306.09.313.313 0 0 1 .18 0c.112 0 .16-.041.223.035.063.077.202.126.313.202.111.077.195.23.306.32.111.09.118.076.153.076Z" fill="url(#U)"/><path fill-rule="evenodd" clip-rule="evenodd" d="M24.286 76.674a.195.195 0 0 1 0 .09s.09.091.083.126a.216.216 0 0 0 .07.25.298.298 0 0 0 0 .278c0 .07-.042.153 0 .223a.502.502 0 0 1-.077.216.23.23 0 0 0-.042.132c0 .035-.048.048-.083.083l-.097.132a.367.367 0 0 1-.077.105.346.346 0 0 0-.083.055s-.035.063-.056.063l-.223.097-.062.049a.327.327 0 0 0-.181.077h-.056a.362.362 0 0 0-.194.041h-.105a.425.425 0 0 0-.306 0h-.07a.23.23 0 0 0-.152-.041.271.271 0 0 0-.271-.119.623.623 0 0 0-.188-.139.25.25 0 0 0-.188-.236.23.23 0 0 0-.167-.209.174.174 0 0 1-.042-.097.25.25 0 0 0-.041-.174.348.348 0 0 0-.05-.285.365.365 0 0 1 .043-.112v-.11a.34.34 0 0 0 0-.203.16.16 0 0 1 .055-.062c.056-.084.098-.118.09-.223-.006-.104.077-.07.091-.11a.557.557 0 0 1 .118-.105c0-.042.09-.056.126-.098a.236.236 0 0 0 .173-.139h.042a.327.327 0 0 0 .285-.076h.174a.867.867 0 0 0 .223-.056.47.47 0 0 0 .257.077.359.359 0 0 1 .153 0h.18c.056 0 .175.104.258.167.084.062.167.18.264.25a.24.24 0 0 0 .126.083Z" fill="url(#V)"/><path fill-rule="evenodd" clip-rule="evenodd" d="M24.119 76.64a.203.203 0 0 1 0 .069s.076.07.07.097a.16.16 0 0 0 .062.195.215.215 0 0 0 0 .223c0 .055-.042.118 0 .173a.39.39 0 0 1-.07.167.195.195 0 0 0-.041.105c0 .035-.042.041-.07.07a.565.565 0 0 1-.084.097.265.265 0 0 1-.062.083l-.07.049s-.034.048-.055.048l-.188.077a.168.168 0 0 0-.056.042.313.313 0 0 0-.16.055h-.048a.444.444 0 0 0-.167.035h-.09a.361.361 0 0 0-.258 0h-.09a.202.202 0 0 0-.126-.035.264.264 0 0 0-.236-.09.467.467 0 0 0-.167-.111.195.195 0 0 0-.16-.181.18.18 0 0 0-.146-.167.181.181 0 0 1 0-.084.188.188 0 0 0-.035-.132.257.257 0 0 0-.041-.222s0-.063.034-.09a.315.315 0 0 1 0-.084.263.263 0 0 0 0-.16.112.112 0 0 1 .049-.049c.049-.062.083-.097.076-.174-.006-.076.063-.055.077-.09.033-.03.068-.058.104-.084a1.06 1.06 0 0 0 .112-.076.196.196 0 0 0 .146-.104h.041a.32.32 0 0 0 .244-.056h.153a.916.916 0 0 0 .188-.042.5.5 0 0 0 .222.056.278.278 0 0 1 .132 0h.16c.049 0 .146.083.223.132.076.049.139.14.222.202.084.062.105.055.105.055Z" fill="url(#W)"/><path fill-rule="evenodd" clip-rule="evenodd" d="M23.93 76.674v.049c0 .049.064.049.056.07a.098.098 0 0 0 .05.132.139.139 0 0 0 0 .153v.118a.265.265 0 0 1-.056.118.098.098 0 0 0-.035.07.188.188 0 0 1-.056.048l-.07.07a.139.139 0 0 1-.055.056l-.056.034h-.041l-.16.049h-.042a.333.333 0 0 0-.125.042h-.042a.314.314 0 0 0-.14 0h-.076a.355.355 0 0 0-.208 0h-.07a.187.187 0 0 0-.111 0 .223.223 0 0 0-.188-.07.48.48 0 0 0-.132-.07.16.16 0 0 0-.132-.132.132.132 0 0 0-.125-.11v-.056a.111.111 0 0 0 0-.09.174.174 0 0 0 0-.16v-.119a.16.16 0 0 0 0-.111l.035-.035c.034-.035.069-.063.062-.118-.007-.056.056-.042.063-.063a.582.582 0 0 1 .083-.056.833.833 0 0 0 .09-.055.173.173 0 0 0 .126-.07.285.285 0 0 0 .201-.041.376.376 0 0 1 .126 0 .56.56 0 0 0 .153 0 .417.417 0 0 0 .187.041.27.27 0 0 1 .105 0h.125c.035 0 .125.056.188.09.062.035.118.098.18.14l.09.076Z" fill="url(#X)"/><path fill-rule="evenodd" clip-rule="evenodd" d="M20.384 79.65c-.911 0-1.655.474-1.655 1.051s.744 1.057 1.655 1.057c.91 0 1.662-.473 1.662-1.057s-.71-1.05-1.662-1.05Z" fill="#171552"/><path fill-rule="evenodd" clip-rule="evenodd" d="M22.102 78.19a.9.9 0 0 1 .034.126c0 .048.126.146.112.194a.348.348 0 0 0 .104.376.458.458 0 0 0 .042.417c0 .111-.063.23 0 .334a.696.696 0 0 1-.112.327.403.403 0 0 0-.062.195.403.403 0 0 1-.111.132 1.974 1.974 0 0 1-.14.194.486.486 0 0 1-.104.16.691.691 0 0 0-.118.084s-.049.09-.077.097a3.415 3.415 0 0 0-.32.146l-.083.077a.438.438 0 0 0-.257.118l-.084.035a.466.466 0 0 0-.271.07c-.063 0-.09 0-.153-.043a.543.543 0 0 0-.417 0 .525.525 0 0 0-.146 0 .285.285 0 0 0-.209-.055.397.397 0 0 0-.383-.181 1.008 1.008 0 0 0-.27-.209.369.369 0 0 0-.265-.354.334.334 0 0 0-.257-.313.398.398 0 0 1-.049-.153.416.416 0 0 0-.063-.257.57.57 0 0 0-.062-.425.506.506 0 0 1 .055-.174.623.623 0 0 1 0-.167.48.48 0 0 0 .05-.313s.055-.07.076-.09c.02-.02.146-.18.132-.327-.014-.146.104-.111.125-.174a.913.913 0 0 1 .167-.16c.055-.055.125-.083.18-.146a.326.326 0 0 0 .244-.201l.056-.035a.466.466 0 0 0 .403-.111h.244a.95.95 0 0 0 .313-.09.646.646 0 0 0 .368.117.419.419 0 0 1 .209 0c.132.042.188-.041.257.042.07.084.243.16.369.25.125.09.236.272.368.383.132.111.035.084.105.104Z" fill="url(#Y)"/><path fill-rule="evenodd" clip-rule="evenodd" d="M21.844 78.135a.605.605 0 0 1 .035.104c0 .042.104.125.09.167a.272.272 0 0 0 .09.306.36.36 0 0 0 .036.348c0 .09-.056.187 0 .278a.548.548 0 0 1-.09.271.279.279 0 0 0-.056.16.376.376 0 0 1-.098.111c-.041.056-.07.112-.111.16a.654.654 0 0 1-.097.132l-.098.07s-.042.076-.07.083l-.264.119-.076.062a.41.41 0 0 0-.216.097.132.132 0 0 0-.07.035.411.411 0 0 0-.236.056c-.048 0-.076 0-.125-.035a.466.466 0 0 0-.361 0 .345.345 0 0 0-.119 0 .32.32 0 0 0-.18-.049.34.34 0 0 0-.327-.146.835.835 0 0 0-.23-.173.306.306 0 0 0-.216-.292.286.286 0 0 0-.208-.258.307.307 0 0 1-.049-.132.313.313 0 0 0-.048-.209.452.452 0 0 0-.056-.354.503.503 0 0 1 .049-.146v-.133a.494.494 0 0 0 .041-.264.305.305 0 0 1 .063-.076c.07-.098.125-.146.111-.272-.014-.125.09-.09.104-.145.046-.048.095-.092.146-.133.042-.041.112-.07.154-.118a.286.286 0 0 0 .208-.167h.049a.424.424 0 0 0 .34-.097h.21a.874.874 0 0 0 .264-.07c.094.059.202.09.312.09a.327.327 0 0 1 .181.035c.112.035.153-.041.216.035.063.077.209.125.313.202.104.076.202.23.313.32.025.01.05.02.076.028Z" fill="url(#Z)"/><path fill-rule="evenodd" clip-rule="evenodd" d="M21.6 78.156v.083c0 .035.084.097.077.132a.208.208 0 0 0 .077.244.285.285 0 0 0 0 .278c0 .076-.049.153 0 .222a.41.41 0 0 1-.084.216.23.23 0 0 0-.041.132.236.236 0 0 1-.084.084c-.035.048-.055.09-.09.132a.612.612 0 0 1-.084.104l-.076.056s0 .062-.056.062l-.23.098a.423.423 0 0 0-.055.055.313.313 0 0 0-.188.07h-.055a.381.381 0 0 0-.195.042h-.104a.375.375 0 0 0-.3 0h-.104a.202.202 0 0 0-.062-.05.278.278 0 0 0-.272-.117.695.695 0 0 0-.194-.14 10.605 10.605 0 0 0-.355-.438.325.325 0 0 1-.042-.104.279.279 0 0 0-.034-.167.377.377 0 0 0-.05-.285.752.752 0 0 1 0-.118v-.105a.279.279 0 0 0 0-.208l.056-.063c.014-.014.105-.118.09-.222-.013-.105.077-.07.091-.112a.797.797 0 0 1 .119-.104c.045-.03.09-.063.132-.097a.25.25 0 0 0 .174-.14h.041a.328.328 0 0 0 .278-.069h.181a.76.76 0 0 0 .216-.055.5.5 0 0 0 .257.076c.05-.01.103-.01.153 0 .09 0 .132 0 .181.035.049.035.174.097.264.16.09.062.167.18.258.257a.456.456 0 0 1 .11.056Z" fill="url(#aa)"/><path fill-rule="evenodd" clip-rule="evenodd" d="M21.434 78.135a.732.732 0 0 1 0 .07s.07.076.063.097a.18.18 0 0 0 .07.201.188.188 0 0 0 0 .216c0 .056-.042.118 0 .174a.3.3 0 0 1-.07.167.16.16 0 0 0 0 .104c0 .035-.042.042-.07.07-.03.033-.058.068-.083.104a.245.245 0 0 1-.07.077l-.07.048s0 .049-.048.049l-.195.076-.048.042a.3.3 0 0 0-.16.063h-.05a.417.417 0 0 0-.166.034h-.09a.43.43 0 0 0-.265 0H20.1a.174.174 0 0 0-.132 0 .258.258 0 0 0-.237-.097.488.488 0 0 0-.16-.104.209.209 0 0 0-.16-.188.18.18 0 0 0-.153-.167.146.146 0 0 1 0-.077.209.209 0 0 0 0-.132.273.273 0 0 0-.041-.23.241.241 0 0 1 0-.09.333.333 0 0 1 0-.083.23.23 0 0 0 .034-.16s0-.042.042-.049c.042-.007.09-.097.084-.173-.007-.077.062-.056.076-.09.031-.03.064-.058.097-.084 0 0 .084-.042.112-.077a.188.188 0 0 0 .153-.104h.035a.32.32 0 0 0 .243-.056h.153a.824.824 0 0 0 .188-.049c.07.037.15.056.23.056a.392.392 0 0 1 .124 0h.16c.042 0 .146.077.223.125.076.049.146.14.23.202.083.063.006.02.034.035Z" fill="url(#ab)"/><path fill-rule="evenodd" clip-rule="evenodd" d="M21.246 78.149v.048s.056.049.056.07a.09.09 0 0 0 .048.132.125.125 0 0 0 0 .153c0 .042-.034.083 0 .118a.188.188 0 0 1-.055.118s-.035.05 0 .077l-.063.042-.062.07-.056.062h-.063l-.16.055h-.041a.215.215 0 0 0-.132.042h-.042a.278.278 0 0 0-.132 0h-.077a.375.375 0 0 0-.215 0h-.07a.174.174 0 0 0-.104 0 .25.25 0 0 0-.195-.07.593.593 0 0 0-.132-.069.154.154 0 0 0-.132-.132c0-.056-.042-.09-.119-.111a.083.083 0 0 1 0-.056.118.118 0 0 0 0-.09.16.16 0 0 0-.034-.153.173.173 0 0 1 0-.063v-.063a.132.132 0 0 0 0-.11h.041c0-.043.07-.063.063-.12-.007-.055.049 0 .063-.062l.083-.055a.64.64 0 0 0 .09-.056.167.167 0 0 0 .126-.07.257.257 0 0 0 .194-.041h.126a.69.69 0 0 0 .16-.035.382.382 0 0 0 .18.042.235.235 0 0 1 .105 0h.132c.035 0 .118.055.18.09.063.035.119.097.188.14l.05.097Z" fill="url(#ac)"/><path fill-rule="evenodd" clip-rule="evenodd" d="M17.804 80.903c-.911 0-1.656.473-1.656 1.05 0 .577.745 1.057 1.656 1.057.91 0 1.662-.473 1.662-1.057s-.744-1.05-1.662-1.05Z" fill="#171552"/><path fill-rule="evenodd" clip-rule="evenodd" d="M19.522 79.421a.93.93 0 0 1 .035.125c0 .05.125.146.11.195a.348.348 0 0 0 .105.376.46.46 0 0 0 .042.417c0 .111-.063.23 0 .334a.696.696 0 0 1-.111.327.403.403 0 0 0-.063.195.404.404 0 0 1-.111.132 1.961 1.961 0 0 1-.14.194.487.487 0 0 1-.104.16.696.696 0 0 0-.118.084s-.049.09-.076.097a3.27 3.27 0 0 0-.32.146l-.084.077a.431.431 0 0 0-.257.11.882.882 0 0 1-.355.112c-.062 0-.09 0-.153-.041a.514.514 0 0 0-.417 0 .517.517 0 0 0-.146 0 .285.285 0 0 0-.209-.056.388.388 0 0 0-.382-.188.985.985 0 0 0-.271-.202.37.37 0 0 0-.265-.354.334.334 0 0 0-.243-.313.397.397 0 0 1-.049-.153.416.416 0 0 0-.063-.258.57.57 0 0 0-.062-.424.508.508 0 0 1 .056-.174.622.622 0 0 1 0-.167.48.48 0 0 0 .048-.313s.056-.07.077-.09c.02-.02.146-.18.132-.327-.014-.146.104-.111.125-.18a1.16 1.16 0 0 1 .167-.154c.056-.055.125-.083.18-.146a.326.326 0 0 0 .244-.201l.056-.035a.464.464 0 0 0 .403-.111c.07-.035.167 0 .244 0a.956.956 0 0 0 .313-.09.647.647 0 0 0 .368.117.416.416 0 0 1 .209.035c.132.042.188-.042.257.042.07.083.244.153.369.25.125.098.236.272.368.383.133.111.049.07.09.07Z" fill="url(#ad)"/><path fill-rule="evenodd" clip-rule="evenodd" d="M19.25 79.421a.626.626 0 0 1 0 .105c0 .041.105.118.09.167a.272.272 0 0 0 .091.306.36.36 0 0 0 0 .347c0 .09-.056.188 0 .279a.55.55 0 0 1-.09.27.264.264 0 0 0-.056.16.376.376 0 0 1-.097.112l-.112.16a.656.656 0 0 1-.097.132l-.097.07s-.042.076-.07.083l-.264.118-.077.063a.362.362 0 0 0-.215.097.133.133 0 0 0-.07.035.465.465 0 0 0-.236.049h-.125a.437.437 0 0 0-.362 0 .345.345 0 0 0-.118 0 .32.32 0 0 0-.181-.049.327.327 0 0 0-.327-.146.833.833 0 0 0-.23-.174.305.305 0 0 0-.215-.292.285.285 0 0 0-.209-.257.306.306 0 0 1-.048-.132.313.313 0 0 0-.05-.209.45.45 0 0 0-.055-.355c.01-.05.025-.1.049-.146a.444.444 0 0 1 0-.139.46.46 0 0 0 .042-.257.307.307 0 0 1 .062-.077c.07-.097.125-.146.112-.27-.014-.126.09-.091.104-.147.045-.048.094-.092.146-.132.042-.042.111-.07.153-.118a.277.277 0 0 0 .209-.174h.048a.425.425 0 0 0 .341-.098h.209c.09-.012.179-.035.264-.07.094.06.202.09.313.091a.327.327 0 0 1 .18.035c.112 0 .154-.042.216 0 .063.042.209.125.313.202.105.076.202.23.313.32a.882.882 0 0 0 .146.041Z" fill="url(#ae)"/><path fill-rule="evenodd" clip-rule="evenodd" d="M19.02 79.421v.084c0 .035.084.097.077.125a.216.216 0 0 0 .077.25.285.285 0 0 0 0 .279c0 .076-.049.152 0 .222a.41.41 0 0 1-.084.216.23.23 0 0 0-.041.132l-.084.083c-.035.035-.055.09-.09.132a.617.617 0 0 1-.084.105l-.076.055s-.035.063-.063.063l-.222.097-.056.056a.313.313 0 0 0-.188.07h-.055a.383.383 0 0 0-.195.041h-.104a.375.375 0 0 0-.3 0h-.104a.202.202 0 0 0-.146-.041.279.279 0 0 0-.271-.119.693.693 0 0 0-.195-.139.243.243 0 0 0-.18-.236.23.23 0 0 0-.174-.202.328.328 0 0 1-.042-.104.258.258 0 0 0-.035-.167.373.373 0 0 0-.049-.285.76.76 0 0 1 .035-.119v-.11a.258.258 0 0 0 .035-.203s.042-.048.056-.062c.014-.014.104-.118.09-.223-.014-.104.076-.07.09-.11a.787.787 0 0 1 .119-.105c.041-.042.09-.056.132-.098a.25.25 0 0 0 .174-.139h.041a.313.313 0 0 0 .279-.076h.18a.76.76 0 0 0 .216-.056.501.501 0 0 0 .257.077.359.359 0 0 1 .153 0h.181c.049 0 .174.104.264.167.09.062.167.18.258.25l.125.09Z" fill="url(#af)"/><path fill-rule="evenodd" clip-rule="evenodd" d="M18.854 79.421a.671.671 0 0 1 0 .07s.07.07.063.097a.18.18 0 0 0 .07.202.187.187 0 0 0 0 .216c0 .055-.043.118 0 .173a.299.299 0 0 1-.07.167.16.16 0 0 0-.035.105l-.07.07a.912.912 0 0 0-.083.103.244.244 0 0 1-.07.077l-.07.049s0 .048-.048.048l-.195.077-.048.042a.361.361 0 0 0-.16.055h-.05a.415.415 0 0 0-.166 0h-.09a.383.383 0 0 0-.265 0h-.083a.208.208 0 0 0-.132-.034.257.257 0 0 0-.188-.126.508.508 0 0 0-.16-.111.202.202 0 0 0-.16-.18.181.181 0 0 0-.153-.168.146.146 0 0 1 0-.076.209.209 0 0 0-.035-.132.271.271 0 0 0-.041-.23.441.441 0 0 1 0-.09v-.084a.23.23 0 0 0 0-.16s0-.041.041-.048c.042-.007.09-.098.084-.174-.007-.077.062-.056.076-.09a.562.562 0 0 1 .098-.084c.034 0 .083-.042.11-.077a.208.208 0 0 0 .154-.104h.035a.32.32 0 0 0 .243-.056h.153a.816.816 0 0 0 .188-.041c.07.036.15.055.23.055a.265.265 0 0 1 .124 0h.16c.042 0 .146.084.223.132.076.05.146.14.23.202.083.063.062.077.09.125Z" fill="url(#ag)"/><path fill-rule="evenodd" clip-rule="evenodd" d="M18.666 79.421v.05s.056.048.056.069a.09.09 0 0 0 .014.11.09.09 0 0 0 .034.022.125.125 0 0 0 0 .153c0 .041-.034.083 0 .118a.188.188 0 0 1-.055.118s-.035.049 0 .07a.139.139 0 0 1-.063.049l-.063.069-.055.056h-.063v.034l-.16.056h-.041a.264.264 0 0 0-.133 0h-.041a.278.278 0 0 0-.132 0h-.077a.452.452 0 0 0-.215 0h-.07a.174.174 0 0 0-.104 0 .25.25 0 0 0-.195-.07.397.397 0 0 0-.132-.069.153.153 0 0 0-.132-.132c0-.056-.042-.09-.119-.111-.076-.021 0-.035 0-.056a.118.118 0 0 0 0-.09.159.159 0 0 0-.034-.154.173.173 0 0 1 0-.062v-.063a.133.133 0 0 0 0-.11.103.103 0 0 1 .041-.036c0-.041.07-.062.063-.118-.007-.056.049-.035.063-.063a.569.569 0 0 1 .083-.055l.09-.056a.167.167 0 0 0 .126-.07.257.257 0 0 0 .194-.041h.126a.696.696 0 0 0 .16-.035.383.383 0 0 0 .18.042.235.235 0 0 1 .105 0h.132c.035 0 .118.055.18.09.063.035.119.098.188.14l.049.145Z" fill="url(#ah)"/><path d="M42.2 73.6c.436.14.874.272 1.315.397a61.61 61.61 0 0 0 13.75 2.643c.254.001.505-.061.73-.181.254-.125.48-.303.66-.522a.14.14 0 0 1 .216.174 2.32 2.32 0 0 1-.751.598 1.817 1.817 0 0 1-.87.209 61.64 61.64 0 0 1-13.812-2.622 36.143 36.143 0 0 1-1.238-.369V73.6Zm0 3.38 1.238.369a61.645 61.645 0 0 0 13.812 2.622c.304.004.603-.07.87-.216.29-.14.546-.342.75-.59a.146.146 0 0 0 0-.203.14.14 0 0 0-.194 0c-.18.219-.405.395-.66.515a1.544 1.544 0 0 1-.731.188 61.644 61.644 0 0 1-13.75-2.615l-1.314-.39v.293l-.02.027Zm0-6.168 1.238.368a61.64 61.64 0 0 0 13.812 2.622c.304.005.603-.07.87-.216a2.157 2.157 0 0 0 .787-.647.139.139 0 0 0-.252-.117c-.183.214-.408.39-.66.514a1.544 1.544 0 0 1-.73.188 61.646 61.646 0 0 1-13.75-2.615l-1.315-.39v.293Zm0-3.088v-.292c.439.139.877.264 1.315.396a61.616 61.616 0 0 0 13.75 2.608c.254.002.505-.06.73-.18.254-.126.48-.304.66-.522a.14.14 0 0 1 .216.174 2.32 2.32 0 0 1-.751.598c-.268.14-.567.212-.87.208a61.64 61.64 0 0 1-13.812-2.622l-1.238-.368Zm0-3.081 1.238.368a62.429 62.429 0 0 0 13.812 2.622c.303-.002.6-.075.87-.215a2.15 2.15 0 0 0 .75-.598.139.139 0 0 0 0-.195.14.14 0 0 0-.194 0c-.18.219-.406.397-.66.522a1.453 1.453 0 0 1-.731.18 61.615 61.615 0 0 1-13.75-2.608l-1.314-.389v.292l-.02.02Zm0-3.088v-.292l1.315.396a62.006 62.006 0 0 0 13.75 2.608c.254 0 .505-.065.73-.187.255-.12.48-.296.66-.515a.138.138 0 0 1 .152-.057.14.14 0 0 1 .103.125.14.14 0 0 1-.04.106 2.22 2.22 0 0 1-.75.591c-.267.146-.566.22-.87.216a61.64 61.64 0 0 1-13.812-2.622l-1.238-.369Zm0-3.08 1.238.368a61.997 61.997 0 0 0 13.812 2.615c.303.004.602-.068.87-.209.297-.144.56-.35.772-.605a.134.134 0 0 0 .042-.097.133.133 0 0 0-.042-.098.14.14 0 0 0-.195 0 2.006 2.006 0 0 1-.66.522c-.225.12-.476.182-.731.18a61.608 61.608 0 0 1-13.791-2.593l-1.315-.39v.306Zm0-3.089v-.306l1.315.39a61.646 61.646 0 0 0 13.75 2.615c.254-.002.505-.066.73-.188.254-.122.479-.298.66-.515a.139.139 0 0 1 .195 0 .146.146 0 0 1 0 .202 2.22 2.22 0 0 1-.751.591 1.76 1.76 0 0 1-.87.216 61.643 61.643 0 0 1-13.79-2.615l-1.239-.369v-.02Zm0-3.08 1.238.361A61.64 61.64 0 0 0 57.25 55.29c.303.004.602-.068.87-.209.289-.145.545-.348.75-.598a.14.14 0 0 0-.215-.174c-.18.22-.406.397-.66.522a1.53 1.53 0 0 1-.73.18 61.61 61.61 0 0 1-13.75-2.607l-1.315-.396v.299Zm0-3.088v-.292l1.315.389a61.197 61.197 0 0 0 13.75 2.608c.254.005.506-.058.73-.18a2.11 2.11 0 0 0 .66-.515.138.138 0 0 1 .155-.075.14.14 0 0 1 .06.242 2.158 2.158 0 0 1-.75.598c-.267.145-.566.22-.87.215a61.64 61.64 0 0 1-13.812-2.622l-1.238-.368Zm0-3.088 1.238.368A61.634 61.634 0 0 0 57.25 49.12c.303.004.602-.067.87-.208a2.32 2.32 0 0 0 .75-.598.14.14 0 0 0-.215-.174c-.18.218-.406.396-.66.521a1.53 1.53 0 0 1-.73.181 61.61 61.61 0 0 1-13.75-2.608l-1.315-.396v.292Zm0-3.081v-.292l1.315.39a61.61 61.61 0 0 0 13.75 2.607c.254.005.506-.057.73-.18.254-.126.48-.303.66-.522a.139.139 0 0 1 .195 0 .139.139 0 0 1 0 .195 2.156 2.156 0 0 1-.751.598 1.91 1.91 0 0 1-.87.215 62.432 62.432 0 0 1-13.811-2.622L42.2 43.05Zm0-3.088 1.238.369a61.64 61.64 0 0 0 13.812 2.622c.304.004.603-.07.87-.216.29-.14.546-.342.75-.591a.14.14 0 0 0-.012-.206.14.14 0 0 0-.203.032c-.18.219-.405.394-.66.515a1.544 1.544 0 0 1-.73.187 62.006 62.006 0 0 1-13.75-2.608L42.2 39.67v.292Zm0-3.08v-.293l1.315.39a61.61 61.61 0 0 0 13.75 2.608c.254.001.505-.061.73-.181.254-.125.48-.303.66-.522a.139.139 0 0 1 .237.076.14.14 0 0 1-.021.098 2.32 2.32 0 0 1-.751.598 1.815 1.815 0 0 1-.87.209 62.003 62.003 0 0 1-13.812-2.615L42.2 36.88Zm0-3.089 1.238.369a61.645 61.645 0 0 0 13.812 2.622c.304.005.603-.07.87-.216.29-.14.546-.342.75-.59a.146.146 0 0 0 0-.202.14.14 0 0 0-.194 0 1.982 1.982 0 0 1-.66.514 1.544 1.544 0 0 1-.731.188 61.65 61.65 0 0 1-13.75-2.615l-1.334-.34v.291-.02Zm0-3.087v-.292l1.315.396a61.616 61.616 0 0 0 13.75 2.608c.254.001.505-.06.73-.181.254-.125.48-.303.66-.522a.138.138 0 0 1 .187-.01.14.14 0 0 1 .029.184c-.206.25-.462.454-.751.598a1.817 1.817 0 0 1-.87.209 61.64 61.64 0 0 1-13.812-2.622c-.417-.118-.827-.236-1.238-.334v-.034ZM25.58 67.66a.146.146 0 0 1-.07-.188.138.138 0 0 1 .133-.083.14.14 0 0 1 .054.014A156.916 156.916 0 0 0 42.2 73.6v.292a159.172 159.172 0 0 1-16.62-6.26v.028ZM42.2 30.413v.326a157.62 157.62 0 0 1-16.62-6.259.139.139 0 0 1-.038-.226.14.14 0 0 1 .155-.024A156.9 156.9 0 0 0 42.2 30.413Zm0 3.087a156.911 156.911 0 0 1-16.503-6.203.146.146 0 0 0-.188.076.139.139 0 0 0 .07.181 157.598 157.598 0 0 0 16.621 6.26V33.5Zm0 3.088a158.45 158.45 0 0 1-16.503-6.203.138.138 0 0 0-.155.024.14.14 0 0 0-.033.045.146.146 0 0 0 .07.188 159.171 159.171 0 0 0 16.621 6.26v-.313Zm0 3.081v.292a157.62 157.62 0 0 1-16.62-6.259.14.14 0 0 1 .008-.257.146.146 0 0 1 .11 0A156.9 156.9 0 0 0 42.2 39.669Zm0 3.088v.292a159.172 159.172 0 0 1-16.62-6.26.146.146 0 0 1-.07-.187.139.139 0 0 1 .187-.07A158.46 158.46 0 0 0 42.2 42.758Zm0 3.08a156.89 156.89 0 0 1-16.503-6.203.146.146 0 0 0-.188.077.139.139 0 0 0 .07.18 157.62 157.62 0 0 0 16.621 6.26v-.313Zm0 3.089a158.472 158.472 0 0 1-16.503-6.204.141.141 0 0 0-.188.07.143.143 0 0 0 .025.155.142.142 0 0 0 .045.032A159.149 159.149 0 0 0 42.2 49.24v-.313Zm0 3.08v.293a159.15 159.15 0 0 1-16.62-6.26.139.139 0 0 1-.038-.226.14.14 0 0 1 .155-.024A157.09 157.09 0 0 0 42.2 52.007Zm0 3.088v.292a157.62 157.62 0 0 1-16.62-6.259.14.14 0 0 1 .008-.257.146.146 0 0 1 .11 0A156.93 156.93 0 0 0 42.2 55.08v.014Zm0 3.088a158.45 158.45 0 0 1-16.503-6.203.14.14 0 0 0-.188.07.146.146 0 0 0 .07.187 159.171 159.171 0 0 0 16.621 6.26v-.313Zm0 3.081a156.9 156.9 0 0 1-16.503-6.183.146.146 0 0 0-.188.077.139.139 0 0 0 .07.18 157.62 157.62 0 0 0 16.621 6.26v-.334Zm0 3.088v.292a159.149 159.149 0 0 1-16.62-6.26.146.146 0 0 1-.07-.187.139.139 0 0 1 .187-.07A158.46 158.46 0 0 0 42.2 64.352Zm0 3.08a156.867 156.867 0 0 1-16.503-6.203.146.146 0 0 0-.188.077.14.14 0 0 0 .07.18 157.62 157.62 0 0 0 16.621 6.26v-.313Zm0 3.089a158.472 158.472 0 0 1-16.503-6.204.141.141 0 1 0-.118.257 159.149 159.149 0 0 0 16.621 6.26v-.313Zm0 6.168a158.472 158.472 0 0 1-16.503-6.203.146.146 0 0 0-.188.076.139.139 0 0 0 .07.181 159.172 159.172 0 0 0 16.621 6.26v-.314Z" fill="#0147FF"/><path d="M38.932 87.843c1.218 0 2.205-.629 2.205-1.404 0-.776-.987-1.405-2.205-1.405-1.217 0-2.205.629-2.205 1.404 0 .776.988 1.405 2.205 1.405Z" fill="#231889"/><path fill-rule="evenodd" clip-rule="evenodd" d="M38.591 86.564c.098-1.1.09-3.763.188-4.869 0-.25.216.223.236 0 .119 1.35.181 3.533.3 4.869h-.724Z" fill="#171552"/><path fill-rule="evenodd" clip-rule="evenodd" d="M41.213 79.122a.637.637 0 0 1 .056.174c.035.063.16.195.146.264a.466.466 0 0 0 .146.508.613.613 0 0 0 .048.57c0 .153-.083.313 0 .453a.926.926 0 0 1-.153.445.514.514 0 0 0-.083.264.543.543 0 0 1-.16.174 1.843 1.843 0 0 1-.18.27.785.785 0 0 1-.147.216.857.857 0 0 0-.16.119c0 .035-.062.125-.104.125-.146.063-.3.132-.431.202a.85.85 0 0 0-.119.104.598.598 0 0 0-.347.16.321.321 0 0 0-.111.049.771.771 0 0 0-.376.09c-.084 0-.125 0-.202-.056a.752.752 0 0 0-.577 0 .893.893 0 0 0-.195 0 .41.41 0 0 0-.285-.083.555.555 0 0 0-.521-.25 1.467 1.467 0 0 0-.369-.279.501.501 0 0 0-.355-.48.445.445 0 0 0-.327-.424.5.5 0 0 1-.076-.215.577.577 0 0 0-.077-.341.779.779 0 0 0-.09-.584c.016-.082.042-.161.077-.237a1.103 1.103 0 0 1 0-.222.695.695 0 0 0 .07-.425.438.438 0 0 1 .103-.125c.112-.16.195-.243.174-.452.056-.076.146-.139.174-.236.028-.098.146-.132.223-.216.088-.059.171-.124.25-.194a.468.468 0 0 0 .334-.279l.076-.041a.631.631 0 0 0 .543-.16c.097-.05.23 0 .34 0a1.55 1.55 0 0 0 .425-.119c.145.1.317.153.494.153.1-.01.202.01.292.056.174.049.25-.063.354.056.105.118.327.208.494.334.077.243.32.375.5.521.043.02.07.077.126.111Z" fill="url(#ai)"/><path fill-rule="evenodd" clip-rule="evenodd" d="M40.865 79.032a.449.449 0 0 1 .042.146c0 .049.14.16.132.216a.376.376 0 0 0 .118.424.514.514 0 0 0 .042.473c0 .125-.07.257 0 .375a.841.841 0 0 1-.132.369.416.416 0 0 0-.07.222c0 .07-.083.09-.139.146a2.512 2.512 0 0 1-.153.223.53.53 0 0 1-.125.174.927.927 0 0 0-.132.097c0 .035-.063.105-.097.111a3.302 3.302 0 0 0-.362.168.395.395 0 0 0-.097.09.508.508 0 0 0-.3.125.242.242 0 0 0-.097.042.612.612 0 0 0-.313.076c-.076 0-.104 0-.174-.048a.653.653 0 0 0-.486 0 .695.695 0 0 0-.167 0 .424.424 0 0 0-.244-.063.466.466 0 0 0-.445-.209 1.297 1.297 0 0 0-.313-.23.418.418 0 0 0-.299-.395.376.376 0 0 0-.285-.355.554.554 0 0 1-.063-.181c.012-.1-.01-.2-.062-.285a.696.696 0 0 0-.077-.487.784.784 0 0 1 .063-.195.74.74 0 0 1 0-.18.57.57 0 0 0 .056-.355.397.397 0 0 1 .09-.098c.097-.139.167-.208.153-.375-.014-.167.118-.125.146-.202a1.48 1.48 0 0 1 .188-.174c.062-.062.153-.097.215-.167a.375.375 0 0 0 .279-.23h.07a.534.534 0 0 0 .458-.131c.084-.042.195 0 .292 0a1.09 1.09 0 0 0 .355-.105c.125.085.273.13.424.133a.514.514 0 0 1 .25.041c.147.042.21-.048.3.049s.278.174.417.278c.139.105.271.306.424.431.042 0 .07.056.118.056Z" fill="url(#aj)"/><path fill-rule="evenodd" clip-rule="evenodd" d="M40.532 79.067c.02.037.034.077.042.118 0 .042.118.132.104.174a.3.3 0 0 0 .104.34.361.361 0 0 0 0 .376c0 .104-.062.209 0 .306a.57.57 0 0 1-.104.292.278.278 0 0 0-.063.174.362.362 0 0 1-.111.118c-.042.063-.076.118-.125.181a.695.695 0 0 1-.104.14.445.445 0 0 0-.112.076s-.048.083-.083.09a2.284 2.284 0 0 0-.3.132.28.28 0 0 0-.083.07.424.424 0 0 0-.25.104.152.152 0 0 0-.077.035.564.564 0 0 0-.264.055c-.063 0-.09 0-.146-.034a.542.542 0 0 0-.403 0h-.14a.305.305 0 0 0-.208-.056.39.39 0 0 0-.369-.167.858.858 0 0 0-.257-.18.334.334 0 0 0-.25-.32.313.313 0 0 0-.237-.286.348.348 0 0 1-.055-.139.376.376 0 0 0-.05-.23.515.515 0 0 0-.069-.389c0-.048.042-.104.056-.153.014-.049 0-.139 0-.146a.453.453 0 0 0 .049-.285s.048-.063.076-.083a.416.416 0 0 0 .118-.3c-.013-.138.105-.097.126-.16.02-.062.104-.083.16-.139.06-.04.119-.084.173-.132a.306.306 0 0 0 .237-.18h.055a.479.479 0 0 0 .383-.105h.243a.87.87 0 0 0 .3-.083c.104.07.228.106.354.104a.403.403 0 0 1 .202 0c.125.035.18-.042.25.042.07.083.237.139.355.222.118.084.222.244.355.341.035.03.075.057.118.077Z" fill="url(#ak)"/><path fill-rule="evenodd" clip-rule="evenodd" d="M40.31 79.032a.35.35 0 0 1 .034.09s.097.105.09.14a.222.222 0 0 0 .084.264.292.292 0 0 0 0 .299c0 .076-.056.16 0 .236a.452.452 0 0 1-.098.23.23.23 0 0 0-.048.146.402.402 0 0 1-.097.09l-.112.14a.45.45 0 0 1-.09.11.383.383 0 0 0-.098.063s-.041.063-.07.063l-.256.104-.077.055a.48.48 0 0 0-.216.084h-.062a.444.444 0 0 0-.23.049h-.125a.514.514 0 0 0-.355 0h-.118a.285.285 0 0 0-.174-.042.354.354 0 0 0-.32-.132.818.818 0 0 0-.222-.146.271.271 0 0 0-.216-.25.25.25 0 0 0-.208-.223.308.308 0 0 1-.042-.111.25.25 0 0 0-.049-.181.348.348 0 0 0-.055-.306.423.423 0 0 1 .048-.118.686.686 0 0 1 0-.119.327.327 0 0 0 .05-.222.18.18 0 0 1 .062-.063c.07-.09.118-.132.104-.236-.014-.105.09-.077.104-.126.014-.048.09-.069.14-.11.048-.043.11-.063.152-.105a.25.25 0 0 0 .202-.146h.049a.424.424 0 0 0 .334-.084.725.725 0 0 1 .208 0c.088-.01.175-.03.258-.062.094.05.198.08.306.083a.409.409 0 0 1 .18 0c.105 0 .153-.034.216 0 .063.035.195.112.299.174.104.063.195.195.306.271.03.037.069.068.111.09Z" fill="url(#al)"/><path fill-rule="evenodd" clip-rule="evenodd" d="M40.045 79.067a.125.125 0 0 1 0 .062s.083.07.076.097a.139.139 0 0 0 .07.181.181.181 0 0 0 0 .209c0 .049-.042.111 0 .16a.284.284 0 0 1-.077.16s-.048.063-.041.097a.331.331 0 0 1-.077.063l-.09.097a.396.396 0 0 1-.077.077l-.076.041s-.035.05-.056.05l-.215.069-.063.041a.306.306 0 0 0-.174.056.091.091 0 0 0-.055 0 .425.425 0 0 0-.188 0h-.098a.522.522 0 0 0-.292 0h-.097a.292.292 0 0 0-.14 0 .334.334 0 0 0-.264-.09.57.57 0 0 0-.18-.098.202.202 0 0 0-.181-.174c0-.076-.063-.132-.167-.16a.152.152 0 0 1-.035-.076.154.154 0 0 0 0-.118.23.23 0 0 0-.049-.216s0-.055.035-.083c.035-.028 0-.077 0-.077.03-.045.043-.1.035-.153a.198.198 0 0 1 .056-.048c.055-.056.097-.09.083-.16-.014-.07.07-.056.084-.09l.118-.077s.09-.042.125-.07a.25.25 0 0 0 .167-.097h.035a.383.383 0 0 0 .27-.056.744.744 0 0 1 .175 0c.07-.007.14-.02.208-.042a.599.599 0 0 0 .25.056.517.517 0 0 1 .147 0h.174c.048 0 .167.077.25.125.084.049.16.132.25.188.09.056.056.02.084.056Z" fill="#fff"/><path d="M45.19 90.625c1.218 0 2.206-.629 2.206-1.405s-.988-1.405-2.205-1.405c-1.218 0-2.205.63-2.205 1.405 0 .776.987 1.405 2.205 1.405Z" fill="#231889"/><path fill-rule="evenodd" clip-rule="evenodd" d="M44.85 89.345c.097-1.098.09-3.762.188-4.868 0-.25.216.223.236 0 .119 1.35.181 3.533.3 4.868h-.724Z" fill="#171552"/><path fill-rule="evenodd" clip-rule="evenodd" d="M47.472 81.904a.64.64 0 0 1 .056.174c.034.063.16.195.146.264a.466.466 0 0 0 .146.508.612.612 0 0 0 .048.57c0 .153-.083.313 0 .452a.926.926 0 0 1-.153.445.515.515 0 0 0-.083.265.543.543 0 0 1-.16.173 1.852 1.852 0 0 1-.18.272.788.788 0 0 1-.147.215.856.856 0 0 0-.16.118c0 .035-.063.126-.104.126a6.175 6.175 0 0 0-.431.201.844.844 0 0 0-.119.105.599.599 0 0 0-.347.16.32.32 0 0 0-.112.048.771.771 0 0 0-.375.09c-.084 0-.125 0-.202-.055a.75.75 0 0 0-.577 0 .881.881 0 0 0-.195 0 .41.41 0 0 0-.285-.083.557.557 0 0 0-.522-.25 1.467 1.467 0 0 0-.368-.279.501.501 0 0 0-.355-.48.445.445 0 0 0-.327-.424.5.5 0 0 1-.076-.216.578.578 0 0 0-.077-.34.78.78 0 0 0-.09-.585c.016-.081.041-.16.076-.236a1.104 1.104 0 0 1 0-.223.695.695 0 0 0 .07-.424.438.438 0 0 1 .104-.125c.111-.16.195-.243.174-.452.056-.077.146-.14.174-.237.028-.097.146-.132.222-.215a2.15 2.15 0 0 0 .25-.195.467.467 0 0 0 .335-.278l.076-.042a.634.634 0 0 0 .543-.16c.097-.048.23 0 .34 0a1.54 1.54 0 0 0 .425-.118c.145.1.317.153.493.153a.53.53 0 0 1 .293.056c.173.048.25-.063.354.055.105.119.327.209.494.334.077.244.32.376.5.522.042.02.07.076.126.111Z" fill="url(#am)"/><path fill-rule="evenodd" clip-rule="evenodd" d="M47.124 81.814a.45.45 0 0 1 .042.146c0 .049.139.16.132.215a.375.375 0 0 0 .118.425.514.514 0 0 0 .042.473c0 .125-.07.257 0 .375a.84.84 0 0 1-.132.369.417.417 0 0 0-.07.222c0 .07-.083.09-.139.146a2.508 2.508 0 0 1-.153.223.529.529 0 0 1-.125.174.927.927 0 0 0-.132.097c0 .035-.063.104-.098.111a3.278 3.278 0 0 0-.361.167.395.395 0 0 0-.097.09.508.508 0 0 0-.3.126.243.243 0 0 0-.097.041.612.612 0 0 0-.313.077c-.076 0-.104 0-.174-.049a.654.654 0 0 0-.487 0 .695.695 0 0 0-.166 0 .425.425 0 0 0-.244-.062.466.466 0 0 0-.445-.209 1.3 1.3 0 0 0-.313-.23.417.417 0 0 0-.299-.396.376.376 0 0 0-.285-.355.554.554 0 0 1-.063-.18.45.45 0 0 0-.062-.285.696.696 0 0 0-.077-.487.785.785 0 0 1 .063-.195.73.73 0 0 1 0-.18.57.57 0 0 0 .055-.355.397.397 0 0 1 .09-.098c.098-.139.168-.209.154-.375-.014-.167.118-.126.146-.202a1.41 1.41 0 0 1 .188-.174c.062-.063.153-.097.215-.167a.376.376 0 0 0 .278-.23h.07a.536.536 0 0 0 .459-.132c.083-.041.195 0 .292 0 .123-.014.243-.05.355-.104.125.085.273.13.424.132a.514.514 0 0 1 .25.042c.146.042.209-.049.3.049.09.097.278.174.417.278.139.104.27.306.424.431.042 0 .07.056.118.056Z" fill="url(#an)"/><path fill-rule="evenodd" clip-rule="evenodd" d="M46.79 81.848c.02.037.035.077.042.119 0 .041.118.132.105.174a.3.3 0 0 0 .104.34.362.362 0 0 0 0 .376c0 .104-.063.208 0 .306a.571.571 0 0 1-.104.292.279.279 0 0 0-.063.174.362.362 0 0 1-.111.118c-.042.063-.077.118-.125.18a.698.698 0 0 1-.105.14.445.445 0 0 0-.111.076s-.049.084-.083.09a2.296 2.296 0 0 0-.3.133.279.279 0 0 0-.083.07.424.424 0 0 0-.25.104.152.152 0 0 0-.077.035.563.563 0 0 0-.264.055c-.063 0-.09 0-.146-.035a.543.543 0 0 0-.404 0h-.139a.306.306 0 0 0-.208-.055.39.39 0 0 0-.369-.167.853.853 0 0 0-.257-.18.334.334 0 0 0-.25-.32.313.313 0 0 0-.237-.286.348.348 0 0 1-.056-.14.376.376 0 0 0-.048-.229.515.515 0 0 0-.07-.389c0-.049.042-.104.056-.153.014-.049 0-.14 0-.146a.452.452 0 0 0 .048-.285s.05-.063.077-.084a.415.415 0 0 0 .118-.299c-.014-.139.105-.097.125-.16.021-.062.105-.083.16-.139.061-.04.12-.084.174-.132a.306.306 0 0 0 .237-.18h.055a.48.48 0 0 0 .383-.105h.243a.872.872 0 0 0 .3-.084c.104.07.228.107.354.105a.403.403 0 0 1 .202 0c.125.035.18-.042.25.042.07.083.236.139.355.222.118.084.222.243.354.34a.485.485 0 0 0 .119.077Z" fill="url(#ao)"/><path fill-rule="evenodd" clip-rule="evenodd" d="M46.568 81.814a.345.345 0 0 1 .035.09s.097.104.09.139a.222.222 0 0 0 .084.264.292.292 0 0 0 0 .3c0 .076-.056.16 0 .236a.452.452 0 0 1-.098.23.23.23 0 0 0-.048.145.404.404 0 0 1-.098.09l-.111.14a.45.45 0 0 1-.09.111.384.384 0 0 0-.098.063s-.041.062-.07.062l-.257.105-.076.055a.48.48 0 0 0-.216.084h-.062a.445.445 0 0 0-.23.048h-.125a.515.515 0 0 0-.355 0h-.118a.285.285 0 0 0-.174-.041.355.355 0 0 0-.32-.132.818.818 0 0 0-.222-.147.27.27 0 0 0-.216-.25.25.25 0 0 0-.209-.222.307.307 0 0 1-.041-.112.25.25 0 0 0-.049-.18.347.347 0 0 0-.056-.306.42.42 0 0 1 .05-.119.687.687 0 0 1 0-.118.327.327 0 0 0 .048-.223.182.182 0 0 1 .062-.062c.07-.09.119-.132.105-.236-.014-.105.09-.077.104-.126.014-.048.09-.07.14-.111.048-.042.11-.063.152-.104a.25.25 0 0 0 .202-.146h.048a.425.425 0 0 0 .334-.084c.07-.01.14-.01.209 0 .088-.01.174-.031.257-.062a.7.7 0 0 0 .306.083.412.412 0 0 1 .181 0c.104 0 .153-.035.216 0 .062.035.194.111.299.174.104.063.194.195.306.271.03.037.069.068.111.09Z" fill="url(#ap)"/><path fill-rule="evenodd" clip-rule="evenodd" d="M46.304 81.848a.125.125 0 0 1 0 .063s.083.07.076.097a.139.139 0 0 0 .07.181.181.181 0 0 0 0 .209c0 .048-.042.111 0 .16a.284.284 0 0 1-.077.16s-.048.062-.041.097a.334.334 0 0 1-.077.063l-.09.097a.393.393 0 0 1-.077.076l-.076.042s-.035.049-.056.049l-.216.07-.062.041a.307.307 0 0 0-.174.056.09.09 0 0 0-.056 0 .422.422 0 0 0-.188 0h-.097a.52.52 0 0 0-.292 0h-.097a.292.292 0 0 0-.14 0 .333.333 0 0 0-.264-.09.568.568 0 0 0-.18-.098.202.202 0 0 0-.181-.174c0-.076-.063-.132-.167-.16a.153.153 0 0 1-.035-.076.154.154 0 0 0 0-.119.23.23 0 0 0-.049-.215s0-.056.035-.084c.035-.027 0-.076 0-.076.03-.045.043-.1.035-.153a.201.201 0 0 1 .055-.049c.056-.055.098-.09.084-.16-.014-.07.07-.055.083-.09l.119-.077s.09-.041.125-.07a.25.25 0 0 0 .167-.097h.035a.382.382 0 0 0 .27-.055.744.744 0 0 1 .175 0c.07-.007.14-.02.208-.042a.598.598 0 0 0 .25.056.525.525 0 0 1 .147 0h.173c.05 0 .167.076.25.125.084.049.16.132.251.188.09.055.056.02.084.055Z" fill="#fff"/><path d="M51.45 86.453c1.218 0 2.205-.63 2.205-1.405 0-.776-.987-1.405-2.205-1.405-1.217 0-2.204.629-2.204 1.405 0 .775.987 1.404 2.204 1.404Z" fill="#231889"/><path fill-rule="evenodd" clip-rule="evenodd" d="M51.11 85.173c.097-1.099.09-3.763.187-4.868 0-.25.216.222.237 0 .118 1.349.18 3.532.299 4.868h-.724Z" fill="#171552"/><path fill-rule="evenodd" clip-rule="evenodd" d="M53.731 77.731a.64.64 0 0 1 .056.174c.035.063.16.195.146.265a.466.466 0 0 0 .146.507.612.612 0 0 0 .049.57c0 .153-.084.314 0 .453a.926.926 0 0 1-.153.445.514.514 0 0 0-.084.264.543.543 0 0 1-.16.174 1.845 1.845 0 0 1-.18.271.785.785 0 0 1-.147.216.865.865 0 0 0-.16.118c0 .035-.062.125-.104.125a6.199 6.199 0 0 0-.431.202.849.849 0 0 0-.118.104.598.598 0 0 0-.348.16.32.32 0 0 0-.111.049.771.771 0 0 0-.376.09c-.083 0-.125 0-.202-.056a.75.75 0 0 0-.577 0 .88.88 0 0 0-.195 0 .41.41 0 0 0-.285-.083.557.557 0 0 0-.521-.25 1.467 1.467 0 0 0-.369-.278.5.5 0 0 0-.355-.48.445.445 0 0 0-.327-.425.502.502 0 0 1-.076-.215.577.577 0 0 0-.076-.341.779.779 0 0 0-.09-.584.95.95 0 0 1 .076-.237 1.119 1.119 0 0 1 0-.222.695.695 0 0 0 .07-.424.437.437 0 0 1 .103-.126c.112-.16.195-.243.174-.452.056-.076.146-.139.174-.236.028-.097.146-.132.223-.216.088-.059.172-.124.25-.194a.466.466 0 0 0 .334-.279l.076-.041a.634.634 0 0 0 .543-.16c.097-.049.23 0 .34 0 .147-.02.29-.059.425-.118a.88.88 0 0 0 .494.152c.1-.01.202.01.292.056.174.049.25-.063.355.056.104.118.326.208.493.334.077.243.32.375.501.521.042.021.07.077.125.111Z" fill="url(#aq)"/><path fill-rule="evenodd" clip-rule="evenodd" d="M53.383 77.641a.454.454 0 0 1 .042.146c0 .049.14.16.132.216a.375.375 0 0 0 .118.424.514.514 0 0 0 .042.473c0 .125-.07.257 0 .375a.84.84 0 0 1-.132.369.417.417 0 0 0-.07.223c0 .07-.083.09-.139.146a2.507 2.507 0 0 1-.153.222.527.527 0 0 1-.125.174.931.931 0 0 0-.132.097c0 .035-.063.105-.097.112a3.278 3.278 0 0 0-.362.167.397.397 0 0 0-.097.09.508.508 0 0 0-.3.125.244.244 0 0 0-.097.042.612.612 0 0 0-.313.076c-.076 0-.104 0-.174-.048a.653.653 0 0 0-.486 0 .695.695 0 0 0-.167 0 .424.424 0 0 0-.244-.063.467.467 0 0 0-.445-.209 1.302 1.302 0 0 0-.313-.229.417.417 0 0 0-.299-.396.375.375 0 0 0-.285-.355.559.559 0 0 1-.063-.18c.012-.1-.01-.2-.062-.286a.696.696 0 0 0-.077-.487.79.79 0 0 1 .063-.195.739.739 0 0 1 0-.18.57.57 0 0 0 .056-.355.397.397 0 0 1 .09-.098c.098-.139.167-.208.153-.375-.014-.167.118-.125.146-.202a1.48 1.48 0 0 1 .188-.174c.063-.062.153-.097.215-.166a.374.374 0 0 0 .279-.23h.07a.536.536 0 0 0 .458-.132c.084-.042.195 0 .292 0 .124-.014.244-.05.355-.104.126.084.273.13.424.132a.515.515 0 0 1 .25.041c.147.042.21-.048.3.05.09.097.278.173.417.277.139.105.271.306.424.431.042 0 .07.056.118.056Z" fill="url(#ar)"/><path fill-rule="evenodd" clip-rule="evenodd" d="M53.05 77.676c.02.037.034.077.042.118 0 .042.118.132.104.174a.299.299 0 0 0 .104.34.362.362 0 0 0 0 .376c0 .105-.062.209 0 .306a.57.57 0 0 1-.104.292.278.278 0 0 0-.063.174.36.36 0 0 1-.111.118c-.042.063-.076.119-.125.181a.698.698 0 0 1-.105.14.447.447 0 0 0-.11.076s-.05.083-.084.09a2.296 2.296 0 0 0-.3.132.277.277 0 0 0-.083.07.424.424 0 0 0-.25.104.153.153 0 0 0-.077.035.562.562 0 0 0-.264.056c-.062 0-.09 0-.146-.035a.543.543 0 0 0-.403 0h-.14a.306.306 0 0 0-.208-.056.389.389 0 0 0-.369-.167.853.853 0 0 0-.257-.18.334.334 0 0 0-.25-.32.313.313 0 0 0-.237-.286.348.348 0 0 1-.055-.139.376.376 0 0 0-.049-.23.513.513 0 0 0-.07-.389c0-.048.042-.104.056-.153.014-.048 0-.139 0-.146a.452.452 0 0 0 .049-.285s.048-.062.076-.083a.415.415 0 0 0 .118-.3c-.013-.138.105-.097.126-.16.02-.062.104-.083.16-.138.06-.04.119-.085.174-.133a.306.306 0 0 0 .236-.18h.056a.482.482 0 0 0 .382-.105h.244a.868.868 0 0 0 .299-.083.62.62 0 0 0 .354.104.403.403 0 0 1 .202 0c.125.035.18-.041.25.042s.237.139.355.222c.118.084.223.244.355.341a.49.49 0 0 0 .118.077Z" fill="url(#as)"/><path fill-rule="evenodd" clip-rule="evenodd" d="M52.827 77.64a.346.346 0 0 1 .035.091s.097.105.09.14a.222.222 0 0 0 .084.264.292.292 0 0 0 0 .299c0 .076-.056.16 0 .236a.452.452 0 0 1-.097.23.23.23 0 0 0-.05.146.403.403 0 0 1-.097.09l-.11.14a.455.455 0 0 1-.091.11.381.381 0 0 0-.098.063s-.041.063-.069.063l-.257.104-.077.056a.48.48 0 0 0-.216.083h-.062a.445.445 0 0 0-.23.049h-.125a.515.515 0 0 0-.354 0h-.119a.285.285 0 0 0-.174-.042.356.356 0 0 0-.32-.132.821.821 0 0 0-.222-.146.271.271 0 0 0-.216-.25.25.25 0 0 0-.208-.223.305.305 0 0 1-.042-.111.25.25 0 0 0-.049-.181.349.349 0 0 0-.055-.306.421.421 0 0 1 .048-.118.708.708 0 0 1 0-.119.327.327 0 0 0 .05-.222.182.182 0 0 1 .062-.063c.07-.09.118-.132.104-.236-.014-.105.09-.077.104-.125.014-.049.09-.07.14-.112.048-.041.11-.062.152-.104a.251.251 0 0 0 .202-.146h.049a.425.425 0 0 0 .334-.083c.069-.01.14-.01.208 0 .088-.01.175-.032.258-.063.094.051.199.08.306.083a.412.412 0 0 1 .18 0c.105 0 .153-.034.216 0 .063.035.195.112.299.174.104.063.195.195.306.272a.377.377 0 0 0 .111.09Z" fill="url(#at)"/><path fill-rule="evenodd" clip-rule="evenodd" d="M52.563 77.676a.125.125 0 0 1 0 .062s.083.07.076.098a.14.14 0 0 0 .07.18.181.181 0 0 0 0 .21c0 .048-.042.11 0 .16a.284.284 0 0 1-.077.159s-.048.063-.041.097a.339.339 0 0 1-.077.063l-.09.097a.396.396 0 0 1-.077.077l-.076.042s-.035.048-.056.048l-.215.07-.063.041a.305.305 0 0 0-.174.056.09.09 0 0 0-.055 0 .422.422 0 0 0-.188 0h-.098a.52.52 0 0 0-.292 0h-.097a.292.292 0 0 0-.14 0 .333.333 0 0 0-.263-.09.57.57 0 0 0-.181-.098.202.202 0 0 0-.181-.173c0-.077-.063-.133-.167-.16a.153.153 0 0 1-.035-.077.154.154 0 0 0 0-.118.23.23 0 0 0-.048-.216s0-.055.034-.083c.035-.028 0-.077 0-.077.03-.044.043-.1.035-.153a.203.203 0 0 1 .056-.048c.055-.056.097-.09.083-.16-.014-.07.07-.056.084-.09l.118-.077s.09-.042.125-.07a.25.25 0 0 0 .167-.097h.035a.382.382 0 0 0 .271-.056.744.744 0 0 1 .174 0c.07-.006.14-.02.208-.042a.598.598 0 0 0 .25.056.525.525 0 0 1 .147 0h.174c.049 0 .167.077.25.125.084.049.16.132.25.188.09.056.056.02.084.056Z" fill="#fff"/><path d="M65.36 76.716c1.217 0 2.204-.63 2.204-1.405 0-.776-.987-1.405-2.205-1.405-1.217 0-2.204.63-2.204 1.405 0 .776.987 1.405 2.204 1.405Z" fill="#231889"/><path fill-rule="evenodd" clip-rule="evenodd" d="M65.019 75.436c.097-1.099.09-3.762.187-4.868 0-.25.216.223.237 0 .118 1.35.18 3.533.299 4.868h-.723Z" fill="#171552"/><path fill-rule="evenodd" clip-rule="evenodd" d="M67.64 67.995a.64.64 0 0 1 .056.174c.035.062.16.195.146.264a.467.467 0 0 0 .146.508.613.613 0 0 0 .049.57c0 .153-.084.313 0 .452a.925.925 0 0 1-.153.445.515.515 0 0 0-.084.264.542.542 0 0 1-.16.174 1.84 1.84 0 0 1-.18.272.786.786 0 0 1-.146.215.865.865 0 0 0-.16.118c0 .035-.063.126-.105.126a6.199 6.199 0 0 0-.431.201.849.849 0 0 0-.118.104.598.598 0 0 0-.348.16.32.32 0 0 0-.111.05.774.774 0 0 0-.376.09c-.083 0-.125 0-.201-.056a.751.751 0 0 0-.578 0 .88.88 0 0 0-.194 0 .41.41 0 0 0-.285-.084.558.558 0 0 0-.522-.25 1.47 1.47 0 0 0-.369-.278.5.5 0 0 0-.354-.48.445.445 0 0 0-.327-.424.5.5 0 0 1-.077-.216.577.577 0 0 0-.076-.34.78.78 0 0 0-.09-.585 1 1 0 0 1 .076-.236 1.119 1.119 0 0 1 0-.223.695.695 0 0 0 .07-.424.438.438 0 0 1 .104-.125c.11-.16.194-.244.174-.452.055-.077.146-.14.173-.237.028-.097.147-.132.223-.215a2.21 2.21 0 0 0 .25-.195.464.464 0 0 0 .334-.278l.077-.042a.634.634 0 0 0 .542-.16c.098-.049.23 0 .34 0 .147-.019.29-.059.425-.118a.89.89 0 0 0 .494.153c.1-.01.202.01.292.056.174.048.25-.063.355.055.104.118.326.209.493.334.077.243.32.376.501.522.042.02.07.076.125.11Z" fill="url(#au)"/><path fill-rule="evenodd" clip-rule="evenodd" d="M67.293 67.904a.454.454 0 0 1 .041.147c0 .048.14.16.132.215a.376.376 0 0 0 .119.424.515.515 0 0 0 .041.473c0 .126-.07.258 0 .376a.842.842 0 0 1-.132.368.418.418 0 0 0-.07.223c0 .07-.083.09-.138.146a2.52 2.52 0 0 1-.153.223.528.528 0 0 1-.126.174.923.923 0 0 0-.132.097c0 .035-.062.104-.097.111a3.297 3.297 0 0 0-.362.167.399.399 0 0 0-.097.09.507.507 0 0 0-.3.126.244.244 0 0 0-.097.041.612.612 0 0 0-.313.077c-.076 0-.104 0-.173-.049a.654.654 0 0 0-.487 0 .695.695 0 0 0-.167 0 .425.425 0 0 0-.243-.062.465.465 0 0 0-.445-.21 1.302 1.302 0 0 0-.313-.229.417.417 0 0 0-.3-.396.375.375 0 0 0-.285-.355.559.559 0 0 1-.062-.18.455.455 0 0 0-.063-.286.695.695 0 0 0-.076-.486.79.79 0 0 1 .062-.195.739.739 0 0 1 0-.181.57.57 0 0 0 .056-.355.395.395 0 0 1 .09-.097c.098-.14.167-.209.153-.376-.014-.166.118-.125.146-.201.058-.064.12-.122.188-.174.063-.063.153-.097.216-.167a.375.375 0 0 0 .278-.23h.07a.536.536 0 0 0 .458-.132c.084-.041.195 0 .292 0 .124-.014.244-.05.355-.104.126.084.273.13.424.132a.515.515 0 0 1 .25.042c.147.042.21-.049.3.049.09.097.278.173.417.278.14.104.271.306.424.43.042 0 .07.056.119.056Z" fill="url(#av)"/><path fill-rule="evenodd" clip-rule="evenodd" d="M66.959 67.94a.4.4 0 0 1 .042.117c0 .042.118.133.104.174a.3.3 0 0 0 .104.341.361.361 0 0 0 0 .376c0 .104-.062.208 0 .306a.57.57 0 0 1-.104.292.278.278 0 0 0-.063.174.361.361 0 0 1-.11.118c-.043.062-.077.118-.126.18a.691.691 0 0 1-.104.14.447.447 0 0 0-.112.076s-.048.084-.083.09a2.303 2.303 0 0 0-.3.133.28.28 0 0 0-.082.07.424.424 0 0 0-.25.104.153.153 0 0 0-.077.034.563.563 0 0 0-.265.056c-.062 0-.09 0-.146-.035a.542.542 0 0 0-.403 0h-.14a.306.306 0 0 0-.208-.055.39.39 0 0 0-.368-.167.853.853 0 0 0-.258-.181.334.334 0 0 0-.25-.32.312.312 0 0 0-.236-.285.347.347 0 0 1-.056-.14.376.376 0 0 0-.049-.229.516.516 0 0 0-.07-.39c0-.048.042-.103.056-.152.014-.049 0-.14 0-.146a.451.451 0 0 0 .049-.285s.049-.063.076-.084a.415.415 0 0 0 .119-.299c-.014-.139.104-.097.125-.16.02-.063.104-.083.16-.139.06-.04.119-.084.174-.132a.306.306 0 0 0 .236-.18h.056a.48.48 0 0 0 .382-.105h.244a.869.869 0 0 0 .299-.084c.105.07.228.106.354.105a.405.405 0 0 1 .202 0c.125.034.18-.042.25.041.07.084.237.14.355.223.118.083.223.243.355.34a.51.51 0 0 0 .118.077Z" fill="url(#aw)"/><path fill-rule="evenodd" clip-rule="evenodd" d="M66.737 67.904a.348.348 0 0 1 .034.09s.098.105.09.14a.222.222 0 0 0 .084.264.293.293 0 0 0 0 .3c0 .076-.055.16 0 .236a.452.452 0 0 1-.097.23.23.23 0 0 0-.049.145.403.403 0 0 1-.097.09l-.112.14a.451.451 0 0 1-.09.111.382.382 0 0 0-.097.063s-.042.062-.07.062l-.257.104-.077.056a.48.48 0 0 0-.215.084h-.063a.447.447 0 0 0-.23.048h-.125a.515.515 0 0 0-.354 0h-.118a.285.285 0 0 0-.174-.041.355.355 0 0 0-.32-.133.823.823 0 0 0-.223-.146.271.271 0 0 0-.215-.25.25.25 0 0 0-.209-.223.307.307 0 0 1-.042-.11.25.25 0 0 0-.048-.182.348.348 0 0 0-.056-.306.426.426 0 0 1 .049-.118.707.707 0 0 1 0-.118.327.327 0 0 0 .048-.223.182.182 0 0 1 .063-.062c.07-.09.118-.132.104-.237-.014-.104.09-.076.104-.125.014-.049.09-.07.14-.111.048-.042.11-.063.153-.105a.25.25 0 0 0 .201-.145h.049a.425.425 0 0 0 .334-.084c.069-.01.14-.01.208 0 .088-.01.175-.031.258-.063.094.051.199.08.306.084a.409.409 0 0 1 .18 0c.105 0 .154-.035.216 0 .063.035.195.111.3.174.104.062.194.194.305.27a.378.378 0 0 0 .112.091Z" fill="url(#ax)"/><path fill-rule="evenodd" clip-rule="evenodd" d="M66.472 67.94a.125.125 0 0 1 0 .062s.084.07.077.097a.139.139 0 0 0 .07.18.18.18 0 0 0 0 .21c0 .048-.043.11 0 .16a.285.285 0 0 1-.077.16s-.049.062-.042.097a.336.336 0 0 1-.076.062l-.091.098a.396.396 0 0 1-.076.076l-.077.042s-.035.049-.056.049l-.215.07-.063.041a.306.306 0 0 0-.174.056.09.09 0 0 0-.055 0 .425.425 0 0 0-.188 0h-.097a.522.522 0 0 0-.292 0h-.098a.292.292 0 0 0-.139 0 .333.333 0 0 0-.264-.09.57.57 0 0 0-.181-.098.202.202 0 0 0-.18-.174c0-.077-.063-.132-.168-.16a.154.154 0 0 1-.035-.076.152.152 0 0 0 0-.119.23.23 0 0 0-.048-.215s0-.056.035-.084c.034-.028 0-.076 0-.076.03-.045.042-.1.034-.153a.204.204 0 0 1 .056-.049c.056-.056.097-.09.083-.16-.014-.07.07-.056.084-.09l.118-.077s.09-.042.125-.07a.25.25 0 0 0 .167-.097h.035a.383.383 0 0 0 .271-.055.743.743 0 0 1 .174 0c.07-.007.14-.02.209-.042a.598.598 0 0 0 .25.055.526.526 0 0 1 .146 0h.174c.049 0 .167.077.25.126.084.048.16.132.25.188.091.055.056.02.084.055Z" fill="#fff"/><path fill-rule="evenodd" clip-rule="evenodd" d="m55.644 26.427-3.533-1.975-2.782 1.489v.354l2.789 1.843.626-.041 2.9-1.67Z" fill="#171552"/><path fill-rule="evenodd" clip-rule="evenodd" d="M55.115 26.427v-.542l-3.004-1.161-2.99 1.516v.188l2.996 1.71 2.998-1.71Z" fill="#171552"/><path fill-rule="evenodd" clip-rule="evenodd" d="m50.657 25.46-1.537.425v.542l2.998 1.711v-2.677h-1.46Z" fill="#231889"/><path fill-rule="evenodd" clip-rule="evenodd" d="m55.115 25.885-3.004-1.704-2.99 1.704 2.996 1.71 2.998-1.71Z" fill="url(#ay)"/><path fill-rule="evenodd" clip-rule="evenodd" d="M52.118 26.928c.897 0 1.634-.466 1.634-1.043s-.737-1.036-1.634-1.036c-.897 0-1.635.466-1.635 1.036 0 .57.758 1.043 1.635 1.043Z" fill="url(#az)"/><path fill-rule="evenodd" clip-rule="evenodd" d="M52.118 26.74c.737 0 1.342-.382 1.342-.855s-.605-.848-1.342-.848c-.738 0-1.343.382-1.343.848 0 .466.605.855 1.343.855Z" fill="#231889"/><path fill-rule="evenodd" clip-rule="evenodd" d="m51.846 24.23-3.532-1.975-2.782 1.488v.355l2.789 1.843.625-.042 2.9-1.67Z" fill="#171552"/><path fill-rule="evenodd" clip-rule="evenodd" d="M51.318 24.258v-.543l-3.004-1.161-2.99 1.516v.188l2.997 1.71 2.997-1.71Z" fill="#171552"/><path fill-rule="evenodd" clip-rule="evenodd" d="m46.86 23.291-1.537.424v.543l2.998 1.71v-2.677h-1.46Z" fill="#231889"/><path fill-rule="evenodd" clip-rule="evenodd" d="m51.318 23.715-3.004-1.704-2.99 1.704 2.997 1.71 2.997-1.71Z" fill="url(#aA)"/><path fill-rule="evenodd" clip-rule="evenodd" d="M48.32 24.758c.904 0 1.635-.466 1.635-1.043s-.73-1.036-1.635-1.036c-.904 0-1.634.466-1.634 1.036 0 .57.737 1.043 1.634 1.043Z" fill="url(#aB)"/><path fill-rule="evenodd" clip-rule="evenodd" d="M48.32 24.57c.737 0 1.343-.382 1.343-.855s-.605-.848-1.343-.848c-.737 0-1.342.382-1.342.848 0 .466.605.856 1.342.856Z" fill="#231889"/><path d="m25.329 11.037-4.75-2.74a.056.056 0 0 1 0-.077.063.063 0 0 1 .083 0l4.743 2.74a.048.048 0 0 1 .019.039.049.049 0 0 1-.019.038.055.055 0 0 1-.076 0Z" fill="#231889"/><path d="m26.01 10.648-4.75-2.74a.056.056 0 0 1 0-.077.062.062 0 0 1 .084 0l4.743 2.74a.048.048 0 0 1 .018.038.049.049 0 0 1-.018.039.055.055 0 0 1-.077 0Zm.682-.39-4.75-2.74a.056.056 0 0 1 0-.077.063.063 0 0 1 .083 0l4.743 2.74a.048.048 0 0 1 .014.06.05.05 0 0 1-.014.017.056.056 0 0 1-.076 0Zm.681-.383-4.778-2.781a.056.056 0 0 1 0-.077.055.055 0 0 1 .065-.014.057.057 0 0 1 .019.014l4.743 2.74a.048.048 0 0 1 .014.06.048.048 0 0 1-.014.017.056.056 0 0 1-.049.041Zm.682-.396-4.75-2.74a.056.056 0 0 1 0-.077.063.063 0 0 1 .083 0l4.743 2.74a.049.049 0 0 1 0 .076.056.056 0 0 1-.076.001Zm.681-.389-4.75-2.74a.062.062 0 0 1-.01-.077.063.063 0 0 1 .073-.028l4.743 2.74a.048.048 0 0 1 0 .077.055.055 0 0 1-.056.028Zm.682-.39h-.035L24.64 5.967a.057.057 0 0 1-.019-.042.056.056 0 0 1 .019-.041.063.063 0 0 1 .083 0l4.743 2.74a.048.048 0 0 1 .014.06.048.048 0 0 1-.014.016.056.056 0 0 1-.048 0Zm.682-.39-4.744-2.732a.057.057 0 0 1-.019-.042.056.056 0 0 1 .02-.042.056.056 0 0 1 .076 0l4.75 2.74a.056.056 0 0 1 0 .077.055.055 0 0 1-.065.014.055.055 0 0 1-.019-.014Zm.681-.389h-.035l-4.743-2.733a.055.055 0 0 1 0-.083.056.056 0 0 1 .077 0l4.75 2.74a.056.056 0 0 1 0 .076.056.056 0 0 1-.049 0Zm.682-.389h-.035l-4.743-2.733a.056.056 0 0 1 0-.084.056.056 0 0 1 .076 0l4.75 2.74a.056.056 0 0 1 0 .077h-.048Zm.681-.397-4.743-2.733a.056.056 0 0 1 0-.083.056.056 0 0 1 .077 0l4.75 2.74a.056.056 0 0 1 0 .076.048.048 0 0 1-.066.018.048.048 0 0 1-.018-.018Zm.681-.389h-.034l-4.743-2.733a.057.057 0 0 1-.02-.042.056.056 0 0 1 .02-.042.056.056 0 0 1 .076 0l4.75 2.74a.056.056 0 0 1 0 .077.056.056 0 0 1-.049 0Zm.682-.39h-.035l-4.743-2.74a.055.055 0 0 1-.014-.064.055.055 0 0 1 .014-.02.056.056 0 0 1 .077 0l4.75 2.734a.07.07 0 0 1 0 .083.063.063 0 0 1-.049.007Zm.682-.389-4.743-2.733a.055.055 0 0 1-.014-.065.055.055 0 0 1 .014-.019.055.055 0 0 1 .076 0l4.75 2.734a.07.07 0 0 1 0 .083.063.063 0 0 1-.083 0Zm.675-.389L30.12 2.845a.063.063 0 0 1 0-.084.056.056 0 0 1 .077 0l4.75 2.733a.07.07 0 0 1 0 .084.063.063 0 0 1-.084 0Zm.681-.39-4.743-2.733a.062.062 0 0 1 0-.083.07.07 0 0 1 .084 0l4.75 2.733a.07.07 0 0 1 0 .083.063.063 0 0 1-.09 0Zm.681-.389-4.743-2.733a.063.063 0 0 1 0-.084.07.07 0 0 1 .084 0l4.75 2.733a.07.07 0 0 1 0 .084.063.063 0 0 1-.07.014.062.062 0 0 1-.02-.014Zm.682-.389-4.75-2.734a.063.063 0 0 1 .011-.122.063.063 0 0 1 .052.018l4.75 2.733a.07.07 0 0 1 0 .083.063.063 0 0 1-.063.021Zm.682-.39-4.744-2.733a.062.062 0 0 1 0-.084.07.07 0 0 1 .084 0l4.75 2.733a.07.07 0 0 1 0 .084.062.062 0 0 1-.045.019.062.062 0 0 1-.045-.02Zm.681-.404L33.521.883a.07.07 0 0 1 0-.083.063.063 0 0 1 .084 0l4.75 2.733a.07.07 0 0 1 0 .083.063.063 0 0 1-.084 0Zm.682-.375L34.203.508a.062.062 0 0 1-.01-.077.063.063 0 0 1 .072-.028l4.75 2.734a.07.07 0 0 1 0 .083.063.063 0 0 1-.062.021Zm.681-.39L34.856.14a.07.07 0 0 1 0-.083.063.063 0 0 1 .084 0l4.743 2.733a.063.063 0 0 1 0 .083.062.062 0 0 1-.049-.02Z" fill="#E6E7E8"/></g><defs><linearGradient id="b" x1="19.75" y1="12.82" x2="-3.732" y2="9.462" gradientUnits="userSpaceOnUse"><stop stop-color="#E4E7FF"/><stop offset="1" stop-color="#2137FF"/></linearGradient><linearGradient id="c" x1="15.102" y1="17.387" x2="11.059" y2="18.038" gradientUnits="userSpaceOnUse"><stop stop-color="#2137FF"/><stop offset="1" stop-color="#0047FF"/></linearGradient><linearGradient id="d" x1="34.71" y1="14.888" x2="-14.682" y2="7.911" gradientUnits="userSpaceOnUse"><stop stop-color="#E4E7FF"/><stop offset="1" stop-color="#2137FF"/></linearGradient><linearGradient id="e" x1="43.1" y1="9.792" x2="40.946" y2="18.029" gradientUnits="userSpaceOnUse"><stop stop-color="#2137FF"/><stop offset="1" stop-color="#0047FF"/></linearGradient><linearGradient id="f" x1="38.192" y1="27.61" x2="-1.798" y2="16.081" gradientUnits="userSpaceOnUse"><stop stop-color="#E4E7FF"/><stop offset="1" stop-color="#2137FF"/></linearGradient><linearGradient id="g" x1="38.192" y1="30.698" x2="-1.797" y2="19.168" gradientUnits="userSpaceOnUse"><stop stop-color="#E4E7FF"/><stop offset="1" stop-color="#2137FF"/></linearGradient><linearGradient id="h" x1="38.193" y1="33.78" x2="-1.798" y2="22.247" gradientUnits="userSpaceOnUse"><stop stop-color="#E4E7FF"/><stop offset="1" stop-color="#2137FF"/></linearGradient><linearGradient id="i" x1="38.191" y1="36.866" x2="-1.801" y2="25.337" gradientUnits="userSpaceOnUse"><stop stop-color="#E4E7FF"/><stop offset="1" stop-color="#2137FF"/></linearGradient><linearGradient id="j" x1="38.193" y1="39.958" x2="-1.796" y2="28.422" gradientUnits="userSpaceOnUse"><stop stop-color="#E4E7FF"/><stop offset="1" stop-color="#2137FF"/></linearGradient><linearGradient id="k" x1="38.192" y1="43.035" x2="-1.798" y2="31.506" gradientUnits="userSpaceOnUse"><stop stop-color="#E4E7FF"/><stop offset="1" stop-color="#2137FF"/></linearGradient><linearGradient id="l" x1="38.193" y1="46.127" x2="-1.796" y2="34.59" gradientUnits="userSpaceOnUse"><stop stop-color="#E4E7FF"/><stop offset="1" stop-color="#2137FF"/></linearGradient><linearGradient id="m" x1="38.192" y1="49.204" x2="-1.798" y2="37.675" gradientUnits="userSpaceOnUse"><stop stop-color="#E4E7FF"/><stop offset="1" stop-color="#2137FF"/></linearGradient><linearGradient id="n" x1="38.192" y1="52.298" x2="-1.799" y2="40.77" gradientUnits="userSpaceOnUse"><stop stop-color="#E4E7FF"/><stop offset="1" stop-color="#2137FF"/></linearGradient><linearGradient id="o" x1="38.192" y1="55.374" x2="-1.797" y2="43.842" gradientUnits="userSpaceOnUse"><stop stop-color="#E4E7FF"/><stop offset="1" stop-color="#2137FF"/></linearGradient><linearGradient id="p" x1="38.193" y1="58.46" x2="-1.803" y2="46.929" gradientUnits="userSpaceOnUse"><stop stop-color="#E4E7FF"/><stop offset="1" stop-color="#2137FF"/></linearGradient><linearGradient id="q" x1="38.195" y1="61.545" x2="-1.799" y2="50.006" gradientUnits="userSpaceOnUse"><stop stop-color="#E4E7FF"/><stop offset="1" stop-color="#2137FF"/></linearGradient><linearGradient id="r" x1="38.192" y1="64.629" x2="-1.798" y2="53.1" gradientUnits="userSpaceOnUse"><stop stop-color="#E4E7FF"/><stop offset="1" stop-color="#2137FF"/></linearGradient><linearGradient id="s" x1="38.193" y1="67.722" x2="-1.794" y2="56.183" gradientUnits="userSpaceOnUse"><stop stop-color="#E4E7FF"/><stop offset="1" stop-color="#2137FF"/></linearGradient><linearGradient id="t" x1="38.192" y1="70.798" x2="-1.798" y2="59.269" gradientUnits="userSpaceOnUse"><stop stop-color="#E4E7FF"/><stop offset="1" stop-color="#2137FF"/></linearGradient><linearGradient id="u" x1="38.193" y1="73.858" x2="-1.799" y2="62.327" gradientUnits="userSpaceOnUse"><stop stop-color="#E4E7FF"/><stop offset="1" stop-color="#2137FF"/></linearGradient><linearGradient id="v" x1="22.607" y1="66.606" x2="20.78" y2="66.336" gradientUnits="userSpaceOnUse"><stop stop-color="#E4E7FF"/><stop offset="1" stop-color="#2137FF"/></linearGradient><linearGradient id="w" x1="14.603" y1="39.992" x2="13.611" y2="39.991" gradientUnits="userSpaceOnUse"><stop stop-color="#E4E7FF"/><stop offset="1" stop-color="#2137FF"/></linearGradient><linearGradient id="x" x1="37.501" y1="17.12" x2="17.7" y2="14.575" gradientUnits="userSpaceOnUse"><stop stop-color="#E4E7FF"/><stop offset="1" stop-color="#2137FF"/></linearGradient><linearGradient id="y" x1="33.562" y1="5.404" x2="32.678" y2="8.18" gradientUnits="userSpaceOnUse"><stop stop-color="#2137FF"/><stop offset="1" stop-color="#0047FF"/></linearGradient><linearGradient id="z" x1="26.242" y1="11.197" x2="25.486" y2="11.748" gradientUnits="userSpaceOnUse"><stop stop-color="#2137FF"/><stop offset="1" stop-color="#0047FF"/></linearGradient><linearGradient id="A" x1="17.165" y1="16.302" x2="16.899" y2="17.314" gradientUnits="userSpaceOnUse"><stop stop-color="#2137FF"/><stop offset="1" stop-color="#0047FF"/></linearGradient><linearGradient id="B" x1="20.295" y1="14.681" x2="20.029" y2="15.694" gradientUnits="userSpaceOnUse"><stop stop-color="#2137FF"/><stop offset="1" stop-color="#0047FF"/></linearGradient><linearGradient id="C" x1="31.468" y1=".063" x2="30.226" y2="4.761" gradientUnits="userSpaceOnUse"><stop stop-color="#2137FF"/><stop offset="1" stop-color="#0047FF"/></linearGradient><linearGradient id="D" x1="20.24" y1="67.915" x2="9.241" y2="66.083" gradientUnits="userSpaceOnUse"><stop stop-color="#E4E7FF"/><stop offset="1" stop-color="#2137FF"/></linearGradient><linearGradient id="E" x1="11.98" y1="71.577" x2="16.535" y2="75.091" gradientUnits="userSpaceOnUse"><stop stop-color="#E4E7FF"/><stop offset="1" stop-color="#2137FF"/></linearGradient><linearGradient id="F" x1="12.458" y1="71.773" x2="9.233" y2="76.697" gradientUnits="userSpaceOnUse"><stop stop-color="#E4E7FF"/><stop offset="1" stop-color="#2137FF"/></linearGradient><linearGradient id="G" x1="12.505" y1="71.696" x2="8.854" y2="71.369" gradientUnits="userSpaceOnUse"><stop stop-color="#E4E7FF"/><stop offset="1" stop-color="#2137FF"/></linearGradient><linearGradient id="H" x1="12.572" y1="71.632" x2="10.704" y2="74.908" gradientUnits="userSpaceOnUse"><stop stop-color="#E4E7FF"/><stop offset="1" stop-color="#2137FF"/></linearGradient><linearGradient id="I" x1="12.653" y1="71.536" x2="10.163" y2="71.237" gradientUnits="userSpaceOnUse"><stop stop-color="#E4E7FF"/><stop offset="1" stop-color="#2137FF"/></linearGradient><linearGradient id="J" x1="9.249" y1="73.082" x2="13.77" y2="76.613" gradientUnits="userSpaceOnUse"><stop stop-color="#E4E7FF"/><stop offset="1" stop-color="#2137FF"/></linearGradient><linearGradient id="K" x1="9.732" y1="73.215" x2="6.497" y2="78.143" gradientUnits="userSpaceOnUse"><stop stop-color="#E4E7FF"/><stop offset="1" stop-color="#2137FF"/></linearGradient><linearGradient id="L" x1="9.835" y1="73.166" x2="6.227" y2="72.847" gradientUnits="userSpaceOnUse"><stop stop-color="#E4E7FF"/><stop offset="1" stop-color="#2137FF"/></linearGradient><linearGradient id="M" x1="9.896" y1="73.111" x2="8.037" y2="76.379" gradientUnits="userSpaceOnUse"><stop stop-color="#E4E7FF"/><stop offset="1" stop-color="#2137FF"/></linearGradient><linearGradient id="N" x1="10.001" y1="72.997" x2="7.589" y2="72.716" gradientUnits="userSpaceOnUse"><stop stop-color="#E4E7FF"/><stop offset="1" stop-color="#2137FF"/></linearGradient><linearGradient id="O" x1="6.668" y1="74.334" x2="11.189" y2="77.865" gradientUnits="userSpaceOnUse"><stop stop-color="#E4E7FF"/><stop offset="1" stop-color="#2137FF"/></linearGradient><linearGradient id="P" x1="7.221" y1="74.495" x2="3.987" y2="79.423" gradientUnits="userSpaceOnUse"><stop stop-color="#E4E7FF"/><stop offset="1" stop-color="#2137FF"/></linearGradient><linearGradient id="Q" x1="7.235" y1="74.427" x2="3.627" y2="74.106" gradientUnits="userSpaceOnUse"><stop stop-color="#E4E7FF"/><stop offset="1" stop-color="#2137FF"/></linearGradient><linearGradient id="R" x1="7.313" y1="74.323" x2="5.446" y2="77.6" gradientUnits="userSpaceOnUse"><stop stop-color="#E4E7FF"/><stop offset="1" stop-color="#2137FF"/></linearGradient><linearGradient id="S" x1="7.442" y1="74.198" x2="5.072" y2="73.934" gradientUnits="userSpaceOnUse"><stop stop-color="#E4E7FF"/><stop offset="1" stop-color="#2137FF"/></linearGradient><linearGradient id="T" x1="22.142" y1="76.908" x2="26.645" y2="80.444" gradientUnits="userSpaceOnUse"><stop stop-color="#E4E7FF"/><stop offset="1" stop-color="#2137FF"/></linearGradient><linearGradient id="U" x1="22.602" y1="77.022" x2="19.413" y2="81.922" gradientUnits="userSpaceOnUse"><stop stop-color="#E4E7FF"/><stop offset="1" stop-color="#2137FF"/></linearGradient><linearGradient id="V" x1="22.697" y1="76.982" x2="19.081" y2="76.661" gradientUnits="userSpaceOnUse"><stop stop-color="#E4E7FF"/><stop offset="1" stop-color="#2137FF"/></linearGradient><linearGradient id="W" x1="22.751" y1="76.887" x2="20.865" y2="80.178" gradientUnits="userSpaceOnUse"><stop stop-color="#E4E7FF"/><stop offset="1" stop-color="#2137FF"/></linearGradient><linearGradient id="X" x1="22.846" y1="76.786" x2="20.388" y2="76.501" gradientUnits="userSpaceOnUse"><stop stop-color="#E4E7FF"/><stop offset="1" stop-color="#2137FF"/></linearGradient><linearGradient id="Y" x1="19.459" y1="78.359" x2="24.001" y2="81.893" gradientUnits="userSpaceOnUse"><stop stop-color="#E4E7FF"/><stop offset="1" stop-color="#2137FF"/></linearGradient><linearGradient id="Z" x1="19.987" y1="78.54" x2="16.76" y2="83.457" gradientUnits="userSpaceOnUse"><stop stop-color="#E4E7FF"/><stop offset="1" stop-color="#2137FF"/></linearGradient><linearGradient id="aa" x1="20.046" y1="78.456" x2="16.497" y2="78.147" gradientUnits="userSpaceOnUse"><stop stop-color="#E4E7FF"/><stop offset="1" stop-color="#2137FF"/></linearGradient><linearGradient id="ab" x1="20.107" y1="78.403" x2="18.225" y2="81.632" gradientUnits="userSpaceOnUse"><stop stop-color="#E4E7FF"/><stop offset="1" stop-color="#2137FF"/></linearGradient><linearGradient id="ac" x1="20.18" y1="78.243" x2="17.763" y2="77.967" gradientUnits="userSpaceOnUse"><stop stop-color="#E4E7FF"/><stop offset="1" stop-color="#2137FF"/></linearGradient><linearGradient id="ad" x1="16.89" y1="79.59" x2="21.427" y2="83.109" gradientUnits="userSpaceOnUse"><stop stop-color="#E4E7FF"/><stop offset="1" stop-color="#2137FF"/></linearGradient><linearGradient id="ae" x1="17.323" y1="79.838" x2="14.134" y2="84.739" gradientUnits="userSpaceOnUse"><stop stop-color="#E4E7FF"/><stop offset="1" stop-color="#2137FF"/></linearGradient><linearGradient id="af" x1="17.415" y1="79.722" x2="13.764" y2="79.394" gradientUnits="userSpaceOnUse"><stop stop-color="#E4E7FF"/><stop offset="1" stop-color="#2137FF"/></linearGradient><linearGradient id="ag" x1="17.515" y1="79.611" x2="15.563" y2="82.897" gradientUnits="userSpaceOnUse"><stop stop-color="#E4E7FF"/><stop offset="1" stop-color="#2137FF"/></linearGradient><linearGradient id="ah" x1="17.6" y1="79.478" x2="15.182" y2="79.209" gradientUnits="userSpaceOnUse"><stop stop-color="#E4E7FF"/><stop offset="1" stop-color="#2137FF"/></linearGradient><linearGradient id="ai" x1="38.234" y1="79.739" x2="31.218" y2="79.161" gradientUnits="userSpaceOnUse"><stop stop-color="#E4E7FF"/><stop offset="1" stop-color="#2137FF"/></linearGradient><linearGradient id="aj" x1="37.812" y1="79.241" x2="42.943" y2="83.347" gradientUnits="userSpaceOnUse"><stop stop-color="#E4E7FF"/><stop offset="1" stop-color="#2137FF"/></linearGradient><linearGradient id="ak" x1="38.39" y1="79.498" x2="33.422" y2="79.057" gradientUnits="userSpaceOnUse"><stop stop-color="#E4E7FF"/><stop offset="1" stop-color="#2137FF"/></linearGradient><linearGradient id="al" x1="38.077" y1="79.158" x2="41.343" y2="82.182" gradientUnits="userSpaceOnUse"><stop stop-color="#E4E7FF"/><stop offset="1" stop-color="#2137FF"/></linearGradient><linearGradient id="am" x1="44.493" y1="82.521" x2="37.477" y2="81.942" gradientUnits="userSpaceOnUse"><stop stop-color="#E4E7FF"/><stop offset="1" stop-color="#2137FF"/></linearGradient><linearGradient id="an" x1="44.071" y1="82.022" x2="49.202" y2="86.128" gradientUnits="userSpaceOnUse"><stop stop-color="#E4E7FF"/><stop offset="1" stop-color="#2137FF"/></linearGradient><linearGradient id="ao" x1="44.649" y1="82.279" x2="39.681" y2="81.838" gradientUnits="userSpaceOnUse"><stop stop-color="#E4E7FF"/><stop offset="1" stop-color="#2137FF"/></linearGradient><linearGradient id="ap" x1="44.336" y1="81.94" x2="47.602" y2="84.964" gradientUnits="userSpaceOnUse"><stop stop-color="#E4E7FF"/><stop offset="1" stop-color="#2137FF"/></linearGradient><linearGradient id="aq" x1="50.752" y1="78.348" x2="43.736" y2="77.77" gradientUnits="userSpaceOnUse"><stop stop-color="#E4E7FF"/><stop offset="1" stop-color="#2137FF"/></linearGradient><linearGradient id="ar" x1="50.33" y1="77.85" x2="55.461" y2="81.956" gradientUnits="userSpaceOnUse"><stop stop-color="#E4E7FF"/><stop offset="1" stop-color="#2137FF"/></linearGradient><linearGradient id="as" x1="50.908" y1="78.107" x2="45.94" y2="77.666" gradientUnits="userSpaceOnUse"><stop stop-color="#E4E7FF"/><stop offset="1" stop-color="#2137FF"/></linearGradient><linearGradient id="at" x1="50.595" y1="77.767" x2="53.861" y2="80.791" gradientUnits="userSpaceOnUse"><stop stop-color="#E4E7FF"/><stop offset="1" stop-color="#2137FF"/></linearGradient><linearGradient id="au" x1="64.662" y1="68.612" x2="57.645" y2="68.033" gradientUnits="userSpaceOnUse"><stop stop-color="#E4E7FF"/><stop offset="1" stop-color="#2137FF"/></linearGradient><linearGradient id="av" x1="64.24" y1="68.113" x2="69.37" y2="72.219" gradientUnits="userSpaceOnUse"><stop stop-color="#E4E7FF"/><stop offset="1" stop-color="#2137FF"/></linearGradient><linearGradient id="aw" x1="64.817" y1="68.37" x2="59.849" y2="67.929" gradientUnits="userSpaceOnUse"><stop stop-color="#E4E7FF"/><stop offset="1" stop-color="#2137FF"/></linearGradient><linearGradient id="ax" x1="64.504" y1="68.031" x2="67.771" y2="71.055" gradientUnits="userSpaceOnUse"><stop stop-color="#E4E7FF"/><stop offset="1" stop-color="#2137FF"/></linearGradient><linearGradient id="ay" x1="51.399" y1="25.346" x2="43.78" y2="24.249" gradientUnits="userSpaceOnUse"><stop stop-color="#E4E7FF"/><stop offset="1" stop-color="#2137FF"/></linearGradient><linearGradient id="az" x1="52.35" y1="24.849" x2="52.091" y2="25.73" gradientUnits="userSpaceOnUse"><stop stop-color="#2137FF"/><stop offset="1" stop-color="#0047FF"/></linearGradient><linearGradient id="aA" x1="47.602" y1="23.176" x2="39.984" y2="22.079" gradientUnits="userSpaceOnUse"><stop stop-color="#E4E7FF"/><stop offset="1" stop-color="#2137FF"/></linearGradient><linearGradient id="aB" x1="48.553" y1="22.679" x2="48.294" y2="23.56" gradientUnits="userSpaceOnUse"><stop stop-color="#2137FF"/><stop offset="1" stop-color="#0047FF"/></linearGradient><clipPath id="a"><path fill="#fff" d="M0 0h76.375v100H0z"/></clipPath></defs></svg>