<svg width="64" height="70" fill="none" xmlns="http://www.w3.org/2000/svg"><path d="m49.283 54.145 14.608-8.492.008-1.867L49.29 52.27l-.007 1.875Z" fill="#171552"/><path d="m49.29 52.27 14.608-8.484-31.026-17.917-14.608 8.491L49.29 52.27Z" fill="url(#a)"/><path d="m37.247 47.19 12.036 6.955.007-1.875-31.026-17.91-.007 1.868 18.99 10.962Z" fill="#231889"/><path d="M31.762 15.583a6.074 6.074 0 0 0-5.514.052 1.764 1.764 0 0 0-1.029 1.845l-3.345 2.073-2.632-1.522 10.22-5.947 4.97 2.867-1.993 1.147a2.767 2.767 0 0 0-.677-.515Z" fill="url(#b)"/><path d="M31.983 2.452v29.827a2.941 2.941 0 1 1-5.837 0V2.452h5.837Z" fill="#fff"/><path d="M31.476 13.113V32.28a2.417 2.417 0 0 1-4.172 1.795 2.418 2.418 0 0 1-.658-1.795V13.112h4.83Z" fill="url(#c)"/><path d="M30.734 12.076c.963.544 1 1.426.073 1.985a3.786 3.786 0 0 1-3.418 0c-.963-.536-.993-1.419-.067-1.977a3.773 3.773 0 0 1 3.412-.008Z" fill="#231889"/><path d="M32.571 2.577v-.493a1.758 1.758 0 0 1-.985 1.412 5.5 5.5 0 0 1-4.977.052 1.794 1.794 0 0 1-1.081-1.47v.521a1.773 1.773 0 0 0 1.08 1.47 5.477 5.477 0 0 0 4.978-.044 1.727 1.727 0 0 0 .985-1.448Z" fill="url(#d)"/><path d="M31.498.57c1.404.787 1.47 2.073.103 2.89a5.5 5.5 0 0 1-4.977.05c-1.405-.786-1.47-2.073-.103-2.889A5.5 5.5 0 0 1 31.498.57Z" fill="#fff"/><path d="M29.072 3.555a4.514 4.514 0 0 0 2.271-.551 1.243 1.243 0 0 0 .736-.993c0-.36-.31-.735-.824-1.022A4.675 4.675 0 0 0 29.05.482a4.536 4.536 0 0 0-2.271.551 1.242 1.242 0 0 0-.735.993c0 .36.308.735.83 1.022a4.65 4.65 0 0 0 2.199.507Z" fill="#7FE2F4"/><path d="m23.308 34.882 1.852-1.073v-.39l-1.845 1.074-.007.39Z" fill="#171552"/><path d="m23.315 34.493 1.845-1.074-1.8-1.036-1.854 1.073 1.809 1.037Z" fill="#fff"/><path d="M21.506 33.456v.397l1.802 1.03.007-.39-1.809-1.037Z" fill="#231889"/><path d="m23.984 19.854-.022 13.66-.713.412.022-14.072h.713Z" fill="#171552"/><path d="m23.271 19.854-.022 14.072-.632-.36.022-13.712h.632Z" fill="#231889"/><path d="M25.22 17.48a2.118 2.118 0 0 0 1.146 1.353 6.087 6.087 0 0 0 5.522-.06c1.22-.734 1.39-1.822.551-2.675l1.992-1.147 7.456 4.3-1.963 1.148a2.94 2.94 0 0 0-.736-.56 6.095 6.095 0 0 0-5.514.06c-1.036.625-1.308 1.507-.867 2.279l-3.11 1.897-7.838-4.522 3.36-2.073Z" fill="url(#e)"/><path d="M39.416 6.856v29.828a2.942 2.942 0 1 1-5.837 0V6.856h5.837Z" fill="#fff"/><path d="M38.916 17.524v19.189a2.419 2.419 0 1 1-4.837 0v-19.19h4.837Z" fill="url(#f)"/><path d="M38.166 16.487c.964.537 1 1.426.074 1.978a3.763 3.763 0 0 1-3.419 0c-.963-.537-.992-1.427-.066-1.978a3.743 3.743 0 0 1 3.411 0Z" fill="#231889"/><path d="M40.019 6.989v-.493A1.72 1.72 0 0 1 39.04 7.9a5.5 5.5 0 0 1-4.977.052 1.787 1.787 0 0 1-1.088-1.47v.529a1.794 1.794 0 0 0 1.08 1.47 5.5 5.5 0 0 0 4.978-.051 1.735 1.735 0 0 0 .985-1.441Z" fill="url(#g)"/><path d="M38.93 4.981c1.405.78 1.471 2.074.104 2.882a5.5 5.5 0 0 1-4.977.052c-1.398-.78-1.471-2.073-.104-2.882a5.5 5.5 0 0 1 4.978-.052Z" fill="#fff"/><path d="M36.505 7.966a4.573 4.573 0 0 0 2.271-.544c.486-.294.736-.647.736-.992 0-.346-.302-.736-.824-1.022a5.014 5.014 0 0 0-4.47.036c-.485.294-.735.647-.735.993 0 .345.301.735.823 1.022.679.35 1.435.525 2.199.507Z" fill="#7FE2F4"/><path d="M32.814 22.178c.236.392.578.71.985.92a6.073 6.073 0 0 0 5.514-.06c1.206-.735 1.383-1.801.589-2.64l1.977-1.146 6.867 3.978-1.845 1.066a2.563 2.563 0 0 0-.36-.243 6.073 6.073 0 0 0-5.514.051c-.971.588-1.28 1.405-.949 2.14L36.836 28.2l-7.146-4.125 3.124-1.897Z" fill="url(#h)"/><path d="M46.776 11.01v29.828a2.941 2.941 0 1 1-5.838 0V11.01h5.838Z" fill="#fff"/><path d="M46.276 21.648v19.19a2.42 2.42 0 0 1-4.838 0v-19.19h4.838Z" fill="url(#i)"/><path d="M45.533 20.642c.963.536.993 1.426.066 1.977a3.743 3.743 0 0 1-3.411 0c-.963-.537-1-1.419-.074-1.977a3.763 3.763 0 0 1 3.419 0Z" fill="#231889"/><path d="M47.379 11.142v-.53a1.705 1.705 0 0 1-.978 1.405 5.455 5.455 0 0 1-4.977.052 1.795 1.795 0 0 1-1.089-1.47v.528a1.787 1.787 0 0 0 1.089 1.47 5.456 5.456 0 0 0 4.977-.05 1.722 1.722 0 0 0 .978-1.405Z" fill="url(#j)"/><path d="M46.298 9.135c1.397.787 1.47 2.073.103 2.882a5.455 5.455 0 0 1-4.978.051c-1.404-.779-1.47-2.073-.103-2.882a5.5 5.5 0 0 1 4.978-.051Z" fill="#fff"/><path d="M43.871 12.142c.79.015 1.57-.175 2.265-.551a1.264 1.264 0 0 0 .735-.993 1.353 1.353 0 0 0-.83-1.022 4.985 4.985 0 0 0-4.47.044 1.228 1.228 0 0 0-.736.986c0 .367.301.735.823 1.029a4.66 4.66 0 0 0 2.213.507Z" fill="#7FE2F4"/><path d="M54.076 28.368a6.071 6.071 0 0 0-5.514.052c-1.03.617-1.301 1.47-.882 2.257l-3.191 1.934-2.36-1.368-5.264-3.044 3.242-1.955c.232.459.605.83 1.066 1.058a6.051 6.051 0 0 0 5.514-.058c1.36-.817 1.427-2.074.243-2.941l1.816-1.074 3.617 2.088 4.242 2.448-1.897 1.096a2.877 2.877 0 0 0-.632-.493Z" fill="url(#k)"/><path d="M54.407 15.51v29.827a2.94 2.94 0 1 1-5.838 0V15.51h5.838Z" fill="#fff"/><path d="M53.893 26.148v19.19a2.417 2.417 0 0 1-4.172 1.795 2.418 2.418 0 0 1-.659-1.796V26.148h4.83Z" fill="url(#l)"/><path d="M53.158 25.141c.963.537 1 1.426.073 1.985a3.786 3.786 0 0 1-3.419 0c-.963-.537-.992-1.419-.066-1.978a3.743 3.743 0 0 1 3.412-.007Z" fill="#231889"/><path d="M55.002 15.642v-.53a1.735 1.735 0 0 1-.985 1.405 5.456 5.456 0 0 1-4.977.051 1.786 1.786 0 0 1-1.081-1.47v.53a1.794 1.794 0 0 0 1.08 1.47 5.455 5.455 0 0 0 4.978-.052 1.705 1.705 0 0 0 .985-1.404Z" fill="url(#m)"/><path d="M53.893 13.635c1.404.786 1.47 2.073.102 2.882a5.456 5.456 0 0 1-4.977.051c-1.404-.78-1.47-2.073-.103-2.882a5.498 5.498 0 0 1 4.978-.051Z" fill="#fff"/><path d="M51.496 16.642a4.596 4.596 0 0 0 2.272-.552 1.244 1.244 0 0 0 .735-.992 1.36 1.36 0 0 0-.824-1.022 4.587 4.587 0 0 0-2.205-.508 4.536 4.536 0 0 0-2.272.552 1.242 1.242 0 0 0-.735.985c0 .368.309.735.823 1.03a4.7 4.7 0 0 0 2.206.507Z" fill="url(#n)"/><path d="M29.072 3.555a4.514 4.514 0 0 0 2.271-.551 1.243 1.243 0 0 0 .736-.993c0-.36-.31-.735-.824-1.022A4.675 4.675 0 0 0 29.05.482a4.536 4.536 0 0 0-2.271.551 1.242 1.242 0 0 0-.735.993c0 .36.308.735.83 1.022a4.65 4.65 0 0 0 2.199.507Z" fill="url(#o)"/><path d="M36.483 4.915a4.56 4.56 0 0 0-2.265.544c-.485.294-.735.647-.735.993 0 .345.301.735.823 1.021a5.015 5.015 0 0 0 4.47 0c.486-.294.736-.647.736-.992 0-.346-.302-.735-.824-1.022a4.566 4.566 0 0 0-2.205-.544Z" fill="url(#p)"/><path d="M43.871 12.142c.79.015 1.57-.175 2.265-.551a1.264 1.264 0 0 0 .735-.993 1.353 1.353 0 0 0-.83-1.022 4.985 4.985 0 0 0-4.47.044 1.228 1.228 0 0 0-.736.986c0 .367.301.735.823 1.029a4.66 4.66 0 0 0 2.213.507Z" fill="url(#q)"/><path d="m50.238 50.351 1.846-1.073v-.397l-1.846 1.073v.397Z" fill="#171552"/><path d="m50.238 49.954 1.846-1.073-1.802-1.03-1.845 1.074 1.801 1.03Z" fill="#fff"/><path d="m48.437 48.925-.007.39 1.808 1.036v-.397l-1.801-1.03Z" fill="#231889"/><path d="m50.172 49.395.714-.419.029-16.292-.713.42-.03 16.291Z" fill="#171552"/><path d="m50.202 33.103.713-.419-.633-.36-.713.412.633.367Z" fill="#0A2A44"/><path d="m49.57 32.736-.023 16.292.625.367.03-16.292-.633-.367Z" fill="#231889"/><path d="m58.635 45.47 1.845-1.074v-.397l-1.845 1.08v.39Z" fill="#171552"/><path d="m58.635 45.08 1.845-1.081-1.801-1.03-1.853 1.074 1.809 1.037Z" fill="#fff"/><path d="M56.826 44.043v.397l1.809 1.03v-.39l-1.809-1.037Z" fill="#231889"/><path d="m59.304 30.978-.022 13.124-.713.412.022-13.536h.713Z" fill="#171552"/><path d="m58.59 30.978-.021 13.536-.633-.36.023-13.176h.632Z" fill="#231889"/><path d="m50.253 36.993 10.227-5.956v-1.044L50.26 35.95l-.007 1.044Z" fill="#171552"/><path d="m19.234 18.031-.007 1.044 31.026 17.917.007-1.044-31.026-17.917Z" fill="#231889"/><path d="M47.68 30.677c.239.401.585.727 1 .94a6.05 6.05 0 0 0 5.514-.058c1.235-.735 1.397-1.845.53-2.698l1.896-1.096 3.89 2.258-10.22 5.947-5.771-3.33 3.161-1.963Z" fill="#fff"/><path d="M53.68 14.333a4.675 4.675 0 0 0-2.206-.507 4.537 4.537 0 0 0-2.272.551 1.346 1.346 0 0 0-.735.846.55.55 0 0 1 0-.118 1.243 1.243 0 0 1 .735-.985c.696-.38 1.48-.57 2.272-.552a4.586 4.586 0 0 1 2.205.508 1.36 1.36 0 0 1 .824 1.022c.003.049.003.098 0 .147a1.47 1.47 0 0 0-.824-.912ZM38.688 5.68a4.566 4.566 0 0 0-2.205-.508 4.485 4.485 0 0 0-2.265.551 1.339 1.339 0 0 0-.735.846.66.66 0 0 1 0-.118c0-.345.25-.735.735-.992a5.014 5.014 0 0 1 4.47-.037c.522.287.824.662.824 1.022a.93.93 0 0 1 0 .14 1.471 1.471 0 0 0-.824-.905Zm7.36 4.154a4.558 4.558 0 0 0-2.206-.508 4.5 4.5 0 0 0-2.272.552 1.361 1.361 0 0 0-.735.845.565.565 0 0 1 0-.117 1.228 1.228 0 0 1 .735-.986 4.5 4.5 0 0 1 2.272-.551 4.558 4.558 0 0 1 2.206.507 1.353 1.353 0 0 1 .83 1.022 1.03 1.03 0 0 1 0 .147 1.47 1.47 0 0 0-.83-.911ZM31.255 1.239A4.676 4.676 0 0 0 29.05.73a4.537 4.537 0 0 0-2.272.552 1.346 1.346 0 0 0-.735.845.615.615 0 0 1 0-.11 1.258 1.258 0 0 1 .735-.993A4.537 4.537 0 0 1 29.05.473a4.676 4.676 0 0 1 2.205.507 1.36 1.36 0 0 1 .824 1.022c.003.05.003.098 0 .147a1.47 1.47 0 0 0-.824-.911Z" fill="#231889"/><path opacity=".8" d="M47.661 51.79c-.836-3.437-3.104-5.99-5.245-8.694l.298.413c-2.875-3.986-6.14-7.743-9.163-11.59H14.367c-3.058 3.847-6.322 7.604-9.162 11.59l.298-.413C3.36 45.8 1.093 48.353.257 51.79a12.037 12.037 0 0 0 3.986 11.648C9.42 68.213 17.036 69.965 23.976 70c6.94.034 14.557-1.787 19.722-6.563a12.013 12.013 0 0 0 3.963-11.648Z" fill="#fff"/><path opacity=".8" d="M33.505 22.71H14.367v13.377h19.138V22.71Z" fill="#fff"/><path opacity=".1" d="M32.291 11.176c4.444 2.68 4.295 6.94-.332 9.518-4.627 2.577-11.945 2.462-16.423-.172-4.479-2.634-4.284-6.93.343-9.506 4.627-2.577 11.98-2.508 16.412.16Z" fill="#fff"/><path opacity=".8" d="M23.885 20.957c-2.62.058-5.21-.57-7.514-1.82-1.591-.963-2.462-2.131-2.45-3.3.011-1.168 1.019-2.45 2.748-3.435a15.21 15.21 0 0 1 7.284-1.684c2.624-.05 5.215.59 7.514 1.856 1.603.962 2.473 2.13 2.45 3.298-.022 1.168-1.019 2.44-2.737 3.436a15.209 15.209 0 0 1-7.295 1.65Z" fill="url(#r)"/><path d="M16.67 13.857a15.21 15.21 0 0 1 7.283-1.684 15.01 15.01 0 0 1 7.514 1.82 4.948 4.948 0 0 1 2.29 2.543c.07-.214.11-.438.115-.664 0-1.145-.848-2.29-2.451-3.298a14.992 14.992 0 0 0-7.502-1.821 15.21 15.21 0 0 0-7.284 1.683c-1.73.95-2.726 2.2-2.749 3.436.003.257.045.512.126.756a5.177 5.177 0 0 1 2.657-2.771Z" fill="#231889"/><path d="M12.317 19.17v-3.286c0 1.672 1.077 3.344 3.23 4.638 4.444 2.68 11.797 2.749 16.424.172 2.382-1.329 3.573-3.104 3.573-4.88v3.288c0 1.764-1.145 3.539-3.573 4.867-4.581 2.577-11.969 2.509-16.412-.16-2.165-1.306-3.242-2.943-3.242-4.638Z" fill="url(#s)"/><path d="m43.985 47.013-5.211-6.471a11.556 11.556 0 0 0-3.012-2.497c-6.242-3.757-16.573-3.86-23.078-.229a11.66 11.66 0 0 0-3.528 2.863l-.515.653a3.69 3.69 0 0 0-.252.32l-.527.654-.515.641c-.08.103-.183.229-.252.332l-.527.653-.515.641-.252.332-.516.653-.526.642c-.07.103-.172.229-.252.332l-.516.653a14.376 14.376 0 0 0-1.878 3.08 11.018 11.018 0 0 0-.893 3.585 9.792 9.792 0 0 0 2.164 6.7 18.323 18.323 0 0 0 7.01 5.188 28.547 28.547 0 0 0 4.833 1.65c1.62.39 3.266.674 4.924.847 2.253.237 4.523.26 6.78.069a34.358 34.358 0 0 0 6.494-1.145 24.475 24.475 0 0 0 9.358-4.753 10.891 10.891 0 0 0 3.997-7.33 11.453 11.453 0 0 0-2.795-8.063Z" fill="#231889"/><path d="M46.276 51.125a13 13 0 0 0-2.29-4.066l-5.212-6.471c2.863 3.55 1.66 7.925-3.505 10.812-6.505 3.63-16.836 3.527-23.078-.23-4.787-2.886-5.726-7.078-3.046-10.502l-.515.653c-.09.102-.175.209-.252.32l-.527.653-.516.642c-.08.103-.183.229-.252.332l-.526.653-.516.641-.252.332-.515.653-.527.641c-.069.103-.172.23-.252.333l-.515.652a12.598 12.598 0 0 0-2.44 4.8c-.211.85-.311 1.723-.298 2.599.019.72.118 1.434.298 2.13.206.802.518 1.572.928 2.29.361.695.79 1.35 1.283 1.96a16.722 16.722 0 0 0 4.169 3.435 24.44 24.44 0 0 0 4.34 2.05c1 .368 2.021.674 3.058.917 1.065.263 2.085.458 3.23.63 4.456.638 8.99.475 13.389-.481a29.566 29.566 0 0 0 6.23-2.12 21.77 21.77 0 0 0 2.749-1.568 17.816 17.816 0 0 0 1.58-1.146 13.286 13.286 0 0 0 3.024-3.539 9.574 9.574 0 0 0 .756-8.017v.012Z" fill="url(#t)"/><path d="M13.142 48.96c-1.615 2.188-4.25 2.978-5.875 1.775-1.627-1.202-1.638-3.951 0-6.139 1.637-2.187 4.249-2.977 5.875-1.775 1.626 1.203 1.638 3.951 0 6.139Z" fill="#fff" style="mix-blend-mode:screen" opacity=".2"/><path d="M11.424 55.877a1.844 1.844 0 1 1-.825-2.806 2.107 2.107 0 0 1 .825 2.806Z" fill="#fff" style="mix-blend-mode:screen" opacity=".4"/><defs><linearGradient id="a" x1="55.702" y1="37.571" x2="13.862" y2="60.556" gradientUnits="userSpaceOnUse"><stop stop-color="#E4E7FF"/><stop offset="1" stop-color="#2137FF"/></linearGradient><linearGradient id="b" x1="31.703" y1="15.394" x2="18.915" y2="23.659" gradientUnits="userSpaceOnUse"><stop stop-color="#E4E7FF"/><stop offset="1" stop-color="#2137FF"/></linearGradient><linearGradient id="c" x1="29.404" y1="13.113" x2="25.491" y2="15.001" gradientUnits="userSpaceOnUse"><stop stop-color="#2137FF"/><stop offset="1" stop-color="#0047FF"/></linearGradient><linearGradient id="d" x1="31.306" y1="3.216" x2="26.528" y2="7.38" gradientUnits="userSpaceOnUse"><stop stop-color="#E4E7FF"/><stop offset="1" stop-color="#2137FF"/></linearGradient><linearGradient id="e" x1="38.289" y1="18.995" x2="22.212" y2="30.212" gradientUnits="userSpaceOnUse"><stop stop-color="#E4E7FF"/><stop offset="1" stop-color="#2137FF"/></linearGradient><linearGradient id="f" x1="36.841" y1="17.524" x2="32.935" y2="19.419" gradientUnits="userSpaceOnUse"><stop stop-color="#2137FF"/><stop offset="1" stop-color="#0047FF"/></linearGradient><linearGradient id="g" x1="38.754" y1="7.62" x2="33.974" y2="11.784" gradientUnits="userSpaceOnUse"><stop stop-color="#E4E7FF"/><stop offset="1" stop-color="#2137FF"/></linearGradient><linearGradient id="h" x1="45.323" y1="23.218" x2="29.726" y2="33.776" gradientUnits="userSpaceOnUse"><stop stop-color="#E4E7FF"/><stop offset="1" stop-color="#2137FF"/></linearGradient><linearGradient id="i" x1="44.2" y1="21.648" x2="40.294" y2="23.543" gradientUnits="userSpaceOnUse"><stop stop-color="#2137FF"/><stop offset="1" stop-color="#0047FF"/></linearGradient><linearGradient id="j" x1="46.114" y1="11.739" x2="41.326" y2="15.902" gradientUnits="userSpaceOnUse"><stop stop-color="#E4E7FF"/><stop offset="1" stop-color="#2137FF"/></linearGradient><linearGradient id="k" x1="53.06" y1="27.387" x2="36.78" y2="38.275" gradientUnits="userSpaceOnUse"><stop stop-color="#E4E7FF"/><stop offset="1" stop-color="#2137FF"/></linearGradient><linearGradient id="l" x1="51.821" y1="26.148" x2="47.906" y2="28.036" gradientUnits="userSpaceOnUse"><stop stop-color="#2137FF"/><stop offset="1" stop-color="#0047FF"/></linearGradient><linearGradient id="m" x1="53.737" y1="16.239" x2="48.949" y2="20.402" gradientUnits="userSpaceOnUse"><stop stop-color="#E4E7FF"/><stop offset="1" stop-color="#2137FF"/></linearGradient><linearGradient id="n" x1="53.419" y1="14.93" x2="48.233" y2="18.166" gradientUnits="userSpaceOnUse"><stop stop-color="#E4E7FF"/><stop offset="1" stop-color="#2137FF"/></linearGradient><linearGradient id="o" x1="30.994" y1="1.844" x2="25.808" y2="5.079" gradientUnits="userSpaceOnUse"><stop stop-color="#E4E7FF"/><stop offset="1" stop-color="#2137FF"/></linearGradient><linearGradient id="p" x1="38.429" y1="6.281" x2="33.236" y2="9.506" gradientUnits="userSpaceOnUse"><stop stop-color="#E4E7FF"/><stop offset="1" stop-color="#2137FF"/></linearGradient><linearGradient id="q" x1="45.787" y1="10.431" x2="40.602" y2="13.667" gradientUnits="userSpaceOnUse"><stop stop-color="#E4E7FF"/><stop offset="1" stop-color="#2137FF"/></linearGradient><linearGradient id="r" x1="30.326" y1="15.257" x2="13.089" y2="25.948" gradientUnits="userSpaceOnUse"><stop stop-color="#E4E7FF"/><stop offset="1" stop-color="#2137FF"/></linearGradient><linearGradient id="s" x1="25.58" y1="15.815" x2="24.693" y2="20.261" gradientUnits="userSpaceOnUse"><stop stop-color="#2137FF"/><stop offset="1" stop-color="#0047FF"/></linearGradient><linearGradient id="t" x1="27.269" y1="40.588" x2="23.936" y2="52.439" gradientUnits="userSpaceOnUse"><stop stop-color="#2137FF"/><stop offset="1" stop-color="#0047FF"/></linearGradient></defs></svg>