<svg width="90" height="52" viewBox="0 0 90 52" fill="none" xmlns="http://www.w3.org/2000/svg">
<g clip-path="url(#clip0_216_1663)">
<path d="M40.1758 20.6307V21.6933L43.1153 19.987C43.2333 19.9347 43.3352 19.8517 43.4102 19.7467C43.4852 19.6416 43.5307 19.5184 43.5419 19.3898V18.335L40.1758 20.6307Z" fill="#1E1A18"/>
<path d="M43.0843 17.73C42.764 17.5654 42.409 17.4795 42.0489 17.4795C41.6887 17.4795 41.3338 17.5654 41.0135 17.73L38.105 19.4363L40.1758 20.6308L43.1231 18.9245C43.6893 18.5987 43.6893 18.0635 43.0843 17.73Z" fill="#38302D"/>
<path d="M61.0396 31.1168V32.1717L62.5907 31.2487C62.7056 31.1921 62.8047 31.108 62.8791 31.0037C62.9536 30.8995 63.001 30.7785 63.0173 30.6515V29.5967L61.0396 31.1168Z" fill="#1E1A18"/>
<path d="M62.6216 28.9917C62.3009 28.833 61.9479 28.7505 61.5901 28.7505C61.2322 28.7505 60.8792 28.833 60.5585 28.9917L59.0073 29.9146L61.0782 31.1168L62.6293 30.1938C62.7541 30.1498 62.862 30.068 62.9381 29.9598C63.0141 29.8515 63.0546 29.7222 63.0537 29.59C63.0528 29.4577 63.0108 29.329 62.9333 29.2217C62.8559 29.1145 62.7469 29.0341 62.6216 28.9917Z" fill="#38302D"/>
<path d="M49.4365 9.73364V11.215C49.4383 11.2774 49.4584 11.3378 49.4942 11.3888C49.5301 11.4399 49.5801 11.4792 49.6382 11.502C49.7897 11.5784 49.9571 11.6182 50.1268 11.6182C50.2965 11.6182 50.4639 11.5784 50.6154 11.502C50.6713 11.4773 50.7199 11.4386 50.7566 11.3898C50.7933 11.3409 50.8168 11.2834 50.8248 11.2228V9.74141L49.4365 9.73364Z" fill="#1E1A18"/>
<path d="M75.124 24.563V26.0444C75.1258 26.1067 75.1459 26.1672 75.1817 26.2182C75.2176 26.2692 75.2676 26.3086 75.3257 26.3314C75.4761 26.4115 75.6439 26.4534 75.8143 26.4534C75.9847 26.4534 76.1525 26.4115 76.3029 26.3314C76.3597 26.308 76.4092 26.2697 76.446 26.2205C76.4829 26.1714 76.5058 26.1132 76.5123 26.0521V24.5708L75.124 24.563Z" fill="#1E1A18"/>
<path d="M40.897 17.1096V18.1256C40.9108 18.2504 40.9566 18.3696 41.03 18.4715C41.1033 18.5734 41.2018 18.6546 41.3158 18.7073C41.6647 18.8899 42.0581 18.9701 42.4507 18.9386C42.8432 18.907 43.2188 18.765 43.534 18.5289C43.598 18.4649 43.6482 18.3883 43.6814 18.304C43.8259 17.8221 44.0778 17.3792 44.4182 17.0088L49.9327 11.2771C50.2574 10.9758 50.6077 10.7033 50.9797 10.4627C51.0211 10.4383 51.0578 10.4068 51.0883 10.3697C51.1734 10.2852 51.2234 10.1715 51.2279 10.0517V9.03564L43.0841 16.016L40.897 17.1096Z" fill="#1E1A18"/>
<path d="M43.6736 17.3112C43.6405 17.3955 43.5903 17.472 43.5262 17.5361C43.2126 17.7723 42.8383 17.9145 42.4469 17.9461C42.0555 17.9777 41.6633 17.8974 41.3158 17.7145C40.9668 17.5128 40.8272 17.2259 40.928 16.9389C41.0207 16.7355 41.187 16.5748 41.3934 16.4891C41.9491 16.2298 42.4535 15.8725 42.8825 15.4342L48.3582 9.74915C48.6116 9.46032 48.8303 9.14274 49.0097 8.80292C49.0306 8.76575 49.0567 8.73179 49.0873 8.70209C49.3042 8.53392 49.5596 8.42244 49.8305 8.37775C50.1013 8.33307 50.379 8.35657 50.6384 8.44613C50.7243 8.47471 50.8074 8.51107 50.8866 8.55473C51.2434 8.76414 51.3365 9.08213 51.0805 9.33032C51.0501 9.36745 51.0133 9.39895 50.9719 9.42339C50.6 9.66398 50.2496 9.93648 49.9249 10.2378L44.4104 15.9694C44.0639 16.3533 43.8116 16.8128 43.6736 17.3112Z" fill="#38302D"/>
<path d="M60.3955 28.3869V29.4029C60.413 29.5286 60.461 29.648 60.5354 29.7508C60.6098 29.8535 60.7082 29.9365 60.8221 29.9924C61.2121 30.1901 61.6534 30.2632 62.0863 30.2018C62.3624 30.1729 62.628 30.0799 62.8619 29.9303C63.4202 29.5569 64.0287 29.2644 64.669 29.0617L74.4726 25.8739C75.008 25.7173 75.5518 25.5905 76.1013 25.4939C76.1626 25.4867 76.2227 25.4711 76.2797 25.4474C76.652 25.331 76.8536 25.1061 76.8536 24.8734V23.8574L60.3955 28.3869Z" fill="#1E1A18"/>
<path d="M76.714 23.5316C76.6588 23.4766 76.5961 23.4296 76.5279 23.392C76.1036 23.1735 75.6101 23.1316 75.1551 23.2757L74.9922 23.3455C74.5423 23.581 74.0757 23.7832 73.5961 23.9504L63.7228 27.1924C62.9963 27.4077 62.251 27.5531 61.4968 27.6267C61.3625 27.6424 61.2301 27.671 61.1013 27.7121C60.3257 27.968 60.124 28.5962 60.8221 29.0073C61.2116 29.2065 61.6534 29.2797 62.0863 29.2167C62.363 29.1904 62.6292 29.0973 62.8619 28.9452C63.4222 28.5703 64.0334 28.2778 64.6768 28.0766L74.4803 24.8656C75.0132 24.709 75.5543 24.5821 76.1013 24.4856C76.1626 24.4784 76.2227 24.4627 76.2797 24.439C76.8303 24.2529 77.0242 23.8496 76.714 23.5316Z" fill="#38302D"/>
<path d="M75.4497 23.105V23.8806C75.4497 23.9349 75.4497 23.9892 75.5505 24.0279C75.632 24.0701 75.7225 24.0921 75.8142 24.0921C75.906 24.0921 75.9964 24.0701 76.0779 24.0279C76.1077 24.0155 76.1335 23.9952 76.1526 23.9692C76.1717 23.9433 76.1834 23.9127 76.1865 23.8806V23.105H75.4497Z" fill="#1E1A18"/>
<path opacity="0.3" d="M75.8141 31.2022C83.6443 31.2022 89.992 27.5388 89.992 23.0197C89.992 18.5006 83.6443 14.8372 75.8141 14.8372C67.9839 14.8372 61.6362 18.5006 61.6362 23.0197C61.6362 27.5388 67.9839 31.2022 75.8141 31.2022Z" fill="#2137FF"/>
<path opacity="0.1" d="M75.7288 22.9964H61.6362C61.6362 20.91 63.0245 18.8314 65.7624 17.2415L75.7288 22.9964Z" fill="white"/>
<path opacity="0.1" d="M75.7755 23.0662L65.8169 28.8133C68.8804 30.4406 72.3072 31.2626 75.7755 31.2022V23.0662Z" fill="white"/>
<path opacity="0.1" d="M75.9072 23.0352L85.8659 28.7823C88.6115 27.1923 89.9843 25.1137 89.992 23.0352H75.9072Z" fill="white"/>
<path opacity="0.1" d="M75.853 22.9653L85.8117 17.2104C82.7469 15.5874 79.3205 14.7682 75.853 14.8294V22.9653Z" fill="white"/>
<path d="M75.3877 22.7249V23.0506C75.3922 23.0873 75.4059 23.1222 75.4276 23.152C75.4493 23.1819 75.4783 23.2057 75.5118 23.2212C75.6049 23.2708 75.7088 23.2967 75.8143 23.2967C75.9198 23.2967 76.0236 23.2708 76.1168 23.2212C76.1502 23.2057 76.1792 23.1819 76.2009 23.152C76.2226 23.1222 76.2364 23.0873 76.2408 23.0506V22.7249H75.3877Z" fill="url(#paint0_linear_216_1663)"/>
<path d="M76.1166 22.8955C76.1531 22.8844 76.1852 22.8618 76.2079 22.8311C76.2307 22.8003 76.2429 22.7631 76.2429 22.7249C76.2429 22.6866 76.2307 22.6494 76.2079 22.6187C76.1852 22.588 76.1531 22.5654 76.1166 22.5542C76.0235 22.5047 75.9196 22.4788 75.8141 22.4788C75.7086 22.4788 75.6047 22.5047 75.5116 22.5542C75.475 22.5654 75.443 22.588 75.4203 22.6187C75.3975 22.6494 75.3853 22.6866 75.3853 22.7249C75.3853 22.7631 75.3975 22.8003 75.4203 22.8311C75.443 22.8618 75.475 22.8844 75.5116 22.8955C75.6047 22.9451 75.7086 22.971 75.8141 22.971C75.9196 22.971 76.0235 22.9451 76.1166 22.8955Z" fill="#F7F5EB"/>
<path d="M49.7544 8.27563V9.05123C49.7561 9.08467 49.7672 9.11696 49.7864 9.14439C49.8056 9.17182 49.8321 9.1933 49.863 9.20636C49.9445 9.24852 50.0349 9.27053 50.1267 9.27053C50.2184 9.27053 50.3089 9.24852 50.3904 9.20636C50.4201 9.1939 50.4459 9.17361 50.465 9.14766C50.4841 9.12171 50.4959 9.09107 50.499 9.05899V8.2834L49.7544 8.27563Z" fill="#1E1A18"/>
<path opacity="0.3" d="M50.1266 16.3729C57.9568 16.3729 64.3045 12.7094 64.3045 8.19034C64.3045 3.67125 57.9568 0.0078125 50.1266 0.0078125C42.2964 0.0078125 35.9487 3.67125 35.9487 8.19034C35.9487 12.7094 42.2964 16.3729 50.1266 16.3729Z" fill="#2137FF"/>
<path opacity="0.1" d="M50.0646 8.15927H35.9487C35.9487 6.08067 37.337 4.00208 40.0749 2.41211L50.0646 8.15927Z" fill="white"/>
<path opacity="0.1" d="M50.0648 8.23682L40.1294 14.0072C43.1894 15.6191 46.6067 16.4328 50.0648 16.3728V8.23682Z" fill="white"/>
<path opacity="0.1" d="M50.2197 8.20581L60.1473 13.953C62.8852 12.363 64.2657 10.2844 64.2735 8.20581H50.2197Z" fill="white"/>
<path opacity="0.1" d="M50.1655 8.12817L60.1474 2.37325C57.0834 0.748324 53.6565 -0.0710313 50.1888 -0.00783275L50.1655 8.12817Z" fill="white"/>
<path d="M49.7002 7.8877V8.21346C49.7041 8.25125 49.7176 8.28745 49.7393 8.31864C49.761 8.34984 49.7902 8.37502 49.8243 8.39185C49.9185 8.43778 50.022 8.46165 50.1268 8.46165C50.2316 8.46165 50.335 8.43778 50.4293 8.39185C50.4627 8.3763 50.4917 8.35247 50.5134 8.32262C50.5351 8.29276 50.5489 8.25786 50.5533 8.22122V7.89546L49.7002 7.8877Z" fill="url(#paint1_linear_216_1663)"/>
<path d="M50.4293 8.06604C50.5921 7.97297 50.5921 7.81787 50.4293 7.71704C50.335 7.67111 50.2316 7.64722 50.1268 7.64722C50.022 7.64722 49.9185 7.67111 49.8243 7.71704C49.6614 7.81787 49.6614 7.97297 49.8243 8.06604C49.9185 8.11198 50.022 8.13585 50.1268 8.13585C50.2316 8.13585 50.335 8.11198 50.4293 8.06604Z" fill="#F7F5EB"/>
<path d="M32.6682 24.2914L29.752 22.6084V26.4321C29.7541 26.59 29.7975 26.7446 29.8778 26.8807C29.958 27.0167 30.0724 27.1294 30.2096 27.2077L32.6682 28.627C33.5446 29.1312 37.2287 30.3643 38.0974 30.8685V26.5174C37.2287 26.0288 33.5446 24.7956 32.6682 24.2914Z" fill="#171552"/>
<path d="M38.1049 26.5408L38.0894 30.8919L43.6891 34.1261L43.7047 29.7672L38.1049 26.5408Z" fill="#171552"/>
<path d="M32.668 24.2915V28.6426C33.5444 29.1467 37.2285 30.3799 38.0971 30.8841V26.533C37.2285 26.0288 33.5444 24.7956 32.668 24.2915Z" fill="#231889"/>
<path d="M43.7045 29.7673L43.689 34.1262L45.2169 35.9643L45.2324 31.6132L43.7045 29.7673Z" fill="#BCB8B1"/>
<path d="M63.2887 34.5061L59.3642 36.8329C57.813 37.5387 56.4324 37.9575 55.8585 37.7714L54.4547 39.8112L53.7954 42.0061C54.3694 42.1922 55.7266 41.7734 57.3011 41.0676L61.2256 38.7409C61.4122 38.6009 61.5909 38.4508 61.7608 38.291C62.3751 37.6967 62.8793 36.9982 63.2499 36.2279L64.708 33.2341C64.285 33.7109 63.8088 34.1376 63.2887 34.5061Z" fill="url(#paint2_linear_216_1663)"/>
<path d="M50.0646 34.9483C48.3472 34.0041 46.7397 32.8726 45.2714 31.5745L43.7202 29.7363V35.1655L45.2714 37.0036C45.9107 37.6011 46.5953 38.1483 47.319 38.6402C49.0083 39.8173 50.8306 40.7909 52.7481 41.5409C53.1204 41.6882 53.5237 41.8356 53.865 41.9597L55.9281 37.7249C53.8936 36.9787 51.931 36.0494 50.0646 34.9483Z" fill="#231889"/>
<path d="M50.7934 33.2884C49.1262 32.3816 47.5654 31.2916 46.1399 30.0387L44.6662 28.2471L38.8725 24.8655C37.8565 24.2838 34.1724 23.0506 33.4434 22.6163L30.8451 21.1194L29.2939 22.3603L32.66 24.3071C33.5364 24.8112 37.2205 26.0444 38.0892 26.5485L43.6812 29.7828L45.2324 31.6209C46.7152 32.9052 48.3357 34.0211 50.0644 34.9482C51.9215 36.0423 53.8735 36.9664 55.8968 37.7093L56.6026 36.9958L56.432 35.9177C54.4757 35.2163 52.5882 34.3361 50.7934 33.2884Z" fill="url(#paint3_linear_216_1663)"/>
<path d="M64.8942 32.4741L63.9712 31.5511C63.9712 31.4503 63.5524 32.032 62.42 32.8774L58.542 35.1111C57.3399 35.6463 56.4247 35.8867 56.3316 35.941C56.2385 35.9953 55.8042 37.7404 55.8042 37.7404C55.8839 37.7529 55.965 37.7529 56.0446 37.7404C57.2053 37.653 58.3367 37.3339 59.3719 36.8019L63.2964 34.4751C64.5064 33.591 65.2199 32.8076 64.8942 32.4741Z" fill="white"/>
<path d="M59.3716 28.3091C57.6008 27.2564 55.7398 26.3635 53.8106 25.6411L50.3204 24.6405L44.7284 21.4063C43.7356 20.8246 41.5872 18.6917 40.8504 18.2652L38.2521 16.7605L30.8452 21.0806L33.4435 22.5775C34.1803 23.0118 37.8643 24.245 38.8726 24.8267L44.6973 28.2238L46.171 30.0154C47.5965 31.2683 49.1574 32.3583 50.8245 33.2652C52.6039 34.3148 54.4726 35.2051 56.4088 35.9255C56.4088 35.8867 57.3706 35.6462 58.627 35.0878L62.505 32.8541C63.5365 32.0785 63.9554 31.5201 64.0562 31.5201C62.6184 30.2796 61.0472 29.2027 59.3716 28.3091Z" fill="white"/>
<path d="M32.668 24.2915L29.3019 22.3447V22.9032C29.3 22.9663 29.3157 23.0288 29.3472 23.0835C29.3787 23.1383 29.4248 23.1833 29.4803 23.2134L32.668 25.0593C33.5444 25.5634 37.2285 26.7967 38.0972 27.3008V26.5252C37.2285 26.0288 33.5444 24.7956 32.668 24.2915Z" fill="#231889"/>
<path d="M38.1049 26.5408L38.0894 27.3009L38.7331 27.6809L41.7036 34.0408L43.6891 35.1886L43.7047 29.7672L38.1049 26.5408Z" fill="url(#paint4_linear_216_1663)"/>
<path d="M32.668 24.2915V25.0671C33.5444 25.5712 37.2285 26.8044 38.0971 27.3086V26.533C37.2285 26.0288 33.5444 24.7956 32.668 24.2915Z" fill="#231889"/>
<path d="M43.7045 29.7673L43.689 35.1887L45.2169 37.0269L45.2324 31.6132L43.7045 29.7673Z" fill="#231889"/>
<path d="M40.8195 20.1034L36.6701 22.5L33.2729 20.5455L37.4301 18.1411L40.8195 20.1034Z" fill="#231889"/>
<path d="M37.8337 18.6608L34.2039 20.7549L33.8394 20.5377L37.4691 18.4436L37.8337 18.6608ZM38.0741 18.7926L34.4443 20.8867L34.8088 21.1039L38.4386 19.0098L38.0741 18.7926ZM38.6791 19.1494L35.0493 21.2435L35.4138 21.4529L39.0436 19.3588L38.6791 19.1494ZM39.284 19.4984L35.6542 21.5925L36.0265 21.8019L39.6486 19.7078L39.284 19.4984ZM39.889 19.8474L36.2592 21.9415L36.6315 22.1509L40.2535 20.0568L39.889 19.8474Z" fill="#171552"/>
<path d="M47.2646 38.6556C48.9539 39.8328 50.7762 40.8064 52.6938 41.5563L53.1204 41.727L55.0283 38.0041C53.152 37.2724 51.3366 36.3932 49.5992 35.3749C48.3272 34.6458 46.7915 33.6686 45.853 32.9783V37.5698C46.2486 37.9188 46.7294 38.2833 47.2646 38.6556Z" fill="#171552"/>
<path d="M56.6803 29.9612C56.819 30.0092 56.9393 30.0992 57.0244 30.2188C57.1096 30.3383 57.1553 30.4814 57.1553 30.6282C57.1553 30.775 57.1096 30.9181 57.0244 31.0376C56.9393 31.1572 56.819 31.2472 56.6803 31.2952C56.3208 31.4815 55.9218 31.5787 55.5169 31.5787C55.112 31.5787 54.713 31.4815 54.3535 31.2952C54.2148 31.2472 54.0945 31.1572 54.0093 31.0376C53.9242 30.9181 53.8784 30.775 53.8784 30.6282C53.8784 30.4814 53.9242 30.3383 54.0093 30.2188C54.0945 30.0992 54.2148 30.0092 54.3535 29.9612C54.7143 29.7792 55.1128 29.6843 55.5169 29.6843C55.921 29.6843 56.3195 29.7792 56.6803 29.9612Z" fill="url(#paint5_linear_216_1663)"/>
<path d="M26.6572 26.4167V27.4715C26.6731 27.6007 26.7211 27.7238 26.797 27.8296C26.8729 27.9353 26.9742 28.0202 27.0916 28.0765C27.4111 28.2393 27.7645 28.3241 28.1231 28.3241C28.4817 28.3241 28.8351 28.2393 29.1546 28.0765L32.1019 26.3702V25.3076L26.6572 26.4167Z" fill="#1E1A18"/>
<path d="M30.0309 24.0898L27.0836 25.7962C26.9577 25.8373 26.8479 25.9172 26.7701 26.0245C26.6923 26.1317 26.6504 26.2608 26.6504 26.3934C26.6504 26.5259 26.6923 26.655 26.7701 26.7623C26.8479 26.8695 26.9577 26.9494 27.0836 26.9906C27.4039 27.1552 27.7589 27.2411 28.1191 27.2411C28.4792 27.2411 28.8342 27.1552 29.1545 26.9906L32.094 25.2843L30.0309 24.0898Z" fill="#38302D"/>
<path d="M46.1865 37.6706V38.7254C46.1946 38.8558 46.2388 38.9815 46.3141 39.0883C46.3895 39.1951 46.493 39.2789 46.6131 39.3304C46.9334 39.495 47.2884 39.5809 47.6485 39.5809C48.0087 39.5809 48.3636 39.495 48.6839 39.3304L51.1814 37.88V36.8252L46.1865 37.6706Z" fill="#1E1A18"/>
<path d="M49.064 35.6462L46.5976 37.0733C46.4726 37.1165 46.3642 37.1977 46.2874 37.3054C46.2107 37.4131 46.1694 37.5422 46.1694 37.6744C46.1694 37.8067 46.2107 37.9357 46.2874 38.0434C46.3642 38.1512 46.4726 38.2323 46.5976 38.2755C46.9194 38.4354 47.2738 38.5186 47.6331 38.5186C47.9923 38.5186 48.3467 38.4354 48.6685 38.2755L51.1736 36.8252L49.064 35.6462Z" fill="#38302D"/>
<path d="M39.2061 45.3179V46.807C39.2136 46.8687 39.2368 46.9275 39.2734 46.9777C39.3101 47.028 39.359 47.068 39.4155 47.094C39.567 47.1704 39.7344 47.2101 39.9041 47.2101C40.0738 47.2101 40.2412 47.1704 40.3927 47.094C40.4496 47.0686 40.4989 47.0288 40.5357 46.9784C40.5724 46.9281 40.5953 46.869 40.6021 46.807V45.3256L39.2061 45.3179Z" fill="#1E1A18"/>
<path d="M13.48 30.4885V31.9699C13.4852 32.0324 13.5075 32.0922 13.5444 32.1428C13.5813 32.1934 13.6315 32.2329 13.6894 32.2569C13.8398 32.337 14.0076 32.3789 14.178 32.3789C14.3484 32.3789 14.5162 32.337 14.6666 32.2569C14.7225 32.2331 14.7708 32.1945 14.8063 32.1453C14.8418 32.0961 14.8633 32.0382 14.8683 31.9777V30.4963L13.48 30.4885Z" fill="#1E1A18"/>
<path d="M13.1309 29.8603V30.8763C13.1363 30.9998 13.1891 31.1165 13.2782 31.2021C13.3335 31.257 13.3961 31.304 13.4644 31.3417C13.8871 31.5572 14.378 31.5962 14.8294 31.4502C14.8859 31.4357 14.9405 31.4149 14.9923 31.3882C15.4435 31.1554 15.9099 30.9533 16.3884 30.7832L26.2694 27.5645C26.9962 27.3519 27.7415 27.209 28.4954 27.1379C28.6295 27.1215 28.7619 27.0929 28.8909 27.0526C29.3408 26.9053 29.5967 26.6338 29.5967 26.3468V25.3308L13.1309 29.8603Z" fill="#1E1A18"/>
<path d="M29.178 24.7414C28.7867 24.5391 28.3415 24.4658 27.906 24.532C27.6288 24.5561 27.3621 24.6494 27.1304 24.8035C26.5701 25.1707 25.9585 25.453 25.3155 25.6411L15.5197 28.8366C15.0001 28.9994 14.4417 29.1002 13.891 29.2166C13.8297 29.2238 13.7696 29.2395 13.7126 29.2631C13.1619 29.4415 12.937 29.8448 13.2783 30.1628C13.3348 30.2197 13.4003 30.2669 13.4722 30.3024C13.6813 30.4096 13.9096 30.4743 14.1439 30.4929C14.3781 30.5116 14.6138 30.4837 14.8372 30.411L15.0001 30.349C15.45 30.1134 15.9166 29.9112 16.3962 29.744L26.2695 26.5253C26.9987 26.3119 27.7467 26.1691 28.5032 26.0987C28.6357 26.0833 28.7659 26.0521 28.891 26.0056C29.6743 25.7807 29.8993 25.1525 29.178 24.7414Z" fill="#38302D"/>
<path d="M38.7642 44.6588V45.6749C38.7744 45.7768 38.8113 45.8742 38.8712 45.9573C38.9311 46.0404 39.0119 46.1062 39.1054 46.148C39.1847 46.1916 39.2678 46.228 39.3536 46.2566C39.6133 46.3447 39.8907 46.3675 40.1613 46.3229C40.4318 46.2782 40.6872 46.1675 40.9048 46.0006C40.9331 45.9689 40.959 45.9352 40.9824 45.8998C41.1572 45.5591 41.3734 45.2413 41.6261 44.9536L47.1096 39.2685C47.5385 38.8302 48.043 38.4729 48.5987 38.2136C48.8051 38.1279 48.9714 37.9672 49.0641 37.7638C49.0758 37.7075 49.0758 37.6494 49.0641 37.5932V36.5771L38.7642 44.6588Z" fill="#1E1A18"/>
<path d="M40.9827 44.8837C40.9619 44.9208 40.9357 44.9548 40.9052 44.9845C40.6876 45.1514 40.4322 45.2621 40.1616 45.3068C39.8911 45.3514 39.6136 45.3286 39.354 45.2404C39.2681 45.2119 39.185 45.1755 39.1058 45.1319C38.749 44.9225 38.6559 44.6045 38.9119 44.3563L39.0205 44.2632C39.3927 44.0376 39.7432 43.7779 40.0675 43.4876L45.582 37.756C45.9364 37.3893 46.2017 36.9462 46.3576 36.4607C46.3907 36.3764 46.4409 36.2999 46.505 36.2358C46.8194 35.998 47.1951 35.8549 47.5881 35.8233C47.981 35.7917 48.3748 35.8729 48.7232 36.0574C49.0644 36.2591 49.2118 36.5383 49.111 36.833C49.0127 37.0352 48.8447 37.195 48.6378 37.2829C48.0821 37.5421 47.5777 37.8994 47.1487 38.3377L41.673 44.0228C41.4096 44.2814 41.1779 44.5703 40.9827 44.8837Z" fill="#38302D"/>
<path d="M39.4932 43.8599V44.6355C39.4972 44.6682 39.5092 44.6995 39.5281 44.7266C39.5471 44.7536 39.5723 44.7756 39.6017 44.7906C39.6844 44.8288 39.7744 44.8486 39.8654 44.8486C39.9565 44.8486 40.0465 44.8288 40.1292 44.7906C40.1586 44.7756 40.1839 44.7536 40.2028 44.7266C40.2217 44.6995 40.2337 44.6682 40.2377 44.6355V43.8599H39.4932Z" fill="#1E1A18"/>
<path opacity="0.3" d="M39.8654 51.9571C47.6956 51.9571 54.0432 48.2936 54.0432 43.7746C54.0432 39.2555 47.6956 35.592 39.8654 35.592C32.0352 35.592 25.6875 39.2555 25.6875 43.7746C25.6875 48.2936 32.0352 51.9571 39.8654 51.9571Z" fill="#2137FF"/>
<path opacity="0.1" d="M39.7723 43.7513H25.6875C25.6875 41.6649 27.0758 39.5941 29.8137 37.9963L39.7723 43.7513Z" fill="white"/>
<path opacity="0.1" d="M39.8265 43.821L29.8989 49.5759C32.9644 51.197 36.3903 52.0162 39.8576 51.957L39.8265 43.821Z" fill="white"/>
<path opacity="0.1" d="M39.9819 43.79L49.9406 49.545C52.6784 47.9472 54.059 45.8686 54.0667 43.79H39.9819Z" fill="white"/>
<path opacity="0.1" d="M39.9043 43.7203L49.8629 37.9654C46.7974 36.3443 43.3716 35.5252 39.9043 35.5843V43.7203Z" fill="white"/>
<path d="M39.439 43.4797V43.8055C39.4419 43.8426 39.455 43.8782 39.4769 43.9083C39.4988 43.9384 39.5286 43.9619 39.5631 43.9761C39.6562 44.0257 39.7601 44.0516 39.8655 44.0516C39.971 44.0516 40.0749 44.0257 40.168 43.9761C40.2015 43.9606 40.2305 43.9368 40.2522 43.9069C40.2739 43.877 40.2876 43.8421 40.2921 43.8055V43.4797H39.439Z" fill="url(#paint6_linear_216_1663)"/>
<path d="M40.1678 43.6504C40.2044 43.6392 40.2364 43.6166 40.2592 43.5859C40.2819 43.5552 40.2942 43.518 40.2942 43.4798C40.2942 43.4415 40.2819 43.4043 40.2592 43.3736C40.2364 43.3429 40.2044 43.3203 40.1678 43.3091C40.0747 43.2596 39.9709 43.2336 39.8654 43.2336C39.7599 43.2336 39.656 43.2596 39.5629 43.3091C39.5263 43.3203 39.4943 43.3429 39.4716 43.3736C39.4488 43.4043 39.4365 43.4415 39.4365 43.4798C39.4365 43.518 39.4488 43.5552 39.4716 43.5859C39.4943 43.6166 39.5263 43.6392 39.5629 43.6504C39.656 43.7 39.7599 43.7259 39.8654 43.7259C39.9709 43.7259 40.0747 43.7 40.1678 43.6504Z" fill="#F7F5EB"/>
<path d="M13.8057 29.0305V29.8061C13.8088 29.8382 13.8205 29.8688 13.8396 29.8948C13.8587 29.9207 13.8845 29.941 13.9142 29.9535C13.9958 29.9956 14.0862 30.0176 14.1779 30.0176C14.2697 30.0176 14.3601 29.9956 14.4417 29.9535C14.4701 29.9392 14.4948 29.9184 14.5136 29.8928C14.5325 29.8672 14.545 29.8375 14.5502 29.8061V29.0305H13.8057Z" fill="#1E1A18"/>
<path opacity="0.3" d="M24.1985 34.7233C29.744 31.5279 29.744 26.3469 24.1985 23.1515C18.653 19.956 9.69488 19.956 4.14938 23.1515C-1.39612 26.3469 -1.38836 31.5279 4.14938 34.7233C9.68713 37.9188 18.6608 37.9265 24.1985 34.7233Z" fill="#2137FF"/>
<path opacity="0.1" d="M14.0848 28.9142H0C0 26.8356 1.38831 24.757 4.12616 23.167L14.0848 28.9142Z" fill="white"/>
<path opacity="0.1" d="M14.1388 28.9917L4.18018 34.7389C7.24499 36.3626 10.6709 37.1844 14.1388 37.1277V28.9917Z" fill="white"/>
<path opacity="0.1" d="M14.271 28.9607L24.2296 34.7079C26.9675 33.1179 28.348 31.0703 28.348 28.9607H14.271Z" fill="white"/>
<path opacity="0.1" d="M14.2168 28.8831L24.1754 23.1359C21.1114 21.511 17.6845 20.6917 14.2168 20.7549V28.8831Z" fill="white"/>
<path d="M13.7515 28.6426V28.9683C13.753 29.0068 13.7654 29.0441 13.7874 29.0757C13.8094 29.1073 13.84 29.1319 13.8756 29.1467C13.9698 29.1926 14.0732 29.2165 14.178 29.2165C14.2829 29.2165 14.3863 29.1926 14.4805 29.1467C14.514 29.1312 14.543 29.1073 14.5647 29.0775C14.5864 29.0476 14.6001 29.0127 14.6046 28.9761V28.6503L13.7515 28.6426Z" fill="url(#paint7_linear_216_1663)"/>
<path d="M14.4805 28.8209C14.6434 28.7279 14.6434 28.5727 14.4805 28.4719C14.3863 28.426 14.2829 28.4021 14.1781 28.4021C14.0732 28.4021 13.9698 28.426 13.8756 28.4719C13.7127 28.5727 13.7127 28.7279 13.8756 28.8209C13.9698 28.8669 14.0732 28.8907 14.1781 28.8907C14.2829 28.8907 14.3863 28.8669 14.4805 28.8209Z" fill="#F7F5EB"/>
</g>
<defs>
<linearGradient id="paint0_linear_216_1663" x1="75.3877" y1="23.0118" x2="76.2408" y2="23.0118" gradientUnits="userSpaceOnUse">
<stop stop-color="#D6D2CC"/>
<stop offset="1" stop-color="#EEEBE2"/>
</linearGradient>
<linearGradient id="paint1_linear_216_1663" x1="49.7002" y1="8.17467" x2="50.5533" y2="8.17467" gradientUnits="userSpaceOnUse">
<stop stop-color="#D6D2CC"/>
<stop offset="1" stop-color="#EEEBE2"/>
</linearGradient>
<linearGradient id="paint2_linear_216_1663" x1="60.0266" y1="33.2341" x2="58.6978" y2="36.7976" gradientUnits="userSpaceOnUse">
<stop stop-color="#2137FF"/>
<stop offset="1" stop-color="#0047FF"/>
</linearGradient>
<linearGradient id="paint3_linear_216_1663" x1="51.6977" y1="28.4727" x2="26.1081" y2="41.8608" gradientUnits="userSpaceOnUse">
<stop stop-color="#E4E7FF"/>
<stop offset="1" stop-color="#2137FF"/>
</linearGradient>
<linearGradient id="paint4_linear_216_1663" x1="41.2958" y1="26.5408" x2="39.4156" y2="29.1857" gradientUnits="userSpaceOnUse">
<stop stop-color="#2137FF"/>
<stop offset="1" stop-color="#0047FF"/>
</linearGradient>
<linearGradient id="paint5_linear_216_1663" x1="53.8881" y1="30.6282" x2="57.1534" y2="30.6282" gradientUnits="userSpaceOnUse">
<stop offset="0.53" stop-color="#E8E4DD"/>
<stop offset="0.54" stop-color="#F5F2E9"/>
</linearGradient>
<linearGradient id="paint6_linear_216_1663" x1="39.439" y1="43.7667" x2="40.2921" y2="43.7667" gradientUnits="userSpaceOnUse">
<stop stop-color="#D6D2CC"/>
<stop offset="1" stop-color="#EEEBE2"/>
</linearGradient>
<linearGradient id="paint7_linear_216_1663" x1="13.7515" y1="28.9295" x2="14.6046" y2="28.9295" gradientUnits="userSpaceOnUse">
<stop stop-color="#D6D2CC"/>
<stop offset="1" stop-color="#EEEBE2"/>
</linearGradient>
<clipPath id="clip0_216_1663">
<rect width="90" height="51.9571" fill="white"/>
</clipPath>
</defs>
</svg>
