<svg width="90" height="52" fill="none" xmlns="http://www.w3.org/2000/svg"><g clip-path="url(#a)"><path d="M40.176 20.63v1.063l2.94-1.706a.722.722 0 0 0 .426-.597v-1.055l-3.366 2.296Z" fill="#1E1A18"/><path d="M43.084 17.73a2.265 2.265 0 0 0-2.07 0l-2.909 1.706 2.07 1.195 2.948-1.707c.566-.325.566-.86-.039-1.194Z" fill="#38302D"/><path d="M61.04 31.117v1.055l1.55-.923a.775.775 0 0 0 .427-.598v-1.054l-1.977 1.52Z" fill="#1E1A18"/><path d="M62.622 28.992a2.326 2.326 0 0 0-2.063 0l-1.552.923 2.071 1.202 1.551-.923a.636.636 0 0 0-.007-1.202Z" fill="#38302D"/><path d="M49.437 9.734v1.481a.318.318 0 0 0 .201.287 1.085 1.085 0 0 0 .977 0 .358.358 0 0 0 .21-.28v-1.48l-1.389-.008Zm25.687 14.829v1.481a.319.319 0 0 0 .202.287 1.04 1.04 0 0 0 .977 0 .34.34 0 0 0 .21-.279v-1.481l-1.389-.008Z" fill="#1E1A18"/><path d="M40.897 17.11v1.016a.729.729 0 0 0 .419.581 2.087 2.087 0 0 0 2.218-.178.66.66 0 0 0 .147-.225c.145-.482.397-.925.737-1.295l5.515-5.732a7.636 7.636 0 0 1 1.047-.814.41.41 0 0 0 .108-.093.473.473 0 0 0 .14-.318V9.036l-8.144 6.98-2.187 1.094Z" fill="#1E1A18"/><path d="M43.674 17.311a.658.658 0 0 1-.148.225 2.07 2.07 0 0 1-2.21.178c-.35-.201-.489-.488-.388-.775a.884.884 0 0 1 .465-.45 5.103 5.103 0 0 0 1.49-1.055l5.475-5.685c.254-.289.472-.606.652-.946a.443.443 0 0 1 .077-.1 1.652 1.652 0 0 1 1.8-.148c.356.21.45.527.194.775a.41.41 0 0 1-.11.093 7.64 7.64 0 0 0-1.046.815l-5.515 5.731a3.328 3.328 0 0 0-.736 1.342Z" fill="#38302D"/><path d="M60.395 28.387v1.016a.776.776 0 0 0 .427.59c.39.197.831.27 1.264.209.276-.03.542-.122.776-.272a7.112 7.112 0 0 1 1.807-.868l9.804-3.188a14.897 14.897 0 0 1 1.628-.38.668.668 0 0 0 .179-.047c.372-.116.574-.34.574-.574v-1.016l-16.459 4.53Z" fill="#1E1A18"/><path d="M76.714 23.532a.835.835 0 0 0-.186-.14 1.807 1.807 0 0 0-1.373-.116l-.163.07c-.45.235-.916.437-1.396.604l-9.873 3.242a11.89 11.89 0 0 1-2.226.435 2.105 2.105 0 0 0-.396.085c-.775.256-.977.884-.279 1.295.39.2.831.273 1.264.21.277-.027.543-.12.776-.272a7.044 7.044 0 0 1 1.815-.868l9.803-3.211a14.98 14.98 0 0 1 1.621-.38.668.668 0 0 0 .179-.047c.55-.186.744-.59.434-.907Z" fill="#38302D"/><path d="M75.45 23.105v.776c0 .054 0 .108.1.147a.574.574 0 0 0 .528 0 .177.177 0 0 0 .108-.147v-.776h-.736Z" fill="#1E1A18"/><path opacity=".3" d="M75.814 31.202c7.83 0 14.178-3.663 14.178-8.182 0-4.52-6.348-8.183-14.178-8.183-7.83 0-14.178 3.664-14.178 8.183s6.348 8.182 14.178 8.182Z" fill="#2137FF"/><path opacity=".1" d="M75.729 22.996H61.636c0-2.086 1.389-4.165 4.126-5.755l9.967 5.755Zm.046.07-9.958 5.747a20.469 20.469 0 0 0 9.959 2.39v-8.137Zm.132-.031 9.959 5.747c2.746-1.59 4.118-3.668 4.126-5.747H75.907Zm-.054-.07 9.959-5.755a20.506 20.506 0 0 0-9.959-2.38v8.135Z" fill="#fff"/><path d="M75.388 22.725v.326a.217.217 0 0 0 .124.17.643.643 0 0 0 .605 0 .217.217 0 0 0 .124-.17v-.326h-.853Z" fill="url(#b)"/><path d="M76.117 22.895a.178.178 0 0 0 0-.34.644.644 0 0 0-.605 0 .178.178 0 0 0 0 .34.643.643 0 0 0 .605 0Z" fill="#F7F5EB"/><path d="M49.754 8.276v.775a.178.178 0 0 0 .109.155.574.574 0 0 0 .527 0 .178.178 0 0 0 .109-.147v-.776l-.745-.007Z" fill="#1E1A18"/><path opacity=".3" d="M50.127 16.373c7.83 0 14.178-3.664 14.178-8.183S57.957.008 50.127.008c-7.83 0-14.178 3.663-14.178 8.182 0 4.52 6.347 8.183 14.178 8.183Z" fill="#2137FF"/><path opacity=".1" d="M50.065 8.16H35.949c0-2.08 1.388-4.158 4.126-5.748l9.99 5.747Zm0 .077-9.936 5.77a20.553 20.553 0 0 0 9.936 2.366V8.237Zm.155-.031 9.927 5.747c2.738-1.59 4.119-3.669 4.127-5.747H50.22Zm-.054-.078 9.981-5.755a20.46 20.46 0 0 0-9.958-2.38l-.023 8.135Z" fill="#fff"/><path d="M49.7 7.888v.325a.225.225 0 0 0 .124.179.69.69 0 0 0 .605 0 .218.218 0 0 0 .124-.17v-.327l-.853-.007Z" fill="url(#c)"/><path d="M50.43 8.066c.162-.093.162-.248 0-.349a.69.69 0 0 0-.606 0c-.163.1-.163.256 0 .349a.69.69 0 0 0 .605 0Z" fill="#F7F5EB"/><path d="m32.668 24.291-2.916-1.683v3.824a.907.907 0 0 0 .458.776l2.458 1.419c.877.504 4.56 1.737 5.43 2.242v-4.352c-.87-.488-4.553-1.721-5.43-2.226Z" fill="#171552"/><path d="m38.105 26.54-.016 4.352 5.6 3.234.016-4.359-5.6-3.226Z" fill="#171552"/><path d="M32.668 24.291v4.352c.876.504 4.56 1.737 5.43 2.241v-4.351c-.87-.504-4.554-1.737-5.43-2.242Z" fill="#231889"/><path d="m43.705 29.767-.016 4.36 1.528 1.837.015-4.35-1.527-1.847Z" fill="#BCB8B1"/><path d="m63.289 34.506-3.925 2.327c-1.551.706-2.932 1.125-3.505.938l-1.404 2.04-.66 2.195c.574.186 1.932-.233 3.506-.938l3.925-2.327c.186-.14.365-.29.535-.45a7.235 7.235 0 0 0 1.489-2.063l1.458-2.994a8.33 8.33 0 0 1-1.42 1.272Z" fill="url(#d)"/><path d="M50.065 34.948a26.544 26.544 0 0 1-4.794-3.373l-1.55-1.839v5.43l1.55 1.838c.64.597 1.324 1.144 2.048 1.636a26.172 26.172 0 0 0 5.43 2.9c.371.148.775.296 1.116.42l2.063-4.235a35.801 35.801 0 0 1-5.863-2.777Z" fill="#231889"/><path d="M50.793 33.288a25.517 25.517 0 0 1-4.653-3.25l-1.474-1.79-5.793-3.383c-1.017-.581-4.7-1.814-5.43-2.249l-2.598-1.497-1.551 1.241 3.366 1.947c.876.504 4.56 1.737 5.43 2.242l5.591 3.234 1.551 1.838a26.538 26.538 0 0 0 4.832 3.327 35.797 35.797 0 0 0 5.833 2.761l.706-.713-.171-1.078a33.838 33.838 0 0 1-5.639-2.63Z" fill="url(#e)"/><path d="m64.894 32.474-.923-.923c0-.1-.419.481-1.551 1.326l-3.878 2.234c-1.202.535-2.117.776-2.21.83-.093.054-.528 1.8-.528 1.8.08.012.161.012.24 0a8.71 8.71 0 0 0 3.328-.94l3.924-2.326c1.21-.884 1.924-1.667 1.598-2Z" fill="#fff"/><path d="M59.372 28.31a34.686 34.686 0 0 0-5.561-2.669l-3.49-1-5.593-3.235c-.992-.581-3.14-2.714-3.878-3.14l-2.598-1.505-7.407 4.32 2.599 1.497c.736.434 4.42 1.667 5.429 2.249l5.824 3.397 1.474 1.791a25.526 25.526 0 0 0 4.654 3.25 35.045 35.045 0 0 0 5.584 2.66c0-.038.962-.279 2.218-.837l3.878-2.234c1.031-.776 1.45-1.334 1.551-1.334a25.643 25.643 0 0 0-4.684-3.21Z" fill="#fff"/><path d="m32.668 24.291-3.366-1.946v.558a.341.341 0 0 0 .178.31l3.188 1.846c.876.504 4.56 1.738 5.43 2.242v-.776c-.87-.496-4.554-1.73-5.43-2.233Z" fill="#231889"/><path d="m38.105 26.54-.016.76.644.38 2.97 6.36 1.986 1.149.016-5.422-5.6-3.226Z" fill="url(#f)"/><path d="M32.668 24.291v.776c.876.504 4.56 1.737 5.43 2.242v-.776c-.87-.504-4.554-1.737-5.43-2.242Zm11.037 5.476-.016 5.422 1.528 1.838.015-5.414-1.527-1.846Zm-2.885-9.664L36.67 22.5l-3.397-1.954 4.157-2.405 3.39 1.962Z" fill="#231889"/><path d="m37.834 18.66-3.63 2.095-.365-.217 3.63-2.094.365.217Zm.24.133-3.63 2.094.365.217 3.63-2.094-.365-.217Zm.605.356-3.63 2.095.365.209 3.63-2.094-.365-.21Zm.605.35-3.63 2.094.372.209 3.623-2.094-.365-.21Zm.605.348-3.63 2.095.373.209 3.622-2.094-.365-.21Zm7.376 18.809a26.161 26.161 0 0 0 5.429 2.9l.426.171 1.908-3.723a38.144 38.144 0 0 1-5.429-2.63c-1.272-.728-2.807-1.705-3.746-2.396v4.592c.396.349.876.713 1.412 1.086Z" fill="#171552"/><path d="M56.68 29.961a.705.705 0 0 1 0 1.334 2.529 2.529 0 0 1-2.327 0 .706.706 0 0 1 0-1.334 2.583 2.583 0 0 1 2.327 0Z" fill="url(#g)"/><path d="M26.657 26.417v1.054a.777.777 0 0 0 .435.605 2.272 2.272 0 0 0 2.063 0l2.947-1.706v-1.062l-5.445 1.109Z" fill="#1E1A18"/><path d="m30.03 24.09-2.946 1.706a.628.628 0 0 0 0 1.195 2.266 2.266 0 0 0 2.07 0l2.94-1.707-2.063-1.194Z" fill="#38302D"/><path d="M46.187 37.67v1.055a.706.706 0 0 0 .426.605 2.265 2.265 0 0 0 2.07 0l2.498-1.45v-1.055l-4.994.846Z" fill="#1E1A18"/><path d="m49.064 35.646-2.466 1.427a.636.636 0 0 0 0 1.203 2.327 2.327 0 0 0 2.07 0l2.506-1.45-2.11-1.18Z" fill="#38302D"/><path d="M39.206 45.318v1.489a.365.365 0 0 0 .21.287 1.085 1.085 0 0 0 .977 0 .357.357 0 0 0 .21-.287v-1.481l-1.397-.008ZM13.48 30.488v1.482a.341.341 0 0 0 .21.287 1.04 1.04 0 0 0 .977 0 .333.333 0 0 0 .201-.28v-1.48l-1.388-.009Z" fill="#1E1A18"/><path d="M13.13 29.86v1.016a.49.49 0 0 0 .148.326.841.841 0 0 0 .186.14c.423.215.914.254 1.365.108a.777.777 0 0 0 .163-.062 11.27 11.27 0 0 1 1.396-.605l9.881-3.219a11.912 11.912 0 0 1 2.226-.426c.134-.017.267-.045.396-.085.45-.148.706-.42.706-.706V25.33L13.13 29.86Z" fill="#1E1A18"/><path d="M29.178 24.741a2.087 2.087 0 0 0-1.272-.209 1.66 1.66 0 0 0-.776.271c-.56.368-1.171.65-1.814.838l-9.796 3.196c-.52.162-1.078.263-1.629.38a.671.671 0 0 0-.178.046c-.551.178-.776.582-.435.9a.727.727 0 0 0 .194.14 1.781 1.781 0 0 0 1.365.108l.163-.062c.45-.236.917-.438 1.396-.605l9.873-3.219a11.89 11.89 0 0 1 2.234-.426c.133-.016.263-.047.388-.093.783-.225 1.008-.854.287-1.265Z" fill="#38302D"/><path d="M38.764 44.659v1.016a.582.582 0 0 0 .341.473 1.67 1.67 0 0 0 1.8-.147.88.88 0 0 0 .077-.101c.175-.34.391-.659.644-.946l5.484-5.685a5.102 5.102 0 0 1 1.489-1.055.884.884 0 0 0 .465-.45.419.419 0 0 0 0-.17v-1.017l-10.3 8.082Z" fill="#1E1A18"/><path d="M40.983 44.884a.444.444 0 0 1-.078.1 1.669 1.669 0 0 1-1.8.148c-.356-.21-.45-.527-.193-.776l.108-.093a7.045 7.045 0 0 0 1.047-.775l5.515-5.732c.354-.367.62-.81.776-1.295a.658.658 0 0 1 .147-.225 2.07 2.07 0 0 1 2.218-.179c.341.202.489.481.388.776a.93.93 0 0 1-.473.45 5.1 5.1 0 0 0-1.49 1.055l-5.475 5.685a4.656 4.656 0 0 0-.69.86Z" fill="#38302D"/><path d="M39.493 43.86v.776a.202.202 0 0 0 .109.155.629.629 0 0 0 .527 0 .202.202 0 0 0 .109-.155v-.776h-.745Z" fill="#1E1A18"/><path opacity=".3" d="M39.865 51.957c7.83 0 14.178-3.663 14.178-8.182 0-4.52-6.347-8.183-14.178-8.183-7.83 0-14.178 3.663-14.178 8.183 0 4.519 6.348 8.182 14.178 8.182Z" fill="#2137FF"/><path opacity=".1" d="M39.772 43.751H25.688c0-2.086 1.388-4.157 4.126-5.755l9.958 5.755Zm.055.07-9.928 5.755a20.553 20.553 0 0 0 9.959 2.381l-.031-8.136Zm.155-.031 9.959 5.755c2.737-1.598 4.118-3.676 4.126-5.755H39.982Zm-.078-.07 9.959-5.755a20.553 20.553 0 0 0-9.959-2.38v8.135Z" fill="#fff"/><path d="M39.439 43.48v.326a.201.201 0 0 0 .124.17.643.643 0 0 0 .605 0 .216.216 0 0 0 .124-.17v-.326h-.853Z" fill="url(#h)"/><path d="M40.168 43.65a.18.18 0 0 0 .091-.276.18.18 0 0 0-.091-.065.644.644 0 0 0-.605 0 .178.178 0 0 0 0 .341.643.643 0 0 0 .605 0Z" fill="#F7F5EB"/><path d="M13.806 29.03v.776a.179.179 0 0 0 .108.147.575.575 0 0 0 .528 0 .202.202 0 0 0 .108-.147v-.776h-.744Z" fill="#1E1A18"/><path opacity=".3" d="M24.198 34.723c5.546-3.195 5.546-8.376 0-11.572-5.545-3.195-14.503-3.195-20.049 0-5.545 3.196-5.537 8.377 0 11.572 5.538 3.196 14.512 3.203 20.05 0Z" fill="#2137FF"/><path opacity=".1" d="M14.085 28.914H0c0-2.078 1.388-4.157 4.126-5.747l9.959 5.747Zm.054.078L4.18 34.739a20.555 20.555 0 0 0 9.959 2.389v-8.136Zm.132-.032 9.959 5.748c2.738-1.59 4.118-3.638 4.118-5.747H14.271Zm-.054-.077 9.958-5.747a20.46 20.46 0 0 0-9.958-2.381v8.128Z" fill="#fff"/><path d="M13.752 28.643v.325a.202.202 0 0 0 .124.179.69.69 0 0 0 .604 0 .217.217 0 0 0 .125-.17v-.327l-.854-.007Z" fill="url(#i)"/><path d="M14.48 28.82c.163-.092.163-.247 0-.348a.69.69 0 0 0-.604 0c-.163.1-.163.256 0 .349a.69.69 0 0 0 .604 0Z" fill="#F7F5EB"/></g><defs><linearGradient id="b" x1="75.388" y1="23.012" x2="76.241" y2="23.012" gradientUnits="userSpaceOnUse"><stop stop-color="#D6D2CC"/><stop offset="1" stop-color="#EEEBE2"/></linearGradient><linearGradient id="c" x1="49.7" y1="8.175" x2="50.553" y2="8.175" gradientUnits="userSpaceOnUse"><stop stop-color="#D6D2CC"/><stop offset="1" stop-color="#EEEBE2"/></linearGradient><linearGradient id="d" x1="60.027" y1="33.234" x2="58.698" y2="36.798" gradientUnits="userSpaceOnUse"><stop stop-color="#2137FF"/><stop offset="1" stop-color="#0047FF"/></linearGradient><linearGradient id="e" x1="51.698" y1="28.473" x2="26.108" y2="41.861" gradientUnits="userSpaceOnUse"><stop stop-color="#E4E7FF"/><stop offset="1" stop-color="#2137FF"/></linearGradient><linearGradient id="f" x1="41.296" y1="26.541" x2="39.416" y2="29.186" gradientUnits="userSpaceOnUse"><stop stop-color="#2137FF"/><stop offset="1" stop-color="#0047FF"/></linearGradient><linearGradient id="g" x1="53.888" y1="30.628" x2="57.153" y2="30.628" gradientUnits="userSpaceOnUse"><stop offset=".53" stop-color="#E8E4DD"/><stop offset=".54" stop-color="#F5F2E9"/></linearGradient><linearGradient id="h" x1="39.439" y1="43.767" x2="40.292" y2="43.767" gradientUnits="userSpaceOnUse"><stop stop-color="#D6D2CC"/><stop offset="1" stop-color="#EEEBE2"/></linearGradient><linearGradient id="i" x1="13.752" y1="28.93" x2="14.605" y2="28.93" gradientUnits="userSpaceOnUse"><stop stop-color="#D6D2CC"/><stop offset="1" stop-color="#EEEBE2"/></linearGradient><clipPath id="a"><path fill="#fff" d="M0 0h90v51.957H0z"/></clipPath></defs></svg>