<svg width="60" height="88" viewBox="0 0 60 88" fill="none" xmlns="http://www.w3.org/2000/svg">
<path d="M11.4109 70.3687C12.9049 71.2203 12.9049 72.6097 11.4109 73.4613C10.5804 73.885 9.66138 74.1059 8.72908 74.1059C7.79679 74.1059 6.87776 73.885 6.04729 73.4613C4.55325 72.6097 4.55325 71.2203 6.04729 70.3687C6.87949 69.9508 7.79784 69.7332 8.72908 69.7332C9.66032 69.7332 10.5787 69.9508 11.4109 70.3687Z" fill="#231889"/>
<path d="M9.77506 17.8535C9.76854 17.7765 9.74157 17.7027 9.69691 17.6396C9.65225 17.5766 9.59154 17.5266 9.52108 17.4949C9.32559 17.3952 9.10928 17.3433 8.88984 17.3433C8.67041 17.3433 8.45409 17.3952 8.25861 17.4949C8.18524 17.5264 8.12164 17.577 8.07436 17.6414C8.02708 17.7057 7.99785 17.7815 7.9897 17.861L6.66748 71.7733C6.6797 71.9544 6.74019 72.1288 6.84265 72.2786C6.94512 72.4284 7.08583 72.5479 7.25015 72.6249C7.70254 72.8552 8.20295 72.9752 8.71057 72.9752C9.21818 72.9752 9.71861 72.8552 10.171 72.6249C10.3442 72.553 10.495 72.4362 10.608 72.2865C10.7209 72.1368 10.7918 71.9596 10.8134 71.7733C10.4598 53.7901 10.1137 35.8168 9.77506 17.8535Z" fill="url(#paint0_linear_216_879)"/>
<path d="M9.77011 17.848C9.7709 17.5633 9.37021 17.3314 8.87513 17.33C8.38005 17.3287 7.97806 17.5583 7.97727 17.843C7.97647 18.1276 8.37717 18.3595 8.87225 18.3609C9.36733 18.3623 9.76931 18.1326 9.77011 17.848Z" fill="#C2C4C4"/>
<path d="M8.99805 12.273C8.77319 12.1086 8.50846 12.0074 8.23131 11.9798C7.95415 11.9523 7.67466 11.9993 7.42182 12.1161L5.30029 13.3487C5.55313 13.2319 5.83262 13.1848 6.10978 13.2124C6.38693 13.24 6.65166 13.3412 6.87651 13.5056L9.68529 15.1266L11.8068 13.894L8.99805 12.273Z" fill="url(#paint1_linear_216_879)"/>
<path d="M11.8071 13.894L9.68555 15.1266C9.97529 15.3182 10.2166 15.5744 10.3903 15.8752C10.564 16.176 10.6654 16.513 10.6865 16.8597V18.5256C10.6994 18.6361 10.6818 18.7481 10.6357 18.8495C10.5896 18.9508 10.5168 19.0377 10.4251 19.1008L12.5466 17.8682C12.6384 17.8051 12.7112 17.7182 12.7572 17.6169C12.8033 17.5155 12.8209 17.4036 12.8081 17.293V15.6271C12.787 15.2804 12.6855 14.9434 12.5118 14.6426C12.3381 14.3419 12.0968 14.0856 11.8071 13.894Z" fill="url(#paint2_linear_216_879)"/>
<path opacity="0.6" d="M11.8071 13.894L9.68555 15.1266C9.97529 15.3182 10.2166 15.5744 10.3903 15.8752C10.564 16.176 10.6654 16.513 10.6865 16.8597L12.8081 15.6271C12.787 15.2804 12.6855 14.9434 12.5118 14.6426C12.3381 14.3419 12.0968 14.0856 11.8071 13.894Z" fill="white"/>
<path d="M9.68533 15.1264L6.87655 13.5054C5.65144 12.7584 4.6355 13.3635 4.6355 14.7679V15.0443C4.64967 15.3571 4.7384 15.662 4.89434 15.9336C5.05027 16.2052 5.26887 16.4356 5.53191 16.6055L9.75256 19.0408C10.2531 19.3247 10.6565 19.0931 10.6565 18.5254V16.8595C10.6387 16.5154 10.5419 16.1801 10.3734 15.8795C10.205 15.5789 9.96953 15.3212 9.68533 15.1264Z" fill="#231889"/>
<path d="M10.9478 17.8008C10.9478 18.391 11.3661 18.63 11.8741 18.3387C12.1459 18.1624 12.3722 17.9244 12.5345 17.6439C12.6968 17.3635 12.7905 17.0487 12.8078 16.7251C12.8078 16.135 12.3895 15.8959 11.8741 16.1947C11.6046 16.3711 11.3803 16.6084 11.2194 16.8873C11.0585 17.1663 10.9654 17.4793 10.9478 17.8008Z" fill="#C2C4C4"/>
<path d="M7.33194 15.814L5.30005 14.6411V14.3647L7.33194 15.5376V15.814ZM7.33194 16.18L5.30005 14.9997V15.2761L7.33194 16.4415V16.18ZM8.18355 15.9036C7.9221 15.7542 7.71293 15.9036 7.71293 16.18C7.72176 16.3432 7.76898 16.502 7.85076 16.6435C7.93254 16.785 8.04657 16.9051 8.18355 16.9943C8.44501 17.1511 8.65416 16.9943 8.65416 16.7253C8.64588 16.561 8.59897 16.4009 8.51719 16.2581C8.43542 16.1154 8.32111 15.9939 8.18355 15.9036Z" fill="url(#paint3_linear_216_879)"/>
<path d="M26.5008 18.0548H26.4635L13.8762 17.5469L13.6521 18.1445L15.7214 19.9L15.7961 19.9523H15.8334L15.7587 19.9C15.8149 19.9478 15.8805 19.9831 15.9514 20.0037C16.0222 20.0243 16.0965 20.0297 16.1696 20.0195L26.2095 19.0036C26.3589 18.899 26.6428 18.0623 26.5008 18.0548Z" fill="url(#paint4_linear_216_879)"/>
<path d="M13.9357 16.9792L12.5313 16.1725C12.427 16.1277 12.3128 16.1111 12.2001 16.1242C12.0874 16.1373 11.9801 16.1797 11.8888 16.2472C11.6305 16.4185 11.4166 16.6486 11.2647 16.9188C11.1127 17.1889 11.0271 17.4913 11.0148 17.801C11.0048 17.9091 11.0237 18.018 11.0697 18.1165C11.1156 18.215 11.1869 18.2994 11.2763 18.3612L12.6359 19.1456L13.1812 19.4593C13.0905 19.3984 13.0177 19.3144 12.9704 19.2158C12.9231 19.1173 12.903 19.008 12.9123 18.8991C12.9291 18.5908 13.0183 18.2908 13.1728 18.0234C13.3272 17.756 13.5425 17.5288 13.8012 17.3602C13.8921 17.2921 13.9995 17.2493 14.1123 17.2361C14.2252 17.223 14.3395 17.2401 14.4436 17.2855L13.9357 16.9792Z" fill="url(#paint5_linear_216_879)"/>
<path d="M14.4739 17.2856C14.3697 17.2402 14.2554 17.2231 14.1426 17.2362C14.0297 17.2494 13.9224 17.2922 13.8314 17.3603C13.5722 17.5312 13.3571 17.7611 13.2039 18.0312C13.0507 18.3013 12.9636 18.6039 12.9499 18.9141C12.9407 19.023 12.9608 19.1324 13.0081 19.2309C13.0554 19.3294 13.1282 19.4135 13.2189 19.4744C13.4072 19.5842 13.6208 19.6434 13.8389 19.6462C14.0675 19.6443 14.2916 19.5825 14.4888 19.4669C14.6801 19.3539 14.8378 19.1918 14.9455 18.9974C15.0532 18.8031 15.107 18.5835 15.1014 18.3613C15.098 18.1432 15.0384 17.9297 14.9285 17.7413C14.8186 17.5529 14.662 17.3959 14.4739 17.2856Z" fill="url(#paint6_linear_216_879)"/>
<path d="M14.5858 11.8247L13.4503 0.0591999C13.4554 0.0446993 13.4554 0.0288783 13.4503 0.0143777H13.413C13.3607 -0.0229732 13.2262 0.0143798 13.0917 0.104022C12.9573 0.193664 12.6958 0.395358 12.6958 0.522351L12.7705 16.9045H12.8079L13.271 16.6355L14.5409 12.4149C14.587 12.2218 14.6022 12.0226 14.5858 11.8247Z" fill="url(#paint7_linear_216_879)"/>
<path d="M12.1057 18.6002L8.87856 21.155C8.69821 21.2987 8.54187 21.4702 8.41541 21.663L0.0413213 34.3623C-0.0632613 34.5043 0.0413172 34.7433 0.235542 34.8404C0.265634 34.8597 0.300644 34.87 0.336397 34.87C0.37215 34.87 0.407148 34.8597 0.43724 34.8404C0.459561 34.8324 0.478157 34.8164 0.489526 34.7956L12.3746 18.8991L12.1206 18.5928L12.1057 18.6002Z" fill="url(#paint8_linear_216_879)"/>
<path style="mix-blend-mode:screen" opacity="0.6" d="M14.8174 17.7711C14.8538 17.826 14.879 17.8876 14.8916 17.9522C14.9042 18.0169 14.9039 18.0834 14.8907 18.148C14.8775 18.2125 14.8517 18.2738 14.8148 18.3284C14.7778 18.3829 14.7305 18.4296 14.6755 18.4659C14.5875 18.5343 14.4807 18.5742 14.3694 18.5801C14.2581 18.586 14.1476 18.5577 14.0529 18.4989C13.9582 18.4401 13.8838 18.3538 13.8397 18.2514C13.7956 18.149 13.7839 18.0356 13.8062 17.9264C13.8285 17.8172 13.8838 17.7175 13.9645 17.6406C14.0452 17.5637 14.1476 17.5135 14.2577 17.4966C14.3679 17.4796 14.4806 17.4969 14.5807 17.546C14.6807 17.5951 14.7633 17.6737 14.8174 17.7711Z" fill="white"/>
<path d="M23.0448 87.6208L18.4431 84.9688V82.8025L23.0448 85.4544V87.6208Z" fill="#C2C4C4"/>
<path d="M28.102 84.6998L23.0447 87.6207V85.4543L28.102 82.5334V84.6998Z" fill="#D7D9D9"/>
<path d="M23.0448 85.4546L18.4431 82.8027L23.5079 79.8818L28.1021 82.5338L23.0448 85.4546Z" fill="#F4F4F4"/>
<path d="M39.4865 78.1264L34.8923 75.4745V73.3081L39.4865 75.96V78.1264Z" fill="#C2C4C4"/>
<path d="M44.5514 75.2057L39.4866 78.1265V75.9602L44.5514 73.0393V75.2057Z" fill="#D7D9D9"/>
<path d="M39.4867 75.96L34.8926 73.3081L39.9574 70.3872L44.5515 73.0391L39.4867 75.96Z" fill="#F4F4F4"/>
<path d="M42.0415 71.7393V73.3155L42.2581 73.1885V71.6123L42.0415 71.7393Z" fill="#48484D"/>
<path d="M42.0264 70.5965C41.8967 70.3006 41.7229 70.026 41.5109 69.7822C41.3418 69.5874 41.1426 69.4209 40.9208 69.2892C40.7845 69.1893 40.624 69.1276 40.4559 69.1106C40.2878 69.0935 40.1182 69.1216 39.9646 69.1921L39.7405 69.319C39.8954 69.2487 40.0662 69.2207 40.2354 69.2377C40.4047 69.2548 40.5664 69.3164 40.7041 69.4162C40.9251 69.546 41.1222 69.7127 41.2868 69.9092C41.4986 70.1546 41.6746 70.4288 41.8097 70.7234C41.9563 71.0424 42.0352 71.3884 42.0413 71.7394L42.258 71.6124C42.2518 71.2614 42.1729 70.9155 42.0264 70.5965Z" fill="#5F5F64"/>
<path d="M40.7044 69.4162C39.9574 68.9829 39.3523 69.3265 39.3523 70.1632V71.7394L42.0416 73.2932V71.717C42.0116 71.2562 41.8753 70.8087 41.6433 70.4095C41.4113 70.0103 41.0899 69.6703 40.7044 69.4162Z" fill="#3B3B3F"/>
<path style="mix-blend-mode:screen" d="M41.511 69.782L41.2869 69.909C41.4986 70.1544 41.6747 70.4286 41.8098 70.7232L42.0264 70.5962C41.8967 70.3003 41.723 70.0258 41.511 69.782Z" fill="url(#paint9_linear_216_879)"/>
<path d="M40.1965 52.6455L41.7055 51.7715V73.0391L40.1965 73.9131V52.6455Z" fill="#48484D"/>
<path d="M41.4518 50.6583C41.3057 50.3286 41.1091 50.0237 40.8691 49.7545C40.6856 49.5345 40.4658 49.3475 40.2192 49.2017C40.0692 49.0914 39.8922 49.0235 39.7069 49.0051C39.5216 48.9867 39.3347 49.0185 39.1659 49.0971L37.6719 49.9786C37.842 49.9001 38.03 49.8684 38.2165 49.8868C38.4029 49.9051 38.5811 49.9729 38.7327 50.0831C38.9776 50.2282 39.1971 50.4124 39.3826 50.6285C39.6203 50.8979 39.8143 51.2029 39.9578 51.5324C40.1181 51.8819 40.2046 52.2609 40.2117 52.6454L41.7058 51.7714C41.6957 51.3872 41.6094 51.0089 41.4518 50.6583Z" fill="#5F5F64"/>
<path style="mix-blend-mode:screen" d="M39.3674 50.6286L40.8615 49.7546C41.1014 50.0239 41.298 50.3288 41.4441 50.6585L39.9501 51.5325C39.8067 51.2031 39.6126 50.8981 39.3749 50.6286H39.3674Z" fill="url(#paint10_linear_216_879)"/>
<path d="M38.7174 50.0834C39.1523 50.3608 39.5148 50.738 39.7746 51.1837C40.0345 51.6293 40.1842 52.1305 40.2115 52.6457V73.9133L37.2234 72.1952V50.9499C37.2234 49.9863 37.8957 49.6053 38.7174 50.0834Z" fill="#39393D"/>
<path d="M39.6587 73.1138V74.69L39.8828 74.563V72.9868L39.6587 73.1138Z" fill="#48484D"/>
<path d="M39.6511 71.971C39.516 71.6763 39.34 71.4022 39.1282 71.1568C38.9617 70.9622 38.765 70.7957 38.5455 70.6637C38.4078 70.5639 38.246 70.5024 38.0768 70.4853C37.9075 70.4683 37.7368 70.4963 37.5819 70.5666L37.3652 70.6936C37.5188 70.6232 37.6884 70.5951 37.8565 70.6121C38.0246 70.6292 38.1851 70.6909 38.3214 70.7907C38.5432 70.9225 38.7425 71.0889 38.9116 71.2838C39.1235 71.5276 39.2973 71.8021 39.427 72.098C39.5758 72.4166 39.6571 72.7625 39.6661 73.114L39.8827 72.987C39.8729 72.6364 39.7942 72.2912 39.6511 71.971Z" fill="#5F5F64"/>
<path d="M38.3213 70.7904C37.5743 70.3572 36.9767 70.7008 36.9692 71.5375V73.1137L39.666 74.6675V73.0913C39.6387 72.629 39.5026 72.1797 39.269 71.7799C39.0353 71.3802 38.7107 71.0411 38.3213 70.7904Z" fill="#3B3B3F"/>
<path style="mix-blend-mode:screen" d="M39.1283 71.1567L38.9116 71.2837C39.1236 71.5275 39.2974 71.8021 39.4271 72.098L39.6512 71.971C39.5161 71.6763 39.34 71.4022 39.1283 71.1567Z" fill="url(#paint11_linear_216_879)"/>
<path d="M25.6521 81.1968V82.773L25.8762 82.646V81.0698L25.6521 81.1968Z" fill="#48484D"/>
<path d="M25.6445 80.0837C25.5113 79.7857 25.3351 79.5088 25.1216 79.262C24.9522 79.0675 24.753 78.9011 24.5315 78.7689C24.3948 78.6695 24.2339 78.6087 24.0657 78.593C23.8974 78.5772 23.728 78.607 23.5753 78.6793L23.3586 78.8063C23.5114 78.734 23.6808 78.7042 23.849 78.72C24.0173 78.7357 24.1782 78.7965 24.3148 78.8959C24.5368 79.0304 24.736 79.1994 24.905 79.3964C25.1197 79.6382 25.2938 79.9131 25.4204 80.2107C25.5696 80.5261 25.6486 80.8702 25.652 81.2191L25.8761 81.0921C25.8655 80.7441 25.7868 80.4015 25.6445 80.0837Z" fill="#5F5F64"/>
<path d="M24.3147 78.8734C23.5677 78.4476 22.9701 78.7913 22.9626 79.6205V81.1967L25.6519 82.7505V81.1743C25.626 80.7125 25.4914 80.2635 25.259 79.8636C25.0266 79.4638 24.7031 79.1245 24.3147 78.8734Z" fill="#3B3B3F"/>
<path style="mix-blend-mode:screen" d="M25.1217 79.2395L24.905 79.374C25.1198 79.6157 25.2938 79.8907 25.4205 80.1882L25.6446 80.0612C25.5114 79.7632 25.3352 79.4864 25.1217 79.2395Z" fill="url(#paint12_linear_216_879)"/>
<path d="M23.8141 62.1102L25.3156 61.2288V82.4964L23.8066 83.3704L23.8141 62.1102Z" fill="#48484D"/>
<path d="M25.0617 60.1155C24.9144 59.7881 24.7206 59.4837 24.4865 59.2116C24.301 58.9956 24.0815 58.8114 23.8366 58.6663C23.685 58.5561 23.5068 58.4883 23.3204 58.4699C23.1339 58.4515 22.9459 58.4832 22.7758 58.5617L21.2817 59.4357C21.4506 59.3571 21.6374 59.3253 21.8227 59.3437C22.008 59.3621 22.185 59.43 22.335 59.5403C22.58 59.6854 22.7995 59.8696 22.9849 60.0856C23.2211 60.359 23.415 60.6662 23.5601 60.997C23.7235 61.3459 23.8125 61.7249 23.8216 62.1101L25.3156 61.236C25.3122 60.8487 25.2256 60.4665 25.0617 60.1155Z" fill="#5F5F64"/>
<path style="mix-blend-mode:screen" d="M22.9775 60.0857L24.4716 59.2117C24.7058 59.4838 24.8995 59.7882 25.0468 60.1156L23.5528 60.997C23.4076 60.6662 23.2137 60.359 22.9775 60.0857Z" fill="url(#paint13_linear_216_879)"/>
<path d="M22.3573 59.5405C22.7916 59.8205 23.1533 60.1993 23.413 60.646C23.6727 61.0926 23.8229 61.5944 23.8514 62.1103V83.3705L20.8633 81.6523V60.3921C20.8633 59.4434 21.5057 59.0625 22.3573 59.5405Z" fill="#231889"/>
<path d="M23.2766 82.5711V84.1473L23.4932 84.0203V82.4441L23.2766 82.5711Z" fill="#48484D"/>
<path d="M23.2615 81.4354C23.1336 81.1363 22.9597 80.859 22.746 80.6137C22.5769 80.4189 22.3777 80.2524 22.1559 80.1207C22.0199 80.0198 21.8589 79.9581 21.6903 79.9423C21.5217 79.9265 21.3521 79.9572 21.1997 80.031L20.9756 80.158C21.1297 80.0859 21.3002 80.0562 21.4696 80.0719C21.639 80.0877 21.8011 80.1484 21.9392 80.2477C22.1585 80.38 22.3552 80.5464 22.5219 80.7407C22.7355 80.9876 22.9116 81.2644 23.0448 81.5624C23.1906 81.8791 23.2695 82.2224 23.2764 82.5709L23.493 82.4439C23.4861 82.0954 23.4072 81.7521 23.2615 81.4354Z" fill="#5F5F64"/>
<path d="M21.9393 80.2477C21.1922 79.8219 20.5872 80.1655 20.5872 80.9947V82.5709L23.2764 84.1247V82.5485C23.2465 82.0878 23.1101 81.6402 22.8781 81.241C22.6461 80.8418 22.3248 80.5018 21.9393 80.2477Z" fill="#3B3B3F"/>
<path style="mix-blend-mode:screen" d="M22.7461 80.6138L22.522 80.7408C22.7355 80.9876 22.9117 81.2645 23.0449 81.5625L23.2615 81.4355C23.1337 81.1363 22.9597 80.8591 22.7461 80.6138Z" fill="url(#paint14_linear_216_879)"/>
<path d="M24.9272 72.8823L51.3344 57.5609L52.6118 53.2432L26.2046 68.5645L24.9272 72.8823Z" fill="#231889"/>
<path d="M40.8087 43.0315L52.6116 53.2432L26.2045 68.5646L14.4016 58.3454L40.8087 43.0315Z" fill="#F4F4F4"/>
<path d="M52.0589 53.1311L40.8088 43.3975L15.0366 58.3453L26.2793 68.0864L52.0589 53.1311Z" fill="#345E7A"/>
<path d="M14.4017 58.3455L13.1243 62.6707L24.9272 72.8824L26.2046 68.5647L14.4017 58.3455Z" fill="url(#paint15_linear_216_879)"/>
<path d="M31.4038 74.7124L59.7382 58.1958L59.9997 57.3218L31.6653 73.8384L31.4038 74.7124Z" fill="url(#paint16_linear_216_879)"/>
<path d="M34.0185 34.844L59.9998 57.3218L31.6654 73.8384L5.68408 51.3531L34.0185 34.844Z" fill="white"/>
<path d="M58.7748 57.0826L34.0186 35.6506L7.08105 51.353L31.8298 72.785L58.7748 57.0826Z" fill="url(#paint17_linear_216_879)"/>
<path d="M5.68416 51.353L5.43018 52.227L31.404 74.7123L31.6655 73.8383L5.68416 51.353Z" fill="#231889"/>
<path d="M17.1281 55.1033L18.9061 56.5973C18.9565 56.6344 18.9976 56.6828 19.0261 56.7385C19.0547 56.7943 19.0698 56.8559 19.0704 56.9185C19.062 56.9718 19.0415 57.0224 19.0104 57.0664C18.9793 57.1105 18.9385 57.1468 18.8911 57.1725L16.9787 58.2706C16.8727 58.3336 16.7508 58.3647 16.6276 58.3603C16.4318 58.3641 16.2411 58.2979 16.0898 58.1735L14.3119 56.6795C14.2629 56.6437 14.2237 56.5962 14.1976 56.5415C14.1715 56.4867 14.1594 56.4263 14.1625 56.3657C14.1709 56.3125 14.1914 56.2619 14.2225 56.2178C14.2536 56.1738 14.2944 56.1375 14.3418 56.1117L16.2467 55.0062C16.3552 54.9505 16.4758 54.9223 16.5978 54.924C16.7903 54.9185 16.9784 54.9821 17.1281 55.1033ZM22.8129 51.3159C22.691 51.3142 22.5704 51.3424 22.4619 51.398L20.557 52.5036C20.508 52.5273 20.4659 52.5631 20.4345 52.6075C20.4032 52.6519 20.3836 52.7036 20.3777 52.7576C20.3755 52.8189 20.3887 52.8797 20.4161 52.9345C20.4435 52.9893 20.4842 53.0364 20.5345 53.0714L22.3125 54.5654C22.4656 54.6865 22.6551 54.7523 22.8503 54.7522C22.9709 54.7544 23.0898 54.7234 23.1939 54.6625L25.0988 53.5569C25.1482 53.5349 25.1912 53.5007 25.2238 53.4576C25.2565 53.4145 25.2777 53.3639 25.2856 53.3104C25.2865 53.2483 25.2727 53.1869 25.2455 53.1311C25.2182 53.0753 25.1782 53.0267 25.1287 52.9892L23.3508 51.4952C23.191 51.3713 22.9926 51.3078 22.7905 51.3159H22.8129ZM19.7128 53.1162C19.594 53.1134 19.4762 53.139 19.3692 53.1909L17.4643 54.2965C17.4158 54.3207 17.374 54.3566 17.3427 54.4009C17.3114 54.4453 17.2916 54.4966 17.285 54.5505C17.282 54.6111 17.294 54.6714 17.3201 54.7262C17.3462 54.781 17.3855 54.8284 17.4344 54.8642L19.2123 56.3583C19.3636 56.4826 19.5544 56.5488 19.7502 56.545C19.8733 56.5482 19.9948 56.5172 20.1013 56.4554L22.0137 55.3498C22.0612 55.3262 22.1024 55.2915 22.1336 55.2486C22.1648 55.2056 22.1852 55.1558 22.1929 55.1033C22.1938 55.0412 22.1801 54.9797 22.1528 54.9239C22.1256 54.8681 22.0856 54.8195 22.0361 54.782L20.2582 53.288C20.0953 53.1651 19.8941 53.1042 19.6904 53.1162H19.7128ZM39.8823 54.3787C40.0043 54.3803 40.1249 54.3521 40.2334 54.2965L42.0935 53.1909C42.1423 53.169 42.1845 53.1348 42.216 53.0915C42.2474 53.0483 42.267 52.9975 42.2728 52.9444C42.2763 52.8819 42.2637 52.8196 42.2362 52.7633C42.2088 52.7071 42.1674 52.6588 42.1159 52.6232L40.338 51.1291C40.1872 51.0091 40.0004 50.9434 39.8076 50.9424C39.6846 50.9392 39.563 50.9702 39.4565 51.032L37.5516 52.1376C37.5021 52.1614 37.4592 52.1971 37.4266 52.2413C37.3941 52.2856 37.3729 52.3372 37.3649 52.3916C37.3646 52.4525 37.3786 52.5127 37.4059 52.5672C37.4331 52.6217 37.4728 52.669 37.5217 52.7053L39.2997 54.1994C39.452 54.321 39.6426 54.3846 39.8375 54.3787H39.8823ZM36.7299 56.179C36.8519 56.1807 36.9724 56.1524 37.081 56.0968L38.9934 54.9912C39.0404 54.9678 39.0807 54.9329 39.1107 54.8899C39.1407 54.8468 39.1595 54.7969 39.1652 54.7447C39.1687 54.6822 39.1561 54.6199 39.1286 54.5636C39.1012 54.5074 39.0598 54.4591 39.0083 54.4235L37.2304 52.9294C37.0796 52.8095 36.8928 52.7437 36.7 52.7427C36.577 52.7395 36.4554 52.7705 36.3489 52.8323L34.444 53.9379C34.3937 53.9606 34.3501 53.9959 34.3174 54.0404C34.2846 54.0849 34.264 54.1371 34.2573 54.1919C34.257 54.2528 34.271 54.313 34.2983 54.3675C34.3255 54.422 34.3652 54.4693 34.4142 54.5056L36.1921 55.9997C36.3444 56.1214 36.535 56.1849 36.7299 56.179ZM25.8981 49.5156C25.7761 49.5139 25.6556 49.5421 25.547 49.5977L23.6421 50.7033C23.5923 50.7258 23.5494 50.7612 23.5179 50.8059C23.4864 50.8505 23.4674 50.9028 23.4629 50.9573C23.4607 51.0186 23.4739 51.0794 23.5013 51.1342C23.5287 51.189 23.5694 51.2361 23.6197 51.2711L25.3902 52.7651C25.5467 52.8852 25.7382 52.9508 25.9355 52.9518C26.0561 52.9541 26.175 52.923 26.2791 52.8622L28.184 51.7566C28.2334 51.7346 28.2764 51.7004 28.309 51.6573C28.3417 51.6142 28.3629 51.5636 28.3708 51.5101C28.3721 51.4471 28.3577 51.3849 28.329 51.3288C28.3004 51.2727 28.2582 51.2247 28.2064 51.1889L26.436 49.6948C26.2822 49.5759 26.0925 49.5127 25.8981 49.5156ZM32.5466 58.6068C32.6664 58.6098 32.7848 58.5815 32.8902 58.5246L34.8026 57.419C34.8507 57.3943 34.8922 57.3582 34.9234 57.314C34.9546 57.2698 34.9747 57.2187 34.9819 57.165C34.9822 57.103 34.9682 57.0418 34.941 56.9861C34.9138 56.9304 34.8741 56.8817 34.825 56.8438L33.0471 55.3498C32.8978 55.2271 32.71 55.161 32.5167 55.163C32.3916 55.1624 32.2683 55.1932 32.1582 55.2527L30.2533 56.3583C30.2057 56.3818 30.1645 56.4165 30.1333 56.4595C30.1021 56.5024 30.0817 56.5523 30.074 56.6048C30.0724 56.6659 30.0859 56.7265 30.1133 56.7812C30.1406 56.8359 30.181 56.8831 30.2309 56.9185L32.0088 58.4126C32.159 58.5396 32.3499 58.6085 32.5466 58.6068ZM30.0814 47.0878C29.962 47.0873 29.8441 47.1154 29.7378 47.1699L27.8329 48.2755C27.7838 48.2999 27.7412 48.3356 27.7087 48.3798C27.6762 48.424 27.6548 48.4753 27.6462 48.5295C27.6446 48.5906 27.6581 48.6512 27.6855 48.7059C27.7128 48.7606 27.7532 48.8078 27.803 48.8432L29.581 50.3373C29.7323 50.4616 29.923 50.5279 30.1188 50.524C30.2418 50.5265 30.3631 50.4955 30.4699 50.4344L32.3748 49.3288C32.4224 49.3052 32.4635 49.2705 32.4947 49.2276C32.526 49.1847 32.5463 49.1348 32.5541 49.0823C32.5569 49.0199 32.544 48.9578 32.5166 48.9017C32.4892 48.8456 32.4481 48.7972 32.3972 48.7611L30.6193 47.267C30.467 47.1454 30.2763 47.0818 30.0814 47.0878ZM33.7269 45.4742C33.5756 45.3498 33.3849 45.2836 33.189 45.2874C33.0696 45.287 32.9518 45.3151 32.8454 45.3696L30.9331 46.4677C30.8857 46.4935 30.8449 46.5297 30.8138 46.5738C30.7827 46.6178 30.7621 46.6684 30.7538 46.7217C30.7522 46.7829 30.7657 46.8434 30.7931 46.8981C30.8204 46.9529 30.8608 47 30.9107 47.0355L32.6811 48.5295C32.8359 48.6527 33.0285 48.7187 33.2264 48.7163C33.3495 48.7195 33.471 48.6884 33.5775 48.6266L35.4824 47.521C35.53 47.4975 35.5711 47.4627 35.6023 47.4198C35.6336 47.3769 35.6539 47.327 35.6617 47.2745C35.6626 47.2124 35.6488 47.151 35.6216 47.0952C35.5943 47.0394 35.5543 46.9908 35.5048 46.9533L33.7269 45.4742ZM36.6253 47.9618C36.4705 47.8386 36.2779 47.7726 36.08 47.775C35.9605 47.7745 35.8427 47.8027 35.7364 47.8572L33.8315 48.9628C33.7831 48.9881 33.7411 49.0241 33.7087 49.0681C33.6763 49.1122 33.6544 49.163 33.6447 49.2168C33.6453 49.2794 33.6605 49.341 33.689 49.3968C33.7175 49.4525 33.7586 49.5009 33.8091 49.538L35.5795 51.032C35.7308 51.1564 35.9216 51.2226 36.1174 51.2188C36.2404 51.222 36.362 51.1909 36.4685 51.1291L38.3734 50.031C38.4218 50.0057 38.4638 49.9697 38.4961 49.9256C38.5285 49.8816 38.5504 49.8308 38.5601 49.777C38.5604 49.7161 38.5464 49.6559 38.5191 49.6014C38.4919 49.5469 38.4522 49.4996 38.4032 49.4633L36.6253 47.9618ZM29.2224 64.695C29.3444 64.6967 29.4649 64.6685 29.5735 64.6128L31.4784 63.5072C31.5283 63.4839 31.5716 63.4485 31.6042 63.4041C31.6368 63.3597 31.6578 63.3078 31.6651 63.2532C31.6667 63.1921 31.6532 63.1315 31.6258 63.0768C31.5985 63.0221 31.5581 62.975 31.5083 62.9395L29.7303 61.4455C29.5772 61.3244 29.3877 61.2586 29.1925 61.2587C29.0694 61.2555 28.9479 61.2865 28.8414 61.3483L26.9365 62.4539C26.887 62.4778 26.8441 62.5134 26.8115 62.5577C26.7789 62.602 26.7577 62.6535 26.7497 62.7079C26.7488 62.769 26.7626 62.8293 26.7899 62.8839C26.8172 62.9385 26.8572 62.9858 26.9066 63.0217L28.6845 64.5157C28.8412 64.6266 29.0306 64.6819 29.2224 64.6726V64.695ZM26.0924 66.4729C26.2144 66.4746 26.3349 66.4464 26.4435 66.3907L28.3484 65.2851C28.3969 65.262 28.4393 65.2275 28.4718 65.1846C28.5043 65.1417 28.526 65.0917 28.5351 65.0386C28.5343 64.9768 28.5199 64.9159 28.4927 64.8604C28.4656 64.8049 28.4265 64.756 28.3782 64.7174L26.6003 63.2234C26.4462 63.098 26.2537 63.0295 26.055 63.0291C25.9344 63.0269 25.8155 63.0579 25.7114 63.1188L23.8513 64.2094C23.8018 64.2333 23.7589 64.2689 23.7263 64.3132C23.6938 64.3575 23.6726 64.409 23.6646 64.4634C23.6651 64.525 23.6803 64.5856 23.7089 64.6401C23.7375 64.6947 23.7786 64.7416 23.8289 64.7772L25.5993 66.2712C25.7382 66.389 25.9108 66.4596 26.0924 66.4729ZM32.9874 53.0266C33.1104 53.0298 33.232 52.9987 33.3385 52.9369L35.2508 51.8388C35.3024 51.8115 35.3456 51.7706 35.3757 51.7206C35.4058 51.6706 35.4217 51.6133 35.4217 51.5549C35.4217 51.4965 35.4058 51.4393 35.3757 51.3893C35.3456 51.3392 35.3024 51.2984 35.2508 51.2711L33.4729 49.777C33.3204 49.6549 33.1305 49.589 32.9351 49.5903C32.8131 49.5886 32.6925 49.6168 32.584 49.6724L30.6791 50.778C30.6307 50.8033 30.5886 50.8394 30.5563 50.8834C30.5239 50.9274 30.502 50.9782 30.4923 51.032C30.4929 51.0946 30.508 51.1563 30.5366 51.212C30.5651 51.2678 30.6062 51.3161 30.6566 51.3532L32.4346 52.8473C32.5981 52.9737 32.8041 53.0326 33.0098 53.0116L32.9874 53.0266ZM25.6666 53.7736C25.5421 53.7706 25.4188 53.7989 25.308 53.8557L23.4031 54.9613C23.355 54.9861 23.3136 55.0221 23.2823 55.0664C23.2511 55.1106 23.231 55.1617 23.2238 55.2153C23.2232 55.2782 23.2378 55.3402 23.2664 55.3962C23.2951 55.4521 23.3368 55.5003 23.3882 55.5365L25.1586 57.0306C25.3105 57.1538 25.5008 57.2199 25.6964 57.2173C25.8195 57.2205 25.9411 57.1895 26.0476 57.1277L27.9524 56.0296C27.9998 56.0038 28.0406 55.9675 28.0717 55.9235C28.1028 55.8795 28.1234 55.8288 28.1317 55.7756C28.1347 55.7139 28.1227 55.6525 28.0966 55.5965C28.0706 55.5406 28.0314 55.4918 27.9823 55.4544L26.2044 53.9603C26.0569 53.8456 25.8758 53.7826 25.689 53.781L25.6666 53.7736ZM28.7742 51.9733C28.6497 51.9703 28.5264 51.9986 28.4156 52.0554L26.5331 53.1909C26.485 53.2157 26.4436 53.2517 26.4123 53.2959C26.3811 53.3401 26.3611 53.3912 26.3538 53.4449C26.3532 53.5077 26.3678 53.5698 26.3964 53.6257C26.4251 53.6817 26.4668 53.7298 26.5182 53.7661L28.2886 55.2601C28.4399 55.3845 28.6306 55.4507 28.8265 55.4469C28.9473 55.4512 29.0667 55.42 29.1701 55.3573L31.0825 54.2591C31.1298 54.2334 31.1707 54.1971 31.2017 54.1531C31.2328 54.109 31.2534 54.0584 31.2617 54.0051C31.2645 53.9428 31.2516 53.8807 31.2242 53.8245C31.1968 53.7684 31.1558 53.7201 31.1049 53.6839L29.3344 52.1899C29.185 52.0597 28.9947 51.9857 28.7966 51.9807L28.7742 51.9733ZM22.5814 55.5814C22.4594 55.5797 22.3388 55.6079 22.2303 55.6635L20.3179 56.7691C20.2705 56.7948 20.2297 56.8311 20.1986 56.8752C20.1675 56.9192 20.147 56.9698 20.1386 57.0231C20.1378 57.0852 20.1515 57.1466 20.1788 57.2024C20.206 57.2582 20.246 57.3068 20.2955 57.3443L22.0734 58.8384C22.2252 58.9557 22.4119 59.0188 22.6038 59.0176C22.7283 59.0206 22.8516 58.9923 22.9624 58.9355L24.8672 57.8299C24.9146 57.8042 24.9555 57.7679 24.9865 57.7238C25.0176 57.6798 25.0382 57.6292 25.0465 57.5759C25.0495 57.5143 25.0375 57.4528 25.0114 57.3969C24.9854 57.3409 24.9462 57.2921 24.8971 57.2547L23.1192 55.7606C22.9669 55.639 22.7762 55.5754 22.5814 55.5814ZM19.4663 57.3817C19.3468 57.3812 19.229 57.4094 19.1227 57.4638L17.2103 58.5694C17.1629 58.5952 17.1221 58.6315 17.091 58.6755C17.0599 58.7195 17.0394 58.7702 17.031 58.8234C17.0302 58.8855 17.0439 58.9469 17.0711 59.0027C17.0984 59.0585 17.1384 59.1072 17.1879 59.1446L18.9658 60.6387C19.1176 60.756 19.3043 60.8191 19.4962 60.818C19.6207 60.8209 19.744 60.7926 19.8548 60.7358L21.7597 59.6302C21.807 59.6045 21.8479 59.5682 21.8789 59.5241C21.91 59.4801 21.9306 59.4295 21.9389 59.3762C21.9392 59.3153 21.9252 59.2551 21.8979 59.2006C21.8707 59.1461 21.831 59.0988 21.7821 59.0625L20.0042 57.5684C19.8529 57.4441 19.6621 57.3778 19.4663 57.3817ZM49.3471 53.6914C49.3443 53.7538 49.3572 53.8159 49.3846 53.872C49.412 53.9281 49.453 53.9765 49.5039 54.0126L51.2818 55.5067C51.4331 55.625 51.6202 55.6883 51.8122 55.6859C51.9342 55.6876 52.0548 55.6594 52.1633 55.6038L54.0682 54.4982C54.1167 54.4729 54.1587 54.4368 54.191 54.3928C54.2234 54.3488 54.2453 54.298 54.255 54.2442C54.2542 54.1835 54.2396 54.1237 54.2124 54.0694C54.1853 54.015 54.1462 53.9676 54.0981 53.9304L52.3202 52.4364C52.1642 52.3153 51.9724 52.2496 51.7749 52.2497C51.6541 52.2462 51.535 52.2773 51.4313 52.3393L49.5189 53.4449C49.4775 53.4719 49.4431 53.5083 49.4184 53.5511C49.3937 53.594 49.3795 53.642 49.377 53.6914H49.3471ZM26.3015 62.2074C26.4235 62.2091 26.5441 62.1809 26.6526 62.1252L28.5575 61.0197C28.606 60.9954 28.6478 60.9595 28.6791 60.9152C28.7104 60.8709 28.7302 60.8195 28.7368 60.7657C28.7377 60.7036 28.724 60.6421 28.6967 60.5863C28.6694 60.5305 28.6294 60.4819 28.5799 60.4445L26.802 58.9504C26.6534 58.8266 26.4651 58.7603 26.2716 58.7637C26.1486 58.7605 26.027 58.7915 25.9205 58.8533L24.0381 59.9141C23.9895 59.9383 23.9478 59.9742 23.9165 60.0185C23.8852 60.0628 23.8654 60.1142 23.8588 60.1681C23.8585 60.229 23.8725 60.2891 23.8998 60.3436C23.927 60.3981 23.9667 60.4455 24.0157 60.4818L25.7861 61.9758C25.9347 62.1153 26.1279 62.1973 26.3314 62.2074H26.3015ZM23.1939 64.0077C23.3159 64.0094 23.4365 63.9812 23.545 63.9256L25.4499 62.82C25.4975 62.7964 25.5387 62.7617 25.5699 62.7188C25.6011 62.6758 25.6215 62.626 25.6292 62.5735C25.6295 62.5115 25.6155 62.4502 25.5883 62.3945C25.5611 62.3388 25.5214 62.2901 25.4724 62.2522L23.6944 60.7582C23.5413 60.6371 23.3518 60.5713 23.1566 60.5714C23.036 60.5692 22.9171 60.6002 22.8129 60.6611L20.9006 61.7667C20.8521 61.7909 20.8103 61.8268 20.779 61.8711C20.7477 61.9154 20.7279 61.9668 20.7213 62.0207C20.721 62.0816 20.7351 62.1417 20.7623 62.1963C20.7896 62.2508 20.8292 62.2981 20.8782 62.3344L22.6486 63.8284C22.8124 63.9557 23.0167 64.0194 23.2238 64.0077H23.1939ZM32.33 62.9021C32.452 62.9038 32.5725 62.8756 32.6811 62.82L34.586 61.7144C34.6355 61.6905 34.6784 61.6549 34.711 61.6106C34.7435 61.5664 34.7647 61.5148 34.7727 61.4604C34.7743 61.3993 34.7608 61.3387 34.7334 61.284C34.7061 61.2293 34.6657 61.1821 34.6159 61.1467L32.8379 59.6526C32.6848 59.5316 32.4953 59.4658 32.3001 59.4659C32.177 59.4627 32.0555 59.4937 31.949 59.5555L30.0441 60.6611C29.9953 60.6829 29.9531 60.7172 29.9216 60.7605C29.8902 60.8037 29.8706 60.8544 29.8648 60.9076C29.862 60.97 29.8749 61.0321 29.9023 61.0882C29.9297 61.1443 29.9708 61.1927 30.0217 61.2288L31.7996 62.7229C31.9514 62.8402 32.1381 62.9033 32.33 62.9021ZM29.439 60.437C29.561 60.4387 29.6816 60.4105 29.7901 60.3548L31.695 59.2492C31.7435 59.225 31.7853 59.1891 31.8166 59.1448C31.8479 59.1004 31.8677 59.0491 31.8743 58.9952C31.8752 58.9331 31.8614 58.8717 31.8342 58.8159C31.8069 58.7601 31.7669 58.7115 31.7174 58.674L29.9395 57.18C29.7908 57.0561 29.6026 56.9899 29.4091 56.9932C29.2837 56.9898 29.1597 57.0208 29.0506 57.0829L27.1457 58.1885C27.0981 58.212 27.0569 58.2467 27.0257 58.2897C26.9945 58.3326 26.9741 58.3825 26.9664 58.435C26.9649 58.4961 26.9783 58.5567 27.0057 58.6114C27.033 58.6661 27.0734 58.7133 27.1233 58.7487L28.9012 60.2428C29.0555 60.3591 29.246 60.4173 29.439 60.4071V60.437ZM33.1143 40.0508C33.2656 40.1752 33.4564 40.2414 33.6522 40.2376C33.7717 40.2381 33.8895 40.2099 33.9958 40.1554L35.9082 38.9975C35.9598 38.9702 36.003 38.9294 36.0331 38.8793C36.0632 38.8293 36.0791 38.772 36.0791 38.7137C36.0791 38.6553 36.0632 38.598 36.0331 38.548C36.003 38.498 35.9598 38.4571 35.9082 38.4298L34.1378 36.9358C33.9829 36.8126 33.7903 36.7466 33.5924 36.749C33.4694 36.7458 33.3478 36.7768 33.2413 36.8386L31.3364 37.9368C31.2883 37.9615 31.2469 37.9976 31.2157 38.0418C31.1845 38.086 31.1644 38.1371 31.1572 38.1908C31.1585 38.2525 31.1732 38.3132 31.2002 38.3686C31.2273 38.4241 31.2662 38.473 31.314 38.512L33.1143 40.0508ZM26.8991 43.6589C27.0504 43.7773 27.2375 43.8405 27.4295 43.8382C27.5515 43.8399 27.6721 43.8117 27.7806 43.756L29.693 42.6505C29.7411 42.6257 29.7825 42.5897 29.8138 42.5454C29.845 42.5012 29.8651 42.4501 29.8723 42.3965C29.8726 42.3355 29.8585 42.2754 29.8313 42.2209C29.804 42.1664 29.7643 42.119 29.7154 42.0827L27.9375 40.5887C27.7844 40.4676 27.5949 40.4018 27.3997 40.4019C27.2766 40.3987 27.155 40.4298 27.0486 40.4916L25.1437 41.5972C25.0961 41.6207 25.0549 41.6554 25.0237 41.6984C24.9925 41.7413 24.9721 41.7912 24.9644 41.8437C24.9622 41.906 24.9754 41.9678 25.0028 42.0238C25.0301 42.0798 25.0708 42.1283 25.1213 42.1649L26.8991 43.6589ZM30.0067 41.8511C30.1732 41.9639 30.3752 42.0117 30.5745 41.9856C30.6939 41.9861 30.8118 41.9579 30.9181 41.9034L32.8155 40.8203C32.8629 40.7945 32.9037 40.7582 32.9348 40.7142C32.9659 40.6701 32.9864 40.6195 32.9948 40.5663C32.9964 40.5051 32.9829 40.4445 32.9555 40.3898C32.9282 40.3351 32.8878 40.288 32.8379 40.2525L31.0675 38.7585C30.911 38.6384 30.7195 38.5728 30.5222 38.5717C30.3991 38.5685 30.2776 38.5996 30.1711 38.6614L28.2513 39.7446C28.2031 39.7693 28.1617 39.8054 28.1305 39.8496C28.0993 39.8938 28.0792 39.9449 28.072 39.9985C28.0733 40.0602 28.088 40.1209 28.1151 40.1764C28.1422 40.2319 28.181 40.2808 28.2288 40.3198L30.0067 41.8511ZM23.7916 45.4592C23.9434 45.5766 24.1301 45.6397 24.3219 45.6385C24.4463 45.6397 24.5691 45.6115 24.6805 45.5564L26.5854 44.4508C26.6339 44.4265 26.6757 44.3906 26.707 44.3463C26.7383 44.302 26.7581 44.2506 26.7647 44.1968C26.765 44.1358 26.7509 44.0757 26.7237 44.0212C26.6964 43.9667 26.6567 43.9194 26.6078 43.883L24.8299 42.389C24.6768 42.2679 24.4873 42.2021 24.2921 42.2022C24.1712 42.198 24.0518 42.2291 23.9484 42.2919L22.0361 43.3975C21.9885 43.421 21.9473 43.4558 21.9161 43.4987C21.8849 43.5416 21.8645 43.5915 21.8568 43.644C21.8546 43.7063 21.8678 43.7681 21.8952 43.8241C21.9225 43.8801 21.9632 43.9286 22.0137 43.9652L23.7916 45.4592ZM13.393 51.4578C13.5469 51.5767 13.7365 51.6399 13.9309 51.6371C14.0529 51.6388 14.1734 51.6106 14.282 51.5549L16.1869 50.4493C16.2365 50.4266 16.28 50.3924 16.3138 50.3495C16.3476 50.3067 16.3707 50.2564 16.3811 50.2028C16.3827 50.1417 16.3692 50.0811 16.3418 50.0264C16.3144 49.9717 16.2741 49.9245 16.2243 49.8891L14.4463 48.395C14.2932 48.274 14.1037 48.2082 13.9085 48.2083C13.7854 48.2051 13.6639 48.2361 13.5574 48.2979L11.6525 49.4035C11.6037 49.4254 11.5615 49.4596 11.53 49.5029C11.4986 49.5461 11.479 49.5969 11.4732 49.65C11.4696 49.7118 11.4813 49.7734 11.5074 49.8295C11.5335 49.8855 11.5731 49.9343 11.6226 49.9712L13.393 51.4578ZM16.5081 49.65C16.6575 49.7727 16.8452 49.8388 17.0385 49.8368C17.1605 49.8385 17.281 49.8103 17.3896 49.7546L19.2945 48.649C19.3429 48.6237 19.3849 48.5877 19.4173 48.5436C19.4496 48.4996 19.4715 48.4488 19.4812 48.395C19.4828 48.3339 19.4693 48.2733 19.4419 48.2186C19.4146 48.1639 19.3742 48.1167 19.3244 48.0813L17.5465 46.5872C17.3933 46.4662 17.2038 46.4004 17.0086 46.4005C16.8855 46.3973 16.764 46.4283 16.6575 46.4901L14.7526 47.5957C14.7038 47.6176 14.6616 47.6518 14.6301 47.6951C14.5987 47.7383 14.5791 47.7891 14.5733 47.8422C14.5712 47.9045 14.5844 47.9664 14.6118 48.0224C14.6391 48.0784 14.6798 48.1268 14.7302 48.1635L16.5081 49.65ZM19.6157 47.8497C19.765 47.9724 19.9528 48.0385 20.1461 48.0365C20.2681 48.0382 20.3886 48.0099 20.4972 47.9543L22.4021 46.8487C22.4512 46.8243 22.4938 46.7886 22.5263 46.7444C22.5588 46.7002 22.5802 46.6489 22.5888 46.5947C22.5904 46.5336 22.5769 46.473 22.5495 46.4183C22.5222 46.3636 22.4818 46.3164 22.432 46.281L20.6541 44.7869C20.5028 44.6626 20.312 44.5963 20.1162 44.6002C19.9931 44.597 19.8716 44.628 19.7651 44.6898L17.8752 45.773C17.8282 45.7964 17.7878 45.8313 17.7578 45.8743C17.7278 45.9174 17.7091 45.9673 17.7033 46.0195C17.7012 46.0818 17.7144 46.1437 17.7418 46.1997C17.7691 46.2557 17.8098 46.3041 17.8602 46.3407L19.6157 47.8497ZM39.8749 45.6087C39.8714 45.6711 39.884 45.7335 39.9114 45.7897C39.9389 45.8459 39.9803 45.8942 40.0317 45.9299L41.8097 47.4239C41.959 47.5466 42.1468 47.6127 42.34 47.6107C42.4631 47.6139 42.5847 47.5828 42.6911 47.521L44.596 46.4229C44.6452 46.3985 44.6878 46.3628 44.7202 46.3186C44.7527 46.2744 44.7742 46.2231 44.7828 46.1689C44.7836 46.1068 44.7699 46.0454 44.7427 45.9896C44.7154 45.9338 44.6754 45.8852 44.6259 45.8477L42.848 44.3537C42.6967 44.2293 42.506 44.1631 42.3101 44.1669C42.1882 44.1652 42.0676 44.1934 41.959 44.2491L40.0542 45.3547C40.0067 45.3753 39.9649 45.4072 39.9324 45.4475C39.8998 45.4879 39.8776 45.5354 39.8674 45.5862L39.8749 45.6087ZM46.486 51.2486C46.4851 51.3107 46.4988 51.3722 46.5261 51.428C46.5534 51.4838 46.5934 51.5324 46.6429 51.5699L48.4208 53.0639C48.5746 53.1828 48.7642 53.246 48.9586 53.2432C49.0781 53.2437 49.1959 53.2155 49.3023 53.161L51.2146 52.0554C51.2662 52.0281 51.3094 51.9872 51.3395 51.9372C51.3696 51.8872 51.3855 51.8299 51.3855 51.7716C51.3855 51.7132 51.3696 51.6559 51.3395 51.6059C51.3094 51.5559 51.2662 51.515 51.2146 51.4877L49.4442 49.9937C49.2893 49.8705 49.0967 49.8045 48.8989 49.8069C48.7759 49.8045 48.6545 49.8354 48.5478 49.8965L46.6578 50.9498C46.6062 50.9761 46.5625 51.0154 46.531 51.064C46.4995 51.1125 46.4814 51.1685 46.4785 51.2262L46.486 51.2486ZM43.5876 48.7835C43.5873 48.8444 43.6013 48.9046 43.6286 48.9591C43.6558 49.0136 43.6955 49.0609 43.7444 49.0972L45.5223 50.5913C45.6772 50.7145 45.8698 50.7804 46.0676 50.778C46.1871 50.7785 46.305 50.7503 46.4113 50.6959L48.3162 49.5903C48.3646 49.565 48.4066 49.5289 48.439 49.4849C48.4713 49.4409 48.4932 49.39 48.5029 49.3363C48.5024 49.2737 48.4872 49.212 48.4587 49.1563C48.4302 49.1005 48.389 49.0522 48.3386 49.0151L46.5682 47.521C46.4169 47.3967 46.2261 47.3304 46.0303 47.3343C45.9072 47.3311 45.7857 47.3621 45.6792 47.4239L43.7743 48.5295C43.7261 48.5503 43.6834 48.582 43.6497 48.6222C43.616 48.6624 43.5921 48.71 43.5801 48.7611L43.5876 48.7835ZM48.742 57.5311C48.864 57.5328 48.9845 57.5046 49.0931 57.4489L50.998 56.3433C51.0469 56.3196 51.089 56.2839 51.1204 56.2395C51.1518 56.195 51.1713 56.1434 51.1773 56.0893C51.1803 56.0287 51.1683 55.9684 51.1422 55.9136C51.1161 55.8588 51.0768 55.8114 51.0279 55.7756L49.25 54.2815C49.0938 54.1616 48.9015 54.0983 48.7046 54.1023C48.5846 54.0966 48.4655 54.1251 48.361 54.1844L46.4486 55.29C46.4017 55.3135 46.3613 55.3483 46.3313 55.3914C46.3013 55.4344 46.2825 55.4844 46.2768 55.5365C46.274 55.5989 46.2869 55.661 46.3143 55.7171C46.3417 55.7732 46.3828 55.8216 46.4337 55.8578L48.2116 57.3518C48.3642 57.4595 48.5478 57.5146 48.7345 57.5087L48.742 57.5311ZM34.078 40.6634C34.0758 40.7246 34.089 40.7855 34.1164 40.8403C34.1438 40.8951 34.1845 40.9422 34.2349 40.9771L36.0128 42.4712C36.1641 42.5955 36.3548 42.6618 36.5506 42.6579C36.6707 42.6644 36.7901 42.6359 36.8943 42.5758L38.7917 41.4851C38.8411 41.4631 38.884 41.4289 38.9167 41.3858C38.9493 41.3427 38.9706 41.2921 38.9784 41.2386C38.9787 41.1766 38.9647 41.1154 38.9375 41.0597C38.9103 41.0039 38.8707 40.9553 38.8216 40.9174L37.0437 39.4233C36.8928 39.3033 36.706 39.2376 36.5133 39.2366C36.3881 39.236 36.2648 39.2668 36.1547 39.3262L34.2498 40.4318C34.2044 40.4533 34.1649 40.4857 34.135 40.5261C34.105 40.5665 34.0854 40.6136 34.078 40.6634ZM36.969 43.1285C36.9687 43.1895 36.9827 43.2496 37.01 43.3041C37.0372 43.3586 37.0769 43.406 37.1258 43.4423L38.9037 44.9363C39.0569 45.0574 39.2464 45.1232 39.4416 45.1231C39.5647 45.1263 39.6862 45.0953 39.7927 45.0334L41.6976 43.9279C41.7452 43.9043 41.7863 43.8696 41.8175 43.8266C41.8488 43.7837 41.8691 43.7339 41.8769 43.6813C41.8797 43.619 41.8668 43.5569 41.8394 43.5007C41.812 43.4446 41.7709 43.3963 41.72 43.3601L39.9421 41.8661C39.7903 41.7488 39.6036 41.6857 39.4117 41.6868C39.2874 41.6857 39.1646 41.7138 39.0532 41.769L37.1482 42.8746C37.0997 42.8988 37.058 42.9347 37.0267 42.979C36.9954 43.0233 36.9756 43.0747 36.969 43.1285ZM10.278 53.2581C10.4318 53.377 10.6214 53.4402 10.8158 53.4374C10.9378 53.4391 11.0584 53.4109 11.1669 53.3552L13.0718 52.2497C13.1217 52.2272 13.1646 52.1918 13.1961 52.1471C13.2276 52.1024 13.2466 52.0501 13.2511 51.9957C13.2529 51.9353 13.2402 51.8753 13.2143 51.8208C13.1883 51.7662 13.1497 51.7186 13.1017 51.6819L11.3238 50.1879C11.1697 50.0625 10.9771 49.994 10.7785 49.9937C10.6579 49.9914 10.539 50.0225 10.4349 50.0833L8.52995 51.1889C8.48114 51.2107 8.43891 51.245 8.40746 51.2883C8.376 51.3315 8.35643 51.3822 8.35067 51.4354C8.34717 51.4979 8.35977 51.5602 8.38723 51.6165C8.4147 51.6727 8.45611 51.721 8.50754 51.7566L10.278 53.2581ZM49.0259 58.4873C48.871 58.3641 48.6784 58.2981 48.4805 58.3005C48.3611 58.3 48.2432 58.3282 48.1369 58.3827L46.2619 59.5107C46.2121 59.5332 46.1691 59.5686 46.1376 59.6132C46.1061 59.6579 46.0871 59.7102 46.0826 59.7647C46.0797 59.826 46.0926 59.8871 46.12 59.942C46.1475 59.997 46.1886 60.0439 46.2395 60.0784L48.0099 61.5725C48.1647 61.6956 48.3574 61.7616 48.5552 61.7592C48.6772 61.7609 48.7978 61.7327 48.9063 61.677L50.8112 60.5714C50.8593 60.5467 50.9008 60.5106 50.932 60.4664C50.9632 60.4222 50.9833 60.3711 50.9905 60.3175C50.9892 60.2557 50.9745 60.1951 50.9474 60.1396C50.9203 60.0841 50.8815 60.0352 50.8336 59.9962L49.0259 58.4873ZM35.5197 66.3085C35.3636 66.1886 35.1713 66.1253 34.9744 66.1293C34.855 66.1288 34.7371 66.157 34.6308 66.2114L32.7184 67.317C32.6699 67.3413 32.6282 67.3772 32.5969 67.4215C32.5656 67.4658 32.5458 67.5172 32.5391 67.571C32.5404 67.6327 32.5551 67.6934 32.5822 67.7489C32.6093 67.8043 32.6481 67.8533 32.696 67.8922L34.4739 69.3863C34.6275 69.5117 34.821 69.578 35.0193 69.573C35.1387 69.5735 35.2566 69.5453 35.3629 69.4909L37.2752 68.3853C37.3226 68.3595 37.3634 68.3232 37.3945 68.2792C37.4256 68.2352 37.4461 68.1845 37.4545 68.1313C37.4537 68.0695 37.4392 68.0086 37.4121 67.9531C37.385 67.8975 37.3459 67.8487 37.2977 67.8101L35.5197 66.3085ZM38.6273 64.5082C38.4707 64.3893 38.2787 64.3262 38.082 64.329C37.9623 64.3259 37.8438 64.3542 37.7384 64.4111L35.8036 65.5391C35.7566 65.5626 35.7163 65.5974 35.6863 65.6405C35.6563 65.6835 35.6375 65.7335 35.6318 65.7856C35.6283 65.8481 35.6409 65.9105 35.6684 65.9667C35.6958 66.0229 35.7373 66.0712 35.7887 66.1069L37.5666 67.6009C37.7197 67.7219 37.9092 67.7878 38.1044 67.7876C38.2242 67.7907 38.3426 67.7623 38.4481 67.7055L40.353 66.5999C40.4014 66.5746 40.4434 66.5385 40.4757 66.4945C40.5081 66.4505 40.53 66.3997 40.5397 66.3459C40.54 66.2839 40.526 66.2227 40.4988 66.167C40.4716 66.1113 40.4319 66.0626 40.3828 66.0247L38.6273 64.5082ZM41.7349 62.7079C41.5784 62.5878 41.3869 62.5222 41.1896 62.5212C41.0666 62.5187 40.9453 62.5497 40.8385 62.6108L38.9336 63.7164C38.8868 63.7409 38.8462 63.7759 38.8151 63.8187C38.7841 63.8614 38.7633 63.9108 38.7544 63.9629C38.7549 64.0255 38.7701 64.0872 38.7986 64.1429C38.8271 64.1987 38.8682 64.247 38.9187 64.2841L40.6891 65.7782C40.8456 65.8983 41.0372 65.9638 41.2344 65.9649C41.3539 65.9654 41.4718 65.9372 41.5781 65.8827L43.483 64.7772C43.5321 64.7528 43.5747 64.717 43.6072 64.6728C43.6397 64.6287 43.6611 64.5773 43.6697 64.5232C43.6689 64.4614 43.6544 64.4005 43.6273 64.345C43.6002 64.2894 43.5611 64.2406 43.5129 64.202L41.7349 62.7079ZM57.019 56.3956L55.241 54.9016C55.0879 54.7805 54.8984 54.7147 54.7032 54.7148C54.5801 54.7116 54.4586 54.7426 54.3521 54.8045L52.4472 55.91C52.3896 55.9291 52.339 55.9649 52.3018 56.0127C52.2645 56.0606 52.2424 56.1185 52.238 56.179C52.2372 56.2411 52.2509 56.3025 52.2782 56.3583C52.3054 56.4141 52.3454 56.4627 52.3949 56.5002L54.1728 57.9942C54.3259 58.1153 54.5155 58.1811 54.7107 58.181C54.8327 58.1827 54.9532 58.1545 55.0618 58.0988L56.9667 56.9932C57.014 56.9675 57.0549 56.9312 57.086 56.8872C57.117 56.8431 57.1376 56.7925 57.146 56.7392C57.1504 56.6796 57.1413 56.6197 57.1193 56.564C57.0973 56.5084 57.063 56.4585 57.019 56.418V56.3956ZM52.1334 56.6795C51.9796 56.5606 51.79 56.4974 51.5956 56.5002C51.4732 56.4943 51.3516 56.5228 51.2445 56.5824L49.3396 57.6879C49.292 57.7115 49.2509 57.7462 49.2197 57.7892C49.1884 57.8321 49.1681 57.882 49.1603 57.9345C49.1594 57.9966 49.1732 58.058 49.2004 58.1138C49.2277 58.1696 49.2677 58.2182 49.3172 58.2557L51.0951 59.7497C51.2511 59.8708 51.443 59.9365 51.6404 59.9365C51.7599 59.937 51.8777 59.9088 51.9841 59.8543L53.8889 58.7487C53.9363 58.723 53.9771 58.6867 54.0082 58.6426C54.0393 58.5986 54.0599 58.548 54.0682 58.4947C54.0704 58.4324 54.0572 58.3706 54.0298 58.3146C54.0025 58.2586 53.9618 58.2101 53.9114 58.1735L52.1334 56.6795ZM45.6269 59.2866C45.7493 59.2924 45.8709 59.264 45.978 59.2044L47.8829 58.0988C47.9305 58.0753 47.9716 58.0405 48.0029 57.9976C48.0341 57.9547 48.0544 57.9048 48.0622 57.8523C48.065 57.7899 48.0521 57.7278 48.0247 57.6717C47.9973 57.6156 47.9562 57.5672 47.9053 57.5311L46.1274 56.037C45.9761 55.9127 45.7854 55.8464 45.5896 55.8503C45.4695 55.8438 45.3501 55.8723 45.2459 55.9325L43.341 57.038C43.2915 57.0619 43.2486 57.0975 43.216 57.1418C43.1835 57.1861 43.1623 57.2377 43.1543 57.292C43.1551 57.3528 43.1697 57.4125 43.1968 57.4668C43.224 57.5212 43.2631 57.5687 43.3111 57.6058L45.0891 59.0998C45.2389 59.2295 45.4289 59.3034 45.6269 59.309V59.2866ZM45.9183 60.2876C45.764 60.1633 45.571 60.0972 45.3729 60.1008C45.2535 60.1003 45.1356 60.1285 45.0293 60.183L43.1244 61.2886C43.0746 61.3111 43.0317 61.3465 43.0001 61.3911C42.9686 61.4358 42.9496 61.4881 42.9451 61.5426C42.9422 61.6039 42.9551 61.665 42.9826 61.7199C43.01 61.7749 43.0512 61.8218 43.102 61.8563L44.8799 63.3504C45.0312 63.4747 45.2219 63.5409 45.4177 63.5371C45.5397 63.5388 45.6603 63.5106 45.7688 63.4549L47.6738 62.3493C47.7219 62.3246 47.7633 62.2885 47.7945 62.2443C47.8257 62.2001 47.8458 62.149 47.853 62.0954C47.8533 62.0334 47.8393 61.9721 47.8121 61.9164C47.7849 61.8607 47.7452 61.812 47.6962 61.7741L45.9183 60.2876ZM32.4047 68.1313C32.2534 68.0069 32.0626 67.9407 31.8668 67.9445C31.7471 67.9415 31.6286 67.9698 31.5232 68.0267L29.6183 69.1323C29.5688 69.1561 29.5259 69.1917 29.4933 69.236C29.4607 69.2803 29.4395 69.3319 29.4315 69.3863C29.4328 69.448 29.4475 69.5087 29.4746 69.5641C29.5017 69.6196 29.5405 69.6685 29.5884 69.7075L31.3663 71.2015C31.5199 71.327 31.7134 71.3932 31.9117 71.3883C32.0311 71.3888 32.149 71.3606 32.2553 71.3061L34.1676 70.2005C34.2156 70.1764 34.2566 70.1404 34.2867 70.0959C34.3168 70.0515 34.3349 70 34.3395 69.9465C34.3416 69.8842 34.3284 69.8224 34.301 69.7664C34.2737 69.7104 34.233 69.6619 34.1826 69.6253L32.4047 68.1313ZM27.1756 44.6151C27.0536 44.6134 26.933 44.6416 26.8245 44.6973L24.9195 45.8029C24.871 45.8271 24.8293 45.863 24.798 45.9073C24.7667 45.9517 24.7469 46.003 24.7403 46.0569C24.7372 46.1174 24.7493 46.1778 24.7754 46.2326C24.8014 46.2874 24.8407 46.3348 24.8897 46.3706L26.6676 47.8647C26.8241 47.9847 27.0156 48.0503 27.2129 48.0514C27.3434 48.0581 27.4731 48.0269 27.5864 47.9618L29.4913 46.8562C29.5381 46.8316 29.5787 46.7966 29.6098 46.7539C29.6409 46.7111 29.6617 46.6618 29.6706 46.6097C29.67 46.547 29.6549 46.4854 29.6263 46.4296C29.5978 46.3739 29.5567 46.3256 29.5063 46.2884L27.7358 44.7944C27.5799 44.6749 27.3868 44.614 27.1905 44.6226L27.1756 44.6151ZM33.8987 41.1938C33.7469 41.0765 33.5602 41.0133 33.3683 41.0145C33.2438 41.0116 33.1206 41.0398 33.0098 41.0967L31.1049 42.2022C31.0563 42.2265 31.0146 42.2624 30.9833 42.3067C30.952 42.351 30.9322 42.4024 30.9256 42.4562C30.9253 42.5172 30.9393 42.5773 30.9666 42.6318C30.9938 42.6863 31.0335 42.7337 31.0825 42.77L32.8604 44.264C33.0109 44.3905 33.2016 44.4593 33.3982 44.4582C33.519 44.4625 33.6385 44.4313 33.7418 44.3686L35.6542 43.263C35.7018 43.2395 35.7429 43.2047 35.7742 43.1618C35.8054 43.1189 35.8257 43.069 35.8335 43.0165C35.8338 42.9545 35.8198 42.8933 35.7926 42.8376C35.7654 42.7818 35.7257 42.7332 35.6766 42.6953L33.8987 41.1938ZM22.9624 47.0429C22.8404 47.0412 22.7198 47.0694 22.6113 47.1251L20.6989 48.2307C20.6504 48.2549 20.6086 48.2908 20.5773 48.3351C20.546 48.3795 20.5262 48.4308 20.5196 48.4847C20.5193 48.5456 20.5334 48.6058 20.5606 48.6603C20.5879 48.7148 20.6276 48.7621 20.6765 48.7984L22.4544 50.2925C22.6079 50.4189 22.8008 50.4876 22.9997 50.4867C23.1203 50.4889 23.2392 50.4579 23.3433 50.397L25.2482 49.2915C25.297 49.2696 25.3393 49.2353 25.3707 49.1921C25.4022 49.1488 25.4217 49.0981 25.4275 49.0449C25.431 48.9825 25.4184 48.9201 25.391 48.8639C25.3635 48.8076 25.3221 48.7594 25.2706 48.7237L23.4927 47.2297C23.3536 47.1205 23.1838 47.0578 23.0072 47.0504L22.9624 47.0429ZM30.2533 42.8148C30.1313 42.8131 30.0107 42.8413 29.9022 42.897L27.9973 44.0026C27.9499 44.0283 27.9091 44.0646 27.878 44.1086C27.8469 44.1527 27.8264 44.2033 27.818 44.2565C27.8149 44.3171 27.827 44.3775 27.8531 44.4323C27.8792 44.487 27.9184 44.5345 27.9674 44.5703L29.7453 46.0643C29.9007 46.1865 30.0929 46.2523 30.2906 46.2511C30.4114 46.2545 30.5305 46.2234 30.6342 46.1614L32.5466 45.0559C32.5936 45.0324 32.6339 44.9976 32.664 44.9545C32.694 44.9114 32.7127 44.8615 32.7184 44.8093C32.7212 44.747 32.7083 44.6849 32.6809 44.6287C32.6535 44.5726 32.6125 44.5243 32.5616 44.4881L30.7836 42.9941C30.6449 42.8853 30.4744 42.825 30.2981 42.8223L30.2533 42.8148ZM19.8548 48.8432C19.7328 48.8416 19.6122 48.8698 19.5037 48.9254L17.5913 50.031C17.5435 50.0563 17.5024 50.0924 17.4713 50.1366C17.4401 50.1807 17.4198 50.2315 17.412 50.285C17.4117 50.3459 17.4258 50.4061 17.453 50.4606C17.4803 50.5151 17.52 50.5624 17.5689 50.5987L19.3468 52.0928C19.5009 52.2181 19.6935 52.2867 19.8921 52.287C20.0127 52.2892 20.1316 52.2582 20.2357 52.1974L22.1406 51.0918C22.1882 51.0682 22.2294 51.0335 22.2606 50.9906C22.2918 50.9476 22.3122 50.8978 22.3199 50.8453C22.3234 50.7828 22.3108 50.7204 22.2834 50.6642C22.2559 50.608 22.2145 50.5597 22.163 50.524L20.3926 49.03C20.251 48.9203 20.0786 48.8576 19.8996 48.8507L19.8548 48.8432ZM13.6844 52.4439C13.5624 52.4422 13.4419 52.4704 13.3333 52.526L11.4284 53.6316C11.38 53.6569 11.338 53.693 11.3056 53.737C11.2732 53.781 11.2513 53.8319 11.2416 53.8856C11.2401 53.9468 11.2536 54.0074 11.281 54.0621C11.3083 54.1168 11.3487 54.1639 11.3985 54.1994L13.1764 55.6934C13.3295 55.8145 13.5191 55.8803 13.7143 55.8802C13.8373 55.8834 13.9589 55.8523 14.0654 55.7905L15.9703 54.6849C16.0178 54.6614 16.059 54.6266 16.0902 54.5837C16.1214 54.5408 16.1418 54.4909 16.1495 54.4384C16.1498 54.3764 16.1358 54.3152 16.1086 54.2595C16.0814 54.2038 16.0418 54.1551 15.9927 54.1172L14.2148 52.6232C14.0644 52.5032 13.8767 52.4397 13.6844 52.4439ZM16.792 50.6436C16.67 50.6419 16.5494 50.6701 16.4409 50.7257L14.536 51.8313C14.4868 51.8557 14.4443 51.8914 14.4118 51.9356C14.3793 51.9798 14.3578 52.0311 14.3492 52.0853C14.3477 52.1464 14.3612 52.207 14.3886 52.2617C14.4159 52.3164 14.4563 52.3636 14.5061 52.3991L16.284 53.8931C16.4371 54.0141 16.6267 54.08 16.8219 54.0798C16.9449 54.0831 17.0665 54.052 17.173 53.9902L19.0779 52.8846C19.1267 52.8628 19.1689 52.8285 19.2003 52.7852C19.2318 52.742 19.2514 52.6913 19.2571 52.6381C19.2606 52.5756 19.248 52.5133 19.2206 52.457C19.1931 52.4008 19.1517 52.3525 19.1003 52.3169L17.3298 50.8228C17.175 50.7066 16.9855 50.6461 16.792 50.651V50.6436ZM45.8436 55.036C45.963 55.0365 46.0809 55.0083 46.1872 54.9539L48.0995 53.8483C48.1477 53.8235 48.1891 53.7875 48.2203 53.7432C48.2515 53.699 48.2716 53.6479 48.2788 53.5943C48.2804 53.5331 48.2669 53.4726 48.2395 53.4179C48.2122 53.3631 48.1718 53.316 48.122 53.2805L46.3515 51.7865C46.195 51.6664 46.0035 51.6008 45.8062 51.5997C45.6832 51.5973 45.5619 51.6283 45.4551 51.6894L43.5502 52.795C43.5026 52.8185 43.4615 52.8533 43.4303 52.8962C43.399 52.9391 43.3787 52.989 43.3709 53.0415C43.3696 53.1044 43.384 53.1667 43.4127 53.2228C43.4413 53.2788 43.4835 53.3269 43.5353 53.3627L45.3057 54.8568C45.4585 54.9783 45.6483 55.0442 45.8436 55.0435V55.036ZM42.7285 56.8363C42.853 56.8393 42.9762 56.811 43.0871 56.7542L44.9919 55.6486C45.0395 55.625 45.0807 55.5903 45.1119 55.5474C45.1431 55.5044 45.1635 55.4546 45.1712 55.4021C45.1721 55.34 45.1584 55.2785 45.1311 55.2227C45.1039 55.1669 45.0639 55.1183 45.0144 55.0809L43.2365 53.5868C43.0859 53.4603 42.8953 53.3915 42.6986 53.3926C42.5755 53.3894 42.454 53.4204 42.3475 53.4822L40.4426 54.5878C40.3941 54.6121 40.3523 54.648 40.321 54.6923C40.2898 54.7366 40.2699 54.788 40.2633 54.8418C40.2604 54.9032 40.2733 54.9642 40.3008 55.0192C40.3282 55.0741 40.3694 55.1211 40.4202 55.1556L42.1981 56.6496C42.3473 56.7733 42.5346 56.8419 42.7285 56.8438V56.8363ZM39.6209 58.6441C39.746 58.6448 39.8693 58.6139 39.9794 58.5545L41.8844 57.4489C41.9319 57.4253 41.9731 57.3906 42.0043 57.3477C42.0355 57.3048 42.0559 57.2549 42.0636 57.2024C42.0645 57.1403 42.0508 57.0789 42.0235 57.0231C41.9963 56.9673 41.9563 56.9187 41.9068 56.8812L40.1289 55.3871C39.9783 55.2607 39.7877 55.1918 39.591 55.1929C39.4702 55.1886 39.3507 55.2198 39.2474 55.2826L37.335 56.3881C37.2874 56.4117 37.2463 56.4464 37.2151 56.4894C37.1838 56.5323 37.1635 56.5821 37.1557 56.6347C37.156 56.6908 37.1689 56.7461 37.1934 56.7965C37.218 56.847 37.2536 56.8912 37.2977 56.926L39.0756 58.42C39.2241 58.5594 39.4174 58.6415 39.6209 58.6516V58.6441ZM39.7329 46.1316C39.5816 46.0072 39.3909 45.941 39.1951 45.9448C39.0731 45.9431 38.9526 45.9713 38.844 46.027L36.9391 47.1326C36.8892 47.1551 36.8464 47.1905 36.8148 47.2351C36.7833 47.2798 36.7643 47.3321 36.7598 47.3866C36.7569 47.4479 36.7698 47.509 36.7973 47.5639C36.8247 47.6189 36.8658 47.6658 36.9167 47.7003L38.6946 49.1943C38.8439 49.317 39.0317 49.3832 39.225 49.3811C39.348 49.3843 39.4696 49.3533 39.5761 49.2915L41.481 48.1859C41.5296 48.1627 41.5719 48.1283 41.6044 48.0854C41.6369 48.0425 41.6586 47.9924 41.6677 47.9394C41.6686 47.8773 41.6548 47.8158 41.6276 47.76C41.6003 47.7042 41.5604 47.6556 41.5109 47.6181L39.7329 46.1316ZM36.8345 43.6589C36.6833 43.5406 36.4962 43.4773 36.3041 43.4796C36.1821 43.478 36.0616 43.5062 35.953 43.5618L34.0407 44.6674C33.9925 44.6922 33.9511 44.7282 33.9199 44.7724C33.8887 44.8167 33.8686 44.8678 33.8614 44.9214C33.8611 44.9823 33.8751 45.0425 33.9024 45.097C33.9296 45.1515 33.9693 45.1988 34.0182 45.2351L35.7961 46.7292C35.9474 46.8545 36.1376 46.9232 36.334 46.9234C36.4571 46.9266 36.5786 46.8956 36.6851 46.8338L38.59 45.7207C38.6376 45.6971 38.6787 45.6624 38.7099 45.6195C38.7412 45.5766 38.7615 45.5267 38.7693 45.4742C38.7721 45.4118 38.7592 45.3497 38.7318 45.2936C38.7044 45.2375 38.6633 45.1891 38.6124 45.153L36.8345 43.6589ZM43.4531 49.2989C43.3018 49.1746 43.111 49.1083 42.9152 49.1122C42.7922 49.109 42.6706 49.14 42.5641 49.2018L40.6592 50.3074C40.6104 50.3293 40.5682 50.3635 40.5368 50.4068C40.5053 50.45 40.4857 50.5008 40.48 50.5539C40.4763 50.6154 40.4889 50.6767 40.5164 50.7318C40.5439 50.7869 40.5855 50.8337 40.6368 50.8677L42.4073 52.3617C42.5621 52.4849 42.7547 52.5509 42.9526 52.5485C43.0721 52.5489 43.1899 52.5208 43.2962 52.4663L45.2011 51.3607C45.2509 51.3382 45.2938 51.3028 45.3254 51.2581C45.3569 51.2135 45.3759 51.1612 45.3804 51.1067C45.3832 51.0443 45.3703 50.9822 45.3429 50.9261C45.3155 50.87 45.2744 50.8217 45.2235 50.7855L43.4531 49.2989ZM32.1133 67.1377C32.2364 67.1409 32.358 67.1099 32.4644 67.0481L34.3768 65.9425C34.4253 65.9183 34.4671 65.8824 34.4984 65.8381C34.5297 65.7937 34.5495 65.7424 34.5561 65.6885C34.5576 65.6274 34.5441 65.5668 34.5168 65.5121C34.4894 65.4574 34.4491 65.4102 34.3992 65.3748L32.6288 63.8807C32.4713 63.7633 32.2799 63.7004 32.0835 63.7015C31.961 63.6956 31.8394 63.724 31.7324 63.7836L29.8275 64.8743C29.7789 64.8985 29.7372 64.9344 29.7059 64.9787C29.6746 65.023 29.6548 65.0744 29.6482 65.1283C29.6473 65.1893 29.6611 65.2497 29.6884 65.3043C29.7157 65.3589 29.7557 65.4061 29.8051 65.442L31.583 66.936C31.7301 67.0652 31.9176 67.1391 32.1133 67.1452V67.1377ZM42.5268 61.1168C42.6498 61.1192 42.7711 61.0882 42.8779 61.0271L44.7678 59.9141C44.8166 59.8922 44.8589 59.8579 44.8903 59.8147C44.9218 59.7714 44.9414 59.7207 44.9471 59.6675C44.9499 59.6052 44.937 59.5431 44.9096 59.487C44.8822 59.4308 44.8412 59.3825 44.7903 59.3463L43.0198 57.8523C42.865 57.7291 42.6723 57.6631 42.4745 57.6655C42.355 57.6651 42.2372 57.6932 42.1309 57.7477L40.226 58.8533C40.1756 58.876 40.132 58.9113 40.0993 58.9558C40.0666 59.0003 40.0459 59.0525 40.0392 59.1073C40.0401 59.168 40.0546 59.2278 40.0818 59.2821C40.1089 59.3364 40.148 59.3839 40.1961 59.421L41.974 60.9151C42.1291 61.0447 42.3246 61.1161 42.5268 61.1168ZM38.3435 63.5371C38.4629 63.5376 38.5808 63.5094 38.6871 63.4549L40.592 62.3493C40.6419 62.3261 40.6852 62.2906 40.7178 62.2462C40.7505 62.2018 40.7714 62.15 40.7788 62.0954C40.7791 62.0344 40.765 61.9743 40.7378 61.9198C40.7105 61.8653 40.6708 61.8179 40.6219 61.7816L38.844 60.2876C38.6909 60.1665 38.5013 60.1007 38.3061 60.1008C38.1831 60.0976 38.0615 60.1287 37.955 60.1905L36.0501 61.2961C36.0026 61.3196 35.9614 61.3543 35.9302 61.3973C35.899 61.4402 35.8786 61.4901 35.8708 61.5426C35.87 61.6047 35.8837 61.6661 35.911 61.7219C35.9382 61.7777 35.9782 61.8263 36.0277 61.8638L37.8056 63.3578C37.9574 63.4751 38.1442 63.5382 38.336 63.5371H38.3435ZM35.2359 65.3374C35.3553 65.3379 35.4732 65.3097 35.5795 65.2553L37.4919 64.1497C37.5404 64.1254 37.5822 64.0895 37.6134 64.0452C37.6447 64.0009 37.6646 63.9495 37.6712 63.8957C37.6727 63.8345 37.6592 63.7739 37.6318 63.7192C37.6045 63.6645 37.5641 63.6174 37.5143 63.5819L35.7439 62.0879C35.5864 61.9705 35.395 61.9075 35.1985 61.9086C35.0761 61.9027 34.9545 61.9312 34.8474 61.9908L32.9425 63.0964C32.895 63.1199 32.8538 63.1547 32.8226 63.1976C32.7914 63.2405 32.771 63.2904 32.7632 63.3429C32.764 63.4047 32.7785 63.4656 32.8056 63.5211C32.8328 63.5766 32.8719 63.6255 32.9201 63.6641L34.698 65.1581C34.8498 65.2754 35.0366 65.3386 35.2284 65.3374H35.2359ZM29.0132 68.9455C29.1364 68.95 29.2583 68.9188 29.3643 68.8559L31.2767 67.7503C31.3243 67.7267 31.3654 67.692 31.3966 67.6491C31.4278 67.6061 31.4482 67.5563 31.456 67.5038C31.4568 67.4417 31.4431 67.3803 31.4158 67.3245C31.3886 67.2687 31.3486 67.2201 31.2991 67.1826L29.5212 65.6885C29.3699 65.5642 29.1791 65.4979 28.9833 65.5018C28.8613 65.5001 28.7408 65.5283 28.6322 65.5839L26.7273 66.6895C26.6788 66.7138 26.637 66.7497 26.6058 66.794C26.5745 66.8383 26.5546 66.8897 26.548 66.9435C26.5471 67.0046 26.5609 67.0649 26.5882 67.1195C26.6155 67.1741 26.6556 67.2214 26.7049 67.2573L28.4828 68.7513C28.6301 68.8734 28.8145 68.9419 29.0057 68.9455H29.0132ZM35.445 61.0719C35.567 61.0736 35.6876 61.0454 35.7961 60.9898L37.6936 59.9141C37.7427 59.8897 37.7853 59.8539 37.8178 59.8098C37.8503 59.7656 37.8717 59.7143 37.8803 59.6601C37.8819 59.5989 37.8684 59.5383 37.841 59.4836C37.8137 59.4289 37.7733 59.3818 37.7235 59.3463L35.9456 57.8523C35.7924 57.7312 35.6029 57.6654 35.4077 57.6655C35.2921 57.6365 35.1708 57.6391 35.0566 57.673L33.1442 58.7786C33.0974 58.8031 33.0568 58.8381 33.0258 58.8809C32.9947 58.9236 32.9739 58.973 32.965 59.0251C32.9655 59.0877 32.9807 59.1494 33.0092 59.2051C33.0377 59.2609 33.0788 59.3092 33.1293 59.3463L34.9072 60.8404C35.0519 60.9766 35.2393 61.0584 35.4376 61.0719H35.445Z" fill="url(#paint18_linear_216_879)"/>
<path d="M22.2755 81.8165C22.2755 82.1303 22.0589 82.2573 21.7825 82.1004C21.6407 82.0062 21.5229 81.8801 21.4386 81.7322C21.3543 81.5844 21.3057 81.4188 21.2969 81.2488C21.2969 80.9351 21.5135 80.8081 21.7825 80.9649C21.9265 81.0574 22.0463 81.1829 22.1321 81.3311C22.2178 81.4792 22.267 81.6456 22.2755 81.8165Z" fill="#C2C4C4"/>
<path d="M38.7246 72.3222C38.7246 72.6359 38.5005 72.7629 38.2316 72.606C38.0888 72.5122 37.9699 72.3864 37.8843 72.2385C37.7987 72.0907 37.7488 71.9249 37.7385 71.7544C37.7385 71.4407 37.9626 71.3137 38.2316 71.4706C38.3743 71.5644 38.4932 71.6902 38.5788 71.838C38.6644 71.9859 38.7143 72.1516 38.7246 72.3222Z" fill="#C2C4C4"/>
<defs>
<linearGradient id="paint0_linear_216_879" x1="9.03487" y1="17.3433" x2="5.00458" y2="17.994" gradientUnits="userSpaceOnUse">
<stop stop-color="#2137FF"/>
<stop offset="1" stop-color="#0047FF"/>
</linearGradient>
<linearGradient id="paint1_linear_216_879" x1="9.0156" y1="11.9722" x2="8.7061" y2="13.3552" gradientUnits="userSpaceOnUse">
<stop stop-color="#2137FF"/>
<stop offset="1" stop-color="#0047FF"/>
</linearGradient>
<linearGradient id="paint2_linear_216_879" x1="12.2506" y1="16.2019" x2="8.65" y2="16.8891" gradientUnits="userSpaceOnUse">
<stop stop-color="#E4E7FF"/>
<stop offset="1" stop-color="#2137FF"/>
</linearGradient>
<linearGradient id="paint3_linear_216_879" x1="8.05172" y1="15.5579" x2="4.59116" y2="16.9284" gradientUnits="userSpaceOnUse">
<stop stop-color="#E4E7FF"/>
<stop offset="1" stop-color="#2137FF"/>
</linearGradient>
<linearGradient id="paint4_linear_216_879" x1="24.2248" y1="18.6451" x2="20.1044" y2="25.4569" gradientUnits="userSpaceOnUse">
<stop stop-color="#E4E7FF"/>
<stop offset="1" stop-color="#2137FF"/>
</linearGradient>
<linearGradient id="paint5_linear_216_879" x1="12.9716" y1="16.1199" x2="12.3969" y2="17.3992" gradientUnits="userSpaceOnUse">
<stop stop-color="#2137FF"/>
<stop offset="1" stop-color="#0047FF"/>
</linearGradient>
<linearGradient id="paint6_linear_216_879" x1="14.7149" y1="18.302" x2="12.3353" y2="18.9768" gradientUnits="userSpaceOnUse">
<stop stop-color="#E4E7FF"/>
<stop offset="1" stop-color="#2137FF"/>
</linearGradient>
<linearGradient id="paint7_linear_216_879" x1="12.3258" y1="16.4344" x2="15.3755" y2="16.8273" gradientUnits="userSpaceOnUse">
<stop stop-color="#E4E7FF"/>
<stop offset="1" stop-color="#2137FF"/>
</linearGradient>
<linearGradient id="paint8_linear_216_879" x1="10.152" y1="25.8075" x2="-3.80287" y2="29.1794" gradientUnits="userSpaceOnUse">
<stop stop-color="#E4E7FF"/>
<stop offset="1" stop-color="#2137FF"/>
</linearGradient>
<linearGradient id="paint9_linear_216_879" x1="41.2869" y1="70.2526" x2="42.0264" y2="70.2526" gradientUnits="userSpaceOnUse">
<stop stop-color="#27262A"/>
<stop offset="0.6" stop-color="#2F2F34"/>
<stop offset="1" stop-color="#37373D"/>
</linearGradient>
<linearGradient id="paint10_linear_216_879" x1="39.3674" y1="50.6436" x2="41.4516" y2="50.6436" gradientUnits="userSpaceOnUse">
<stop stop-color="#27262A"/>
<stop offset="0.6" stop-color="#2F2F34"/>
<stop offset="1" stop-color="#37373D"/>
</linearGradient>
<linearGradient id="paint11_linear_216_879" x1="38.9116" y1="71.6274" x2="39.6512" y2="71.6274" gradientUnits="userSpaceOnUse">
<stop stop-color="#27262A"/>
<stop offset="0.6" stop-color="#2F2F34"/>
<stop offset="1" stop-color="#37373D"/>
</linearGradient>
<linearGradient id="paint12_linear_216_879" x1="24.905" y1="79.7176" x2="25.6446" y2="79.7176" gradientUnits="userSpaceOnUse">
<stop stop-color="#27262A"/>
<stop offset="0.6" stop-color="#2F2F34"/>
<stop offset="1" stop-color="#37373D"/>
</linearGradient>
<linearGradient id="paint13_linear_216_879" x1="22.9775" y1="60.1006" x2="25.0617" y2="60.1006" gradientUnits="userSpaceOnUse">
<stop stop-color="#27262A"/>
<stop offset="0.6" stop-color="#2F2F34"/>
<stop offset="1" stop-color="#37373D"/>
</linearGradient>
<linearGradient id="paint14_linear_216_879" x1="22.522" y1="81.0919" x2="23.2615" y2="81.0919" gradientUnits="userSpaceOnUse">
<stop stop-color="#27262A"/>
<stop offset="0.6" stop-color="#2F2F34"/>
<stop offset="1" stop-color="#37373D"/>
</linearGradient>
<linearGradient id="paint15_linear_216_879" x1="23.8552" y1="64.7888" x2="9.42363" y2="68.9161" gradientUnits="userSpaceOnUse">
<stop stop-color="#E4E7FF"/>
<stop offset="1" stop-color="#2137FF"/>
</linearGradient>
<linearGradient id="paint16_linear_216_879" x1="54.8636" y1="65.03" x2="28.0554" y2="79.0406" gradientUnits="userSpaceOnUse">
<stop stop-color="#E4E7FF"/>
<stop offset="1" stop-color="#2137FF"/>
</linearGradient>
<linearGradient id="paint17_linear_216_879" x1="36.5988" y1="35.6506" x2="31.4914" y2="51.0539" gradientUnits="userSpaceOnUse">
<stop stop-color="#2137FF"/>
<stop offset="1" stop-color="#0047FF"/>
</linearGradient>
<linearGradient id="paint18_linear_216_879" x1="48.3826" y1="52.1025" x2="-0.13306" y2="73.8245" gradientUnits="userSpaceOnUse">
<stop stop-color="#E4E7FF"/>
<stop offset="1" stop-color="#2137FF"/>
</linearGradient>
</defs>
</svg>
