<svg width="52" height="80" viewBox="0 0 52 80" fill="none" xmlns="http://www.w3.org/2000/svg">
<g clip-path="url(#clip0_216_1913)">
<path d="M22.2774 46.5252L21.5608 44.6826C21.869 45.367 22.3944 45.9307 23.0554 46.2864C24.3354 46.9536 25.7551 47.3088 27.1985 47.323C28.6419 47.3372 30.0682 47.0101 31.3611 46.3683C32.1007 46.008 32.6901 45.3992 33.0264 44.6484L32.3439 46.498C32.0489 47.1563 31.532 47.6902 30.8834 48.0062C29.7514 48.5697 28.5021 48.8573 27.2376 48.8455C25.9732 48.8336 24.7295 48.5226 23.6082 47.938C23.0281 47.6238 22.5676 47.1273 22.2979 46.5252H22.2774Z" fill="url(#paint0_linear_216_1913)"/>
<path d="M16.6539 45.4743C15.1389 44.5639 13.7486 43.4605 12.5181 42.1916C11.366 41.0082 10.3601 39.6907 9.52207 38.2674C8.60135 36.7092 7.8965 35.0332 7.42686 33.2853C6.99942 31.6466 6.77029 29.9625 6.74438 28.2691C6.80581 31.1901 8.70309 34.0974 12.4635 36.3633C20.3188 41.086 33.3132 41.2225 41.5029 36.6567C45.6592 34.3363 47.7748 31.2447 47.8158 28.1531C47.7748 28.9993 47.6998 30.1391 47.5838 30.9854C47.4675 31.7463 47.3103 32.5004 47.1128 33.2443C46.6621 34.935 45.9921 36.5594 45.12 38.0763C44.6686 38.8511 44.1718 39.5986 43.6322 40.3148C42.9535 41.2034 42.2049 42.0363 41.3937 42.8058C38.9873 45.0746 36.0708 46.7318 32.89 47.6378C31.893 47.9216 30.8753 48.1269 29.8462 48.252C27.0131 48.6186 24.1346 48.3861 21.3971 47.5695C19.7482 47.071 18.1667 46.3719 16.6881 45.488L16.6539 45.4743Z" fill="#171552"/>
<path d="M16.9541 45.6449C16.5815 45.4274 16.2296 45.1761 15.9031 44.8941L15.6847 44.7645L15.4663 44.628C15.7373 44.8651 16.0272 45.0796 16.333 45.2695L16.6606 45.4743L16.9541 45.6449ZM15.5892 44.6007C13.9307 42.9832 12.9002 40.4444 12.7432 37.0935L12.4634 36.9297L12.1836 36.759C12.3406 40.0759 13.4121 42.642 15.1319 44.2663L15.3571 44.4096L15.5892 44.5461V44.6007Z" fill="url(#paint1_linear_216_1913)"/>
<path d="M34.5756 47.0645C35.1432 46.8429 35.6572 46.5032 36.0838 46.0681L35.5652 46.2592C35.146 46.7032 34.6298 47.0443 34.0569 47.2556L34.5756 47.0645ZM36.3364 45.8088C37.6058 44.3619 38.3838 41.9255 38.493 38.6223L37.8105 38.868C37.715 42.1644 36.9779 44.5872 35.7631 45.9999L36.3022 45.8088H36.3364Z" fill="url(#paint2_linear_216_1913)"/>
<path d="M40.6156 43.4677L41.339 42.8193C40.5476 43.5493 39.6697 44.1796 38.7251 44.6961C37.9575 45.1255 37.159 45.4973 36.3364 45.8086L35.7973 45.9997C29.4161 48.245 21.049 47.7536 15.5892 44.6006L15.3571 44.4641L15.1319 44.3208C14.4532 43.902 13.8156 43.4198 13.2278 42.8808L13.4667 43.0992L14.0809 43.6315C16.1153 45.2147 18.4771 46.3245 20.9944 46.8801C25.8147 48.0311 30.8604 47.8161 35.5652 46.259L36.0839 46.0679C36.8859 45.7681 37.6639 45.4076 38.4112 44.9896C39.1713 44.5711 39.889 44.0797 40.5541 43.5223L40.6156 43.4677Z" fill="url(#paint3_linear_216_1913)"/>
<path d="M48.382 26.8087V29.1359C48.382 26.0989 46.4233 23.0551 42.499 20.6937V18.3596C46.4233 20.721 48.3751 23.7648 48.382 26.8087Z" fill="url(#paint4_linear_216_1913)"/>
<path d="M42.4993 18.3595V20.7004C34.4187 15.8344 21.0354 15.7047 12.6136 20.4001C8.27991 22.8161 6.10281 26.0442 6.10964 29.2723V26.9383C6.10964 23.7101 8.27308 20.482 12.6136 18.0661C21.0354 13.3706 34.4529 13.5071 42.4993 18.3664V18.3595Z" fill="url(#paint5_linear_216_1913)"/>
<path d="M17.2475 9.93784C20.4051 8.17484 23.9726 7.27785 27.5886 7.33778C31.2045 7.3977 34.7403 8.41241 37.8378 10.2791C35.9741 9.2225 33.7788 8.91272 31.6955 9.41233C30.3376 8.70667 28.832 8.33261 27.3017 8.32074C25.7715 8.30888 24.2602 8.65956 22.8916 9.34409C20.4142 10.709 20.3323 13.009 22.7141 14.4422C24.0702 15.1478 25.5735 15.5236 27.1021 15.539C28.6306 15.5544 30.1412 15.209 31.5112 14.5309C33.9886 13.166 34.0705 10.866 31.6955 9.43281C33.7788 8.93319 35.9741 9.24297 37.8378 10.2996C38.4725 10.7022 39.3119 11.2482 39.8852 11.7191C40.631 12.2998 41.3356 12.9315 41.9941 13.6096C43.1279 14.7837 44.1197 16.0871 44.9492 17.4929C45.8448 19.0264 46.5333 20.6718 46.9966 22.3862C47.1747 22.9913 47.316 23.6067 47.4198 24.2289C47.6164 25.3079 47.7237 26.4013 47.7405 27.498C47.8019 30.6715 45.6931 33.8518 41.4208 36.2268C33.2311 40.7926 20.264 40.6629 12.3883 35.9334C8.52544 33.6129 6.62816 30.61 6.66911 27.6208C6.69839 26.6825 6.77584 25.7462 6.90116 24.8158C7.0702 23.734 7.32813 22.668 7.67235 21.6287C7.82932 21.0895 8.10913 20.3934 8.31388 19.8747C8.47084 19.4993 8.70971 19.0148 8.88033 18.6462C9.1192 18.1276 9.52186 17.4792 9.81532 16.9878C10.3962 16.0463 11.056 15.1559 11.7877 14.3262C12.2739 13.7762 12.7888 13.2523 13.3301 12.7565C14.5163 11.6571 15.8317 10.7061 17.2475 9.92419V9.93784Z" fill="url(#paint6_linear_216_1913)"/>
<path d="M37.4284 10.0265C35.7799 9.13061 33.8673 8.84772 32.03 9.22796L32.1529 9.30303C34.0968 8.93716 36.1075 9.2759 37.8242 10.2585L37.4284 10.0265Z" fill="#C3C3C3"/>
<path d="M16.8857 10.1424C18.5447 9.2132 20.4822 8.91048 22.3456 9.28928L22.4547 9.22786L22.5708 9.16644C20.8974 8.76798 19.1369 8.97595 17.6023 9.75337L17.2611 9.93764L16.8994 10.1424H16.8857Z" fill="#231889"/>
<path d="M20.6258 13.2819C19.8955 11.917 20.4756 10.3678 22.332 9.28944L22.4412 9.22802L22.5572 9.1666C24.0402 8.45658 25.6658 8.09485 27.3099 8.10904C28.954 8.12324 30.5731 8.51298 32.0436 9.2485L32.1664 9.32357L31.6955 9.41229C30.3377 8.70663 28.832 8.33256 27.3018 8.3207C25.7715 8.30884 24.2602 8.65952 22.8916 9.34404C21.1376 10.32 20.5848 11.7464 21.2537 13.0089L20.6258 13.3024V13.2819Z" fill="#231889"/>
<path d="M12.6818 35.4556C12.8965 31.7814 13.8236 28.1839 15.4117 24.8636L15.2138 24.7476L14.893 24.5497C13.2392 27.8254 12.2708 31.4039 12.0471 35.0666L12.443 35.3123L12.6818 35.4556ZM15.7257 24.2016C17.3873 20.758 19.6159 17.6181 22.3184 14.9131L22.2365 14.8653L22.1 14.7834C19.2958 17.3984 16.9679 20.4814 15.2206 23.8945L15.5346 24.0924L15.7257 24.2016Z" fill="#231889"/>
<path d="M41.6255 35.5034C41.3954 31.8294 40.469 28.2326 38.8956 24.9046L38.7523 24.9865L38.3428 25.2049C39.8527 28.5733 40.7406 32.1873 40.9635 35.872L41.4617 35.6058L41.6392 35.5034H41.6255ZM38.568 24.2426C36.9166 20.8004 34.7074 17.655 32.0299 14.9336H31.9685L31.7979 15.0291C34.3664 17.8384 36.472 21.0382 38.0357 24.5087L38.4315 24.2972L38.568 24.2153V24.2426Z" fill="#231889"/>
<path d="M32.3509 9.43945C32.1871 9.43945 32.0165 9.4804 31.8527 9.51453C34.0639 10.9477 33.9001 13.1589 31.5115 14.5103C30.1415 15.1884 28.6308 15.5337 27.1023 15.5183C25.5737 15.5029 24.0704 15.1271 22.7144 14.4215C22.1091 14.0816 21.6051 13.587 21.2539 12.9883L20.626 13.2818C20.9782 13.9021 21.4863 14.4197 22.1001 14.7832L22.2366 14.8651L22.3185 14.9129C23.7831 15.658 25.3987 16.0582 27.0417 16.0831C28.6847 16.1079 30.3117 15.7567 31.7981 15.0562L31.9687 14.9607H32.0301C34.6509 13.4592 34.76 11.0433 32.3509 9.50088V9.43945Z" fill="#231889"/>
<path d="M47.7816 27.4776C47.8431 30.6511 45.7342 33.8314 41.4619 36.2064C33.2722 40.7722 20.3051 40.6425 12.4294 35.913C10.429 34.8044 8.76635 33.1747 7.61792 31.197C7.61792 30.9923 7.61792 30.7944 7.61792 30.5965C8.67947 32.4403 10.1978 33.9797 12.0267 35.0667L12.4225 35.3124L12.6614 35.4557C20.3666 39.9396 32.8149 40.1102 40.9296 35.872L41.4278 35.6058L41.6052 35.5035C45.8775 33.067 47.9249 29.8116 47.7475 26.5903L47.7816 27.4776Z" fill="url(#paint7_linear_216_1913)"/>
<path d="M7.61796 31.1833C7.01682 30.0802 6.70457 28.8429 6.71027 27.5867V26.6926C6.64375 28.047 6.95317 29.3933 7.60431 30.5827C7.60431 30.7807 7.60431 30.9786 7.60431 31.1833H7.61796Z" fill="url(#paint8_linear_216_1913)"/>
<path d="M11.3167 20.9462C9.99274 18.0525 10.4841 15.7184 12.9615 13.1319L13.33 12.7906L13.7736 12.3948C11.0437 14.7698 10.3271 17.7249 11.7262 20.3866C11.5829 20.5708 11.4396 20.7551 11.3031 20.9462H11.3167Z" fill="#231889"/>
<path d="M41.0865 12.6949L40.6497 12.3059C44.9425 15.9845 44.2122 21.0211 38.5682 24.2424L38.4317 24.3243L38.0358 24.5359C31.6342 27.88 21.8065 27.7435 15.7257 24.2015L15.5346 24.0923L15.2207 23.8944C13.7746 23.0393 12.5753 21.8235 11.74 20.366C11.5967 20.5502 11.4534 20.7345 11.3169 20.9256C12.249 22.5264 13.5952 23.8466 15.2138 24.7474C17.1613 25.8787 19.2831 26.679 21.4926 27.1156C27.1094 28.2963 33.6202 27.6684 38.3293 25.2047L38.7388 24.9863L38.8821 24.9044C45.5704 20.7686 44.4511 15.923 41.455 13.0362L41.0865 12.6949Z" fill="#231889"/>
<path d="M37.8378 10.2791L38.4725 10.675C36.6434 9.52992 34.4597 9.09076 32.3302 9.43967C32.1664 9.43967 31.9958 9.48062 31.832 9.51475L31.675 9.41237C33.7583 8.91275 35.9536 9.22254 37.8173 10.2791H37.8378Z" fill="#231889"/>
<path d="M20.9807 11.9305V10.9545C21.0283 11.4828 21.2125 11.9896 21.5153 12.4252C21.818 12.8607 22.2288 13.21 22.7074 13.4387C24.0624 14.1475 25.5661 14.5251 27.0953 14.5405C28.6244 14.556 30.1354 14.2088 31.5045 13.5275C32.7807 12.845 33.4223 11.8691 33.4223 10.9204V11.8964C33.4223 12.845 32.7876 13.7936 31.5113 14.5102C30.1413 15.1883 28.6307 15.5337 27.1021 15.5183C25.5736 15.5029 24.0702 15.1271 22.7142 14.4215C21.5608 13.739 20.9807 12.8313 20.9807 11.9305Z" fill="url(#paint9_linear_216_1913)"/>
<path d="M31.6888 8.43626C34.0706 9.86946 33.9887 12.1489 31.5045 13.5275C30.1355 14.2088 28.6244 14.556 27.0953 14.5406C25.5662 14.5252 24.0624 14.1476 22.7074 13.4388C20.3324 12.0124 20.4143 9.72614 22.8917 8.34754C24.2607 7.66623 25.7718 7.31905 27.3009 7.33448C28.83 7.3499 30.3338 7.72748 31.6888 8.43626Z" fill="white"/>
<path d="M12.9137 35.9128H11.9377V52.6608H12.9137V35.9128Z" fill="url(#paint10_linear_216_1913)"/>
<path d="M12.7704 52.4627C12.6645 52.4098 12.5476 52.3823 12.4292 52.3823C12.3108 52.3823 12.1939 52.4098 12.088 52.4627C12.0454 52.4765 12.0083 52.5034 11.9819 52.5395C11.9556 52.5757 11.9414 52.6193 11.9414 52.6641C11.9414 52.7088 11.9556 52.7524 11.9819 52.7886C12.0083 52.8247 12.0454 52.8516 12.088 52.8654C12.1942 52.9173 12.3109 52.9442 12.4292 52.9442C12.5475 52.9442 12.6642 52.9173 12.7704 52.8654C12.9615 52.7562 12.9615 52.5787 12.7704 52.4627Z" fill="url(#paint11_linear_216_1913)"/>
<path d="M28.4469 39.2295H27.4709V55.9775H28.4469V39.2295Z" fill="url(#paint12_linear_216_1913)"/>
<path d="M28.3036 55.7523C28.1977 55.6994 28.0808 55.6719 27.9624 55.6719C27.844 55.6719 27.7271 55.6994 27.6212 55.7523C27.5786 55.766 27.5415 55.7929 27.5151 55.8291C27.4888 55.8653 27.4746 55.9089 27.4746 55.9536C27.4746 55.9983 27.4888 56.0419 27.5151 56.0781C27.5415 56.1143 27.5786 56.1412 27.6212 56.1549C27.7274 56.2068 27.8441 56.2338 27.9624 56.2338C28.0807 56.2338 28.1974 56.2068 28.3036 56.1549C28.5016 56.073 28.4947 55.8956 28.3036 55.7523Z" fill="url(#paint13_linear_216_1913)"/>
<path d="M41.9464 36.2063H40.9705V52.9543H41.9464V36.2063Z" fill="url(#paint14_linear_216_1913)"/>
<path d="M41.81 52.7631C41.7045 52.7086 41.5875 52.6802 41.4688 52.6802C41.35 52.6802 41.233 52.7086 41.1275 52.7631C41.0849 52.7768 41.0478 52.8037 41.0215 52.8399C40.9951 52.8761 40.981 52.9196 40.981 52.9644C40.981 53.0091 40.9951 53.0527 41.0215 53.0889C41.0478 53.1251 41.0849 53.152 41.1275 53.1657C41.2335 53.2186 41.3503 53.2461 41.4688 53.2461C41.5872 53.2461 41.704 53.2186 41.81 53.1657C41.8526 53.152 41.8897 53.1251 41.916 53.0889C41.9424 53.0527 41.9565 53.0091 41.9565 52.9644C41.9565 52.9196 41.9424 52.8761 41.916 52.8399C41.8897 52.8037 41.8526 52.7768 41.81 52.7631Z" fill="url(#paint15_linear_216_1913)"/>
<path d="M49.4672 27.0952H48.4912V43.8432H49.4672V27.0952Z" fill="url(#paint16_linear_216_1913)"/>
<path d="M49.3239 43.652C49.2184 43.5975 49.1014 43.5691 48.9827 43.5691C48.8639 43.5691 48.7469 43.5975 48.6414 43.652C48.5988 43.6657 48.5617 43.6926 48.5354 43.7288C48.5091 43.765 48.4949 43.8086 48.4949 43.8533C48.4949 43.898 48.5091 43.9416 48.5354 43.9778C48.5617 44.014 48.5988 44.0409 48.6414 44.0546C48.7474 44.1075 48.8642 44.135 48.9827 44.135C49.1011 44.135 49.2179 44.1075 49.3239 44.0546C49.3665 44.0409 49.4036 44.014 49.4299 43.9778C49.4563 43.9416 49.4705 43.898 49.4705 43.8533C49.4705 43.8086 49.4563 43.765 49.4299 43.7288C49.4036 43.6926 49.3665 43.6657 49.3239 43.652Z" fill="url(#paint17_linear_216_1913)"/>
<path d="M6.01403 26.2761H5.03809V43.0241H6.01403V26.2761Z" fill="url(#paint18_linear_216_1913)"/>
<path d="M5.87745 42.84C5.77162 42.7866 5.65474 42.7588 5.53621 42.7588C5.41768 42.7588 5.3008 42.7866 5.19497 42.84C5.00388 42.9492 5.0107 43.1335 5.19497 43.2427C5.30095 43.2955 5.41777 43.323 5.53621 43.323C5.65465 43.323 5.77147 43.2955 5.87745 43.2427C5.92003 43.2289 5.95715 43.202 5.98348 43.1658C6.00981 43.1297 6.024 43.0861 6.024 43.0413C6.024 42.9966 6.00981 42.953 5.98348 42.9168C5.95715 42.8806 5.92003 42.8537 5.87745 42.84Z" fill="url(#paint19_linear_216_1913)"/>
<path d="M28.5971 10.1288C28.1625 9.90819 27.682 9.79321 27.1946 9.79321C26.7072 9.79321 26.2267 9.90819 25.7921 10.1288C25.6235 10.1875 25.4773 10.2972 25.3739 10.4427C25.2704 10.5883 25.2148 10.7624 25.2148 10.9409C25.2148 11.1195 25.2704 11.2936 25.3739 11.4392C25.4773 11.5847 25.6235 11.6944 25.7921 11.7531C26.2267 11.9737 26.7072 12.0887 27.1946 12.0887C27.682 12.0887 28.1625 11.9737 28.5971 11.7531C28.7657 11.6944 28.9119 11.5847 29.0154 11.4392C29.1188 11.2936 29.1744 11.1195 29.1744 10.9409C29.1744 10.7624 29.1188 10.5883 29.0154 10.4427C28.9119 10.2972 28.7657 10.1875 28.5971 10.1288Z" fill="url(#paint20_linear_216_1913)"/>
<path d="M29.1842 9.38477H25.2122V10.9408H29.1842V9.38477Z" fill="url(#paint21_linear_216_1913)"/>
<path d="M28.5971 8.57289C28.1625 8.35228 27.682 8.2373 27.1946 8.2373C26.7072 8.2373 26.2267 8.35228 25.7921 8.57289C25.6235 8.63158 25.4773 8.7413 25.3739 8.88683C25.2704 9.03236 25.2148 9.20648 25.2148 9.38504C25.2148 9.56359 25.2704 9.73771 25.3739 9.88325C25.4773 10.0288 25.6235 10.1385 25.7921 10.1972C26.2262 10.4194 26.7069 10.5353 27.1946 10.5353C27.6823 10.5353 28.163 10.4194 28.5971 10.1972C29.382 9.74675 29.3751 9.02333 28.5971 8.57289Z" fill="url(#paint22_linear_216_1913)"/>
<path d="M3.38655 57.8886C2.95196 57.668 2.47145 57.553 1.98407 57.553C1.49669 57.553 1.01617 57.668 0.581577 57.8886C0.412135 57.9455 0.264849 58.0541 0.160497 58.1992C0.0561443 58.3443 0 58.5186 0 58.6973C0 58.876 0.0561443 59.0503 0.160497 59.1954C0.264849 59.3405 0.412135 59.4492 0.581577 59.506C1.01617 59.7266 1.49669 59.8416 1.98407 59.8416C2.47145 59.8416 2.95196 59.7266 3.38655 59.506C3.556 59.4492 3.70329 59.3405 3.80764 59.1954C3.912 59.0503 3.96814 58.876 3.96814 58.6973C3.96814 58.5186 3.912 58.3443 3.80764 58.1992C3.70329 58.0541 3.556 57.9455 3.38655 57.8886Z" fill="url(#paint23_linear_216_1913)"/>
<path d="M3.97323 53.1589H0.0012207V58.6938H3.97323V53.1589Z" fill="url(#paint24_linear_216_1913)"/>
<path d="M3.38641 52.34C2.95182 52.1194 2.47131 52.0044 1.98393 52.0044C1.49655 52.0044 1.01603 52.1194 0.581437 52.34C0.412805 52.3987 0.266626 52.5084 0.163179 52.6539C0.0597321 52.7995 0.00415039 52.9736 0.00415039 53.1521C0.00415039 53.3307 0.0597321 53.5048 0.163179 53.6503C0.266626 53.7959 0.412805 53.9056 0.581437 53.9643C1.01603 54.1849 1.49655 54.2999 1.98393 54.2999C2.47131 54.2999 2.95182 54.1849 3.38641 53.9643C4.17126 53.5343 4.16444 52.8109 3.38641 52.34Z" fill="white"/>
<path d="M46.2392 20.0657C46.3825 20.4069 46.519 20.7482 46.6282 21.0553C46.7374 21.3624 46.9285 21.9698 47.0377 22.3656L47.1196 22.6659C49.1329 25.8872 48.7234 29.4907 45.9184 32.5686C44.6878 34.0637 43.1731 35.3001 41.4618 36.2062C33.2721 40.772 20.3051 40.6423 12.4293 35.9128C10.9654 35.0643 9.66432 33.962 8.58696 32.6574C5.76834 29.5999 5.35885 25.9964 7.34485 22.7751C7.34485 22.6727 7.39945 22.5704 7.42675 22.4816C7.49499 22.2223 7.58372 21.9084 7.67927 21.6149C7.80894 21.1781 8.01368 20.6458 8.19795 20.1885C3.0589 25.075 3.9939 31.5313 11.1531 35.8377C19.6772 40.9699 33.7976 41.1132 42.6835 36.1585C50.3955 31.8657 51.6307 25.1228 46.2392 20.0657Z" fill="white"/>
<path d="M4.94921 28.9449V26.8974C4.94921 30.1051 6.99664 33.3127 11.1529 35.7696C19.677 40.9018 33.7975 41.0452 42.6833 36.0904C47.2559 33.5379 49.5558 30.1392 49.5422 26.7336V28.7811C49.5422 32.1935 47.2559 35.6058 42.6833 38.1378C33.8111 43.0926 19.677 42.9152 11.1529 37.8239C7.01711 35.3328 4.95603 32.1252 4.94238 28.9107L4.94921 28.9449Z" fill="url(#paint25_linear_216_1913)"/>
<path d="M49.0304 24.0173H47.8429C49.4945 28.1122 47.4948 32.5551 41.8985 35.674C33.4768 40.3695 20.0934 40.2398 12.0129 35.3737C8.21832 33.0874 6.26644 30.1664 6.13677 27.225H4.97656C5.09941 30.3371 7.16049 33.4219 11.1734 35.8378C19.6976 40.97 33.818 41.1134 42.7038 36.1586C48.5117 32.91 50.641 28.2692 49.0304 24.0173Z" fill="white"/>
<path d="M28.14 8.78425C27.8458 8.63604 27.5209 8.55884 27.1914 8.55884C26.8619 8.55884 26.537 8.63604 26.2427 8.78425C26.1279 8.82318 26.0282 8.89711 25.9575 8.99565C25.8869 9.0942 25.8489 9.2124 25.8489 9.33365C25.8489 9.4549 25.8869 9.5731 25.9575 9.67164C26.0282 9.77018 26.1279 9.84411 26.2427 9.88304C26.5382 10.0313 26.8642 10.1085 27.1948 10.1085C27.5254 10.1085 27.8514 10.0313 28.1468 9.88304C28.2614 9.84341 28.3607 9.76886 28.4308 9.66988C28.5008 9.57089 28.5381 9.45245 28.5373 9.3312C28.5366 9.20995 28.4978 9.09198 28.4266 8.99388C28.3553 8.89577 28.2551 8.82246 28.14 8.78425Z" fill="url(#paint26_linear_216_1913)"/>
<path d="M2.92929 52.6198C2.63431 52.47 2.30811 52.3918 1.97724 52.3918C1.64637 52.3918 1.32018 52.47 1.02519 52.6198C0.909489 52.6569 0.808538 52.7297 0.736918 52.8278C0.665297 52.926 0.626709 53.0443 0.626709 53.1658C0.626709 53.2873 0.665297 53.4056 0.736918 53.5038C0.808538 53.6019 0.909489 53.6747 1.02519 53.7118C1.32018 53.8616 1.64637 53.9397 1.97724 53.9397C2.30811 53.9397 2.63431 53.8616 2.92929 53.7118C3.04175 53.6714 3.13899 53.5973 3.20774 53.4996C3.27648 53.4018 3.31337 53.2853 3.31337 53.1658C3.31337 53.0463 3.27648 52.9297 3.20774 52.832C3.13899 52.7343 3.04175 52.6602 2.92929 52.6198Z" fill="url(#paint27_linear_216_1913)"/>
<path d="M28.5563 2.51923V9.34399H25.8264V2.84L5.10646 14.8038C4.55419 15.1318 4.10131 15.6036 3.7961 16.1688C3.48668 16.7014 3.32418 17.3067 3.32519 17.9227V53.2067H0.643066V17.8954C0.647985 16.8119 0.929904 15.7477 1.46204 14.8038C2.02176 13.8549 2.81309 13.0636 3.76198 12.5039L24.8027 0.348959C25.1824 0.123187 25.6154 0.00274736 26.0572 4.6448e-05C26.4989 -0.00265446 26.9334 0.112482 27.3158 0.333594C27.6982 0.554706 28.0148 0.873796 28.2328 1.25798C28.4509 1.64216 28.5626 2.07753 28.5563 2.51923Z" fill="url(#paint28_linear_216_1913)"/>
<path d="M3.76172 12.4901L5.09937 14.8174L25.8466 2.8399L24.7956 0.342041L3.76172 12.4901Z" fill="url(#paint29_linear_216_1913)"/>
<path d="M3.32519 17.8953H0.63623V53.1725H3.32519V17.8953Z" fill="url(#paint30_linear_216_1913)"/>
<path d="M25.8467 2.83998L26.9113 1.87769L28.5356 2.50556V9.33032H25.8467V2.83998Z" fill="url(#paint31_linear_216_1913)"/>
<path d="M27.2867 0.348886L25.8262 2.83992L24.782 0.348886C25.1609 0.123567 25.5935 0.00463867 26.0343 0.00463867C26.4751 0.00463867 26.9078 0.123567 27.2867 0.348886Z" fill="url(#paint32_linear_216_1913)"/>
<path d="M28.5561 2.51915L26.8704 2.80579L25.8262 3.8841V2.83992L27.2662 0.348877C27.6574 0.560064 27.9841 0.873464 28.2112 1.25567C28.4384 1.63787 28.5576 2.07454 28.5561 2.51915Z" fill="url(#paint33_linear_216_1913)"/>
<path d="M5.10633 14.8039C4.55407 15.1319 4.10119 15.6036 3.79598 16.1688L1.46191 14.8039C2.02163 13.855 2.81297 13.0636 3.76185 12.5039L5.10633 14.8039Z" fill="url(#paint34_linear_216_1913)"/>
<path d="M3.7961 16.1689C3.48668 16.7016 3.32418 17.3068 3.32519 17.9229H0.643066C0.643312 16.8301 0.925384 15.7559 1.46204 14.804L3.7961 16.1689Z" fill="white"/>
<g style="mix-blend-mode:multiply">
<path d="M5.4458 63.6255L23.0205 53.4141L51.385 69.7885L33.8041 80L5.4458 63.6255Z" fill="#AEC4D4"/>
</g>
<path d="M15.85 66.5796L14.8799 67.1393L23.86 72.3197L24.8302 71.7599L15.85 66.5796Z" fill="#231889"/>
<path d="M25.7943 67.2573L24.8303 67.817V72.8792L25.7943 72.3195V67.2573Z" fill="#A3A6C7"/>
<path d="M32.8277 78.2773L14.8799 67.9165V67.1392L32.8277 77.4999V78.2773Z" fill="#171552"/>
<path d="M47.4982 69.7387L29.5566 59.378V58.6006L47.4982 68.9613V69.7387Z" fill="#171552"/>
<path d="M15.85 61.5173L14.8799 62.077V67.1392L15.85 66.5795V61.5173Z" fill="#171552"/>
<path d="M26.8015 56.2997L25.3276 57.1579C26.1237 56.6914 26.6087 55.6964 26.5714 54.2847L28.0515 53.4265C28.0888 54.832 27.5975 55.827 26.8015 56.2997Z" fill="#E3E8E6"/>
<path d="M19.1772 46.567L20.6511 45.7088C21.4223 45.261 22.5168 45.3107 23.6673 45.97C24.9382 46.778 25.9997 47.8755 26.7649 49.1726C27.5302 50.4697 27.9775 51.9295 28.0703 53.4327L26.5902 54.2909C26.4999 52.7871 26.0536 51.3263 25.2881 50.0288C24.5226 48.7314 23.4598 47.6344 22.1872 46.8282C21.0118 46.169 19.9484 46.1192 19.1772 46.567Z" fill="white"/>
<path d="M29.3264 51.6602C29.3264 51.7721 29.3264 51.9214 29.3264 52.0395C29.3264 52.1577 29.3264 52.394 29.2829 52.5433C29.2436 52.7924 29.1917 53.0394 29.1274 53.2833C29.0753 53.4759 29.0109 53.6649 28.9346 53.8492C28.8476 54.042 28.7232 54.2908 28.6237 54.4711C28.4911 54.6869 28.3457 54.8946 28.1883 55.093C28.1137 55.1925 27.9956 55.3231 27.9085 55.4164C27.7225 55.5982 27.5274 55.7705 27.3239 55.9326C27.1809 56.0445 26.9694 56.1751 26.814 56.2746C27.61 55.8082 28.1013 54.8132 28.0577 53.4015C28.4047 53.2499 28.7051 53.0088 28.9281 52.7027C29.151 52.3967 29.2885 52.0369 29.3264 51.6602Z" fill="#F07C04"/>
<path d="M20.6509 45.7274C20.8623 45.6155 21.1422 45.4787 21.3598 45.3854C21.5444 45.3132 21.7334 45.2529 21.9258 45.2051C22.0377 45.2051 22.187 45.1429 22.2989 45.1304C22.4108 45.118 22.7156 45.0745 22.9208 45.062C23.1278 45.0474 23.3356 45.0474 23.5427 45.062C23.7955 45.0841 24.0468 45.1215 24.2952 45.174C24.5356 45.2271 24.7724 45.2957 25.0041 45.3792C25.2398 45.4701 25.4702 45.5739 25.6944 45.6901L26.1422 45.9513C26.2355 46.0073 26.3536 46.0944 26.4469 46.1628C26.5402 46.2312 26.6894 46.3431 26.789 46.424C26.8885 46.5048 26.9755 46.5857 27.0502 46.6603C27.2331 46.8255 27.4055 47.0021 27.5663 47.1889C27.7145 47.3576 27.8535 47.5341 27.983 47.7175L28.1696 47.9911C28.2193 48.072 28.2939 48.1839 28.3437 48.271C28.3934 48.3581 28.4618 48.47 28.5054 48.5571L28.6546 48.8556C28.6982 48.9426 28.7479 49.067 28.7914 49.1603C28.835 49.2536 28.8785 49.378 28.9158 49.4712C28.9531 49.5645 29.0153 49.7262 29.121 50.1242C29.1895 50.3979 29.2454 50.6964 29.2703 50.8643C29.2952 51.0322 29.2703 51.1193 29.3076 51.2312C29.3449 51.3431 29.3076 51.5359 29.3076 51.6727C29.2752 52.0501 29.1429 52.412 28.9243 52.7213C28.7057 53.0307 28.4087 53.2762 28.0638 53.4327C27.9711 51.9295 27.5238 50.4697 26.7585 49.1726C25.9932 47.8755 24.9317 46.7781 23.6608 45.97C22.4855 45.3108 21.422 45.261 20.6509 45.7274Z" fill="url(#paint35_linear_216_1913)"/>
<path d="M18.0952 46.7846L19.0032 46.2622C19.8179 45.7896 20.9373 45.8393 22.1873 46.5358C24.7246 47.9475 26.8079 51.4799 26.839 54.4152L25.9373 54.9376C25.9 52.0023 23.8166 48.4761 21.2855 47.0644C20.0355 46.3493 18.9161 46.3119 18.0952 46.7846Z" fill="#2137FF"/>
<path d="M22.5417 57.8731C22.1455 57.7712 21.7648 57.6164 21.4098 57.4129C20.1396 56.6041 19.0787 55.5065 18.3135 54.2095C17.5483 52.9126 17.1006 51.4531 17.0068 49.9502C16.9757 47.1704 18.8725 46.0012 21.2854 47.3383C22.5573 48.1452 23.6196 49.2424 24.3851 50.5397C25.1505 51.8371 25.5972 53.2975 25.6884 54.801L25.9372 54.9378C25.8999 52.0025 23.8166 48.4763 21.2854 47.0646C18.7543 45.653 16.7208 46.8843 16.7581 49.8258C16.8592 51.4132 17.3337 52.9543 18.1432 54.3235C18.9526 55.6928 20.074 56.8514 21.416 57.7052C21.772 57.9036 22.1497 58.0601 22.5417 58.1716V57.8731Z" fill="#231889"/>
<path d="M25.3277 57.1517L15.9993 62.556C16.7953 62.0957 17.2866 61.0945 17.2431 59.6828L26.5714 54.2786C26.6087 55.6778 26.1237 56.6853 25.3277 57.1517Z" fill="#E3E8E6"/>
<path d="M9.86743 51.9774L18.2754 47.0894C19.0466 46.6416 20.1411 46.6914 21.2854 47.3506C22.5573 48.1575 23.6196 49.2547 24.385 50.552C25.1504 51.8494 25.5971 53.3098 25.6884 54.8133L17.2866 59.6951C17.1919 58.1925 16.7437 56.7334 15.9786 55.4366C15.2135 54.1398 14.1531 53.042 12.8836 52.2324C11.702 51.5794 10.6448 51.5235 9.86743 51.9774Z" fill="url(#paint36_linear_216_1913)"/>
<path d="M12.7717 63.1405C12.5581 63.0524 12.3504 62.9506 12.1498 62.8358C10.8779 62.0289 9.81563 60.9317 9.05021 59.6344C8.2848 58.337 7.8381 56.8766 7.74682 55.3731C7.70951 52.5932 9.6125 51.4241 12.0254 52.7612C13.2956 53.57 14.3566 54.6676 15.1218 55.9646C15.887 57.2615 16.3347 58.721 16.4284 60.2239L16.6772 60.3607C16.6399 57.4254 14.5565 53.893 12.0192 52.4813C9.4819 51.0696 7.46075 52.3072 7.49807 55.2425C7.58732 56.8295 8.05151 58.3727 8.85254 59.7456C9.65357 61.1185 10.7686 62.282 12.1063 63.1405C12.3056 63.2577 12.5135 63.3595 12.7282 63.4453L12.7717 63.1405Z" fill="#231889"/>
<path d="M15.116 63.0844L13.6421 63.9426C14.4381 63.4762 14.9232 62.4811 14.8859 61.0694L17.2677 59.6826C17.305 61.0943 15.912 62.6179 15.116 63.0844Z" fill="#E3E8E6"/>
<path d="M8.79794 61.1318C8.79794 61.9465 8.24445 62.2947 7.55415 61.8967C7.18019 61.6602 6.86749 61.3386 6.64159 60.9582C6.4157 60.5777 6.28302 60.1492 6.25439 59.7077C6.25439 58.8868 6.80788 58.5447 7.49818 58.9365C7.8733 59.1732 8.18678 59.4957 8.41276 59.8774C8.63875 60.2591 8.77077 60.6891 8.79794 61.1318Z" fill="#231889"/>
<path d="M8.7915 52.1952L9.69325 51.6728C10.5079 51.2002 11.6336 51.25 12.8773 51.9465C15.4147 53.3582 17.498 56.8843 17.5353 59.8258L16.6336 60.3482C16.5963 57.4129 14.5129 53.8806 11.9756 52.4689C10.7318 51.7786 9.60618 51.7226 8.7915 52.1952Z" fill="#2137FF"/>
<path d="M14.9047 61.0696C14.8134 59.5661 14.3668 58.1057 13.6013 56.8084C12.8359 55.5111 11.7736 54.4139 10.5017 53.6069C9.32636 52.9477 8.26292 52.898 7.49177 53.3457C7.3363 53.439 7.13107 53.5758 6.98182 53.6878C6.87602 53.7654 6.77431 53.8484 6.67709 53.9365C6.47316 54.1162 6.28584 54.314 6.11739 54.5273C5.73264 55.0108 5.43583 55.5581 5.24052 56.1442C5.18455 56.3121 5.12858 56.5485 5.09127 56.7226C5.05395 56.8967 5.04152 56.9776 5.02286 57.0957C5.0042 57.2139 4.98555 57.444 4.97933 57.5995C4.97311 57.7549 4.97933 57.8669 4.97933 57.9788C4.97933 58.0908 4.97933 58.2898 4.97933 58.4204C4.97933 58.551 4.97933 58.7002 5.02286 58.8184C5.06639 58.9365 5.06017 59.0609 5.08505 59.1666C5.10992 59.2724 5.1348 59.4092 5.16589 59.5087C5.19699 59.6082 5.2343 59.7512 5.25918 59.8507C5.28405 59.9502 5.3338 60.0808 5.37112 60.1803C5.40843 60.2798 5.54525 60.6094 5.63231 60.8022C5.67584 60.8893 5.73182 61.0074 5.78157 61.0945C5.83132 61.1816 5.89351 61.2997 5.94326 61.3806L6.11739 61.6666C6.17336 61.7475 6.24799 61.8594 6.31018 61.9403L6.50918 62.2077L6.72062 62.4689C6.72062 62.4689 6.9445 62.7239 7.23679 62.9975L7.49799 63.2276C7.59749 63.3084 7.73431 63.4204 7.84003 63.495C7.94575 63.5696 8.05147 63.6443 8.14476 63.7002C8.23804 63.7562 8.49302 63.9179 8.64849 63.9925C8.87582 64.1093 9.11057 64.2111 9.35123 64.2972C9.55645 64.3657 9.83631 64.4403 10.0477 64.4962C10.1597 64.4962 10.3152 64.5398 10.4271 64.5584C10.6329 64.5901 10.8408 64.6067 11.049 64.6082C11.1609 64.6082 11.3164 64.6082 11.4283 64.6082C11.637 64.5966 11.8447 64.5717 12.0502 64.5336C12.1622 64.5336 12.3114 64.4838 12.4234 64.4527C12.5353 64.4216 12.7841 64.3408 12.9333 64.2848C13.0826 64.2288 13.4308 64.0547 13.6423 63.949C14.4383 63.4763 14.9234 62.4813 14.9047 61.0696ZM7.54152 61.8967C7.16756 61.6602 6.85486 61.3386 6.62896 60.9582C6.40307 60.5777 6.27039 60.1492 6.24177 59.7077C6.24177 58.8868 6.79525 58.5447 7.48555 58.9365C7.85952 59.174 8.17178 59.4968 8.39666 59.8784C8.62154 60.2601 8.75261 60.6896 8.77909 61.1318C8.81018 61.9465 8.24426 62.2948 7.54152 61.8967Z" fill="url(#paint37_linear_216_1913)"/>
<path d="M14.9047 61.0696C14.8134 59.5661 14.3667 58.1057 13.6013 56.8084C12.8359 55.5111 11.7736 54.4139 10.5017 53.6069C9.32633 52.9477 8.26289 52.898 7.49175 53.3457C7.33627 53.439 7.13105 53.5758 6.98179 53.6878C6.876 53.7654 6.77428 53.8484 6.67706 53.9365C6.53699 54.0616 6.40411 54.1945 6.27905 54.3345C7.03154 53.5634 8.25667 53.4763 9.64349 54.2475C10.8784 55.0332 11.9102 56.0996 12.6548 57.3597C13.3994 58.6198 13.8358 60.038 13.9283 61.4987C13.9283 63.0597 13.3064 64.0982 12.3612 64.4465H12.4234C12.5788 64.403 12.784 64.3346 12.9333 64.2786C13.0826 64.2226 13.4308 64.0485 13.6423 63.9428C14.4383 63.4763 14.9234 62.4813 14.9047 61.0696Z" fill="#2137FF"/>
<path d="M7.4917 53.358L8.96558 52.4998C9.73673 52.052 10.8313 52.1018 11.9818 52.761C13.2519 53.5698 14.3129 54.6674 15.0781 55.9644C15.8433 57.2613 16.291 58.7208 16.3848 60.2237L14.9046 61.0819C14.8134 59.5784 14.3667 58.118 13.6013 56.8206C12.8359 55.5233 11.7736 54.4261 10.5017 53.6192C9.32628 52.96 8.26285 52.9102 7.4917 53.358Z" fill="white"/>
<path d="M12.9458 62.8545V62.4876L30.3526 52.5933L32.4732 53.3955V53.7624L31.0056 54.6269L29.5254 54.8383L16.7393 62.2699L16.3662 63.1219L14.8923 63.9801L12.9458 62.8545Z" fill="#B1B5D9"/>
<path d="M13.916 62.2947L14.8799 62.8544V67.9166L13.916 67.3631V62.2947Z" fill="#171552"/>
<path d="M12.9458 62.4873L14.8923 63.6129V63.9798L12.9458 62.8542V62.4873Z" fill="#231889"/>
<path d="M31.0055 54.2598L29.5254 54.4712V54.8381L31.0055 54.6267V54.2598Z" fill="#9598B6"/>
<path d="M16.3662 62.7548L16.7393 61.9028V62.2697L16.3662 63.1217V62.7548Z" fill="#9598B6"/>
<path d="M12.9458 62.4874L30.5205 52.2759L32.4732 53.3953L31.0056 54.2597L29.5254 54.4712L16.7393 61.9028L16.3662 62.7548L14.8923 63.613L12.9458 62.4874Z" fill="url(#paint38_linear_216_1913)"/>
<path d="M17.5603 60.8829L18.462 60.3605V60.0682L16.6212 60.0496L16.3787 60.205L17.5603 60.8829Z" fill="#9598B6"/>
<path d="M17.5602 60.597L18.4619 60.0684L17.5228 59.5273L16.6211 60.0497L17.5602 60.597Z" fill="#D0D5FF"/>
<path d="M26.8698 55.4787L27.7716 54.9501V54.6578L26.8387 54.4153L25.9246 54.6392L25.6882 54.7946L26.8698 55.4787Z" fill="#9598B6"/>
<path d="M26.8701 55.1864L27.7718 54.6577L26.8328 54.1167L25.9248 54.6391L26.8701 55.1864Z" fill="#D0D5FF"/>
<path d="M36.2606 61.7473L34.7805 62.6055C35.5765 62.1453 36.0678 61.1503 36.0243 59.7386L37.4982 58.8804C37.5417 60.2921 37.0566 61.2747 36.2606 61.7473Z" fill="#E3E8E6"/>
<path d="M28.6299 52.0274L30.11 51.1692C30.8811 50.7215 31.9757 50.7712 33.1199 51.4242C34.3912 52.2319 35.4529 53.3293 36.2182 54.6264C36.9836 55.9236 37.4307 57.3836 37.5229 58.8869L36.0491 59.7451C35.9543 58.2424 35.5062 56.7833 34.7411 55.4866C33.976 54.1898 32.9156 53.092 31.6461 52.2824C30.4645 51.6294 29.4072 51.5797 28.6299 52.0274Z" fill="white"/>
<path d="M38.7793 57.1143C38.7793 57.2324 38.7793 57.3817 38.7793 57.4998C38.7793 57.618 38.7482 57.8543 38.7295 58.0036C38.6933 58.2533 38.6414 58.5004 38.5741 58.7436C38.5229 58.9344 38.4585 59.1215 38.3813 59.3033C38.3004 59.5023 38.1698 59.7511 38.0703 59.9252C37.9422 60.1424 37.7988 60.3502 37.6412 60.5471C37.5541 60.6619 37.4585 60.77 37.3552 60.8705C37.1713 61.0543 36.9783 61.2286 36.7768 61.3929C36.6131 61.5141 36.4429 61.6262 36.2668 61.7287C37.0629 61.2685 37.5479 60.2735 37.5106 58.8618C37.8585 58.7097 38.1594 58.4676 38.3824 58.1604C38.6055 57.8532 38.7425 57.4921 38.7793 57.1143Z" fill="#F07C04"/>
<path d="M30.1101 51.1691C30.3402 51.0427 30.5769 50.9285 30.8191 50.827C31.0012 50.7539 31.1882 50.6937 31.3788 50.6467C31.4907 50.6467 31.64 50.5845 31.7581 50.5658C31.8763 50.5472 32.1748 50.5161 32.3489 50.5037C32.5558 50.4861 32.7639 50.4861 32.9708 50.5037C33.2258 50.5253 33.4792 50.5627 33.7295 50.6156C33.9679 50.6688 34.2027 50.7373 34.4323 50.8208C34.6437 50.9017 34.9235 51.0261 35.1288 51.1318C35.334 51.2375 35.4397 51.3121 35.5703 51.393C35.7009 51.4738 35.788 51.536 35.875 51.5982C35.9621 51.6604 36.1176 51.7848 36.2171 51.8656L36.4845 52.1019C36.6638 52.2689 36.8341 52.4453 36.9944 52.6305C37.1426 52.7992 37.2817 52.9757 37.4111 53.1591C37.4671 53.24 37.5479 53.3457 37.5977 53.4328C37.6474 53.5198 37.7221 53.6256 37.7718 53.7126C37.8216 53.7997 37.89 53.9116 37.9335 53.9987C37.9894 54.095 38.0393 54.1947 38.0828 54.2972C38.1263 54.3843 38.1823 54.5086 38.2196 54.6019C38.2569 54.6952 38.3066 54.8196 38.344 54.9129C38.4256 55.1262 38.4942 55.3442 38.5492 55.5659C38.6133 55.8094 38.6632 56.0565 38.6984 56.3059L38.742 56.6666C38.742 56.8034 38.742 56.9776 38.742 57.1082C38.7106 57.4866 38.5788 57.8498 38.3602 58.1603C38.1415 58.4708 37.8439 58.7173 37.4982 58.8743C37.4059 57.3711 36.9588 55.911 36.1935 54.6139C35.4282 53.3167 34.3664 52.2193 33.0952 51.4116C31.9447 50.7711 30.8813 50.7027 30.1101 51.1691Z" fill="url(#paint39_linear_216_1913)"/>
<path d="M27.554 52.245L28.4557 51.7226C29.2704 51.25 30.396 51.2998 31.6398 51.9963C34.1771 53.408 36.2604 56.9341 36.2978 59.8756L35.396 60.398C35.2949 58.8107 34.8203 57.2696 34.0109 55.9004C33.2015 54.5311 32.0801 53.3724 30.738 52.5187C29.4943 51.8284 28.3686 51.7724 27.554 52.245Z" fill="#2137FF"/>
<path d="M31.9942 63.3332C31.6006 63.2295 31.2222 63.0748 30.8686 62.873C29.5967 62.0661 28.5344 60.9689 27.769 59.6716C27.0035 58.3743 26.5569 56.9139 26.4656 55.4103C26.4283 52.6305 28.3312 51.4613 30.7442 52.7984C32.0144 53.6072 33.0753 54.7049 33.8405 56.0018C34.6057 57.2987 35.0534 58.7582 35.1472 60.2611L35.396 60.3979C35.2949 58.8105 34.8203 57.2695 34.0108 55.9002C33.2014 54.531 32.08 53.3723 30.738 52.5185C28.2069 51.1068 26.1795 52.3444 26.2168 55.2859C26.3176 56.8693 26.7916 58.4063 27.6001 59.7715C28.4086 61.1366 29.5286 62.291 30.8686 63.1405C31.2225 63.343 31.6007 63.4997 31.9942 63.6069V63.3332Z" fill="#231889"/>
<path d="M34.7805 62.6057L25.4521 68.0162C26.2482 67.556 26.7332 66.5547 26.6959 65.143L36.0243 59.7388C36.0678 61.1505 35.5766 62.1455 34.7805 62.6057Z" fill="#E3E8E6"/>
<path d="M19.3264 57.4313L27.7282 52.5681C28.4993 52.1204 29.5628 52.1701 30.7444 52.8293C32.0145 53.6381 33.0755 54.7358 33.8407 56.0327C34.6059 57.3297 35.0536 58.7891 35.1474 60.292L26.7394 65.1739C26.6481 63.6704 26.2014 62.21 25.436 60.9126C24.6706 59.6153 23.6083 58.5181 22.3364 57.7112C21.161 57.0395 20.0976 56.9836 19.3264 57.4313Z" fill="url(#paint40_linear_216_1913)"/>
<path d="M22.1995 68.5821C21.9859 68.4961 21.7782 68.3964 21.5776 68.2836C20.307 67.4751 19.2458 66.3776 18.4806 65.0806C17.7153 63.7836 17.2678 62.3239 17.1746 60.8209C17.1435 58.041 19.0402 56.8719 21.4532 58.2089C22.7258 59.0151 23.7886 60.1121 24.5541 61.4096C25.3196 62.7071 25.7659 64.1679 25.8562 65.6716L26.1049 65.8084C26.0676 62.8669 23.9843 59.3408 21.4532 57.9291C18.9221 56.5174 16.8885 57.7549 16.9258 60.6903C16.9631 63.6256 19.0465 67.1579 21.5838 68.5696C21.783 68.687 21.9909 68.7888 22.2057 68.8744L22.1995 68.5821Z" fill="#231889"/>
<path d="M24.5877 68.5383L23.1138 69.3966C23.9098 68.9364 24.3949 67.9413 24.3576 66.5296L26.7332 65.1428C26.7581 66.5545 25.3712 68.0781 24.5877 68.5383Z" fill="#E3E8E6"/>
<path d="M18.2444 57.6554L19.1523 57.133C19.967 56.6541 21.0864 56.7101 22.3364 57.4066C23.6787 58.2596 24.7999 59.4182 25.6084 60.7877C26.4169 62.1572 26.8898 63.6987 26.9882 65.286L26.0864 65.8084C26.0491 62.8668 23.9658 59.3407 21.4347 57.929C20.1847 57.2325 19.0591 57.1827 18.2444 57.6554Z" fill="#2137FF"/>
<path d="M18.2566 66.5918C18.2566 67.4064 17.7031 67.7485 17.0128 67.3567C16.6396 67.1199 16.3279 66.798 16.103 66.4175C15.8782 66.0371 15.7467 65.6087 15.7192 65.1676C15.7192 64.3467 16.2727 64.0047 16.963 64.3965C17.3366 64.6343 17.6486 64.9572 17.8735 65.3388C18.0983 65.7203 18.2296 66.1497 18.2566 66.5918Z" fill="#231889"/>
<path d="M24.3637 66.5296C24.2709 65.0264 23.8236 63.5666 23.0583 62.2695C22.293 60.9724 21.2315 59.8749 19.9607 59.0669C18.7791 58.4077 17.7156 58.3579 16.9445 58.8057C16.789 58.899 16.5838 59.0358 16.4345 59.1477C16.2853 59.2597 16.2231 59.3156 16.136 59.3903C15.9309 59.5819 15.7416 59.7899 15.5701 60.0122C15.184 60.4937 14.8889 61.0416 14.6995 61.6291C14.6435 61.797 14.5875 62.0271 14.544 62.2012C14.5005 62.3753 14.4942 62.4624 14.4818 62.5743C14.4694 62.6863 14.4445 62.9288 14.432 63.0843C14.4196 63.2398 14.432 63.3455 14.432 63.4637C14.432 63.5818 14.432 63.7746 14.432 63.9052C14.432 64.0358 14.4631 64.1788 14.4818 64.297C14.5005 64.4152 14.5191 64.5457 14.5378 64.6515L14.6186 64.9935C14.6186 65.0992 14.687 65.236 14.7181 65.3356C14.7492 65.4351 14.7927 65.5657 14.8301 65.6589C14.9047 65.8455 15.0042 66.0943 15.0912 66.2808C15.1347 66.3833 15.1846 66.483 15.2405 66.5793C15.2883 66.678 15.3423 66.7736 15.4022 66.8654L15.5763 67.1515C15.6261 67.2323 15.7069 67.3443 15.7629 67.4251L15.9619 67.6925L16.1796 67.9537C16.1796 67.9537 16.3972 68.2087 16.6895 68.4823L16.9569 68.7124C17.0564 68.7933 17.1932 68.9052 17.299 68.9798C17.4047 69.0545 17.5042 69.1291 17.6037 69.1851C17.7032 69.241 17.952 69.4027 18.1074 69.4774C18.3326 69.5941 18.5653 69.6959 18.8039 69.7821L19.5067 69.9811L19.8798 70.0433C20.086 70.0715 20.2936 70.0881 20.5017 70.093C20.6199 70.093 20.7691 70.093 20.8873 70.093C21.0864 70.0685 21.2838 70.0311 21.4781 69.9811C21.59 69.9811 21.7455 69.9313 21.8574 69.9002L22.3612 69.7323C22.6051 69.6347 22.8419 69.5204 23.0701 69.3903C23.891 68.9363 24.3761 67.9413 24.3637 66.5296ZM16.9942 67.3567C16.6211 67.1199 16.3093 66.7981 16.0845 66.4176C15.8597 66.0371 15.7281 65.6087 15.7007 65.1676C15.7007 64.3467 16.2542 64.0047 16.9445 64.3965C17.3193 64.6336 17.6325 64.9562 17.8584 65.3378C18.0844 65.7194 18.2166 66.1492 18.2442 66.5918C18.2629 67.4065 17.7032 67.7485 16.9942 67.3567Z" fill="url(#paint41_linear_216_1913)"/>
<path d="M24.3636 66.5296C24.2708 65.0264 23.8235 63.5666 23.0582 62.2695C22.2929 60.9724 21.2314 59.8749 19.9606 59.0669C18.779 58.4077 17.7155 58.3579 16.9444 58.8057C16.7889 58.899 16.5837 59.0358 16.4344 59.1477C16.2852 59.2597 16.223 59.3156 16.1359 59.3903C15.9939 59.5175 15.8589 59.6524 15.7317 59.7945C16.4904 59.0233 17.7093 58.9363 19.0961 59.7074C20.3327 60.4913 21.3659 61.5572 22.1107 62.8177C22.8555 64.0782 23.2909 65.4973 23.381 66.9587C23.381 68.5196 22.7902 69.5582 21.8138 69.9065H21.8822L22.3859 69.7386C22.6298 69.6409 22.8667 69.5266 23.0949 69.3965C23.8909 68.9363 24.376 67.9413 24.3636 66.5296Z" fill="#2137FF"/>
<path d="M16.9443 58.8182L18.4244 57.96C19.1956 57.5122 20.259 57.562 21.4344 58.2212C22.707 59.0274 23.7698 60.1244 24.5353 61.4219C25.3008 62.7193 25.7471 64.1801 25.8374 65.6839L24.3635 66.5421C24.2707 65.0389 23.8234 63.5791 23.0582 62.282C22.2929 60.9849 21.2314 59.8875 19.9605 59.0794C18.7789 58.4202 17.7466 58.3704 16.9443 58.8182Z" fill="white"/>
<path d="M22.4048 68.3147V67.9478L39.8115 58.0535L41.926 58.8557V59.2226L40.4583 60.0808L38.9844 60.2985L26.1921 67.7301L25.819 68.5821L24.3513 69.4403L22.4048 68.3147Z" fill="#B1B5D9"/>
<path d="M22.4048 67.9478L24.3513 69.0734V69.4403L22.4048 68.3147V67.9478Z" fill="#231889"/>
<path d="M40.4585 59.7136L38.9846 59.9313V60.2982L40.4585 60.0805V59.7136Z" fill="#9598B6"/>
<path d="M25.8188 68.215L26.192 67.363V67.73L25.8188 68.5819V68.215Z" fill="#9598B6"/>
<path d="M22.4048 67.9477L39.9795 57.73L41.926 58.8556L40.4583 59.7138L38.9844 59.9315L26.1921 67.3631L25.819 68.2151L24.3513 69.0733L22.4048 67.9477Z" fill="url(#paint42_linear_216_1913)"/>
<path d="M27.019 66.3433L27.9207 65.821V65.5287L26.0737 65.51L25.8374 65.6655L27.019 66.3433Z" fill="#9598B6"/>
<path d="M27.0193 66.0572L27.921 65.5286L26.9757 64.9875L26.074 65.5099L27.0193 66.0572Z" fill="#D0D5FF"/>
<path d="M36.3227 60.9327L37.2307 60.4103V60.118L36.2978 59.8755L35.3837 60.0994L35.1411 60.2548L36.3227 60.9327Z" fill="#9598B6"/>
<path d="M36.3226 60.6466L37.2306 60.118L36.2853 59.5769L35.3835 60.0993L36.3226 60.6466Z" fill="#D0D5FF"/>
<path d="M25.7943 72.3196L24.8303 72.8793L32.8279 77.4999L33.7918 76.9402L25.7943 72.3196Z" fill="#231889"/>
<path d="M34.768 73.1343L33.7979 73.694V78.7624L34.768 78.2027V73.1343Z" fill="url(#paint43_linear_216_1913)"/>
<path d="M32.8276 73.2151L33.7916 73.7748V78.837L32.8276 78.2773V73.2151Z" fill="#171552"/>
<path d="M23.8601 67.6741L24.8303 68.2338V72.8793L23.8601 72.3196V67.6741Z" fill="#231889"/>
<path d="M44.9919 66.3928L44.0217 66.9525L47.4981 68.9612L48.4683 68.4015L44.9919 66.3928Z" fill="#231889"/>
<path d="M47.4983 64.6765L48.4684 65.2362V70.2984L47.4983 69.7387V64.6765Z" fill="#171552"/>
<path d="M45.7319 67.2076L44.2581 68.0658C45.0541 67.6056 45.5392 66.6044 45.5018 65.1927L46.9819 64.3345C46.9757 65.7462 46.5093 66.7474 45.7319 67.2076Z" fill="#231889"/>
<path d="M38.0889 57.4876L39.5627 56.6293C40.3339 56.1754 41.3973 56.2313 42.5789 56.8843C43.8484 57.6939 44.9089 58.7917 45.6739 60.0885C46.439 61.3853 46.8872 62.8444 46.9819 64.347L45.5018 65.2052C45.4101 63.7018 44.9632 62.2416 44.1978 60.9444C43.4324 59.6471 42.3704 58.5499 41.0988 57.7425C39.9234 57.0895 38.8911 57.0336 38.0889 57.4876Z" fill="white"/>
<path d="M48.2195 62.5747C48.2195 62.6929 48.2195 62.8421 48.2195 62.9541C48.2195 63.066 48.2195 63.3085 48.1759 63.464C48.1367 63.7132 48.0848 63.9602 48.0205 64.2041C47.9693 64.3949 47.9049 64.5819 47.8277 64.7638C47.7406 64.9628 47.6162 65.2115 47.5167 65.3857C47.3843 65.6016 47.2389 65.8092 47.0814 66.0076C46.9964 66.1223 46.9029 66.2304 46.8016 66.3309C46.6171 66.5145 46.4219 66.6868 46.217 66.8471C46.0549 66.9725 45.8845 67.0867 45.707 67.1891C46.5031 66.7289 46.9943 65.7277 46.9508 64.316C47.2986 64.1656 47.5996 63.9247 47.8227 63.6185C48.0459 63.3122 48.1828 62.9518 48.2195 62.5747Z" fill="#231889"/>
<path d="M39.5627 56.6292C39.7742 56.5172 40.054 56.3742 40.2717 56.2871C40.4535 56.213 40.6406 56.1527 40.8314 56.1068L41.2108 56.0259L41.8326 55.9575C42.0397 55.9429 42.2475 55.9429 42.4545 55.9575C42.7078 55.9765 42.9592 56.0139 43.207 56.0695C43.4475 56.1226 43.6843 56.1912 43.916 56.2747C44.1516 56.3656 44.3821 56.4694 44.6063 56.5856L45.0541 56.8468C45.1473 56.9028 45.2655 56.9899 45.3588 57.052C45.4521 57.1142 45.6013 57.2386 45.7008 57.3195L45.962 57.5496C46.1415 57.7164 46.3117 57.8928 46.472 58.0782C46.6224 58.2487 46.7636 58.4273 46.8948 58.613L47.0814 58.8804L47.2555 59.1665C47.3053 59.2473 47.3675 59.3655 47.4172 59.4526C47.467 59.5396 47.523 59.6578 47.5665 59.7511C47.61 59.8443 47.6598 59.9625 47.7033 60.0496L47.8277 60.3667C47.8277 60.3667 47.9272 60.6217 48.0329 61.0197C48.1013 61.2933 48.1573 61.5856 48.1822 61.7598C48.207 61.9339 48.1822 62.0147 48.2195 62.1205C48.2568 62.2262 48.2195 62.4314 48.2195 62.562C48.1884 62.9398 48.0566 63.3022 47.8378 63.6118C47.6191 63.9213 47.3214 64.1665 46.9757 64.322C46.881 62.8193 46.4328 61.3602 45.6677 60.0634C44.9026 58.7667 43.8422 57.6688 42.5727 56.8593C41.3787 56.2311 40.3339 56.1752 39.5627 56.6292Z" fill="url(#paint44_linear_216_1913)"/>
<path d="M37.0254 57.705L37.9334 57.1826C38.748 56.71 39.8674 56.7597 41.1174 57.4562C42.4528 58.3134 43.5667 59.4739 44.3686 60.8431C45.1705 62.2124 45.6376 63.7517 45.7319 65.3356L44.8301 65.858C44.7928 62.9227 42.7095 59.3903 40.1784 57.9786C38.947 57.2883 37.8214 57.2324 37.0254 57.705Z" fill="#2137FF"/>
<path d="M41.4535 68.7874C41.0575 68.6877 40.6768 68.535 40.3217 68.3334C39.0515 67.5246 37.9905 66.4269 37.2254 65.13C36.4602 63.833 36.0124 62.3736 35.9187 60.8707C35.8876 58.0908 37.7844 56.9217 40.1973 58.2587C41.4692 59.0657 42.5315 60.1629 43.2969 61.4602C44.0623 62.7575 44.509 64.2179 44.6003 65.7214L44.8491 65.8582C44.8118 62.9229 42.7284 59.3906 40.1973 57.9789C37.6662 56.5672 35.6326 57.8047 35.6699 60.7401C35.7073 63.6754 37.7906 67.2078 40.3279 68.6194C40.6813 68.823 41.0597 68.9798 41.4535 69.0859V68.7874Z" fill="#231889"/>
<path d="M44.2395 68.0658L34.9111 73.4762C35.7072 73.0098 36.1984 72.0148 36.1549 70.6031L45.4833 65.1926C45.5206 66.6043 45.0355 67.6056 44.2395 68.0658Z" fill="#231889"/>
<path d="M28.7791 62.8916L37.187 58.0098C37.9582 57.562 39.0527 57.6118 40.197 58.271C41.4689 59.0779 42.5312 60.1751 43.2966 61.4724C44.062 62.7698 44.5087 64.2302 44.6 65.7337L36.1982 70.6031C36.1045 69.1002 35.6568 67.6407 34.8916 66.3438C34.1264 65.0469 33.0654 63.9492 31.7952 63.1404C30.6136 62.5185 29.5626 62.4439 28.7791 62.8916Z" fill="url(#paint45_linear_216_1913)"/>
<path d="M31.6585 74.0422C31.4456 73.9549 31.2379 73.8552 31.0366 73.7437C29.7669 72.9349 28.7066 71.8371 27.9425 70.5401C27.1783 69.243 26.7319 67.7836 26.6399 66.281C26.6025 63.5073 28.5055 62.3382 30.9185 63.669C32.188 64.4786 33.2484 65.5764 34.0135 66.8732C34.7786 68.17 35.2267 69.629 35.3215 71.1317L35.5702 71.2747C35.5329 68.3332 33.4496 64.8071 30.9123 63.3954C28.3749 61.9837 26.3538 63.2212 26.3849 66.1566C26.416 69.0919 28.5055 72.6243 31.0429 74.036C31.2434 74.1507 31.4512 74.2525 31.6647 74.3407L31.6585 74.0422Z" fill="#231889"/>
<path d="M34.0278 73.9986L32.554 74.8568C33.35 74.3966 33.8351 73.4015 33.7977 71.9836L36.1796 70.603C36.2169 72.0147 34.8239 73.5384 34.0278 73.9986Z" fill="#231889"/>
<path d="M27.697 63.1404L28.5988 62.6118C29.4134 62.1392 30.5391 62.1951 31.7829 62.8916C34.3202 64.3033 36.4035 67.8295 36.4408 70.7648L35.5391 71.2934C35.5018 68.3519 33.4184 64.8257 30.8811 63.414C29.6435 62.6926 28.5179 62.6429 27.697 63.1404Z" fill="#2137FF"/>
<path d="M27.6971 72.0459C27.6971 72.8668 27.1436 73.2088 26.4533 72.817C26.0785 72.5799 25.7653 72.2573 25.5394 71.8757C25.3135 71.4941 25.1812 71.0644 25.1536 70.6217C25.1536 69.8071 25.707 69.465 26.3973 69.8568C26.7706 70.0941 27.0828 70.4159 27.3086 70.7962C27.5344 71.1765 27.6675 71.6046 27.6971 72.0459Z" fill="#231889"/>
<path d="M33.8165 71.9838C33.7248 70.4804 33.2779 69.0202 32.5125 67.723C31.7471 66.4257 30.6851 65.3284 29.4135 64.5211C28.2382 63.8681 27.1747 63.8184 26.4036 64.2661C26.2419 64.3594 26.0429 64.4962 25.8936 64.602C25.7444 64.7077 25.676 64.7761 25.5889 64.8507C25.3867 65.0434 25.1996 65.2513 25.0292 65.4726C24.6433 65.9553 24.3463 66.5028 24.1523 67.0895C24.0964 67.2574 24.0404 67.4875 24.0031 67.6617C23.9658 67.8358 23.9533 67.9229 23.9347 68.0348C23.916 68.1467 23.8974 68.3893 23.8849 68.5385C23.8725 68.6878 23.8849 68.806 23.8849 68.9241C23.8849 69.0423 23.8849 69.2288 23.8849 69.3657C23.8849 69.5025 23.8849 69.6393 23.9285 69.7574C23.972 69.8756 23.9658 70.0062 23.9906 70.1119C24.0155 70.2177 24.0404 70.3482 24.0715 70.454C24.1026 70.5597 24.1399 70.6903 24.1648 70.796C24.1897 70.9017 24.2394 71.0261 24.2767 71.1194C24.3513 71.306 24.4508 71.5547 24.5379 71.7413C24.625 71.9279 24.6374 71.9527 24.6872 72.0398L24.8489 72.3259C24.8986 72.4129 24.9732 72.5249 25.023 72.6057C25.0727 72.6866 25.1536 72.8047 25.2158 72.8856L25.4148 73.153L25.6262 73.408C25.7888 73.5932 25.9611 73.7697 26.1424 73.9366C26.217 74.0112 26.3227 74.1045 26.4036 74.1729C26.4844 74.2413 26.6399 74.3657 26.7456 74.4403C26.8514 74.5149 26.9571 74.5896 27.0504 74.6455C27.1436 74.7015 27.3986 74.8632 27.5541 74.9378C27.7826 75.0521 28.0172 75.1538 28.2568 75.2425C28.462 75.3047 28.7419 75.3856 28.9534 75.4353C29.0653 75.4353 29.2208 75.4851 29.3327 75.5037C29.5387 75.5333 29.7465 75.5478 29.9546 75.5473H30.334C30.5143 75.5473 30.7506 75.51 30.9558 75.4726L31.329 75.3856C31.4844 75.342 31.6835 75.2798 31.8389 75.2239C32.0817 75.1238 32.3184 75.0096 32.5479 74.8818C33.3501 74.3968 33.8352 73.4017 33.8165 71.9838ZM26.4533 72.8172C26.0786 72.5801 25.7654 72.2575 25.5394 71.8759C25.3135 71.4942 25.1813 71.0645 25.1536 70.6219C25.1536 69.8072 25.7071 69.4652 26.3974 69.857C26.7695 70.0949 27.0805 70.417 27.3052 70.7972C27.5299 71.1775 27.662 71.6053 27.6909 72.046C27.6971 72.8669 27.1561 73.2089 26.4533 72.8172Z" fill="url(#paint46_linear_216_1913)"/>
<path d="M33.8163 71.9838C33.7245 70.4804 33.2776 69.0202 32.5123 67.723C31.7469 66.4257 30.6849 65.3284 29.4133 64.5211C28.2379 63.8681 27.1745 63.8184 26.4034 64.2661C26.2417 64.3594 26.0427 64.4962 25.8934 64.602C25.7442 64.7077 25.6757 64.7761 25.5887 64.8507C25.5016 64.9253 25.4021 65.0124 25.1907 65.2549C25.9432 64.4838 27.1683 64.3967 28.5551 65.1679C29.79 65.9536 30.8218 67.02 31.5664 68.2801C32.311 69.5402 32.7474 70.9584 32.84 72.4191C32.84 73.9801 32.2181 75.0187 31.2728 75.3669H31.335C31.4904 75.3234 31.6894 75.2612 31.8449 75.2052C32.0877 75.1051 32.3244 74.9909 32.5539 74.8632C33.3499 74.3968 33.835 73.4017 33.8163 71.9838Z" fill="#2137FF"/>
<path d="M26.4036 64.2784L27.8774 63.4202C28.6486 62.9724 29.7431 63.0222 30.8936 63.6752C32.1631 64.4847 33.2236 65.5826 33.9887 66.8793C34.7538 68.1761 35.2019 69.6352 35.2966 71.1379L33.8165 71.9961C33.7248 70.4927 33.2778 69.0325 32.5125 67.7352C31.7471 66.438 30.6851 65.3407 29.4135 64.5334C28.2381 63.8804 27.1747 63.8306 26.4036 64.2784Z" fill="white"/>
<path d="M49.4322 64.6765L48.4683 65.2362V70.2984L49.4322 69.7387V64.6765Z" fill="url(#paint47_linear_216_1913)"/>
<path d="M31.8574 73.7746V73.4077L49.2642 63.5134L51.3848 64.3157V64.6826L49.9109 65.5408L48.4371 65.7585L35.651 73.1901L35.2778 74.0421L33.8039 74.9003L31.8574 73.7746Z" fill="#231889"/>
<path d="M31.8574 73.408L33.8039 74.5336V74.9005L31.8574 73.7749V73.408Z" fill="#231889"/>
<path d="M49.9111 65.1741L48.4373 65.3917V65.7587L49.9111 65.541V65.1741Z" fill="#231889"/>
<path d="M35.2778 73.6755L35.651 72.8235V73.1904L35.2778 74.0424V73.6755Z" fill="#231889"/>
<path d="M31.8574 73.4079L49.4321 63.1902L51.3848 64.3158L49.9109 65.174L48.4371 65.3917L35.651 72.8233L35.2778 73.6753L33.8039 74.5335L31.8574 73.4079Z" fill="url(#paint48_linear_216_1913)"/>
<path d="M36.4719 71.8033L37.3736 71.2809V70.9886L35.5328 70.97L35.2903 71.1192L36.4719 71.8033Z" fill="#231889"/>
<path d="M36.472 71.5111L37.3738 70.9887L36.4347 70.4414L35.533 70.97L36.472 71.5111Z" fill="#2137FF"/>
<path d="M45.7817 66.3928L46.6834 65.8704V65.5781L45.7506 65.3293L44.8364 65.5595L44.6001 65.7149L45.7817 66.3928Z" fill="#231889"/>
<path d="M45.7817 66.107L46.6834 65.5784L45.7382 65.0374L44.8364 65.5598L45.7817 66.107Z" fill="#2137FF"/>
<path d="M49.1586 64.6827C49.0624 64.7319 48.9558 64.7575 48.8477 64.7575C48.7396 64.7575 48.633 64.7319 48.5368 64.6827C48.4994 64.6705 48.4669 64.6467 48.4439 64.6149C48.4208 64.5831 48.4084 64.5448 48.4084 64.5055C48.4084 64.4662 48.4208 64.4279 48.4439 64.3961C48.4669 64.3643 48.4994 64.3405 48.5368 64.3283C48.6327 64.2781 48.7394 64.252 48.8477 64.252C48.956 64.252 49.0627 64.2781 49.1586 64.3283C49.3266 64.4278 49.3266 64.5895 49.1586 64.6827Z" fill="#231889"/>
<path d="M34.9236 72.9414C34.8268 72.9891 34.7205 73.0139 34.6126 73.0139C34.5048 73.0139 34.3984 72.9891 34.3017 72.9414C34.265 72.9276 34.2335 72.9029 34.2112 72.8707C34.1889 72.8385 34.177 72.8002 34.177 72.7611C34.177 72.7219 34.1889 72.6837 34.2112 72.6514C34.2335 72.6192 34.265 72.5945 34.3017 72.5807C34.3976 72.5306 34.5043 72.5044 34.6126 72.5044C34.7209 72.5044 34.8276 72.5306 34.9236 72.5807C34.9602 72.5945 34.9917 72.6192 35.014 72.6514C35.0363 72.6837 35.0482 72.7219 35.0482 72.7611C35.0482 72.8002 35.0363 72.8385 35.014 72.8707C34.9917 72.9029 34.9602 72.9276 34.9236 72.9414Z" fill="#231889"/>
</g>
<defs>
<linearGradient id="paint0_linear_216_1913" x1="28.1078" y1="44.6484" x2="27.7903" y2="46.5273" gradientUnits="userSpaceOnUse">
<stop stop-color="#2137FF"/>
<stop offset="1" stop-color="#0047FF"/>
</linearGradient>
<linearGradient id="paint1_linear_216_1913" x1="14.9076" y1="36.759" x2="12.8852" y2="39.1113" gradientUnits="userSpaceOnUse">
<stop stop-color="#2137FF"/>
<stop offset="1" stop-color="#0047FF"/>
</linearGradient>
<linearGradient id="paint2_linear_216_1913" x1="36.5899" y1="38.6223" x2="34.6139" y2="40.822" gradientUnits="userSpaceOnUse">
<stop stop-color="#2137FF"/>
<stop offset="1" stop-color="#0047FF"/>
</linearGradient>
<linearGradient id="paint3_linear_216_1913" x1="29.2796" y1="42.8193" x2="29.1072" y2="45.0111" gradientUnits="userSpaceOnUse">
<stop stop-color="#2137FF"/>
<stop offset="1" stop-color="#0047FF"/>
</linearGradient>
<linearGradient id="paint4_linear_216_1913" x1="44.7357" y1="22.0348" x2="37.1193" y2="21.6938" gradientUnits="userSpaceOnUse">
<stop stop-color="#E4E7FF"/>
<stop offset="1" stop-color="#2137FF"/>
</linearGradient>
<linearGradient id="paint5_linear_216_1913" x1="19.9447" y1="19.6246" x2="-25.3786" y2="10.3857" gradientUnits="userSpaceOnUse">
<stop stop-color="#E4E7FF"/>
<stop offset="1" stop-color="#2137FF"/>
</linearGradient>
<linearGradient id="paint6_linear_216_1913" x1="30.1219" y1="7.33496" x2="25.3698" y2="20.4537" gradientUnits="userSpaceOnUse">
<stop stop-color="#2137FF"/>
<stop offset="1" stop-color="#0047FF"/>
</linearGradient>
<linearGradient id="paint7_linear_216_1913" x1="30.5526" y1="26.5903" x2="29.6836" y2="32.4264" gradientUnits="userSpaceOnUse">
<stop stop-color="#2137FF"/>
<stop offset="1" stop-color="#0047FF"/>
</linearGradient>
<linearGradient id="paint8_linear_216_1913" x1="7.22477" y1="26.6926" x2="6.46008" y2="27.0308" gradientUnits="userSpaceOnUse">
<stop stop-color="#2137FF"/>
<stop offset="1" stop-color="#0047FF"/>
</linearGradient>
<linearGradient id="paint9_linear_216_1913" x1="25.7109" y1="12.4887" x2="10.3285" y2="9.07531" gradientUnits="userSpaceOnUse">
<stop stop-color="#E4E7FF"/>
<stop offset="1" stop-color="#2137FF"/>
</linearGradient>
<linearGradient id="paint10_linear_216_1913" x1="12.4257" y1="35.9128" x2="12.4257" y2="52.6608" gradientUnits="userSpaceOnUse">
<stop stop-color="#2137FF"/>
<stop offset="1" stop-color="#0047FF"/>
</linearGradient>
<linearGradient id="paint11_linear_216_1913" x1="12.4276" y1="52.3823" x2="12.4276" y2="52.9442" gradientUnits="userSpaceOnUse">
<stop stop-color="#2137FF"/>
<stop offset="1" stop-color="#0047FF"/>
</linearGradient>
<linearGradient id="paint12_linear_216_1913" x1="27.9589" y1="39.2295" x2="27.9589" y2="55.9775" gradientUnits="userSpaceOnUse">
<stop stop-color="#2137FF"/>
<stop offset="1" stop-color="#0047FF"/>
</linearGradient>
<linearGradient id="paint13_linear_216_1913" x1="27.9621" y1="55.6719" x2="27.9621" y2="56.2338" gradientUnits="userSpaceOnUse">
<stop stop-color="#2137FF"/>
<stop offset="1" stop-color="#0047FF"/>
</linearGradient>
<linearGradient id="paint14_linear_216_1913" x1="41.4584" y1="36.2063" x2="41.4584" y2="52.9543" gradientUnits="userSpaceOnUse">
<stop stop-color="#2137FF"/>
<stop offset="1" stop-color="#0047FF"/>
</linearGradient>
<linearGradient id="paint15_linear_216_1913" x1="41.4687" y1="52.6802" x2="41.4687" y2="53.2461" gradientUnits="userSpaceOnUse">
<stop stop-color="#2137FF"/>
<stop offset="1" stop-color="#0047FF"/>
</linearGradient>
<linearGradient id="paint16_linear_216_1913" x1="48.9792" y1="27.0952" x2="48.9792" y2="43.8432" gradientUnits="userSpaceOnUse">
<stop stop-color="#2137FF"/>
<stop offset="1" stop-color="#0047FF"/>
</linearGradient>
<linearGradient id="paint17_linear_216_1913" x1="48.9827" y1="43.5691" x2="48.9827" y2="44.135" gradientUnits="userSpaceOnUse">
<stop stop-color="#2137FF"/>
<stop offset="1" stop-color="#0047FF"/>
</linearGradient>
<linearGradient id="paint18_linear_216_1913" x1="5.52606" y1="26.2761" x2="5.52606" y2="43.0241" gradientUnits="userSpaceOnUse">
<stop stop-color="#2137FF"/>
<stop offset="1" stop-color="#0047FF"/>
</linearGradient>
<linearGradient id="paint19_linear_216_1913" x1="5.5391" y1="42.7588" x2="5.5391" y2="43.323" gradientUnits="userSpaceOnUse">
<stop stop-color="#2137FF"/>
<stop offset="1" stop-color="#0047FF"/>
</linearGradient>
<linearGradient id="paint20_linear_216_1913" x1="27.4758" y1="9.79321" x2="27.2119" y2="10.7794" gradientUnits="userSpaceOnUse">
<stop stop-color="#2137FF"/>
<stop offset="1" stop-color="#0047FF"/>
</linearGradient>
<linearGradient id="paint21_linear_216_1913" x1="27.4802" y1="9.38477" x2="27.3548" y2="10.0785" gradientUnits="userSpaceOnUse">
<stop stop-color="#2137FF"/>
<stop offset="1" stop-color="#0047FF"/>
</linearGradient>
<linearGradient id="paint22_linear_216_1913" x1="27.4808" y1="8.2373" x2="27.2169" y2="9.22475" gradientUnits="userSpaceOnUse">
<stop stop-color="#2137FF"/>
<stop offset="1" stop-color="#0047FF"/>
</linearGradient>
<linearGradient id="paint23_linear_216_1913" x1="2.26586" y1="57.553" x2="2.00391" y2="58.5369" gradientUnits="userSpaceOnUse">
<stop stop-color="#2137FF"/>
<stop offset="1" stop-color="#0047FF"/>
</linearGradient>
<linearGradient id="paint24_linear_216_1913" x1="2.26929" y1="53.1589" x2="1.10988" y2="54.9615" gradientUnits="userSpaceOnUse">
<stop stop-color="#2137FF"/>
<stop offset="1" stop-color="#0047FF"/>
</linearGradient>
<linearGradient id="paint25_linear_216_1913" x1="21.8989" y1="31.8551" x2="-32.7178" y2="18.5513" gradientUnits="userSpaceOnUse">
<stop stop-color="#E4E7FF"/>
<stop offset="1" stop-color="#2137FF"/>
</linearGradient>
<linearGradient id="paint26_linear_216_1913" x1="26.871" y1="9.08736" x2="23.4526" y2="8.60099" gradientUnits="userSpaceOnUse">
<stop stop-color="#E4E7FF"/>
<stop offset="1" stop-color="#2137FF"/>
</linearGradient>
<linearGradient id="paint27_linear_216_1913" x1="1.64816" y1="52.9197" x2="-1.7679" y2="52.4335" gradientUnits="userSpaceOnUse">
<stop stop-color="#E4E7FF"/>
<stop offset="1" stop-color="#2137FF"/>
</linearGradient>
<linearGradient id="paint28_linear_216_1913" x1="0.643066" y1="26.5902" x2="28.529" y2="26.5902" gradientUnits="userSpaceOnUse">
<stop offset="0.06" stop-color="#E1E1E1"/>
<stop offset="0.43" stop-color="#D5D5D5"/>
<stop offset="0.5" stop-color="#D2D2D2"/>
<stop offset="1" stop-color="#BDBDBD"/>
</linearGradient>
<linearGradient id="paint29_linear_216_1913" x1="12.1582" y1="5.27881" x2="-16.0498" y2="1.74916" gradientUnits="userSpaceOnUse">
<stop stop-color="#E4E7FF"/>
<stop offset="1" stop-color="#2137FF"/>
</linearGradient>
<linearGradient id="paint30_linear_216_1913" x1="1.65855" y1="29.9265" x2="-1.82957" y2="29.9047" gradientUnits="userSpaceOnUse">
<stop stop-color="#E4E7FF"/>
<stop offset="1" stop-color="#2137FF"/>
</linearGradient>
<linearGradient id="paint31_linear_216_1913" x1="26.869" y1="4.41939" x2="23.3838" y2="4.31626" gradientUnits="userSpaceOnUse">
<stop stop-color="#E4E7FF"/>
<stop offset="1" stop-color="#2137FF"/>
</linearGradient>
<linearGradient id="paint32_linear_216_1913" x1="25.7342" y1="0.971606" x2="22.502" y2="0.737425" gradientUnits="userSpaceOnUse">
<stop stop-color="#E4E7FF"/>
<stop offset="1" stop-color="#2137FF"/>
</linearGradient>
<linearGradient id="paint33_linear_216_1913" x1="26.8641" y1="1.55456" x2="23.3368" y2="1.33117" gradientUnits="userSpaceOnUse">
<stop stop-color="#E4E7FF"/>
<stop offset="1" stop-color="#2137FF"/>
</linearGradient>
<linearGradient id="paint34_linear_216_1913" x1="2.84749" y1="13.7538" x2="-1.849" y2="13.3708" gradientUnits="userSpaceOnUse">
<stop stop-color="#E4E7FF"/>
<stop offset="1" stop-color="#2137FF"/>
</linearGradient>
<linearGradient id="paint35_linear_216_1913" x1="25.6035" y1="45.051" x2="24.1678" y2="48.2696" gradientUnits="userSpaceOnUse">
<stop stop-color="#2137FF"/>
<stop offset="1" stop-color="#0047FF"/>
</linearGradient>
<linearGradient id="paint36_linear_216_1913" x1="22.8468" y1="52.5138" x2="6.455" y2="58.904" gradientUnits="userSpaceOnUse">
<stop stop-color="#E4E7FF"/>
<stop offset="1" stop-color="#2137FF"/>
</linearGradient>
<linearGradient id="paint37_linear_216_1913" x1="10.646" y1="53.053" x2="8.42807" y2="57.1816" gradientUnits="userSpaceOnUse">
<stop stop-color="#2137FF"/>
<stop offset="1" stop-color="#0047FF"/>
</linearGradient>
<linearGradient id="paint38_linear_216_1913" x1="28.9659" y1="57.3009" x2="11.0334" y2="67.118" gradientUnits="userSpaceOnUse">
<stop stop-color="#E4E7FF"/>
<stop offset="1" stop-color="#2137FF"/>
</linearGradient>
<linearGradient id="paint39_linear_216_1913" x1="35.039" y1="50.4905" x2="33.5981" y2="53.7045" gradientUnits="userSpaceOnUse">
<stop stop-color="#2137FF"/>
<stop offset="1" stop-color="#0047FF"/>
</linearGradient>
<linearGradient id="paint40_linear_216_1913" x1="32.3057" y1="57.9925" x2="15.914" y2="64.3828" gradientUnits="userSpaceOnUse">
<stop stop-color="#E4E7FF"/>
<stop offset="1" stop-color="#2137FF"/>
</linearGradient>
<linearGradient id="paint41_linear_216_1913" x1="20.1009" y1="58.5129" x2="17.8766" y2="62.6481" gradientUnits="userSpaceOnUse">
<stop stop-color="#2137FF"/>
<stop offset="1" stop-color="#0047FF"/>
</linearGradient>
<linearGradient id="paint42_linear_216_1913" x1="38.4198" y1="62.7578" x2="20.4858" y2="72.5672" gradientUnits="userSpaceOnUse">
<stop stop-color="#E4E7FF"/>
<stop offset="1" stop-color="#2137FF"/>
</linearGradient>
<linearGradient id="paint43_linear_216_1913" x1="34.3518" y1="73.1343" x2="33.5026" y2="73.4514" gradientUnits="userSpaceOnUse">
<stop stop-color="#2137FF"/>
<stop offset="1" stop-color="#0047FF"/>
</linearGradient>
<linearGradient id="paint44_linear_216_1913" x1="44.5153" y1="55.9465" x2="43.0814" y2="59.1635" gradientUnits="userSpaceOnUse">
<stop stop-color="#2137FF"/>
<stop offset="1" stop-color="#0047FF"/>
</linearGradient>
<linearGradient id="paint45_linear_216_1913" x1="41.7584" y1="63.4287" x2="25.3708" y2="69.8234" gradientUnits="userSpaceOnUse">
<stop stop-color="#E4E7FF"/>
<stop offset="1" stop-color="#2137FF"/>
</linearGradient>
<linearGradient id="paint46_linear_216_1913" x1="29.5539" y1="63.9729" x2="27.3314" y2="68.107" gradientUnits="userSpaceOnUse">
<stop stop-color="#2137FF"/>
<stop offset="1" stop-color="#0047FF"/>
</linearGradient>
<linearGradient id="paint47_linear_216_1913" x1="49.0187" y1="64.6765" x2="48.1738" y2="64.9904" gradientUnits="userSpaceOnUse">
<stop stop-color="#2137FF"/>
<stop offset="1" stop-color="#0047FF"/>
</linearGradient>
<linearGradient id="paint48_linear_216_1913" x1="47.8775" y1="68.218" x2="29.9405" y2="78.0322" gradientUnits="userSpaceOnUse">
<stop stop-color="#E4E7FF"/>
<stop offset="1" stop-color="#2137FF"/>
</linearGradient>
<clipPath id="clip0_216_1913">
<rect width="51.385" height="80" fill="white"/>
</clipPath>
</defs>
</svg>
