<svg width="231" height="45" fill="none" xmlns="http://www.w3.org/2000/svg"><path d="m48.26 22.355 9.543 10.937h1.965l-10.43-12.11L59.1 11.1h-1.966L43.281 25.367V11.1h-1.616v22.191h1.616V27.46l4.98-5.104Zm30.497-1.045h-14.36v1.426h14.36V21.31Zm0-10.208h-14.36v1.458h14.36V11.1Zm-14.36 20.733v1.458h14.36v-1.458h-14.36Zm28.216-6.183 8.94-14.55h-1.68l-8.02 13.06-8.021-13.06h-1.775l8.94 14.55v7.64h1.617v-7.64Zm33.837 7.641h1.585l-.032-22.191h-1.331l-9.923 17.15-9.922-17.15h-1.364v22.191h1.585V14.367l9.289 15.978h.793l9.288-16.042.032 18.99Zm17.847-22.192h-1.617l-10.208 22.192h1.743l9.257-20.416 9.289 20.416h1.744l-10.208-22.191Zm29.196 1.999c-1.585-1.332-3.772-1.998-6.562-1.998h-7.957v1.458h7.957c2.346 0 4.153.54 5.421 1.585 1.236 1.046 1.871 2.537 1.871 4.439 0 1.933-.635 3.423-1.871 4.438-1.268 1.046-3.075 1.553-5.421 1.553h-7.957v8.718h1.616v-7.26h6.341c2.79 0 4.977-.633 6.562-1.965 1.585-1.331 2.378-3.138 2.378-5.484 0-2.314-.793-4.153-2.378-5.485Zm6.005 19.938c.253.254.57.38.951.38.348 0 .665-.126.919-.38a1.39 1.39 0 0 0 .412-.983c0-.38-.158-.697-.412-.95a1.27 1.27 0 0 0-.919-.381 1.29 1.29 0 0 0-.951.38 1.29 1.29 0 0 0-.381.951c0 .38.127.73.381.983Zm10.22-2.028c1.553 1.649 3.741 2.442 6.562 2.442 2.79 0 4.978-.793 6.563-2.442 1.553-1.616 2.346-3.994 2.346-7.133V11.102h-1.617v12.712c0 2.727-.634 4.787-1.87 6.119-1.269 1.363-3.044 2.029-5.39 2.029-2.377 0-4.185-.666-5.421-2.03-1.268-1.33-1.87-3.392-1.87-6.118V11.101h-1.617v12.776c0 3.138.761 5.516 2.314 7.133Zm31.074-19.909h-1.617l-10.208 22.192h1.743l9.258-20.416 9.288 20.416H231l-10.208-22.191Z" fill="#FCFCFC"/><path d="M17.285.008c-.35.001-.723.006-.83.012a22.372 22.372 0 0 0-1.395.119c-.14.017-.336.043-.433.057a22.056 22.056 0 0 0-1.476.276 21.252 21.252 0 0 0-1.237.332 18.972 18.972 0 0 0-.936.314 20.413 20.413 0 0 0-1.08.436 21.38 21.38 0 0 0-1.148.558 23.683 23.683 0 0 0-.95.542 22.585 22.585 0 0 0-.893.587 20.587 20.587 0 0 0-1.35 1.052c-.124.107-.308.27-.408.362a19.355 19.355 0 0 0-.83.818 20.212 20.212 0 0 0-.725.818c-.09.11-.231.285-.313.39A18.202 18.202 0 0 0 2.257 8.16a18.572 18.572 0 0 0-.523.924 15.758 15.758 0 0 0-.653 1.418 17.204 17.204 0 0 0-.34.936 17.777 17.777 0 0 0-.309 1.082 17.447 17.447 0 0 0-.227 1.104c-.023.142-.057.362-.074.49a17.605 17.605 0 0 0-.102 1.03c-.01.156-.022.467-.026.691-.006.26-.003.502.006.666.008.142.023.34.034.44a13.273 13.273 0 0 0 .126.873 15.837 15.837 0 0 0 .268 1.162 21.392 21.392 0 0 0 .73 2.18 33.868 33.868 0 0 0 .552 1.319c.095.214.25.556.346.76a61.825 61.825 0 0 0 .878 1.759l.262.49a62.127 62.127 0 0 0 1.63 2.845c.108.18.266.44.351.578a107.163 107.163 0 0 0 1.386 2.18 126.44 126.44 0 0 0 1.372 2.04 160.629 160.629 0 0 0 1.267 1.81 185.79 185.79 0 0 0 1.156 1.595 150.87 150.87 0 0 0 5.29 6.778c.154.183.321.37.372.416a2.476 2.476 0 0 0 .586.397 2.535 2.535 0 0 0 .35.12c.1.025.142.028.376.027h.264l.144-.04a2.087 2.087 0 0 0 .485-.201 2.562 2.562 0 0 0 .393-.292c.07-.06.22-.234.476-.55l.639-.788a180.368 180.368 0 0 0 3.887-5l.596-.804a179.47 179.47 0 0 0 1.26-1.736 151.347 151.347 0 0 0 1.28-1.825 125.308 125.308 0 0 0 1.84-2.764 120.293 120.293 0 0 0 .938-1.488 84.476 84.476 0 0 0 1.306-2.206 90.018 90.018 0 0 0 .572-1.03 60.037 60.037 0 0 0 1.12-2.192c.082-.173.21-.45.287-.616a38.188 38.188 0 0 0 .584-1.363c.076-.19.184-.467.24-.615a22.687 22.687 0 0 0 .383-1.112 20.662 20.662 0 0 0 .29-1.03 16.618 16.618 0 0 0 .188-.873 12.258 12.258 0 0 0 .113-.804c.011-.107.025-.291.032-.409a9.945 9.945 0 0 0 0-1.023 17.656 17.656 0 0 0-.07-.974 19.353 19.353 0 0 0-.124-.91 18.787 18.787 0 0 0-.194-.968 24.994 24.994 0 0 0-.109-.434 19.266 19.266 0 0 0-.292-.96 17.638 17.638 0 0 0-.304-.817 18.666 18.666 0 0 0-.376-.854 16.666 16.666 0 0 0-.716-1.332 19.545 19.545 0 0 0-.587-.903 18.848 18.848 0 0 0-.645-.862 19.784 19.784 0 0 0-.67-.785c-.09-.1-.337-.355-.548-.566-.21-.211-.472-.464-.581-.562A19.011 19.011 0 0 0 27.83 3.29a19.978 19.978 0 0 0-.993-.653 21.106 21.106 0 0 0-.402-.24 24.11 24.11 0 0 0-.402-.223 21.559 21.559 0 0 0-1.124-.558 8.798 8.798 0 0 0-.497-.222 21.217 21.217 0 0 0-1.13-.427 26.551 26.551 0 0 0-.567-.183 22.723 22.723 0 0 0-1.012-.276A21.978 21.978 0 0 0 20.249.22a20.694 20.694 0 0 0-1.024-.132A21.893 21.893 0 0 0 18.183.01a24.955 24.955 0 0 0-.899-.01v.007Zm-2.852 10.005c.093.003.223.017.29.03.065.013.164.039.219.057a1.967 1.967 0 0 1 .392.186c.047.03 1.794 1.336 3.88 2.901a574.299 574.299 0 0 1 3.897 2.937 2.144 2.144 0 0 1 .368.436c.034.056.082.145.105.197a1.949 1.949 0 0 1 .129.416c.017.089.022.172.021.383a2.063 2.063 0 0 1-.098.698 1.981 1.981 0 0 1-.084.209 1.959 1.959 0 0 1-.094.162c-.03.045-.091.125-.136.178a1.882 1.882 0 0 1-.186.182 852.4 852.4 0 0 1-3.854 2.9 743.343 743.343 0 0 1-3.854 2.879 1.865 1.865 0 0 1-.468.221c-.058.017-.16.04-.225.051-.073.013-.191.02-.31.02-.113 0-.236-.008-.302-.019a2.399 2.399 0 0 1-.253-.063 2.242 2.242 0 0 1-.29-.12c-.08-.04-.2-.113-.265-.16a2.302 2.302 0 0 1-.457-.451 2.396 2.396 0 0 1-.14-.232 2.258 2.258 0 0 1-.11-.255 2.342 2.342 0 0 1-.067-.239 1.573 1.573 0 0 1-.024-.326c0-.16.006-.24.023-.32a1.962 1.962 0 0 1 .148-.433 2.54 2.54 0 0 1 .12-.207c.04-.058.123-.158.185-.221a3.23 3.23 0 0 1 .296-.252c.1-.075.395-.298.654-.496l1.111-.848 1.112-.848 1.244-.948 1.1-.838a6.22 6.22 0 0 0 .324-.257 9.55 9.55 0 0 0-.327-.254l-2.34-1.785-2.47-1.883c-.248-.19-.487-.377-.532-.416a2.129 2.129 0 0 1-.349-.424 2.377 2.377 0 0 1-.119-.23 2.101 2.101 0 0 1-.086-.257 2.382 2.382 0 0 1-.051-.278 1.884 1.884 0 0 1 .02-.501c.01-.062.04-.172.063-.244.024-.071.07-.182.102-.245a2.27 2.27 0 0 1 .122-.209 2.242 2.242 0 0 1 .467-.461c.063-.042.165-.102.226-.133a2.052 2.052 0 0 1 .42-.152c.052-.011.137-.026.189-.032.052-.006.17-.009.264-.006Z" fill="#fff"/></svg>