<svg width="76" height="80" fill="none" xmlns="http://www.w3.org/2000/svg"><path d="m38.334 10.534.039-.166a.524.524 0 0 0-.237-.48l-.192-.11c-.154-.089-.269 0-.237.206l.038.205-.038.166a.525.525 0 0 0 .237.48l.192.11c.154.089.269 0 .237-.206l-.038-.205Z" fill="#A2928D"/><path d="m38.238 10.56.039-.16a.525.525 0 0 0-.244-.487l-.185-.109c-.154-.09-.27 0-.237.212l.038.204-.038.16a.539.539 0 0 0 .237.487l.185.103c.16.096.276 0 .244-.205l-.039-.205Z" fill="#7E6861"/><path d="M38.06 12.321H38a.878.878 0 0 1-.339-.698l.032-1.178a.289.289 0 0 1 .128-.045.16.16 0 0 1 .128 0 .506.506 0 0 1 .23.365l.16 1.223a.268.268 0 0 1-.089.25.423.423 0 0 1-.192.083Z" fill="#BB9590"/><path d="M37.86 12.283a.75.75 0 0 1-.339-.64l.115-1.108c0-.128.11-.173.224-.103a.513.513 0 0 1 .231.365l.109 1.236c.019.256-.141.365-.34.25Z" fill="#907566"/><path d="m38.065 10.502-.083.052-.051.505h-.141l.07-.614.205-.115v.172Z" fill="#A2928D"/><path d="m38.066 10.33-.205.114-.07.615-.154-.077.07-.614.199-.116.16.077Z" fill="#8F7C76"/><path d="M49.969 40.968 3.784 67.636l18.07 10.424 46.184-26.662-18.07-10.43Z" fill="url(#a)"/><path d="M29.594 73.604 60.79 55.829l-3.97-9.246-24.286 14.023-2.939 12.998Z" fill="url(#b)"/><path d="m14.464 50.175-2.939 12.998 18.07 10.43 2.938-12.998-18.069-10.43Z" fill="#171552"/><path d="M68.038 53.338 21.854 80v-1.94l46.184-26.662v1.94Z" fill="#A7B0FF"/><path d="M3.784 67.636v1.933L21.854 80v-1.94L3.783 67.637Z" fill="#171552"/><path d="M49.969 2.972 3.784 29.634l18.07 10.43 46.184-26.661-18.07-10.43Z" fill="url(#c)"/><path d="M48.189 15.068c0 13.504-9.54 29.965-21.316 36.759-3.912 2.26 7.197 12.806 4.047 12.486-1.754-.167-18.114-10.303-19.503-11.18-3.63-2.292-5.853-6.934-5.853-13.446 0-13.504 9.54-29.966 21.31-36.76 6.178-3.566 11.749-3.764 15.642-1.19.224.153 18.107 9.956 18.773 10.942 1.71 2.523-13.1-1.933-13.1 2.389Z" fill="url(#d)"/><path d="M68.038 35.538 21.854 62.2V40.065l46.184-26.662v22.135Z" fill="url(#e)"/><path d="M59.92 46.555c8.376-14.327 8.462-29.861.191-34.696-8.27-4.834-21.764 2.86-30.14 17.188-8.375 14.327-8.46 29.86-.19 34.695 8.27 4.835 21.764-2.86 30.14-17.187Z" fill="#8F8B8C"/><path d="M59.92 46.555c8.376-14.327 8.462-29.861.191-34.696-8.27-4.834-21.764 2.86-30.14 17.188-8.375 14.327-8.46 29.86-.19 34.695 8.27 4.835 21.764-2.86 30.14-17.187Z" fill="url(#f)"/><path d="M57.765 45.295c7.17-12.264 7.242-25.56.162-29.699-7.08-4.138-18.63 2.448-25.8 14.711-7.168 12.264-7.24 25.56-.161 29.699 7.08 4.138 18.63-2.448 25.8-14.711Z" fill="url(#g)"/><path d="M56.859 44.765c6.66-11.394 6.726-23.748.147-27.594-6.579-3.845-17.311 2.273-23.972 13.666-6.66 11.393-6.726 23.747-.147 27.593s17.311-2.272 23.972-13.665Z" fill="url(#h)"/><path d="M44.942 14.235c11.64-6.716 16.57-1.383 19.01 1.524-3.515-5.916-10.705-7.21-19.01-2.414-8.304 4.796-15.437 14.317-18.965 24.255 2.426-5.68 7.337-16.642 18.965-23.365Z" fill="#fff"/><path d="M54.802 43.563c5.513-9.43 5.57-19.655.126-22.837-5.443-3.182-14.325 1.883-19.838 11.313-5.513 9.43-5.569 19.655-.126 22.837 5.444 3.182 14.325-1.883 19.838-11.313Z" fill="url(#i)"/><path d="M3.784 29.634v22.142L21.854 62.2V40.065l-18.07-10.43Z" fill="#2137FF"/><path d="M7.87 27.278 25.976 37.6l-4.124 2.465-18.069-10.43 4.085-2.357Z" fill="#A7AFFF"/><path d="M23.633 55.822V39.085l-4.405-2.644a6.268 6.268 0 0 0-2.132-.55c-.595.093-1.183.225-1.761.396l1.012.583a2.868 2.868 0 0 1 2.452.32c1.146.8 3.842 2.42 3.842 2.42v17.013l.992-.8Z" fill="url(#j)"/><path d="M14.618 57.93h-.32V47.8l7.555 4.117 8.964-5.103 2.094-5.635.103.634-1.934 5.218-9.22 5.25-7.242-3.937v9.585Z" fill="url(#k)"/><path d="M54.124 30.352c0 6.748-4.764 14.97-10.641 18.363-5.385 3.106-9.835 1.089-10.546-4.482a12.81 12.81 0 0 1-.096-1.607c0-6.749 4.764-14.964 10.642-18.357.73-.433 1.505-.785 2.311-1.05 4.764-1.544 8.33 1.3 8.33 7.133Z" fill="url(#l)"/><path d="M45.864 24.62c0 6.852-4.84 15.201-10.814 18.653-.672.392-1.38.72-2.113.98a12.81 12.81 0 0 1-.096-1.608c0-6.749 4.764-14.964 10.642-18.357.73-.433 1.505-.785 2.311-1.05.047.46.07.92.07 1.383Z" fill="#171552"/><path d="M24.203 57.737a2.279 2.279 0 0 1-1.28-.403l-.129-.173a1.045 1.045 0 0 1 .64-1.665l.532.371a.442.442 0 0 0 .461 0 .423.423 0 0 0 .237-.39V30.64a1.922 1.922 0 0 0-.864-1.62 1.793 1.793 0 0 0-1.921 0l-13.446 8.1a5.622 5.622 0 0 0-2.651 4.757v5.231H3.97v-5.231a7.447 7.447 0 0 1 3.515-6.288l13.446-8.093a3.535 3.535 0 0 1 3.733 0 3.688 3.688 0 0 1 1.735 3.201v24.748a2.325 2.325 0 0 1-1.114 2.03 2.272 2.272 0 0 1-1.082.262Z" fill="#ECECEC"/><path d="M26.105 29.11c.145.411.22.844.224 1.28v24.741a2.331 2.331 0 0 1-1.12 2.03c-.34.196-.723.3-1.115.3a2.196 2.196 0 0 1-1.28-.402l-.135-.173a.843.843 0 0 1-.076-.128.98.98 0 0 0 .185.396l.128.173a2.222 2.222 0 0 0 2.395.103 2.325 2.325 0 0 0 1.114-2.03V30.64c0-.527-.11-1.048-.32-1.53Z" fill="url(#m)"/><path d="M23.78 29.013c.269.165.49.396.64.672a1.748 1.748 0 0 0-.736-.934 1.78 1.78 0 0 0-1.92 0l-13.421 8.1a5.616 5.616 0 0 0-2.657 4.763v5.225H3.97v.269h1.812v-5.231a5.622 5.622 0 0 1 2.663-4.758l13.447-8.1a1.793 1.793 0 0 1 1.889-.006Z" fill="#B1AEB1"/><path d="M24.408 55.893a.417.417 0 0 1-.313.038s1.184.314 1.184-.435V30.78a2.362 2.362 0 0 0-.935-1.85c-.576-.352-1.92-.692-1.51-.186.334.001.662.094.947.27a1.92 1.92 0 0 1 .864 1.62v24.868a.422.422 0 0 1-.237.39Z" fill="url(#n)"/><path d="M22.8 57.173a1.043 1.043 0 0 1 .64-1.664h.04l-.052-.039a1.043 1.043 0 0 0-.64 1.665l.128.173-.115-.135Z" fill="#B7B5B7"/><path d="M4.88 46.858v-5.23a7.42 7.42 0 0 1 3.515-6.289l13.446-8.1c.158-.094.323-.177.493-.249a3.438 3.438 0 0 0-1.396.506L7.492 35.589a7.446 7.446 0 0 0-3.515 6.288v5.231h1.805v-.25H4.88Z" fill="url(#o)"/><path d="M12.684 51.705 1.376 58.23v-9.361l11.308-6.525v9.361Z" fill="#A7AFFF"/><path d="m11.878 51.09-9.694 5.597V49.15l9.694-5.597v7.537Z" fill="url(#p)"/><path d="m6.774 50.297-4.13 2.382V49.47l4.13-2.388v3.214Z" fill="#fff"/><path d="M0 48.069v9.367l1.377.794v-9.36L0 48.069Z" fill="#231889"/><path d="M11.308 41.544 0 48.068l1.377.8 11.307-6.524-1.376-.8Z" fill="url(#q)"/><path d="M29.595 73.604h-9.38l-4.905.685-11.526-6.653 7.741-4.463 18.07 10.43Z" fill="#231889"/><path d="m58.856 30.934-4.757-.755.045-.314 4.648.736 9.246-5.282v.365l-9.182 5.25Z" fill="url(#r)"/><defs><linearGradient id="a" x1="56.497" y1="57.408" x2="-2.353" y2="89.81" gradientUnits="userSpaceOnUse"><stop stop-color="#E4E7FF"/><stop offset="1" stop-color="#2137FF"/></linearGradient><linearGradient id="b" x1="45.192" y1="46.583" x2="45.192" y2="73.604" gradientUnits="userSpaceOnUse"><stop stop-color="#2137FF"/><stop offset="1" stop-color="#0047FF"/></linearGradient><linearGradient id="c" x1="56.497" y1="19.413" x2="-2.353" y2="51.814" gradientUnits="userSpaceOnUse"><stop stop-color="#E4E7FF"/><stop offset="1" stop-color="#2137FF"/></linearGradient><linearGradient id="d" x1="37.462" y1="0" x2="25.19" y2="23.091" gradientUnits="userSpaceOnUse"><stop stop-color="#2137FF"/><stop offset="1" stop-color="#0047FF"/></linearGradient><linearGradient id="e" x1="59.743" y1="35.032" x2="9.194" y2="50.238" gradientUnits="userSpaceOnUse"><stop stop-color="#E4E7FF"/><stop offset="1" stop-color="#2137FF"/></linearGradient><linearGradient id="f" x1="52.964" y1="20.184" x2="51.349" y2="82.998" gradientUnits="userSpaceOnUse"><stop stop-color="#E4E7FF"/><stop offset="1" stop-color="#2137FF"/></linearGradient><linearGradient id="g" x1="32.128" y1="30.307" x2="57.765" y2="45.295" gradientUnits="userSpaceOnUse"><stop stop-color="#2137FF"/><stop offset="1" stop-color="#0047FF"/></linearGradient><linearGradient id="h" x1="38.27" y1="40.53" x2=".148" y2="88.639" gradientUnits="userSpaceOnUse"><stop stop-color="#E4E7FF"/><stop offset="1" stop-color="#2137FF"/></linearGradient><linearGradient id="i" x1="44.89" y1="19.539" x2="46.668" y2="52.318" gradientUnits="userSpaceOnUse"><stop stop-color="#2137FF"/><stop offset="1" stop-color="#E4E7FF"/></linearGradient><linearGradient id="j" x1="19.484" y1="35.89" x2="19.484" y2="56.623" gradientUnits="userSpaceOnUse"><stop stop-color="#2137FF"/><stop offset="1" stop-color="#0047FF"/></linearGradient><linearGradient id="k" x1="23.656" y1="41.179" x2="23.656" y2="57.929" gradientUnits="userSpaceOnUse"><stop stop-color="#2137FF"/><stop offset="1" stop-color="#6821FF"/></linearGradient><linearGradient id="l" x1="43.483" y1="22.803" x2="43.483" y2="50.174" gradientUnits="userSpaceOnUse"><stop stop-color="#2137FF"/><stop offset="1" stop-color="#0047FF"/></linearGradient><linearGradient id="m" x1="25.739" y1="41.796" x2="21.184" y2="41.989" gradientUnits="userSpaceOnUse"><stop stop-color="#E4E7FF"/><stop offset="1" stop-color="#2137FF"/></linearGradient><linearGradient id="n" x1="25.352" y1="31.488" x2="21.997" y2="31.584" gradientUnits="userSpaceOnUse"><stop stop-color="#E4E7FF"/><stop offset="1" stop-color="#2137FF"/></linearGradient><linearGradient id="o" x1="19.037" y1="35.907" x2="-1.174" y2="41.768" gradientUnits="userSpaceOnUse"><stop stop-color="#E4E7FF"/><stop offset="1" stop-color="#2137FF"/></linearGradient><linearGradient id="p" x1="7.031" y1="43.554" x2="7.031" y2="56.687" gradientUnits="userSpaceOnUse"><stop stop-color="#2137FF"/><stop offset="1" stop-color="#0047FF"/></linearGradient><linearGradient id="q" x1="10.406" y1="44.79" x2="-1.213" y2="51.185" gradientUnits="userSpaceOnUse"><stop stop-color="#E4E7FF"/><stop offset="1" stop-color="#2137FF"/></linearGradient><linearGradient id="r" x1="66.366" y1="22.445" x2="64.913" y2="25.352" gradientUnits="userSpaceOnUse"><stop stop-color="#DEE1FF"/><stop offset="1" stop-color="#0047FF"/></linearGradient></defs></svg>