<svg width="94" height="80" viewBox="0 0 94 80" fill="none" xmlns="http://www.w3.org/2000/svg">
<g clip-path="url(#clip0_216_1102)">
<path d="M3.28266 56.0291C3.25969 56.0292 3.23702 56.0238 3.21662 56.0133C3.19622 56.0027 3.17869 55.9874 3.16557 55.9685L2.32172 54.8178C2.06391 54.4784 1.92232 54.065 1.91797 53.6388V51.2688C1.91812 50.8253 2.06639 50.3946 2.33922 50.0449C2.61205 49.6953 2.99383 49.4468 3.42398 49.3389L4.6958 49.0158C4.73019 49.0131 4.76444 49.0226 4.79243 49.0428C4.82042 49.063 4.84032 49.0925 4.84857 49.126C4.85682 49.1595 4.85289 49.1948 4.83748 49.2257C4.82207 49.2565 4.79618 49.2809 4.76445 49.2944L3.49261 49.6134C3.12406 49.7062 2.7971 49.9195 2.56372 50.2194C2.33034 50.5194 2.20396 50.8888 2.20464 51.2688V53.6388C2.20347 54.0022 2.31958 54.3562 2.53571 54.6482L3.37956 55.7989C3.40184 55.83 3.41095 55.8687 3.40491 55.9065C3.39886 55.9443 3.37815 55.9782 3.34726 56.0008C3.32829 56.0152 3.30614 56.0249 3.28266 56.0291Z" fill="#A8CFF0"/>
<path d="M2.59207 54.2969L1.90568 53.8932C1.73796 53.7735 1.60059 53.6162 1.50454 53.4339C1.40849 53.2517 1.35643 53.0494 1.35254 52.8434V50.7722C1.35254 50.3684 1.60287 50.1827 1.90568 50.3684L2.59207 50.7722C2.75859 50.8927 2.89485 51.0503 2.99013 51.2324C3.08542 51.4146 3.13712 51.6164 3.14117 51.8219V53.8932C3.14117 54.2848 2.89085 54.4786 2.59207 54.2969Z" fill="#231889"/>
<path d="M2.59204 50.76L1.90565 50.3563C1.84196 50.3077 1.76248 50.2845 1.68264 50.2912C1.60281 50.2979 1.52831 50.334 1.47363 50.3926C1.55875 50.3867 1.64357 50.4079 1.71589 50.4532L2.40228 50.8569C2.56879 50.9775 2.70505 51.135 2.80034 51.3172C2.89562 51.4993 2.94732 51.7011 2.95138 51.9067V53.9779C2.9594 54.1163 2.9163 54.2528 2.83026 54.3615C3.01195 54.3615 3.14114 54.1717 3.14114 53.8851V51.8138C3.13771 51.6076 3.0863 51.405 2.99099 51.2221C2.89568 51.0392 2.7591 50.881 2.59204 50.76Z" fill="#72B5E8"/>
<path d="M55.8232 51.2769V55.904L68.703 48.4345V43.8196L55.8232 51.2769Z" fill="#171552"/>
<path d="M55.8232 51.2769V55.0965L52.2056 53.0373V49.2097L55.8232 51.2769Z" fill="#171552"/>
<path d="M52.2056 49.2097L55.8232 51.2769L68.703 43.8195L65.0813 41.7563L52.2056 49.2097Z" fill="#2672AB"/>
<path d="M92.5205 29.6923V34.5535L92.9969 34.1739V29.3208L92.5205 29.6923Z" fill="#231889"/>
<path d="M92.5207 29.692V34.5532L80.937 28.0407V23.1714L92.5207 29.692Z" fill="#171552"/>
<path d="M80.937 23.1715L92.5207 29.6921L92.9972 29.3207L81.4094 22.8081L80.937 23.1715Z" fill="#2672AB"/>
<path d="M89.9767 30.9318V38.1751L88.7251 37.4766V30.1848L89.9767 30.9318Z" fill="#171552"/>
<path d="M79.5684 40.2786C79.5684 41.5181 79.9923 42.3943 80.6868 42.8182L82.9034 44.1022C83.6261 44.5059 83.1658 43.5894 84.264 42.9555C86.4726 41.6796 88.2612 38.5909 88.2612 36.0553C88.2612 34.8037 89.42 34.7916 88.7094 34.3757L86.3635 33.0797C85.6408 32.6759 84.6557 32.7607 83.5696 33.3906C81.361 34.6543 79.5684 37.743 79.5684 40.2786Z" fill="#171552"/>
<path d="M81.8857 41.5949C81.8857 44.1265 83.6784 45.148 85.887 43.8721C88.0955 42.5963 89.8841 39.5116 89.8841 36.976C89.8841 34.4404 88.0955 33.4189 85.887 34.6948C83.6784 35.9706 81.8857 39.0594 81.8857 41.5949Z" fill="#171552"/>
<path d="M85.6931 34.5979C86.751 33.9882 87.7119 33.9074 88.4306 34.2627C88.0189 34.1776 87.5943 34.1755 87.1818 34.2566C86.7693 34.3377 86.3771 34.5004 86.0283 34.7351C83.8197 36.011 82.027 39.0957 82.027 41.6313C82.027 42.9515 82.5156 43.86 83.2908 44.2476C82.3137 43.9731 81.6758 43.004 81.6758 41.498C81.696 38.9625 83.4846 35.8737 85.6931 34.5979Z" fill="#231889"/>
<path d="M85.9191 36.5195C85.1701 37.0054 84.5456 37.6605 84.0961 38.4319C83.6466 39.2034 83.3845 40.0696 83.3311 40.9608C83.3311 42.596 84.4939 43.2582 85.9191 42.4345C86.6674 41.9482 87.2911 41.2929 87.7399 40.5215C88.1887 39.7501 88.4501 38.8841 88.5032 37.9932C88.5032 36.358 87.3444 35.6959 85.9191 36.5195Z" fill="white"/>
<path d="M87.5865 36.2654C87.8065 36.4584 87.978 36.7003 88.0874 36.9717C88.1968 37.2431 88.241 37.5363 88.2164 37.8279C88.1658 38.7221 87.9056 39.5919 87.4567 40.367C87.0078 41.142 86.3828 41.8006 85.6323 42.2894C85.3919 42.4555 85.1168 42.5648 84.8279 42.6089C84.539 42.6529 84.2439 42.6307 83.9648 42.5438C84.4413 42.8991 85.1357 42.8991 85.919 42.4509C86.6673 41.9645 87.291 41.3093 87.7398 40.5379C88.1886 39.7665 88.45 38.9005 88.503 38.0096C88.503 37.089 88.1437 36.4874 87.5865 36.2654Z" fill="url(#paint0_linear_216_1102)"/>
<path d="M84.2559 40.1695C84.2559 41.0254 84.8575 41.3807 85.6044 40.9366C85.9969 40.6827 86.3239 40.3397 86.559 39.9356C86.794 39.5315 86.9303 39.0777 86.957 38.611C86.957 37.755 86.3514 37.3997 85.6044 37.8398C85.2119 38.0943 84.8852 38.4381 84.6508 38.8429C84.4164 39.2478 84.2811 39.7023 84.2559 40.1695Z" fill="#171552"/>
<path d="M84.4819 40.3029C84.4819 41.1589 85.0835 41.5142 85.8305 41.0701C86.223 40.8155 86.5497 40.4718 86.7841 40.0669C87.0184 39.6621 87.1538 39.2075 87.179 38.7404C87.179 37.8844 86.5774 37.5291 85.8305 37.9733C85.438 38.2278 85.1112 38.5715 84.8769 38.9764C84.6425 39.3813 84.5072 39.8358 84.4819 40.3029Z" fill="url(#paint1_linear_216_1102)"/>
<path d="M70.9077 45.37C70.9077 46.6055 71.3357 47.4816 72.0302 47.9055C72.0503 47.9055 74.2226 49.1774 74.2468 49.1895C74.9695 49.5932 74.5052 48.6767 75.6034 48.0428C77.8119 46.767 79.6046 43.6782 79.6046 41.1467C79.6046 39.891 80.7634 39.8829 80.0528 39.463L77.6989 38.1629C76.9802 37.7592 75.995 37.844 74.9089 38.4698C72.7044 39.7457 70.9077 42.8344 70.9077 45.37Z" fill="#171552"/>
<path d="M80.0318 46.0159C81.6028 43.3285 81.6185 40.4147 80.0669 39.5076C78.5153 38.6006 75.984 40.0438 74.4129 42.7312C72.8419 45.4186 72.8262 48.3325 74.3778 49.2395C75.9294 50.1466 78.4608 48.7033 80.0318 46.0159Z" fill="#171552"/>
<path d="M77.0326 39.6891C78.0904 39.0754 79.0514 38.9947 79.766 39.354C79.3565 39.2686 78.934 39.266 78.5235 39.3464C78.113 39.4268 77.7228 39.5887 77.3758 39.8224C75.1673 41.0982 73.3786 44.187 73.3786 46.7225C73.3786 48.0388 73.8631 48.9472 74.6424 49.3389C73.6653 49.0643 73.0273 48.0913 73.0273 46.5853C73.0314 44.0537 74.8241 40.965 77.0326 39.6891Z" fill="#231889"/>
<path d="M77.2544 41.6069C76.5062 42.0933 75.8825 42.7485 75.4337 43.5199C74.9849 44.2913 74.7234 45.1573 74.6704 46.0482C74.6704 47.6834 75.8292 48.3456 77.2544 47.5219C78.0029 47.0358 78.6268 46.3806 79.0756 45.6091C79.5245 44.8377 79.7858 43.9716 79.8385 43.0806C79.8385 41.4454 78.6797 40.7833 77.2544 41.6069Z" fill="white"/>
<path d="M78.9264 41.3567C79.1463 41.5497 79.3179 41.7916 79.4273 42.063C79.5367 42.3344 79.5809 42.6276 79.5562 42.9192C79.5032 43.8101 79.2418 44.6761 78.7929 45.4475C78.3441 46.2189 77.7205 46.8742 76.9722 47.3605C76.7318 47.5268 76.4569 47.6364 76.1681 47.6812C75.8793 47.7259 75.5841 47.7046 75.3047 47.6189C75.7771 47.9742 76.4756 47.9742 77.2548 47.522C78.0031 47.0357 78.6268 46.3804 79.0756 45.609C79.5244 44.8376 79.7858 43.9716 79.8389 43.0807C79.8389 42.1763 79.4836 41.5788 78.9264 41.3567Z" fill="url(#paint2_linear_216_1102)"/>
<path d="M75.5913 45.2569C75.5913 46.1128 76.1969 46.4681 76.9439 46.028C77.3355 45.7725 77.6616 45.4286 77.8958 45.0239C78.13 44.6192 78.2659 44.1652 78.2924 43.6984C78.2924 42.8424 77.6868 42.4871 76.9439 42.9272C76.5511 43.1818 76.2239 43.5254 75.9889 43.9302C75.7539 44.335 75.6176 44.7895 75.5913 45.2569Z" fill="#171552"/>
<path d="M75.8174 45.3902C75.8174 46.2461 76.423 46.6014 77.17 46.1613C77.5616 45.9058 77.8876 45.5619 78.1219 45.1572C78.3561 44.7526 78.492 44.2985 78.5185 43.8317C78.5185 42.9757 77.9129 42.6204 77.17 43.0605C76.7772 43.3151 76.45 43.6587 76.215 44.0635C75.9799 44.4683 75.8437 44.9228 75.8174 45.3902Z" fill="url(#paint3_linear_216_1102)"/>
<path d="M71.1216 41.813V49.0523L72.4096 48.3094V42.5478L89.9648 32.4095V38.1711L91.2568 37.4282V30.1848L71.1216 41.813Z" fill="url(#paint4_linear_216_1102)"/>
<path d="M71.1095 41.821V49.0684L69.8579 48.3659V41.0781L71.1095 41.821Z" fill="#171552"/>
<path d="M57.9473 54.4666L58.6013 54.8501L69.2928 48.6929L68.6266 48.3174L57.9473 54.4666Z" fill="#231889"/>
<path d="M69.3048 44.7805V48.6969L68.6265 48.3174V44.3767L69.3048 44.7805Z" fill="#171552"/>
<path d="M57.6279 50.9822V56.554L70.2816 49.2299V43.6985L57.6279 50.9822ZM69.2884 48.6566L58.6131 54.8462V51.5515L69.2884 45.4023V48.6566Z" fill="url(#paint5_linear_216_1102)"/>
<path d="M57.6364 50.9822V56.5581L56.8047 56.1382V50.53L57.6364 50.9822Z" fill="#231889"/>
<path d="M56.8047 50.5298L57.6364 50.982L70.278 43.6983L69.4382 43.2542L56.8047 50.5298Z" fill="#231889"/>
<path d="M45.5718 60.0948C45.5718 61.3303 45.9957 62.2105 46.6902 62.6344L48.9068 63.9143C49.6295 64.3181 49.1692 63.4016 50.2674 62.7717C52.476 61.4958 54.2646 58.4071 54.2646 55.8715C54.2646 54.6199 55.4234 54.6078 54.7128 54.1879L52.3629 52.8878C51.6402 52.484 50.6551 52.5688 49.569 53.1946C47.3604 54.4786 45.5718 57.5592 45.5718 60.0948Z" fill="#171552"/>
<path d="M54.6983 60.7422C56.2693 58.0548 56.2851 55.141 54.7334 54.2339C53.1818 53.3269 50.6505 54.7701 49.0794 57.4575C47.5084 60.1449 47.4927 63.0588 49.0443 63.9658C50.5959 64.8729 53.1273 63.4296 54.6983 60.7422Z" fill="#171552"/>
<path d="M51.7089 54.4141C52.7667 53.8044 53.7277 53.7196 54.4464 54.079C54.0368 53.9944 53.6145 53.9923 53.2041 54.0727C52.7937 54.1531 52.4035 54.3145 52.0561 54.5473C49.8476 55.8232 48.0549 58.9119 48.0549 61.4475C48.0549 62.7678 48.5435 63.6762 49.3187 64.0638C48.3416 63.7893 47.7036 62.8202 47.7036 61.3142C47.6956 58.7787 49.4842 55.6899 51.7089 54.4141Z" fill="#231889"/>
<path d="M51.9191 56.332C51.1681 56.8206 50.5425 57.479 50.093 58.254C49.6434 59.029 49.3824 59.8989 49.3311 60.7935C49.3311 62.4287 50.4939 63.0868 51.9191 62.2672C52.6696 61.7783 53.2946 61.1198 53.7435 60.3447C54.1924 59.5697 54.4526 58.6999 54.5032 57.8057C54.5032 56.1704 53.3444 55.5123 51.9191 56.332Z" fill="white"/>
<path d="M53.5865 56.0938C53.8067 56.2865 53.9785 56.5284 54.0879 56.7999C54.1973 57.0713 54.2413 57.3647 54.2164 57.6563C54.1637 58.5472 53.9024 59.4134 53.4535 60.1848C53.0047 60.9562 52.3809 61.6115 51.6324 62.0976C51.3921 62.2641 51.1172 62.3739 50.8283 62.4187C50.5395 62.4634 50.2442 62.442 49.9648 62.356C50.4413 62.7113 51.1357 62.7113 51.919 62.2631C52.6695 61.7743 53.2945 61.1157 53.7434 60.3407C54.1922 59.5656 54.4525 58.6959 54.5031 57.8016C54.5031 56.9013 54.1316 56.3037 53.5865 56.0938Z" fill="url(#paint6_linear_216_1102)"/>
<path d="M50.2554 59.9818C50.2554 60.8377 50.857 61.193 51.6039 60.7529C51.9969 60.4986 52.3243 60.155 52.5594 59.7502C52.7944 59.3453 52.9305 58.8907 52.9565 58.4233C52.9565 57.5673 52.3509 57.212 51.6039 57.6561C51.212 57.9103 50.8855 58.2534 50.6512 58.6575C50.4169 59.0616 50.2812 59.5153 50.2554 59.9818Z" fill="#171552"/>
<path d="M50.4976 60.1311C50.4976 60.9871 51.0992 61.3424 51.8461 60.9023C52.2384 60.6475 52.565 60.3037 52.7993 59.8989C53.0336 59.4941 53.1691 59.0397 53.1946 58.5726C53.1946 57.7167 52.593 57.3614 51.8461 57.8015C51.4538 58.0562 51.1273 58.4 50.8929 58.8048C50.6586 59.2097 50.5231 59.6641 50.4976 60.1311Z" fill="url(#paint7_linear_216_1102)"/>
<path d="M31.0288 66.4499V72.0257L47.716 62.3922V56.8647L31.0288 66.4499Z" fill="url(#paint8_linear_216_1102)"/>
<g style="mix-blend-mode:multiply">
<path d="M42.9639 59.6346V65.0086L43.2303 64.8632V59.4812L42.9639 59.6346Z" fill="#A8CFF0"/>
</g>
<path d="M43.23 59.4852V64.8592L43.3915 64.7744V59.3923L43.23 59.4852Z" fill="#231889"/>
<path d="M31.0288 67.8793V71.5938L42.1523 65.1701C42.1524 64.7962 42.0542 64.4289 41.8675 64.1049C41.6808 63.781 41.4122 63.5119 41.0886 63.3245C40.7651 63.1372 40.398 63.0382 40.0241 63.0376C39.6502 63.037 39.2828 63.1346 38.9586 63.3209L31.0288 67.8793Z" fill="#231889"/>
<path d="M38.9586 63.3209L31.0288 67.8793V68.3759L38.9586 63.8215C39.2481 63.6553 39.5726 63.5594 39.906 63.5416C40.2393 63.5237 40.5722 63.5844 40.8778 63.7188C41.1835 63.8531 41.4532 64.0574 41.6655 64.315C41.8777 64.5727 42.0265 64.8767 42.0998 65.2024L42.1523 65.1701C42.1524 64.7962 42.0542 64.4289 41.8675 64.1049C41.6808 63.781 41.4122 63.5119 41.0886 63.3245C40.7651 63.1372 40.398 63.0382 40.0241 63.0376C39.6502 63.037 39.2828 63.1346 38.9586 63.3209Z" fill="#231889"/>
<path d="M31.037 66.45V72.0258L17.8584 64.5281V58.9199L31.037 66.45Z" fill="#0147FF"/>
<path d="M17.8584 58.9198L31.037 66.4499L47.7161 56.8647L34.5294 49.3428L17.8584 58.9198Z" fill="#231889"/>
<path d="M34.2627 44.8127L92.4276 11.0466V29.0218L34.2627 62.8484V44.8127Z" fill="#171552"/>
<path d="M92.3996 29.0379L92.4279 29.0218V11.0466L76.7783 20.1311L92.3996 29.0379Z" fill="url(#paint9_linear_216_1102)"/>
<path d="M70.3345 32.8819V38.7323L75.979 35.4618V29.563L70.3345 32.8819Z" fill="white"/>
<g style="mix-blend-mode:multiply" opacity="0.3">
<path d="M70.9644 33.2411L75.3451 30.6692V35.0984L70.9644 37.634V33.2411Z" fill="#2137FF"/>
</g>
<g style="mix-blend-mode:multiply" opacity="0.5">
<path d="M75.1594 30.7782V34.9934L70.9644 37.42V37.634L75.3451 35.0984V30.6692L75.1594 30.7782Z" fill="#2137FF"/>
</g>
<path d="M70.3383 32.8818V38.7322L64.9805 35.6354V29.7366L70.3383 32.8818Z" fill="#2137FF"/>
<g style="mix-blend-mode:multiply" opacity="0.3">
<path d="M65.6143 35.272V30.8428L69.7043 33.2411V37.6339L65.6143 35.272Z" fill="#2137FF"/>
</g>
<g style="mix-blend-mode:multiply" opacity="0.3">
<path d="M65.7838 35.1912V30.9437L65.6143 30.8428V35.272L69.7043 37.6339V37.4603L65.7838 35.1912Z" fill="#2137FF"/>
</g>
<path d="M64.9805 29.7367L70.3383 32.8819L75.9787 29.5631L70.6088 26.438L64.9805 29.7367Z" fill="white"/>
<path d="M64.9805 29.7366L70.3383 32.8819L75.9787 29.563L70.3181 32.6679L64.9805 29.7366Z" fill="url(#paint10_linear_216_1102)"/>
<path d="M66.2319 29.7365L70.6086 27.1726L74.7229 29.5669L70.3381 32.1469L66.2319 29.7365Z" fill="#2137FF"/>
<g style="mix-blend-mode:multiply" opacity="0.3">
<path d="M70.6086 27.3785L74.5453 29.6718L74.7229 29.5669L70.6086 27.1726L66.2319 29.7365L66.4096 29.8414L70.6086 27.3785Z" fill="#2137FF"/>
</g>
<path d="M73.225 32.9949L72.7769 34.3798L73.0676 34.2142V35.8656L73.3825 35.6839V34.0325L73.6732 33.8629L73.225 32.9949Z" fill="white"/>
<path d="M74.7595 33.2372L74.3154 32.3691L73.8672 33.754L74.1579 33.5844V35.2358L74.4688 35.0541V33.4028L74.7595 33.2372Z" fill="white"/>
<path d="M66.2805 34.9328L66.0947 34.8238V32.8777L66.2805 32.9827V34.9328Z" fill="white"/>
<path d="M66.5876 34.7795L66.4019 34.6745V33.0554L66.5876 33.1604V34.7795Z" fill="white"/>
<path d="M67.0558 35.05L66.8701 34.945V33.3259L67.0558 33.4309V35.05Z" fill="white"/>
<path d="M66.7733 34.8843L66.6885 34.8359V33.2168L66.7733 33.2652V34.8843Z" fill="white"/>
<path d="M67.3184 35.2033L67.1367 35.0943V33.4792L67.3184 33.5842V35.2033Z" fill="white"/>
<path d="M67.4556 35.2802L67.395 35.2438V33.6248L67.4556 33.6611V35.2802Z" fill="white"/>
<path d="M68.5054 35.8856L68.4448 35.8533V34.2302L68.5054 34.2666V35.8856Z" fill="white"/>
<path d="M68.0129 35.6031L67.8716 35.5183V33.9033L68.0129 33.9841V35.6031Z" fill="white"/>
<path d="M67.7541 35.4538L67.5684 35.3488V33.7297L67.7541 33.8347V35.4538Z" fill="white"/>
<path d="M68.3599 35.801L68.1338 35.6718V34.0527L68.3599 34.186V35.801Z" fill="white"/>
<path d="M68.7474 36.0271L68.6021 35.9423V34.3232L68.7474 34.408V36.0271Z" fill="white"/>
<path d="M69.0544 36.2046L68.8687 36.0956V34.4766L69.0544 34.5856V36.2046Z" fill="white"/>
<path d="M69.3166 36.6852L69.1753 36.6004V34.6543L69.3166 34.735V36.6852Z" fill="white"/>
<path d="M63.8179 36.6771V42.5275L69.4583 39.2571V33.3623L63.8179 36.6771Z" fill="white"/>
<g style="mix-blend-mode:multiply" opacity="0.3">
<path d="M64.4478 37.0404L68.8285 34.4685V38.8937L64.4478 41.4292V37.0404Z" fill="#2137FF"/>
</g>
<g style="mix-blend-mode:multiply" opacity="0.5">
<path d="M68.6428 34.5735V38.7887L64.4478 41.2193V41.4292L68.8285 38.8937V34.4685L68.6428 34.5735Z" fill="#2137FF"/>
</g>
<path d="M63.8217 36.6771V42.5275L58.4639 39.4347V33.5359L63.8217 36.6771Z" fill="#2137FF"/>
<g style="mix-blend-mode:multiply" opacity="0.3">
<path d="M59.0977 39.0672V34.6421L63.1877 37.0404V41.4332L59.0977 39.0672Z" fill="#2137FF"/>
</g>
<g style="mix-blend-mode:multiply" opacity="0.3">
<path d="M59.2672 38.9905V34.739L59.0977 34.6421V39.0672L63.1877 41.4332V41.2556L59.2672 38.9905Z" fill="#2137FF"/>
</g>
<path d="M58.4639 33.5359L63.8217 36.6771L69.4581 33.3623L64.0922 30.2332L58.4639 33.5359Z" fill="white"/>
<path d="M58.4639 33.5359L63.8217 36.6771L69.4581 33.3623L63.8015 36.4631L58.4639 33.5359Z" fill="url(#paint11_linear_216_1102)"/>
<path d="M59.7153 33.5359L64.092 30.968L68.2063 33.3623L63.8215 35.9423L59.7153 33.5359Z" fill="#2137FF"/>
<g style="mix-blend-mode:multiply" opacity="0.3">
<path d="M64.092 31.1739L68.0287 33.4673L68.2063 33.3623L64.092 30.968L59.7153 33.5359L59.893 33.6368L64.092 31.1739Z" fill="#2137FF"/>
</g>
<path d="M66.7084 36.7942L66.2603 38.1791L66.551 38.0095V39.6609L66.8659 39.4792V37.8278L67.1566 37.6623L66.7084 36.7942Z" fill="white"/>
<path d="M68.2429 37.0324L67.7947 36.1643L67.3506 37.5492L67.6373 37.3836V39.031L67.9522 38.8533V37.202L68.2429 37.0324Z" fill="white"/>
<path d="M59.7639 38.7282L59.5781 38.6232V36.6731L59.7639 36.7821V38.7282Z" fill="white"/>
<path d="M60.071 38.5749L59.8853 38.4699V36.8508L60.071 36.9558V38.5749Z" fill="white"/>
<path d="M60.5392 38.8454L60.3535 38.7404V37.1213L60.5392 37.2263V38.8454Z" fill="white"/>
<path d="M60.2526 38.6839L60.1719 38.6354V37.0164L60.2526 37.0648V38.6839Z" fill="white"/>
<path d="M60.8018 38.9987L60.6201 38.8937V37.2747L60.8018 37.3796V38.9987Z" fill="white"/>
<path d="M60.939 39.0754L60.8784 39.0431V37.4241L60.939 37.4604V39.0754Z" fill="white"/>
<path d="M61.9888 39.6852L61.9282 39.6488V38.0298L61.9888 38.0661V39.6852Z" fill="white"/>
<path d="M61.4959 39.3983L61.3506 39.3175V37.6985L61.4959 37.7792V39.3983Z" fill="white"/>
<path d="M61.2375 39.2489L61.0518 39.144V37.5249L61.2375 37.6299V39.2489Z" fill="white"/>
<path d="M61.8433 39.6003L61.6172 39.4711V37.8521L61.8433 37.9813V39.6003Z" fill="white"/>
<path d="M62.2308 39.8224L62.0854 39.7416V38.1226L62.2308 38.2033V39.8224Z" fill="white"/>
<path d="M62.5337 39.9999L62.3521 39.8949V38.2759L62.5337 38.3809V39.9999Z" fill="white"/>
<path d="M62.8001 40.4803L62.6548 40.3996V38.4495L62.8001 38.5343V40.4803Z" fill="white"/>
<path d="M57.2969 40.4926V46.347L62.9414 43.0766V37.1777L57.2969 40.4926Z" fill="white"/>
<g style="mix-blend-mode:multiply" opacity="0.3">
<path d="M57.9312 40.8559L62.3119 38.2839V42.7091L57.9312 45.2487V40.8559Z" fill="#2137FF"/>
</g>
<g style="mix-blend-mode:multiply" opacity="0.5">
<path d="M62.1262 38.3929V42.6041L57.9312 45.0347V45.2487L62.3119 42.7091V38.2839L62.1262 38.3929Z" fill="#2137FF"/>
</g>
<path d="M57.3051 40.4925V46.347L51.9473 43.2502V37.3513L57.3051 40.4925Z" fill="#2137FF"/>
<g style="mix-blend-mode:multiply" opacity="0.3">
<path d="M52.5811 42.887V38.4578L56.6711 40.8561V45.2489L52.5811 42.887Z" fill="#2137FF"/>
</g>
<g style="mix-blend-mode:multiply" opacity="0.3">
<path d="M52.7466 42.8062V38.5547L52.5811 38.4578V42.887L56.6711 45.2489V45.0713L52.7466 42.8062Z" fill="#2137FF"/>
</g>
<path d="M51.9473 37.3514L57.3051 40.4926L62.9415 37.1778L57.5716 34.0527L51.9473 37.3514Z" fill="white"/>
<path d="M51.9473 37.3513L57.3051 40.4926L62.9415 37.1777L57.2849 40.2826L51.9473 37.3513Z" fill="url(#paint12_linear_216_1102)"/>
<path d="M53.1987 37.3513L57.5754 34.7834L61.6897 37.1777L57.3049 39.7577L53.1987 37.3513Z" fill="#2137FF"/>
<g style="mix-blend-mode:multiply" opacity="0.3">
<path d="M57.5754 34.9934L61.512 37.2827L61.6897 37.1777L57.5754 34.7834L53.1987 37.3513L53.3764 37.4563L57.5754 34.9934Z" fill="#2137FF"/>
</g>
<path d="M60.1918 40.6096L59.7437 41.9945L60.0344 41.8249V43.4763L60.3493 43.2946V41.6432L60.64 41.4777L60.1918 40.6096Z" fill="white"/>
<path d="M61.7264 40.8478L61.2782 39.9797L60.8301 41.3646L61.1208 41.1991V42.8504L61.4357 42.6687V41.0174L61.7264 40.8478Z" fill="white"/>
<path d="M53.2473 42.5438L53.0615 42.4388V40.4927L53.2473 40.5977V42.5438Z" fill="white"/>
<path d="M53.5503 42.3943L53.3687 42.2853V40.6663L53.5503 40.7753V42.3943Z" fill="white"/>
<path d="M54.0226 42.6648L53.8369 42.5558V40.9368L54.0226 41.0458V42.6648Z" fill="white"/>
<path d="M53.7362 42.4993L53.6514 42.4508V40.8318L53.7362 40.8802V42.4993Z" fill="white"/>
<path d="M54.2852 42.8182L54.1035 42.7091V41.0901L54.2852 41.1951V42.8182Z" fill="white"/>
<path d="M54.4225 42.8949L54.3579 42.8586V41.2395L54.4225 41.2758V42.8949Z" fill="white"/>
<path d="M55.4718 43.5006L55.4072 43.4643V41.8452L55.4718 41.8816V43.5006Z" fill="white"/>
<path d="M54.9793 43.218L54.834 43.1332V41.5142L54.9793 41.5989V43.218Z" fill="white"/>
<path d="M54.7209 43.0686L54.5352 42.9596V41.3406L54.7209 41.4496V43.0686Z" fill="white"/>
<path d="M55.3267 43.4157L55.1006 43.2865V41.6675L55.3267 41.7967V43.4157Z" fill="white"/>
<path d="M55.7142 43.6418L55.5688 43.557V41.938L55.7142 42.0228V43.6418Z" fill="white"/>
<path d="M56.0171 43.8156L55.8354 43.7106V42.0916L56.0171 42.1965V43.8156Z" fill="white"/>
<path d="M56.2835 44.2999L56.1382 44.2151V42.269L56.2835 42.3498V44.2999Z" fill="white"/>
<path d="M44.7324 40.7993V46.6497L50.3769 43.3793V37.4805L44.7324 40.7993Z" fill="white"/>
<g style="mix-blend-mode:multiply" opacity="0.3">
<path d="M45.3662 41.1588L49.7429 38.5869V43.0161L45.3662 45.5517V41.1588Z" fill="#2137FF"/>
</g>
<g style="mix-blend-mode:multiply" opacity="0.5">
<path d="M49.5572 38.6959V42.9111L45.3662 45.3377V45.5517L49.7429 43.0161V38.5869L49.5572 38.6959Z" fill="#2137FF"/>
</g>
<path d="M44.7362 40.7994V46.6498L39.3784 43.5571V37.6582L44.7362 40.7994Z" fill="#2137FF"/>
<g style="mix-blend-mode:multiply" opacity="0.3">
<path d="M40.0122 43.1897V38.7605L44.1022 41.1628V45.5557L40.0122 43.1897Z" fill="#2137FF"/>
</g>
<g style="mix-blend-mode:multiply" opacity="0.3">
<path d="M40.1818 43.1089V38.8614L40.0122 38.7605V43.1897L44.1022 45.5557V45.378L40.1818 43.1089Z" fill="#2137FF"/>
</g>
<path d="M39.3784 37.6582L44.7362 40.7994L50.3767 37.4805L45.0068 34.3555L39.3784 37.6582Z" fill="white"/>
<path d="M39.3784 37.6581L44.7362 40.7993L50.3767 37.4805L44.7161 40.5853L39.3784 37.6581Z" fill="url(#paint13_linear_216_1102)"/>
<path d="M40.6299 37.6582L45.0066 35.0903L49.1209 37.4846L44.7361 40.0646L40.6299 37.6582Z" fill="#2137FF"/>
<g style="mix-blend-mode:multiply" opacity="0.3">
<path d="M45.0066 35.2962L48.9432 37.5896L49.1209 37.4846L45.0066 35.0903L40.6299 37.6582L40.8075 37.7591L45.0066 35.2962Z" fill="#2137FF"/>
</g>
<path d="M47.6228 40.9126L47.1787 42.2975L47.4654 42.1319V43.7833L47.7803 43.6016V41.9502L48.071 41.7807L47.6228 40.9126Z" fill="white"/>
<path d="M49.1574 41.1547L48.7133 40.2866L48.2651 41.6715L48.5558 41.5019V43.1533L48.8667 42.9716V41.3202L49.1574 41.1547Z" fill="white"/>
<path d="M40.6783 42.8505L40.4966 42.7415V40.7954L40.6783 40.9004V42.8505Z" fill="white"/>
<path d="M40.9855 42.6972L40.7998 42.5922V40.9731L40.9855 41.0781V42.6972Z" fill="white"/>
<path d="M41.4538 42.9677L41.2681 42.8627V41.2437L41.4538 41.3486V42.9677Z" fill="white"/>
<path d="M41.1712 42.8062L41.0864 42.7537V41.1387L41.1712 41.1831V42.8062Z" fill="white"/>
<path d="M41.7204 43.121L41.5347 43.016V41.397L41.7204 41.5019V43.121Z" fill="white"/>
<path d="M41.8535 43.1976L41.793 43.1653V41.5422L41.8535 41.5786V43.1976Z" fill="white"/>
<path d="M42.9033 43.8035L42.8428 43.7712V42.1521L42.9033 42.1844V43.8035Z" fill="white"/>
<path d="M42.4104 43.5209L42.269 43.4401V41.821L42.4104 41.9018V43.5209Z" fill="white"/>
<path d="M42.152 43.3712L41.9663 43.2663V41.6472L42.152 41.7522V43.3712Z" fill="white"/>
<path d="M42.7578 43.7225L42.5317 43.5893V41.9702L42.7578 42.1035V43.7225Z" fill="white"/>
<path d="M43.1454 43.9447L43 43.8639V42.2449L43.1454 42.3256V43.9447Z" fill="white"/>
<path d="M43.4523 44.1224L43.2666 44.0133V42.3943L43.4523 42.5033V44.1224Z" fill="white"/>
<path d="M43.7146 44.6029L43.5732 44.5181V42.572L43.7146 42.6528V44.6029Z" fill="white"/>
<path d="M38.1953 44.6149V50.4693L43.8398 47.1989V41.3L38.1953 44.6149Z" fill="white"/>
<g style="mix-blend-mode:multiply" opacity="0.3">
<path d="M38.8252 44.9784L43.2059 42.4065V46.8316L38.8252 49.3672V44.9784Z" fill="#2137FF"/>
</g>
<g style="mix-blend-mode:multiply" opacity="0.5">
<path d="M43.0202 42.5155V46.7267L38.8252 49.1573V49.3672L43.2059 46.8316V42.4065L43.0202 42.5155Z" fill="#2137FF"/>
</g>
<path d="M38.1996 44.6148V50.4693L32.8418 47.3725V41.4736L38.1996 44.6148Z" fill="#2137FF"/>
<g style="mix-blend-mode:multiply" opacity="0.3">
<path d="M33.4756 47.0052V42.5801L37.5656 44.9784V49.3712L33.4756 47.0052Z" fill="#2137FF"/>
</g>
<g style="mix-blend-mode:multiply" opacity="0.3">
<path d="M33.6452 46.9285V42.677L33.4756 42.5801V47.0052L37.5656 49.3712V49.1936L33.6452 46.9285Z" fill="#2137FF"/>
</g>
<path d="M32.8418 41.4736L38.1996 44.6148L43.8401 41.3L38.4701 38.1709L32.8418 41.4736Z" fill="white"/>
<path d="M32.8418 41.4737L38.1996 44.6149L43.8401 41.3L38.1794 44.4009L32.8418 41.4737Z" fill="url(#paint14_linear_216_1102)"/>
<path d="M34.0933 41.4736L38.47 38.9058L42.5842 41.3L38.1994 43.88L34.0933 41.4736Z" fill="#2137FF"/>
<g style="mix-blend-mode:multiply" opacity="0.3">
<path d="M38.47 39.1157L42.4066 41.405L42.5842 41.3L38.47 38.9058L34.0933 41.4736L34.2709 41.5786L38.47 39.1157Z" fill="#2137FF"/>
</g>
<path d="M41.0862 44.7319L40.6421 46.1168L40.9288 45.9472V47.5986L41.2437 47.4169V45.7655L41.5344 45.6L41.0862 44.7319Z" fill="white"/>
<path d="M42.6203 44.9701L42.1722 44.1021L41.728 45.4869L42.0147 45.3214V46.9727L42.3296 46.7911V45.1397L42.6203 44.9701Z" fill="white"/>
<path d="M34.1418 46.666L33.9561 46.561V44.6108L34.1418 44.7199V46.666Z" fill="white"/>
<path d="M34.4484 46.5126L34.2627 46.4076V44.7886L34.4484 44.8936V46.5126Z" fill="white"/>
<path d="M34.9167 46.7872L34.731 46.6781V45.0591L34.9167 45.1641V46.7872Z" fill="white"/>
<path d="M34.6341 46.6216L34.5493 46.5732V44.9541L34.6341 45.0026V46.6216Z" fill="white"/>
<path d="M35.1792 46.9364L34.9976 46.8315V45.2124L35.1792 45.3174V46.9364Z" fill="white"/>
<path d="M35.3164 47.0172L35.2559 46.9809V45.3618L35.3164 45.3982V47.0172Z" fill="white"/>
<path d="M36.3662 47.6229L36.3057 47.5866V45.9675L36.3662 46.0039V47.6229Z" fill="white"/>
<path d="M35.8737 47.3363L35.7324 47.2555V45.6365L35.8737 45.7172V47.3363Z" fill="white"/>
<path d="M35.6154 47.1869L35.4297 47.0819V45.4629L35.6154 45.5679V47.1869Z" fill="white"/>
<path d="M36.2212 47.5381L35.9951 47.4088V45.7898L36.2212 45.919V47.5381Z" fill="white"/>
<path d="M36.6087 47.7601L36.4634 47.6794V46.0603L36.6087 46.1411V47.7601Z" fill="white"/>
<path d="M36.9117 47.9379L36.73 47.8329V46.2139L36.9117 46.3188V47.9379Z" fill="white"/>
<path d="M37.1781 48.4183L37.0327 48.3376V46.3875L37.1781 46.4722V48.4183Z" fill="white"/>
<path d="M31.6748 48.4103V54.2647L37.3233 50.9943V45.0955L31.6748 48.4103Z" fill="white"/>
<g style="mix-blend-mode:multiply" opacity="0.3">
<path d="M32.3086 48.7736L36.6893 46.2017V50.6268L32.3086 53.1664V48.7736Z" fill="#2137FF"/>
</g>
<g style="mix-blend-mode:multiply" opacity="0.5">
<path d="M36.5036 46.3107V50.5218L32.3086 52.9524V53.1664L36.6893 50.6268V46.2017L36.5036 46.3107Z" fill="#2137FF"/>
</g>
<path d="M31.683 48.4103V54.2647L26.3252 51.1679V45.269L31.683 48.4103Z" fill="#2137FF"/>
<g style="mix-blend-mode:multiply" opacity="0.3">
<path d="M26.959 50.8044V46.3752L31.049 48.7735V53.1664L26.959 50.8044Z" fill="#2137FF"/>
</g>
<g style="mix-blend-mode:multiply" opacity="0.3">
<path d="M27.1286 50.7237V46.4721L26.959 46.3752V50.8044L31.049 53.1664V52.9888L27.1286 50.7237Z" fill="#2137FF"/>
</g>
<path d="M26.3252 45.2689L31.683 48.4101L37.3235 45.0953L31.9535 41.9702L26.3252 45.2689Z" fill="white"/>
<path d="M26.3252 45.2691L31.683 48.4103L37.3235 45.0955L31.6628 48.2003L26.3252 45.2691Z" fill="url(#paint15_linear_216_1102)"/>
<path d="M27.5767 45.2691L31.9534 42.7012L36.0676 45.0995L31.6828 47.6754L27.5767 45.2691Z" fill="#2137FF"/>
<g style="mix-blend-mode:multiply" opacity="0.3">
<path d="M31.9534 42.9111L35.89 45.2004L36.0676 45.0995L31.9534 42.7012L27.5767 45.2691L27.7543 45.374L31.9534 42.9111Z" fill="#2137FF"/>
</g>
<path d="M34.5698 48.5273L34.1216 49.9122L34.4123 49.7426V51.394L34.7272 51.2123V49.561L35.0179 49.3954L34.5698 48.5273Z" fill="white"/>
<path d="M36.1039 48.7694L35.6557 47.9014L35.2075 49.2822L35.4982 49.1167V50.768L35.8132 50.5863V48.935L36.1039 48.7694Z" fill="white"/>
<path d="M27.6252 50.4612L27.4395 50.3563V48.4102L27.6252 48.5151V50.4612Z" fill="white"/>
<path d="M27.9278 50.3118L27.7461 50.2028V48.5837L27.9278 48.6928V50.3118Z" fill="white"/>
<path d="M28.4001 50.5823L28.2144 50.4773V48.8542L28.4001 48.9633V50.5823Z" fill="white"/>
<path d="M28.1136 50.4168L28.0288 50.3683V48.7493L28.1136 48.7977V50.4168Z" fill="white"/>
<path d="M28.6626 50.7359L28.481 50.6269V49.0078L28.6626 49.1168V50.7359Z" fill="white"/>
<path d="M28.8 50.8126L28.7354 50.7763V49.1572L28.8 49.1936V50.8126Z" fill="white"/>
<path d="M29.8496 51.4181L29.7891 51.3818V49.7627L29.8496 49.799V51.4181Z" fill="white"/>
<path d="M29.3573 51.1355L29.2119 51.0507V49.4316L29.3573 49.5164V51.1355Z" fill="white"/>
<path d="M29.0988 50.9861L28.9131 50.8771V49.2581L29.0988 49.3671V50.9861Z" fill="white"/>
<path d="M29.7046 51.3335L29.4785 51.2043V49.5852L29.7046 49.7144V51.3335Z" fill="white"/>
<path d="M30.0921 51.5596L29.9468 51.4748V49.8557L30.0921 49.9405V51.5596Z" fill="white"/>
<path d="M30.3951 51.7331L30.2134 51.6281V50.009L30.3951 50.114V51.7331Z" fill="white"/>
<path d="M30.6615 52.2177L30.5161 52.1329V50.1868L30.6615 50.2675V52.2177Z" fill="white"/>
<path d="M50.7803 44.292V50.1424L56.4248 46.872V40.9731L50.7803 44.292Z" fill="white"/>
<g style="mix-blend-mode:multiply" opacity="0.3">
<path d="M51.4146 44.6513L55.7913 42.0793V46.5085L51.4146 49.0441V44.6513Z" fill="#2137FF"/>
</g>
<g style="mix-blend-mode:multiply" opacity="0.5">
<path d="M55.6096 42.1884V46.4036L51.4146 48.8301V49.0441L55.7913 46.5085V42.0793L55.6096 42.1884Z" fill="#2137FF"/>
</g>
<path d="M50.7885 44.292V50.1424L45.4307 47.0456V41.1467L50.7885 44.292Z" fill="#2137FF"/>
<g style="mix-blend-mode:multiply" opacity="0.3">
<path d="M46.0645 46.6821V42.2529L50.1545 44.6512V49.0441L46.0645 46.6821Z" fill="#2137FF"/>
</g>
<g style="mix-blend-mode:multiply" opacity="0.3">
<path d="M46.23 46.6014V42.3539L46.0645 42.2529V46.6821L50.1545 49.0441V48.8705L46.23 46.6014Z" fill="#2137FF"/>
</g>
<path d="M45.4307 41.1466L50.7885 44.2918L56.4249 40.973L51.055 37.8479L45.4307 41.1466Z" fill="white"/>
<path d="M45.4307 41.1468L50.7885 44.292L56.4249 40.9731L50.7643 44.078L45.4307 41.1468Z" fill="url(#paint16_linear_216_1102)"/>
<path d="M46.6821 41.1466L51.0548 38.5828L55.1731 40.977L50.7883 43.557L46.6821 41.1466Z" fill="#2137FF"/>
<g style="mix-blend-mode:multiply" opacity="0.3">
<path d="M51.0548 38.7887L54.9954 41.082L55.1731 40.977L51.0548 38.5828L46.6821 41.1466L46.8598 41.2516L51.0548 38.7887Z" fill="#2137FF"/>
</g>
<path d="M53.6752 44.405L53.2271 45.7899L53.5178 45.6244V47.2757L53.8327 47.094V45.4427L54.1234 45.2731L53.6752 44.405Z" fill="white"/>
<path d="M55.2098 44.6471L54.7616 43.7791L54.3135 45.1639L54.6042 44.9944V46.6457L54.9191 46.464V44.8127L55.2098 44.6471Z" fill="white"/>
<path d="M46.7306 46.343L46.5449 46.2339V44.2878L46.7306 44.3928V46.343Z" fill="white"/>
<path d="M47.0337 46.1896L46.8521 46.0846V44.4656L47.0337 44.5706V46.1896Z" fill="white"/>
<path d="M47.502 46.4601L47.3203 46.3551V44.7361L47.502 44.8411V46.4601Z" fill="white"/>
<path d="M47.2196 46.2945L47.1348 46.246V44.627L47.2196 44.6754V46.2945Z" fill="white"/>
<path d="M47.7682 46.6134L47.5825 46.5085V44.8894L47.7682 44.9944V46.6134Z" fill="white"/>
<path d="M47.9019 46.6903L47.8413 46.654V45.0349L47.9019 45.0712V46.6903Z" fill="white"/>
<path d="M48.9512 47.2959L48.8906 47.2636V45.6445L48.9512 45.6768V47.2959Z" fill="white"/>
<path d="M48.4627 47.0132L48.3174 46.9284V45.3093L48.4627 45.3941V47.0132Z" fill="white"/>
<path d="M48.2043 46.8639L48.0186 46.7589V45.1399L48.2043 45.2449V46.8639Z" fill="white"/>
<path d="M48.806 47.2152L48.584 47.0819V45.4629L48.806 45.5921V47.2152Z" fill="white"/>
<path d="M49.1936 47.4372L49.0522 47.3525V45.7334L49.1936 45.8182V47.4372Z" fill="white"/>
<path d="M49.5007 47.6148L49.3149 47.5058V45.8867L49.5007 45.9957V47.6148Z" fill="white"/>
<path d="M49.7669 48.0953L49.6216 48.0106V46.0645L49.7669 46.1452V48.0953Z" fill="white"/>
<path d="M44.2437 48.1073V53.9577L49.8881 50.6913V44.7925L44.2437 48.1073Z" fill="white"/>
<g style="mix-blend-mode:multiply" opacity="0.3">
<path d="M44.8774 48.4708L49.2541 45.8989V50.3241L44.8774 52.8597V48.4708Z" fill="#2137FF"/>
</g>
<g style="mix-blend-mode:multiply" opacity="0.5">
<path d="M49.0684 46.0039V50.2191L44.8774 52.6497V52.8597L49.2541 50.3241V45.8989L49.0684 46.0039Z" fill="#2137FF"/>
</g>
<path d="M44.2519 48.1075V53.9579L38.894 50.8652V44.9663L44.2519 48.1075Z" fill="#2137FF"/>
<g style="mix-blend-mode:multiply" opacity="0.3">
<path d="M39.5239 50.4977V46.0725L43.618 48.4708V52.8637L39.5239 50.4977Z" fill="#2137FF"/>
</g>
<g style="mix-blend-mode:multiply" opacity="0.3">
<path d="M39.6935 50.4209V46.1694L39.5239 46.0725V50.4977L43.618 52.8637V52.686L39.6935 50.4209Z" fill="#2137FF"/>
</g>
<path d="M38.894 44.9663L44.2519 48.1075L49.8883 44.7927L44.5183 41.6636L38.894 44.9663Z" fill="white"/>
<path d="M38.894 44.9661L44.2519 48.1073L49.8883 44.7925L44.2276 47.8933L38.894 44.9661Z" fill="url(#paint17_linear_216_1102)"/>
<path d="M40.1455 44.9661L44.5182 42.3982L48.6365 44.7925L44.2477 47.3725L40.1455 44.9661Z" fill="#2137FF"/>
<g style="mix-blend-mode:multiply" opacity="0.3">
<path d="M44.5182 42.6041L48.4588 44.8974L48.6365 44.7925L44.5182 42.3982L40.1455 44.9661L40.3191 45.071L44.5182 42.6041Z" fill="#2137FF"/>
</g>
<path d="M47.1386 48.2246L46.6904 49.6055L46.9811 49.4399V51.0913L47.2961 50.9096V49.2582L47.5868 49.0927L47.1386 48.2246Z" fill="white"/>
<path d="M48.6727 48.4628L48.2245 47.5947L47.7764 48.9796L48.0671 48.8141V50.4654L48.382 50.2837V48.6324L48.6727 48.4628Z" fill="white"/>
<path d="M40.19 50.1584L40.0083 50.0534V48.1033L40.19 48.2123V50.1584Z" fill="white"/>
<path d="M40.4968 50.005L40.311 49.9001V48.281L40.4968 48.386V50.005Z" fill="white"/>
<path d="M40.9654 50.2755L40.7837 50.1706V48.5515L40.9654 48.6565V50.2755Z" fill="white"/>
<path d="M40.6824 50.114L40.5977 50.0656V48.4465L40.6824 48.495V50.114Z" fill="white"/>
<path d="M41.2316 50.4291L41.0459 50.3241V48.7051L41.2316 48.8101V50.4291Z" fill="white"/>
<path d="M41.3648 50.5056L41.3042 50.4733V48.8542L41.3648 48.8906V50.5056Z" fill="white"/>
<path d="M42.4146 51.1154L42.354 51.079V49.46L42.4146 49.4963V51.1154Z" fill="white"/>
<path d="M41.9221 50.8287L41.7808 50.748V49.1289L41.9221 49.2097V50.8287Z" fill="white"/>
<path d="M41.6636 50.6794L41.4819 50.5744V48.9553L41.6636 49.0603V50.6794Z" fill="white"/>
<path d="M42.2694 51.0305L42.0474 50.9013V49.2822L42.2694 49.4114V51.0305Z" fill="white"/>
<path d="M42.6569 51.2525L42.5156 51.1718V49.5527L42.6569 49.6335V51.2525Z" fill="white"/>
<path d="M42.9636 51.4303L42.7778 51.3254V49.7063L42.9636 49.8113V51.4303Z" fill="white"/>
<path d="M43.2263 51.9108L43.085 51.83V49.8799L43.2263 49.9647V51.9108Z" fill="white"/>
<path d="M57.2969 34.1173V39.9718L62.9414 36.7014V30.8025L57.2969 34.1173Z" fill="white"/>
<g style="mix-blend-mode:multiply" opacity="0.3">
<path d="M57.9312 34.4806L62.3119 31.9087V36.3379L57.9312 38.8735V34.4806Z" fill="#2137FF"/>
</g>
<g style="mix-blend-mode:multiply" opacity="0.5">
<path d="M62.1262 32.0177V36.2289L57.9312 38.6595V38.8735L62.3119 36.3379V31.9087L62.1262 32.0177Z" fill="#2137FF"/>
</g>
<path d="M57.3051 34.1173V39.9717L51.9473 36.8749V30.9761L57.3051 34.1173Z" fill="#2137FF"/>
<g style="mix-blend-mode:multiply" opacity="0.3">
<path d="M52.5811 36.5115V32.0823L56.6711 34.4806V38.8734L52.5811 36.5115Z" fill="#2137FF"/>
</g>
<g style="mix-blend-mode:multiply" opacity="0.3">
<path d="M52.7466 36.4307V32.1792L52.5811 32.0823V36.5115L56.6711 38.8734V38.6958L52.7466 36.4307Z" fill="#2137FF"/>
</g>
<path d="M51.9473 30.9762L57.3051 34.1174L62.9415 30.8026L57.5716 27.6775L51.9473 30.9762Z" fill="white"/>
<path d="M51.9473 30.9761L57.3051 34.1173L62.9415 30.8025L57.2849 33.9074L51.9473 30.9761Z" fill="url(#paint18_linear_216_1102)"/>
<path d="M53.1987 30.9761L57.5754 28.4082L61.6897 30.8065L57.3049 33.3865L53.1987 30.9761Z" fill="#2137FF"/>
<g style="mix-blend-mode:multiply" opacity="0.3">
<path d="M57.5754 28.6182L61.512 30.9074L61.6897 30.8065L57.5754 28.4082L53.1987 30.9761L53.3764 31.0811L57.5754 28.6182Z" fill="#2137FF"/>
</g>
<path d="M60.1918 34.2344L59.7437 35.6193L60.0344 35.4497V37.101L60.3493 36.9193V35.272L60.64 35.1024L60.1918 34.2344Z" fill="white"/>
<path d="M61.7264 34.4766L61.2782 33.6045L60.8301 34.9934L61.1208 34.8238V36.4752L61.4357 36.2935V34.6421L61.7264 34.4766Z" fill="white"/>
<path d="M53.2473 36.1683L53.0615 36.0633V34.1172L53.2473 34.2222V36.1683Z" fill="white"/>
<path d="M53.5503 36.0191L53.3687 35.9101V34.291L53.5503 34.4V36.0191Z" fill="white"/>
<path d="M54.0226 36.2896L53.8369 36.1806V34.5615L54.0226 34.6705V36.2896Z" fill="white"/>
<path d="M53.7362 36.1241L53.6514 36.0756V34.4565L53.7362 34.505V36.1241Z" fill="white"/>
<path d="M54.2852 36.4429L54.1035 36.3339V34.7148L54.2852 34.8239V36.4429Z" fill="white"/>
<path d="M54.4225 36.5197L54.3579 36.4833V34.8643L54.4225 34.9006V36.5197Z" fill="white"/>
<path d="M55.4718 37.1254L55.4072 37.089V35.47L55.4718 35.5063V37.1254Z" fill="white"/>
<path d="M54.9793 36.8425L54.834 36.7577V35.1387L54.9793 35.2235V36.8425Z" fill="white"/>
<path d="M54.7209 36.6932L54.5352 36.5841V34.9651L54.7209 35.0741V36.6932Z" fill="white"/>
<path d="M55.3267 37.0405L55.1006 36.9113V35.2922L55.3267 35.4214V37.0405Z" fill="white"/>
<path d="M55.7142 37.2666L55.5688 37.1818V35.5627L55.7142 35.6475V37.2666Z" fill="white"/>
<path d="M56.0171 37.4401L55.8354 37.3351V35.7161L56.0171 35.821V37.4401Z" fill="white"/>
<path d="M56.2835 37.9206L56.1382 37.8399V35.8938L56.2835 35.9745V37.9206Z" fill="white"/>
<path d="M50.7803 37.9165V43.7669L56.4248 40.4965V34.5977L50.7803 37.9165Z" fill="white"/>
<g style="mix-blend-mode:multiply" opacity="0.3">
<path d="M51.4146 38.2801L55.7913 35.7041V40.1333L51.4146 42.6689V38.2801Z" fill="#2137FF"/>
</g>
<g style="mix-blend-mode:multiply" opacity="0.5">
<path d="M55.6096 35.8131V40.0283L51.4146 42.4549V42.6689L55.7913 40.1333V35.7041L55.6096 35.8131Z" fill="#2137FF"/>
</g>
<path d="M50.7885 37.9167V43.7671L45.4307 40.6703V34.7715L50.7885 37.9167Z" fill="#2137FF"/>
<g style="mix-blend-mode:multiply" opacity="0.3">
<path d="M46.0645 40.3069V35.8777L50.1545 38.28V42.6688L46.0645 40.3069Z" fill="#2137FF"/>
</g>
<g style="mix-blend-mode:multiply" opacity="0.3">
<path d="M46.23 40.2261V35.9786L46.0645 35.8777V40.3069L50.1545 42.6688V42.4952L46.23 40.2261Z" fill="#2137FF"/>
</g>
<path d="M45.4307 34.7713L50.7885 37.9166L56.4249 34.5977L51.055 31.4727L45.4307 34.7713Z" fill="white"/>
<path d="M45.4307 34.7713L50.7885 37.9165L56.4249 34.5977L50.7643 37.7025L45.4307 34.7713Z" fill="url(#paint19_linear_216_1102)"/>
<path d="M46.6821 34.7754L51.0548 32.2075L55.1731 34.6018L50.7883 37.1818L46.6821 34.7754Z" fill="#2137FF"/>
<g style="mix-blend-mode:multiply" opacity="0.3">
<path d="M51.0548 32.4134L54.9954 34.7068L55.1731 34.6018L51.0548 32.2075L46.6821 34.7754L46.8598 34.8763L51.0548 32.4134Z" fill="#2137FF"/>
</g>
<path d="M53.6752 38.0298L53.2271 39.4147L53.5178 39.2491V40.9005L53.8327 40.7188V39.0674L54.1234 38.8979L53.6752 38.0298Z" fill="white"/>
<path d="M55.2098 38.2719L54.7616 37.4038L54.3135 38.7887L54.6042 38.6191V40.2705L54.9191 40.0888V38.4374L55.2098 38.2719Z" fill="white"/>
<path d="M46.7306 39.9677L46.5449 39.8587V37.9126L46.7306 38.0176V39.9677Z" fill="white"/>
<path d="M47.0337 39.8144L46.8521 39.7094V38.0903L47.0337 38.1953V39.8144Z" fill="white"/>
<path d="M47.502 40.0849L47.3203 39.9799V38.3608L47.502 38.4658V40.0849Z" fill="white"/>
<path d="M47.2196 39.9234L47.1348 39.8709V38.2559L47.2196 38.3003V39.9234Z" fill="white"/>
<path d="M47.7682 40.2382L47.5825 40.1332V38.5142L47.7682 38.6191V40.2382Z" fill="white"/>
<path d="M47.9019 40.3148L47.8413 40.2825V38.6594L47.9019 38.6958V40.3148Z" fill="white"/>
<path d="M48.9512 40.9206L48.8906 40.8883V39.2693L48.9512 39.3016V40.9206Z" fill="white"/>
<path d="M48.4627 40.638L48.3174 40.5533V38.9382L48.4627 39.019V40.638Z" fill="white"/>
<path d="M48.2043 40.4884L48.0186 40.3835V38.7644L48.2043 38.8694V40.4884Z" fill="white"/>
<path d="M48.806 40.8397L48.584 40.7065V39.0874L48.806 39.2206V40.8397Z" fill="white"/>
<path d="M49.1936 41.0618L49.0522 40.981V39.3579L49.1936 39.4427V41.0618Z" fill="white"/>
<path d="M49.5007 41.2395L49.3149 41.1305V39.5115L49.5007 39.6205V41.2395Z" fill="white"/>
<path d="M49.7669 41.7201L49.6216 41.6353V39.6892L49.7669 39.77V41.7201Z" fill="white"/>
<path d="M33.314 44.2676V64.4917L93.3725 29.5669V9.37915L33.314 44.2676ZM92.4277 29.042L34.2628 62.8444V44.8127L92.4277 11.0467V29.042Z" fill="#231889"/>
<path d="M33.3218 44.2676V64.4957L16.8486 55.1206V34.8521L33.3218 44.2676Z" fill="#171552"/>
<path d="M16.8486 34.8521L33.3218 44.2677L93.3763 9.39942L76.891 0L16.8486 34.8521Z" fill="url(#paint20_linear_216_1102)"/>
<path d="M16.8731 41.0054L6.04032 47.312C5.38369 47.6855 4.8092 48.1877 4.35131 48.7885C3.89341 49.3893 3.56153 50.0764 3.37553 50.8085L1.85337 56.8164C1.39714 58.6111 1.16657 60.4557 1.16699 62.3075V69.3409L16.6146 78.0822V71.8401C16.6131 69.5566 16.963 67.2865 17.6523 65.1095L19.6226 58.8756C20.0474 57.5261 20.9679 56.3877 22.1986 55.6899L32.3288 49.7709L16.8731 41.0054Z" fill="url(#paint21_linear_216_1102)"/>
<path d="M16.6108 71.7996V78.082L24.8797 73.3339L25.5136 69.7001L32.329 65.6302V49.7708L22.1584 55.6898C20.9249 56.3929 20.0031 57.5367 19.5784 58.8916L17.6283 65.1134C16.953 67.2779 16.6099 69.5323 16.6108 71.7996Z" fill="white"/>
<path d="M16.8207 71.7634C16.822 69.4999 17.1664 67.2496 17.8422 65.0893L19.8126 58.8634C20.2358 57.5078 21.158 56.3635 22.3926 55.6617L32.2402 49.9203V49.6619L22.0736 55.589C20.8388 56.2916 19.9156 57.4354 19.4896 58.7908L17.5435 65.0167C16.8657 67.1765 16.5213 69.4271 16.522 71.6907V77.9772L16.8409 77.7915L16.8207 71.7634Z" fill="#D1EBFF"/>
<path d="M20.519 59.1906L18.5689 65.4205C18.5377 65.5157 18.5363 65.6181 18.5648 65.7141C18.5933 65.81 18.6505 65.8951 18.7285 65.9578C18.8066 66.0205 18.9019 66.0579 19.0018 66.0651C19.1017 66.0723 19.2014 66.0488 19.2876 65.9979L25.4045 62.4246C25.6046 62.3095 25.7709 62.1437 25.8864 61.9437C26.002 61.7438 26.0628 61.517 26.0626 61.286V56.1745C26.062 56.0878 26.0388 56.0028 25.9951 55.9279C25.9515 55.8529 25.889 55.7907 25.8139 55.7475C25.7387 55.7042 25.6536 55.6813 25.5669 55.6812C25.4802 55.681 25.395 55.7035 25.3197 55.7465L21.5203 57.9632C21.0496 58.2308 20.6933 58.6617 20.519 59.1744V59.1906Z" fill="url(#paint22_linear_216_1102)"/>
<path d="M25.562 55.6899C25.6312 55.7326 25.6885 55.7919 25.7287 55.8624C25.7689 55.933 25.7907 56.0125 25.7922 56.0937V61.2052C25.7924 61.4361 25.7316 61.663 25.6161 61.8629C25.5005 62.0628 25.3342 62.2287 25.1341 62.3438L19.0051 65.913C18.9305 65.9569 18.8453 65.9792 18.7588 65.9776C18.8362 66.0264 18.9257 66.0523 19.0172 66.0523C19.1086 66.0523 19.1982 66.0264 19.2756 65.9776L25.3925 62.4044C25.5927 62.2893 25.7589 62.1234 25.8745 61.9235C25.99 61.7236 26.0508 61.4967 26.0506 61.2658V56.1745C26.0485 56.0459 25.9962 55.9233 25.9049 55.8328C25.8137 55.7422 25.6906 55.691 25.562 55.6899Z" fill="#171552"/>
<path d="M13.982 66.9102V69.2157C13.9824 69.7755 13.8356 70.3255 13.5564 70.8108C13.2772 71.296 12.8753 71.6993 12.3911 71.9802C11.9069 72.2612 11.3574 72.4099 10.7976 72.4115C10.2378 72.4132 9.68736 72.2676 9.20153 71.9895L6.98895 70.7257C5.79641 70.0448 4.80523 69.0605 4.11598 67.8728C3.42673 66.685 3.06395 65.3361 3.06445 63.9628V60.6318L13.982 66.9102Z" fill="url(#paint23_linear_216_1102)"/>
<path d="M10.7802 71.5614C10.3747 71.5606 9.97654 71.4534 9.62546 71.2505L7.41289 69.9868C6.3528 69.378 5.47183 68.5007 4.8587 67.4432C4.24558 66.3856 3.92196 65.1852 3.92041 63.9627V61.3625L13.126 66.6598V69.2156C13.1249 69.8374 12.8775 70.4335 12.4378 70.8732C11.9981 71.3128 11.402 71.5603 10.7802 71.5614Z" fill="#03336E"/>
<path d="M10.9982 71.5089C10.5922 71.5086 10.1935 71.3999 9.84349 71.194L7.63091 69.9302C6.57011 69.323 5.68827 68.4467 5.07437 67.3897C4.46047 66.3327 4.13624 65.1325 4.1344 63.9102V61.4877L3.92041 61.3625V63.9627C3.92196 65.1852 4.24558 66.3856 4.8587 67.4432C5.47183 68.5007 6.3528 69.378 7.41289 69.9868L9.62546 71.2505C9.97654 71.4534 10.3747 71.5606 10.7802 71.5614C11.0018 71.5612 11.2221 71.5285 11.4343 71.4645C11.2907 71.4933 11.1447 71.5081 10.9982 71.5089Z" fill="#001A46"/>
<path d="M5.06734 67.7743L11.4628 71.4363C11.6179 71.3874 11.7679 71.3238 11.911 71.2466L4.67166 67.1C4.79181 67.3314 4.92388 67.5565 5.06734 67.7743ZM4.18312 65.8443L12.6054 70.6894C12.6903 70.5886 12.7659 70.4806 12.8315 70.3664L4.06603 65.3194C4.09025 65.4971 4.13467 65.6707 4.18312 65.8443ZM3.92068 63.9628C3.92068 64.0678 3.92068 64.1728 3.92068 64.2737L13.094 69.5508C13.1104 69.4398 13.1185 69.3278 13.1182 69.2157V69.1107L3.9126 63.8175L3.92068 63.9628ZM3.92068 62.3962V62.8444L13.1263 68.1417V67.6895L3.92068 62.3962Z" fill="url(#paint24_linear_216_1102)"/>
<path d="M4.78444 67.306L11.7775 71.3436C11.823 71.3245 11.8675 71.3029 11.9107 71.279L4.67139 67.1001L4.78444 67.306Z" fill="white"/>
<path d="M4.09418 65.4851L12.7588 70.4675C12.783 70.4311 12.8112 70.4029 12.8314 70.3665L4.06592 65.3196C4.06592 65.3801 4.06592 65.4286 4.09418 65.4851Z" fill="white"/>
<path d="M3.92041 63.9587L13.126 69.2519V69.1106L3.92041 63.8174V63.9587Z" fill="white"/>
<path d="M3.92041 62.3962V62.5376L13.1301 67.8348V67.6895L3.92041 62.3962Z" fill="white"/>
<path d="M16.0736 66.0704C15.9161 66.0708 15.7613 66.029 15.6255 65.9492L3.08886 58.8391C2.7978 58.6729 2.56917 58.416 2.43793 58.1075C2.30669 57.7991 2.28006 57.4562 2.3621 57.1312L3.92868 50.9497C4.0099 50.6319 4.12074 50.3223 4.25976 50.0252C4.30516 49.9294 4.37654 49.8484 4.46578 49.7913C4.55501 49.7342 4.65851 49.7033 4.76445 49.7021C4.85922 49.7038 4.95212 49.7288 5.03496 49.7748L18.6859 57.6117C18.8644 57.7159 19.0019 57.8781 19.0753 58.0713C19.1488 58.2646 19.1538 58.4771 19.0897 58.6736L16.9538 65.4284C16.8953 65.6148 16.7787 65.7777 16.6211 65.8932C16.4635 66.0086 16.2731 66.0707 16.0777 66.0704H16.0736Z" fill="url(#paint25_linear_216_1102)"/>
<path opacity="0.5" d="M2.36211 57.1312L3.92868 50.9497C4.0099 50.6319 4.12075 50.3223 4.25976 50.0252C4.30516 49.9294 4.37655 49.8484 4.46578 49.7913C4.55502 49.7342 4.65852 49.7033 4.76446 49.7021C4.85923 49.7038 4.95213 49.7288 5.03497 49.7748L18.6859 57.6117C19.0493 57.8217 2.19253 57.7974 2.36211 57.1312Z" fill="#231889"/>
<path d="M16.3643 65.3558C16.2043 65.3558 16.047 65.314 15.9081 65.2347L3.19384 58.0236C2.98578 57.9046 2.80797 57.7393 2.67422 57.5404C2.54047 57.3415 2.45439 57.1145 2.42267 56.877L2.3621 57.1313C2.28006 57.4563 2.30669 57.7992 2.43793 58.1076C2.56917 58.416 2.7978 58.673 3.08886 58.8392L15.6255 65.9493C15.7613 66.0291 15.9161 66.0709 16.0736 66.0704C16.269 66.0708 16.4594 66.0087 16.617 65.8932C16.7747 65.7778 16.8912 65.6149 16.9498 65.4285L17.079 65.0247C16.9912 65.1287 16.8818 65.2122 16.7583 65.2694C16.6349 65.3266 16.5004 65.3561 16.3643 65.3558Z" fill="#171552"/>
<path d="M9.94856 58.6615L6.4036 57.8903C6.38576 57.8744 6.36426 57.8631 6.34101 57.8575C6.31777 57.8519 6.2935 57.852 6.27035 57.858L4.18697 57.4058C4.16867 57.4017 4.14972 57.4012 4.13124 57.4045C4.11276 57.4077 4.09512 57.4146 4.07933 57.4248C4.06355 57.4349 4.04994 57.4481 4.03931 57.4636C4.02868 57.4791 4.02123 57.4965 4.0174 57.5148C4.01012 57.5517 4.01741 57.59 4.03773 57.6216C4.05806 57.6532 4.08984 57.6757 4.12641 57.6844L6.20575 58.1366L6.88809 60.4784C6.89744 60.5075 6.91575 60.533 6.9404 60.5511C6.96505 60.5692 6.99478 60.5791 7.02537 60.5793H7.06575C7.08391 60.5743 7.10086 60.5656 7.11561 60.5538C7.13037 60.5421 7.14262 60.5275 7.15165 60.5109C7.16068 60.4944 7.16631 60.4762 7.1682 60.4574C7.17009 60.4387 7.16821 60.4197 7.16266 60.4017L6.52472 58.2093L9.89203 58.9441H9.9203C9.95778 58.9484 9.99543 58.9377 10.025 58.9142C10.0545 58.8907 10.0735 58.8565 10.0778 58.819C10.0821 58.7815 10.0713 58.7439 10.0478 58.7143C10.0243 58.6848 9.99007 58.6658 9.95259 58.6615H9.94856Z" fill="#171552"/>
<path d="M15.5486 61.7947L12.0036 61.0195C11.9856 61.0039 11.9639 60.9932 11.9406 60.9883C11.9173 60.9833 11.8931 60.9843 11.8703 60.9912L9.78294 60.535C9.76464 60.5308 9.74569 60.5304 9.72721 60.5336C9.70873 60.5369 9.69107 60.5438 9.67529 60.5539C9.6595 60.5641 9.6459 60.5773 9.63527 60.5927C9.62463 60.6082 9.61718 60.6256 9.61336 60.644C9.60921 60.6623 9.60875 60.6812 9.612 60.6997C9.61526 60.7182 9.62216 60.7359 9.63231 60.7517C9.64246 60.7674 9.65565 60.781 9.67111 60.7917C9.68657 60.8023 9.70401 60.8098 9.72238 60.8136L11.8017 61.2698L12.4841 63.6116C12.4934 63.6407 12.5117 63.6662 12.5364 63.6843C12.561 63.7024 12.5907 63.7123 12.6213 63.7125H12.6617C12.6799 63.7074 12.6968 63.6988 12.7116 63.687C12.7263 63.6753 12.7386 63.6607 12.7476 63.6441C12.7567 63.6276 12.7623 63.6094 12.7642 63.5906C12.766 63.5719 12.7642 63.5529 12.7586 63.5349L12.1409 61.3425L15.5082 62.0773H15.5364C15.5693 62.0772 15.6012 62.066 15.6268 62.0455C15.6525 62.025 15.6705 61.9963 15.6778 61.9643C15.6818 61.9445 15.6816 61.9241 15.6771 61.9044C15.6727 61.8847 15.664 61.8661 15.6518 61.8501C15.6395 61.834 15.624 61.8207 15.6062 61.8112C15.5884 61.8016 15.5687 61.796 15.5486 61.7947Z" fill="#171552"/>
<g style="mix-blend-mode:multiply">
<path d="M27.2374 62.0894L26.3411 62.6103C26.2434 62.6681 26.1624 62.7501 26.1058 62.8484C26.0492 62.9467 26.019 63.058 26.0181 63.1715V63.2159C26.0177 63.2689 26.0315 63.3211 26.0579 63.367C26.0844 63.413 26.1226 63.4511 26.1686 63.4774C26.2146 63.5037 26.2668 63.5172 26.3199 63.5167C26.3729 63.5162 26.4248 63.5015 26.4703 63.4743L27.2778 63.0019C27.3729 62.947 27.452 62.8682 27.5072 62.7733C27.5625 62.6784 27.5919 62.5707 27.5927 62.4609V62.2913C27.593 62.2497 27.5821 62.2087 27.5613 62.1727C27.5405 62.1366 27.5104 62.1068 27.4742 62.0862C27.438 62.0657 27.397 62.0551 27.3554 62.0557C27.3138 62.0562 27.273 62.0679 27.2374 62.0894Z" fill="#171552"/>
</g>
<path d="M25.6144 65.1902L32.3289 65.6343L25.5337 69.6476L25.6144 65.1902Z" fill="url(#paint26_linear_216_1102)"/>
<path d="M30.2818 68.6181V71.6785L27.9521 70.3704L28.1096 67.322L30.2818 68.6181Z" fill="#171552"/>
<path d="M19.9053 74.9572C19.9053 76.2007 20.3332 77.0849 21.0317 77.5129L23.1636 78.7484C23.8903 79.1522 23.426 78.2316 24.5283 77.5937C26.7489 76.3097 28.5658 73.2049 28.5658 70.6572C28.5658 69.3934 29.7327 69.3853 29.018 68.9654L26.753 67.7097C26.0262 67.306 25.037 67.3867 23.9267 68.0206C21.706 69.3005 19.9053 72.4095 19.9053 74.9572Z" fill="#171552"/>
<path d="M28.9888 75.5545C30.5699 72.8498 30.5861 69.9173 29.0249 69.0046C27.4636 68.0919 24.9162 69.5447 23.3351 72.2494C21.7539 74.9541 21.7378 77.8866 23.299 78.7993C24.8603 79.7119 27.4077 78.2592 28.9888 75.5545Z" fill="#171552"/>
<path d="M28.1765 75.0798C29.303 73.1528 29.3142 71.0633 28.2015 70.4129C27.0888 69.7624 25.2736 70.7972 24.1471 72.7242C23.0206 74.6512 23.0094 76.7407 24.1221 77.3911C25.2348 78.0416 27.05 77.0068 28.1765 75.0798Z" fill="white"/>
<path d="M27.7948 70.2573C28.3075 70.5561 28.6225 71.19 28.6225 72.0904C28.5667 73.082 28.2781 74.0466 27.78 74.9059C27.282 75.7652 26.5885 76.495 25.7558 77.0364C25.2737 77.3536 24.6909 77.4802 24.1206 77.3917C24.6374 77.6945 25.3601 77.6501 26.1596 77.1898C26.9924 76.6496 27.6861 75.9205 28.1842 75.0618C28.6823 74.2031 28.9708 73.239 29.0262 72.2478C29.0262 71.1294 28.5377 70.4229 27.7948 70.2573Z" fill="url(#paint27_linear_216_1102)"/>
<path d="M25.9658 69.1915C27.0317 68.5737 27.9845 68.493 28.7153 68.8523C28.3037 68.7667 27.879 68.7644 27.4664 68.8455C27.0538 68.9266 26.6616 69.0895 26.313 69.3247C24.0924 70.6086 22.2755 73.7135 22.2755 76.2612C22.2755 77.5896 22.764 78.502 23.5432 78.8937C22.5621 78.6191 21.9282 77.642 21.9282 76.128C21.9444 73.5803 23.7451 70.4714 25.9658 69.1915Z" fill="#231889"/>
<path d="M25.7478 71.2264C25.6385 71.2963 25.5477 71.3915 25.483 71.504C25.4184 71.6164 25.3818 71.7428 25.3763 71.8724C25.3763 72.1106 25.5418 72.2034 25.7478 72.0864C25.8577 72.0169 25.9493 71.9219 26.0147 71.8094C26.0801 71.6969 26.1173 71.5703 26.1232 71.4404C26.1232 71.2021 25.9577 71.1052 25.7478 71.2264ZM25.7478 75.6111C25.6385 75.6811 25.5477 75.7763 25.483 75.8887C25.4184 76.0012 25.3818 76.1276 25.3763 76.2572C25.3763 76.4954 25.5418 76.5923 25.7478 76.4711C25.8577 76.4017 25.9493 76.3067 26.0147 76.1942C26.0801 76.0817 26.1173 75.9551 26.1232 75.8251C26.1232 75.5869 25.9577 75.4941 25.7478 75.6111ZM26.8379 71.9773C26.9832 72.0621 27.2174 71.9249 27.3668 71.6745C27.5162 71.4242 27.5122 71.1496 27.3668 71.0649C27.2214 70.9801 26.9832 71.1174 26.8379 71.3717C26.6925 71.6261 26.6764 71.8926 26.8379 71.9733V71.9773ZM24.6576 75.7242C24.5123 75.6394 24.274 75.7767 24.1287 76.0311C23.9833 76.2854 23.9833 76.5519 24.1287 76.6367C24.274 76.7215 24.5123 76.5842 24.6576 76.3298C24.803 76.0755 24.807 75.8049 24.6576 75.7242ZM27.6575 72.3165C27.5475 72.386 27.4559 72.481 27.3905 72.5935C27.3252 72.7059 27.2879 72.8326 27.282 72.9625C27.282 73.2007 27.4516 73.2936 27.6575 73.1765C27.7659 73.1053 27.8563 73.0099 27.9215 72.8978C27.9866 72.7857 28.0248 72.6599 28.033 72.5305C28.037 72.2923 27.8876 72.1954 27.6615 72.3165H27.6575ZM23.8501 74.521C23.7417 74.5922 23.6513 74.6876 23.5861 74.7997C23.521 74.9118 23.4828 75.0376 23.4746 75.167C23.4746 75.4052 23.6442 75.5021 23.8501 75.381C23.9601 75.3115 24.0517 75.2165 24.1171 75.104C24.1824 74.9916 24.2197 74.865 24.2256 74.735C24.2135 74.5008 24.0439 74.4039 23.8501 74.521ZM27.3789 74.1617C27.2295 74.0809 26.9953 74.2182 26.85 74.4685C26.7046 74.7189 26.7006 74.9934 26.85 75.0742C26.9994 75.1549 27.2295 75.0217 27.3789 74.7713C27.5283 74.521 27.5122 74.2626 27.3668 74.1617H27.3789ZM24.6738 72.6234C24.5284 72.5386 24.2902 72.6758 24.1448 72.9262C23.9995 73.1765 23.9995 73.4511 24.1448 73.5359C24.2902 73.6206 24.5284 73.4834 24.6738 73.229C24.8191 72.9746 24.807 72.7041 24.6576 72.6234H24.6738Z" fill="#03336E"/>
<path d="M24.5891 74.3515C24.5762 74.4855 24.598 74.6205 24.6525 74.7435C24.7069 74.8666 24.7921 74.9735 24.8999 75.0541L25.3683 75.3327C25.5702 75.4457 25.441 75.1913 25.7438 75.0177C26.0662 74.8084 26.3347 74.526 26.5276 74.1935C26.7205 73.861 26.8324 73.4877 26.8541 73.1039C26.8541 72.7567 27.1731 72.7527 26.9793 72.6396L26.4746 72.3529C26.3487 72.3005 26.2116 72.2807 26.0761 72.2956C25.9405 72.3104 25.8109 72.3593 25.6994 72.4377C25.377 72.6471 25.1084 72.9295 24.9155 73.262C24.7226 73.5945 24.6108 73.9677 24.5891 74.3515Z" fill="#231889"/>
<path d="M25.0854 74.6382C25.0854 75.3407 25.5821 75.6234 26.1958 75.2721C26.517 75.0618 26.7844 74.7792 26.9765 74.4468C27.1687 74.1144 27.2802 73.7416 27.3021 73.3583C27.3021 72.6558 26.8054 72.3731 26.1958 72.7285C25.8726 72.936 25.6033 73.2173 25.4103 73.5494C25.2172 73.8815 25.1059 74.2547 25.0854 74.6382Z" fill="url(#paint28_linear_216_1102)"/>
<path d="M21.1208 78.3364V73.9073L24.0036 68.933L28.0653 66.5912L25.6145 65.1902L21.5366 67.5441L18.6538 72.5183V76.9475L21.1208 78.3364Z" fill="#D1EBFF"/>
<path d="M21.1208 78.3364V73.9073L24.0036 68.933L28.0653 66.5912L25.6145 65.1902L21.5366 67.5441L18.6538 72.5183V76.9475L21.1208 78.3364Z" fill="white"/>
<path d="M21.1208 78.3364V73.9072L18.6538 72.5183V76.9475L21.1208 78.3364Z" fill="url(#paint29_linear_216_1102)"/>
<path d="M21.1208 73.9074L24.0036 68.9331L21.5366 67.5442L18.6538 72.5185L21.1208 73.9074Z" fill="url(#paint30_linear_216_1102)"/>
<path d="M21.803 77.969V74.0889L24.5 69.4337L28.0813 67.3664L30.2818 68.6181V71.6785L30.9601 71.2869V68.2224L28.0813 66.5791L24.0034 68.933L21.1206 73.9073V78.3607L21.803 77.969Z" fill="#231889"/>
<path d="M0.00439453 67.8511L15.4601 77.0203C15.8297 77.2291 16.2469 77.3388 16.6714 77.3388C17.0958 77.3388 17.5131 77.2291 17.8827 77.0203L20.7735 75.4053V78.0378L17.8584 79.6771C17.4891 79.8866 17.0718 79.9967 16.6472 79.9967C16.2226 79.9967 15.8052 79.8866 15.4359 79.6771L0.553495 71.1336C0.38992 71.0387 0.25396 70.9027 0.159068 70.7392C0.0641758 70.5756 0.0136424 70.39 0.0124652 70.2009L0.00439453 67.8511Z" fill="#171552"/>
<path d="M17.8704 74.2385C17.8693 74.3315 17.8407 74.4222 17.7883 74.499C17.7359 74.5759 17.6619 74.6355 17.5757 74.6705C17.231 74.8141 16.8578 74.8761 16.4851 74.8516C16.1125 74.827 15.7506 74.7167 15.4277 74.5292L13.2151 73.2655C13.1084 73.2044 13.0212 73.1144 12.9635 73.0058C12.9059 72.8972 12.8803 72.7745 12.8896 72.6519C12.8989 72.5294 12.9427 72.4119 13.0161 72.3133C13.0894 72.2146 13.1892 72.1388 13.304 72.0946L14.3739 71.5576C14.457 71.5225 14.5462 71.5044 14.6363 71.5044C14.7265 71.5044 14.8157 71.5225 14.8988 71.5576C15.5448 71.8523 16.5138 72.4983 17.394 72.2157C17.6564 72.1309 17.8946 72.4135 17.8906 72.684L17.8704 74.2385Z" fill="url(#paint31_linear_216_1102)"/>
<path d="M0.270684 68.3516L15.4599 77.0202C15.8295 77.2289 16.2468 77.3386 16.6712 77.3386C17.0957 77.3386 17.5129 77.2289 17.8825 77.0202L20.7734 75.4052L19.9658 74.9529L17.8744 76.136C17.5008 76.3502 17.0777 76.463 16.647 76.463C16.2163 76.463 15.7931 76.3502 15.4196 76.136L1.15491 67.9074V66.8577L0.226265 67.427C0.149053 67.4789 0.0865568 67.5499 0.0448045 67.6331C0.0030522 67.7163 -0.0165375 67.8088 -0.0120721 67.9018C-0.00760676 67.9947 0.0207655 68.085 0.0702979 68.1638C0.11983 68.2425 0.188848 68.3072 0.270684 68.3516Z" fill="#171552"/>
<path d="M1.16309 67.7259L1.17924 67.738L1.18731 66.8538L1.16712 66.8659L1.16309 67.7259Z" fill="#72B5E8"/>
<path d="M20.6199 75.3083L17.8784 76.8426C17.5087 77.0509 17.0915 77.1604 16.6671 77.1604C16.2428 77.1604 15.8256 77.0509 15.4559 76.8426L0.270642 68.174C0.148723 68.1044 0.0588702 67.9899 0.0203163 67.855C0.0134015 67.9545 0.0347502 68.0539 0.0818998 68.1417C0.129049 68.2296 0.20008 68.3024 0.286796 68.3516L15.4761 77.0202C15.8456 77.229 16.2629 77.3386 16.6873 77.3386C17.1118 77.3386 17.529 77.229 17.8986 77.0202L20.7895 75.4052L20.6199 75.3083Z" fill="#171552"/>
<path d="M20.8864 66.0019C20.862 66.0019 20.838 65.9955 20.8168 65.9835C20.7955 65.9715 20.7778 65.9542 20.7652 65.9332C20.746 65.9011 20.7403 65.8627 20.7493 65.8263C20.7584 65.79 20.7816 65.7587 20.8137 65.7394L21.7786 65.158C22.0306 65.0051 22.2391 64.79 22.384 64.5334C22.529 64.2767 22.6055 63.9872 22.6064 63.6924V59.9294C22.6038 59.6482 22.5317 59.372 22.3964 59.1254C22.2611 58.8788 22.0669 58.6695 21.8311 58.5163L20.8823 57.8824C20.8669 57.8718 20.8538 57.8582 20.8437 57.8426C20.8335 57.8269 20.8265 57.8093 20.8232 57.791C20.8198 57.7726 20.8201 57.7537 20.824 57.7355C20.8279 57.7172 20.8354 57.6999 20.846 57.6845C20.8566 57.6692 20.8701 57.656 20.8858 57.6459C20.9015 57.6357 20.919 57.6288 20.9374 57.6254C20.9557 57.622 20.9746 57.6223 20.9929 57.6262C21.0111 57.6301 21.0284 57.6376 21.0438 57.6482L21.9886 58.2781C22.2621 58.4599 22.4863 58.7066 22.6413 58.9961C22.7962 59.2857 22.8772 59.6091 22.8769 59.9375V63.7005C22.8745 64.0437 22.7846 64.3807 22.6158 64.6795C22.4469 64.9783 22.2047 65.2292 21.9119 65.4084L20.9469 65.9898C20.9282 65.9992 20.9073 66.0033 20.8864 66.0019Z" fill="#231889"/>
<path d="M23.3532 63.9064L22.6668 63.5027C22.4996 63.3828 22.3628 63.2254 22.2674 63.0431C22.1721 62.8608 22.1208 62.6586 22.1177 62.4529V60.3776C22.1177 59.9739 22.364 59.7881 22.6668 59.9739L23.3532 60.3776C23.5204 60.4975 23.6571 60.6549 23.7525 60.8372C23.8479 61.0195 23.8992 61.2217 23.9023 61.4274V63.4986C23.9023 63.8943 23.656 64.0801 23.3532 63.9064Z" fill="#231889"/>
<path d="M23.3531 60.3695L22.6667 59.9657C22.6042 59.9169 22.5257 59.8931 22.4465 59.8991C22.3674 59.9051 22.2933 59.9403 22.2388 59.998C22.3224 59.9945 22.4052 60.0155 22.477 60.0586L23.1634 60.4623C23.3299 60.5829 23.4661 60.7404 23.5614 60.9226C23.6567 61.1048 23.7084 61.3065 23.7125 61.5121V63.5874C23.7218 63.7247 23.6785 63.8604 23.5913 63.9669C23.7771 63.9669 23.9022 63.7812 23.9022 63.4905V61.4192C23.8991 61.2135 23.8478 61.0114 23.7525 60.8291C23.6571 60.6468 23.5203 60.4893 23.3531 60.3695Z" fill="#72B5E8"/>
<path d="M32.3529 45.0832L17.1515 36.3621L11.4222 39.8061C10.2049 40.5165 9.19462 41.5331 8.49196 42.755C7.7893 43.9769 7.41869 45.3614 7.41699 46.7709H7.44122L22.6063 55.4072L32.3529 45.0832Z" fill="url(#paint32_linear_216_1102)"/>
<path d="M26.1353 51.6525L28.6668 48.9756L12.0523 39.4187L11.4224 39.7982C10.5209 40.3237 9.72978 41.0188 9.09277 41.8453L26.1353 51.6525Z" fill="white"/>
<path d="M22.4893 55.3387L32.2642 49.6013V45.0146L26.4905 48.3739C25.2738 49.0848 24.2644 50.1017 23.5625 51.3235C22.8605 52.5453 22.4905 53.9296 22.4893 55.3387Z" fill="white"/>
<path d="M22.5903 55.3789L32.3652 49.6335V45.0549L26.5915 48.4222C25.3761 49.1324 24.3674 50.1481 23.6655 51.3683C22.9637 52.5886 22.593 53.9712 22.5903 55.3789Z" fill="white"/>
<path d="M1.16309 64.7341V66.5551C1.16503 66.6256 1.18544 66.6945 1.22228 66.7547C1.25912 66.8149 1.31109 66.8644 1.37303 66.8983L2.62468 67.5402C2.67716 67.5649 2.73574 67.5735 2.7931 67.565C2.85046 67.5565 2.90405 67.5313 2.94715 67.4925C2.99024 67.4537 3.02095 67.4031 3.03541 67.3469C3.04987 67.2908 3.04743 67.2316 3.02843 67.1769L2.52778 65.6466C2.45703 65.4492 2.31223 65.287 2.12402 65.1944L1.16309 64.7341Z" fill="url(#paint33_linear_216_1102)"/>
<path d="M13.2595 72.9788L15.9969 74.5252C16.0547 74.5576 16.12 74.5743 16.1862 74.5737C16.2524 74.5731 16.3173 74.5552 16.3745 74.5217C16.4317 74.4882 16.4791 74.4404 16.512 74.3829C16.5449 74.3254 16.5622 74.2603 16.5622 74.1941V72.9828C16.5627 72.7956 16.5118 72.6119 16.4149 72.4517C16.3181 72.2915 16.1791 72.161 16.0131 72.0744L15.1571 71.6222C14.9871 71.5313 14.7947 71.4907 14.6024 71.505C14.4101 71.5193 14.2258 71.5879 14.071 71.7029L13.2232 72.3247C13.1679 72.3613 13.1233 72.4117 13.0935 72.4709C13.0638 72.5301 13.0501 72.596 13.0538 72.6622C13.0575 72.7283 13.0784 72.7923 13.1145 72.8479C13.1506 72.9034 13.2006 72.9486 13.2595 72.9788Z" fill="white"/>
<path d="M1.16317 65.3437V66.3894C1.16511 66.46 1.18552 66.5288 1.22236 66.589C1.2592 66.6492 1.31117 66.6987 1.37312 66.7326L2.62476 67.3746C2.67762 67.3998 2.73681 67.4087 2.79477 67.4002C2.85273 67.3917 2.90683 67.366 2.95016 67.3266C2.99349 67.2872 3.02408 67.2357 3.03804 67.1788C3.05199 67.1219 3.04868 67.0622 3.02851 67.0071L2.52786 65.6465C2.45711 65.449 2.31231 65.2869 2.12411 65.1943L1.72035 65.0005C1.66193 64.9695 1.59643 64.9544 1.53034 64.9565C1.46425 64.9586 1.39988 64.978 1.34358 65.0127C1.28728 65.0474 1.24102 65.0961 1.20937 65.1542C1.17773 65.2123 1.1618 65.2776 1.16317 65.3437Z" fill="#D1EBFF"/>
<path d="M1.16309 65.3437C1.16309 65.3437 2.84675 67.411 2.93153 67.3625C2.98548 67.3258 3.02529 67.2718 3.04438 67.2094C3.06346 67.147 3.06069 67.0799 3.03651 67.0193L2.53585 65.6587C2.4651 65.4612 2.3203 65.299 2.1321 65.2065L1.72834 65.0127C1.67058 64.9802 1.60534 64.9635 1.5391 64.9641C1.47287 64.9647 1.40796 64.9827 1.35081 65.0161C1.29365 65.0496 1.24625 65.0975 1.21332 65.155C1.18039 65.2124 1.16307 65.2775 1.16309 65.3437Z" fill="white"/>
<g style="mix-blend-mode:multiply">
<path d="M4.35661 73.2896L4.33643 72.8011C4.33647 72.6824 4.36764 72.5659 4.42682 72.463C4.486 72.3602 4.57112 72.2747 4.67368 72.215C4.77624 72.1554 4.89266 72.1237 5.01131 72.1231C5.12996 72.1225 5.24668 72.153 5.34984 72.2116L9.79115 74.7633C10.1304 74.9587 10.4123 75.2399 10.6086 75.5786C10.8049 75.9174 10.9087 76.3018 10.9096 76.6933V77.097L4.35661 73.2896Z" fill="#3F92D1"/>
</g>
<path d="M16.5301 72.7486C16.496 72.6083 16.4323 72.477 16.3431 72.3635C16.2539 72.2499 16.1415 72.1569 16.0133 72.0905L15.1573 71.6383C14.9872 71.5475 14.7948 71.5068 14.6026 71.5211C14.4103 71.5354 14.226 71.6041 14.0712 71.719L13.2233 72.3408C13.161 72.3853 13.114 72.448 13.0887 72.5203C13.0634 72.5926 13.0611 72.6709 13.082 72.7446L16.5301 72.7486Z" fill="#D1EBFF"/>
<path d="M9.67411 75.2154V76.4065L5.38623 73.984V72.7646L9.67411 75.2154Z" fill="url(#paint34_linear_216_1102)"/>
<g style="mix-blend-mode:color-dodge">
<path d="M5.38623 72.7646V72.9423L9.53279 75.3123V76.3258L9.67411 76.4065V75.2154L5.38623 72.7646Z" fill="white"/>
</g>
<path d="M13.9661 65.9453V67.1323L3.07275 60.971V59.7517L13.9661 65.9453Z" fill="url(#paint35_linear_216_1102)"/>
<path d="M13.9661 65.9453V66.1916L3.07275 60.0263V59.7517L13.9661 65.9453Z" fill="white"/>
<path d="M15.1411 78.2234C15.1411 78.5666 14.8989 78.7039 14.6001 78.5303C14.4427 78.4286 14.3116 78.291 14.2176 78.1289C14.1236 77.9668 14.0692 77.7847 14.0591 77.5976C14.0591 77.2544 14.3013 77.1171 14.6001 77.2908C14.7575 77.3925 14.8886 77.53 14.9826 77.6921C15.0767 77.8542 15.131 78.0363 15.1411 78.2234Z" fill="white"/>
<path d="M14.8827 78.3729C14.7253 78.2712 14.5943 78.1337 14.5002 77.9716C14.4062 77.8095 14.3519 77.6274 14.3417 77.4403C14.3387 77.3633 14.3554 77.2869 14.3902 77.2182C14.1964 77.198 14.0591 77.3393 14.0591 77.5977C14.0692 77.7849 14.1236 77.9669 14.2176 78.1291C14.3116 78.2912 14.4427 78.4287 14.6001 78.5304C14.8222 78.6596 15.0039 78.6152 15.0967 78.4456C15.0208 78.438 14.9476 78.4132 14.8827 78.3729Z" fill="url(#paint36_linear_216_1102)"/>
<path d="M13.6792 77.3716C13.6792 77.7148 13.437 77.8521 13.1382 77.6784C12.9821 77.5753 12.852 77.4374 12.7582 77.2756C12.6643 77.1138 12.6092 76.9325 12.5972 76.7458C12.5972 76.4026 12.8394 76.2653 13.1382 76.4349C13.2948 76.5384 13.4252 76.6769 13.5191 76.8395C13.613 77.002 13.6678 77.1842 13.6792 77.3716Z" fill="white"/>
<path d="M13.4208 77.5208C13.2634 77.4191 13.1323 77.2816 13.0383 77.1195C12.9443 76.9574 12.8899 76.7753 12.8798 76.5882C12.8773 76.51 12.8939 76.4324 12.9282 76.3621C12.7344 76.3621 12.5972 76.4872 12.5972 76.7456C12.6092 76.9323 12.6643 77.1137 12.7582 77.2755C12.852 77.4373 12.9821 77.5752 13.1382 77.6783C13.3603 77.8075 13.542 77.7631 13.6348 77.5935C13.5587 77.5866 13.4854 77.5617 13.4208 77.5208Z" fill="url(#paint37_linear_216_1102)"/>
<path d="M3.21391 71.388C3.21391 71.7311 2.97164 71.8684 2.67287 71.6948C2.51679 71.5917 2.38672 71.4538 2.29285 71.292C2.19899 71.1302 2.14387 70.9488 2.13184 70.7621C2.13184 70.4189 2.37409 70.2817 2.67287 70.4512C2.82947 70.5548 2.95987 70.6933 3.05376 70.8558C3.14766 71.0184 3.20248 71.2006 3.21391 71.388Z" fill="white"/>
<path d="M2.9555 71.5372C2.79942 71.4341 2.66934 71.2962 2.57548 71.1344C2.48161 70.9726 2.4265 70.7912 2.41447 70.6045C2.41197 70.5263 2.4286 70.4487 2.46292 70.3784C2.26912 70.3784 2.13184 70.5036 2.13184 70.762C2.14387 70.9487 2.19899 71.13 2.29285 71.2918C2.38672 71.4537 2.51679 71.5915 2.67287 71.6947C2.89493 71.8239 3.07662 71.7794 3.16545 71.6099C3.09078 71.6022 3.01891 71.5774 2.9555 71.5372Z" fill="url(#paint38_linear_216_1102)"/>
<path d="M1.75247 70.5319C1.75247 70.8751 1.51022 71.0164 1.21144 70.8428C1.05536 70.7397 0.925296 70.6018 0.831429 70.44C0.737562 70.2782 0.682445 70.0968 0.67041 69.9101C0.67041 69.5669 0.912662 69.4256 1.21144 69.5992C1.36752 69.7024 1.4976 69.8402 1.59146 70.0021C1.68533 70.1639 1.74044 70.3452 1.75247 70.5319Z" fill="white"/>
<path d="M1.49407 70.6854C1.33799 70.5823 1.20792 70.4444 1.11405 70.2826C1.02018 70.1208 0.965078 69.9394 0.953044 69.7527C0.950042 69.6745 0.966698 69.5967 1.00149 69.5266C0.80769 69.5266 0.67041 69.6518 0.67041 69.9304C0.682445 70.117 0.737562 70.2984 0.831429 70.4602C0.925296 70.622 1.05536 70.7599 1.21144 70.863C1.43351 70.9882 1.6152 70.9478 1.70402 70.7783C1.62761 70.7646 1.55561 70.7327 1.49407 70.6854Z" fill="url(#paint39_linear_216_1102)"/>
<path d="M16.4976 72.7204V74.4848C16.8102 74.4988 17.1202 74.4216 17.3899 74.2627V72.4983C17.1202 72.6572 16.8102 72.7344 16.4976 72.7204Z" fill="#171552"/>
<g style="mix-blend-mode:multiply">
<path d="M27.6534 61.1487C27.5216 61.1487 27.3953 61.0964 27.3022 61.0032C27.2091 60.9101 27.1567 60.7838 27.1567 60.6521V55.4033C27.1569 55.1787 27.2164 54.9581 27.3291 54.7639C27.4418 54.5696 27.6038 54.4085 27.7987 54.297L30.3787 52.8071C30.4533 52.7633 30.5385 52.7409 30.625 52.7425C30.6925 52.7424 30.7593 52.7561 30.8213 52.7828C30.8832 52.8096 30.939 52.8488 30.9852 52.898C31.0314 52.9472 31.067 53.0054 31.0898 53.069C31.1125 53.1325 31.122 53.2 31.1176 53.2674V58.5162C31.1167 58.7396 31.0574 58.9589 30.9454 59.1523C30.8335 59.3457 30.6729 59.5064 30.4796 59.6185L27.8875 61.0801C27.8165 61.1222 27.7359 61.1458 27.6534 61.1487ZM30.625 53.0292C30.5863 53.0293 30.5485 53.0405 30.516 53.0615L27.936 54.5513C27.7829 54.6388 27.6556 54.7651 27.567 54.9175C27.4783 55.07 27.4315 55.2431 27.4313 55.4194V60.6682C27.4324 60.7066 27.4432 60.744 27.4628 60.7771C27.4823 60.8101 27.51 60.8376 27.5431 60.8569C27.5762 60.8763 27.6137 60.887 27.6521 60.8879C27.6904 60.8888 27.7284 60.8799 27.7624 60.862L30.3424 59.3681C30.4938 59.2802 30.6197 59.1542 30.7076 59.0027C30.7954 58.8511 30.8421 58.6793 30.843 58.5041V53.2674C30.8452 53.2372 30.8412 53.207 30.8313 53.1784C30.8214 53.1498 30.8058 53.1236 30.7854 53.1013C30.7649 53.079 30.7402 53.0611 30.7126 53.0487C30.685 53.0363 30.6552 53.0297 30.625 53.0292Z" fill="#231889"/>
</g>
<path d="M27.6532 61.1487C27.5653 61.1473 27.4791 61.1237 27.4028 61.0801L27.5401 60.8459C27.5744 60.8639 27.6125 60.8733 27.6511 60.8733C27.6898 60.8733 27.7279 60.8639 27.7622 60.8459L30.3422 59.352C30.4937 59.2641 30.6196 59.1381 30.7074 58.9865C30.7952 58.835 30.8419 58.6631 30.8428 58.488V53.2674C30.8424 53.2235 30.8292 53.1806 30.8049 53.144C30.7805 53.1074 30.746 53.0788 30.7056 53.0615L30.8065 52.8071C30.8983 52.8441 30.9769 52.9077 31.0323 52.9897C31.0877 53.0718 31.1173 53.1684 31.1174 53.2674V58.5162C31.1165 58.7396 31.0572 58.959 30.9452 59.1523C30.8333 59.3457 30.6727 59.5064 30.4795 59.6185L27.8873 61.0801C27.8161 61.1218 27.7357 61.1453 27.6532 61.1487Z" fill="#171552"/>
<path d="M21.5366 67.5441L24.0036 68.933L28.0815 66.5791L24.0076 68.7876L21.5366 67.5441Z" fill="white"/>
<g opacity="0.3">
<path d="M91.6805 9.39136L91.8945 9.5246L33.3662 43.2543L33.1562 43.117L91.6805 9.39136Z" fill="#171552"/>
<path d="M90.0493 8.44263L90.2633 8.5799L31.735 42.3096L31.521 42.1723L90.0493 8.44263Z" fill="#171552"/>
<path d="M88.4185 7.4978L88.6284 7.63508L30.1041 41.3607L29.8901 41.2275L88.4185 7.4978Z" fill="#171552"/>
<path d="M86.7831 6.55298L86.9971 6.69026L28.4728 40.4159L28.2588 40.2786L86.7831 6.55298Z" fill="#171552"/>
<path d="M85.1517 5.60425L85.3657 5.74152L26.8374 39.4712L26.6274 39.3339L85.1517 5.60425Z" fill="#171552"/>
<path d="M83.5209 4.65942L83.7348 4.7967L25.2065 38.5264L24.9966 38.3891L83.5209 4.65942Z" fill="#171552"/>
<path d="M81.8896 3.7146L82.0996 3.85188L23.5753 37.5775L23.3613 37.4403L81.8896 3.7146Z" fill="#171552"/>
<path d="M80.2583 2.76978L80.4683 2.90301L21.944 36.6327L21.73 36.4954L80.2583 2.76978Z" fill="#171552"/>
<path d="M78.6274 1.82104L78.8374 1.95832L20.3131 35.688L20.0991 35.5507L78.6274 1.82104Z" fill="#171552"/>
<path d="M76.992 0.876221L77.206 1.0135L18.6777 34.7391L18.4678 34.6059L76.992 0.876221Z" fill="#171552"/>
</g>
<g opacity="0.3">
<path d="M91.495 9.25415L91.709 9.39143L33.1807 43.1211L32.9707 42.9838L91.495 9.25415Z" fill="white"/>
<path d="M89.8641 8.30933L90.0781 8.4466L31.5498 42.1722L31.3398 42.039L89.8641 8.30933Z" fill="white"/>
<path d="M88.2329 7.3645L88.4469 7.50178L29.9186 41.2274L29.7046 41.0901L88.2329 7.3645Z" fill="white"/>
<path d="M86.6016 6.41577L86.8115 6.55305L28.2872 40.2827L28.0732 40.1455L86.6016 6.41577Z" fill="white"/>
<path d="M84.9662 5.47095L85.1802 5.60822L26.6559 39.3339L26.4419 39.2006L84.9662 5.47095Z" fill="white"/>
<path d="M83.3353 4.52612L83.5493 4.6634L25.021 38.389L24.811 38.2518L83.3353 4.52612Z" fill="white"/>
<path d="M81.704 3.5813L81.9179 3.71454L23.3896 37.4442L23.1797 37.3069L81.704 3.5813Z" fill="white"/>
<path d="M80.0728 2.63257L80.2827 2.76985L21.7584 36.4995L21.5444 36.3623L80.0728 2.63257Z" fill="white"/>
<path d="M78.4419 1.68774L78.6518 1.82502L20.1276 35.5507L19.9136 35.4174L78.4419 1.68774Z" fill="white"/>
<path d="M76.8105 0.74292L77.0205 0.876159L18.4962 34.6058L18.2822 34.4686L76.8105 0.74292Z" fill="white"/>
</g>
</g>
<defs>
<linearGradient id="paint0_linear_216_1102" x1="85.6902" y1="38.4939" x2="79.8221" y2="38.1596" gradientUnits="userSpaceOnUse">
<stop stop-color="#E4E7FF"/>
<stop offset="1" stop-color="#2137FF"/>
</linearGradient>
<linearGradient id="paint1_linear_216_1102" x1="86.022" y1="37.7813" x2="85.3174" y2="38.9641" gradientUnits="userSpaceOnUse">
<stop stop-color="#2137FF"/>
<stop offset="1" stop-color="#0047FF"/>
</linearGradient>
<linearGradient id="paint2_linear_216_1102" x1="77.0285" y1="43.5795" x2="71.1657" y2="43.245" gradientUnits="userSpaceOnUse">
<stop stop-color="#E4E7FF"/>
<stop offset="1" stop-color="#2137FF"/>
</linearGradient>
<linearGradient id="paint3_linear_216_1102" x1="77.3598" y1="42.8711" x2="76.656" y2="44.0547" gradientUnits="userSpaceOnUse">
<stop stop-color="#2137FF"/>
<stop offset="1" stop-color="#0047FF"/>
</linearGradient>
<linearGradient id="paint4_linear_216_1102" x1="82.6191" y1="30.1848" x2="79.454" y2="37.5025" gradientUnits="userSpaceOnUse">
<stop stop-color="#2137FF"/>
<stop offset="1" stop-color="#0047FF"/>
</linearGradient>
<linearGradient id="paint5_linear_216_1102" x1="64.8533" y1="43.6985" x2="62.5781" y2="48.5503" gradientUnits="userSpaceOnUse">
<stop stop-color="#2137FF"/>
<stop offset="1" stop-color="#0047FF"/>
</linearGradient>
<linearGradient id="paint6_linear_216_1102" x1="51.6902" y1="58.3167" x2="45.8222" y2="57.9817" gradientUnits="userSpaceOnUse">
<stop stop-color="#E4E7FF"/>
<stop offset="1" stop-color="#2137FF"/>
</linearGradient>
<linearGradient id="paint7_linear_216_1102" x1="52.0376" y1="57.6121" x2="51.3333" y2="58.7947" gradientUnits="userSpaceOnUse">
<stop stop-color="#2137FF"/>
<stop offset="1" stop-color="#0047FF"/>
</linearGradient>
<linearGradient id="paint8_linear_216_1102" x1="40.5574" y1="56.8647" x2="38.068" y2="62.8009" gradientUnits="userSpaceOnUse">
<stop stop-color="#2137FF"/>
<stop offset="1" stop-color="#0047FF"/>
</linearGradient>
<linearGradient id="paint9_linear_216_1102" x1="85.7144" y1="11.0466" x2="82.2846" y2="17.5099" gradientUnits="userSpaceOnUse">
<stop stop-color="#2137FF"/>
<stop offset="1" stop-color="#0047FF"/>
</linearGradient>
<linearGradient id="paint10_linear_216_1102" x1="69.1619" y1="30.6949" x2="55.8758" y2="27.0839" gradientUnits="userSpaceOnUse">
<stop stop-color="#E4E7FF"/>
<stop offset="1" stop-color="#2137FF"/>
</linearGradient>
<linearGradient id="paint11_linear_216_1102" x1="62.6438" y1="34.4928" x2="49.3641" y2="30.8805" gradientUnits="userSpaceOnUse">
<stop stop-color="#E4E7FF"/>
<stop offset="1" stop-color="#2137FF"/>
</linearGradient>
<linearGradient id="paint12_linear_216_1102" x1="56.1272" y1="38.3082" x2="42.8475" y2="34.6959" gradientUnits="userSpaceOnUse">
<stop stop-color="#E4E7FF"/>
<stop offset="1" stop-color="#2137FF"/>
</linearGradient>
<linearGradient id="paint13_linear_216_1102" x1="43.5599" y1="38.6124" x2="30.2737" y2="35.0014" gradientUnits="userSpaceOnUse">
<stop stop-color="#E4E7FF"/>
<stop offset="1" stop-color="#2137FF"/>
</linearGradient>
<linearGradient id="paint14_linear_216_1102" x1="37.0233" y1="42.4306" x2="23.7393" y2="38.8158" gradientUnits="userSpaceOnUse">
<stop stop-color="#E4E7FF"/>
<stop offset="1" stop-color="#2137FF"/>
</linearGradient>
<linearGradient id="paint15_linear_216_1102" x1="30.5067" y1="46.226" x2="17.2227" y2="42.6112" gradientUnits="userSpaceOnUse">
<stop stop-color="#E4E7FF"/>
<stop offset="1" stop-color="#2137FF"/>
</linearGradient>
<linearGradient id="paint16_linear_216_1102" x1="49.6106" y1="42.105" x2="36.3287" y2="38.4965" gradientUnits="userSpaceOnUse">
<stop stop-color="#E4E7FF"/>
<stop offset="1" stop-color="#2137FF"/>
</linearGradient>
<linearGradient id="paint17_linear_216_1102" x1="43.074" y1="45.923" x2="29.7943" y2="42.3107" gradientUnits="userSpaceOnUse">
<stop stop-color="#E4E7FF"/>
<stop offset="1" stop-color="#2137FF"/>
</linearGradient>
<linearGradient id="paint18_linear_216_1102" x1="56.1272" y1="31.933" x2="42.8475" y2="28.3207" gradientUnits="userSpaceOnUse">
<stop stop-color="#E4E7FF"/>
<stop offset="1" stop-color="#2137FF"/>
</linearGradient>
<linearGradient id="paint19_linear_216_1102" x1="49.6106" y1="35.7295" x2="36.3287" y2="32.121" gradientUnits="userSpaceOnUse">
<stop stop-color="#E4E7FF"/>
<stop offset="1" stop-color="#2137FF"/>
</linearGradient>
<linearGradient id="paint20_linear_216_1102" x1="60.5469" y1="1.07685e-06" x2="55.4672" y2="19.0247" gradientUnits="userSpaceOnUse">
<stop stop-color="#2137FF"/>
<stop offset="1" stop-color="#0047FF"/>
</linearGradient>
<linearGradient id="paint21_linear_216_1102" x1="13.0145" y1="53.6503" x2="-27.2191" y2="50.877" gradientUnits="userSpaceOnUse">
<stop stop-color="#E4E7FF"/>
<stop offset="1" stop-color="#2137FF"/>
</linearGradient>
<linearGradient id="paint22_linear_216_1102" x1="22.8374" y1="55.6812" x2="20.6699" y2="59.0805" gradientUnits="userSpaceOnUse">
<stop stop-color="#2137FF"/>
<stop offset="1" stop-color="#0047FF"/>
</linearGradient>
<linearGradient id="paint23_linear_216_1102" x1="9.2985" y1="60.6318" x2="7.13426" y2="64.9774" gradientUnits="userSpaceOnUse">
<stop stop-color="#2137FF"/>
<stop offset="1" stop-color="#0047FF"/>
</linearGradient>
<linearGradient id="paint24_linear_216_1102" x1="9.17373" y1="62.3962" x2="7.60959" y2="65.85" gradientUnits="userSpaceOnUse">
<stop stop-color="#2137FF"/>
<stop offset="1" stop-color="#0047FF"/>
</linearGradient>
<linearGradient id="paint25_linear_216_1102" x1="11.9193" y1="49.7021" x2="9.1024" y2="55.9728" gradientUnits="userSpaceOnUse">
<stop stop-color="#2137FF"/>
<stop offset="1" stop-color="#0047FF"/>
</linearGradient>
<linearGradient id="paint26_linear_216_1102" x1="28.1172" y1="66.7104" x2="19.4378" y2="65.6252" gradientUnits="userSpaceOnUse">
<stop stop-color="#E4E7FF"/>
<stop offset="1" stop-color="#2137FF"/>
</linearGradient>
<linearGradient id="paint27_linear_216_1102" x1="25.9857" y1="72.7562" x2="19.641" y2="72.4078" gradientUnits="userSpaceOnUse">
<stop stop-color="#E4E7FF"/>
<stop offset="1" stop-color="#2137FF"/>
</linearGradient>
<linearGradient id="paint28_linear_216_1102" x1="26.3512" y1="72.575" x2="25.7759" y2="73.545" gradientUnits="userSpaceOnUse">
<stop stop-color="#2137FF"/>
<stop offset="1" stop-color="#0047FF"/>
</linearGradient>
<linearGradient id="paint29_linear_216_1102" x1="20.9956" y1="77.7227" x2="15.3691" y2="75.6876" gradientUnits="userSpaceOnUse">
<stop stop-color="#E4E7FF"/>
<stop offset="1" stop-color="#2137FF"/>
</linearGradient>
<linearGradient id="paint30_linear_216_1102" x1="20.6877" y1="69.7143" x2="13.7806" y2="69.2381" gradientUnits="userSpaceOnUse">
<stop stop-color="#E4E7FF"/>
<stop offset="1" stop-color="#2137FF"/>
</linearGradient>
<linearGradient id="paint31_linear_216_1102" x1="15.7444" y1="71.5044" x2="15.3087" y2="72.9131" gradientUnits="userSpaceOnUse">
<stop stop-color="#2137FF"/>
<stop offset="1" stop-color="#0047FF"/>
</linearGradient>
<linearGradient id="paint32_linear_216_1102" x1="16.8974" y1="42.8573" x2="-15.082" y2="39.4233" gradientUnits="userSpaceOnUse">
<stop stop-color="#E4E7FF"/>
<stop offset="1" stop-color="#2137FF"/>
</linearGradient>
<linearGradient id="paint33_linear_216_1102" x1="2.23752" y1="64.7341" x2="1.62597" y2="65.6138" gradientUnits="userSpaceOnUse">
<stop stop-color="#2137FF"/>
<stop offset="1" stop-color="#0047FF"/>
</linearGradient>
<linearGradient id="paint34_linear_216_1102" x1="7.83466" y1="72.7646" x2="7.26488" y2="74.218" gradientUnits="userSpaceOnUse">
<stop stop-color="#2137FF"/>
<stop offset="1" stop-color="#0047FF"/>
</linearGradient>
<linearGradient id="paint35_linear_216_1102" x1="9.29297" y1="59.7517" x2="8.32493" y2="62.847" gradientUnits="userSpaceOnUse">
<stop stop-color="#2137FF"/>
<stop offset="1" stop-color="#0047FF"/>
</linearGradient>
<linearGradient id="paint36_linear_216_1102" x1="14.6516" y1="77.2163" x2="14.3657" y2="77.6791" gradientUnits="userSpaceOnUse">
<stop stop-color="#2137FF"/>
<stop offset="1" stop-color="#0047FF"/>
</linearGradient>
<linearGradient id="paint37_linear_216_1102" x1="13.1897" y1="76.3621" x2="12.9031" y2="76.8252" gradientUnits="userSpaceOnUse">
<stop stop-color="#2137FF"/>
<stop offset="1" stop-color="#0047FF"/>
</linearGradient>
<linearGradient id="paint38_linear_216_1102" x1="2.72204" y1="70.3784" x2="2.43497" y2="70.8405" gradientUnits="userSpaceOnUse">
<stop stop-color="#2137FF"/>
<stop offset="1" stop-color="#0047FF"/>
</linearGradient>
<linearGradient id="paint39_linear_216_1102" x1="1.26062" y1="69.5266" x2="0.968055" y2="69.9914" gradientUnits="userSpaceOnUse">
<stop stop-color="#2137FF"/>
<stop offset="1" stop-color="#0047FF"/>
</linearGradient>
<clipPath id="clip0_216_1102">
<rect width="93.3764" height="80" fill="white"/>
</clipPath>
</defs>
</svg>
