<svg width="94" height="80" fill="none" xmlns="http://www.w3.org/2000/svg"><g clip-path="url(#a)"><path d="M3.283 56.03a.143.143 0 0 1-.117-.062l-.844-1.15c-.258-.34-.4-.753-.404-1.18v-2.37a1.99 1.99 0 0 1 1.506-1.93l1.272-.322a.146.146 0 0 1 .068.278l-1.271.32a1.704 1.704 0 0 0-1.288 1.655v2.37c-.002.363.115.717.33 1.01l.845 1.15a.145.145 0 0 1-.033.202.15.15 0 0 1-.064.028Z" fill="#A8CFF0"/><path d="m2.592 54.297-.686-.404a1.32 1.32 0 0 1-.553-1.05v-2.07c0-.405.25-.59.553-.405l.686.404a1.328 1.328 0 0 1 .55 1.05v2.071c0 .392-.251.586-.55.404Z" fill="#231889"/><path d="m2.592 50.76-.686-.404a.323.323 0 0 0-.432.037.404.404 0 0 1 .242.06l.686.404a1.329 1.329 0 0 1 .55 1.05v2.07a.565.565 0 0 1-.122.385c.182 0 .311-.19.311-.477v-2.071a1.328 1.328 0 0 0-.549-1.054Z" fill="#72B5E8"/><path d="M55.823 51.277v4.627l12.88-7.47V43.82l-12.88 7.457Zm0 0v3.82l-3.617-2.06V49.21l3.617 2.067Z" fill="#171552"/><path d="m52.206 49.21 3.617 2.067 12.88-7.458-3.622-2.063-12.875 7.454Z" fill="#2672AB"/><path d="M92.52 29.692v4.861l.477-.38v-4.852l-.477.371Z" fill="#231889"/><path d="M92.52 29.692v4.861l-11.583-6.512v-4.87l11.584 6.521Z" fill="#171552"/><path d="m80.937 23.172 11.584 6.52.476-.371-11.588-6.513-.472.364Z" fill="#2672AB"/><path d="M89.977 30.932v7.243l-1.252-.698v-7.292l1.252.747Z" fill="#171552"/><path d="M79.568 40.279c0 1.24.424 2.115 1.119 2.54l2.216 1.283c.723.404.263-.513 1.361-1.146 2.209-1.276 3.997-4.365 3.997-6.9 0-1.252 1.159-1.264.448-1.68l-2.346-1.296c-.722-.404-1.707-.32-2.793.31-2.209 1.264-4.002 4.353-4.002 6.889Z" fill="#171552"/><path d="M81.886 41.595c0 2.532 1.792 3.553 4.001 2.277 2.209-1.276 3.997-4.36 3.997-6.896 0-2.536-1.788-3.557-3.997-2.281-2.209 1.276-4.001 4.364-4.001 6.9Z" fill="#171552"/><path d="M85.693 34.598c1.058-.61 2.019-.69 2.738-.335a3.159 3.159 0 0 0-2.403.472c-2.208 1.276-4.001 4.36-4.001 6.896 0 1.32.489 2.229 1.264 2.617-.977-.275-1.615-1.244-1.615-2.75.02-2.535 1.809-5.624 4.017-6.9Z" fill="#231889"/><path d="M85.92 36.52a5.701 5.701 0 0 0-2.589 4.44c0 1.636 1.163 2.298 2.588 1.474a5.7 5.7 0 0 0 2.584-4.44c0-1.636-1.159-2.298-2.584-1.474Z" fill="#fff"/><path d="M87.587 36.265a1.869 1.869 0 0 1 .63 1.563 5.71 5.71 0 0 1-2.585 4.461 1.927 1.927 0 0 1-1.667.255c.476.355 1.17.355 1.954-.093a5.701 5.701 0 0 0 2.584-4.441c0-.921-.36-1.523-.916-1.745Z" fill="url(#b)"/><path d="M84.256 40.17c0 .855.602 1.21 1.348.767a2.972 2.972 0 0 0 1.353-2.326c0-.856-.606-1.211-1.353-.771a2.968 2.968 0 0 0-1.348 2.33Z" fill="#171552"/><path d="M84.482 40.303c0 .856.602 1.211 1.349.767a2.968 2.968 0 0 0 1.348-2.33c0-.856-.602-1.21-1.349-.767a2.966 2.966 0 0 0-1.348 2.33Z" fill="url(#c)"/><path d="M70.908 45.37c0 1.236.428 2.112 1.122 2.536.02 0 2.193 1.271 2.217 1.284.722.403.258-.513 1.356-1.147 2.209-1.276 4.002-4.365 4.002-6.896 0-1.256 1.158-1.264.448-1.684l-2.354-1.3c-.719-.404-1.704-.319-2.79.307-2.205 1.276-4.001 4.364-4.001 6.9Z" fill="#171552"/><path d="M80.032 46.016c1.57-2.688 1.587-5.601.035-6.508s-4.083.536-5.654 3.223c-1.571 2.688-1.587 5.602-.035 6.508 1.551.908 4.083-.536 5.654-3.223Z" fill="#171552"/><path d="M77.033 39.69c1.057-.615 2.018-.695 2.733-.336a3.135 3.135 0 0 0-2.39.468c-2.209 1.276-3.997 4.365-3.997 6.9 0 1.317.484 2.225 1.263 2.617-.977-.275-1.615-1.248-1.615-2.754.004-2.531 1.797-5.62 4.006-6.896Z" fill="#231889"/><path d="M77.254 41.607a5.702 5.702 0 0 0-2.584 4.441c0 1.635 1.16 2.298 2.584 1.474a5.696 5.696 0 0 0 2.584-4.441c0-1.636-1.158-2.298-2.584-1.474Z" fill="#fff"/><path d="M78.926 41.357a1.87 1.87 0 0 1 .63 1.562 5.7 5.7 0 0 1-2.584 4.442 1.935 1.935 0 0 1-1.667.258c.472.355 1.17.355 1.95-.097a5.7 5.7 0 0 0 2.584-4.441c0-.905-.355-1.502-.913-1.724Z" fill="url(#d)"/><path d="M75.591 45.257c0 .856.606 1.211 1.353.771a2.983 2.983 0 0 0 1.348-2.33c0-.856-.605-1.21-1.348-.77a2.976 2.976 0 0 0-1.353 2.329Z" fill="#171552"/><path d="M75.817 45.39c0 .856.606 1.211 1.353.771a2.984 2.984 0 0 0 1.349-2.33c0-.855-.606-1.21-1.349-.77a2.976 2.976 0 0 0-1.353 2.33Z" fill="url(#e)"/><path d="M71.122 41.813v7.24l1.288-.744v-5.761l17.555-10.139v5.762l1.292-.743v-7.243L71.122 41.813Z" fill="url(#f)"/><path d="M71.11 41.821v7.247l-1.252-.702v-7.288l1.251.743Z" fill="#171552"/><path d="m57.947 54.467.654.383 10.692-6.157-.666-.376-10.68 6.15Z" fill="#231889"/><path d="M69.305 44.78v3.917l-.679-.38v-3.94l.679.404Z" fill="#171552"/><path d="M57.628 50.982v5.572l12.654-7.324v-5.531l-12.654 7.283Zm11.66-2.325-10.675 6.19V51.55l10.675-6.149v3.255Z" fill="url(#g)"/><path d="M57.636 50.982v5.576l-.831-.42V50.53l.831.452Z" fill="#231889"/><path d="m56.805 50.53.831.452 12.642-7.284-.84-.444-12.633 7.276Z" fill="#231889"/><path d="M45.572 60.095c0 1.235.424 2.116 1.118 2.54l2.217 1.28c.723.403.262-.513 1.36-1.143 2.209-1.276 3.998-4.365 3.998-6.9 0-1.252 1.158-1.264.448-1.684l-2.35-1.3c-.723-.404-1.708-.32-2.794.307-2.209 1.284-3.997 4.364-3.997 6.9Z" fill="#171552"/><path d="M54.698 60.742c1.571-2.687 1.587-5.601.035-6.508-1.551-.907-4.082.536-5.654 3.224-1.57 2.687-1.586 5.6-.035 6.508 1.552.907 4.083-.536 5.654-3.224Z" fill="#171552"/><path d="M51.709 54.414c1.058-.61 2.019-.694 2.737-.335a3.149 3.149 0 0 0-2.39.468c-2.208 1.276-4.001 4.365-4.001 6.9 0 1.32.489 2.23 1.264 2.617-.977-.275-1.615-1.244-1.615-2.75-.008-2.535 1.78-5.624 4.005-6.9Z" fill="#231889"/><path d="M51.92 56.332a5.712 5.712 0 0 0-2.589 4.462c0 1.635 1.163 2.293 2.588 1.473a5.71 5.71 0 0 0 2.584-4.461c0-1.636-1.159-2.294-2.584-1.474Z" fill="#fff"/><path d="M53.587 56.094a1.864 1.864 0 0 1 .63 1.562 5.696 5.696 0 0 1-2.585 4.442 1.932 1.932 0 0 1-1.667.258c.476.355 1.17.355 1.954-.093a5.71 5.71 0 0 0 2.584-4.461c0-.9-.371-1.498-.916-1.708Z" fill="url(#h)"/><path d="M50.255 59.982c0 .856.602 1.211 1.349.77a2.972 2.972 0 0 0 1.352-2.329c0-.856-.605-1.211-1.352-.767a2.969 2.969 0 0 0-1.349 2.326Z" fill="#171552"/><path d="M50.498 60.131c0 .856.601 1.211 1.348.771a2.971 2.971 0 0 0 1.349-2.33c0-.855-.602-1.21-1.349-.77a2.971 2.971 0 0 0-1.348 2.33Z" fill="url(#i)"/><path d="M31.029 66.45v5.576l16.687-9.634v-5.527L31.029 66.45Z" fill="url(#j)"/><path d="M42.964 59.635v5.374l.266-.146v-5.382l-.266.154Z" fill="#A8CFF0" style="mix-blend-mode:multiply"/><path d="M43.23 59.485v5.374l.162-.085v-5.382l-.162.093ZM31.029 67.88v3.714l11.123-6.424a2.132 2.132 0 0 0-3.193-1.85l-7.93 4.56Z" fill="#231889"/><path d="m38.959 63.32-7.93 4.56v.496l7.93-4.555a2.131 2.131 0 0 1 3.14 1.381l.053-.032a2.132 2.132 0 0 0-3.193-1.85Z" fill="#231889"/><path d="M31.037 66.45v5.576l-13.179-7.498V58.92l13.179 7.53Z" fill="#0147FF"/><path d="m17.858 58.92 13.179 7.53 16.68-9.585-13.188-7.522-16.67 9.577Z" fill="#231889"/><path d="m34.263 44.813 58.165-33.766v17.975L34.263 62.848V44.813Z" fill="#171552"/><path d="m92.4 29.038.028-.016V11.047l-15.65 9.084L92.4 29.038Z" fill="url(#k)"/><path d="M70.335 32.882v5.85l5.644-3.27v-5.899l-5.644 3.319Z" fill="#fff"/><path d="m70.964 33.241 4.381-2.572v4.43l-4.38 2.535v-4.393Z" fill="#2137FF" style="mix-blend-mode:multiply" opacity=".3"/><path d="M75.16 30.778v4.215l-4.196 2.427v.214l4.381-2.536V30.67l-.186.11Z" fill="#2137FF" style="mix-blend-mode:multiply" opacity=".5"/><path d="M70.338 32.882v5.85l-5.357-3.097v-5.898l5.357 3.145Z" fill="#2137FF"/><path d="M65.614 35.272v-4.43l4.09 2.4v4.392l-4.09-2.362Z" fill="#2137FF" style="mix-blend-mode:multiply" opacity=".3"/><path d="M65.784 35.191v-4.247l-.17-.101v4.429l4.09 2.362v-.174l-3.92-2.269Z" fill="#2137FF" style="mix-blend-mode:multiply" opacity=".3"/><path d="m64.98 29.737 5.358 3.145 5.64-3.319-5.37-3.125-5.627 3.299Z" fill="#fff"/><path d="m64.98 29.737 5.358 3.145 5.64-3.319-5.66 3.105-5.337-2.931Z" fill="url(#l)"/><path d="m66.232 29.736 4.377-2.563 4.114 2.394-4.385 2.58-4.106-2.41Z" fill="#2137FF"/><path d="m70.609 27.378 3.936 2.294.178-.105-4.114-2.394-4.377 2.564.178.104 4.199-2.463Z" fill="#2137FF" style="mix-blend-mode:multiply" opacity=".3"/><path d="m73.225 32.995-.448 1.385.29-.166v1.652l.316-.182v-1.651l.29-.17-.448-.868Zm1.535.242-.445-.868-.448 1.385.29-.17v1.652l.312-.182v-1.651l.29-.166Zm-8.48 1.696-.185-.11v-1.945l.186.105v1.95Zm.308-.153-.186-.105v-1.62l.186.105v1.62Zm.468.27-.186-.105v-1.62l.186.106v1.619Zm-.283-.166-.084-.048v-1.62l.084.05v1.618Zm.545.319-.181-.109V33.48l.181.105v1.62Zm.138.077-.061-.036v-1.62l.06.037v1.62Zm1.049.606-.06-.033V34.23l.06.037v1.619Zm-.492-.283-.141-.085v-1.615l.14.081v1.62Zm-.259-.149-.186-.105v-1.62l.186.106v1.619Zm.606.347-.226-.13v-1.618l.226.133v1.615Zm.387.226-.145-.085v-1.619l.145.085v1.62Zm.307.178-.185-.11v-1.618l.185.109v1.619Zm.263.48-.142-.085v-1.946l.142.081v1.95Z" fill="#fff"/><path d="M63.818 36.677v5.85l5.64-3.27v-5.895l-5.64 3.315Z" fill="#fff"/><path d="m64.448 37.04 4.38-2.572v4.426l-4.38 2.535V37.04Z" fill="#2137FF" style="mix-blend-mode:multiply" opacity=".3"/><path d="M68.643 34.574v4.215l-4.195 2.43v.21l4.38-2.535v-4.425l-.185.105Z" fill="#2137FF" style="mix-blend-mode:multiply" opacity=".5"/><path d="M63.822 36.677v5.85l-5.358-3.092v-5.9l5.358 3.142Z" fill="#2137FF"/><path d="M59.098 39.067v-4.425l4.09 2.398v4.393l-4.09-2.366Z" fill="#2137FF" style="mix-blend-mode:multiply" opacity=".3"/><path d="M59.267 38.99v-4.25l-.17-.097v4.425l4.09 2.366v-.177l-3.92-2.266Z" fill="#2137FF" style="mix-blend-mode:multiply" opacity=".3"/><path d="m58.464 33.536 5.358 3.141 5.636-3.315-5.366-3.129-5.628 3.303Z" fill="#fff"/><path d="m58.464 33.536 5.358 3.141 5.636-3.315-5.657 3.101-5.337-2.927Z" fill="url(#m)"/><path d="m59.715 33.536 4.377-2.568 4.114 2.394-4.385 2.58-4.106-2.406Z" fill="#2137FF"/><path d="m64.092 31.174 3.937 2.293.177-.105-4.114-2.394-4.377 2.568.178.1 4.199-2.462Z" fill="#2137FF" style="mix-blend-mode:multiply" opacity=".3"/><path d="m66.708 36.794-.448 1.385.291-.17v1.652l.315-.182v-1.651l.29-.166-.448-.868Zm1.535.238-.448-.868-.444 1.385.286-.165v1.647l.315-.178v-1.651l.29-.17Zm-8.479 1.696-.186-.105v-1.95l.186.11v1.945Zm.307-.153-.186-.105v-1.62l.186.106v1.619Zm.469.27-.187-.105v-1.619l.186.105v1.62Zm-.287-.161-.081-.049v-1.619l.08.049v1.619Zm.549.315-.182-.105v-1.62l.182.106v1.619Zm.137.076-.06-.032v-1.619l.06.036v1.615Zm1.05.61-.06-.036v-1.62l.06.037v1.62Zm-.493-.287-.145-.08v-1.62l.145.081v1.62Zm-.259-.149-.185-.105v-1.62l.185.106v1.619Zm.606.351-.226-.129v-1.619l.226.13V39.6Zm.387.222-.145-.08v-1.62l.146.081v1.62Zm.304.178-.182-.105v-1.62l.182.106V40Zm.266.48-.145-.08v-1.95l.145.084v1.946Z" fill="#fff"/><path d="M57.297 40.493v5.854l5.644-3.27v-5.9l-5.644 3.316Z" fill="#fff"/><path d="m57.931 40.856 4.38-2.572v4.425l-4.38 2.54v-4.393Z" fill="#2137FF" style="mix-blend-mode:multiply" opacity=".3"/><path d="M62.126 38.393v4.211l-4.195 2.43v.215l4.38-2.54v-4.425l-.185.109Z" fill="#2137FF" style="mix-blend-mode:multiply" opacity=".5"/><path d="M57.305 40.492v5.855l-5.358-3.097v-5.899l5.358 3.142Z" fill="#2137FF"/><path d="M52.581 42.887v-4.43l4.09 2.4v4.392l-4.09-2.362Z" fill="#2137FF" style="mix-blend-mode:multiply" opacity=".3"/><path d="M52.747 42.806v-4.251l-.166-.097v4.429l4.09 2.362v-.178l-3.924-2.265Z" fill="#2137FF" style="mix-blend-mode:multiply" opacity=".3"/><path d="m51.947 37.351 5.358 3.142 5.636-3.315-5.37-3.125-5.624 3.298Z" fill="#fff"/><path d="m51.947 37.351 5.358 3.142 5.636-3.315-5.656 3.105-5.338-2.932Z" fill="url(#n)"/><path d="m53.199 37.351 4.376-2.568 4.115 2.395-4.385 2.58-4.106-2.407Z" fill="#2137FF"/><path d="m57.575 34.993 3.937 2.29.178-.105-4.115-2.395-4.376 2.568.177.105 4.2-2.463Z" fill="#2137FF" style="mix-blend-mode:multiply" opacity=".3"/><path d="m60.192 40.61-.448 1.385.29-.17v1.651l.315-.181v-1.652l.291-.165-.448-.868Zm1.534.238-.448-.868-.448 1.385.29-.166v1.651l.316-.181v-1.652l.29-.17Zm-8.479 1.696-.185-.105v-1.946l.185.105v1.946Zm.303-.15-.181-.109v-1.619l.181.11v1.618Zm.473.271-.186-.11v-1.618l.186.109v1.619Zm-.287-.165-.085-.05v-1.618l.085.048v1.62Zm.549.318-.181-.109V41.09l.181.105v1.623Zm.137.077-.064-.036v-1.62l.065.037v1.619Zm1.05.605-.065-.036v-1.619l.065.037V43.5Zm-.492-.282-.146-.085v-1.619l.145.085v1.619Zm-.26-.149-.185-.11v-1.618l.186.109v1.619Zm.607.347-.226-.13v-1.619l.226.13v1.619Zm.387.226-.145-.085v-1.619l.145.085v1.619Zm.303.174-.182-.105v-1.62l.182.105v1.62Zm.266.484-.145-.085V42.27l.145.08v1.95Zm-11.551-3.5v5.85l5.645-3.27v-5.9l-5.645 3.32Z" fill="#fff"/><path d="m45.366 41.159 4.377-2.572v4.43l-4.377 2.535v-4.393Z" fill="#2137FF" style="mix-blend-mode:multiply" opacity=".3"/><path d="M49.557 38.696v4.215l-4.19 2.427v.214l4.376-2.536v-4.43l-.186.11Z" fill="#2137FF" style="mix-blend-mode:multiply" opacity=".5"/><path d="M44.736 40.8v5.85l-5.358-3.093v-5.899l5.358 3.141Z" fill="#2137FF"/><path d="M40.012 43.19v-4.43l4.09 2.403v4.393l-4.09-2.366Z" fill="#2137FF" style="mix-blend-mode:multiply" opacity=".3"/><path d="M40.182 43.109V38.86l-.17-.1v4.429l4.09 2.366v-.178l-3.92-2.27Z" fill="#2137FF" style="mix-blend-mode:multiply" opacity=".3"/><path d="m39.378 37.658 5.358 3.141 5.64-3.319-5.37-3.124-5.628 3.302Z" fill="#fff"/><path d="m39.378 37.658 5.358 3.141 5.64-3.319-5.66 3.105-5.338-2.927Z" fill="url(#o)"/><path d="m40.63 37.658 4.377-2.568 4.114 2.395-4.385 2.58-4.106-2.407Z" fill="#2137FF"/><path d="m45.007 35.296 3.936 2.294.178-.105-4.114-2.395-4.377 2.568.177.101 4.2-2.463Z" fill="#2137FF" style="mix-blend-mode:multiply" opacity=".3"/><path d="m47.623 40.913-.444 1.385.286-.166v1.651l.315-.181V41.95l.291-.17-.448-.867Zm1.534.242-.444-.868-.448 1.385.29-.17v1.651l.312-.181V41.32l.29-.165Zm-8.479 1.695-.181-.108v-1.947l.181.105v1.95Zm.308-.153-.186-.105v-1.619l.186.105v1.62Zm.468.271-.186-.105v-1.62l.186.106v1.619Zm-.283-.162-.085-.052v-1.615l.085.044v1.623Zm.549.315-.185-.105v-1.619l.185.105v1.619Zm.133.077-.06-.033v-1.623l.06.037v1.619Zm1.05.605-.06-.032v-1.619l.06.032v1.62Zm-.493-.283-.141-.08v-1.619l.141.08v1.62Zm-.258-.149-.186-.105v-1.619l.186.105v1.62Zm.606.351-.226-.133V41.97l.226.133v1.62Zm.387.223L43 43.864v-1.62l.145.082v1.619Zm.307.177-.185-.109v-1.619l.185.11v1.618Zm.263.481-.142-.085v-1.946l.142.08v1.95Z" fill="#fff"/><path d="M38.195 44.615v5.854l5.645-3.27V41.3l-5.645 3.315Z" fill="#fff"/><path d="m38.825 44.978 4.38-2.572v4.426l-4.38 2.535v-4.389Z" fill="#2137FF" style="mix-blend-mode:multiply" opacity=".3"/><path d="M43.02 42.516v4.21l-4.195 2.431v.21l4.38-2.535v-4.425l-.185.109Z" fill="#2137FF" style="mix-blend-mode:multiply" opacity=".5"/><path d="M38.2 44.615v5.854l-5.358-3.096v-5.9l5.358 3.142Z" fill="#2137FF"/><path d="M33.476 47.005V42.58l4.09 2.398v4.393l-4.09-2.366Z" fill="#2137FF" style="mix-blend-mode:multiply" opacity=".3"/><path d="M33.645 46.928v-4.251l-.17-.097v4.425l4.09 2.366v-.177l-3.92-2.266Z" fill="#2137FF" style="mix-blend-mode:multiply" opacity=".3"/><path d="m32.842 41.474 5.358 3.14 5.64-3.314-5.37-3.13-5.628 3.304Z" fill="#fff"/><path d="m32.842 41.474 5.358 3.14 5.64-3.314-5.66 3.1-5.338-2.926Z" fill="url(#p)"/><path d="m34.093 41.474 4.377-2.568 4.114 2.394-4.385 2.58-4.106-2.406Z" fill="#2137FF"/><path d="m38.47 39.116 3.937 2.289.177-.105-4.114-2.394-4.377 2.568.178.105 4.199-2.463Z" fill="#2137FF" style="mix-blend-mode:multiply" opacity=".3"/><path d="m41.086 44.732-.444 1.385.287-.17V47.6l.315-.182v-1.651l.29-.166-.448-.868Zm1.534.238-.448-.868-.444 1.385.287-.166v1.652l.315-.182V45.14l.29-.17Zm-8.478 1.696-.186-.105v-1.95l.186.109v1.946Zm.306-.153-.185-.105v-1.62l.185.106v1.619Zm.469.274-.186-.109V45.06l.186.105v1.623Zm-.283-.165-.085-.049v-1.619l.085.049v1.619Zm.546.314-.182-.105v-1.619l.181.105v1.62Zm.136.081-.06-.036v-1.62l.06.037v1.62Zm1.05.606-.06-.036v-1.62l.06.037v1.619Zm-.492-.287-.142-.08v-1.62l.142.081v1.62Zm-.259-.149-.185-.105v-1.62l.185.106v1.619Zm.606.351-.226-.13V45.79l.226.129v1.62Zm.388.222-.146-.08v-1.62l.146.081v1.62Zm.303.178-.182-.105v-1.62l.182.106v1.619Zm.266.48-.145-.08v-1.95l.145.084v1.946Z" fill="#fff"/><path d="M31.675 48.41v5.855l5.648-3.27v-5.9l-5.648 3.315Z" fill="#fff"/><path d="m32.309 48.774 4.38-2.572v4.425l-4.38 2.54v-4.393Z" fill="#2137FF" style="mix-blend-mode:multiply" opacity=".3"/><path d="M36.504 46.31v4.212l-4.195 2.43v.214l4.38-2.54v-4.424l-.185.109Z" fill="#2137FF" style="mix-blend-mode:multiply" opacity=".5"/><path d="M31.683 48.41v5.855l-5.358-3.097v-5.899l5.358 3.141Z" fill="#2137FF"/><path d="M26.959 50.804v-4.429l4.09 2.398v4.393l-4.09-2.362Z" fill="#2137FF" style="mix-blend-mode:multiply" opacity=".3"/><path d="M27.129 50.724v-4.252l-.17-.097v4.43l4.09 2.361v-.177l-3.92-2.265Z" fill="#2137FF" style="mix-blend-mode:multiply" opacity=".3"/><path d="m26.325 45.269 5.358 3.141 5.64-3.315-5.37-3.125-5.628 3.299Z" fill="#fff"/><path d="m26.325 45.27 5.358 3.14 5.64-3.314-5.66 3.104-5.338-2.93Z" fill="url(#q)"/><path d="m27.577 45.27 4.376-2.569 4.115 2.398-4.385 2.576-4.106-2.406Z" fill="#2137FF"/><path d="m31.953 42.911 3.937 2.29.178-.102-4.115-2.398-4.376 2.568.177.105 4.2-2.463Z" fill="#2137FF" style="mix-blend-mode:multiply" opacity=".3"/><path d="m34.57 48.527-.448 1.385.29-.17v1.652l.315-.182v-1.651l.29-.166-.447-.868Zm1.534.243-.448-.869-.448 1.381.29-.165v1.651l.315-.182v-1.651l.29-.166Zm-8.479 1.691-.186-.105V48.41l.186.105v1.946Zm.303-.149-.182-.11v-1.618l.182.109v1.619Zm.472.27-.186-.105v-1.623l.186.11v1.618Zm-.286-.165-.085-.049V48.75l.085.049v1.619Zm.549.319-.182-.11v-1.618l.182.109v1.619Zm.137.077-.065-.037v-1.619l.065.037v1.619Zm1.05.605-.06-.036v-1.62l.06.037v1.62Zm-.493-.282-.145-.085v-1.62l.145.085v1.62Zm-.258-.15-.186-.109v-1.619l.186.11v1.618Zm.606.348-.226-.13v-1.619l.226.13v1.618Zm.387.226-.145-.085v-1.62l.145.086v1.619Zm.303.173-.182-.105V50.01l.182.105v1.62Zm.267.485-.146-.085v-1.946l.146.08v1.95Zm20.118-7.926v5.85l5.645-3.27v-5.899l-5.645 3.319Z" fill="#fff"/><path d="m51.415 44.651 4.376-2.572v4.43l-4.376 2.535v-4.393Z" fill="#2137FF" style="mix-blend-mode:multiply" opacity=".3"/><path d="M55.61 42.188v4.216l-4.195 2.426v.214l4.376-2.535v-4.43l-.181.11Z" fill="#2137FF" style="mix-blend-mode:multiply" opacity=".5"/><path d="M50.788 44.292v5.85l-5.357-3.096v-5.9l5.358 3.146Z" fill="#2137FF"/><path d="M46.065 46.682v-4.43l4.09 2.4v4.392l-4.09-2.362Z" fill="#2137FF" style="mix-blend-mode:multiply" opacity=".3"/><path d="M46.23 46.601v-4.247l-.165-.101v4.43l4.09 2.361v-.173L46.23 46.6Z" fill="#2137FF" style="mix-blend-mode:multiply" opacity=".3"/><path d="m45.43 41.147 5.358 3.145 5.637-3.319-5.37-3.125-5.624 3.299Z" fill="#fff"/><path d="m45.43 41.147 5.358 3.145 5.637-3.319-5.66 3.105-5.334-2.931Z" fill="url(#r)"/><path d="m46.682 41.147 4.373-2.564 4.118 2.394-4.385 2.58-4.106-2.41Z" fill="#2137FF"/><path d="m51.055 38.789 3.94 2.293.178-.105-4.118-2.394-4.373 2.564.178.105 4.195-2.463Z" fill="#2137FF" style="mix-blend-mode:multiply" opacity=".3"/><path d="m53.675 44.405-.448 1.385.29-.166v1.652l.316-.182v-1.651l.29-.17-.448-.868Zm1.535.242-.448-.868-.449 1.385.291-.17v1.652l.315-.182v-1.651l.29-.166Zm-8.48 1.696-.185-.11v-1.945l.186.105v1.95Zm.304-.153-.182-.105v-1.62l.182.106v1.619Zm.468.27-.182-.105v-1.619l.182.105v1.62Zm-.282-.166-.085-.048v-1.619l.085.048v1.62Zm.548.319-.185-.105V44.89l.185.105v1.62Zm.134.077-.06-.036v-1.62l.06.037v1.62Zm1.049.606-.06-.032v-1.62l.06.033v1.619Zm-.488-.283-.146-.085V45.31l.146.085v1.62Zm-.259-.149-.185-.105v-1.62l.185.106v1.619Zm.602.351-.222-.133v-1.62l.222.13v1.623Zm.388.222-.142-.084v-1.62l.142.085v1.62Zm.306.178-.185-.11v-1.618l.186.109v1.619Zm.267.48-.145-.084v-1.947l.145.081v1.95Z" fill="#fff"/><path d="M44.244 48.107v5.85l5.644-3.266v-5.899l-5.644 3.315Z" fill="#fff"/><path d="m44.877 48.47 4.377-2.571v4.425l-4.377 2.536v-4.39Z" fill="#2137FF" style="mix-blend-mode:multiply" opacity=".3"/><path d="M49.068 46.004v4.215l-4.19 2.43v.21l4.376-2.535V45.9l-.186.105Z" fill="#2137FF" style="mix-blend-mode:multiply" opacity=".5"/><path d="M44.252 48.108v5.85l-5.358-3.093v-5.899l5.358 3.142Z" fill="#2137FF"/><path d="M39.524 50.498v-4.425l4.094 2.398v4.393l-4.094-2.366Z" fill="#2137FF" style="mix-blend-mode:multiply" opacity=".3"/><path d="M39.694 50.42v-4.25l-.17-.098v4.426l4.094 2.366v-.178l-3.925-2.265Z" fill="#2137FF" style="mix-blend-mode:multiply" opacity=".3"/><path d="m38.894 44.966 5.358 3.142 5.636-3.315-5.37-3.13-5.624 3.303Z" fill="#fff"/><path d="m38.894 44.966 5.358 3.141 5.636-3.315-5.66 3.101-5.334-2.927Z" fill="url(#s)"/><path d="m40.145 44.966 4.373-2.568 4.118 2.394-4.388 2.58-4.102-2.406Z" fill="#2137FF"/><path d="m44.518 42.604 3.94 2.293.178-.105-4.118-2.394-4.373 2.568.174.105 4.2-2.467Z" fill="#2137FF" style="mix-blend-mode:multiply" opacity=".3"/><path d="m47.139 48.225-.449 1.38.291-.165v1.651l.315-.181v-1.652l.29-.165-.447-.868Zm1.534.238-.449-.868-.448 1.385.291-.166v1.651l.315-.181v-1.652l.29-.17Zm-8.483 1.695-.182-.105v-1.95l.182.11v1.945Zm.307-.153-.186-.105v-1.619l.186.105v1.619Zm.468.271-.181-.105v-1.62l.181.105v1.62Zm-.283-.162-.084-.048v-1.62l.084.049v1.619Zm.55.316-.186-.106v-1.619l.186.105v1.62Zm.133.076-.06-.033v-1.619l.06.037v1.615Zm1.05.609-.061-.036V49.46l.06.036v1.62Zm-.493-.286-.141-.081v-1.62l.141.082v1.619Zm-.258-.149-.182-.106v-1.619l.182.105v1.62Zm.606.35-.223-.129v-1.619l.222.13v1.619Zm.387.222-.141-.08v-1.62l.14.081v1.62Zm.307.178-.186-.105v-1.619l.186.105v1.62Zm.262.48-.141-.08v-1.95l.141.085v1.946Zm14.071-17.793v5.855l5.644-3.27v-5.9l-5.644 3.315Z" fill="#fff"/><path d="m57.931 34.48 4.38-2.571v4.429l-4.38 2.535v-4.392Z" fill="#2137FF" style="mix-blend-mode:multiply" opacity=".3"/><path d="M62.126 32.018v4.21l-4.195 2.431v.215l4.38-2.536v-4.43l-.185.11Z" fill="#2137FF" style="mix-blend-mode:multiply" opacity=".5"/><path d="M57.305 34.117v5.855l-5.358-3.097v-5.899l5.358 3.141Z" fill="#2137FF"/><path d="M52.581 36.511v-4.429l4.09 2.399v4.392l-4.09-2.361Z" fill="#2137FF" style="mix-blend-mode:multiply" opacity=".3"/><path d="M52.747 36.43v-4.25l-.166-.098v4.43l4.09 2.361v-.177l-3.924-2.265Z" fill="#2137FF" style="mix-blend-mode:multiply" opacity=".3"/><path d="m51.947 30.976 5.358 3.141 5.636-3.314-5.37-3.126-5.624 3.3Z" fill="#fff"/><path d="m51.947 30.976 5.358 3.141 5.636-3.314-5.656 3.104-5.338-2.93Z" fill="url(#t)"/><path d="m53.199 30.976 4.376-2.568 4.115 2.398-4.385 2.58-4.106-2.41Z" fill="#2137FF"/><path d="m57.575 28.618 3.937 2.29.178-.102-4.115-2.398-4.376 2.568.177.105 4.2-2.463Z" fill="#2137FF" style="mix-blend-mode:multiply" opacity=".3"/><path d="m60.192 34.234-.448 1.385.29-.17v1.652l.315-.182v-1.647l.291-.17-.448-.868Zm1.534.243-.448-.872-.448 1.388.29-.17v1.652l.316-.181v-1.652l.29-.165Zm-8.479 1.691-.185-.105v-1.946l.185.105v1.946Zm.303-.148-.181-.11v-1.619l.181.109v1.62Zm.473.27-.186-.11v-1.618l.186.108v1.62Zm-.287-.166-.085-.048v-1.62l.085.049v1.62Zm.549.319-.181-.11v-1.618l.181.109v1.619Zm.137.077-.064-.037v-1.619l.065.037v1.619Zm1.05.605-.065-.036V35.47l.065.036v1.62Zm-.492-.282-.146-.085v-1.62l.145.086v1.619Zm-.26-.15-.185-.109v-1.619l.186.11v1.618Zm.607.347-.226-.129v-1.619l.226.13v1.619Zm.387.227-.145-.085v-1.62l.145.086v1.619Zm.303.173-.182-.105v-1.619l.182.105v1.62Zm.266.48-.145-.08v-1.946l.145.08v1.947Z" fill="#fff"/><path d="M50.78 37.916v5.85l5.645-3.27v-5.898l-5.645 3.319Z" fill="#fff"/><path d="m51.415 38.28 4.376-2.576v4.43l-4.376 2.535V38.28Z" fill="#2137FF" style="mix-blend-mode:multiply" opacity=".3"/><path d="M55.61 35.813v4.215l-4.195 2.427v.214l4.376-2.536v-4.429l-.181.11Z" fill="#2137FF" style="mix-blend-mode:multiply" opacity=".5"/><path d="M50.788 37.917v5.85l-5.357-3.097v-5.898l5.358 3.145Z" fill="#2137FF"/><path d="M46.065 40.307v-4.43l4.09 2.403v4.389l-4.09-2.362Z" fill="#2137FF" style="mix-blend-mode:multiply" opacity=".3"/><path d="M46.23 40.226V35.98l-.165-.101v4.429l4.09 2.362v-.174l-3.925-2.269Z" fill="#2137FF" style="mix-blend-mode:multiply" opacity=".3"/><path d="m45.43 34.771 5.358 3.146 5.637-3.32-5.37-3.124-5.624 3.298Z" fill="#fff"/><path d="m45.43 34.771 5.358 3.145 5.637-3.318-5.66 3.105-5.334-2.932Z" fill="url(#u)"/><path d="m46.682 34.775 4.373-2.567 4.118 2.394-4.385 2.58-4.106-2.407Z" fill="#2137FF"/><path d="m51.055 32.413 3.94 2.294.178-.105-4.118-2.394-4.373 2.567.178.101 4.195-2.463Z" fill="#2137FF" style="mix-blend-mode:multiply" opacity=".3"/><path d="m53.675 38.03-.448 1.385.29-.166V40.9l.316-.181v-1.652l.29-.17-.448-.867Zm1.535.242-.448-.868-.449 1.385.291-.17v1.651l.315-.181v-1.652l.29-.165Zm-8.48 1.696-.185-.11v-1.945l.186.105v1.95Zm.304-.154-.182-.105V38.09l.182.105v1.62Zm.468.271-.182-.105v-1.62l.182.106v1.619Zm-.282-.162-.085-.052v-1.615l.085.044v1.623Zm.548.315-.185-.105v-1.619l.185.105v1.62Zm.134.077-.06-.032v-1.624l.06.037v1.619Zm1.049.605-.06-.032V39.27l.06.033v1.619Zm-.488-.282-.146-.085v-1.615l.146.081v1.619Zm-.259-.15-.185-.105v-1.619l.185.105v1.62Zm.602.352-.222-.134v-1.619l.222.134v1.619Zm.388.222-.142-.081v-1.623l.142.085v1.619Zm.306.178-.185-.11v-1.619l.186.11v1.618Zm.267.48-.145-.085V39.69l.145.081v1.95Z" fill="#fff"/><path d="M33.314 44.268v20.224l60.059-34.925V9.379L33.314 44.268Zm59.114-15.226L34.263 62.844V44.813l58.165-33.766v17.995Z" fill="#231889"/><path d="M33.322 44.268v20.228L16.849 55.12V34.852l16.473 9.416Z" fill="#171552"/><path d="m16.849 34.852 16.473 9.416L93.376 9.399 76.891 0 16.849 34.852Z" fill="url(#v)"/><path d="M16.873 41.005 6.04 47.312a5.613 5.613 0 0 0-2.664 3.497l-1.523 6.007a22.267 22.267 0 0 0-.686 5.491v7.034l15.448 8.741V71.84a22.249 22.249 0 0 1 1.037-6.73l1.97-6.234A5.592 5.592 0 0 1 22.2 55.69l10.13-5.92-15.456-8.765Z" fill="url(#w)"/><path d="M16.61 71.8v6.282l8.27-4.748.634-3.634 6.815-4.07V49.77l-10.17 5.92a5.62 5.62 0 0 0-2.58 3.202l-1.95 6.221A22.42 22.42 0 0 0 16.61 71.8Z" fill="#fff"/><path d="M16.82 71.763a22.398 22.398 0 0 1 1.022-6.674l1.97-6.226a5.604 5.604 0 0 1 2.58-3.201l9.848-5.742v-.258l-10.166 5.927a5.624 5.624 0 0 0-2.584 3.202l-1.946 6.226a22.266 22.266 0 0 0-1.022 6.674v6.286l.319-.186-.02-6.028Z" fill="#D1EBFF"/><path d="m20.519 59.19-1.95 6.23a.493.493 0 0 0 .719.578l6.116-3.573a1.312 1.312 0 0 0 .659-1.139v-5.111a.496.496 0 0 0-.743-.428l-3.8 2.216c-.47.268-.827.699-1.001 1.211v.017Z" fill="url(#x)"/><path d="M25.562 55.69a.485.485 0 0 1 .23.404v5.111a1.313 1.313 0 0 1-.658 1.139l-6.129 3.569a.468.468 0 0 1-.246.065.484.484 0 0 0 .517 0l6.116-3.574a1.313 1.313 0 0 0 .659-1.138v-5.091a.492.492 0 0 0-.489-.485Z" fill="#171552"/><path d="M13.982 66.91v2.306a3.194 3.194 0 0 1-4.78 2.774l-2.213-1.264a7.784 7.784 0 0 1-3.925-6.763v-3.331l10.918 6.278Z" fill="url(#y)"/><path d="M10.78 71.561c-.405 0-.803-.108-1.155-.31l-2.212-1.264a6.958 6.958 0 0 1-3.493-6.024v-2.6l9.206 5.297v2.556a2.35 2.35 0 0 1-2.346 2.345Z" fill="#03336E"/><path d="M10.998 71.509a2.28 2.28 0 0 1-1.155-.315L7.631 69.93a6.948 6.948 0 0 1-3.497-6.02v-2.422l-.214-.126v2.6a6.957 6.957 0 0 0 3.493 6.025l2.212 1.264c.352.202.75.31 1.155.31.222 0 .442-.033.654-.097a2.28 2.28 0 0 1-.436.045Z" fill="#001A46"/><path d="m5.067 67.774 6.396 3.662c.155-.049.305-.112.448-.19L4.671 67.1c.12.231.253.457.396.674Zm-.884-1.93 8.422 4.845c.085-.1.16-.208.226-.323L4.066 65.32c.024.178.069.352.117.525Zm-.262-1.881v.31l9.173 5.278c.016-.111.024-.223.024-.335v-.105l-9.205-5.294.008.146Zm0-1.567v.448l9.205 5.298v-.453l-9.205-5.293Z" fill="url(#z)"/><path d="m4.784 67.306 6.994 4.038c.045-.02.09-.041.133-.065L4.67 67.1l.113.206Zm-.69-1.821 8.665 4.983c.024-.037.052-.065.072-.102L4.066 65.32c0 .06 0 .109.028.165Zm-.174-1.526 9.206 5.293v-.141L3.92 63.817v.142Zm0-1.563v.142l9.21 5.297v-.145l-9.21-5.294Z" fill="#fff"/><path d="M16.074 66.07a.88.88 0 0 1-.449-.12L3.09 58.84a1.534 1.534 0 0 1-.727-1.709L3.93 50.95c.08-.318.192-.628.33-.925a.565.565 0 0 1 .505-.323.579.579 0 0 1 .271.073l13.65 7.837a.904.904 0 0 1 .405 1.062l-2.136 6.754a.917.917 0 0 1-.876.642h-.004Z" fill="url(#A)"/><path opacity=".5" d="M2.362 57.131 3.93 50.95c.08-.318.192-.628.33-.925a.565.565 0 0 1 .505-.323.579.579 0 0 1 .271.073l13.65 7.837c.364.21-16.492.185-16.323-.48Z" fill="#231889"/><path d="M16.364 65.356a.92.92 0 0 1-.456-.121L3.194 58.024a1.559 1.559 0 0 1-.771-1.147l-.06.254a1.534 1.534 0 0 0 .726 1.708l12.537 7.11c.135.08.29.122.448.121a.916.916 0 0 0 .876-.641l.129-.404a.933.933 0 0 1-.715.33Z" fill="#171552"/><path d="m9.949 58.661-3.545-.77a.145.145 0 0 0-.134-.033l-2.083-.452a.141.141 0 0 0-.15.216.147.147 0 0 0 .09.062l2.079.453.682 2.341a.145.145 0 0 0 .137.101h.04a.139.139 0 0 0 .087-.068.14.14 0 0 0 .01-.11l-.637-2.192 3.367.735h.028a.142.142 0 1 0 .033-.283h-.004Zm5.6 3.134-3.545-.776a.14.14 0 0 0-.134-.028l-2.087-.456a.141.141 0 0 0-.17.109.141.141 0 0 0 .11.17l2.079.456.682 2.342a.145.145 0 0 0 .137.1h.04a.14.14 0 0 0 .098-.177l-.618-2.192 3.367.734h.028a.145.145 0 0 0 .142-.113.142.142 0 0 0-.13-.17Z" fill="#171552"/><path d="m27.237 62.09-.896.52a.658.658 0 0 0-.323.562v.044a.299.299 0 0 0 .452.258l.808-.472a.63.63 0 0 0 .315-.541v-.17a.234.234 0 0 0-.356-.202Z" fill="#171552" style="mix-blend-mode:multiply"/><path d="m25.614 65.19 6.715.444-6.795 4.014.08-4.458Z" fill="url(#B)"/><path d="M30.282 68.618v3.06l-2.33-1.308.158-3.048 2.172 1.296Z" fill="#171552"/><path d="M19.905 74.957c0 1.244.428 2.128 1.127 2.556l2.132 1.235c.726.404.262-.516 1.364-1.154 2.22-1.284 4.038-4.39 4.038-6.937 0-1.264 1.167-1.272.452-1.692l-2.265-1.255c-.727-.404-1.716-.323-2.826.31-2.221 1.28-4.022 4.39-4.022 6.937Z" fill="#171552"/><path d="M28.989 75.555c1.58-2.705 1.597-5.638.036-6.55-1.561-.913-4.109.54-5.69 3.244-1.581 2.705-1.597 5.638-.036 6.55 1.561.913 4.109-.54 5.69-3.245Z" fill="#171552"/><path d="M28.177 75.08c1.126-1.927 1.137-4.017.024-4.667-1.112-.65-2.927.384-4.054 2.311-1.126 1.927-1.138 4.017-.025 4.667 1.113.65 2.928-.384 4.055-2.311Z" fill="#fff"/><path d="M27.795 70.257c.512.3.827.933.827 1.833a6.323 6.323 0 0 1-2.866 4.946 2.326 2.326 0 0 1-1.635.356c.516.303 1.24.258 2.039-.202a6.311 6.311 0 0 0 2.866-4.942c0-1.119-.488-1.825-1.231-1.99Z" fill="url(#C)"/><path d="M25.966 69.192c1.066-.618 2.018-.699 2.75-.34a3.15 3.15 0 0 0-2.403.473c-2.22 1.284-4.037 4.388-4.037 6.936 0 1.329.488 2.241 1.267 2.633-.98-.275-1.615-1.252-1.615-2.766.016-2.548 1.817-5.657 4.038-6.936Z" fill="#231889"/><path d="M25.748 71.226a.807.807 0 0 0-.372.646c0 .239.166.331.372.214a.809.809 0 0 0 .375-.646c0-.238-.165-.335-.375-.214Zm0 4.385a.809.809 0 0 0-.372.646c0 .238.166.335.372.214a.807.807 0 0 0 .375-.646c0-.238-.165-.33-.375-.214Zm1.09-3.634c.145.085.38-.052.529-.303.15-.25.145-.524 0-.61-.146-.084-.384.053-.53.308-.145.254-.16.52 0 .601v.004Zm-2.18 3.747c-.146-.085-.384.053-.53.307-.145.254-.145.52 0 .606.146.085.384-.053.53-.307.145-.254.149-.525 0-.606Zm3-3.407a.808.808 0 0 0-.376.646c0 .238.17.33.375.214a.837.837 0 0 0 .376-.647c.004-.238-.145-.335-.372-.213h-.004ZM23.85 74.52a.837.837 0 0 0-.375.646c0 .238.17.335.375.214a.808.808 0 0 0 .376-.646c-.012-.234-.182-.331-.376-.214Zm3.529-.36c-.15-.08-.384.057-.529.308-.145.25-.15.524 0 .605.15.08.38-.052.529-.303.15-.25.133-.508-.012-.61h.012Zm-2.705-1.538c-.146-.084-.384.053-.53.303-.144.25-.144.525 0 .61.146.085.384-.053.53-.307.145-.254.133-.525-.016-.606h.016Z" fill="#03336E"/><path d="M24.59 74.352a.782.782 0 0 0 .31.702l.468.279c.202.113.073-.142.376-.315a2.446 2.446 0 0 0 1.11-1.914c0-.347.32-.351.125-.464l-.504-.287a.808.808 0 0 0-.776.085 2.448 2.448 0 0 0-1.11 1.913Z" fill="#231889"/><path d="M25.085 74.638c0 .703.497.985 1.11.634a2.454 2.454 0 0 0 1.107-1.914c0-.702-.497-.985-1.106-.63a2.421 2.421 0 0 0-1.11 1.91Z" fill="url(#D)"/><path d="M21.12 78.336v-4.429l2.884-4.974 4.061-2.342-2.45-1.4-4.078 2.353-2.883 4.974v4.43l2.467 1.388Z" fill="#D1EBFF"/><path d="M21.12 78.336v-4.429l2.884-4.974 4.061-2.342-2.45-1.4-4.078 2.353-2.883 4.974v4.43l2.467 1.388Z" fill="#fff"/><path d="M21.12 78.336v-4.429l-2.466-1.389v4.43l2.467 1.388Z" fill="url(#E)"/><path d="m21.12 73.907 2.884-4.974-2.467-1.389-2.883 4.975 2.467 1.388Z" fill="url(#F)"/><path d="M21.803 77.969v-3.88l2.697-4.655 3.581-2.068 2.2 1.252v3.06l.68-.391v-3.065l-2.88-1.643-4.078 2.354-2.882 4.974v4.454l.682-.392Z" fill="#231889"/><path d="m.004 67.851 15.456 9.17a2.462 2.462 0 0 0 2.423 0l2.89-1.616v2.633l-2.915 1.64a2.455 2.455 0 0 1-2.422 0L.553 71.133a1.087 1.087 0 0 1-.54-.933l-.009-2.35Z" fill="#171552"/><path d="M17.87 74.239a.472.472 0 0 1-.294.431 2.423 2.423 0 0 1-2.148-.14l-2.213-1.264a.651.651 0 0 1 .089-1.171l1.07-.537a.674.674 0 0 1 .525 0c.646.294 1.615.94 2.495.658.262-.085.5.198.497.468l-.02 1.555Z" fill="url(#G)"/><path d="m.27 68.352 15.19 8.668a2.464 2.464 0 0 0 2.422 0l2.891-1.615-.807-.452-2.092 1.183a2.468 2.468 0 0 1-2.454 0L1.155 67.907v-1.05l-.929.57a.54.54 0 0 0 .045.925Z" fill="#171552"/><path d="m1.163 67.726.016.012.008-.884-.02.012-.004.86Z" fill="#72B5E8"/><path d="m20.62 75.308-2.742 1.535a2.468 2.468 0 0 1-2.422 0L.27 68.174a.537.537 0 0 1-.25-.319.529.529 0 0 0 .266.497l15.19 8.668a2.462 2.462 0 0 0 2.422 0l2.89-1.615-.17-.097Z" fill="#171552"/><path d="M20.886 66.002a.141.141 0 0 1-.072-.263l.965-.581a1.72 1.72 0 0 0 .827-1.466V59.93a1.704 1.704 0 0 0-.775-1.413l-.949-.634a.142.142 0 0 1 .162-.234l.945.63a1.99 1.99 0 0 1 .888 1.66V63.7a2.02 2.02 0 0 1-.965 1.708l-.965.582a.117.117 0 0 1-.06.012Z" fill="#231889"/><path d="m23.353 63.906-.686-.403a1.317 1.317 0 0 1-.55-1.05v-2.075c0-.404.247-.59.55-.404l.686.404a1.317 1.317 0 0 1 .55 1.05v2.07c0 .396-.247.582-.55.408Z" fill="#231889"/><path d="m23.353 60.37-.686-.404a.319.319 0 0 0-.428.032.428.428 0 0 1 .238.06l.686.404a1.329 1.329 0 0 1 .55 1.05v2.075a.541.541 0 0 1-.122.38c.186 0 .311-.186.311-.477v-2.07a1.317 1.317 0 0 0-.549-1.05Z" fill="#72B5E8"/><path d="m32.353 45.083-15.202-8.72-5.729 3.443a8.075 8.075 0 0 0-4.005 6.965h.024l15.165 8.636 9.747-10.324Z" fill="url(#H)"/><path d="m26.135 51.653 2.532-2.677-16.615-9.557-.63.38a8.076 8.076 0 0 0-2.33 2.046l17.043 9.808Z" fill="#fff"/><path d="m22.49 55.339 9.774-5.738v-4.586l-5.774 3.359a8.075 8.075 0 0 0-4 6.965Z" fill="#fff"/><path d="m22.59 55.379 9.775-5.745v-4.58l-5.774 3.368a8.077 8.077 0 0 0-4 6.957Z" fill="#fff"/><path d="M1.163 64.734v1.821a.404.404 0 0 0 .21.343l1.252.642a.294.294 0 0 0 .403-.363l-.5-1.53a.808.808 0 0 0-.404-.453l-.96-.46Z" fill="url(#I)"/><path d="m13.26 72.979 2.737 1.546a.38.38 0 0 0 .565-.33v-1.212a1.02 1.02 0 0 0-.549-.909l-.856-.452a1.016 1.016 0 0 0-1.086.08l-.848.623a.38.38 0 0 0 .036.654Z" fill="#fff"/><path d="M1.163 65.344v1.045a.404.404 0 0 0 .21.344l1.252.642a.295.295 0 0 0 .404-.368l-.501-1.36a.807.807 0 0 0-.404-.453L1.72 65a.38.38 0 0 0-.557.344Z" fill="#D1EBFF"/><path d="M1.163 65.344s1.684 2.067 1.769 2.019a.287.287 0 0 0 .105-.344l-.501-1.36a.807.807 0 0 0-.404-.453l-.404-.193a.379.379 0 0 0-.565.33Z" fill="#fff"/><path d="m4.357 73.29-.02-.489a.678.678 0 0 1 1.013-.59l4.441 2.552a2.233 2.233 0 0 1 1.119 1.93v.404L4.357 73.29Z" fill="#3F92D1" style="mix-blend-mode:multiply"/><path d="M16.53 72.749a1.009 1.009 0 0 0-.517-.658l-.856-.453a1.018 1.018 0 0 0-1.086.081l-.848.622a.371.371 0 0 0-.141.404l3.448.004Z" fill="#D1EBFF"/><path d="M9.674 75.215v1.191l-4.288-2.422v-1.22l4.288 2.451Z" fill="url(#J)"/><path d="M5.386 72.765v.177l4.147 2.37v1.014l.141.08v-1.19l-4.288-2.451Z" fill="#fff" style="mix-blend-mode:color-dodge"/><path d="M13.966 65.945v1.187L3.073 60.971v-1.22l10.893 6.194Z" fill="url(#K)"/><path d="M13.966 65.945v.247L3.073 60.026v-.274l10.893 6.193Zm1.175 12.278c0 .344-.242.48-.54.307a1.187 1.187 0 0 1-.542-.932c0-.344.242-.48.541-.307a1.186 1.186 0 0 1 .541.932Z" fill="#fff"/><path d="M14.883 78.373a1.187 1.187 0 0 1-.541-.933.452.452 0 0 1 .048-.222c-.194-.02-.33.121-.33.38a1.187 1.187 0 0 0 .54.932c.222.13.404.085.497-.084a.5.5 0 0 1-.214-.073Z" fill="url(#L)"/><path d="M13.68 77.372c0 .343-.243.48-.542.306a1.21 1.21 0 0 1-.54-.932c0-.343.241-.48.54-.311a1.21 1.21 0 0 1 .541.937Z" fill="#fff"/><path d="M13.42 77.52a1.186 1.186 0 0 1-.54-.932.48.48 0 0 1 .048-.226c-.194 0-.33.125-.33.384a1.21 1.21 0 0 0 .54.932c.222.13.404.085.497-.084a.481.481 0 0 1-.214-.073Z" fill="url(#M)"/><path d="M3.214 71.388c0 .343-.242.48-.541.307a1.211 1.211 0 0 1-.541-.933c0-.343.242-.48.54-.31a1.212 1.212 0 0 1 .542.936Z" fill="#fff"/><path d="M2.955 71.537a1.211 1.211 0 0 1-.54-.933.48.48 0 0 1 .048-.226c-.194 0-.331.126-.331.384a1.21 1.21 0 0 0 .54.933c.223.129.405.084.493-.085a.485.485 0 0 1-.21-.073Z" fill="url(#N)"/><path d="M1.752 70.532c0 .343-.242.484-.54.31a1.211 1.211 0 0 1-.542-.932c0-.343.243-.484.541-.31a1.211 1.211 0 0 1 .541.932Z" fill="#fff"/><path d="M1.494 70.685a1.211 1.211 0 0 1-.541-.932.468.468 0 0 1 .048-.226c-.193 0-.33.125-.33.403a1.211 1.211 0 0 0 .54.933c.223.125.404.085.493-.085a.485.485 0 0 1-.21-.093Z" fill="url(#O)"/><path d="M16.498 72.72v1.765c.312.014.622-.063.892-.222v-1.765c-.27.16-.58.236-.892.222Z" fill="#171552"/><path d="M27.653 61.149a.496.496 0 0 1-.496-.497v-5.249a1.276 1.276 0 0 1 .642-1.106l2.58-1.49a.494.494 0 0 1 .739.46v5.25a1.28 1.28 0 0 1-.638 1.101l-2.593 1.462a.493.493 0 0 1-.234.069Zm2.972-8.12a.202.202 0 0 0-.109.032l-2.58 1.49a1.002 1.002 0 0 0-.505.868v5.25a.226.226 0 0 0 .331.193l2.58-1.494a1.007 1.007 0 0 0 .501-.864v-5.237a.222.222 0 0 0-.218-.238Z" fill="#231889" style="mix-blend-mode:multiply"/><path d="M27.653 61.149a.522.522 0 0 1-.25-.069l.137-.234a.239.239 0 0 0 .222 0l2.58-1.494a1.005 1.005 0 0 0 .5-.864v-5.22a.227.227 0 0 0-.136-.206l.1-.255a.497.497 0 0 1 .311.46v5.25a1.28 1.28 0 0 1-.637 1.101l-2.593 1.462a.504.504 0 0 1-.234.069Z" fill="#171552"/><path d="m21.537 67.544 2.467 1.389 4.077-2.354-4.073 2.209-2.471-1.244Z" fill="#fff"/><path d="m91.68 9.391.214.134-58.528 33.73-.21-.138L91.68 9.391Zm-1.63-.948.213.137-58.528 33.73-.214-.138 58.528-33.73Zm-1.632-.945.21.137-58.524 33.726-.214-.133 58.528-33.73Zm-1.635-.945.214.137-58.524 33.726-.214-.137L86.783 6.553Zm-1.631-.949.214.138-58.529 33.73-.21-.138 58.525-33.73ZM83.52 4.66l.215.137-58.529 33.73-.21-.138L83.522 4.66Zm-1.63-.945.21.137-58.525 33.725-.214-.137L81.89 3.715Zm-1.632-.945.21.133-58.524 33.73-.214-.138L80.258 2.77Zm-1.631-.949.21.137-58.524 33.73-.214-.137L78.627 1.82ZM76.992.876l.214.138-58.528 33.725-.21-.133L76.992.876Z" opacity=".3" fill="#171552"/><path d="m91.495 9.254.214.137-58.528 33.73-.21-.137 58.524-33.73Zm-1.631-.944.214.137L31.55 42.172l-.21-.133 58.524-33.73Zm-1.631-.946.214.138-58.528 33.725-.214-.137L88.233 7.364Zm-1.631-.948.21.137-58.525 33.73-.214-.138 58.529-33.73Zm-1.636-.945.214.137-58.524 33.726-.214-.133L84.966 5.47Zm-1.631-.945.214.137L25.021 38.39l-.21-.137L83.335 4.526Zm-1.631-.945.214.134-58.528 33.73-.21-.138L81.704 3.58Zm-1.631-.948.21.137L21.758 36.5l-.214-.138 58.529-33.73Zm-1.631-.945.21.137-58.524 33.726-.214-.134 58.528-33.73ZM76.81.743l.21.133-58.524 33.73-.214-.137L76.811.743Z" opacity=".3" fill="#fff"/></g><defs><linearGradient id="b" x1="85.69" y1="38.494" x2="79.822" y2="38.16" gradientUnits="userSpaceOnUse"><stop stop-color="#E4E7FF"/><stop offset="1" stop-color="#2137FF"/></linearGradient><linearGradient id="c" x1="86.022" y1="37.781" x2="85.317" y2="38.964" gradientUnits="userSpaceOnUse"><stop stop-color="#2137FF"/><stop offset="1" stop-color="#0047FF"/></linearGradient><linearGradient id="d" x1="77.028" y1="43.58" x2="71.166" y2="43.245" gradientUnits="userSpaceOnUse"><stop stop-color="#E4E7FF"/><stop offset="1" stop-color="#2137FF"/></linearGradient><linearGradient id="e" x1="77.36" y1="42.871" x2="76.656" y2="44.055" gradientUnits="userSpaceOnUse"><stop stop-color="#2137FF"/><stop offset="1" stop-color="#0047FF"/></linearGradient><linearGradient id="f" x1="82.619" y1="30.185" x2="79.454" y2="37.502" gradientUnits="userSpaceOnUse"><stop stop-color="#2137FF"/><stop offset="1" stop-color="#0047FF"/></linearGradient><linearGradient id="g" x1="64.853" y1="43.699" x2="62.578" y2="48.55" gradientUnits="userSpaceOnUse"><stop stop-color="#2137FF"/><stop offset="1" stop-color="#0047FF"/></linearGradient><linearGradient id="h" x1="51.69" y1="58.317" x2="45.822" y2="57.982" gradientUnits="userSpaceOnUse"><stop stop-color="#E4E7FF"/><stop offset="1" stop-color="#2137FF"/></linearGradient><linearGradient id="i" x1="52.038" y1="57.612" x2="51.333" y2="58.795" gradientUnits="userSpaceOnUse"><stop stop-color="#2137FF"/><stop offset="1" stop-color="#0047FF"/></linearGradient><linearGradient id="j" x1="40.557" y1="56.865" x2="38.068" y2="62.801" gradientUnits="userSpaceOnUse"><stop stop-color="#2137FF"/><stop offset="1" stop-color="#0047FF"/></linearGradient><linearGradient id="k" x1="85.714" y1="11.047" x2="82.285" y2="17.51" gradientUnits="userSpaceOnUse"><stop stop-color="#2137FF"/><stop offset="1" stop-color="#0047FF"/></linearGradient><linearGradient id="l" x1="69.162" y1="30.695" x2="55.876" y2="27.084" gradientUnits="userSpaceOnUse"><stop stop-color="#E4E7FF"/><stop offset="1" stop-color="#2137FF"/></linearGradient><linearGradient id="m" x1="62.644" y1="34.493" x2="49.364" y2="30.881" gradientUnits="userSpaceOnUse"><stop stop-color="#E4E7FF"/><stop offset="1" stop-color="#2137FF"/></linearGradient><linearGradient id="n" x1="56.127" y1="38.308" x2="42.847" y2="34.696" gradientUnits="userSpaceOnUse"><stop stop-color="#E4E7FF"/><stop offset="1" stop-color="#2137FF"/></linearGradient><linearGradient id="o" x1="43.56" y1="38.612" x2="30.274" y2="35.001" gradientUnits="userSpaceOnUse"><stop stop-color="#E4E7FF"/><stop offset="1" stop-color="#2137FF"/></linearGradient><linearGradient id="p" x1="37.023" y1="42.431" x2="23.739" y2="38.816" gradientUnits="userSpaceOnUse"><stop stop-color="#E4E7FF"/><stop offset="1" stop-color="#2137FF"/></linearGradient><linearGradient id="q" x1="30.507" y1="46.226" x2="17.223" y2="42.611" gradientUnits="userSpaceOnUse"><stop stop-color="#E4E7FF"/><stop offset="1" stop-color="#2137FF"/></linearGradient><linearGradient id="r" x1="49.611" y1="42.105" x2="36.329" y2="38.496" gradientUnits="userSpaceOnUse"><stop stop-color="#E4E7FF"/><stop offset="1" stop-color="#2137FF"/></linearGradient><linearGradient id="s" x1="43.074" y1="45.923" x2="29.794" y2="42.311" gradientUnits="userSpaceOnUse"><stop stop-color="#E4E7FF"/><stop offset="1" stop-color="#2137FF"/></linearGradient><linearGradient id="t" x1="56.127" y1="31.933" x2="42.847" y2="28.321" gradientUnits="userSpaceOnUse"><stop stop-color="#E4E7FF"/><stop offset="1" stop-color="#2137FF"/></linearGradient><linearGradient id="u" x1="49.611" y1="35.73" x2="36.329" y2="32.121" gradientUnits="userSpaceOnUse"><stop stop-color="#E4E7FF"/><stop offset="1" stop-color="#2137FF"/></linearGradient><linearGradient id="v" x1="60.547" y1="0" x2="55.467" y2="19.025" gradientUnits="userSpaceOnUse"><stop stop-color="#2137FF"/><stop offset="1" stop-color="#0047FF"/></linearGradient><linearGradient id="w" x1="13.014" y1="53.65" x2="-27.219" y2="50.877" gradientUnits="userSpaceOnUse"><stop stop-color="#E4E7FF"/><stop offset="1" stop-color="#2137FF"/></linearGradient><linearGradient id="x" x1="22.837" y1="55.681" x2="20.67" y2="59.081" gradientUnits="userSpaceOnUse"><stop stop-color="#2137FF"/><stop offset="1" stop-color="#0047FF"/></linearGradient><linearGradient id="y" x1="9.299" y1="60.632" x2="7.134" y2="64.977" gradientUnits="userSpaceOnUse"><stop stop-color="#2137FF"/><stop offset="1" stop-color="#0047FF"/></linearGradient><linearGradient id="z" x1="9.174" y1="62.396" x2="7.61" y2="65.85" gradientUnits="userSpaceOnUse"><stop stop-color="#2137FF"/><stop offset="1" stop-color="#0047FF"/></linearGradient><linearGradient id="A" x1="11.919" y1="49.702" x2="9.102" y2="55.973" gradientUnits="userSpaceOnUse"><stop stop-color="#2137FF"/><stop offset="1" stop-color="#0047FF"/></linearGradient><linearGradient id="B" x1="28.117" y1="66.71" x2="19.438" y2="65.625" gradientUnits="userSpaceOnUse"><stop stop-color="#E4E7FF"/><stop offset="1" stop-color="#2137FF"/></linearGradient><linearGradient id="C" x1="25.986" y1="72.756" x2="19.641" y2="72.408" gradientUnits="userSpaceOnUse"><stop stop-color="#E4E7FF"/><stop offset="1" stop-color="#2137FF"/></linearGradient><linearGradient id="D" x1="26.351" y1="72.575" x2="25.776" y2="73.545" gradientUnits="userSpaceOnUse"><stop stop-color="#2137FF"/><stop offset="1" stop-color="#0047FF"/></linearGradient><linearGradient id="E" x1="20.996" y1="77.723" x2="15.369" y2="75.688" gradientUnits="userSpaceOnUse"><stop stop-color="#E4E7FF"/><stop offset="1" stop-color="#2137FF"/></linearGradient><linearGradient id="F" x1="20.688" y1="69.714" x2="13.781" y2="69.238" gradientUnits="userSpaceOnUse"><stop stop-color="#E4E7FF"/><stop offset="1" stop-color="#2137FF"/></linearGradient><linearGradient id="G" x1="15.744" y1="71.504" x2="15.309" y2="72.913" gradientUnits="userSpaceOnUse"><stop stop-color="#2137FF"/><stop offset="1" stop-color="#0047FF"/></linearGradient><linearGradient id="H" x1="16.897" y1="42.857" x2="-15.082" y2="39.423" gradientUnits="userSpaceOnUse"><stop stop-color="#E4E7FF"/><stop offset="1" stop-color="#2137FF"/></linearGradient><linearGradient id="I" x1="2.238" y1="64.734" x2="1.626" y2="65.614" gradientUnits="userSpaceOnUse"><stop stop-color="#2137FF"/><stop offset="1" stop-color="#0047FF"/></linearGradient><linearGradient id="J" x1="7.835" y1="72.765" x2="7.265" y2="74.218" gradientUnits="userSpaceOnUse"><stop stop-color="#2137FF"/><stop offset="1" stop-color="#0047FF"/></linearGradient><linearGradient id="K" x1="9.293" y1="59.752" x2="8.325" y2="62.847" gradientUnits="userSpaceOnUse"><stop stop-color="#2137FF"/><stop offset="1" stop-color="#0047FF"/></linearGradient><linearGradient id="L" x1="14.652" y1="77.216" x2="14.366" y2="77.679" gradientUnits="userSpaceOnUse"><stop stop-color="#2137FF"/><stop offset="1" stop-color="#0047FF"/></linearGradient><linearGradient id="M" x1="13.19" y1="76.362" x2="12.903" y2="76.825" gradientUnits="userSpaceOnUse"><stop stop-color="#2137FF"/><stop offset="1" stop-color="#0047FF"/></linearGradient><linearGradient id="N" x1="2.722" y1="70.378" x2="2.435" y2="70.841" gradientUnits="userSpaceOnUse"><stop stop-color="#2137FF"/><stop offset="1" stop-color="#0047FF"/></linearGradient><linearGradient id="O" x1="1.261" y1="69.527" x2=".968" y2="69.991" gradientUnits="userSpaceOnUse"><stop stop-color="#2137FF"/><stop offset="1" stop-color="#0047FF"/></linearGradient><clipPath id="a"><path fill="#fff" d="M0 0h93.376v80H0z"/></clipPath></defs></svg>