<svg width="260" height="260" fill="none" xmlns="http://www.w3.org/2000/svg"><g clip-path="url(#a)" stroke="#4E29FF"><path d="M-250 0 18.7 268.701M-220 0 48.7 268.701M-190 0 78.7 268.701M-160 0l268.701 268.701M-130 0l268.701 268.701M-100 0l268.701 268.701M-70 0l268.701 268.701M-40 0l268.701 268.701M-10 0l268.701 268.701M20 0l268.701 268.701M50 0l268.701 268.701M80 0l268.701 268.701M110 0l268.701 268.701M140 0l268.701 268.701M170 0l268.701 268.701M200 0l268.701 268.701M230 0l268.701 268.701M260 0l268.701 268.701"/></g><defs><clipPath id="a"><path fill="#fff" d="M0 0h260v260H0z"/></clipPath></defs></svg>