<svg width="18" height="18" fill="none" xmlns="http://www.w3.org/2000/svg"><g filter="url(#a)"><path d="M8.136 1.484a1 1 0 0 1 1.728 0l2.147 3.686a1 1 0 0 0 .653.474l4.169.902a1 1 0 0 1 .534 1.644l-2.843 3.181a1 1 0 0 0-.249.767l.43 4.244a1 1 0 0 1-1.398 1.016l-3.904-1.72a1 1 0 0 0-.806 0l-3.904 1.72a1 1 0 0 1-1.398-1.016l.43-4.244a1 1 0 0 0-.25-.767L.634 8.191a1 1 0 0 1 .534-1.645l4.17-.902a1 1 0 0 0 .652-.474l2.147-3.686Z" fill="#FFCE21"/></g><defs><filter id="a" x=".378" y=".987" width="17.243" height="16.498" filterUnits="userSpaceOnUse" color-interpolation-filters="sRGB"><feFlood flood-opacity="0" result="BackgroundImageFix"/><feColorMatrix in="SourceAlpha" values="0 0 0 0 0 0 0 0 0 0 0 0 0 0 0 0 0 0 127 0" result="hardAlpha"/><feMorphology radius="5" in="SourceAlpha" result="effect1_dropShadow_216_4582"/><feOffset/><feGaussianBlur stdDeviation="2.5"/><feComposite in2="hardAlpha" operator="out"/><feColorMatrix values="0 0 0 0 1 0 0 0 0 0.807843 0 0 0 0 0.129412 0 0 0 0.25 0"/><feBlend in2="BackgroundImageFix" result="effect1_dropShadow_216_4582"/><feBlend in="SourceGraphic" in2="effect1_dropShadow_216_4582" result="shape"/></filter></defs></svg>