<svg width="80" height="75" fill="none" xmlns="http://www.w3.org/2000/svg"><path d="m52.44 36.01-.37-1.878c.492 2.46-.943 5.068-4.28 6.946-5.74 3.206-14.867 3.116-20.419-.205-3.157-1.886-4.477-4.404-3.993-6.823-.123.632-.254 1.255-.377 1.878-.5 2.46.86 5.06 4.1 6.995 5.74 3.41 15.088 3.501 20.951.213 3.42-1.919 4.887-4.568 4.387-7.126Z" fill="#171552"/><path d="M48.077 29.245c-5.56-3.321-14.703-3.412-20.419-.205-5.715 3.206-5.846 8.503-.287 11.832 5.56 3.33 14.695 3.412 20.419.205 5.723-3.206 5.846-8.511.287-11.832Z" fill="url(#a)"/><path d="M46.034 20.421c.041-1.23-.738-2.46-2.337-3.427a12.915 12.915 0 0 0-11.718-.123c-1.705.959-2.542 2.23-2.509 3.51l-.197-8.094V9.343l-.049-2.214V5.66c0-1.337.82-2.673 2.624-3.674 3.444-1.927 8.938-1.87 12.3.123 1.64 1.009 2.46 2.305 2.46 3.6l-.574 14.711Z" fill="#171552"/><path d="M45.854 5.628c0-1.172-.754-2.353-2.28-3.28a12.555 12.555 0 0 0-11.398-.115c-1.64.91-2.46 2.116-2.46 3.33v-.378c0-1.213.82-2.46 2.46-3.337a12.579 12.579 0 0 1 11.399.115c1.525.918 2.287 2.09 2.28 3.28v.385Z" fill="url(#b)"/><path d="M51.012 32.369c-.377-.82-.738-1.542-1.222-2.698a38.322 38.322 0 0 1-.984-2.591c-.311-.968-.582-1.796-.77-2.534a56.672 56.672 0 0 1-.558-2.46c-.082-.385-.164-.91-.23-1.304a48.768 48.768 0 0 1-.55-6.478c-.048-2.263 0-4.69.19-8.955-.058 1.32-.976 2.633-2.748 3.625-3.591 2.017-9.34 1.96-12.841-.131-1.64-.993-2.517-2.264-2.567-3.551.148 3.969.214 6.437.14 8.922a46.235 46.235 0 0 1-.574 6.437 22.5 22.5 0 0 1-.23 1.296c-.156.73-.385 1.697-.566 2.46-.18.762-.516 1.746-.77 2.525 0 0-.386 1.132-1.034 2.682-.54 1.287-1.066 2.337-1.238 2.69-1.328 2.664-.213 5.657 3.37 7.798 5.314 3.181 14.055 3.28 19.525.196 3.756-2.123 4.986-5.19 3.657-7.93Z" fill="url(#c)"/><path d="M44.124 9.048c-3.592 2.017-9.34 1.96-12.841-.132-3.502-2.09-3.412-5.412.188-7.437 3.6-2.025 9.34-1.96 12.833.131 3.494 2.091 3.428 5.38-.18 7.438Zm-.713-.427c3.198-1.787 3.28-4.74.164-6.6a12.578 12.578 0 0 0-11.399-.116c-3.19 1.796-3.28 4.748-.155 6.602a12.53 12.53 0 0 0 11.39.114Z" fill="#fff"/><path d="m30.635 48.597-.369-1.878c.492 2.46-.943 5.068-4.28 6.946-5.74 3.206-14.86 3.116-20.419-.205-3.157-1.886-4.477-4.404-3.993-6.815l-.378 1.87c-.5 2.46.861 5.06 4.1 6.995 5.74 3.411 15.089 3.51 20.952.213 3.444-1.919 4.887-4.567 4.387-7.126Z" fill="#171552"/><path d="M30.35 47.665c.012-4.62-6.442-8.382-14.418-8.404-7.975-.023-14.45 3.704-14.463 8.323-.013 4.62 6.442 8.383 14.417 8.405 7.975.022 14.45-3.705 14.463-8.324Z" fill="url(#d)"/><path d="M24.238 33.017c0-1.238-.746-2.46-2.345-3.436a12.891 12.891 0 0 0-11.718-.115c-1.697.951-2.542 2.23-2.51 3.502l-.196-8.094V21.93c0-.738-.041-1.476-.057-2.206v-1.476c0-1.336.82-2.673 2.624-3.673 3.444-1.927 8.938-1.87 12.3.123 1.64 1.008 2.46 2.304 2.46 3.6a829.71 829.71 0 0 0-.558 14.719Z" fill="#171552"/><path d="M24.05 18.216c0-1.173-.754-2.354-2.28-3.28a12.556 12.556 0 0 0-11.397-.115c-1.64.91-2.46 2.124-2.46 3.337v-.385c0-1.214.82-2.46 2.46-3.338a12.562 12.562 0 0 1 11.39.115c1.525.918 2.287 2.091 2.28 3.28l.008.386Z" fill="url(#e)"/><path d="M29.2 44.956c-.386-.82-.747-1.541-1.23-2.698-.607-1.451-.976-2.583-.985-2.59-.311-.968-.582-1.797-.762-2.535a56.71 56.71 0 0 1-.558-2.46 33.26 33.26 0 0 1-.238-1.303 48.749 48.749 0 0 1-.549-6.479c-.05-2.263 0-4.69.189-8.954-.058 1.32-.976 2.632-2.747 3.624-3.592 2.017-9.34 1.96-12.834-.13-1.64-.993-2.517-2.264-2.566-3.552.147 3.97.205 6.438.14 8.922a47.249 47.249 0 0 1-.583 6.437 22.5 22.5 0 0 1-.23 1.296 78.62 78.62 0 0 1-.565 2.419c-.18.722-.517 1.747-.771 2.526 0 0-.377 1.14-1.034 2.681-.54 1.288-1.066 2.337-1.238 2.69-1.328 2.665-.213 5.658 3.37 7.798 5.314 3.182 14.056 3.28 19.525.197 3.772-2.083 4.978-5.15 3.666-7.889Z" fill="url(#f)"/><path d="M22.311 21.594c-3.591 2.017-9.34 1.96-12.833-.132-3.493-2.09-3.42-5.412.18-7.429 3.6-2.017 9.34-1.96 12.842.123 3.502 2.083 3.42 5.42-.189 7.438Zm-.705-.427c3.19-1.787 3.28-4.74.156-6.56a12.561 12.561 0 0 0-11.39-.115c-3.198 1.796-3.28 4.748-.164 6.601a12.522 12.522 0 0 0 11.398.115v-.04Z" fill="#fff"/><path d="M60.262 33.886v9.758l12.382 7.175v-9.758l-12.382-7.175Z" fill="#3B3B3F"/><path d="M72.644 41.061v9.758L80 46.572v-9.759l-7.356 4.248Z" fill="url(#g)"/><path d="m60.262 33.886 12.382 7.175L80 36.814l-12.382-7.176-7.356 4.248Z" fill="#fff"/><path d="M71.406 5.825a2.616 2.616 0 0 0 2.354 0 .82.82 0 0 0 .492-.689v31.71a.82.82 0 0 1-.492.689 2.59 2.59 0 0 1-2.354 0 .82.82 0 0 1-.484-.672V5.144a.82.82 0 0 0 .484.681Z" fill="#171552"/><path d="M71.414 4.456a.722.722 0 0 0 0 1.37 2.616 2.616 0 0 0 2.354 0 .722.722 0 0 0 0-1.37 2.64 2.64 0 0 0-2.354 0Z" fill="#F1F1F1"/><path d="M71.652 4.595a.574.574 0 0 0 0 1.09 2.067 2.067 0 0 0 1.886 0 .574.574 0 0 0 0-1.09 2.05 2.05 0 0 0-1.886 0Z" fill="url(#h)"/><path d="M70.922 9.605a.82.82 0 0 0 .484.681 2.592 2.592 0 0 0 2.354 0 .82.82 0 0 0 .492-.689V8.384a.82.82 0 0 1-.492.68 2.591 2.591 0 0 1-2.354 0 .82.82 0 0 1-.484-.672v1.213Zm0 3.28a.82.82 0 0 0 .484.673 2.59 2.59 0 0 0 2.354 0 .82.82 0 0 0 .492-.68v-1.223a.82.82 0 0 1-.492.69 2.59 2.59 0 0 1-2.354 0 .82.82 0 0 1-.484-.673v1.213Zm0 3.28a.82.82 0 0 0 .484.673 2.59 2.59 0 0 0 2.354 0 .82.82 0 0 0 .492-.689v-1.28a.82.82 0 0 1-.492.681 2.592 2.592 0 0 1-2.354 0 .82.82 0 0 1-.484-.672v1.288Zm0 3.24a.82.82 0 0 0 .484.672 2.592 2.592 0 0 0 2.354 0 .82.82 0 0 0 .492-.68v-1.214a.82.82 0 0 1-.492.68 2.59 2.59 0 0 1-2.354 0 .82.82 0 0 1-.484-.672v1.214Zm0 3.28a.82.82 0 0 0 .484.672 2.59 2.59 0 0 0 2.354 0 .82.82 0 0 0 .492-.68v-1.329a.82.82 0 0 1-.492.689 2.59 2.59 0 0 1-2.354 0 .82.82 0 0 1-.484-.68v1.328Zm0 3.239a.82.82 0 0 0 .484.68 2.592 2.592 0 0 0 2.354 0 .82.82 0 0 0 .492-.688v-1.288a.82.82 0 0 1-.492.68 2.59 2.59 0 0 1-2.354 0 .82.82 0 0 1-.484-.672v1.288Zm0 3.28a.82.82 0 0 0 .484.672 2.59 2.59 0 0 0 2.354 0 .82.82 0 0 0 .492-.68v-1.214a.82.82 0 0 1-.492.68 2.59 2.59 0 0 1-2.354 0 .82.82 0 0 1-.484-.672v1.214Zm0 3.28a.82.82 0 0 0 .484.672 2.59 2.59 0 0 0 2.354 0 .82.82 0 0 0 .492-.68v-1.222a.82.82 0 0 1-.492.689 2.592 2.592 0 0 1-2.354 0 .82.82 0 0 1-.484-.681v1.222Zm0 3.239a.82.82 0 0 0 .484.68 2.592 2.592 0 0 0 2.354 0 .821.821 0 0 0 .492-.688V34.5a.82.82 0 0 1-.492.68 2.59 2.59 0 0 1-2.354 0 .82.82 0 0 1-.484-.672v1.214Z" fill="url(#i)"/><path d="M65.83 2.602a2.591 2.591 0 0 0 2.353 0 .82.82 0 0 0 .492-.688v31.734a.821.821 0 0 1-.492.68 2.592 2.592 0 0 1-2.354 0 .82.82 0 0 1-.483-.672V1.93a.82.82 0 0 0 .483.672Z" fill="#171552"/><path d="M65.837 1.241a.722.722 0 0 0 0 1.361 2.591 2.591 0 0 0 2.354 0 .722.722 0 0 0 0-1.36 2.592 2.592 0 0 0-2.354 0Z" fill="#F1F1F1"/><path d="M66.076 1.372c-.525.304-.525.82 0 1.091a2.067 2.067 0 0 0 1.886 0 .574.574 0 0 0 0-1.09 2.1 2.1 0 0 0-1.886 0Z" fill="url(#j)"/><path d="M65.346 6.39a.82.82 0 0 0 .484.673 2.591 2.591 0 0 0 2.353 0 .82.82 0 0 0 .492-.689V5.161a.82.82 0 0 1-.492.688 2.64 2.64 0 0 1-2.353 0 .82.82 0 0 1-.484-.68V6.39Zm0 3.24a.82.82 0 0 0 .484.68 2.59 2.59 0 0 0 2.353 0 .82.82 0 0 0 .492-.688V8.408a.82.82 0 0 1-.492.68 2.59 2.59 0 0 1-2.353 0 .82.82 0 0 1-.484-.672V9.63Zm0 3.28a.82.82 0 0 0 .484.672 2.592 2.592 0 0 0 2.353 0 .82.82 0 0 0 .492-.68V11.68a.821.821 0 0 1-.492.689 2.592 2.592 0 0 1-2.353 0 .82.82 0 0 1-.484-.681v1.222Zm0 3.28a.82.82 0 0 0 .484.672 2.592 2.592 0 0 0 2.353 0 .82.82 0 0 0 .492-.689V14.96a.82.82 0 0 1-.492.68 2.59 2.59 0 0 1-2.353 0 .82.82 0 0 1-.484-.672v1.222Zm0 3.239a.82.82 0 0 0 .484.672 2.59 2.59 0 0 0 2.353 0 .82.82 0 0 0 .492-.68v-1.214a.82.82 0 0 1-.492.68 2.592 2.592 0 0 1-2.353 0 .82.82 0 0 1-.484-.672v1.214Zm0 3.28a.82.82 0 0 0 .484.672 2.592 2.592 0 0 0 2.353 0 .82.82 0 0 0 .492-.68v-1.353a.82.82 0 0 1-.492.689 2.592 2.592 0 0 1-2.353 0 .82.82 0 0 1-.484-.681v1.353Zm0 3.239a.82.82 0 0 0 .484.68 2.59 2.59 0 0 0 2.353 0 .82.82 0 0 0 .492-.688v-1.312a.82.82 0 0 1-.492.68 2.59 2.59 0 0 1-2.353 0 .82.82 0 0 1-.484-.672v1.312Zm0 3.28a.82.82 0 0 0 .484.672 2.592 2.592 0 0 0 2.353 0 .82.82 0 0 0 .492-.68v-1.312a.82.82 0 0 1-.492.68 2.592 2.592 0 0 1-2.353 0 .82.82 0 0 1-.484-.672v1.312Zm0 3.28a.82.82 0 0 0 .484.673 2.592 2.592 0 0 0 2.353 0 .82.82 0 0 0 .492-.681v-1.222a.82.82 0 0 1-.492.689 2.59 2.59 0 0 1-2.353 0 .82.82 0 0 1-.484-.68v1.221Z" fill="url(#k)"/><path d="M27.756 44.316v18.098l13.235 7.692V52.008l-13.235-7.692Z" fill="#171552"/><path d="M40.991 52.008v18.098l32.243-18.622v-18.09L40.991 52.008Z" fill="url(#l)"/><path d="m27.756 44.316 13.235 7.692 32.243-18.614L60 25.702 27.756 44.316Z" fill="#fff"/><path d="M71.98 33.394 60 26.432 29.02 44.325l11.972 6.953L71.98 33.394Z" fill="url(#m)"/><path d="m44.829 51.524-.008 16.343 1.632.935.008-16.343-1.632-.935Z" fill="#171552"/><path d="m46.46 52.46-.007 16.342 2.583-1.492.008-16.343-2.583 1.492Z" fill="url(#n)"/><path d="m44.83 51.524 1.63.935 2.584-1.492-1.632-.935-2.583 1.492Z" fill="#fff"/><path d="m40.975 53.747-.008 16.343 1.632.935V54.682l-1.624-.935Z" fill="#171552"/><path d="M42.599 54.682v16.343l2.575-1.493.008-16.334-2.583 1.484Z" fill="url(#o)"/><path d="m40.975 53.747 1.624.935 2.583-1.485-1.624-.943-2.583 1.493Z" fill="#fff"/><path d="m70.652 36.617-.008 16.343 1.623.934.008-16.343-1.623-.934Z" fill="#171552"/><path d="m72.275 37.551-.008 16.343 2.583-1.492.008-16.343-2.583 1.492Z" fill="url(#p)"/><path d="m70.652 36.617 1.623.934 2.584-1.492-1.624-.935-2.583 1.493Z" fill="#fff"/><path d="m66.79 38.847-.009 16.335 1.632.934.008-16.334-1.632-.935Z" fill="#171552"/><path d="m68.421 39.782-.008 16.335 2.583-1.484.008-16.343-2.583 1.492Z" fill="url(#q)"/><path d="m66.79 38.847 1.631.935 2.583-1.492-1.631-.935-2.583 1.492Z" fill="#fff"/><path d="m50.225 54.854.017 9.914 3.362 2.025.032-9.947-3.41-1.992ZM64.56 46.58l.016 9.914 3.353 2.025.041-9.947-3.41-1.992Z" fill="#0047FF"/><path d="m50.225 54.854 3.411 1.993 14.35-8.283-3.41-1.992-14.35 8.282Z" fill="#fff"/><path d="M60 26.432 29.018 44.325l.73.418 30.25-17.466 11.25 6.535.73-.418L60 26.432Z" fill="#3C64F3"/><path d="M58.499 29.573 56.67 30.63l1.353.779h1.116l-.64-1.837Z" fill="#0047FF"/><path d="m57.507 29.786.008.68 1.624.944v-.681l-1.632-.943Z" fill="#C2C4C4"/><path d="M59.139 30.729v.68l1.631-.942v-.681l-1.631.943Z" fill="#D7D9D9"/><path d="m57.507 29.786 1.632.943 1.631-.943-1.623-.943-1.64.943Z" fill="#F4F4F4"/><path d="M59.13 30.31c.535 0 .968-.25.968-.557 0-.308-.433-.558-.968-.558-.534 0-.967.25-.967.558 0 .308.433.558.967.558Z" fill="#3C64F3"/><path d="M59.13 29.983c.218 0 .394-.103.394-.23s-.176-.23-.394-.23c-.217 0-.393.104-.393.23 0 .127.176.23.393.23Z" fill="#7694FF"/><path d="m54.57 31.844-1.82 1.05 1.345.779h1.116l-.64-1.829Z" fill="#0047FF"/><path d="M53.587 32.057v.673l1.623.943V33l-1.623-.943Z" fill="#C2C4C4"/><path d="M55.21 33v.673l1.641-.943v-.673l-1.64.943Z" fill="#D7D9D9"/><path d="M53.587 32.057 55.21 33l1.64-.943-1.631-.95-1.632.95Z" fill="#F4F4F4"/><path d="M55.203 32.582c.534 0 .967-.25.967-.558 0-.308-.433-.557-.968-.557-.534 0-.967.25-.967.557 0 .308.433.558.968.558Z" fill="#3C64F3"/><path d="M55.202 32.254c.218 0 .394-.103.394-.23 0-.126-.176-.23-.394-.23-.217 0-.393.104-.393.23 0 .127.176.23.393.23Z" fill="#7694FF"/><path d="m50.643 34.107-1.82 1.05 1.353.787h1.107l-.64-1.837Z" fill="#0047FF"/><path d="M49.66 34.32v.673l1.623.951v-.68l-1.624-.943Z" fill="#C2C4C4"/><path d="M51.283 35.264v.68l1.64-.943v-.68l-1.64.943Z" fill="#D7D9D9"/><path d="m49.66 34.32 1.623.944 1.64-.943-1.632-.943-1.632.943Z" fill="#F4F4F4"/><path d="M51.275 34.845c.534 0 .967-.25.967-.557 0-.308-.433-.558-.967-.558-.535 0-.968.25-.968.558 0 .308.433.557.968.557Z" fill="#3C64F3"/><path d="M51.012 34.132c-.156.09-.156.23 0 .32a.608.608 0 0 0 .557 0c.156-.09.156-.23 0-.32a.607.607 0 0 0-.557 0Z" fill="#7694FF"/><path d="m46.724 36.37-1.829 1.058 1.353.78h1.115l-.64-1.837Z" fill="#0047FF"/><path d="M45.731 36.584v.68l1.632.944-.008-.673-1.624-.951Zm1.624.951.008.673 1.632-.943v-.681l-1.64.951Z" fill="#0047FF"/><path d="m45.731 36.584 1.624.951 1.64-.951-1.624-.943-1.64.943Z" fill="#7694FF"/><path d="M47.355 37.117c.534 0 .967-.25.967-.558 0-.308-.433-.557-.967-.557-.535 0-.968.25-.968.557 0 .308.433.558.968.558Z" fill="#3C64F3"/><path d="M47.355 36.789c.217 0 .394-.103.394-.23s-.177-.23-.394-.23c-.217 0-.394.103-.394.23s.177.23.394.23Z" fill="#7694FF"/><path d="m42.795 38.642-1.828 1.05 1.353.787h1.115l-.64-1.837Z" fill="#0047FF"/><path d="M41.804 38.855v.673l1.631.95v-.68l-1.631-.943Zm1.631.943v.68l1.632-.95v-.673l-1.632.943Z" fill="#0047FF"/><path d="m41.804 38.855 1.631.943 1.632-.943-1.623-.943-1.64.943Z" fill="#7694FF"/><path d="M42.738 38.429c-.385.221-.385.574 0 .82a1.55 1.55 0 0 0 1.37 0 .418.418 0 0 0 0-.82 1.493 1.493 0 0 0-1.37 0Z" fill="#3C64F3"/><path d="M43.14 38.667c-.156.09-.156.23 0 .32a.624.624 0 0 0 .566 0c.155-.09.155-.23 0-.32a.623.623 0 0 0-.566 0Z" fill="#7694FF"/><path d="m38.868 40.905-1.829 1.058 1.361.78h1.107l-.64-1.838Z" fill="#0047FF"/><path d="M37.883 41.119v.68l1.624.943v-.68l-1.624-.943Z" fill="#0047FF"/><path d="M39.507 42.062v.68l1.64-.943-.008-.68-1.632.943Z" fill="#0047FF"/><path d="m37.883 41.119 1.624.943 1.632-.943-1.624-.944-1.632.944Z" fill="#7694FF"/><path d="M39.5 41.644c.534 0 .967-.25.967-.558 0-.308-.433-.558-.968-.558-.534 0-.967.25-.967.558 0 .308.433.558.967.558Z" fill="#3C64F3"/><path d="M39.212 40.93a.18.18 0 0 0 0 .328.68.68 0 0 0 .566 0 .172.172 0 0 0 0-.328.624.624 0 0 0-.566 0Z" fill="#7694FF"/><path d="m34.94 43.177-1.82 1.05 1.353.778h1.107l-.64-1.828Z" fill="#0047FF"/><path d="M33.956 43.39v.672l1.623.943v-.672l-1.623-.943Zm1.624.943v.672l1.64-.943v-.672l-1.64.943Z" fill="#0047FF"/><path d="m33.956 43.39 1.623.943 1.64-.943-1.632-.951-1.631.95Z" fill="#7694FF"/><path d="M35.572 43.915c.534 0 .967-.25.967-.558 0-.308-.433-.557-.967-.557-.535 0-.968.25-.968.557 0 .308.433.558.968.558Z" fill="#3C64F3"/><path d="M35.571 43.587c.218 0 .394-.103.394-.23s-.176-.23-.394-.23c-.217 0-.393.103-.393.23s.176.23.393.23Z" fill="#7694FF"/><path d="m61.246 31.155-1.829 1.058 1.353.78h1.116l-.64-1.838Z" fill="#0047FF"/><path d="M60.254 31.369v.68l1.632.943-.009-.672-1.623-.951Z" fill="#C2C4C4"/><path d="m61.877 32.32.009.672 1.631-.943v-.68l-1.64.95Z" fill="#D7D9D9"/><path d="m60.254 31.369 1.623.95 1.64-.95-1.623-.944-1.64.944Z" fill="#F4F4F4"/><path d="M61.18 30.95a.419.419 0 0 0 0 .82 1.508 1.508 0 0 0 1.378 0 .418.418 0 0 0 0-.82 1.51 1.51 0 0 0-1.377 0Z" fill="#3C64F3"/><path d="M61.59 31.188a.172.172 0 0 0 0 .328.607.607 0 0 0 .558 0 .172.172 0 0 0 0-.328.607.607 0 0 0-.558 0Z" fill="#7694FF"/><path d="m57.318 33.427-1.829 1.05 1.353.787h1.116l-.64-1.837Z" fill="#0047FF"/><path d="M56.326 33.64v.672l1.632.952v-.68l-1.632-.944Z" fill="#C2C4C4"/><path d="M57.958 34.583v.68l1.631-.95v-.673l-1.631.943Z" fill="#D7D9D9"/><path d="m56.326 33.64 1.632.943 1.631-.943-1.623-.943-1.64.943Z" fill="#F4F4F4"/><path d="M57.95 34.165c.534 0 .967-.25.967-.558 0-.308-.433-.557-.967-.557-.535 0-.968.25-.968.557 0 .308.433.558.968.558Z" fill="#3C64F3"/><path d="M57.95 33.837c.217 0 .393-.103.393-.23s-.176-.23-.394-.23c-.217 0-.393.103-.393.23s.176.23.393.23Z" fill="#7694FF"/><path d="m53.39 35.69-1.828 1.058 1.352.779h1.116l-.64-1.837Z" fill="#0047FF"/><path d="M52.406 35.903v.68l1.623.944v-.68l-1.623-.944Z" fill="#C2C4C4"/><path d="M54.03 36.846v.68l1.64-.942-.008-.68-1.632.942Z" fill="#D7D9D9"/><path d="m52.406 35.903 1.623.943 1.632-.943-1.623-.943-1.632.943Z" fill="#F4F4F4"/><path d="M53.333 35.477a.419.419 0 0 0 0 .82 1.492 1.492 0 0 0 1.37 0c.385-.221.385-.574 0-.82a1.55 1.55 0 0 0-1.37 0Z" fill="#3C64F3"/><path d="M54.022 36.1c.217 0 .394-.103.394-.23 0-.126-.177-.23-.394-.23-.217 0-.394.104-.394.23 0 .127.177.23.394.23Z" fill="#7694FF"/><path d="m49.462 37.962-1.82 1.05 1.353.778h1.107l-.64-1.828Z" fill="#0047FF"/><path d="M48.478 38.175v.672l1.624.943v-.672l-1.623-.943Z" fill="#C2C4C4"/><path d="M50.102 39.118v.672l1.64-.943v-.672l-1.64.943Z" fill="#D7D9D9"/><path d="m48.478 38.175 1.624.943 1.64-.943-1.632-.952-1.632.952Z" fill="#F4F4F4"/><path d="M50.094 38.7c.534 0 .967-.25.967-.558 0-.308-.433-.558-.967-.558-.535 0-.968.25-.968.558 0 .308.433.557.968.557Z" fill="#3C64F3"/><path d="M50.094 38.372c.217 0 .393-.103.393-.23s-.176-.23-.393-.23c-.218 0-.394.103-.394.23s.176.23.394.23Z" fill="#7694FF"/><path d="m45.534 40.225-1.82 1.05 1.353.787h1.115l-.648-1.837Z" fill="#0047FF"/><path d="M44.55 40.438v.68l1.632.943-.008-.68-1.624-.943Z" fill="#C2C4C4"/><path d="m46.174 41.38.008.681 1.632-.943v-.68l-1.64.943Z" fill="#D7D9D9"/><path d="m44.55 40.438 1.624.943 1.64-.943-1.624-.943-1.64.943Z" fill="#F4F4F4"/><path d="M46.174 40.963c.535 0 .968-.25.968-.558 0-.308-.433-.558-.968-.558-.534 0-.968.25-.968.558 0 .308.434.558.968.558Z" fill="#3C64F3"/><path d="M46.166 40.635c.218 0 .394-.103.394-.23s-.177-.23-.394-.23c-.217 0-.393.103-.393.23s.176.23.393.23Z" fill="#7694FF"/><path d="m41.615 42.488-1.829 1.058 1.353.779h1.115l-.64-1.837Z" fill="#0047FF"/><path d="M40.623 42.71v.672l1.631.943-.008-.672-1.623-.944Z" fill="#C2C4C4"/><path d="m42.246 43.653.008.672 1.632-.943v-.672l-1.64.943Z" fill="#D7D9D9"/><path d="m40.623 42.71 1.623.943 1.64-.944-1.623-.95-1.64.95Z" fill="#F4F4F4"/><path d="M42.246 43.234c.534 0 .968-.25.968-.558 0-.308-.434-.557-.968-.557-.535 0-.968.25-.968.557 0 .308.434.558.968.558Z" fill="#3C64F3"/><path d="M42.246 42.906c.218 0 .394-.103.394-.23 0-.126-.176-.229-.394-.229-.217 0-.394.103-.394.23 0 .126.177.23.394.23Z" fill="#7694FF"/><path d="m37.687 44.76-1.829 1.049 1.353.787h1.116l-.64-1.837Z" fill="#0047FF"/><path d="m36.695 44.973.008.672 1.624.951v-.68l-1.632-.943Z" fill="#C2C4C4"/><path d="M38.327 45.916v.68l1.632-.95v-.673l-1.632.943Z" fill="#D7D9D9"/><path d="m36.695 44.973 1.632.943 1.632-.943-1.624-.944-1.64.944Z" fill="#F4F4F4"/><path d="M38.318 45.498c.535 0 .968-.25.968-.558 0-.308-.433-.558-.968-.558-.534 0-.967.25-.967.558 0 .308.433.558.967.558Z" fill="#3C64F3"/><path d="M38.031 44.784c-.155.09-.155.23 0 .32a.624.624 0 0 0 .566 0c.156-.09.156-.23 0-.32a.622.622 0 0 0-.566 0Z" fill="#7694FF"/><path d="m71.98 33.394-.73.418L60 27.277v-.845l11.98 6.962Z" fill="#3C64F3"/><path d="m50.89 47.966-.01 5.24 12.695-7.315.008-5.256-12.694 7.33Z" fill="#fff"/><path d="m61.82 45.9-.968.557h1.575v.09h-1.73l-1.034.6h1.583v.09h-1.739l-1.025.598h1.55v.09h-1.73l-1.033.59h1.574v.09h-1.73l-1.033.6h1.574v.09h-1.722l-1.025.59h1.574v.09h-1.73l-1.033.599h1.574v.09h-1.73l-1.033.59h1.574v.09h-1.73l-1.033.6h1.582v.09h-1.738l-.557.32V47.85l13.053-7.46-.123 5.51H61.82Zm-11.177 6.822h1.099v-.09h-1.1v.09Z" fill="#A09595" style="mix-blend-mode:multiply" opacity=".6"/><path opacity=".7" d="m50.89 47.966 12.693-7.331-.008 5.256-12.694 7.315.008-5.24Z" fill="#188FFC"/><path d="m50.495 47.67-.016 5.765.402-.23.008-5.215 12.694-7.33-.008 5.24.393-.263.017-5.757-13.49 7.79Z" fill="#0047FF"/><path d="m63.583 43.218-1.09.631v-2.558l-.074.04v2.56l-1.115.647V41.98l-.074.049v2.534l-1.115.656v-2.55l-.074.04v2.542l-1.116.648v-2.542h-.065v2.592l-1.115.647v-2.542l-.074.041v2.526l-1.115.648v-2.526l-.074.041v2.526l-1.115.656v-2.534l-.074.04v2.535l-1.107.648V46.12l-.074.04v2.518l-1.115.648V46.81l-.074.04v2.518l-1.09.68v-2.517l-.075.041v2.476l-.82.5v.083l.82-.5v2.574l.074-.04V50.09l1.115-.648v2.583l.074-.041V49.4l1.115-.648v2.583l.074-.041v-2.559l1.107-.647v2.575l.074-.041v-2.575l1.115-.648v2.575l.074-.041V47.35l1.115-.648v2.591l.074-.05v-2.566l1.115-.647v2.574l.066-.04v-2.576l1.115-.647v2.575h.074v-2.575l1.115-.648v2.583l.074-.041v-2.567l1.115-.656v2.575l.074-.04v-2.576l1.09-.631-.024-.123Z" fill="#0047FF"/><path d="m53.636 56.846-.033 9.947.739-.434.008-6.47 12.915-7.52-.016 6.544.697-.402.04-9.947-14.35 8.282Z" fill="#2137FF"/><path d="M16.752 64.67a3.502 3.502 0 0 1-1.73-.46L2.844 57.183a.312.312 0 0 1-.106-.419.303.303 0 0 1 .41-.114l12.177 7.027a2.863 2.863 0 0 0 2.854 0l11.3-6.519a.312.312 0 0 1 .418.107.304.304 0 0 1-.115.418l-11.3 6.56a3.502 3.502 0 0 1-1.73.426Zm5.896 1.54.008 1.223 4.436 2.574-.008-1.222-4.436-2.574Z" fill="#0047FF"/><path d="m27.084 68.785.008 1.222 4.47-2.575-.009-1.221-4.469 2.575Z" fill="#2958FF"/><path d="m22.648 66.211 4.436 2.575 4.47-2.575-4.437-2.583-4.47 2.583Z" fill="#3C64F3"/><path d="M24.772 54.87a5.035 5.035 0 0 0 4.543 0 1.64 1.64 0 0 0 .951-1.328v12.3a1.641 1.641 0 0 1-.951 1.328 5.019 5.019 0 0 1-4.535 0 1.592 1.592 0 0 1-.935-1.303v-12.3a1.64 1.64 0 0 0 .927 1.303Z" fill="url(#r)"/><path d="M24.813 52.238c-1.255.73-1.263 1.902 0 2.632a5.035 5.035 0 0 0 4.543 0c1.254-.73 1.262-1.902 0-2.632a4.986 4.986 0 0 0-4.543 0Z" fill="#7694FF"/><path d="M26.076 52a2.173 2.173 0 0 1 2.009 0 .607.607 0 0 1 0 1.156 2.206 2.206 0 0 1-2.001 0A.607.607 0 0 1 26.076 52Z" fill="#3C64F3"/><path d="m27.978 69.286.008 1.222 4.436 2.575-.008-1.214-4.436-2.583Z" fill="#0047FF"/><path d="m32.414 71.869.008 1.214 4.461-2.575v-1.222l-4.469 2.583Z" fill="#2958FF"/><path d="m27.978 69.286 4.436 2.583 4.47-2.583-4.437-2.583-4.469 2.583Z" fill="#3C64F3"/><path d="M30.126 57.945a5.01 5.01 0 0 0 4.543 0 1.64 1.64 0 0 0 .951-1.328v12.3a1.64 1.64 0 0 1-.95 1.329 5.01 5.01 0 0 1-4.544 0 1.64 1.64 0 0 1-.926-1.304l-.041-12.3a1.64 1.64 0 0 0 .967 1.303Z" fill="url(#s)"/><path d="M30.143 55.313c-1.255.73-1.263 1.902 0 2.632a5.01 5.01 0 0 0 4.543 0c1.254-.73 1.263-1.902 0-2.632a5.01 5.01 0 0 0-4.543 0Z" fill="#7694FF"/><path d="M31.406 55.075a2.222 2.222 0 0 1 2.009 0 .615.615 0 0 1 0 1.156 2.222 2.222 0 0 1-2.01 0 .615.615 0 0 1 0-1.156Z" fill="#3C64F3"/><path d="M19.966 70.967c-.483 0-.958-.127-1.377-.369L.72 60.282a1.46 1.46 0 0 1 0-2.517l4.92-2.837a.311.311 0 0 1 .418.106.304.304 0 0 1-.115.419l-4.92 2.837a.82.82 0 0 0 0 1.468l17.868 10.307a2.156 2.156 0 0 0 2.157 0l3.624-2.09a.306.306 0 0 1 .34.023.305.305 0 0 1 .078.09.297.297 0 0 1-.114.41l-3.625 2.1c-.421.243-.9.37-1.386.37Z" fill="#0047FF"/><path d="M25.288 74.034a2.75 2.75 0 0 1-1.377-.369L6.043 63.349a.288.288 0 0 1-.107-.41.303.303 0 0 1 .41-.115L24.214 73.14a2.156 2.156 0 0 0 2.157 0l3.624-2.09a.311.311 0 0 1 .418.106.306.306 0 0 1-.023.34.302.302 0 0 1-.091.078l-3.625 2.091c-.421.243-.9.37-1.386.37Z" fill="#0047FF"/><path d="M13.291 26.44a1.83 1.83 0 0 0-1.812 2.1 2.411 2.411 0 0 0 2.001 2.378 1.818 1.818 0 0 0 1.804-2.1 2.403 2.403 0 0 0-1.993-2.378Zm22.043-12.882a1.829 1.829 0 0 0-1.812 2.1 2.394 2.394 0 0 0 1.992 2.377 1.828 1.828 0 0 0 1.813-2.1 2.411 2.411 0 0 0-1.993-2.377Z" fill="#2958FF"/><defs><linearGradient id="a" x1="46.979" y1="34.11" x2="20.481" y2="48.645" gradientUnits="userSpaceOnUse"><stop stop-color="#E4E7FF"/><stop offset="1" stop-color="#2137FF"/></linearGradient><linearGradient id="b" x1="42.956" y1="2.795" x2="33.401" y2="12.425" gradientUnits="userSpaceOnUse"><stop stop-color="#E4E7FF"/><stop offset="1" stop-color="#2137FF"/></linearGradient><linearGradient id="c" x1="37.819" y1="13.517" x2="34.099" y2="41.861" gradientUnits="userSpaceOnUse"><stop stop-color="#2137FF"/><stop offset="1" stop-color="#0047FF"/></linearGradient><linearGradient id="d" x1="14.285" y1="42.261" x2="17.786" y2="61.582" gradientUnits="userSpaceOnUse"><stop stop-color="#E4E7FF"/><stop offset="1" stop-color="#2137FF"/></linearGradient><linearGradient id="e" x1="21.152" y1="15.382" x2="11.598" y2="25.013" gradientUnits="userSpaceOnUse"><stop stop-color="#E4E7FF"/><stop offset="1" stop-color="#2137FF"/></linearGradient><linearGradient id="f" x1="15.999" y1="26.096" x2="12.287" y2="54.409" gradientUnits="userSpaceOnUse"><stop stop-color="#2137FF"/><stop offset="1" stop-color="#0047FF"/></linearGradient><linearGradient id="g" x1="76.347" y1="39.905" x2="74.407" y2="50.384" gradientUnits="userSpaceOnUse"><stop stop-color="#2137FF"/><stop offset="1" stop-color="#0047FF"/></linearGradient><linearGradient id="h" x1="72.604" y1="4.707" x2="72.537" y2="5.901" gradientUnits="userSpaceOnUse"><stop stop-color="#2137FF"/><stop offset="1" stop-color="#0047FF"/></linearGradient><linearGradient id="i" x1="73.654" y1="20.928" x2="69.686" y2="21.077" gradientUnits="userSpaceOnUse"><stop stop-color="#E4E7FF"/><stop offset="1" stop-color="#2137FF"/></linearGradient><linearGradient id="j" x1="67.028" y1="1.489" x2="66.962" y2="2.679" gradientUnits="userSpaceOnUse"><stop stop-color="#2137FF"/><stop offset="1" stop-color="#0047FF"/></linearGradient><linearGradient id="k" x1="68.078" y1="17.706" x2="64.109" y2="17.854" gradientUnits="userSpaceOnUse"><stop stop-color="#E4E7FF"/><stop offset="1" stop-color="#2137FF"/></linearGradient><linearGradient id="l" x1="67.443" y1="49.666" x2="31.741" y2="59.632" gradientUnits="userSpaceOnUse"><stop stop-color="#E4E7FF"/><stop offset="1" stop-color="#2137FF"/></linearGradient><linearGradient id="m" x1="79.112" y1="29.111" x2="24.869" y2="59.063" gradientUnits="userSpaceOnUse"><stop stop-color="#E4E7FF"/><stop offset="1" stop-color="#2137FF"/></linearGradient><linearGradient id="n" x1="47.757" y1="54.904" x2="41.377" y2="64.435" gradientUnits="userSpaceOnUse"><stop stop-color="#2137FF"/><stop offset="1" stop-color="#0047FF"/></linearGradient><linearGradient id="o" x1="43.899" y1="57.133" x2="37.515" y2="66.643" gradientUnits="userSpaceOnUse"><stop stop-color="#2137FF"/><stop offset="1" stop-color="#0047FF"/></linearGradient><linearGradient id="p" x1="73.572" y1="39.996" x2="67.192" y2="49.527" gradientUnits="userSpaceOnUse"><stop stop-color="#2137FF"/><stop offset="1" stop-color="#0047FF"/></linearGradient><linearGradient id="q" x1="69.718" y1="42.225" x2="63.342" y2="51.754" gradientUnits="userSpaceOnUse"><stop stop-color="#2137FF"/><stop offset="1" stop-color="#0047FF"/></linearGradient><linearGradient id="r" x1="27.056" y1="53.542" x2="27.056" y2="67.712" gradientUnits="userSpaceOnUse"><stop stop-color="#2137FF"/><stop offset="1" stop-color="#0047FF"/></linearGradient><linearGradient id="s" x1="32.39" y1="56.617" x2="32.39" y2="70.79" gradientUnits="userSpaceOnUse"><stop stop-color="#2137FF"/><stop offset="1" stop-color="#0047FF"/></linearGradient></defs></svg>