<svg width="80" height="75" viewBox="0 0 80 75" fill="none" xmlns="http://www.w3.org/2000/svg">
<path d="M52.4392 36.0099L52.0702 34.1321C52.5622 36.5921 51.1272 39.1998 47.7898 41.0776C42.0496 44.2838 32.9229 44.1936 27.3714 40.8726C24.2143 38.9865 22.8941 36.4691 23.3779 34.05C23.2549 34.6815 23.1237 35.3047 23.0007 35.9279C22.5005 38.3879 23.8617 40.9874 27.1008 42.9226C32.8409 46.3339 42.1891 46.4241 48.0522 43.1358C51.4716 41.217 52.9394 38.5683 52.4392 36.0099Z" fill="#171552"/>
<path d="M48.0767 29.2446C42.517 25.9236 33.3738 25.8334 27.6583 29.0396C21.9428 32.2459 21.8116 37.5432 27.3713 40.8724C32.931 44.2017 42.066 44.2837 47.7897 41.0774C53.5134 37.8712 53.6364 32.5657 48.0767 29.2446Z" fill="url(#paint0_linear_216_284)"/>
<path d="M46.0344 20.4212C46.0754 19.1912 45.2964 17.9612 43.6974 16.9936C41.8922 16.0506 39.8897 15.5479 37.8532 15.5265C35.8166 15.5051 33.8039 15.9657 31.9794 16.8706C30.2738 17.83 29.4373 19.101 29.4701 20.3802L29.2733 12.2867V11.5486C29.2733 11.1058 29.2733 10.5154 29.2733 10.0726V9.3428L29.2241 7.12877C29.2241 6.69416 29.2241 6.10374 29.2241 5.66094C29.2241 4.32431 30.0441 2.9877 31.8482 1.98728C35.2922 0.0602461 40.7863 0.117642 44.1484 2.11028C45.7884 3.1189 46.6085 4.41451 46.6085 5.71013L46.0344 20.4212Z" fill="#171552"/>
<path d="M45.8542 5.62822C45.8542 4.4556 45.0998 3.27478 43.5746 2.34816C41.8185 1.43104 39.8703 0.942547 37.8892 0.922594C35.9082 0.902641 33.9506 1.35181 32.1764 2.23337C30.5363 3.14359 29.7163 4.34901 29.7163 5.56263V5.18543C29.7163 3.97181 30.5363 2.72538 32.1764 1.84796C33.9511 0.968323 35.9085 0.520239 37.8892 0.540189C39.8699 0.560138 41.8179 1.04754 43.5746 1.96275C45.0998 2.88117 45.8624 4.05379 45.8542 5.24282V5.62822Z" fill="url(#paint1_linear_216_284)"/>
<path d="M51.0122 32.3689C50.635 31.5489 50.2742 30.8273 49.7904 29.671C49.1836 28.2196 48.8063 27.088 48.8063 27.0798C48.4947 26.1122 48.2241 25.284 48.0355 24.5459C47.8469 23.8079 47.6337 22.8485 47.4779 22.0859C47.3959 21.7005 47.3139 21.1757 47.2483 20.7821C46.9213 18.6373 46.7377 16.4731 46.6989 14.304C46.6497 12.0407 46.6989 9.61345 46.8875 5.34937C46.8301 6.6696 45.9117 7.98163 44.1404 8.97385C40.5488 10.9911 34.8005 10.9337 31.299 8.84265C29.659 7.85043 28.7815 6.57942 28.7323 5.29199C28.8799 9.26087 28.9456 11.7291 28.8718 14.2137C28.8308 16.3702 28.639 18.5212 28.2977 20.6509C28.2403 21.0445 28.1501 21.5611 28.0681 21.9465C27.9123 22.6763 27.6827 23.6439 27.5023 24.4065C27.3219 25.1692 26.9857 26.1532 26.7315 26.9322C26.7315 26.9322 26.3461 28.0638 25.6983 29.6136C25.1571 30.9011 24.6323 31.9507 24.4601 32.3033C23.1316 34.9683 24.2469 37.9614 27.8303 40.1016C33.144 43.2833 41.8854 43.3817 47.3549 40.2984C51.1106 38.1746 52.3406 35.1077 51.0122 32.3689Z" fill="url(#paint2_linear_216_284)"/>
<path d="M44.1241 9.04771C40.5324 11.0649 34.7841 11.0075 31.2826 8.9165C27.7811 6.82546 27.8714 3.5044 31.4712 1.47896C35.0711 -0.54648 40.8112 -0.480875 44.3045 1.61016C47.7977 3.7012 47.7321 6.98947 44.1241 9.04771ZM43.4106 8.62131C46.6087 6.83368 46.6907 3.88161 43.5746 2.02017C41.818 1.10496 39.87 0.617556 37.8893 0.597607C35.9086 0.577658 33.9512 1.02574 32.1764 1.90538C28.9866 3.70122 28.8964 6.65326 32.0206 8.5065C33.775 9.42419 35.722 9.91306 37.7018 9.93301C39.6817 9.95297 41.6381 9.50345 43.4106 8.62131Z" fill="white"/>
<path d="M30.635 48.5971L30.266 46.7193C30.758 49.1794 29.323 51.787 25.9856 53.6648C20.2454 56.8711 11.1269 56.7809 5.56715 53.4598C2.41009 51.5738 1.08987 49.0564 1.57368 46.6455L1.19648 48.5151C0.696267 50.9752 2.05749 53.5746 5.29655 55.5099C11.0367 58.9211 20.3848 59.0195 26.2479 55.7231C29.692 53.8042 31.1352 51.1556 30.635 48.5971Z" fill="#171552"/>
<path d="M30.3495 47.665C30.3624 43.0457 23.9077 39.2828 15.9325 39.2606C7.95723 39.2383 1.48157 42.965 1.46867 47.5844C1.45577 52.2038 7.91052 55.9665 15.8857 55.9888C23.861 56.0111 30.3366 52.2844 30.3495 47.665Z" fill="url(#paint3_linear_216_284)"/>
<path d="M24.2384 33.0168C24.2384 31.7786 23.4921 30.5568 21.8931 29.581C20.0879 28.6374 18.0847 28.135 16.0479 28.115C14.011 28.0951 11.9984 28.5581 10.1751 29.4662C8.47766 30.4174 7.63305 31.6966 7.66585 32.9676L7.46903 24.8741V24.1361V22.66V21.9302C7.46903 21.1922 7.42802 20.4542 7.41162 19.7244C7.41162 19.2816 7.41162 18.6912 7.41162 18.2484C7.41162 16.9117 8.23165 15.5751 10.0357 14.5747C13.4797 12.6476 18.9738 12.7051 22.3359 14.6977C23.9759 15.7063 24.796 17.0019 24.796 18.2975C24.5664 23.2012 24.3805 28.1077 24.2384 33.0168Z" fill="#171552"/>
<path d="M24.0505 18.2156C24.0505 17.0429 23.2961 15.8621 21.7709 14.9355C20.0148 14.0184 18.0666 13.5299 16.0855 13.5099C14.1045 13.49 12.1468 13.9391 10.3726 14.8207C8.73261 15.7309 7.9126 16.9445 7.9126 18.1581V17.7728C7.9126 16.5591 8.73261 15.3127 10.3726 14.4353C12.146 13.5557 14.102 13.1076 16.0814 13.1276C18.0608 13.1475 20.0074 13.6349 21.7626 14.5501C23.2879 15.4685 24.0505 16.6411 24.0423 17.8301L24.0505 18.2156Z" fill="url(#paint4_linear_216_284)"/>
<path d="M29.1996 44.9563C28.8142 44.1363 28.4533 43.4147 27.9695 42.2585C27.3627 40.807 26.9937 39.6754 26.9855 39.6672C26.6739 38.6996 26.4033 37.8714 26.2229 37.1334C26.0425 36.3953 25.8129 35.4359 25.6653 34.6733C25.5833 34.2879 25.4931 33.7631 25.4275 33.3695C25.1004 31.2248 24.9169 29.0606 24.8781 26.8914C24.8289 24.6281 24.8781 22.2009 25.0667 17.9368C25.0093 19.257 24.0909 20.5691 22.3196 21.5613C18.728 23.5785 12.9797 23.5211 9.48639 21.4301C7.84635 20.4379 6.96896 19.1668 6.91976 17.8794C7.06736 21.8483 7.12475 24.3165 7.05915 26.8012C7.01224 28.9576 6.81772 31.1084 6.47694 33.2383C6.41954 33.6319 6.32934 34.1485 6.24734 34.5339C6.09154 35.2637 5.86193 36.2313 5.68153 36.953C5.50112 37.6746 5.16492 38.6996 4.91071 39.4786C4.91071 39.4786 4.5335 40.6184 3.87748 42.1601C3.33627 43.4475 2.81148 44.4971 2.63928 44.8497C1.31085 47.5148 2.42606 50.5078 6.00953 52.6481C11.3232 55.8297 20.0646 55.9281 25.5341 52.8449C29.3062 50.762 30.5116 47.6952 29.1996 44.9563Z" fill="url(#paint5_linear_216_284)"/>
<path d="M22.3115 21.5937C18.7199 23.6109 12.9716 23.5536 9.47829 21.4625C5.98503 19.3715 6.05883 16.0504 9.6587 14.0332C13.2586 12.0159 18.9987 12.0733 22.5001 14.1562C26.0016 16.239 25.9196 19.5765 22.3115 21.5937ZM21.6063 21.1673C24.7962 19.3797 24.8864 16.4276 21.7621 14.6072C20.0069 13.692 18.0602 13.2046 16.0809 13.1847C14.1015 13.1647 12.1454 13.6128 10.3721 14.4924C7.17405 16.2882 7.09203 19.2403 10.2081 21.0935C11.9634 22.0132 13.9119 22.5031 15.8934 22.5231C17.8749 22.5431 19.8329 22.0924 21.6063 21.2083V21.1673Z" fill="white"/>
<path d="M60.2622 33.886V43.6442L72.6444 50.8193V41.0611L60.2622 33.886Z" fill="#3B3B3F"/>
<path d="M72.6445 41.0612V50.8193L80.0001 46.5717V36.8135L72.6445 41.0612Z" fill="url(#paint6_linear_216_284)"/>
<path d="M60.2622 33.8861L72.6444 41.0612L80 36.8136L67.6177 29.6384L60.2622 33.8861Z" fill="white"/>
<path d="M71.4062 5.82504C71.7712 6.00889 72.1742 6.10464 72.5829 6.10464C72.9916 6.10464 73.3946 6.00889 73.7596 5.82504C73.8965 5.76583 74.0147 5.67039 74.1014 5.54902C74.1881 5.42764 74.24 5.28493 74.2516 5.13623V36.8462C74.24 36.9949 74.1881 37.1377 74.1014 37.259C74.0147 37.3804 73.8965 37.4758 73.7596 37.535C73.3952 37.7208 72.9919 37.8176 72.5829 37.8176C72.1738 37.8176 71.7706 37.7208 71.4062 37.535C71.2731 37.476 71.1581 37.3826 71.0731 37.2644C70.9881 37.1462 70.9361 37.0076 70.9224 36.8626V5.14441C70.9347 5.29079 70.986 5.43119 71.0711 5.55092C71.1562 5.67065 71.272 5.76533 71.4062 5.82504Z" fill="#171552"/>
<path d="M71.4142 4.4559C71.2705 4.50373 71.1454 4.59561 71.0567 4.71851C70.9681 4.84141 70.9204 4.98908 70.9204 5.14061C70.9204 5.29213 70.9681 5.43983 71.0567 5.56273C71.1454 5.68562 71.2705 5.7775 71.4142 5.82534C71.7792 6.00919 72.1822 6.10494 72.5909 6.10494C72.9996 6.10494 73.4027 6.00919 73.7677 5.82534C73.9114 5.7775 74.0365 5.68562 74.1251 5.56273C74.2138 5.43983 74.2615 5.29213 74.2615 5.14061C74.2615 4.98908 74.2138 4.84141 74.1251 4.71851C74.0365 4.59561 73.9114 4.50373 73.7677 4.4559C73.4021 4.27391 72.9993 4.1792 72.5909 4.1792C72.1826 4.1792 71.7798 4.27391 71.4142 4.4559Z" fill="#F1F1F1"/>
<path d="M71.6516 4.59501C71.5368 4.63276 71.4368 4.7058 71.3659 4.80372C71.295 4.90164 71.2568 5.01942 71.2568 5.14031C71.2568 5.26119 71.295 5.379 71.3659 5.47691C71.4368 5.57483 71.5368 5.64788 71.6516 5.68562C71.9434 5.83528 72.2667 5.91335 72.5946 5.91335C72.9226 5.91335 73.2458 5.83528 73.5377 5.68562C73.6525 5.64788 73.7525 5.57483 73.8234 5.47691C73.8943 5.379 73.9324 5.26119 73.9324 5.14031C73.9324 5.01942 73.8943 4.90164 73.8234 4.80372C73.7525 4.7058 73.6525 4.63276 73.5377 4.59501C73.2462 4.44404 72.9228 4.36523 72.5946 4.36523C72.2664 4.36523 71.943 4.44404 71.6516 4.59501Z" fill="url(#paint7_linear_216_284)"/>
<path d="M70.9224 9.60536C70.9347 9.75174 70.986 9.89214 71.0711 10.0119C71.1562 10.1316 71.272 10.2263 71.4062 10.286C71.7706 10.4717 72.1738 10.5686 72.5829 10.5686C72.9919 10.5686 73.3952 10.4717 73.7596 10.286C73.8965 10.2268 74.0147 10.1313 74.1014 10.01C74.1881 9.88859 74.24 9.74588 74.2516 9.59718V8.38354C74.2386 8.53081 74.186 8.67181 74.0994 8.79163C74.0128 8.91144 73.8954 9.00559 73.7596 9.06415C73.3952 9.2499 72.9919 9.34675 72.5829 9.34675C72.1738 9.34675 71.7706 9.2499 71.4062 9.06415C71.2731 9.0051 71.1581 8.9117 71.0731 8.79353C70.9881 8.67535 70.9361 8.53669 70.9224 8.39175V9.60536ZM70.9224 12.8854C70.9361 13.0304 70.9881 13.169 71.0731 13.2872C71.1581 13.4054 71.2731 13.4988 71.4062 13.5578C71.7706 13.7436 72.1738 13.8404 72.5829 13.8404C72.9919 13.8404 73.3952 13.7436 73.7596 13.5578C73.8954 13.4993 74.0128 13.4051 74.0994 13.2853C74.186 13.1655 74.2386 13.0245 74.2516 12.8772V11.6554C74.24 11.8041 74.1881 11.9468 74.1014 12.0682C74.0147 12.1896 73.8965 12.285 73.7596 12.3442C73.3952 12.53 72.9919 12.6268 72.5829 12.6268C72.1738 12.6268 71.7706 12.53 71.4062 12.3442C71.2731 12.2852 71.1581 12.1918 71.0731 12.0736C70.9881 11.9554 70.9361 11.8168 70.9224 11.6718V12.8854ZM70.9224 16.1655C70.9361 16.3104 70.9881 16.4491 71.0731 16.5673C71.1581 16.6855 71.2731 16.7789 71.4062 16.8379C71.7706 17.0237 72.1738 17.1205 72.5829 17.1205C72.9919 17.1205 73.3952 17.0237 73.7596 16.8379C73.8965 16.7787 74.0147 16.6833 74.1014 16.5619C74.1881 16.4405 74.24 16.2978 74.2516 16.1491V14.8699C74.2386 15.0171 74.186 15.1581 74.0994 15.2779C74.0128 15.3977 73.8954 15.4919 73.7596 15.5505C73.3952 15.7362 72.9919 15.8331 72.5829 15.8331C72.1738 15.8331 71.7706 15.7362 71.4062 15.5505C71.2731 15.4914 71.1581 15.398 71.0731 15.2799C70.9881 15.1617 70.9361 15.023 70.9224 14.8781V16.1655ZM70.9224 19.4046C70.9361 19.5495 70.9881 19.6882 71.0731 19.8063C71.1581 19.9245 71.2731 20.0179 71.4062 20.077C71.7706 20.2627 72.1738 20.3596 72.5829 20.3596C72.9919 20.3596 73.3952 20.2627 73.7596 20.077C73.8954 20.0184 74.0128 19.9242 74.0994 19.8044C74.186 19.6846 74.2386 19.5436 74.2516 19.3963V18.1827C74.2386 18.33 74.186 18.471 74.0994 18.5908C74.0128 18.7106 73.8954 18.8048 73.7596 18.8633C73.3952 19.0491 72.9919 19.1459 72.5829 19.1459C72.1738 19.1459 71.7706 19.0491 71.4062 18.8633C71.2731 18.8043 71.1581 18.7109 71.0731 18.5927C70.9881 18.4745 70.9361 18.3359 70.9224 18.1909V19.4046ZM70.9224 22.6846C70.9361 22.8296 70.9881 22.9682 71.0731 23.0864C71.1581 23.2046 71.2731 23.298 71.4062 23.357C71.7706 23.5428 72.1738 23.6396 72.5829 23.6396C72.9919 23.6396 73.3952 23.5428 73.7596 23.357C73.8954 23.2985 74.0128 23.2043 74.0994 23.0845C74.186 22.9647 74.2386 22.8237 74.2516 22.6764V21.348C74.24 21.4967 74.1881 21.6394 74.1014 21.7608C74.0147 21.8822 73.8965 21.9776 73.7596 22.0368C73.3952 22.2226 72.9919 22.3194 72.5829 22.3194C72.1738 22.3194 71.7706 22.2226 71.4062 22.0368C71.272 21.9771 71.1562 21.8824 71.0711 21.7627C70.986 21.643 70.9347 21.5026 70.9224 21.3562V22.6846ZM70.9224 25.9237C70.9347 26.07 70.986 26.2104 71.0711 26.3302C71.1562 26.4499 71.272 26.5446 71.4062 26.6043C71.7706 26.79 72.1738 26.8869 72.5829 26.8869C72.9919 26.8869 73.3952 26.79 73.7596 26.6043C73.8965 26.5451 74.0147 26.4496 74.1014 26.3283C74.1881 26.2069 74.24 26.0642 74.2516 25.9155V24.628C74.2386 24.7753 74.186 24.9163 74.0994 25.0361C74.0128 25.1559 73.8954 25.2501 73.7596 25.3086C73.3952 25.4944 72.9919 25.5913 72.5829 25.5913C72.1738 25.5913 71.7706 25.4944 71.4062 25.3086C71.2731 25.2496 71.1581 25.1562 71.0731 25.038C70.9881 24.9199 70.9361 24.7812 70.9224 24.6363V25.9237ZM70.9224 29.2037C70.9361 29.3487 70.9881 29.4873 71.0731 29.6055C71.1581 29.7237 71.2731 29.8171 71.4062 29.8761C71.7706 30.0619 72.1738 30.1587 72.5829 30.1587C72.9919 30.1587 73.3952 30.0619 73.7596 29.8761C73.8954 29.8176 74.0128 29.7234 74.0994 29.6036C74.186 29.4838 74.2386 29.3428 74.2516 29.1955V27.9819C74.2386 28.1292 74.186 28.2702 74.0994 28.39C74.0128 28.5098 73.8954 28.604 73.7596 28.6625C73.3952 28.8483 72.9919 28.9451 72.5829 28.9451C72.1738 28.9451 71.7706 28.8483 71.4062 28.6625C71.2731 28.6035 71.1581 28.5101 71.0731 28.3919C70.9881 28.2737 70.9361 28.1351 70.9224 27.9901V29.2037ZM70.9224 32.4838C70.9361 32.6287 70.9881 32.7674 71.0731 32.8856C71.1581 33.0038 71.2731 33.0972 71.4062 33.1562C71.7706 33.342 72.1738 33.4388 72.5829 33.4388C72.9919 33.4388 73.3952 33.342 73.7596 33.1562C73.8954 33.0976 74.0128 33.0035 74.0994 32.8837C74.186 32.7638 74.2386 32.6229 74.2516 32.4756V31.2538C74.24 31.4025 74.1881 31.5452 74.1014 31.6666C74.0147 31.7879 73.8965 31.8834 73.7596 31.9426C73.3952 32.1283 72.9919 32.2252 72.5829 32.2252C72.1738 32.2252 71.7706 32.1283 71.4062 31.9426C71.272 31.8829 71.1562 31.7882 71.0711 31.6685C70.986 31.5487 70.9347 31.4083 70.9224 31.262V32.4838ZM70.9224 35.7229C70.9347 35.8692 70.986 36.0096 71.0711 36.1294C71.1562 36.2491 71.272 36.3437 71.4062 36.4035C71.7706 36.5892 72.1738 36.6861 72.5829 36.6861C72.9919 36.6861 73.3952 36.5892 73.7596 36.4035C73.8965 36.3442 74.0147 36.2488 74.1014 36.1275C74.1881 36.0061 74.24 35.8633 74.2516 35.7146V34.501C74.2386 34.6483 74.186 34.7893 74.0994 34.9091C74.0128 35.0289 73.8954 35.1231 73.7596 35.1816C73.3952 35.3674 72.9919 35.4642 72.5829 35.4642C72.1738 35.4642 71.7706 35.3674 71.4062 35.1816C71.2731 35.1226 71.1581 35.0292 71.0731 34.911C70.9881 34.7928 70.9361 34.6542 70.9224 34.5092V35.7229Z" fill="url(#paint8_linear_216_284)"/>
<path d="M65.8295 2.60241C66.1939 2.78816 66.5972 2.88499 67.0062 2.88499C67.4153 2.88499 67.8185 2.78816 68.1829 2.60241C68.3199 2.5432 68.438 2.44776 68.5247 2.32638C68.6114 2.20501 68.6634 2.06228 68.675 1.91357V33.6482C68.6619 33.7954 68.6093 33.9365 68.5227 34.0563C68.4361 34.1761 68.3187 34.2702 68.1829 34.3288C67.8185 34.5145 67.4153 34.6114 67.0062 34.6114C66.5972 34.6114 66.1939 34.5145 65.8295 34.3288C65.6964 34.2697 65.5815 34.1763 65.4965 34.0582C65.4114 33.94 65.3594 33.8013 65.3457 33.6564V1.92999C65.3594 2.07493 65.4114 2.21359 65.4965 2.33177C65.5815 2.44994 65.6964 2.54337 65.8295 2.60241Z" fill="#171552"/>
<path d="M65.8373 1.2411C65.6964 1.29073 65.5744 1.38286 65.4881 1.50476C65.4018 1.62667 65.3555 1.77234 65.3555 1.9217C65.3555 2.07107 65.4018 2.21676 65.4881 2.33867C65.5744 2.46058 65.6964 2.5527 65.8373 2.60233C66.2017 2.78808 66.605 2.88491 67.014 2.88491C67.4231 2.88491 67.8263 2.78808 68.1908 2.60233C68.3316 2.5527 68.4536 2.46058 68.5399 2.33867C68.6262 2.21676 68.6726 2.07107 68.6726 1.9217C68.6726 1.77234 68.6262 1.62667 68.5399 1.50476C68.4536 1.38286 68.3316 1.29073 68.1908 1.2411C67.8263 1.05535 67.4231 0.958496 67.014 0.958496C66.605 0.958496 66.2017 1.05535 65.8373 1.2411Z" fill="#F1F1F1"/>
<path d="M66.0757 1.37243C65.5509 1.67583 65.5509 2.19243 66.0757 2.46304C66.3676 2.6127 66.6908 2.69077 67.0187 2.69077C67.3467 2.69077 67.67 2.6127 67.9618 2.46304C68.0766 2.42529 68.1766 2.35225 68.2475 2.25433C68.3184 2.15641 68.3566 2.03861 68.3566 1.91772C68.3566 1.79684 68.3184 1.67903 68.2475 1.58111C68.1766 1.48319 68.0766 1.41018 67.9618 1.37243C67.6692 1.22532 67.3462 1.14868 67.0187 1.14868C66.6913 1.14868 66.3683 1.22532 66.0757 1.37243Z" fill="url(#paint9_linear_216_284)"/>
<path d="M65.3462 6.39067C65.3599 6.53561 65.4119 6.67427 65.4969 6.79244C65.582 6.91062 65.6969 7.00402 65.83 7.06306C66.1944 7.24882 66.5977 7.34567 67.0067 7.34567C67.4158 7.34567 67.819 7.24882 68.1834 7.06306C68.3203 7.00385 68.4385 6.90844 68.5252 6.78706C68.6119 6.66569 68.6638 6.52296 68.6755 6.37425V5.16064C68.6638 5.30935 68.6119 5.45206 68.5252 5.57343C68.4385 5.6948 68.3203 5.79024 68.1834 5.84945C67.8179 6.03144 67.4151 6.12615 67.0067 6.12615C66.5984 6.12615 66.1956 6.03144 65.83 5.84945C65.6958 5.78974 65.5801 5.69506 65.495 5.57533C65.4099 5.4556 65.3585 5.31521 65.3462 5.16883V6.39067ZM65.3462 9.62971C65.3585 9.77609 65.4099 9.91649 65.495 10.0362C65.5801 10.1559 65.6958 10.2506 65.83 10.3103C66.1944 10.4961 66.5977 10.5929 67.0067 10.5929C67.4158 10.5929 67.819 10.4961 68.1834 10.3103C68.3203 10.2511 68.4385 10.1557 68.5252 10.0343C68.6119 9.91294 68.6638 9.77023 68.6755 9.62153V8.4079C68.6624 8.55516 68.6098 8.69617 68.5232 8.81598C68.4366 8.93579 68.3192 9.02994 68.1834 9.0885C67.819 9.27425 67.4158 9.37111 67.0067 9.37111C66.5977 9.37111 66.1944 9.27425 65.83 9.0885C65.6969 9.02946 65.582 8.93605 65.4969 8.81788C65.4119 8.69971 65.3599 8.56104 65.3462 8.41611V9.62971ZM65.3462 12.9098C65.3599 13.0547 65.4119 13.1934 65.4969 13.3116C65.582 13.4297 65.6969 13.5231 65.83 13.5822C66.1944 13.7679 66.5977 13.8648 67.0067 13.8648C67.4158 13.8648 67.819 13.7679 68.1834 13.5822C68.3192 13.5236 68.4366 13.4295 68.5232 13.3096C68.6098 13.1898 68.6624 13.0489 68.6755 12.9016V11.6798C68.6638 11.8285 68.6119 11.9712 68.5252 12.0926C68.4385 12.2139 68.3203 12.3094 68.1834 12.3686C67.819 12.5543 67.4158 12.6512 67.0067 12.6512C66.5977 12.6512 66.1944 12.5543 65.83 12.3686C65.6958 12.3088 65.5801 12.2142 65.495 12.0945C65.4099 11.9747 65.3585 11.8343 65.3462 11.688V12.9098ZM65.3462 16.1898C65.3599 16.3348 65.4119 16.4735 65.4969 16.5916C65.582 16.7098 65.6969 16.8032 65.83 16.8623C66.1944 17.048 66.5977 17.1448 67.0067 17.1448C67.4158 17.1448 67.819 17.048 68.1834 16.8623C68.3203 16.803 68.4385 16.7076 68.5252 16.5862C68.6119 16.4649 68.6638 16.3221 68.6755 16.1734V14.9598C68.6624 15.1071 68.6098 15.2481 68.5232 15.3679C68.4366 15.4877 68.3192 15.5819 68.1834 15.6404C67.819 15.8262 67.4158 15.923 67.0067 15.923C66.5977 15.923 66.1944 15.8262 65.83 15.6404C65.6969 15.5814 65.582 15.488 65.4969 15.3698C65.4119 15.2516 65.3599 15.113 65.3462 14.968V16.1898ZM65.3462 19.4289C65.3599 19.5738 65.4119 19.7125 65.4969 19.8307C65.582 19.9489 65.6969 20.0423 65.83 20.1013C66.1944 20.2871 66.5977 20.3839 67.0067 20.3839C67.4158 20.3839 67.819 20.2871 68.1834 20.1013C68.3192 20.0428 68.4366 19.9486 68.5232 19.8288C68.6098 19.709 68.6624 19.568 68.6755 19.4207V18.2071C68.6624 18.3544 68.6098 18.4953 68.5232 18.6151C68.4366 18.735 68.3192 18.8291 68.1834 18.8877C67.819 19.0734 67.4158 19.1703 67.0067 19.1703C66.5977 19.1703 66.1944 19.0734 65.83 18.8877C65.6969 18.8287 65.582 18.7352 65.4969 18.6171C65.4119 18.4989 65.3599 18.3602 65.3462 18.2153V19.4289ZM65.3462 22.709C65.3599 22.8539 65.4119 22.9926 65.4969 23.1107C65.582 23.2289 65.6969 23.3223 65.83 23.3814C66.1944 23.5671 66.5977 23.664 67.0067 23.664C67.4158 23.664 67.819 23.5671 68.1834 23.3814C68.3192 23.3228 68.4366 23.2287 68.5232 23.1088C68.6098 22.989 68.6624 22.848 68.6755 22.7008V21.3477C68.6638 21.4964 68.6119 21.6392 68.5252 21.7605C68.4385 21.8819 68.3203 21.9773 68.1834 22.0366C67.819 22.2223 67.4158 22.3192 67.0067 22.3192C66.5977 22.3192 66.1944 22.2223 65.83 22.0366C65.6958 21.9768 65.5801 21.8822 65.495 21.7625C65.4099 21.6427 65.3585 21.5023 65.3462 21.3559V22.709ZM65.3462 25.948C65.3585 26.0944 65.4099 26.2348 65.495 26.3545C65.5801 26.4742 65.6958 26.5689 65.83 26.6286C66.1944 26.8144 66.5977 26.9112 67.0067 26.9112C67.4158 26.9112 67.819 26.8144 68.1834 26.6286C68.3203 26.5694 68.4385 26.474 68.5252 26.3526C68.6119 26.2312 68.6638 26.0885 68.6755 25.9398V24.6278C68.6624 24.7751 68.6098 24.9161 68.5232 25.0359C68.4366 25.1557 68.3192 25.2498 68.1834 25.3084C67.819 25.4942 67.4158 25.591 67.0067 25.591C66.5977 25.591 66.1944 25.4942 65.83 25.3084C65.6969 25.2494 65.582 25.156 65.4969 25.0378C65.4119 24.9196 65.3599 24.7809 65.3462 24.636V25.948ZM65.3462 29.2281C65.3599 29.373 65.4119 29.5117 65.4969 29.6299C65.582 29.748 65.6969 29.8414 65.83 29.9005C66.1944 30.0862 66.5977 30.1831 67.0067 30.1831C67.4158 30.1831 67.819 30.0862 68.1834 29.9005C68.3192 29.8419 68.4366 29.7478 68.5232 29.6279C68.6098 29.5081 68.6624 29.3672 68.6755 29.2199V27.9079C68.6624 28.0551 68.6098 28.1961 68.5232 28.3159C68.4366 28.4358 68.3192 28.5299 68.1834 28.5885C67.819 28.7742 67.4158 28.8711 67.0067 28.8711C66.5977 28.8711 66.1944 28.7742 65.83 28.5885C65.6969 28.5294 65.582 28.436 65.4969 28.3178C65.4119 28.1997 65.3599 28.061 65.3462 27.9161V29.2281ZM65.3462 32.5081C65.3599 32.6531 65.4119 32.7918 65.4969 32.9099C65.582 33.0281 65.6969 33.1215 65.83 33.1806C66.1944 33.3663 66.5977 33.4632 67.0067 33.4632C67.4158 33.4632 67.819 33.3663 68.1834 33.1806C68.3192 33.122 68.4366 33.0278 68.5232 32.908C68.6098 32.7882 68.6624 32.6472 68.6755 32.5V31.2781C68.6638 31.4268 68.6119 31.5696 68.5252 31.6909C68.4385 31.8123 68.3203 31.9077 68.1834 31.9669C67.819 32.1527 67.4158 32.2495 67.0067 32.2495C66.5977 32.2495 66.1944 32.1527 65.83 31.9669C65.6958 31.9072 65.5801 31.8126 65.495 31.6928C65.4099 31.5731 65.3585 31.4327 65.3462 31.2863V32.5081Z" fill="url(#paint10_linear_216_284)"/>
<path d="M27.7563 44.3164V62.4141L40.9914 70.1059V52.0082L27.7563 44.3164Z" fill="#171552"/>
<path d="M40.9912 52.0084V70.1061L73.2342 51.4836V33.394L40.9912 52.0084Z" fill="url(#paint11_linear_216_284)"/>
<path d="M27.7563 44.3165L40.9914 52.0082L73.2344 33.3939L59.9994 25.7021L27.7563 44.3165Z" fill="white"/>
<path d="M71.9801 33.3938L59.9997 26.4319L29.0195 44.3246L40.9918 51.2784L71.9801 33.3938Z" fill="url(#paint12_linear_216_284)"/>
<path d="M44.829 51.5244L44.8208 67.8673L46.4526 68.8021L46.4608 52.4592L44.829 51.5244Z" fill="#171552"/>
<path d="M46.4608 52.4592L46.4526 68.8021L49.0357 67.3097L49.0439 50.9668L46.4608 52.4592Z" fill="url(#paint13_linear_216_284)"/>
<path d="M44.8291 51.5244L46.4609 52.4592L49.044 50.9668L47.4122 50.032L44.8291 51.5244Z" fill="white"/>
<path d="M40.975 53.7468L40.9668 70.0897L42.5986 71.0246V54.6816L40.975 53.7468Z" fill="#171552"/>
<path d="M42.5986 54.6817V71.0247L45.1735 69.5322L45.1817 53.1975L42.5986 54.6817Z" fill="url(#paint14_linear_216_284)"/>
<path d="M40.9751 53.7468L42.5987 54.6816L45.1818 53.1974L43.5581 52.2544L40.9751 53.7468Z" fill="white"/>
<path d="M70.6518 36.6167L70.6436 52.9596L72.2672 53.8944L72.2754 37.5515L70.6518 36.6167Z" fill="#171552"/>
<path d="M72.2753 37.5515L72.2671 53.8944L74.8501 52.402L74.8583 36.0591L72.2753 37.5515Z" fill="url(#paint15_linear_216_284)"/>
<path d="M70.6519 36.6167L72.2755 37.5515L74.8585 36.0591L73.2349 35.1243L70.6519 36.6167Z" fill="white"/>
<path d="M66.7894 38.8469L66.7812 55.1816L68.4131 56.1165L68.4213 39.7817L66.7894 38.8469Z" fill="#171552"/>
<path d="M68.4213 39.782L68.4131 56.1167L70.9961 54.6325L71.0043 38.2896L68.4213 39.782Z" fill="url(#paint16_linear_216_284)"/>
<path d="M66.7896 38.8472L68.4214 39.782L71.0044 38.2896L69.3726 37.3547L66.7896 38.8472Z" fill="white"/>
<path d="M50.2251 54.8538L50.2415 64.7677L53.6036 66.7932L53.6364 56.8464L50.2251 54.8538Z" fill="#0047FF"/>
<path d="M64.5591 46.5798L64.5755 56.4938L67.9293 58.5193L67.9703 48.5725L64.5591 46.5798Z" fill="#0047FF"/>
<path d="M50.2251 54.8539L53.6364 56.8466L67.9866 48.5644L64.5754 46.5718L50.2251 54.8539Z" fill="white"/>
<path d="M59.9992 26.4321L29.019 44.3249L29.7489 44.7431L59.9992 27.2767L71.2498 33.8123L71.9796 33.3941L59.9992 26.4321Z" fill="#3C64F3"/>
<path d="M58.499 29.5728L56.6704 30.6306L58.0234 31.4096H59.1387L58.499 29.5728Z" fill="#0047FF"/>
<path d="M57.5068 29.7859L57.515 30.4665L59.1387 31.4095V30.7289L57.5068 29.7859Z" fill="#C2C4C4"/>
<path d="M59.1387 30.7289V31.4095L60.7705 30.4665V29.7859L59.1387 30.7289Z" fill="#D7D9D9"/>
<path d="M57.5068 29.786L59.1387 30.7291L60.7705 29.786L59.1469 28.843L57.5068 29.786Z" fill="#F4F4F4"/>
<path d="M59.1302 30.3105C59.6646 30.3105 60.0978 30.0609 60.0978 29.7529C60.0978 29.445 59.6646 29.1953 59.1302 29.1953C58.5958 29.1953 58.1626 29.445 58.1626 29.7529C58.1626 30.0609 58.5958 30.3105 59.1302 30.3105Z" fill="#3C64F3"/>
<path d="M59.1304 29.9829C59.3478 29.9829 59.524 29.8801 59.524 29.7533C59.524 29.6265 59.3478 29.5237 59.1304 29.5237C58.913 29.5237 58.7368 29.6265 58.7368 29.7533C58.7368 29.8801 58.913 29.9829 59.1304 29.9829Z" fill="#7694FF"/>
<path d="M54.5709 31.844L52.7505 32.8936L54.0953 33.6726H55.2105L54.5709 31.844Z" fill="#0047FF"/>
<path d="M53.5869 32.0574V32.7298L55.2105 33.6728V33.0004L53.5869 32.0574Z" fill="#C2C4C4"/>
<path d="M55.2109 33.0004V33.6728L56.851 32.7298V32.0574L55.2109 33.0004Z" fill="#D7D9D9"/>
<path d="M53.5869 32.0574L55.2105 33.0004L56.8506 32.0574L55.2187 31.1062L53.5869 32.0574Z" fill="#F4F4F4"/>
<path d="M55.2025 32.582C55.7369 32.582 56.1701 32.3324 56.1701 32.0244C56.1701 31.7164 55.7369 31.4668 55.2025 31.4668C54.6681 31.4668 54.2349 31.7164 54.2349 32.0244C54.2349 32.3324 54.6681 32.582 55.2025 32.582Z" fill="#3C64F3"/>
<path d="M55.2022 32.2541C55.4196 32.2541 55.5958 32.1513 55.5958 32.0245C55.5958 31.8977 55.4196 31.7949 55.2022 31.7949C54.9848 31.7949 54.8086 31.8977 54.8086 32.0245C54.8086 32.1513 54.9848 32.2541 55.2022 32.2541Z" fill="#7694FF"/>
<path d="M50.6432 34.1074L48.8228 35.157L50.1758 35.9443H51.2828L50.6432 34.1074Z" fill="#0047FF"/>
<path d="M49.6592 34.3208V34.9932L51.2828 35.9444V35.2638L49.6592 34.3208Z" fill="#C2C4C4"/>
<path d="M51.2827 35.2638V35.9444L52.9227 35.0014V34.3208L51.2827 35.2638Z" fill="#D7D9D9"/>
<path d="M49.6592 34.3207L51.2828 35.2637L52.9228 34.3207L51.291 33.3777L49.6592 34.3207Z" fill="#F4F4F4"/>
<path d="M51.2747 34.8454C51.8091 34.8454 52.2424 34.5958 52.2424 34.2878C52.2424 33.9799 51.8091 33.7302 51.2747 33.7302C50.7403 33.7302 50.3071 33.9799 50.3071 34.2878C50.3071 34.5958 50.7403 34.8454 51.2747 34.8454Z" fill="#3C64F3"/>
<path d="M51.0119 34.1321C50.8561 34.2223 50.8561 34.3617 51.0119 34.4519C51.098 34.4964 51.1937 34.5197 51.2907 34.5197C51.3877 34.5197 51.4833 34.4964 51.5695 34.4519C51.7253 34.3617 51.7253 34.2223 51.5695 34.1321C51.4833 34.0875 51.3877 34.0642 51.2907 34.0642C51.1937 34.0642 51.098 34.0875 51.0119 34.1321Z" fill="#7694FF"/>
<path d="M46.7237 36.3706L44.895 37.4284L46.248 38.2074H47.3633L46.7237 36.3706Z" fill="#0047FF"/>
<path d="M45.731 36.584V37.2646L47.3628 38.2076L47.3546 37.5352L45.731 36.584Z" fill="#0047FF"/>
<path d="M47.355 37.5352L47.3632 38.2076L48.995 37.2646V36.584L47.355 37.5352Z" fill="#0047FF"/>
<path d="M45.731 36.5839L47.3546 37.5351L48.9946 36.5839L47.371 35.6409L45.731 36.5839Z" fill="#7694FF"/>
<path d="M47.3548 37.1169C47.8892 37.1169 48.3224 36.8673 48.3224 36.5593C48.3224 36.2514 47.8892 36.0017 47.3548 36.0017C46.8204 36.0017 46.3872 36.2514 46.3872 36.5593C46.3872 36.8673 46.8204 37.1169 47.3548 37.1169Z" fill="#3C64F3"/>
<path d="M47.355 36.7888C47.5724 36.7888 47.7486 36.686 47.7486 36.5592C47.7486 36.4324 47.5724 36.3296 47.355 36.3296C47.1376 36.3296 46.9614 36.4324 46.9614 36.5592C46.9614 36.686 47.1376 36.7888 47.355 36.7888Z" fill="#7694FF"/>
<path d="M42.7954 38.6421L40.9668 39.6917L42.3198 40.4789H43.435L42.7954 38.6421Z" fill="#0047FF"/>
<path d="M41.8037 38.8552V39.5276L43.4355 40.4789V39.7982L41.8037 38.8552Z" fill="#0047FF"/>
<path d="M43.4355 39.7982V40.4789L45.0674 39.5276V38.8552L43.4355 39.7982Z" fill="#0047FF"/>
<path d="M41.8037 38.8551L43.4355 39.7981L45.0674 38.8551L43.4437 37.9121L41.8037 38.8551Z" fill="#7694FF"/>
<path d="M42.7383 38.4288C42.3529 38.6502 42.3529 39.0028 42.7383 39.2488C42.9513 39.3537 43.1855 39.4083 43.423 39.4083C43.6604 39.4083 43.8947 39.3537 44.1077 39.2488C44.2024 39.2298 44.2876 39.1785 44.3488 39.1038C44.41 39.029 44.4435 38.9354 44.4435 38.8388C44.4435 38.7422 44.41 38.6486 44.3488 38.5738C44.2876 38.4991 44.2024 38.4478 44.1077 38.4288C43.896 38.3195 43.6612 38.2625 43.423 38.2625C43.1847 38.2625 42.95 38.3195 42.7383 38.4288Z" fill="#3C64F3"/>
<path d="M43.1398 38.6666C42.984 38.7568 42.984 38.8962 43.1398 38.9864C43.2274 39.031 43.3244 39.0543 43.4227 39.0543C43.521 39.0543 43.618 39.031 43.7056 38.9864C43.8614 38.8962 43.8614 38.7568 43.7056 38.6666C43.618 38.6219 43.521 38.5986 43.4227 38.5986C43.3244 38.5986 43.2274 38.6219 43.1398 38.6666Z" fill="#7694FF"/>
<path d="M38.8677 40.9053L37.0391 41.9631L38.4003 42.7421H39.5073L38.8677 40.9053Z" fill="#0047FF"/>
<path d="M37.8833 41.1187V41.7993L39.5069 42.7423V42.0617L37.8833 41.1187Z" fill="#0047FF"/>
<path d="M39.5073 42.0617V42.7423L41.1474 41.7993L41.1392 41.1187L39.5073 42.0617Z" fill="#0047FF"/>
<path d="M37.8833 41.1186L39.5069 42.0616L41.1388 41.1186L39.5151 40.1755L37.8833 41.1186Z" fill="#7694FF"/>
<path d="M39.4994 41.6435C40.0338 41.6435 40.467 41.3939 40.467 41.0859C40.467 40.778 40.0338 40.5283 39.4994 40.5283C38.965 40.5283 38.5317 40.778 38.5317 41.0859C38.5317 41.3939 38.965 41.6435 39.4994 41.6435Z" fill="#3C64F3"/>
<path d="M39.2122 40.9297C39.1808 40.9441 39.1542 40.9672 39.1355 40.9963C39.1169 41.0254 39.1069 41.0592 39.1069 41.0937C39.1069 41.1283 39.1169 41.1621 39.1355 41.1912C39.1542 41.2202 39.1808 41.2433 39.2122 41.2577C39.301 41.2983 39.3974 41.3193 39.4951 41.3193C39.5927 41.3193 39.6892 41.2983 39.778 41.2577C39.8127 41.2466 39.8431 41.2247 39.8646 41.1952C39.8861 41.1658 39.8977 41.1302 39.8977 41.0937C39.8977 41.0572 39.8861 41.0217 39.8646 40.9922C39.8431 40.9627 39.8127 40.9409 39.778 40.9297C39.6904 40.8851 39.5934 40.8618 39.4951 40.8618C39.3967 40.8618 39.2998 40.8851 39.2122 40.9297Z" fill="#7694FF"/>
<path d="M34.9401 43.1768L33.1196 44.2264L34.4727 45.0054H35.5797L34.9401 43.1768Z" fill="#0047FF"/>
<path d="M33.9556 43.3899V44.0623L35.5792 45.0053V44.3329L33.9556 43.3899Z" fill="#0047FF"/>
<path d="M35.5796 44.3329V45.0053L37.2196 44.0623V43.3899L35.5796 44.3329Z" fill="#0047FF"/>
<path d="M33.9556 43.3899L35.5792 44.333L37.2192 43.3899L35.5874 42.4387L33.9556 43.3899Z" fill="#7694FF"/>
<path d="M35.5716 43.9148C36.106 43.9148 36.5392 43.6651 36.5392 43.3572C36.5392 43.0492 36.106 42.7996 35.5716 42.7996C35.0372 42.7996 34.604 43.0492 34.604 43.3572C34.604 43.6651 35.0372 43.9148 35.5716 43.9148Z" fill="#3C64F3"/>
<path d="M35.5713 43.5867C35.7887 43.5867 35.9649 43.4839 35.9649 43.357C35.9649 43.2302 35.7887 43.1274 35.5713 43.1274C35.354 43.1274 35.1777 43.2302 35.1777 43.357C35.1777 43.4839 35.354 43.5867 35.5713 43.5867Z" fill="#7694FF"/>
<path d="M61.2461 31.1553L59.4175 32.2131L60.7705 32.9921H61.8857L61.2461 31.1553Z" fill="#0047FF"/>
<path d="M60.2539 31.3687V32.0493L61.8857 32.9923L61.8775 32.3199L60.2539 31.3687Z" fill="#C2C4C4"/>
<path d="M61.8774 32.3199L61.8856 32.9923L63.5175 32.0493V31.3687L61.8774 32.3199Z" fill="#D7D9D9"/>
<path d="M60.2539 31.3686L61.8775 32.3198L63.5176 31.3686L61.8939 30.4255L60.2539 31.3686Z" fill="#F4F4F4"/>
<path d="M61.1805 30.9503C61.0858 30.9694 61.0006 31.0206 60.9394 31.0953C60.8782 31.1701 60.8447 31.2637 60.8447 31.3603C60.8447 31.4569 60.8782 31.5506 60.9394 31.6253C61.0006 31.7001 61.0858 31.7513 61.1805 31.7703C61.3936 31.8797 61.6298 31.9368 61.8693 31.9368C62.1089 31.9368 62.345 31.8797 62.5581 31.7703C62.6528 31.7513 62.7381 31.7001 62.7993 31.6253C62.8605 31.5506 62.8939 31.4569 62.8939 31.3603C62.8939 31.2637 62.8605 31.1701 62.7993 31.0953C62.7381 31.0206 62.6528 30.9694 62.5581 30.9503C62.345 30.841 62.1089 30.7839 61.8693 30.7839C61.6298 30.7839 61.3936 30.841 61.1805 30.9503Z" fill="#3C64F3"/>
<path d="M61.5904 31.1882C61.5556 31.1993 61.5253 31.2212 61.5038 31.2507C61.4823 31.2802 61.4707 31.3157 61.4707 31.3522C61.4707 31.3887 61.4823 31.4242 61.5038 31.4537C61.5253 31.4832 61.5556 31.5051 61.5904 31.5162C61.6766 31.5608 61.7722 31.584 61.8692 31.584C61.9662 31.584 62.0618 31.5608 62.148 31.5162C62.1828 31.5051 62.2131 31.4832 62.2346 31.4537C62.2561 31.4242 62.2677 31.3887 62.2677 31.3522C62.2677 31.3157 62.2561 31.2802 62.2346 31.2507C62.2131 31.2212 62.1828 31.1993 62.148 31.1882C62.0618 31.1436 61.9662 31.1204 61.8692 31.1204C61.7722 31.1204 61.6766 31.1436 61.5904 31.1882Z" fill="#7694FF"/>
<path d="M57.3179 33.4268L55.4893 34.4764L56.8423 35.2636H57.9575L57.3179 33.4268Z" fill="#0047FF"/>
<path d="M56.3257 33.6401V34.3125L57.9575 35.2638V34.5832L56.3257 33.6401Z" fill="#C2C4C4"/>
<path d="M57.9575 34.5832V35.2638L59.5893 34.3125V33.6401L57.9575 34.5832Z" fill="#D7D9D9"/>
<path d="M56.3257 33.6403L57.9575 34.5833L59.5893 33.6403L57.9657 32.6973L56.3257 33.6403Z" fill="#F4F4F4"/>
<path d="M57.9496 34.1648C58.484 34.1648 58.9172 33.9151 58.9172 33.6072C58.9172 33.2992 58.484 33.0496 57.9496 33.0496C57.4152 33.0496 56.9819 33.2992 56.9819 33.6072C56.9819 33.9151 57.4152 34.1648 57.9496 34.1648Z" fill="#3C64F3"/>
<path d="M57.9493 33.8369C58.1667 33.8369 58.3429 33.7341 58.3429 33.6073C58.3429 33.4805 58.1667 33.3777 57.9493 33.3777C57.7319 33.3777 57.5557 33.4805 57.5557 33.6073C57.5557 33.7341 57.7319 33.8369 57.9493 33.8369Z" fill="#7694FF"/>
<path d="M53.3902 35.6899L51.5615 36.7478L52.9145 37.5268H54.0298L53.3902 35.6899Z" fill="#0047FF"/>
<path d="M52.4058 35.9031V36.5837L54.0294 37.5267V36.8461L52.4058 35.9031Z" fill="#C2C4C4"/>
<path d="M54.0298 36.8461V37.5267L55.6698 36.5837L55.6616 35.9031L54.0298 36.8461Z" fill="#D7D9D9"/>
<path d="M52.4058 35.9032L54.0294 36.8462L55.6612 35.9032L54.0376 34.9602L52.4058 35.9032Z" fill="#F4F4F4"/>
<path d="M53.3329 35.4768C53.2381 35.4959 53.153 35.5471 53.0917 35.6219C53.0305 35.6966 52.9971 35.7902 52.9971 35.8868C52.9971 35.9835 53.0305 36.0771 53.0917 36.1518C53.153 36.2266 53.2381 36.2778 53.3329 36.2969C53.5445 36.4062 53.7793 36.4632 54.0176 36.4632C54.2558 36.4632 54.4906 36.4062 54.7023 36.2969C55.0877 36.0755 55.0877 35.7228 54.7023 35.4768C54.4893 35.3719 54.255 35.3174 54.0176 35.3174C53.7801 35.3174 53.5459 35.3719 53.3329 35.4768Z" fill="#3C64F3"/>
<path d="M54.022 36.1001C54.2394 36.1001 54.4156 35.9973 54.4156 35.8705C54.4156 35.7437 54.2394 35.6409 54.022 35.6409C53.8046 35.6409 53.6284 35.7437 53.6284 35.8705C53.6284 35.9973 53.8046 36.1001 54.022 36.1001Z" fill="#7694FF"/>
<path d="M49.4625 37.9617L47.6421 39.0113L48.9951 39.7903H50.1021L49.4625 37.9617Z" fill="#0047FF"/>
<path d="M48.4785 38.1748V38.8472L50.1021 39.7902V39.1178L48.4785 38.1748Z" fill="#C2C4C4"/>
<path d="M50.1021 39.1178V39.7902L51.7421 38.8472V38.1748L50.1021 39.1178Z" fill="#D7D9D9"/>
<path d="M48.4785 38.1746L50.1021 39.1176L51.7422 38.1746L50.1103 37.2234L48.4785 38.1746Z" fill="#F4F4F4"/>
<path d="M50.0936 38.6995C50.628 38.6995 51.0612 38.4498 51.0612 38.1418C51.0612 37.8339 50.628 37.5842 50.0936 37.5842C49.5592 37.5842 49.126 37.8339 49.126 38.1418C49.126 38.4498 49.5592 38.6995 50.0936 38.6995Z" fill="#3C64F3"/>
<path d="M50.0938 38.3716C50.3112 38.3716 50.4874 38.2688 50.4874 38.142C50.4874 38.0152 50.3112 37.9124 50.0938 37.9124C49.8764 37.9124 49.7002 38.0152 49.7002 38.142C49.7002 38.2688 49.8764 38.3716 50.0938 38.3716Z" fill="#7694FF"/>
<path d="M45.5343 40.2249L43.7139 41.2745L45.0669 42.0617H46.1821L45.5343 40.2249Z" fill="#0047FF"/>
<path d="M44.5503 40.4377V41.1184L46.1821 42.0614L46.1739 41.3808L44.5503 40.4377Z" fill="#C2C4C4"/>
<path d="M46.1738 41.3808L46.182 42.0614L47.8139 41.1184V40.4377L46.1738 41.3808Z" fill="#D7D9D9"/>
<path d="M44.5503 40.4379L46.1739 41.3809L47.814 40.4379L46.1903 39.4949L44.5503 40.4379Z" fill="#F4F4F4"/>
<path d="M46.1742 40.9626C46.7086 40.9626 47.1418 40.713 47.1418 40.405C47.1418 40.0971 46.7086 39.8474 46.1742 39.8474C45.6398 39.8474 45.2065 40.0971 45.2065 40.405C45.2065 40.713 45.6398 40.9626 46.1742 40.9626Z" fill="#3C64F3"/>
<path d="M46.1661 40.6347C46.3835 40.6347 46.5597 40.5319 46.5597 40.4051C46.5597 40.2783 46.3835 40.1755 46.1661 40.1755C45.9487 40.1755 45.7725 40.2783 45.7725 40.4051C45.7725 40.5319 45.9487 40.6347 46.1661 40.6347Z" fill="#7694FF"/>
<path d="M41.6148 42.488L39.7861 43.5459L41.1392 44.3249H42.2544L41.6148 42.488Z" fill="#0047FF"/>
<path d="M40.6226 42.7095V43.3819L42.2544 44.3249L42.2462 43.6525L40.6226 42.7095Z" fill="#C2C4C4"/>
<path d="M42.2461 43.6525L42.2543 44.3249L43.8861 43.3819V42.7095L42.2461 43.6525Z" fill="#D7D9D9"/>
<path d="M40.6226 42.7095L42.2462 43.6525L43.8862 42.7095L42.2626 41.7583L40.6226 42.7095Z" fill="#F4F4F4"/>
<path d="M42.2459 43.2339C42.7803 43.2339 43.2136 42.9842 43.2136 42.6763C43.2136 42.3683 42.7803 42.1187 42.2459 42.1187C41.7115 42.1187 41.2783 42.3683 41.2783 42.6763C41.2783 42.9842 41.7115 43.2339 42.2459 43.2339Z" fill="#3C64F3"/>
<path d="M42.2461 42.9062C42.4635 42.9062 42.6398 42.8034 42.6398 42.6766C42.6398 42.5498 42.4635 42.447 42.2461 42.447C42.0288 42.447 41.8525 42.5498 41.8525 42.6766C41.8525 42.8034 42.0288 42.9062 42.2461 42.9062Z" fill="#7694FF"/>
<path d="M37.687 44.7593L35.8584 45.8089L37.2114 46.5961H38.3266L37.687 44.7593Z" fill="#0047FF"/>
<path d="M36.6948 44.9727L36.703 45.6451L38.3267 46.5963V45.9157L36.6948 44.9727Z" fill="#C2C4C4"/>
<path d="M38.3267 45.9157V46.5963L39.9585 45.6451V44.9727L38.3267 45.9157Z" fill="#D7D9D9"/>
<path d="M36.6948 44.9726L38.3267 45.9156L39.9585 44.9726L38.3349 44.0295L36.6948 44.9726Z" fill="#F4F4F4"/>
<path d="M38.3182 45.4975C38.8526 45.4975 39.2858 45.2479 39.2858 44.9399C39.2858 44.632 38.8526 44.3823 38.3182 44.3823C37.7838 44.3823 37.3506 44.632 37.3506 44.9399C37.3506 45.2479 37.7838 45.4975 38.3182 45.4975Z" fill="#3C64F3"/>
<path d="M38.0314 44.784C37.8756 44.8742 37.8756 45.0136 38.0314 45.1038C38.119 45.1484 38.216 45.1717 38.3143 45.1717C38.4126 45.1717 38.5096 45.1484 38.5972 45.1038C38.753 45.0136 38.753 44.8742 38.5972 44.784C38.5096 44.7393 38.4126 44.7161 38.3143 44.7161C38.216 44.7161 38.119 44.7393 38.0314 44.784Z" fill="#7694FF"/>
<path d="M71.9799 33.3941L71.2501 33.8123L59.9995 27.2767V26.4321L71.9799 33.3941Z" fill="#3C64F3"/>
<path d="M50.8891 47.9659L50.8809 53.2058L63.5747 45.8913L63.5829 40.635L50.8891 47.9659Z" fill="white"/>
<g style="mix-blend-mode:multiply" opacity="0.6">
<path d="M61.8197 45.8997L60.8521 46.4573H62.4265V46.5475H60.6963L59.663 47.1461H61.2457V47.2363H59.5072L58.4822 47.8349H60.032V47.9251H58.3018L57.2686 48.5155H58.843V48.6057H57.1128L56.0796 49.2043H57.654V49.2945H55.932L54.9069 49.8849H56.4814V49.9751H54.7511L53.7179 50.5738H55.2924V50.664H53.5621L52.5289 51.2544H54.1033V51.3446H52.3731L51.3399 51.9432H52.9225V52.0334H51.1841L50.6265 52.3532V47.8513L63.6811 40.3892L63.5581 45.8997H61.8197ZM50.6429 52.7222H51.7417V52.632H50.6429V52.7222Z" fill="#A09595"/>
</g>
<path opacity="0.7" d="M50.8891 47.9659L63.5829 40.635L63.5747 45.8913L50.8809 53.2058L50.8891 47.9659Z" fill="#188FFC"/>
<path d="M50.4954 47.6705L50.479 53.4352L50.8808 53.2056L50.889 47.9903L63.5828 40.6594L63.5746 45.8993L63.9683 45.6369L63.9847 39.8804L50.4954 47.6705Z" fill="#0047FF"/>
<path d="M63.5831 43.2178L62.4925 43.8492V41.2908L62.4187 41.3318V43.8902L61.3035 44.538V41.9796L61.2297 42.0288V44.5626L60.1145 45.2186V42.6684L60.0407 42.7094V45.2514L58.9254 45.8993V43.3572H58.8598V45.9485L57.7446 46.5963V44.0542L57.6708 44.0952V46.6209L56.5556 47.2687V44.743L56.4818 44.784V47.3097L55.3666 47.9657V45.4318L55.2928 45.4729V48.0067L54.1857 48.6545V46.1207L54.1119 46.1617V48.6791L52.9967 49.3269V46.8095L52.9229 46.8505V49.3679L51.8323 50.0485V47.5311L51.7585 47.5721V50.0485L50.9385 50.5487V50.6307L51.7585 50.1305V52.7054L51.8323 52.6644V50.0895L52.9475 49.4417V52.0248L53.0213 51.9838V49.4007L54.1365 48.7529V51.336L54.2103 51.2949V48.7365L55.3174 48.0887V50.6635L55.3912 50.6226V48.0477L56.5064 47.3999V49.9747L56.5802 49.9337V47.3507L57.6954 46.7029V49.2941L57.7692 49.2449V46.6783L58.8844 46.0305V48.6053L58.95 48.5643V45.9894L60.0653 45.3417V47.9165H60.1391V45.3417L61.2543 44.6938V47.2769L61.3281 47.2359V44.6692L62.4433 44.0132V46.5881L62.5171 46.5471V43.9722L63.6077 43.3408L63.5831 43.2178Z" fill="#0047FF"/>
<path d="M53.6363 56.8464L53.6035 66.7931L54.3415 66.3585L54.3497 59.8886L67.265 52.3691L67.2486 58.9128L67.9456 58.511L67.9866 48.5642L53.6363 56.8464Z" fill="#2137FF"/>
<path d="M16.7518 64.6694C16.145 64.6688 15.5488 64.5106 15.0216 64.2102L2.84436 57.1827C2.77604 57.1402 2.72679 57.073 2.70692 56.995C2.68705 56.9171 2.6981 56.8344 2.73775 56.7644C2.77734 56.6953 2.84252 56.6445 2.91923 56.6231C2.99594 56.6016 3.07803 56.6111 3.14776 56.6496L15.325 63.6772C15.7591 63.9268 16.2511 64.0582 16.7518 64.0582C17.2526 64.0582 17.7445 63.9268 18.1786 63.6772L29.4784 57.1581C29.5484 57.1184 29.631 57.1074 29.709 57.1272C29.7869 57.1471 29.8542 57.1963 29.8967 57.2646C29.917 57.2995 29.9302 57.3382 29.9354 57.3782C29.9407 57.4183 29.9379 57.459 29.9272 57.4979C29.9165 57.5369 29.8981 57.5733 29.8732 57.605C29.8482 57.6368 29.8172 57.6633 29.7818 57.6829L18.482 64.243C17.9517 64.532 17.3557 64.6788 16.7518 64.6694Z" fill="#0047FF"/>
<path d="M22.6479 66.2107L22.6561 67.4325L27.0924 70.0074L27.0842 68.7855L22.6479 66.2107Z" fill="#0047FF"/>
<path d="M27.084 68.7855L27.0922 70.0074L31.5613 67.4325L31.5531 66.2107L27.084 68.7855Z" fill="#2958FF"/>
<path d="M22.6479 66.211L27.0842 68.7858L31.5533 66.211L27.117 63.6279L22.6479 66.211Z" fill="#3C64F3"/>
<path d="M24.7718 54.8702C25.4761 55.2262 26.2542 55.4117 27.0433 55.4117C27.8324 55.4117 28.6105 55.2262 29.3147 54.8702C29.5756 54.7512 29.8006 54.5659 29.9675 54.3328C30.1344 54.0997 30.2373 53.827 30.266 53.5417V65.842C30.2373 66.1272 30.1344 66.4 29.9675 66.6331C29.8006 66.8662 29.5756 67.0514 29.3147 67.1704C28.6119 67.5263 27.8352 67.7118 27.0474 67.7118C26.2596 67.7118 25.4829 67.5263 24.78 67.1704C24.5227 67.0554 24.3005 66.874 24.1362 66.645C23.972 66.4159 23.8715 66.1472 23.8452 65.8666V53.5663C23.8755 53.8447 23.9766 54.1107 24.1388 54.3389C24.301 54.5671 24.5189 54.75 24.7718 54.8702Z" fill="url(#paint17_linear_216_284)"/>
<path d="M24.8127 52.2379C23.5581 52.9677 23.5499 54.1404 24.8127 54.8702C25.5169 55.2262 26.295 55.4117 27.0842 55.4117C27.8733 55.4117 28.6513 55.2262 29.3556 54.8702C30.6102 54.1404 30.6184 52.9677 29.3556 52.2379C28.6525 51.8781 27.874 51.6904 27.0842 51.6904C26.2943 51.6904 25.5158 51.8781 24.8127 52.2379Z" fill="#7694FF"/>
<path d="M26.0756 52C26.3857 51.8383 26.7303 51.7539 27.0801 51.7539C27.4299 51.7539 27.7745 51.8383 28.0846 52C28.2072 52.0391 28.3143 52.1162 28.3902 52.2201C28.4661 52.3241 28.507 52.4494 28.507 52.5781C28.507 52.7068 28.4661 52.8322 28.3902 52.9361C28.3143 53.0401 28.2072 53.1171 28.0846 53.1563C27.7747 53.314 27.4319 53.3961 27.0842 53.3961C26.7365 53.3961 26.3937 53.314 26.0838 53.1563C25.9609 53.118 25.8533 53.0417 25.7767 52.9383C25.7 52.8349 25.6582 52.7098 25.6572 52.5811C25.6563 52.4524 25.6964 52.3268 25.7716 52.2223C25.8468 52.1178 25.9532 52.04 26.0756 52Z" fill="#3C64F3"/>
<path d="M27.978 69.2859L27.9862 70.5077L32.4225 73.0826L32.4143 71.8689L27.978 69.2859Z" fill="#0047FF"/>
<path d="M32.4141 71.8689L32.4223 73.0826L36.8831 70.5077V69.2859L32.4141 71.8689Z" fill="#2958FF"/>
<path d="M27.978 69.2862L32.4143 71.8692L36.8834 69.2862L32.4471 66.7031L27.978 69.2862Z" fill="#3C64F3"/>
<path d="M30.1263 57.9454C30.83 58.3033 31.6083 58.4898 32.3977 58.4898C33.1872 58.4898 33.9655 58.3033 34.6692 57.9454C34.93 57.8264 35.1551 57.6411 35.322 57.408C35.4889 57.1749 35.5918 56.9022 35.6204 56.6169V68.9172C35.5918 69.2024 35.4889 69.4752 35.322 69.7083C35.1551 69.9413 34.93 70.1266 34.6692 70.2456C33.9655 70.6035 33.1872 70.7901 32.3977 70.7901C31.6083 70.7901 30.83 70.6035 30.1263 70.2456C29.8734 70.1254 29.6555 69.9425 29.4933 69.7143C29.3311 69.4861 29.23 69.2201 29.1997 68.9418L29.1587 56.6415C29.1929 56.9242 29.3002 57.193 29.4698 57.4216C29.6395 57.6502 29.8657 57.8307 30.1263 57.9454Z" fill="url(#paint18_linear_216_284)"/>
<path d="M30.1428 55.313C28.8882 56.0429 28.88 57.2155 30.1428 57.9453C30.8465 58.3032 31.6248 58.4898 32.4142 58.4898C33.2037 58.4898 33.982 58.3032 34.6857 57.9453C35.9403 57.2155 35.9485 56.0429 34.6857 55.313C33.982 54.9551 33.2037 54.7686 32.4142 54.7686C31.6248 54.7686 30.8465 54.9551 30.1428 55.313Z" fill="#7694FF"/>
<path d="M31.4057 55.0752C31.717 54.9174 32.0611 54.8352 32.4102 54.8352C32.7592 54.8352 33.1034 54.9174 33.4147 55.0752C33.5334 55.1183 33.636 55.1969 33.7085 55.3003C33.781 55.4037 33.8199 55.527 33.8199 55.6533C33.8199 55.7796 33.781 55.9029 33.7085 56.0063C33.636 56.1097 33.5334 56.1883 33.4147 56.2314C33.1034 56.3892 32.7592 56.4714 32.4102 56.4714C32.0611 56.4714 31.717 56.3892 31.4057 56.2314C31.2869 56.1883 31.1844 56.1097 31.1119 56.0063C31.0394 55.9029 31.0005 55.7796 31.0005 55.6533C31.0005 55.527 31.0394 55.4037 31.1119 55.3003C31.1844 55.1969 31.2869 55.1183 31.4057 55.0752Z" fill="#3C64F3"/>
<path d="M19.9664 70.9672C19.4828 70.9672 19.0076 70.84 18.5888 70.5982L0.720642 60.2824C0.501244 60.1536 0.319321 59.9697 0.192917 59.7489C0.0665127 59.5281 0 59.2781 0 59.0237C0 58.7692 0.0665127 58.5192 0.192917 58.2984C0.319321 58.0777 0.501244 57.8937 0.720642 57.7649L5.64073 54.9277C5.71072 54.888 5.79332 54.877 5.87126 54.8969C5.94921 54.9167 6.01645 54.966 6.05892 55.0343C6.07928 55.0692 6.09247 55.1078 6.09771 55.1478C6.10296 55.1879 6.10015 55.2286 6.08946 55.2675C6.07876 55.3065 6.06041 55.3429 6.03545 55.3747C6.01049 55.4064 5.97945 55.4329 5.94414 55.4525L1.02404 58.2897C0.887587 58.3577 0.772778 58.4625 0.692539 58.5921C0.6123 58.7218 0.569792 58.8712 0.569792 59.0237C0.569792 59.1761 0.6123 59.3256 0.692539 59.4552C0.772778 59.5849 0.887587 59.6896 1.02404 59.7576L18.8922 70.0652C19.22 70.2545 19.5919 70.3541 19.9705 70.3541C20.3491 70.3541 20.721 70.2545 21.0488 70.0652L24.6733 67.9741C24.7082 67.9538 24.7468 67.9406 24.7868 67.9353C24.8269 67.9301 24.8676 67.9329 24.9065 67.9436C24.9455 67.9543 24.9819 67.9727 25.0137 67.9976C25.0454 68.0226 25.0719 68.0536 25.0915 68.0889C25.1117 68.1232 25.1247 68.1612 25.1299 68.2006C25.135 68.24 25.1322 68.2801 25.1214 68.3184C25.1107 68.3567 25.0923 68.3924 25.0675 68.4234C25.0426 68.4545 25.0117 68.4801 24.9767 68.4989L21.3522 70.5982C20.9308 70.841 20.4528 70.9683 19.9664 70.9672Z" fill="#0047FF"/>
<path d="M25.2883 74.0341C24.8046 74.0341 24.3295 73.9068 23.9107 73.665L6.04252 63.3493C6.00729 63.3306 5.97631 63.3049 5.95158 63.2736C5.92685 63.2424 5.90891 63.2063 5.89888 63.1678C5.88885 63.1292 5.88697 63.0889 5.89335 63.0496C5.89973 63.0102 5.91422 62.9727 5.93592 62.9393C5.9755 62.8701 6.04068 62.8193 6.1174 62.7979C6.19411 62.7764 6.27619 62.7859 6.34592 62.8244L24.2141 73.1402C24.5419 73.3295 24.9138 73.4292 25.2924 73.4292C25.671 73.4292 26.0429 73.3295 26.3707 73.1402L29.9952 71.0492C30.0652 71.0095 30.1478 70.9985 30.2257 71.0184C30.3037 71.0383 30.3709 71.0875 30.4134 71.1558C30.4337 71.1907 30.4469 71.2293 30.4522 71.2693C30.4574 71.3094 30.4546 71.3501 30.4439 71.3891C30.4332 71.428 30.4149 71.4644 30.3899 71.4962C30.365 71.528 30.3339 71.5544 30.2986 71.574L26.6741 73.665C26.2527 73.9079 25.7747 74.0352 25.2883 74.0341Z" fill="#0047FF"/>
<path d="M13.2913 26.4404C13.028 26.4399 12.7677 26.4963 12.5281 26.6056C12.2886 26.715 12.0755 26.8748 11.9034 27.0741C11.7313 27.2734 11.6044 27.5076 11.5311 27.7605C11.4579 28.0135 11.4401 28.2792 11.4791 28.5397C11.4786 29.1084 11.6791 29.659 12.0452 30.0941C12.4113 30.5293 12.9195 30.821 13.48 30.9177C13.743 30.9185 14.0031 30.8622 14.2423 30.7527C14.4816 30.6433 14.6942 30.4833 14.8657 30.2838C15.0371 30.0843 15.1633 29.85 15.2355 29.597C15.3077 29.3441 15.3243 29.0784 15.284 28.8185C15.2865 28.2505 15.0877 27.7001 14.7229 27.2647C14.3582 26.8294 13.851 26.5373 13.2913 26.4404Z" fill="#2958FF"/>
<path d="M35.3338 13.5579C35.0705 13.5573 34.8102 13.6137 34.5706 13.723C34.3311 13.8324 34.118 13.9922 33.9459 14.1915C33.7738 14.3909 33.6468 14.625 33.5736 14.878C33.5004 15.1309 33.4826 15.3967 33.5216 15.6571C33.5174 16.2255 33.7156 16.7768 34.0807 17.2125C34.4457 17.6482 34.9539 17.9398 35.5142 18.0351C35.7776 18.0357 36.0379 17.9793 36.2774 17.87C36.517 17.7606 36.7301 17.6008 36.9022 17.4015C37.0742 17.2021 37.2012 16.968 37.2745 16.7151C37.3477 16.4621 37.3654 16.1963 37.3265 15.9359C37.3273 15.3684 37.128 14.8188 36.7635 14.3838C36.399 13.9488 35.8927 13.6563 35.3338 13.5579Z" fill="#2958FF"/>
<defs>
<linearGradient id="paint0_linear_216_284" x1="46.9786" y1="34.1102" x2="20.4813" y2="48.6452" gradientUnits="userSpaceOnUse">
<stop stop-color="#E4E7FF"/>
<stop offset="1" stop-color="#2137FF"/>
</linearGradient>
<linearGradient id="paint1_linear_216_284" x1="42.9557" y1="2.79506" x2="33.4014" y2="12.4254" gradientUnits="userSpaceOnUse">
<stop stop-color="#E4E7FF"/>
<stop offset="1" stop-color="#2137FF"/>
</linearGradient>
<linearGradient id="paint2_linear_216_284" x1="37.8186" y1="13.5173" x2="34.0988" y2="41.861" gradientUnits="userSpaceOnUse">
<stop stop-color="#2137FF"/>
<stop offset="1" stop-color="#0047FF"/>
</linearGradient>
<linearGradient id="paint3_linear_216_284" x1="14.2848" y1="42.2606" x2="17.786" y2="61.5819" gradientUnits="userSpaceOnUse">
<stop stop-color="#E4E7FF"/>
<stop offset="1" stop-color="#2137FF"/>
</linearGradient>
<linearGradient id="paint4_linear_216_284" x1="21.152" y1="15.3824" x2="11.5978" y2="25.0128" gradientUnits="userSpaceOnUse">
<stop stop-color="#E4E7FF"/>
<stop offset="1" stop-color="#2137FF"/>
</linearGradient>
<linearGradient id="paint5_linear_216_284" x1="15.9989" y1="26.0956" x2="12.2875" y2="54.4093" gradientUnits="userSpaceOnUse">
<stop stop-color="#2137FF"/>
<stop offset="1" stop-color="#0047FF"/>
</linearGradient>
<linearGradient id="paint6_linear_216_284" x1="76.3474" y1="39.9054" x2="74.4068" y2="50.3842" gradientUnits="userSpaceOnUse">
<stop stop-color="#2137FF"/>
<stop offset="1" stop-color="#0047FF"/>
</linearGradient>
<linearGradient id="paint7_linear_216_284" x1="72.6037" y1="4.707" x2="72.5365" y2="5.9012" gradientUnits="userSpaceOnUse">
<stop stop-color="#2137FF"/>
<stop offset="1" stop-color="#0047FF"/>
</linearGradient>
<linearGradient id="paint8_linear_216_284" x1="73.6537" y1="20.9284" x2="69.6856" y2="21.0767" gradientUnits="userSpaceOnUse">
<stop stop-color="#E4E7FF"/>
<stop offset="1" stop-color="#2137FF"/>
</linearGradient>
<linearGradient id="paint9_linear_216_284" x1="67.0285" y1="1.48911" x2="66.9617" y2="2.67869" gradientUnits="userSpaceOnUse">
<stop stop-color="#2137FF"/>
<stop offset="1" stop-color="#0047FF"/>
</linearGradient>
<linearGradient id="paint10_linear_216_284" x1="68.0775" y1="17.7055" x2="64.1094" y2="17.8538" gradientUnits="userSpaceOnUse">
<stop stop-color="#E4E7FF"/>
<stop offset="1" stop-color="#2137FF"/>
</linearGradient>
<linearGradient id="paint11_linear_216_284" x1="67.443" y1="49.6663" x2="31.7415" y2="59.6321" gradientUnits="userSpaceOnUse">
<stop stop-color="#E4E7FF"/>
<stop offset="1" stop-color="#2137FF"/>
</linearGradient>
<linearGradient id="paint12_linear_216_284" x1="79.112" y1="29.1112" x2="24.8685" y2="59.0629" gradientUnits="userSpaceOnUse">
<stop stop-color="#E4E7FF"/>
<stop offset="1" stop-color="#2137FF"/>
</linearGradient>
<linearGradient id="paint13_linear_216_284" x1="47.7571" y1="54.9041" x2="41.3771" y2="64.4349" gradientUnits="userSpaceOnUse">
<stop stop-color="#2137FF"/>
<stop offset="1" stop-color="#0047FF"/>
</linearGradient>
<linearGradient id="paint14_linear_216_284" x1="43.899" y1="57.133" x2="37.5154" y2="66.6434" gradientUnits="userSpaceOnUse">
<stop stop-color="#2137FF"/>
<stop offset="1" stop-color="#0047FF"/>
</linearGradient>
<linearGradient id="paint15_linear_216_284" x1="73.5715" y1="39.9964" x2="67.1916" y2="49.5272" gradientUnits="userSpaceOnUse">
<stop stop-color="#2137FF"/>
<stop offset="1" stop-color="#0047FF"/>
</linearGradient>
<linearGradient id="paint16_linear_216_284" x1="69.7175" y1="42.2251" x2="63.3416" y2="51.7542" gradientUnits="userSpaceOnUse">
<stop stop-color="#2137FF"/>
<stop offset="1" stop-color="#0047FF"/>
</linearGradient>
<linearGradient id="paint17_linear_216_284" x1="27.0556" y1="53.5417" x2="27.0556" y2="67.7118" gradientUnits="userSpaceOnUse">
<stop stop-color="#2137FF"/>
<stop offset="1" stop-color="#0047FF"/>
</linearGradient>
<linearGradient id="paint18_linear_216_284" x1="32.3896" y1="56.6169" x2="32.3896" y2="70.7901" gradientUnits="userSpaceOnUse">
<stop stop-color="#2137FF"/>
<stop offset="1" stop-color="#0047FF"/>
</linearGradient>
</defs>
</svg>
