<svg width="59" height="64" fill="none" xmlns="http://www.w3.org/2000/svg"><g clip-path="url(#a)"><path d="M54.476 20.65c-5.355 2.972-13.834 2.87-18.997-.172-2.536-1.521-3.793-3.479-3.783-5.426l-.051 36.462c0 1.948 1.258 3.905 3.793 5.427 5.153 3.043 13.642 3.164 18.947.193 2.688-1.522 4.057-3.53 4.057-5.548V15.123c.091 1.998-1.319 4.016-3.966 5.528Z" fill="url(#b)"/><path d="M54.7 9.676c-5.163-3.043-13.642-3.164-18.947-.193-5.305 2.972-5.426 7.891-.274 10.975 5.153 3.083 13.642 3.164 18.947.193 5.304-2.972 5.426-7.892.273-10.975Zm-3.591 8.987a13.46 13.46 0 0 1-12.171-.122c-3.327-2.029-3.246-5.153.172-7.1a13.428 13.428 0 0 1 12.172.122c3.326 2.018 3.245 5.182-.173 7.1Z" fill="#fff"/><path d="M51.11 17.171a13.428 13.428 0 0 1-12.172-.121 4.27 4.27 0 0 1-2.444-3.5v1.491c0 1.258.811 2.526 2.444 3.5a13.46 13.46 0 0 0 12.171.121c1.735-1.014 2.617-2.271 2.617-3.57v-1.49c0 1.297-.872 2.596-2.617 3.57Z" fill="#171552"/><path d="M51.281 10.102a13.459 13.459 0 0 0-12.17-.122c-3.419 1.917-3.5 5.072-.173 7.1a13.43 13.43 0 0 0 12.17.122c3.429-1.947 3.5-5.112.173-7.1Zm-3.661 4.99a5.68 5.68 0 0 1-5.132-.05c-1.4-.842-1.37-2.17.07-2.982a5.7 5.7 0 0 1 5.143.05c1.4.842 1.359 2.17-.081 2.982Z" fill="url(#c)"/><path d="M45.348 12.11a5.072 5.072 0 0 0-2.323-.639h-.223a5.376 5.376 0 0 0-2.586.588c-1.44.812-1.471 2.14-.071 2.982.776.428 1.65.649 2.535.64h2.82l-.152-3.57Z" fill="#231889"/><path d="M47.63 13.601a5.67 5.67 0 0 1-5.142-.05 1.816 1.816 0 0 1-1.014-1.471v1.49a1.797 1.797 0 0 0 1.014 1.471 5.68 5.68 0 0 0 5.132.051 1.816 1.816 0 0 0 1.106-1.5V12.1a1.816 1.816 0 0 1-1.096 1.501Z" fill="#231889"/><path d="M47.701 10.63a5.618 5.618 0 0 0-5.132-.051c-1.44.801-1.47 2.13-.081 2.972a5.671 5.671 0 0 0 5.142.05c1.44-.811 1.47-2.14.071-2.972Z" fill="url(#d)"/><path d="M46.362 26.209v29.484c3.357-.172 7.1-1.115 9.727-3.235V22.973a13.945 13.945 0 0 1-4.757 2.404 21.3 21.3 0 0 1-4.97.832Z" fill="#231889"/><path d="M54.142 27.913c-3.449 2.028-6.32 1.835-7.83 2.089v2.029c3.975-.274 8.185-1.968 9.726-3.419V26.92c-.547-.082-1.207.588-1.896.994Zm1.896 6.389V32.65c-.557-.06-1.207.619-1.896 1.014a13.89 13.89 0 0 1-3.043 1.319 21.79 21.79 0 0 1-4.737.71v2.028c3.743-.263 8.114-1.957 9.676-3.418Z" fill="#fff"/><path d="M46.362 29.15a18.257 18.257 0 0 0 9.727-3.448v-1.664a.75.75 0 0 0-.639.172c-2.667 2.029-5.68 2.719-9.128 2.962l.04 1.978Z" fill="#fff"/><path d="M55.4 47.011a12.92 12.92 0 0 1-4.352 2.18 22.318 22.318 0 0 1-4.736.792v2.028a18.328 18.328 0 0 0 9.726-3.458v-1.704a.782.782 0 0 0-.639.162Z" fill="url(#e)"/><path d="M56.038 31.402v-1.664a.75.75 0 0 0-.639.173c-3.904 2.992-7.373 2.657-9.128 2.941v2.029a18.358 18.358 0 0 0 9.767-3.48Z" fill="#fff"/><path d="M56.038 51.352V49.7a.742.742 0 0 0-.639.162 12.923 12.923 0 0 1-4.35 2.18 22.247 22.247 0 0 1-4.737.782V54.8a18.257 18.257 0 0 0 9.726-3.449Z" fill="url(#f)"/><path d="M55.4 35.61a16.127 16.127 0 0 1-9.129 2.962v2.029a18.135 18.135 0 0 0 9.727-3.459V35.49a.741.741 0 0 0-.599.122Z" fill="#fff"/><path d="M56.038 38.278c-.486-.06-1.014.538-1.896 1.014a17.709 17.709 0 0 1-7.78 2.13v2.029c3.925-.264 8.175-1.968 9.727-3.418l-.05-1.755Z" fill="#fff"/><path d="M47.965 46.058a17.13 17.13 0 0 0 8.114-3.246v-1.653a.78.78 0 0 0-.64.152 12.698 12.698 0 0 1-4.35 2.18 21.766 21.766 0 0 1-4.737.782V46.3a9.867 9.867 0 0 0 1.613-.243Z" fill="#fff"/><path d="M55.4 44.161c-2.658 2.029-5.71 2.718-9.129 2.962v2.028c.152 0 .781-.06 1.653-.203a17.243 17.243 0 0 0 8.114-3.245v-1.664a.741.741 0 0 0-.639.122Z" fill="#fff"/><path d="M55.41 23.42v28.673a16.685 16.685 0 0 1-9.129 3.195v.405c3.358-.172 7.1-1.115 9.727-3.235V22.973c-.172.162-.385.304-.598.446Z" fill="#231889"/><path style="mix-blend-mode:screen" opacity=".9" d="M48.188 11.482c.507.294.223 1.257-.883 1.896a3.926 3.926 0 0 1-3.093.406c-.507-.294 0-1.014 1.075-1.674 1.075-.659 2.394-.912 2.9-.628Z" fill="#fff"/><path d="M28.045 16.42c-6.532 3.662-16.969 3.561-23.328-.243C1.593 14.311.04 11.907.05 9.504l-.06 44.891c0 2.404 1.54 4.818 4.665 6.684 6.35 3.793 16.796 3.895 23.328.233 3.316-1.866 4.99-4.34 5-6.826l.05-44.891c0 2.495-1.662 4.97-4.99 6.826Z" fill="url(#g)"/><path d="M28.38 2.921C22.03-.882 11.582-.984 5.05 2.678c-6.532 3.661-6.674 9.686-.274 13.51 6.4 3.823 16.786 3.905 23.328.243 6.542-3.661 6.623-9.717.274-13.51Zm-4.413 11.066c-4.22 2.363-10.944 2.292-15.041-.152-4.098-2.445-3.997-6.35.213-8.713a16.583 16.583 0 0 1 15.041.152c4.088 2.445 3.996 6.35-.213 8.713Z" fill="#fff"/><path d="M23.967 12.151c-4.21 2.363-10.944 2.302-15.041-.152-2.029-1.197-3.043-2.759-3.043-4.31v1.835c0 1.552 1.014 3.104 3.043 4.31 4.057 2.445 10.822 2.516 15.041.153 2.14-1.197 3.215-2.8 3.215-4.402V7.749c0 1.572-1.105 3.205-3.215 4.402Z" fill="#171552"/><path d="M24.18 3.438C20.123.994 13.358.923 9.15 3.286 4.939 5.65 4.839 9.555 8.926 12c4.087 2.444 10.832 2.515 15.041.152 4.21-2.363 4.31-6.258.213-8.713Zm-4.503 6.147a6.988 6.988 0 0 1-6.33-.06c-1.723-1.015-1.683-2.668.092-3.662a6.958 6.958 0 0 1 6.33.06c1.713 1.025 1.673 2.668-.092 3.662Z" fill="url(#h)"/><path d="M16.867 5.913a6.137 6.137 0 0 0-2.87-.78h-.274a6.522 6.522 0 0 0-3.184.72c-1.775 1.014-1.816 2.636-.092 3.671.962.523 2.04.795 3.134.791h3.459l-.172-4.402Z" fill="#231889"/><path d="M19.677 7.749a6.968 6.968 0 0 1-6.319-.06 2.201 2.201 0 0 1-1.268-1.816v1.835a2.232 2.232 0 0 0 1.268 1.816 6.988 6.988 0 0 0 6.33.06 2.253 2.253 0 0 0 1.318-1.845V5.903a2.242 2.242 0 0 1-1.329 1.846Z" fill="#231889"/><path d="M19.768 4.088a6.968 6.968 0 0 0-6.319-.061c-1.775 1.014-1.815 2.637-.091 3.661a6.968 6.968 0 0 0 6.319.061c1.775-.994 1.815-2.627.091-3.661Z" fill="url(#i)"/><path d="M18.064 23.277v36.3c4.128-.212 8.764-1.368 11.969-3.985v-36.3a17.101 17.101 0 0 1-5.863 2.96 26.288 26.288 0 0 1-6.106 1.025Z" fill="#171552"/><path d="M27.7 25.377c-4.24 2.525-7.79 2.262-9.636 2.576v2.455c4.88-.325 10.072-2.414 11.969-4.2V24.12c-.68-.07-1.481.76-2.333 1.258Z" fill="#231889"/><path d="M30.033 33.237v-2.1c-.68-.07-1.481.761-2.333 1.258-1.2.696-2.48 1.241-3.814 1.623a26.4 26.4 0 0 1-5.822.964v2.444c4.666-.304 10.042-2.383 11.969-4.189Z" fill="url(#j)"/><path d="M18.064 26.898a22.476 22.476 0 0 0 11.969-4.25V20.62a.922.922 0 0 0-.791.203c-3.287 2.515-6.999 3.347-11.157 3.64l-.02 2.435Z" fill="#231889"/><path d="M29.242 48.877a15.628 15.628 0 0 1-5.356 2.678c-1.898.548-3.85.888-5.822 1.014v2.394a22.497 22.497 0 0 0 11.969-4.25v-2.029a1.014 1.014 0 0 0-.791.193Z" fill="url(#k)"/><path d="M30.032 29.667V27.64a.922.922 0 0 0-.79.203c-4.808 3.681-9.129 3.265-11.158 3.62v2.465a22.527 22.527 0 0 0 11.948-4.26Z" fill="url(#l)"/><path d="M30.033 54.233v-2.029a.955.955 0 0 0-.791.203 15.63 15.63 0 0 1-5.356 2.678c-1.898.537-3.851.86-5.822.963v2.445a22.406 22.406 0 0 0 11.969-4.26Z" fill="url(#m)"/><path d="M29.241 34.85a19.86 19.86 0 0 1-11.157 3.651v2.435a22.314 22.314 0 0 0 11.948-4.23v-2.028a.953.953 0 0 0-.79.172Z" fill="url(#n)"/><path d="M30.033 38.126c-.599-.06-1.278.67-2.333 1.288a21.686 21.686 0 0 1-9.636 2.587v2.444c4.818-.314 10.052-2.404 11.969-4.2v-2.119Z" fill="url(#o)"/><path d="M20.083 47.721a21.077 21.077 0 0 0 9.95-4.006v-2.029a1.015 1.015 0 0 0-.791.193 15.416 15.416 0 0 1-5.356 2.678c-1.897.55-3.85.89-5.822 1.014v2.434a13.41 13.41 0 0 0 2.019-.284Z" fill="url(#p)"/><path d="M29.241 45.378c-3.266 2.505-7.029 3.358-11.157 3.642v2.444c.183 0 .954-.071 2.029-.233a21.086 21.086 0 0 0 9.95-4.007v-2.028a.954.954 0 0 0-.822.182Z" fill="url(#q)"/><path d="M29.262 19.839v35.306c-3.043 2.465-7.272 3.621-11.157 3.926v.507c4.128-.213 8.763-1.37 11.968-3.986v-36.3a12.52 12.52 0 0 0-.811.547Z" fill="#231889"/><path d="M20.407 5.112c.629.365.274 1.562-1.095 2.353a4.869 4.869 0 0 1-3.854.507c-.63-.365 0-1.298 1.338-2.09 1.34-.79 2.982-1.135 3.611-.77Z" fill="#fff" style="mix-blend-mode:screen" opacity=".9"/></g><defs><linearGradient id="b" x1="41.835" y1="30.14" x2="7.152" y2="28.417" gradientUnits="userSpaceOnUse"><stop stop-color="#E4E7FF"/><stop offset="1" stop-color="#2137FF"/></linearGradient><linearGradient id="c" x1="46.335" y1="8.586" x2="45.182" y2="12.887" gradientUnits="userSpaceOnUse"><stop stop-color="#2137FF"/><stop offset="1" stop-color="#0047FF"/></linearGradient><linearGradient id="d" x1="44.229" y1="11.419" x2="34.99" y2="10.111" gradientUnits="userSpaceOnUse"><stop stop-color="#E4E7FF"/><stop offset="1" stop-color="#2137FF"/></linearGradient><linearGradient id="e" x1="51.866" y1="46.835" x2="51.314" y2="49.083" gradientUnits="userSpaceOnUse"><stop stop-color="#2137FF"/><stop offset="1" stop-color="#0047FF"/></linearGradient><linearGradient id="f" x1="51.866" y1="49.682" x2="51.325" y2="51.907" gradientUnits="userSpaceOnUse"><stop stop-color="#2137FF"/><stop offset="1" stop-color="#0047FF"/></linearGradient><linearGradient id="g" x1="12.554" y1="28.087" x2="-30.208" y2="25.96" gradientUnits="userSpaceOnUse"><stop stop-color="#E4E7FF"/><stop offset="1" stop-color="#2137FF"/></linearGradient><linearGradient id="h" x1="18.067" y1="1.559" x2="16.652" y2="6.852" gradientUnits="userSpaceOnUse"><stop stop-color="#2137FF"/><stop offset="1" stop-color="#0047FF"/></linearGradient><linearGradient id="i" x1="15.491" y1="5.065" x2="4.117" y2="3.453" gradientUnits="userSpaceOnUse"><stop stop-color="#E4E7FF"/><stop offset="1" stop-color="#2137FF"/></linearGradient><linearGradient id="j" x1="24.898" y1="31.134" x2="24.235" y2="33.87" gradientUnits="userSpaceOnUse"><stop stop-color="#2137FF"/><stop offset="1" stop-color="#0047FF"/></linearGradient><linearGradient id="k" x1="24.898" y1="48.669" x2="24.234" y2="51.406" gradientUnits="userSpaceOnUse"><stop stop-color="#2137FF"/><stop offset="1" stop-color="#0047FF"/></linearGradient><linearGradient id="l" x1="24.907" y1="27.619" x2="24.239" y2="30.36" gradientUnits="userSpaceOnUse"><stop stop-color="#2137FF"/><stop offset="1" stop-color="#0047FF"/></linearGradient><linearGradient id="m" x1="24.898" y1="52.187" x2="24.232" y2="54.928" gradientUnits="userSpaceOnUse"><stop stop-color="#2137FF"/><stop offset="1" stop-color="#0047FF"/></linearGradient><linearGradient id="n" x1="24.907" y1="34.654" x2="24.244" y2="37.385" gradientUnits="userSpaceOnUse"><stop stop-color="#2137FF"/><stop offset="1" stop-color="#0047FF"/></linearGradient><linearGradient id="o" x1="24.898" y1="38.123" x2="24.229" y2="40.87" gradientUnits="userSpaceOnUse"><stop stop-color="#2137FF"/><stop offset="1" stop-color="#0047FF"/></linearGradient><linearGradient id="p" x1="24.898" y1="41.671" x2="24.226" y2="44.423" gradientUnits="userSpaceOnUse"><stop stop-color="#2137FF"/><stop offset="1" stop-color="#0047FF"/></linearGradient><linearGradient id="q" x1="24.924" y1="45.169" x2="24.26" y2="47.906" gradientUnits="userSpaceOnUse"><stop stop-color="#2137FF"/><stop offset="1" stop-color="#0047FF"/></linearGradient><clipPath id="a"><path fill="#fff" d="M0 0h58.482v64H0z"/></clipPath></defs></svg>