<svg width="59" height="64" viewBox="0 0 59 64" fill="none" xmlns="http://www.w3.org/2000/svg">
<g clip-path="url(#clip0_216_1748)">
<path d="M54.4761 20.6505C49.1208 23.6223 40.6415 23.5209 35.4789 20.4781C32.9433 18.9567 31.6856 16.9991 31.6957 15.0518L31.645 51.5145C31.645 53.4619 32.9027 55.4194 35.4384 56.9408C40.5908 59.9836 49.0802 60.1053 54.3848 57.1336C57.0726 55.6122 58.4419 53.6039 58.4419 51.5855V15.1228C58.5331 17.1209 57.1233 19.1393 54.4761 20.6505Z" fill="url(#paint0_linear_216_1748)"/>
<path d="M54.6995 9.67612C49.5369 6.63333 41.0577 6.51162 35.7531 9.48341C30.4485 12.4552 30.3268 17.3744 35.4792 20.4577C40.6317 23.5411 49.1211 23.6222 54.4257 20.6505C59.7303 17.6787 59.852 12.7595 54.6995 9.67612ZM51.109 18.6625C49.2134 19.5998 47.1235 20.0772 45.0089 20.0561C42.8943 20.0349 40.8144 19.5158 38.9379 18.5408C35.6111 16.5122 35.6922 13.3883 39.1103 11.4409C41.0053 10.5012 43.0954 10.0225 45.2105 10.0437C47.3255 10.0648 49.4057 10.5852 51.2815 11.5626C54.6082 13.581 54.5271 16.7455 51.109 18.6625Z" fill="white"/>
<path d="M51.1092 17.1714C49.2142 18.1111 47.1241 18.5899 45.009 18.5687C42.894 18.5476 40.8138 18.0271 38.938 17.0497C38.2594 16.7322 37.6763 16.2417 37.2472 15.6275C36.8182 15.0133 36.5583 14.297 36.4937 13.5505V15.0415C36.4937 16.2992 37.3051 17.567 38.938 18.5407C40.8146 19.5157 42.8944 20.0348 45.0091 20.056C47.1237 20.0771 49.2135 19.5997 51.1092 18.6624C52.8436 17.6481 53.726 16.3905 53.726 15.0922V13.6012C53.726 14.8995 52.8537 16.1977 51.1092 17.1714Z" fill="#171552"/>
<path d="M51.2812 10.1022C49.4047 9.12712 47.3248 8.608 45.2102 8.58685C43.0956 8.56571 41.0057 9.04314 39.1101 9.98045C35.692 11.8974 35.6109 15.0518 38.9377 17.0803C40.8135 18.0577 42.8936 18.5781 45.0087 18.5993C47.1237 18.6204 49.2138 18.1417 51.1088 17.202C54.537 15.2546 54.608 12.0901 51.2812 10.1022ZM47.6197 15.0923C46.8204 15.4873 45.9392 15.6885 45.0476 15.6797C44.156 15.6709 43.279 15.4523 42.4876 15.0416C41.0879 14.1998 41.1183 12.8711 42.5586 12.0597C43.3597 11.6646 44.2425 11.4634 45.1358 11.4722C46.029 11.481 46.9077 11.6996 47.7009 12.1104C49.1006 12.9522 49.06 14.2809 47.6197 15.0923Z" fill="url(#paint1_linear_216_1748)"/>
<path d="M45.3477 12.1102C44.6361 11.7138 43.8394 11.4946 43.0251 11.4712H42.8019C41.9042 11.4482 41.015 11.6505 40.2156 12.0595C38.7753 12.8709 38.7449 14.1996 40.1446 15.0415C40.9206 15.4694 41.7941 15.6895 42.6802 15.6804H45.4999L45.3477 12.1102Z" fill="#231889"/>
<path d="M47.6302 13.6012C46.8297 13.9987 45.9466 14.2012 45.053 14.1924C44.1593 14.1836 43.2804 13.9637 42.4879 13.5505C42.2064 13.4136 41.9651 13.2062 41.7874 12.9486C41.6096 12.6909 41.5016 12.3916 41.4736 12.0798V13.5708C41.4996 13.8831 41.6069 14.1832 41.7848 14.4413C41.9628 14.6993 42.2052 14.9062 42.4879 15.0415C43.2793 15.4522 44.1563 15.6708 45.0479 15.6796C45.9395 15.6884 46.8207 15.4872 47.6201 15.0922C47.9228 14.9653 48.1856 14.7587 48.3802 14.4944C48.5749 14.23 48.6943 13.9179 48.7256 13.5911V12.1001C48.6952 12.4258 48.5773 12.7372 48.3845 13.0015C48.1917 13.2657 47.9311 13.4729 47.6302 13.6012Z" fill="#231889"/>
<path d="M47.7011 10.6295C46.9112 10.214 46.0336 9.99274 45.1412 9.98392C44.2487 9.9751 43.3669 10.179 42.569 10.5787C41.1287 11.38 41.0983 12.7087 42.4878 13.5506C43.2803 13.9637 44.1592 14.1836 45.0529 14.1925C45.9466 14.2013 46.8296 13.9987 47.6301 13.6013C49.0704 12.7898 49.1008 11.4612 47.7011 10.6295Z" fill="url(#paint2_linear_216_1748)"/>
<path d="M46.3623 26.2086V55.6933C49.7195 55.5209 53.4621 54.5776 56.0891 52.4578V22.9731C54.6727 24.0728 53.0576 24.8889 51.3322 25.3769C49.7143 25.8498 48.046 26.129 46.3623 26.2086Z" fill="#231889"/>
<path d="M54.1416 27.9126C50.6931 29.9411 47.8228 29.7484 46.3115 30.002V32.0305C50.2874 31.7567 54.4966 30.0628 56.0383 28.6124V26.9186C55.4906 26.8375 54.8313 27.5069 54.1416 27.9126Z" fill="white"/>
<path d="M56.0384 34.3023V32.6491C55.4805 32.5882 54.8314 33.2678 54.1417 33.6634C53.1838 34.2228 52.1622 34.6655 51.0989 34.9819C49.5509 35.3919 47.9625 35.63 46.3623 35.6919V37.7204C50.1049 37.4567 54.4764 35.7629 56.0384 34.3023Z" fill="white"/>
<path d="M46.3623 29.15C49.8688 28.9598 53.246 27.7625 56.0891 25.7015V24.0381C55.9765 24.0161 55.8604 24.0202 55.7496 24.0501C55.6388 24.08 55.5364 24.1348 55.4501 24.2105C52.7826 26.239 49.7703 26.9288 46.3218 27.1722L46.3623 29.15Z" fill="white"/>
<path d="M55.3993 47.0111C54.1002 48.0071 52.6236 48.7471 51.0481 49.1918C49.5023 49.6251 47.9143 49.8903 46.3115 49.9829V52.0114C49.8182 51.8144 53.1944 50.6138 56.0383 48.5528V46.8488C55.9264 46.8277 55.8112 46.8312 55.7009 46.8592C55.5905 46.8873 55.4876 46.9391 55.3993 47.0111Z" fill="url(#paint3_linear_216_1748)"/>
<path d="M56.0383 31.4017V29.7383C55.9257 29.7163 55.8096 29.7204 55.6988 29.7503C55.5881 29.7802 55.4856 29.835 55.3994 29.9107C51.4945 32.9028 48.0257 32.5681 46.271 32.8521V34.8806C49.7934 34.6836 53.1845 33.4757 56.0383 31.4017Z" fill="white"/>
<path d="M56.0383 51.3521V49.6988C55.9265 49.6747 55.8106 49.6768 55.6998 49.7049C55.5889 49.7331 55.4861 49.7865 55.3993 49.8611C54.1002 50.857 52.6236 51.597 51.0481 52.0418C49.5021 52.4722 47.9139 52.7341 46.3115 52.8228V54.8006C49.818 54.6104 53.1952 53.4131 56.0383 51.3521Z" fill="url(#paint4_linear_216_1748)"/>
<path d="M55.3994 35.6107C52.7276 37.5014 49.5438 38.5344 46.271 38.5724V40.6009C49.7799 40.4147 53.1591 39.2131 55.9978 37.1423V35.489C55.8951 35.4656 55.7886 35.4643 55.6854 35.4853C55.5822 35.5063 55.4847 35.5491 55.3994 35.6107Z" fill="white"/>
<path d="M56.0384 38.2782C55.5515 38.2174 55.0241 38.8158 54.1417 39.2925C51.7469 40.5914 49.0848 41.3203 46.3623 41.4224V43.451C50.2875 43.1873 54.5373 41.4833 56.0891 40.0329L56.0384 38.2782Z" fill="white"/>
<path d="M47.9647 46.0576C50.9045 45.6954 53.7002 44.5771 56.0788 42.8119V41.1587C55.9677 41.1361 55.8529 41.138 55.7426 41.1643C55.6322 41.1906 55.5289 41.2406 55.4398 41.3108C54.1436 42.3115 52.6661 43.0519 51.0887 43.4915C49.5434 43.9257 47.9549 44.1876 46.3521 44.2725V46.301C46.8954 46.2645 47.4348 46.1831 47.9647 46.0576Z" fill="white"/>
<path d="M55.3994 44.1611C52.742 46.1896 49.6891 46.8793 46.271 47.1227V49.1512C46.4231 49.1512 47.052 49.0904 47.9242 48.9484C50.8628 48.5812 53.6572 47.4634 56.0383 45.7027V44.0393C55.9296 44.0097 55.8155 44.0052 55.7048 44.0263C55.594 44.0473 55.4896 44.0935 55.3994 44.1611Z" fill="white"/>
<path d="M55.4096 23.4194V52.0927C52.749 54.0355 49.5727 55.1472 46.2812 55.2876V55.6933C49.6385 55.5209 53.3811 54.5776 56.008 52.4578V22.9731C55.8356 23.1354 55.6226 23.2774 55.4096 23.4194Z" fill="#231889"/>
<path style="mix-blend-mode:screen" opacity="0.9" d="M48.1879 11.4815C48.695 11.7757 48.411 12.7392 47.3055 13.3782C46.8449 13.6537 46.3328 13.8318 45.8007 13.9016C45.2687 13.9714 44.7279 13.9313 44.212 13.7839C43.7048 13.4898 44.212 12.7696 45.2871 12.1104C46.3622 11.4511 47.6807 11.1975 48.1879 11.4815Z" fill="white"/>
<path d="M28.0448 16.4209C21.5129 20.0824 11.0761 19.981 4.7167 16.1775C1.59277 14.3113 0.0409489 11.9075 0.0510915 9.50366L-0.00976562 54.395C-0.00976562 56.7988 1.53192 59.2127 4.65585 61.079C11.0051 64.8723 21.452 64.9737 27.9839 61.3122C31.3005 59.446 32.9741 56.9712 32.9842 54.4862L33.0349 9.59494C33.0349 12.09 31.3715 14.5648 28.0448 16.4209Z" fill="url(#paint5_linear_216_1748)"/>
<path d="M28.3792 2.9211C22.0299 -0.882385 11.583 -0.983802 5.0511 2.67769C-1.48075 6.33918 -1.62275 12.3639 4.77725 16.1876C11.1773 20.0114 21.5633 20.0926 28.1053 16.4311C34.6473 12.7696 34.7284 6.71445 28.3792 2.9211ZM23.9671 13.9867C19.7478 16.3499 13.0232 16.279 8.92559 13.8346C4.82796 11.3902 4.92939 7.48527 9.13858 5.12204C11.4803 3.96003 14.0636 3.36812 16.6776 3.39456C19.2916 3.421 21.8624 4.06507 24.1801 5.2742C28.2676 7.71857 28.1763 11.6235 23.9671 13.9867Z" fill="white"/>
<path d="M23.9671 12.151C19.7579 14.5142 13.0232 14.4534 8.9256 11.9989C6.89708 10.802 5.88281 9.24005 5.88281 7.68823V9.52405C5.88281 11.0759 6.89708 12.6277 8.9256 13.8347C12.9827 16.279 19.7478 16.35 23.9671 13.9868C26.1072 12.79 27.1823 11.1874 27.1823 9.5849V7.74909C27.1823 9.32119 26.0768 10.9542 23.9671 12.151Z" fill="#171552"/>
<path d="M24.1802 3.4385C20.1231 0.994126 13.358 0.923103 9.14882 3.28634C4.93962 5.64957 4.8382 9.55451 8.92568 11.9989C13.0132 14.4433 19.758 14.5142 23.9672 12.151C28.1764 9.78778 28.2778 5.89302 24.1802 3.4385ZM19.6769 9.58493C18.6916 10.0735 17.6048 10.3227 16.5051 10.3121C15.4053 10.3015 14.3236 10.0315 13.3479 9.52408C11.6236 8.50982 11.6642 6.85655 13.4391 5.86257C14.4238 5.37159 15.5108 5.1211 16.611 5.13168C17.7112 5.14226 18.7932 5.4136 19.7681 5.92343C21.4823 6.94783 21.4417 8.59095 19.6769 9.58493Z" fill="url(#paint6_linear_216_1748)"/>
<path d="M16.8675 5.91322C15.9892 5.42141 15.0035 5.15318 13.9971 5.13221H13.7233C12.6178 5.09832 11.5218 5.34612 10.5385 5.85233C8.76353 6.8666 8.72296 8.48944 10.4472 9.52399C11.409 10.0465 12.4867 10.3186 13.5813 10.3151H17.0399L16.8675 5.91322Z" fill="#231889"/>
<path d="M19.677 7.74895C18.6935 8.23746 17.6084 8.48658 16.5103 8.476C15.4122 8.46543 14.3321 8.19546 13.3582 7.6881C13.0053 7.52451 12.702 7.27031 12.4793 6.95139C12.2566 6.63247 12.1224 6.26022 12.0903 5.87256V7.70837C12.1254 8.09516 12.2608 8.4661 12.4831 8.78451C12.7055 9.10292 13.0071 9.35779 13.3582 9.52391C14.3339 10.0314 15.4156 10.3013 16.5154 10.3119C17.6151 10.3225 18.7018 10.0734 19.6872 9.58477C20.0506 9.4213 20.3642 9.16426 20.5959 8.83995C20.8275 8.51563 20.969 8.13565 21.0057 7.7388V5.90299C20.969 6.30123 20.8265 6.68242 20.5929 7.00701C20.3592 7.3316 20.043 7.58777 19.677 7.74895Z" fill="#231889"/>
<path d="M19.768 4.08754C18.794 3.58019 17.714 3.31022 16.6159 3.29964C15.5177 3.28906 14.4327 3.53818 13.4491 4.02669C11.6742 5.04095 11.6336 6.66379 13.3578 7.6882C14.3318 8.19556 15.4119 8.46553 16.51 8.4761C17.6081 8.48668 18.6932 8.23756 19.6767 7.74905C21.4517 6.75507 21.4922 5.12209 19.768 4.08754Z" fill="url(#paint7_linear_216_1748)"/>
<path d="M18.0645 23.2773V59.5778C22.1925 59.3648 26.8277 58.2085 30.0328 55.5917V19.2913C28.2883 20.648 26.2975 21.6538 24.1703 22.2529C22.1823 22.833 20.1329 23.1768 18.0645 23.2773Z" fill="#171552"/>
<path d="M27.7 25.3769C23.4603 27.9024 19.9104 27.6387 18.0645 27.9532V30.4077C22.9431 30.0831 28.1361 27.9937 30.0328 26.2086V24.1193C29.3532 24.0483 28.5519 24.8799 27.7 25.3769Z" fill="#231889"/>
<path d="M30.0328 33.2373V31.1378C29.3532 31.0668 28.5519 31.8985 27.7 32.3955C26.5002 33.091 25.2193 33.636 23.8863 34.0183C21.9877 34.5558 20.035 34.879 18.0645 34.9818V37.4262C22.7301 37.1219 28.1057 35.0427 30.0328 33.2373Z" fill="url(#paint8_linear_216_1748)"/>
<path d="M18.0645 26.8981C22.3795 26.6616 26.5348 25.1861 30.0328 22.6484V20.6199C29.8942 20.5907 29.7507 20.5938 29.6135 20.629C29.4763 20.6642 29.3491 20.7305 29.2416 20.8227C25.9554 23.3381 22.2432 24.1698 18.0847 24.4639L18.0645 26.8981Z" fill="#231889"/>
<path d="M29.2416 48.8772C27.6458 50.1066 25.8273 51.0158 23.8863 51.5549C21.9881 52.1028 20.0361 52.4429 18.0645 52.5692V54.9628C22.3793 54.7251 26.5343 53.2497 30.0328 50.713V48.6845C29.8947 48.6602 29.7532 48.6648 29.617 48.698C29.4808 48.7312 29.353 48.7922 29.2416 48.8772Z" fill="url(#paint9_linear_216_1748)"/>
<path d="M30.0325 29.6672V27.6387C29.8939 27.6095 29.7505 27.6126 29.6133 27.6478C29.4761 27.683 29.3488 27.7493 29.2414 27.8415C24.4338 31.5233 20.113 31.1074 18.0845 31.4624V33.9271C22.393 33.6809 26.5401 32.2023 30.0325 29.6672Z" fill="url(#paint10_linear_216_1748)"/>
<path d="M30.0328 54.2328V52.2042C29.8941 52.1773 29.7512 52.1816 29.6144 52.2166C29.4776 52.2517 29.3502 52.3168 29.2416 52.4071C27.6458 53.6364 25.8273 54.5456 23.8863 55.0847C21.9877 55.6222 20.035 55.9454 18.0645 56.0483V58.4927C22.3813 58.2571 26.5379 56.7777 30.0328 54.2328Z" fill="url(#paint11_linear_216_1748)"/>
<path d="M29.2414 34.8501C25.9753 37.1637 22.0864 38.4364 18.0845 38.5014V40.9356C22.3922 40.7103 26.5424 39.2412 30.0325 36.7062V34.6776C29.8961 34.6465 29.7544 34.6459 29.6177 34.6757C29.481 34.7055 29.3525 34.765 29.2414 34.8501Z" fill="url(#paint12_linear_216_1748)"/>
<path d="M30.0328 38.1261C29.4343 38.0653 28.7548 38.7956 27.7 39.4143C24.7328 41.0135 21.4336 41.8991 18.0645 42.0006V44.445C22.8822 44.1306 28.1158 42.0412 30.0328 40.2459V38.1261Z" fill="url(#paint13_linear_216_1748)"/>
<path d="M20.0828 47.7211C23.6895 47.2661 27.1171 45.8859 30.0328 43.7148V41.6862C29.8947 41.662 29.7532 41.6665 29.617 41.6997C29.4808 41.7329 29.353 41.7939 29.2416 41.879C27.6487 43.1129 25.8293 44.0226 23.8863 44.5566C21.9888 45.1075 20.0364 45.4476 18.0645 45.5709V48.0051C18.7435 47.9618 19.4182 47.8668 20.0828 47.7211Z" fill="url(#paint14_linear_216_1748)"/>
<path d="M29.2414 45.3782C25.9754 47.8835 22.2125 48.7355 18.0845 49.0195V51.4638C18.267 51.4638 19.0379 51.3928 20.113 51.2306C23.7195 50.7751 27.1471 49.395 30.0629 47.2242V45.1957C29.9211 45.1612 29.7733 45.1598 29.6309 45.1914C29.4885 45.2231 29.3552 45.287 29.2414 45.3782Z" fill="url(#paint15_linear_216_1748)"/>
<path d="M29.2619 19.839V55.1455C26.2191 57.6101 21.9896 58.7664 18.105 59.0707V59.5778C22.233 59.3648 26.8682 58.2085 30.0733 55.5917V19.2913C29.7893 19.4637 29.5154 19.6564 29.2619 19.839Z" fill="#231889"/>
<g opacity="0.9">
<path d="M20.4072 5.11199C21.036 5.47712 20.681 6.67396 19.3118 7.46509C18.7386 7.80983 18.1006 8.03277 17.4375 8.12002C16.7744 8.20727 16.1004 8.15697 15.4576 7.97222C14.8287 7.60708 15.4576 6.67393 16.7964 5.88281C18.1352 5.09168 19.7783 4.74685 20.4072 5.11199Z" fill="white" style="mix-blend-mode:screen"/>
</g>
</g>
<defs>
<linearGradient id="paint0_linear_216_1748" x1="41.8346" y1="30.1405" x2="7.15249" y2="28.4174" gradientUnits="userSpaceOnUse">
<stop stop-color="#E4E7FF"/>
<stop offset="1" stop-color="#2137FF"/>
</linearGradient>
<linearGradient id="paint1_linear_216_1748" x1="46.3352" y1="8.58618" x2="45.1818" y2="12.8872" gradientUnits="userSpaceOnUse">
<stop stop-color="#2137FF"/>
<stop offset="1" stop-color="#0047FF"/>
</linearGradient>
<linearGradient id="paint2_linear_216_1748" x1="44.2286" y1="11.4191" x2="34.9902" y2="10.1115" gradientUnits="userSpaceOnUse">
<stop stop-color="#E4E7FF"/>
<stop offset="1" stop-color="#2137FF"/>
</linearGradient>
<linearGradient id="paint3_linear_216_1748" x1="51.8656" y1="46.8352" x2="51.3136" y2="49.0827" gradientUnits="userSpaceOnUse">
<stop stop-color="#2137FF"/>
<stop offset="1" stop-color="#0047FF"/>
</linearGradient>
<linearGradient id="paint4_linear_216_1748" x1="51.8656" y1="49.6821" x2="51.3251" y2="51.9074" gradientUnits="userSpaceOnUse">
<stop stop-color="#2137FF"/>
<stop offset="1" stop-color="#0047FF"/>
</linearGradient>
<linearGradient id="paint5_linear_216_1748" x1="12.5536" y1="28.087" x2="-30.208" y2="25.9601" gradientUnits="userSpaceOnUse">
<stop stop-color="#E4E7FF"/>
<stop offset="1" stop-color="#2137FF"/>
</linearGradient>
<linearGradient id="paint6_linear_216_1748" x1="18.0674" y1="1.55859" x2="16.6518" y2="6.85227" gradientUnits="userSpaceOnUse">
<stop stop-color="#2137FF"/>
<stop offset="1" stop-color="#0047FF"/>
</linearGradient>
<linearGradient id="paint7_linear_216_1748" x1="15.4913" y1="5.06496" x2="4.11681" y2="3.45328" gradientUnits="userSpaceOnUse">
<stop stop-color="#E4E7FF"/>
<stop offset="1" stop-color="#2137FF"/>
</linearGradient>
<linearGradient id="paint8_linear_216_1748" x1="24.8985" y1="31.1335" x2="24.2345" y2="33.8696" gradientUnits="userSpaceOnUse">
<stop stop-color="#2137FF"/>
<stop offset="1" stop-color="#0047FF"/>
</linearGradient>
<linearGradient id="paint9_linear_216_1748" x1="24.8985" y1="48.6692" x2="24.2343" y2="51.4056" gradientUnits="userSpaceOnUse">
<stop stop-color="#2137FF"/>
<stop offset="1" stop-color="#0047FF"/>
</linearGradient>
<linearGradient id="paint10_linear_216_1748" x1="24.9069" y1="27.6189" x2="24.2388" y2="30.3604" gradientUnits="userSpaceOnUse">
<stop stop-color="#2137FF"/>
<stop offset="1" stop-color="#0047FF"/>
</linearGradient>
<linearGradient id="paint11_linear_216_1748" x1="24.8985" y1="52.1868" x2="24.2319" y2="54.9279" gradientUnits="userSpaceOnUse">
<stop stop-color="#2137FF"/>
<stop offset="1" stop-color="#0047FF"/>
</linearGradient>
<linearGradient id="paint12_linear_216_1748" x1="24.9069" y1="34.6538" x2="24.2441" y2="37.3851" gradientUnits="userSpaceOnUse">
<stop stop-color="#2137FF"/>
<stop offset="1" stop-color="#0047FF"/>
</linearGradient>
<linearGradient id="paint13_linear_216_1748" x1="24.8985" y1="38.1226" x2="24.2286" y2="40.8701" gradientUnits="userSpaceOnUse">
<stop stop-color="#2137FF"/>
<stop offset="1" stop-color="#0047FF"/>
</linearGradient>
<linearGradient id="paint14_linear_216_1748" x1="24.8985" y1="41.6709" x2="24.2262" y2="44.423" gradientUnits="userSpaceOnUse">
<stop stop-color="#2137FF"/>
<stop offset="1" stop-color="#0047FF"/>
</linearGradient>
<linearGradient id="paint15_linear_216_1748" x1="24.9243" y1="45.1687" x2="24.2603" y2="47.9059" gradientUnits="userSpaceOnUse">
<stop stop-color="#2137FF"/>
<stop offset="1" stop-color="#0047FF"/>
</linearGradient>
<clipPath id="clip0_216_1748">
<rect width="58.4824" height="64" fill="white"/>
</clipPath>
</defs>
</svg>
