<svg width="64" height="70" viewBox="0 0 64 70" fill="none" xmlns="http://www.w3.org/2000/svg">
<path d="M49.2827 54.1451L63.8914 45.6533L63.8988 43.7859L49.2901 52.2703L49.2827 54.1451Z" fill="#171552"/>
<path d="M49.2897 52.2702L63.8984 43.7858L32.8724 25.8687L18.2637 34.3604L49.2897 52.2702Z" fill="url(#paint0_linear_216_1833)"/>
<path d="M37.2474 47.1901L49.2829 54.1452L49.2902 52.2704L18.2642 34.3606L18.2568 36.228L37.2474 47.1901Z" fill="#231889"/>
<path d="M31.7624 15.5831C30.9044 15.156 29.9575 14.938 28.9992 14.9469C28.0408 14.9558 27.0981 15.1915 26.2483 15.6346C25.9005 15.7899 25.6124 16.0536 25.4269 16.3862C25.2413 16.7188 25.1684 17.1025 25.219 17.48L21.8738 19.5533L19.2417 18.0314L29.4612 12.0835L34.4312 14.9508L32.4388 16.0978C32.2412 15.8924 32.013 15.7188 31.7624 15.5831Z" fill="url(#paint1_linear_216_1833)"/>
<path d="M31.9832 2.4519V32.2795C32.0341 32.693 31.9966 33.1125 31.8732 33.5103C31.7498 33.9082 31.5433 34.2753 31.2673 34.5873C30.9914 34.8993 30.6523 35.1492 30.2725 35.3203C29.8927 35.4914 29.4809 35.5799 29.0644 35.5799C28.6478 35.5799 28.2361 35.4914 27.8563 35.3203C27.4765 35.1492 27.1374 34.8993 26.8614 34.5873C26.5855 34.2753 26.379 33.9082 26.2556 33.5103C26.1321 33.1125 26.0947 32.693 26.1456 32.2795V2.4519H31.9832Z" fill="white"/>
<path d="M31.4761 13.1125V32.2796C31.4943 32.608 31.4452 32.9366 31.332 33.2454C31.2189 33.5541 31.0439 33.8366 30.8178 34.0755C30.5918 34.3143 30.3194 34.5046 30.0173 34.6346C29.7152 34.7647 29.3898 34.8317 29.0609 34.8317C28.7321 34.8317 28.4066 34.7647 28.1046 34.6346C27.8025 34.5046 27.5301 34.3143 27.3041 34.0755C27.078 33.8366 26.903 33.5541 26.7899 33.2454C26.6767 32.9366 26.6276 32.608 26.6458 32.2796V13.1125H31.4761Z" fill="url(#paint2_linear_216_1833)"/>
<path d="M30.7338 12.0762C31.6969 12.6202 31.7337 13.5025 30.8073 14.0613C30.2774 14.3294 29.6918 14.4691 29.098 14.4691C28.5041 14.4691 27.9185 14.3294 27.3886 14.0613C26.4255 13.5246 26.396 12.6423 27.3224 12.0835C27.8505 11.8144 28.4345 11.6734 29.0272 11.6721C29.6199 11.6709 30.2046 11.8093 30.7338 12.0762Z" fill="#231889"/>
<path d="M32.5712 2.57709V2.0845C32.5418 2.38454 32.4358 2.67199 32.2633 2.91921C32.0907 3.16643 31.8575 3.3651 31.586 3.49611C30.8188 3.89548 29.9683 4.10828 29.1035 4.11722C28.2386 4.12616 27.3839 3.931 26.6086 3.54758C26.3134 3.42158 26.0574 3.21869 25.8673 2.96006C25.6772 2.70142 25.56 2.39652 25.5278 2.07715V2.59915C25.5576 2.91923 25.674 3.22517 25.8643 3.4842C26.0547 3.74323 26.312 3.94558 26.6086 4.06958C27.3828 4.45586 28.2374 4.65325 29.1026 4.64558C29.9677 4.63791 30.8188 4.42541 31.586 4.02546C31.8644 3.89376 32.1025 3.69004 32.2757 3.43539C32.449 3.18073 32.551 2.88441 32.5712 2.57709Z" fill="url(#paint3_linear_216_1833)"/>
<path d="M31.4981 0.56994C32.9023 1.35662 32.9685 2.64324 31.601 3.45933C30.8338 3.8587 29.9833 4.0715 29.1184 4.08044C28.2536 4.08938 27.3988 3.89422 26.6236 3.5108C25.2193 2.72412 25.1531 1.43749 26.5206 0.621405C27.2878 0.222034 28.1384 0.00923624 29.0032 0.000293995C29.868 -0.00864824 30.7228 0.186517 31.4981 0.56994Z" fill="white"/>
<path d="M29.0716 3.55506C29.8641 3.57393 30.6477 3.38375 31.3434 3.00365C31.5418 2.91667 31.7141 2.77931 31.8431 2.60521C31.972 2.4311 32.0532 2.22629 32.0786 2.01111C32.0786 1.65085 31.7698 1.27589 31.2551 0.98916C30.5726 0.642 29.8152 0.467798 29.0495 0.481862C28.2571 0.464027 27.4738 0.654144 26.7777 1.03327C26.5792 1.12025 26.407 1.2576 26.278 1.43171C26.1491 1.60582 26.0678 1.81063 26.0425 2.02581C26.0425 2.38607 26.3513 2.76102 26.8733 3.04776C27.5532 3.39488 28.3082 3.56912 29.0716 3.55506Z" fill="#7FE2F4"/>
<path d="M23.3076 34.8823L25.1604 33.8089V33.4192L23.315 34.4926L23.3076 34.8823Z" fill="#171552"/>
<path d="M23.315 34.4926L25.1604 33.4192L23.3591 32.3826L21.5063 33.456L23.315 34.4926Z" fill="white"/>
<path d="M21.5063 33.4561V33.8531L23.3076 34.8824L23.315 34.4927L21.5063 33.4561Z" fill="#231889"/>
<path d="M23.9842 19.8542L23.9622 33.5145L23.249 33.9262L23.2711 19.8542H23.9842Z" fill="#171552"/>
<path d="M23.271 19.8542L23.249 33.9262L22.6167 33.566L22.6388 19.8542H23.271Z" fill="#231889"/>
<path d="M25.2193 17.4798C25.3013 17.7748 25.4463 18.0485 25.6443 18.2821C25.8423 18.5156 26.0886 18.7035 26.3662 18.8326C27.2261 19.2587 28.1745 19.4755 29.134 19.4652C30.0936 19.455 31.0371 19.2181 31.8877 18.7738C33.1082 18.0386 33.2773 16.9505 32.4391 16.0976L34.4315 14.9507L41.8866 19.2517L39.9236 20.3986C39.7095 20.1748 39.4613 19.9862 39.1884 19.8399C38.3293 19.4156 37.3824 19.1998 36.4243 19.21C35.4662 19.2202 34.5241 19.4562 33.6743 19.8987C32.6376 20.5236 32.3656 21.4059 32.8067 22.1778L29.6968 24.0747L21.8594 19.5531L25.2193 17.4798Z" fill="url(#paint4_linear_216_1833)"/>
<path d="M39.4163 6.85596V36.6836C39.4672 37.097 39.4297 37.5165 39.3063 37.9144C39.1829 38.3122 38.9764 38.6793 38.7004 38.9913C38.4245 39.3034 38.0854 39.5532 37.7056 39.7243C37.3258 39.8955 36.914 39.9839 36.4975 39.9839C36.0809 39.9839 35.6692 39.8955 35.2894 39.7243C34.9096 39.5532 34.5705 39.3034 34.2946 38.9913C34.0186 38.6793 33.8121 38.3122 33.6887 37.9144C33.5653 37.5165 33.5278 37.097 33.5787 36.6836V6.85596H39.4163Z" fill="white"/>
<path d="M38.9163 17.5239V36.713C38.9163 37.3545 38.6615 37.9698 38.2079 38.4234C37.7542 38.877 37.139 39.1319 36.4975 39.1319C35.856 39.1319 35.2407 38.877 34.7871 38.4234C34.3335 37.9698 34.0786 37.3545 34.0786 36.713V17.5239H38.9163Z" fill="url(#paint5_linear_216_1833)"/>
<path d="M38.1664 16.487C39.1295 17.0237 39.1663 17.9133 38.2399 18.4647C37.7105 18.7346 37.1248 18.8752 36.5306 18.8752C35.9364 18.8752 35.3506 18.7346 34.8212 18.4647C33.8581 17.928 33.8287 17.0384 34.755 16.487C35.283 16.2167 35.8676 16.0757 36.4607 16.0757C37.0539 16.0757 37.6385 16.2167 38.1664 16.487Z" fill="#231889"/>
<path d="M40.0189 6.9885V6.49591C39.9926 6.79494 39.8885 7.08188 39.717 7.32823C39.5455 7.57458 39.3124 7.77175 39.0411 7.90016C38.2739 8.29954 37.4234 8.51233 36.5586 8.52128C35.6937 8.53022 34.839 8.33505 34.0637 7.95163C33.7667 7.82734 33.5087 7.62508 33.3172 7.36624C33.1256 7.1074 33.0076 6.80161 32.9756 6.4812V7.01056C33.0077 7.32993 33.1249 7.63483 33.315 7.89346C33.5051 8.1521 33.7611 8.35499 34.0564 8.48098C34.8316 8.86441 35.6864 9.05957 36.5512 9.05063C37.416 9.04169 38.2666 8.82889 39.0338 8.42952C39.3107 8.2978 39.5477 8.09505 39.7208 7.84192C39.8938 7.58879 39.9967 7.29432 40.0189 6.9885Z" fill="url(#paint6_linear_216_1833)"/>
<path d="M38.9309 4.98132C40.3352 5.76064 40.4014 7.05462 39.0339 7.86336C38.2667 8.26273 37.4161 8.47552 36.5513 8.48447C35.6865 8.49341 34.8317 8.29824 34.0565 7.91482C32.6595 7.13549 32.586 5.84152 33.9535 5.03278C34.7207 4.63341 35.5712 4.42061 36.4361 4.41167C37.3009 4.40273 38.1557 4.59789 38.9309 4.98132Z" fill="white"/>
<path d="M36.5047 7.96619C37.2963 7.98458 38.0791 7.79711 38.7765 7.42213C39.2617 7.12805 39.5117 6.77515 39.5117 6.42959C39.5117 6.08404 39.2102 5.69438 38.6882 5.40765C37.9911 5.0676 37.2245 4.89394 36.4489 4.90032C35.6732 4.90669 34.9096 5.09294 34.2181 5.44441C33.7329 5.73849 33.4829 6.0914 33.4829 6.43695C33.4829 6.7825 33.7843 7.17216 34.3063 7.45889C34.985 7.80952 35.741 7.98396 36.5047 7.96619Z" fill="#7FE2F4"/>
<path d="M32.8141 22.1781C33.0504 22.5703 33.3917 22.8886 33.7993 23.0971C34.6579 23.5231 35.605 23.7399 36.5634 23.7297C37.5218 23.7195 38.4642 23.4825 39.3134 23.0383C40.5192 22.3031 40.6956 21.237 39.9016 20.3989L41.8793 19.252L48.7462 23.2295L46.9008 24.2955C46.7878 24.2046 46.6673 24.1234 46.5406 24.0529C45.6826 23.6258 44.7357 23.4077 43.7773 23.4167C42.819 23.4256 41.8763 23.6613 41.0265 24.1044C40.056 24.6925 39.7472 25.5086 40.078 26.2438L36.8357 28.1995L29.6895 24.075L32.8141 22.1781Z" fill="url(#paint7_linear_216_1833)"/>
<path d="M46.7757 11.01V40.8376C46.8266 41.2511 46.7891 41.6706 46.6657 42.0684C46.5423 42.4663 46.3358 42.8334 46.0598 43.1454C45.7838 43.4574 45.4448 43.7073 45.065 43.8784C44.6852 44.0495 44.2734 44.138 43.8569 44.138C43.4403 44.138 43.0285 44.0495 42.6488 43.8784C42.269 43.7073 41.9299 43.4574 41.6539 43.1454C41.378 42.8334 41.1714 42.4663 41.048 42.0684C40.9246 41.6706 40.8872 41.2511 40.9381 40.8376V11.01H46.7757Z" fill="white"/>
<path d="M46.2757 21.6484V40.8375C46.2757 41.1552 46.2131 41.4697 46.0916 41.7632C45.97 42.0566 45.7919 42.3233 45.5672 42.5479C45.3426 42.7725 45.076 42.9507 44.7825 43.0723C44.489 43.1938 44.1745 43.2564 43.8568 43.2564C43.5392 43.2564 43.2247 43.1938 42.9312 43.0723C42.6377 42.9507 42.3711 42.7725 42.1465 42.5479C41.9218 42.3233 41.7437 42.0566 41.6221 41.7632C41.5005 41.4697 41.438 41.1552 41.438 40.8375V21.6484H46.2757Z" fill="url(#paint8_linear_216_1833)"/>
<path d="M45.533 20.6415C46.4962 21.1782 46.5256 22.0678 45.5992 22.6192C45.0713 22.8895 44.4866 23.0305 43.8935 23.0305C43.3004 23.0305 42.7157 22.8895 42.1878 22.6192C41.2247 22.0825 41.1879 21.2002 42.1143 20.6415C42.6437 20.3716 43.2295 20.231 43.8237 20.231C44.4179 20.231 45.0036 20.3716 45.533 20.6415Z" fill="#231889"/>
<path d="M47.3788 11.1422V10.6128C47.354 10.9123 47.2504 11.1999 47.0787 11.4465C46.907 11.6931 46.6732 11.8899 46.401 12.0171C45.6349 12.4199 44.784 12.6347 43.9185 12.6436C43.053 12.6526 42.1978 12.4555 41.4236 12.0686C41.127 11.9436 40.8695 11.7412 40.678 11.4825C40.4866 11.2238 40.3682 10.9183 40.3354 10.5981V11.1275C40.3675 11.4479 40.4855 11.7537 40.6771 12.0125C40.8686 12.2714 41.1265 12.4736 41.4236 12.5979C42.1978 12.9848 43.053 13.1819 43.9185 13.173C44.784 13.164 45.6349 12.9493 46.401 12.5465C46.6723 12.418 46.9053 12.2209 47.0769 11.9745C47.2484 11.7282 47.3525 11.4412 47.3788 11.1422Z" fill="url(#paint9_linear_216_1833)"/>
<path d="M46.2979 9.13488C47.6948 9.92156 47.7683 11.2082 46.4008 12.0169C45.6347 12.4197 44.7838 12.6345 43.9183 12.6434C43.0528 12.6524 42.1976 12.4553 41.4234 12.0684C40.0191 11.2891 39.953 9.99508 41.3204 9.18635C42.0876 8.78698 42.9382 8.57418 43.803 8.56524C44.6678 8.55629 45.5226 8.75146 46.2979 9.13488Z" fill="white"/>
<path d="M43.8714 12.1421C44.6612 12.1573 45.4415 11.9673 46.1359 11.5907C46.3331 11.5019 46.5042 11.3641 46.6329 11.1903C46.7616 11.0165 46.8436 10.8127 46.8711 10.5982C46.8311 10.3712 46.7338 10.1581 46.5884 9.97927C46.443 9.80041 46.2544 9.66168 46.0403 9.57622C45.3432 9.23508 44.5761 9.06143 43.8 9.06909C43.0239 9.07675 42.2604 9.26551 41.5702 9.62034C41.3719 9.70545 41.1995 9.84133 41.0704 10.0143C40.9413 10.1873 40.8601 10.3912 40.835 10.6055C40.835 10.9731 41.1364 11.3407 41.6584 11.6348C42.3429 11.984 43.1032 12.1583 43.8714 12.1421Z" fill="#7FE2F4"/>
<path d="M54.0761 28.3684C53.2181 27.9412 52.2713 27.7232 51.3129 27.7322C50.3545 27.7411 49.4118 27.9768 48.562 28.4199C47.5327 29.0374 47.2607 29.8903 47.6797 30.677L44.4889 32.6106L42.1289 31.2431L36.8647 28.1993L40.107 26.2436C40.3385 26.7026 40.7125 27.0741 41.1731 27.3023C42.0312 27.7301 42.9786 27.9478 43.9373 27.9376C44.896 27.9274 45.8385 27.6895 46.6872 27.2435C48.0474 26.4274 48.1135 25.1702 46.9298 24.3027L48.7458 23.2292L52.3631 25.3173L56.6052 27.7655L54.7084 28.861C54.5217 28.6681 54.3088 28.5023 54.0761 28.3684Z" fill="url(#paint10_linear_216_1833)"/>
<path d="M54.407 15.5095V45.3372C54.4579 45.7506 54.4204 46.1701 54.297 46.5679C54.1736 46.9658 53.9671 47.3329 53.6912 47.6449C53.4152 47.9569 53.0761 48.2068 52.6963 48.3779C52.3166 48.549 51.9048 48.6375 51.4882 48.6375C51.0717 48.6375 50.6599 48.549 50.2801 48.3779C49.9003 48.2068 49.5612 47.9569 49.2853 47.6449C49.0093 47.3329 48.8028 46.9658 48.6794 46.5679C48.556 46.1701 48.5185 45.7506 48.5694 45.3372V15.5095H54.407Z" fill="white"/>
<path d="M53.8926 26.1482V45.3373C53.9108 45.6657 53.8617 45.9943 53.7485 46.3031C53.6354 46.6118 53.4604 46.8943 53.2343 47.1332C53.0083 47.372 52.7359 47.5623 52.4338 47.6923C52.1317 47.8224 51.8063 47.8894 51.4775 47.8894C51.1486 47.8894 50.8232 47.8224 50.5211 47.6923C50.219 47.5623 49.9466 47.372 49.7206 47.1332C49.4945 46.8943 49.3195 46.6118 49.2064 46.3031C49.0932 45.9943 49.0441 45.6657 49.0623 45.3373V26.1482H53.8926Z" fill="url(#paint11_linear_216_1833)"/>
<path d="M53.1576 25.1411C54.1208 25.6778 54.1575 26.5674 53.2312 27.1261C52.7012 27.3943 52.1157 27.534 51.5218 27.534C50.9279 27.534 50.3423 27.3943 49.8124 27.1261C48.8493 26.5894 48.8199 25.7072 49.7462 25.1484C50.2736 24.8769 50.8579 24.7347 51.4511 24.7334C52.0442 24.7321 52.6291 24.8719 53.1576 25.1411Z" fill="#231889"/>
<path d="M55.0023 15.642V15.1126C54.9739 15.412 54.8681 15.6988 54.6954 15.945C54.5227 16.1912 54.289 16.3882 54.0172 16.5169C53.2511 16.9197 52.4002 17.1344 51.5347 17.1434C50.6692 17.1523 49.814 16.9552 49.0397 16.5683C48.7441 16.443 48.4877 16.2403 48.2975 15.9815C48.1073 15.7227 47.9903 15.4175 47.959 15.0979V15.6273C47.9911 15.9466 48.1083 16.2515 48.2984 16.5102C48.4885 16.7688 48.7445 16.9717 49.0397 17.0977C49.814 17.4846 50.6692 17.6817 51.5347 17.6727C52.4002 17.6638 53.2511 17.449 54.0172 17.0462C54.2908 16.92 54.5261 16.7236 54.6991 16.4769C54.8722 16.2303 54.9768 15.9422 55.0023 15.642Z" fill="url(#paint12_linear_216_1833)"/>
<path d="M53.8926 13.6346C55.2968 14.4213 55.363 15.7079 53.9955 16.5167C53.2294 16.9195 52.3785 17.1342 51.513 17.1432C50.6475 17.1521 49.7923 16.955 49.0181 16.5681C47.6138 15.7888 47.5477 14.4948 48.9152 13.6861C49.6823 13.2867 50.5329 13.0739 51.3977 13.065C52.2626 13.056 53.1173 13.2512 53.8926 13.6346Z" fill="white"/>
<path d="M51.4959 16.6416C52.288 16.6567 53.0706 16.4667 53.7677 16.0902C53.9661 16.0032 54.1384 15.8658 54.2674 15.6917C54.3963 15.5176 54.4775 15.3128 54.5029 15.0976C54.463 14.8716 54.3666 14.6594 54.2226 14.4808C54.0786 14.3021 53.8918 14.1627 53.6795 14.0757C52.9981 13.725 52.2399 13.5506 51.4738 13.5684C50.6814 13.5505 49.8981 13.7407 49.202 14.1198C49.0045 14.2061 48.8329 14.3424 48.704 14.5151C48.5751 14.6878 48.4934 14.8911 48.4668 15.105C48.4668 15.4726 48.7756 15.8402 49.2902 16.1343C49.9731 16.4806 50.7303 16.6547 51.4959 16.6416Z" fill="url(#paint13_linear_216_1833)"/>
<path d="M29.0716 3.55506C29.8641 3.57393 30.6477 3.38375 31.3434 3.00365C31.5418 2.91667 31.7141 2.77931 31.8431 2.60521C31.972 2.4311 32.0532 2.22629 32.0786 2.01111C32.0786 1.65085 31.7698 1.27589 31.2551 0.98916C30.5726 0.642 29.8152 0.467798 29.0495 0.481862C28.2571 0.464027 27.4738 0.654144 26.7777 1.03327C26.5792 1.12025 26.407 1.2576 26.278 1.43171C26.1491 1.60582 26.0678 1.81063 26.0425 2.02581C26.0425 2.38607 26.3513 2.76102 26.8733 3.04776C27.5532 3.39488 28.3082 3.56912 29.0716 3.55506Z" fill="url(#paint14_linear_216_1833)"/>
<path d="M36.4826 4.91493C35.6934 4.89749 34.9132 5.08494 34.2181 5.45899C33.7329 5.75308 33.4829 6.10598 33.4829 6.45153C33.4829 6.79708 33.7843 7.18674 34.3063 7.47348C35.0007 7.81922 35.7658 7.99917 36.5414 7.99917C37.3171 7.99917 38.0821 7.81922 38.7765 7.47348C39.2617 7.17939 39.5117 6.82649 39.5117 6.48094C39.5117 6.13539 39.2102 5.74573 38.6882 5.45899C38.0106 5.0947 37.2519 4.90756 36.4826 4.91493Z" fill="url(#paint15_linear_216_1833)"/>
<path d="M43.8714 12.1421C44.6612 12.1573 45.4415 11.9673 46.1359 11.5907C46.3331 11.5019 46.5042 11.3641 46.6329 11.1903C46.7616 11.0165 46.8436 10.8127 46.8711 10.5982C46.8311 10.3712 46.7338 10.1581 46.5884 9.97927C46.443 9.80041 46.2544 9.66168 46.0403 9.57622C45.3432 9.23508 44.5761 9.06143 43.8 9.06909C43.0239 9.07675 42.2604 9.26551 41.5702 9.62034C41.3719 9.70545 41.1995 9.84133 41.0704 10.0143C40.9413 10.1873 40.8601 10.3912 40.835 10.6055C40.835 10.9731 41.1364 11.3407 41.6584 11.6348C42.3429 11.984 43.1032 12.1583 43.8714 12.1421Z" fill="url(#paint16_linear_216_1833)"/>
<path d="M50.2383 50.3513L52.0837 49.2779V48.8809L50.2383 49.9543V50.3513Z" fill="#171552"/>
<path d="M50.2383 49.9543L52.0837 48.8809L50.2824 47.8516L48.437 48.925L50.2383 49.9543Z" fill="white"/>
<path d="M48.437 48.9248L48.4297 49.3145L50.2383 50.3511V49.9541L48.437 48.9248Z" fill="#231889"/>
<path d="M50.1724 49.3955L50.8855 48.9764L50.9149 32.6841L50.2018 33.1032L50.1724 49.3955Z" fill="#171552"/>
<path d="M50.2016 33.1031L50.9148 32.684L50.2825 32.3237L49.5693 32.7355L50.2016 33.1031Z" fill="#0A2A44"/>
<path d="M49.5694 32.7356L49.5474 49.0279L50.1723 49.3955L50.2017 33.1032L49.5694 32.7356Z" fill="#231889"/>
<path d="M58.6348 45.4695L60.4802 44.396V43.999L58.6348 45.0798V45.4695Z" fill="#171552"/>
<path d="M58.6348 45.0798L60.4802 43.999L58.6789 42.9697L56.8262 44.0431L58.6348 45.0798Z" fill="white"/>
<path d="M56.8262 44.0432V44.4402L58.6348 45.4695V45.0799L56.8262 44.0432Z" fill="#231889"/>
<path d="M59.3041 30.9783L59.282 44.1018L58.5688 44.5136L58.5909 30.9783H59.3041Z" fill="#171552"/>
<path d="M58.5909 30.9783L58.5688 44.5136L57.9365 44.1533L57.9586 30.9783H58.5909Z" fill="#231889"/>
<path d="M50.2529 36.9926L60.4798 31.0374V29.9934L50.2603 35.9486L50.2529 36.9926Z" fill="#171552"/>
<path d="M19.2344 18.0312L19.2271 19.0753L50.2531 36.9924L50.2604 35.9484L19.2344 18.0312Z" fill="#231889"/>
<path d="M47.68 30.6768C47.9186 31.078 48.265 31.404 48.6799 31.6179C49.5379 32.0457 50.4853 32.2634 51.444 32.2532C52.4027 32.2429 53.3453 32.005 54.194 31.5591C55.4291 30.8239 55.5909 29.7137 54.7233 28.8608L56.6202 27.7654L60.5095 30.0225L50.29 35.9704L44.5186 32.6398L47.68 30.6768Z" fill="white"/>
<path d="M53.6792 14.333C52.9966 13.9858 52.2392 13.8116 51.4735 13.8257C50.6811 13.8079 49.8978 13.998 49.2017 14.3771C49.0256 14.4569 48.8688 14.5738 48.7419 14.7197C48.6151 14.8656 48.5211 15.0371 48.4665 15.2226C48.4623 15.1835 48.4623 15.1441 48.4665 15.105C48.4931 14.8911 48.5749 14.6878 48.7038 14.5151C48.8327 14.3424 49.0043 14.2061 49.2017 14.1198C49.8978 13.7407 50.6811 13.5505 51.4735 13.5684C52.2396 13.5506 52.9979 13.725 53.6792 14.0757C53.8915 14.1627 54.0783 14.3021 54.2223 14.4808C54.3663 14.6594 54.4627 14.8716 54.5026 15.0976C54.5062 15.1466 54.5062 15.1957 54.5026 15.2447C54.4392 15.0423 54.3328 14.8561 54.1907 14.6987C54.0486 14.5414 53.8741 14.4166 53.6792 14.333Z" fill="#231889"/>
<path d="M38.6884 5.67938C38.0074 5.32784 37.2489 5.15339 36.4828 5.17208C35.6925 5.15311 34.9113 5.34334 34.2183 5.72349C34.0419 5.8029 33.8849 5.91961 33.7579 6.06558C33.631 6.21154 33.5372 6.38329 33.4831 6.56899C33.4796 6.52985 33.4796 6.49048 33.4831 6.45135C33.4831 6.1058 33.7331 5.71614 34.2183 5.45881C34.9098 5.10735 35.6734 4.9211 36.449 4.91472C37.2247 4.90834 37.9912 5.08201 38.6884 5.42205C39.2104 5.70879 39.5119 6.08374 39.5119 6.444C39.5154 6.49049 39.5154 6.53719 39.5119 6.58369C39.4475 6.38269 39.3407 6.1979 39.1986 6.04186C39.0565 5.88582 38.8825 5.76219 38.6884 5.67938Z" fill="#231889"/>
<path d="M46.0478 9.83365C45.3669 9.48182 44.6083 9.30734 43.8422 9.32635C43.0495 9.30679 42.2658 9.49701 41.5703 9.87776C41.3948 9.9584 41.2384 10.0755 41.1116 10.2213C40.9849 10.3671 40.8906 10.5382 40.8351 10.7233C40.831 10.6842 40.831 10.6447 40.8351 10.6056C40.8603 10.3913 40.9415 10.1874 41.0706 10.0144C41.1996 9.84144 41.372 9.70555 41.5703 9.62044C42.2658 9.23969 43.0495 9.04946 43.8422 9.06903C44.6083 9.05002 45.3669 9.2245 46.0478 9.57633C46.2619 9.66178 46.4506 9.80052 46.596 9.97937C46.7414 10.1582 46.8386 10.3713 46.8786 10.5983C46.8821 10.6472 46.8821 10.6964 46.8786 10.7453C46.8144 10.5423 46.7069 10.3556 46.5634 10.1982C46.42 10.0408 46.244 9.91639 46.0478 9.83365Z" fill="#231889"/>
<path d="M31.2552 1.23867C30.5726 0.891513 29.8152 0.717311 29.0496 0.731374C28.2571 0.71354 27.4738 0.903657 26.7777 1.28278C26.6016 1.36261 26.4448 1.47945 26.3179 1.62536C26.1911 1.77126 26.0971 1.9428 26.0425 2.12828C26.0392 2.09159 26.0392 2.05468 26.0425 2.018C26.0693 1.80327 26.1511 1.59909 26.2799 1.42521C26.4087 1.25133 26.5801 1.11364 26.7777 1.02546C27.4738 0.646331 28.2571 0.456215 29.0496 0.474049C29.8152 0.459986 30.5726 0.634188 31.2552 0.981347C31.4675 1.0684 31.6544 1.20775 31.7983 1.38643C31.9423 1.56512 32.0387 1.77732 32.0786 2.00329C32.0822 2.05224 32.0822 2.10139 32.0786 2.15034C32.0152 1.94799 31.9088 1.76175 31.7667 1.60439C31.6246 1.44703 31.4501 1.32227 31.2552 1.23867Z" fill="#231889"/>
<path opacity="0.8" d="M47.6612 51.7892C46.8251 48.3533 44.5574 45.7993 42.4157 43.0964L42.7135 43.5087C39.8388 39.523 36.5747 35.7664 33.5511 31.9182H14.3673C11.3093 35.7664 8.04522 39.523 5.20488 43.5087L5.50263 43.0964C3.36092 45.7993 1.09324 48.3533 0.257165 51.7892C-0.188327 53.9097 -0.0531845 56.1111 0.648311 58.1611C1.34981 60.2112 2.59166 62.0339 4.24283 63.4369C9.41959 68.2128 17.0358 69.9651 23.9763 69.9995C30.9169 70.0338 38.5331 68.2128 43.6984 63.4369C45.3475 62.0329 46.5864 60.2092 47.2839 58.1588C47.9815 56.1084 48.1119 53.9076 47.6612 51.7892Z" fill="white"/>
<path opacity="0.8" d="M33.5052 22.7097H14.3672V36.0868H33.5052V22.7097Z" fill="white"/>
<path opacity="0.1" d="M32.2914 11.1763C36.7352 13.8563 36.5863 18.1169 31.9593 20.6938C27.3322 23.2707 20.0138 23.1562 15.5356 20.522C11.0575 17.8878 11.2522 13.5929 15.8793 11.016C20.5063 8.43907 27.8591 8.50779 32.2914 11.1763Z" fill="white"/>
<path opacity="0.8" d="M23.8847 20.9573C21.2644 21.0153 18.6744 20.3876 16.3715 19.1362C14.7795 18.1742 13.9091 17.006 13.9205 15.8378C13.932 14.6695 14.9398 13.3868 16.6692 12.4018C18.9194 11.2434 21.4231 10.6647 23.9534 10.7183C26.577 10.6685 29.1677 11.3083 31.4665 12.5736C33.07 13.5357 33.9404 14.7039 33.9175 15.8721C33.8946 17.0403 32.8982 18.3116 31.1802 19.308C28.9236 20.4565 26.4159 21.0234 23.8847 20.9573Z" fill="url(#paint17_linear_216_1833)"/>
<path d="M16.6693 13.8565C18.9195 12.698 21.4231 12.1193 23.9534 12.1729C26.574 12.1127 29.1645 12.7406 31.4666 13.9939C32.5083 14.542 33.3204 15.4435 33.7572 16.5365C33.8279 16.3219 33.8665 16.0981 33.8718 15.8722C33.8718 14.7269 33.0242 13.5816 31.4208 12.5738C29.122 11.3223 26.5357 10.6945 23.9191 10.7527C21.3888 10.6992 18.8851 11.2778 16.6349 12.4363C14.9055 13.3869 13.9091 14.6353 13.8862 15.8722C13.8889 16.1292 13.9314 16.3842 14.0122 16.6281C14.5099 15.3978 15.4611 14.4056 16.6693 13.8565Z" fill="#231889"/>
<path d="M12.3174 19.1707V15.8837C12.3174 17.5558 13.394 19.2279 15.5471 20.5221C19.9909 23.2021 27.3437 23.2709 31.9708 20.6939C34.353 19.3654 35.5441 17.5902 35.5441 15.8149V19.102C35.5441 20.8657 34.3988 22.6409 31.9708 23.9695C27.3896 26.5464 20.0023 26.4777 15.5586 23.8091C13.394 22.5035 12.3174 20.8657 12.3174 19.1707Z" fill="url(#paint18_linear_216_1833)"/>
<path d="M43.9851 47.0128L38.774 40.5418C37.9191 39.5444 36.9005 38.7001 35.7618 38.0451C29.52 34.2885 19.1893 34.1854 12.684 37.816C11.3318 38.5299 10.1332 39.5028 9.15648 40.6793L8.64111 41.3321C8.55085 41.4339 8.46671 41.541 8.38914 41.6528L7.86232 42.3056L7.34692 42.947C7.26675 43.05 7.16367 43.176 7.09495 43.2791L6.56812 43.9319L6.05272 44.5733L5.80075 44.9054L5.28539 45.5582L4.75852 46.1996C4.68981 46.3027 4.58673 46.4287 4.50656 46.5318L3.99119 47.1846C3.23817 48.1286 2.60708 49.1637 2.11288 50.2654C1.61546 51.4016 1.31344 52.6135 1.21955 53.8502C1.08544 56.2747 1.85691 58.6625 3.38418 60.5502C5.26906 62.8185 7.67355 64.5983 10.3934 65.7384C11.952 66.4315 13.5695 66.9834 15.2266 67.3877C16.8477 67.7785 18.4929 68.0617 20.1514 68.2352C22.4042 68.4723 24.6744 68.4953 26.9316 68.3039C29.1279 68.1312 31.3025 67.7477 33.4254 67.1586C36.8514 66.2695 40.0439 64.6479 42.7825 62.4056C43.8981 61.5068 44.8254 60.3966 45.5113 59.1388C46.1972 57.8811 46.6282 56.5003 46.7796 55.0757C46.9215 52.1284 45.9205 49.2401 43.9851 47.0128Z" fill="#231889"/>
<path d="M46.2757 51.1247C45.7637 49.6423 44.9876 48.2648 43.9851 47.0588L38.774 40.5879C41.6372 44.1383 40.4347 48.5134 35.2693 51.3995C28.764 55.0301 18.4334 54.9271 12.1915 51.1705C7.40417 48.2843 6.46502 44.0925 9.14502 40.6681L8.62962 41.3209C8.53936 41.4227 8.45522 41.5298 8.37765 41.6416L7.85083 42.2944L7.33543 42.9358C7.25526 43.0388 7.15218 43.1648 7.08346 43.2679L6.55663 43.9207L6.04123 44.5621L5.78926 44.8942L5.2739 45.547L4.74707 46.1884C4.67835 46.2915 4.57527 46.4175 4.4951 46.5206L3.9797 47.1734C2.83029 48.5785 1.99812 50.2155 1.5402 51.9722C1.32902 52.8223 1.22892 53.6962 1.24241 54.572C1.26056 55.2911 1.36047 56.0058 1.5402 56.7023C1.74642 57.5036 2.05838 58.2739 2.46789 58.9929C2.82921 59.6868 3.25892 60.3429 3.75063 60.9513C4.94484 62.315 6.35286 63.4755 7.91954 64.3873C9.29566 65.2114 10.7496 65.8981 12.2602 66.4373C13.26 66.8046 14.2812 67.1106 15.3182 67.3536C16.3833 67.617 17.4026 67.8117 18.5479 67.9835C23.0038 68.6217 27.5379 68.4588 31.9365 67.5025C34.0857 67.0303 36.1755 66.3196 38.167 65.3837C39.1201 64.9281 40.0387 64.4036 40.9157 63.8146C41.463 63.462 41.9907 63.0797 42.4962 62.6693C43.7045 61.6768 44.728 60.4787 45.5198 59.1303C46.2204 57.9291 46.651 56.5896 46.7815 55.2051C46.9121 53.8206 46.7394 52.4243 46.2757 51.1132V51.1247Z" fill="url(#paint19_linear_216_1833)"/>
<g style="mix-blend-mode:screen" opacity="0.2">
<path d="M13.1419 48.9599C11.5271 51.1475 8.89285 51.9377 7.26653 50.7352C5.6402 49.5326 5.62874 46.7839 7.26653 44.5963C8.90431 42.4088 11.5156 41.6186 13.1419 42.8211C14.7683 44.0237 14.7797 46.7724 13.1419 48.9599Z" fill="white"/>
</g>
<g style="mix-blend-mode:screen" opacity="0.4">
<path d="M11.4238 55.8775C11.221 56.1557 10.9443 56.3715 10.6252 56.5006C10.3061 56.6297 9.95721 56.6668 9.61805 56.6079C9.27889 56.549 8.96302 56.3963 8.70616 56.1671C8.4493 55.9379 8.26171 55.6414 8.16465 55.3111C8.06759 54.9808 8.06493 54.63 8.15696 54.2983C8.24899 53.9666 8.43202 53.6672 8.68536 53.4342C8.93871 53.2011 9.25225 53.0436 9.59047 52.9795C9.9287 52.9154 10.2781 52.9473 10.5991 53.0715C11.073 53.3416 11.4237 53.7849 11.5775 54.3082C11.7312 54.8314 11.6762 55.394 11.4238 55.8775Z" fill="white"/>
</g>
<defs>
<linearGradient id="paint0_linear_216_1833" x1="55.7019" y1="37.5709" x2="13.8624" y2="60.5563" gradientUnits="userSpaceOnUse">
<stop stop-color="#E4E7FF"/>
<stop offset="1" stop-color="#2137FF"/>
</linearGradient>
<linearGradient id="paint1_linear_216_1833" x1="31.703" y1="15.3944" x2="18.9152" y2="23.6592" gradientUnits="userSpaceOnUse">
<stop stop-color="#E4E7FF"/>
<stop offset="1" stop-color="#2137FF"/>
</linearGradient>
<linearGradient id="paint2_linear_216_1833" x1="29.4045" y1="13.1125" x2="25.4905" y2="15.0012" gradientUnits="userSpaceOnUse">
<stop stop-color="#2137FF"/>
<stop offset="1" stop-color="#0047FF"/>
</linearGradient>
<linearGradient id="paint3_linear_216_1833" x1="31.3061" y1="3.21568" x2="26.5284" y2="7.3795" gradientUnits="userSpaceOnUse">
<stop stop-color="#E4E7FF"/>
<stop offset="1" stop-color="#2137FF"/>
</linearGradient>
<linearGradient id="paint4_linear_216_1833" x1="38.2895" y1="18.9948" x2="22.2115" y2="30.2116" gradientUnits="userSpaceOnUse">
<stop stop-color="#E4E7FF"/>
<stop offset="1" stop-color="#2137FF"/>
</linearGradient>
<linearGradient id="paint5_linear_216_1833" x1="36.841" y1="17.5239" x2="32.9347" y2="19.4187" gradientUnits="userSpaceOnUse">
<stop stop-color="#2137FF"/>
<stop offset="1" stop-color="#0047FF"/>
</linearGradient>
<linearGradient id="paint6_linear_216_1833" x1="38.7539" y1="7.62021" x2="33.9745" y2="11.7838" gradientUnits="userSpaceOnUse">
<stop stop-color="#E4E7FF"/>
<stop offset="1" stop-color="#2137FF"/>
</linearGradient>
<linearGradient id="paint7_linear_216_1833" x1="45.3234" y1="23.2179" x2="29.7257" y2="33.7764" gradientUnits="userSpaceOnUse">
<stop stop-color="#E4E7FF"/>
<stop offset="1" stop-color="#2137FF"/>
</linearGradient>
<linearGradient id="paint8_linear_216_1833" x1="44.2004" y1="21.6484" x2="40.294" y2="23.5432" gradientUnits="userSpaceOnUse">
<stop stop-color="#2137FF"/>
<stop offset="1" stop-color="#0047FF"/>
</linearGradient>
<linearGradient id="paint9_linear_216_1833" x1="46.1137" y1="11.7395" x2="41.3257" y2="15.9019" gradientUnits="userSpaceOnUse">
<stop stop-color="#E4E7FF"/>
<stop offset="1" stop-color="#2137FF"/>
</linearGradient>
<linearGradient id="paint10_linear_216_1833" x1="53.0596" y1="27.3874" x2="36.7801" y2="38.2751" gradientUnits="userSpaceOnUse">
<stop stop-color="#E4E7FF"/>
<stop offset="1" stop-color="#2137FF"/>
</linearGradient>
<linearGradient id="paint11_linear_216_1833" x1="51.821" y1="26.1482" x2="47.9055" y2="28.0357" gradientUnits="userSpaceOnUse">
<stop stop-color="#2137FF"/>
<stop offset="1" stop-color="#0047FF"/>
</linearGradient>
<linearGradient id="paint12_linear_216_1833" x1="53.7373" y1="16.2393" x2="48.9492" y2="20.4017" gradientUnits="userSpaceOnUse">
<stop stop-color="#E4E7FF"/>
<stop offset="1" stop-color="#2137FF"/>
</linearGradient>
<linearGradient id="paint13_linear_216_1833" x1="53.4187" y1="14.9302" x2="48.2327" y2="18.1655" gradientUnits="userSpaceOnUse">
<stop stop-color="#E4E7FF"/>
<stop offset="1" stop-color="#2137FF"/>
</linearGradient>
<linearGradient id="paint14_linear_216_1833" x1="30.9944" y1="1.84395" x2="25.808" y2="5.07906" gradientUnits="userSpaceOnUse">
<stop stop-color="#E4E7FF"/>
<stop offset="1" stop-color="#2137FF"/>
</linearGradient>
<linearGradient id="paint15_linear_216_1833" x1="38.4288" y1="6.28137" x2="33.2361" y2="9.50631" gradientUnits="userSpaceOnUse">
<stop stop-color="#E4E7FF"/>
<stop offset="1" stop-color="#2137FF"/>
</linearGradient>
<linearGradient id="paint16_linear_216_1833" x1="45.7869" y1="10.4315" x2="40.6018" y2="13.6672" gradientUnits="userSpaceOnUse">
<stop stop-color="#E4E7FF"/>
<stop offset="1" stop-color="#2137FF"/>
</linearGradient>
<linearGradient id="paint17_linear_216_1833" x1="30.3262" y1="15.257" x2="13.0891" y2="25.948" gradientUnits="userSpaceOnUse">
<stop stop-color="#E4E7FF"/>
<stop offset="1" stop-color="#2137FF"/>
</linearGradient>
<linearGradient id="paint18_linear_216_1833" x1="25.5801" y1="15.8149" x2="24.6927" y2="20.2614" gradientUnits="userSpaceOnUse">
<stop stop-color="#2137FF"/>
<stop offset="1" stop-color="#0047FF"/>
</linearGradient>
<linearGradient id="paint19_linear_216_1833" x1="27.2694" y1="40.5879" x2="23.9359" y2="52.4391" gradientUnits="userSpaceOnUse">
<stop stop-color="#2137FF"/>
<stop offset="1" stop-color="#0047FF"/>
</linearGradient>
</defs>
</svg>
