<svg width="491" height="108" viewBox="0 0 491 108" fill="none" xmlns="http://www.w3.org/2000/svg">
<path d="M16.6159 98.4284C11.9 87.9372 24.847 78.4029 33.6033 82.24C33.6033 82.24 29.513 63.6102 51.137 62.1279C51.137 62.1279 55.6711 41.5503 67.7465 47.6556C67.7465 47.6556 66.7737 7.97551 106.301 0.75566C145.829 -6.4642 155.584 39.8996 156.868 61.1282C157.629 56.0244 173.789 46.375 181.453 63.0021C223.954 53.9999 237.905 78.8691 289.873 83.4031C353.732 88.9747 396.772 77.8227 413.129 89.3744C413.129 102.586 34.2215 118.629 16.6159 98.4284Z" fill="#E6F0FF"/>
<path d="M15.6514 94.6771C15.7428 95.899 16.0446 97.1556 16.6165 98.4278C34.222 118.629 413.129 102.585 413.129 89.3738C407.636 85.4942 399.064 84.2008 387.773 83.9492C336.1 97.8126 226.963 86.7733 199.541 85.3789C172.104 83.9838 102.814 104.91 66.5417 94.9121C35.7586 86.4269 19.3029 86.9717 15.6514 94.6771Z" fill="#D2E1FA"/>
<path d="M155.304 48.1445C151.271 25.356 138.94 -5.20564 106.302 0.75587C97.9473 2.28193 91.4187 5.26762 86.291 9.01285C76.1776 28.8281 96.5895 48.0186 115.487 43.2943C115.487 43.2943 145.115 77.231 155.304 48.1445Z" fill="#FAFAFA"/>
<path d="M119.456 57.5027C119.456 61.4808 113.089 62.397 105.235 62.397C97.3807 62.397 91.0137 61.4808 91.0137 57.5027C91.0137 53.5247 97.3807 50.2998 105.235 50.2998C113.089 50.2998 119.456 53.5247 119.456 57.5027Z" fill="#FAFAFA"/>
<path d="M61.8911 87.0069C90.258 95.3775 130.716 92.3547 128.158 85.1467C125.6 77.9388 108.394 79.1013 108.394 79.1013C104.209 66.0805 88.8173 65.8479 83.6085 69.8007C78.3997 73.7535 77.0046 81.4265 77.0046 81.4265C61.4261 76.5437 61.8911 87.0069 61.8911 87.0069Z" fill="#FAFAFA"/>
<path d="M162.728 55.2203C163.577 65.4161 181.398 76.5297 181.454 63.0026C176.594 52.4585 168.327 52.4906 162.728 55.2203Z" fill="#FAFAFA"/>
<path d="M208.958 70.6737C233.372 76.9516 246.978 81.854 266.159 79.5482C266.168 79.5472 266.173 79.5449 266.182 79.5439C237.615 72.618 222.007 60.321 196.712 61.1008C190.33 62.8312 189.815 65.7512 208.958 70.6737Z" fill="#FAFAFA"/>
<path d="M141.121 82.6726C159.606 79.3592 176.521 80.3058 178.614 77.827C180.707 75.3483 161.35 73.2557 161.35 73.2557C158.036 65.0595 144.26 66.2802 144.783 73.2557C144.783 73.2557 141.906 72.5581 139.638 75.7843C137.371 79.0104 141.121 82.6726 141.121 82.6726Z" fill="#FAFAFA"/>
<path d="M128.124 68.1181C127.769 66.3767 126.171 65.0615 124.249 65.0615C122.066 65.0615 120.297 66.7566 120.297 68.8477C120.297 70.9387 122.066 72.6339 124.249 72.6339C124.324 72.6339 124.394 72.6167 124.468 72.6127C125.277 73.1334 126.417 73.4629 127.691 73.4629C130.14 73.4629 132.125 72.2605 132.125 70.7773C132.125 69.384 130.367 68.2519 128.124 68.1181Z" fill="#FAFAFA"/>
<path d="M50.0914 80.6128C53.1733 80.6128 55.6717 79.0122 55.6717 77.0378C55.6717 75.0634 53.1733 73.4629 50.0914 73.4629C47.0094 73.4629 44.511 75.0634 44.511 77.0378C44.511 79.0122 47.0094 80.6128 50.0914 80.6128Z" fill="#FAFAFA"/>
<path d="M68.635 49.5729C57.0092 45.7364 53.8703 58.9898 55.6722 63.4077C57.4742 67.8255 68.635 68.7555 68.635 68.7555C70.8439 64.919 84.3298 60.4128 84.3298 60.4128C80.1445 42.5975 68.635 49.5729 68.635 49.5729Z" fill="#FAFAFA"/>
<path d="M430.561 89.681C456.371 93.1688 490.899 89.681 490.899 89.681C484.97 84.1007 454.627 85.4958 454.627 85.4958C451.594 72.978 433.875 83.9498 430.561 89.681Z" fill="#FAFAFA"/>
<path d="M208.491 25.3902C207.969 22.8315 205.621 20.8989 202.797 20.8989C199.59 20.8989 196.99 23.3896 196.99 26.4622C196.99 29.5346 199.59 32.0255 202.797 32.0255C202.908 32.0255 203.01 32.0003 203.119 31.9944C204.308 32.7594 205.983 33.2437 207.854 33.2437C211.453 33.2437 214.371 31.4769 214.371 29.2974C214.371 27.2503 211.787 25.5868 208.491 25.3902Z" fill="#FAFAFA"/>
<path d="M17.3741 42.5342C17.8963 39.9754 20.2444 38.043 23.0682 38.043C26.2752 38.043 28.8751 40.5337 28.8751 43.6062C28.8751 46.6786 26.2752 49.1694 23.0682 49.1694C22.9579 49.1694 22.8552 49.1442 22.7463 49.1383C21.5578 49.9034 19.8827 50.3877 18.0113 50.3877C14.4124 50.3877 0 48.621 0 46.4415C-2.79019e-07 44.3942 14.0788 42.7307 17.3741 42.5342Z" fill="#FAFAFA"/>
</svg>
