<svg width="491" height="108" viewBox="0 0 491 108" fill="none" xmlns="http://www.w3.org/2000/svg">
<path d="M474.283 98.4284C478.999 87.9372 466.052 78.4029 457.296 82.24C457.296 82.24 461.386 63.6102 439.762 62.1279C439.762 62.1279 435.228 41.5503 423.152 47.6556C423.152 47.6556 424.125 7.97551 384.598 0.75566C345.07 -6.4642 335.314 39.8996 334.03 61.1282C333.27 56.0244 317.11 46.375 309.446 63.0021C266.945 53.9999 252.994 78.8691 201.026 83.4031C137.167 88.9747 94.1271 77.8227 77.7704 89.3744C77.7704 102.586 456.677 118.629 474.283 98.4284Z" fill="#E6F0FF"/>
<path d="M475.248 94.6773C475.156 95.8992 474.854 97.1559 474.282 98.428C456.677 118.629 77.7698 102.585 77.7698 89.374C83.2633 85.4944 91.8345 84.201 103.126 83.9495C154.799 97.8129 263.935 86.7735 291.358 85.3791C318.795 83.984 388.085 104.91 424.357 94.9123C455.14 86.4272 471.596 86.9719 475.248 94.6773Z" fill="#D2E1FA"/>
<path d="M335.595 48.1445C339.628 25.356 351.959 -5.20564 384.597 0.75587C392.952 2.28193 399.48 5.26762 404.608 9.01285C414.721 28.8281 394.309 48.0186 375.412 43.2943C375.412 43.2943 345.784 77.231 335.595 48.1445Z" fill="#FAFAFA"/>
<path d="M371.443 57.5027C371.443 61.4808 377.81 62.397 385.664 62.397C393.518 62.397 399.885 61.4808 399.885 57.5027C399.885 53.5247 393.518 50.2998 385.664 50.2998C377.81 50.2998 371.443 53.5247 371.443 57.5027Z" fill="#FAFAFA"/>
<path d="M429.008 87.0069C400.641 95.3775 360.183 92.3547 362.741 85.1467C365.298 77.9388 382.505 79.1013 382.505 79.1013C386.69 66.0805 402.082 65.8479 407.29 69.8007C412.499 73.7535 413.894 81.4265 413.894 81.4265C429.473 76.5437 429.008 87.0069 429.008 87.0069Z" fill="#FAFAFA"/>
<path d="M328.171 55.2203C327.322 65.4161 309.501 76.5297 309.445 63.0026C314.305 52.4585 322.572 52.4906 328.171 55.2203Z" fill="#FAFAFA"/>
<path d="M281.941 70.6737C257.527 76.9516 243.921 81.854 224.74 79.5482C224.731 79.5472 224.726 79.5449 224.717 79.5439C253.284 72.618 268.892 60.321 294.187 61.1008C300.569 62.8312 301.084 65.7512 281.941 70.6737Z" fill="#FAFAFA"/>
<path d="M349.778 82.6726C331.293 79.3592 314.378 80.3058 312.285 77.827C310.192 75.3483 329.549 73.2557 329.549 73.2557C332.863 65.0595 346.639 66.2802 346.116 73.2557C346.116 73.2557 348.993 72.5581 351.26 75.7843C353.527 79.0104 349.778 82.6726 349.778 82.6726Z" fill="#FAFAFA"/>
<path d="M362.775 68.1179C363.13 66.3765 364.728 65.0613 366.65 65.0613C368.832 65.0613 370.602 66.7564 370.602 68.8475C370.602 70.9384 368.832 72.6337 366.65 72.6337C366.575 72.6337 366.505 72.6165 366.431 72.6125C365.622 73.1331 364.482 73.4627 363.208 73.4627C360.759 73.4627 358.774 72.2603 358.774 70.777C358.774 69.3837 360.532 68.2517 362.775 68.1179Z" fill="#FAFAFA"/>
<path d="M440.808 80.613C437.726 80.613 435.227 79.0124 435.227 77.0381C435.227 75.0637 437.726 73.4631 440.808 73.4631C443.89 73.4631 446.388 75.0637 446.388 77.0381C446.388 79.0124 443.89 80.613 440.808 80.613Z" fill="#FAFAFA"/>
<path d="M422.264 49.5729C433.89 45.7364 437.029 58.9898 435.227 63.4077C433.425 67.8255 422.264 68.7555 422.264 68.7555C420.055 64.919 406.569 60.4128 406.569 60.4128C410.754 42.5975 422.264 49.5729 422.264 49.5729Z" fill="#FAFAFA"/>
<path d="M60.3376 89.681C34.5284 93.1688 -0.000213623 89.681 -0.000213623 89.681C5.92894 84.1007 36.2723 85.4958 36.2723 85.4958C39.3048 72.978 57.0243 83.9498 60.3376 89.681Z" fill="#FAFAFA"/>
<path d="M282.407 25.3902C282.93 22.8315 285.278 20.8989 288.102 20.8989C291.309 20.8989 293.908 23.3896 293.908 26.4622C293.908 29.5346 291.309 32.0255 288.102 32.0255C287.991 32.0255 287.888 32.0003 287.78 31.9944C286.591 32.7594 284.916 33.2437 283.045 33.2437C279.446 33.2437 276.528 31.4769 276.528 29.2974C276.528 27.2503 279.112 25.5868 282.407 25.3902Z" fill="#FAFAFA"/>
<path d="M473.525 42.5344C473.003 39.9757 470.655 38.0432 467.831 38.0432C464.624 38.0432 462.024 40.5339 462.024 43.6065C462.024 46.6789 464.624 49.1697 467.831 49.1697C467.941 49.1697 468.044 49.1445 468.153 49.1386C469.341 49.9036 471.016 50.3879 472.888 50.3879C476.487 50.3879 490.899 48.6212 490.899 46.4417C490.899 44.3945 476.82 42.731 473.525 42.5344Z" fill="#FAFAFA"/>
</svg>
