<svg width="546" height="181" viewBox="0 0 546 181" fill="none" xmlns="http://www.w3.org/2000/svg">
<path d="M0.000494682 164.152C-0.599246 181.324 544.333 188.913 545.005 169.684C524.272 143.102 470.903 126.36 452.314 131.087C452.314 131.087 469.086 78.5507 416.915 58.763C368.711 40.4799 346.537 94.1026 349.744 107.195C349.744 107.195 343.461 86.8388 325.473 95.3404C325.473 95.3404 307.736 67.02 281.706 90.1765C281.706 90.1765 284.925 2.20921 223.069 0.0491058C161.212 -2.111 155.658 67.631 163.359 83.5288C163.359 83.5288 121.6 74.9713 135.554 122.119C135.554 122.119 109.761 116.518 116.848 143.492L0.000494682 164.152Z" fill="#E6F0FF"/>
<path d="M545.005 169.684C542.552 166.539 539.629 163.536 536.373 160.685C508.516 147.686 470.989 145.326 426.739 152.58C376.226 160.861 301.547 154.068 279.236 145.755C256.926 137.442 76.4682 171.951 0.000494514 164.152C-0.599144 181.324 544.334 188.913 545.005 169.684Z" fill="#D2E1FA"/>
<path d="M279.236 145.755C301.075 143.588 292.227 121.306 274.957 124.469C274.957 124.469 266.187 99.958 226.257 100.796C186.328 101.634 194.023 128.967 194.023 128.967C178.372 121.725 135.833 147.943 139.304 157.092C204.841 149.846 266.761 141.107 279.236 145.755Z" fill="#FAFAFA"/>
<path d="M184.933 53.5936C184.933 53.5936 194.602 80.4382 234.988 66.5023C263.747 56.579 275.787 63.3306 280.341 68.0421C276.848 41.8302 264.715 1.50337 223.069 0.0491031C189.981 -1.10636 173.013 18.3127 165.556 39.058C172.4 47.2039 190.23 46.3423 208.7 36.2871C208.7 36.2871 206.026 48.7497 184.933 53.5936Z" fill="#FAFAFA"/>
<path d="M400.242 96.3955C430.023 94.5191 449.57 112.978 452.314 131.087C452.314 131.087 469.086 78.5509 416.916 58.7633C398.127 51.6371 383.312 55.4555 372.394 63.5194C364.367 81.1257 378.191 97.7849 400.242 96.3955Z" fill="#FAFAFA"/>
<path d="M307.126 102.155C323.375 110.256 326.146 102.819 325.473 95.3397C325.473 95.3397 313.164 75.7225 294.015 82.5305C293.047 88.6766 296.829 97.0211 307.126 102.155Z" fill="#FAFAFA"/>
<path d="M349.744 107.195C349.744 107.195 344.96 91.7262 331.809 93.4027C328.799 102.514 350.92 115.115 349.744 107.195Z" fill="#FAFAFA"/>
<path d="M390.373 147.264C419.69 148.025 440.646 137.876 440.646 137.876C431.998 113.84 411.078 113.667 404.561 116.509C404.561 116.509 398.83 104.857 383.996 106.159C369.163 107.46 371.911 124.642 371.911 124.642C357.739 122.966 347.855 134.339 351.591 139.213C355.328 144.087 374.434 146.85 390.373 147.264Z" fill="#FAFAFA"/>
<path d="M340.709 147.242C340.838 143.531 334.299 140.291 326.104 140.004C317.908 139.718 311.159 142.495 311.029 146.206C310.899 149.917 317.438 153.158 325.634 153.444C333.83 153.73 340.579 150.954 340.709 147.242Z" fill="#FAFAFA"/>
<path d="M163.359 83.5288C163.359 83.5288 131.277 76.9602 132.756 107.095C145.387 134.005 175.418 91.7267 163.359 83.5288Z" fill="#FAFAFA"/>
<path d="M201.389 79.8389C195.579 79.6361 190.713 83.9308 190.521 89.4314C190.516 89.5678 190.548 89.6956 190.549 89.8308C189.536 89.3275 188.379 88.9976 187.119 88.9536C183.156 88.8152 179.851 91.3335 179.738 94.5782C179.625 97.8232 182.746 100.566 186.709 100.704C189.913 100.816 192.656 99.1784 193.66 96.837C195.479 98.5476 197.934 99.6623 200.693 99.7587C206.503 99.9615 211.369 95.6668 211.561 90.1661C211.753 84.6655 207.199 80.0418 201.389 79.8389Z" fill="#FAFAFA"/>
<path d="M249.079 94.4783C261.652 97.9866 278.636 116.856 278.636 116.856C290.503 114.759 300.281 126.401 300.281 126.401C308.946 121.96 301.604 101.389 287.043 105.988C287.043 105.988 291.54 98.2243 277.111 90.5743C257.393 80.1201 249.079 94.4783 249.079 94.4783Z" fill="#FAFAFA"/>
<path d="M177.409 63.4022C120.358 73.1288 57.7944 66.9548 57.7944 66.9548C84.2899 63.2894 128.357 59.8059 128.357 59.8059C130.301 44.1091 144.295 38.8779 155.753 42.3472C163.013 44.5454 166.611 55.0032 166.611 55.0032C174.416 51.2301 177.409 63.4022 177.409 63.4022Z" fill="#FAFAFA"/>
<path d="M307.218 51.1741C324.471 57.5929 339.333 53.8608 339.333 53.8608C341.077 48.7258 325.197 43.566 321.148 47.9118C321.148 47.9118 317.789 39.2924 310.975 41.6523C304.162 44.0123 307.218 51.1741 307.218 51.1741Z" fill="#FAFAFA"/>
</svg>
