<svg width="463" height="165" viewBox="0 0 463 165" fill="none" xmlns="http://www.w3.org/2000/svg">
<path d="M89.7367 133.521C87.3783 101.922 112.875 78.7439 136.813 90.2511C123.264 70.4014 147.583 37.1888 172.375 46.397C177.412 12.7122 214.998 -3.27011 236.522 0.556255C264.614 5.55027 282.559 32.3093 287.91 60.0126C305.855 37.0314 343.632 40.4943 352.135 74.5422C352.135 74.5422 383.692 40.2582 401.7 108.297C417.298 84.5679 463 93.1553 463 130.688C463 145.327 407.224 146.271 399.039 137.771C399.039 137.771 350.682 182.18 241.931 149.115C241.931 149.115 162.546 178.334 103.887 155.161C103.887 155.161 54.95 164.097 0 156.345C32.5984 133.679 89.7367 133.521 89.7367 133.521Z" fill="#E6F0FF"/>
<path d="M399.196 126.753C372.28 152.252 295.309 159.493 252.337 138.243C252.337 138.243 263.512 132.104 269.336 112.114C243.522 145.012 148.134 168.308 103.431 141.549C103.431 141.549 52.9359 159.165 18.7733 146.473C12.0634 149.168 5.65831 152.41 0 156.345C54.9499 164.096 103.887 155.161 103.887 155.161C162.546 178.334 241.931 149.115 241.931 149.115C350.681 182.18 399.039 137.771 399.039 137.771C407.224 146.271 463 145.326 463 130.688C429.684 146.271 399.196 126.753 399.196 126.753Z" fill="#D2E1FA"/>
<path d="M280.783 38.0239C272.031 19.3581 256.968 4.19058 236.522 0.555913C218.883 -2.5799 190.468 7.59721 178.009 29.9092C181.569 41.2904 195.069 49.4185 212.67 44.9013C212.67 44.9013 208.027 59.3827 180.874 51.355C180.874 51.355 180.874 76.6973 232.346 66.466C242.105 72.9196 288.855 79.8454 280.783 38.0239Z" fill="#FAFAFA"/>
<path d="M132.953 76.8763C137.869 87.1581 150.327 92.3792 159.625 90.3131C176.624 86.5353 182.055 55.369 172.374 46.3969C152.651 39.0712 133.249 58.5928 132.953 76.8763Z" fill="#FAFAFA"/>
<path d="M350.076 68.2079C340.515 44.5825 314.855 39.7261 296.98 51.6081C294.597 68.9653 320.295 92.4734 350.076 68.2079Z" fill="#FAFAFA"/>
<path d="M136.813 90.251C117.537 80.9851 97.2626 94.216 91.3228 116.217C124.605 159.621 154.92 99.9685 136.813 90.251Z" fill="#FAFAFA"/>
<path d="M152.498 129.289C147.479 120.756 158.522 109.085 166.302 111.156C169.188 102.686 192.906 80.7751 212.419 99.862C217.627 94.6542 234.192 98.0425 228.795 110.089C235.07 120.756 199.342 134.189 174.14 127.001C174.14 127.001 156.689 136.414 152.498 129.289Z" fill="#FAFAFA"/>
<path d="M401.7 108.297C406.944 136.356 468.108 122.735 454.777 107.047C440.891 90.8949 413.168 90.8503 401.7 108.297Z" fill="#FAFAFA"/>
<path d="M361.786 67.8085C361.924 81.913 392.22 104.583 395.69 90.2457C384.579 63.9002 370.83 63.8358 361.786 67.8085Z" fill="#FAFAFA"/>
<path d="M293.294 120.936C305.665 139.057 362.274 125.697 364.464 118.628C361.167 97.7126 346.971 109.863 346.971 109.863C340.595 93.0438 313.998 100.025 310.54 107.334C298.148 94.56 286.853 111.502 293.294 120.936Z" fill="#FAFAFA"/>
<path d="M268.203 81.0529C253.145 73.2875 243.797 93.5851 261.779 97.3803C261.779 97.3803 296.914 99.1873 287.879 82.3223C278.844 65.4574 268.203 81.0529 268.203 81.0529Z" fill="#FAFAFA"/>
<path d="M351.805 97.4369C357.608 97.4369 362.312 94.5583 362.312 91.0073C362.312 87.4563 357.608 84.5776 351.805 84.5776C346.002 84.5776 341.298 87.4563 341.298 91.0073C341.298 94.5583 346.002 97.4369 351.805 97.4369Z" fill="#FAFAFA"/>
<path d="M238.859 86.582C239.536 83.0962 234.624 79.2089 227.887 77.8993C221.15 76.5898 215.14 78.354 214.462 81.8398C213.785 85.3256 218.697 89.2129 225.434 90.5225C232.171 91.832 238.181 90.0678 238.859 86.582Z" fill="#FAFAFA"/>
<path d="M309.262 93.4374C312.488 93.4374 315.103 91.8715 315.103 89.9399C315.103 88.0083 312.488 86.4424 309.262 86.4424C306.036 86.4424 303.421 88.0083 303.421 89.9399C303.421 91.8715 306.036 93.4374 309.262 93.4374Z" fill="#FAFAFA"/>
</svg>
