<svg width="87" height="56" viewBox="0 0 87 56" fill="none" xmlns="http://www.w3.org/2000/svg">
<path d="M62.6597 19.0199C66.8018 -4.25875 20.1471 -11.7273 23.246 29.0131C23.246 29.0131 3.28596 15.0177 0.179634 38.5779C-2.92667 62.138 35.2779 47.8375 35.2779 47.8375C51.095 61.424 68.2235 55.5515 69.0595 44.9228C69.0595 44.9228 76.5662 51.1599 83.0476 48.3791C89.529 45.5983 87.2976 35.7867 81.6903 34.386C81.6903 34.386 84.6683 25.4992 78.5908 19.7825C72.5133 14.0658 62.6597 19.0199 62.6597 19.0199Z" fill="#E6F0FF"/>
<path d="M0.00706482 40.8365C11.3423 54.0339 33.0197 45.239 23.9123 30.7288C23.9123 30.7288 33.7488 37.2336 48.107 34.386C48.107 34.386 32.8413 38.2843 40.8882 44.1351C56.6814 55.6178 68.0313 39.4344 68.0313 39.4344C79.2957 48.4777 88.0879 40.486 81.6903 34.386C87.2976 35.7867 89.529 45.5983 83.0476 48.3791C76.5662 51.1599 69.0595 44.9228 69.0595 44.9228C68.2235 55.5514 51.095 61.424 35.278 47.8375C35.278 47.8375 -0.382614 61.1835 0.00706482 40.8365Z" fill="#D2E1FA"/>
<path d="M16.6277 25.7827C19.2513 31.4442 11.9261 32.2956 10.8233 33.7431C9.55406 35.409 14.5517 39.9306 19.3906 36.9162C23.9881 34.0522 8.04384 54.8853 1.02822 34.316C3.90927 23.9583 11.1813 24.0156 16.6277 25.7827Z" fill="#FAFAFA"/>
<path d="M23.244 21.7248C25.1019 -0.459803 44.6857 -3.74686 55.6269 3.36835C60.3248 11.761 53.7096 18.8215 43.4999 18.552C42.7126 27.6911 28.9793 33.0869 23.244 21.7248Z" fill="#FAFAFA"/>
<path d="M68.8906 34.6154C63.7741 35.5673 47.8293 37.8281 50.3281 31.2837C52.8269 24.7392 58.4767 28.9453 58.4767 28.9453C63.1931 20.5793 71.0325 30.4507 68.8906 34.6154Z" fill="#FAFAFA"/>
<path d="M54.467 25.0966C52.0355 25.0966 50.0643 23.9069 50.0643 22.4392C50.0643 20.9715 52.0355 19.7817 54.467 19.7817C56.8985 19.7817 58.8696 20.9715 58.8696 22.4392C58.8696 23.9069 56.8985 25.0966 54.467 25.0966Z" fill="#FAFAFA"/>
<path d="M78.5908 19.7825C82.162 23.1418 82.601 27.5845 82.3602 30.6866C73.1038 36.9854 67.3112 25.1479 68.2112 17.2815C71.4578 16.7299 75.509 16.8836 78.5908 19.7825Z" fill="#FAFAFA"/>
</svg>
