<svg width="60" height="88" fill="none" xmlns="http://www.w3.org/2000/svg"><path d="M11.41 70.369c1.495.851 1.495 2.24 0 3.092a5.901 5.901 0 0 1-5.363 0c-1.494-.851-1.494-2.24 0-3.092a5.976 5.976 0 0 1 5.364 0Z" fill="#231889"/><path d="M9.775 17.854a.433.433 0 0 0-.254-.36 1.39 1.39 0 0 0-1.262 0 .448.448 0 0 0-.27.367L6.668 71.773a1.016 1.016 0 0 0 .583.852 3.219 3.219 0 0 0 2.921 0 1.054 1.054 0 0 0 .642-.852c-.353-17.983-.7-35.956-1.038-53.92Z" fill="url(#a)"/><path d="M9.77 17.848c0-.285-.4-.517-.895-.518-.495-.001-.897.228-.898.513 0 .285.4.517.895.518.495.001.897-.228.898-.513Z" fill="#C2C4C4"/><path d="M8.998 12.273a1.561 1.561 0 0 0-1.576-.157L5.3 13.35a1.561 1.561 0 0 1 1.577.157l2.808 1.62 2.122-1.232-2.809-1.621Z" fill="url(#b)"/><path d="m11.807 13.894-2.121 1.233a2.241 2.241 0 0 1 1 1.733v1.666a.611.611 0 0 1-.26.575l2.12-1.233a.612.612 0 0 0 .262-.575v-1.666a2.241 2.241 0 0 0-1-1.733Z" fill="url(#c)"/><path opacity=".6" d="m11.807 13.894-2.121 1.233a2.241 2.241 0 0 1 1 1.733l2.122-1.233a2.241 2.241 0 0 0-1-1.733Z" fill="#fff"/><path d="m9.685 15.126-2.808-1.62c-1.226-.748-2.241-.143-2.241 1.262v.276a1.965 1.965 0 0 0 .896 1.561l4.22 2.436c.501.284.904.052.904-.516V16.86a2.24 2.24 0 0 0-.97-1.734Z" fill="#231889"/><path d="M10.948 17.8c0 .591.418.83.926.539a2.055 2.055 0 0 0 .934-1.614c0-.59-.418-.83-.934-.53a2.056 2.056 0 0 0-.926 1.606Z" fill="#C2C4C4"/><path d="M7.332 15.814 5.3 14.641v-.276l2.032 1.173v.276Zm0 .366L5.3 15v.276l2.032 1.166v-.262Zm.852-.276c-.262-.15-.471 0-.471.276a1.038 1.038 0 0 0 .47.814c.262.157.471 0 .471-.269a1.046 1.046 0 0 0-.47-.821Z" fill="url(#d)"/><path d="M26.5 18.055h-.037l-12.587-.508-.224.598 2.07 1.755.074.052h.037l-.074-.052a.522.522 0 0 0 .41.12l10.04-1.016c.15-.105.434-.942.292-.95Z" fill="url(#e)"/><path d="m13.936 16.98-1.405-.808a.65.65 0 0 0-.642.075 1.956 1.956 0 0 0-.874 1.554.612.612 0 0 0 .261.56l1.36.785.545.313a.612.612 0 0 1-.269-.56 1.964 1.964 0 0 1 .89-1.539.644.644 0 0 1 .642-.075l-.508-.306Z" fill="url(#f)"/><path d="M14.474 17.286a.644.644 0 0 0-.643.074 1.965 1.965 0 0 0-.881 1.554.613.613 0 0 0 .269.56c.188.11.402.17.62.172.229-.002.453-.064.65-.18a1.247 1.247 0 0 0 .612-1.105 1.27 1.27 0 0 0-.627-1.075Z" fill="url(#g)"/><path d="M14.586 11.825 13.45.059a.068.068 0 0 0 0-.045h-.037c-.052-.037-.187 0-.321.09-.135.09-.396.291-.396.418l.075 16.382h.037l.463-.268 1.27-4.221c.046-.193.061-.392.045-.59Z" fill="url(#h)"/><path d="m12.106 18.6-3.227 2.555a2.2 2.2 0 0 0-.464.508l-8.374 12.7c-.104.141 0 .38.195.477a.187.187 0 0 0 .201 0 .097.097 0 0 0 .053-.044l11.885-15.897-.254-.306-.015.007Z" fill="url(#i)"/><path style="mix-blend-mode:screen" opacity=".6" d="M14.817 17.771a.502.502 0 0 1-.142.695.546.546 0 1 1 .142-.695Z" fill="#fff"/><path d="m23.045 87.62-4.602-2.651v-2.166l4.602 2.651v2.167Z" fill="#C2C4C4"/><path d="m28.102 84.7-5.057 2.92v-2.166l5.057-2.92V84.7Z" fill="#D7D9D9"/><path d="m23.045 85.455-4.602-2.652 5.065-2.921 4.594 2.652-5.057 2.92Z" fill="#F4F4F4"/><path d="m39.486 78.126-4.594-2.651v-2.167l4.594 2.652v2.166Z" fill="#C2C4C4"/><path d="m44.551 75.206-5.064 2.92V75.96l5.064-2.92v2.166Z" fill="#D7D9D9"/><path d="m39.487 75.96-4.594-2.652 5.064-2.92 4.594 2.651-5.064 2.921Z" fill="#F4F4F4"/><path d="M42.041 71.74v1.576l.217-.127v-1.577l-.217.127Z" fill="#48484D"/><path d="M42.026 70.597a3.197 3.197 0 0 0-.515-.815 2.413 2.413 0 0 0-.59-.493.948.948 0 0 0-.956-.097l-.225.127a.964.964 0 0 1 .964.097c.221.13.418.297.583.493.212.246.388.52.523.814.146.32.225.665.231 1.016l.217-.127a2.542 2.542 0 0 0-.232-1.015Z" fill="#5F5F64"/><path d="M40.704 69.416c-.747-.433-1.352-.09-1.352.747v1.576l2.69 1.554v-1.576a2.988 2.988 0 0 0-1.338-2.3Z" fill="#3B3B3F"/><path style="mix-blend-mode:screen" d="m41.511 69.782-.224.127c.212.245.388.52.523.814l.216-.127a3.196 3.196 0 0 0-.515-.814Z" fill="url(#j)"/><path d="m40.197 52.645 1.508-.873v21.267l-1.508.874V52.646Z" fill="#48484D"/><path d="M41.452 50.658a3.472 3.472 0 0 0-.583-.904 2.51 2.51 0 0 0-.65-.552 1.038 1.038 0 0 0-1.053-.105l-1.494.882a1.053 1.053 0 0 1 1.06.104c.246.145.465.33.65.546.238.269.432.574.576.903.16.35.247.729.254 1.113l1.494-.874a2.9 2.9 0 0 0-.254-1.113Z" fill="#5F5F64"/><path style="mix-blend-mode:screen" d="m39.367 50.629 1.495-.874c.24.269.436.574.582.903l-1.494.874a3.446 3.446 0 0 0-.575-.903h-.008Z" fill="url(#k)"/><path d="M38.717 50.083a3.241 3.241 0 0 1 1.495 2.563v21.267l-2.989-1.718V50.95c0-.964.673-1.345 1.494-.867Z" fill="#39393D"/><path d="M39.659 73.114v1.576l.224-.127v-1.576l-.224.127Z" fill="#48484D"/><path d="M39.651 71.971a3.44 3.44 0 0 0-.523-.814 2.383 2.383 0 0 0-.583-.493.964.964 0 0 0-.963-.097l-.217.127a.95.95 0 0 1 .956.097c.222.132.422.298.59.493.212.244.386.518.516.814.149.319.23.665.24 1.016l.216-.127a2.673 2.673 0 0 0-.232-1.016Z" fill="#5F5F64"/><path d="M38.321 70.79c-.747-.433-1.344-.09-1.352.747v1.577l2.697 1.553v-1.576a2.944 2.944 0 0 0-1.345-2.3Z" fill="#3B3B3F"/><path style="mix-blend-mode:screen" d="m39.128 71.157-.216.127c.212.243.385.518.515.814l.224-.127a3.446 3.446 0 0 0-.523-.814Z" fill="url(#l)"/><path d="M25.652 81.197v1.576l.224-.127V81.07l-.224.127Z" fill="#48484D"/><path d="M25.645 80.084a3.338 3.338 0 0 0-.523-.822 2.442 2.442 0 0 0-.59-.493.94.94 0 0 0-.957-.09l-.216.127a.94.94 0 0 1 .956.09c.222.134.421.303.59.5.215.242.389.517.515.815.15.315.229.66.232 1.008l.224-.127a2.66 2.66 0 0 0-.232-1.008Z" fill="#5F5F64"/><path d="M24.315 78.873c-.747-.425-1.345-.082-1.352.748v1.576l2.689 1.553v-1.576a2.935 2.935 0 0 0-1.337-2.3Z" fill="#3B3B3F"/><path style="mix-blend-mode:screen" d="m25.122 79.24-.217.134c.215.242.389.517.515.814l.225-.127a3.34 3.34 0 0 0-.523-.822Z" fill="url(#m)"/><path d="m23.814 62.11 1.502-.881v21.267l-1.51.874.008-21.26Z" fill="#48484D"/><path d="M25.062 60.115a3.737 3.737 0 0 0-.576-.903 2.611 2.611 0 0 0-.65-.546 1.054 1.054 0 0 0-1.06-.104l-1.494.874a1.039 1.039 0 0 1 1.053.104c.245.145.464.33.65.546.236.273.43.58.575.911.164.349.253.728.262 1.113l1.494-.874a2.705 2.705 0 0 0-.254-1.12Z" fill="#5F5F64"/><path style="mix-blend-mode:screen" d="m22.977 60.086 1.495-.874c.234.272.427.576.575.904l-1.494.881a3.617 3.617 0 0 0-.576-.911Z" fill="url(#n)"/><path d="M22.357 59.54a3.272 3.272 0 0 1 1.494 2.57v21.26l-2.988-1.718v-21.26c0-.949.643-1.33 1.494-.852Z" fill="#231889"/><path d="M23.277 82.571v1.576l.216-.127v-1.576l-.216.127Z" fill="#48484D"/><path d="M23.262 81.435a3.116 3.116 0 0 0-.516-.821 2.413 2.413 0 0 0-.59-.493.926.926 0 0 0-.956-.09l-.224.127a.957.957 0 0 1 .963.09c.22.132.416.298.583.493.213.247.39.523.523.821.146.317.224.66.231 1.009l.217-.127a2.533 2.533 0 0 0-.231-1.009Z" fill="#5F5F64"/><path d="M21.94 80.248c-.748-.426-1.353-.083-1.353.747v1.576l2.69 1.554v-1.576a2.987 2.987 0 0 0-1.338-2.301Z" fill="#3B3B3F"/><path style="mix-blend-mode:screen" d="m22.746 80.614-.224.127c.213.247.39.523.523.822l.216-.127a3.114 3.114 0 0 0-.515-.822Z" fill="url(#o)"/><path d="m24.927 72.882 26.407-15.321 1.278-4.318-26.407 15.321-1.278 4.318Z" fill="#231889"/><path d="m40.809 43.032 11.803 10.211-26.408 15.322-11.802-10.22 26.407-15.313Z" fill="#F4F4F4"/><path d="m52.059 53.131-11.25-9.733-25.772 14.947 11.242 9.741 25.78-14.955Z" fill="#345E7A"/><path d="m14.402 58.346-1.278 4.325 11.803 10.211 1.278-4.317-11.803-10.22Z" fill="url(#p)"/><path d="m31.404 74.712 28.334-16.516.262-.874-28.335 16.516-.261.874Z" fill="url(#q)"/><path d="m34.019 34.844 25.98 22.478-28.334 16.516-25.98-22.485 28.334-16.509Z" fill="#fff"/><path d="M58.775 57.083 34.019 35.65 7.08 51.353l24.75 21.432 26.945-15.702Z" fill="url(#r)"/><path d="m5.684 51.353-.254.874 25.974 22.485.262-.874L5.684 51.353Z" fill="#231889"/><path d="m17.128 55.103 1.778 1.494a.404.404 0 0 1 .164.322.35.35 0 0 1-.179.254L16.98 58.27a.642.642 0 0 1-.351.09.822.822 0 0 1-.538-.188l-1.778-1.494a.366.366 0 0 1-.15-.313.352.352 0 0 1 .18-.254l1.905-1.106a.746.746 0 0 1 .35-.082.806.806 0 0 1 .531.18Zm5.685-3.787a.747.747 0 0 0-.351.082l-1.905 1.106a.322.322 0 0 0-.18.254.366.366 0 0 0 .158.313l1.777 1.494a.866.866 0 0 0 .538.187.66.66 0 0 0 .344-.09l1.905-1.105a.32.32 0 0 0 .187-.247.396.396 0 0 0-.157-.32l-1.778-1.495a.858.858 0 0 0-.56-.18h.022Zm-3.1 1.8a.747.747 0 0 0-.344.075l-1.905 1.105a.329.329 0 0 0-.179.255.366.366 0 0 0 .15.313l1.777 1.494c.152.125.342.19.538.187a.665.665 0 0 0 .351-.09l1.913-1.105a.33.33 0 0 0 .179-.247.395.395 0 0 0-.157-.321l-1.778-1.494a.859.859 0 0 0-.568-.172h.023Zm20.17 1.263a.748.748 0 0 0 .35-.082l1.86-1.106a.307.307 0 0 0 .18-.247.366.366 0 0 0-.157-.32l-1.778-1.495a.859.859 0 0 0-.53-.187.665.665 0 0 0-.352.09l-1.904 1.106a.337.337 0 0 0-.187.254.388.388 0 0 0 .157.313L39.3 54.2a.822.822 0 0 0 .538.18h.044Zm-3.153 1.8a.748.748 0 0 0 .351-.082l1.912-1.106a.313.313 0 0 0 .172-.246.366.366 0 0 0-.157-.322L37.23 52.93a.86.86 0 0 0-.53-.186.665.665 0 0 0-.351.09l-1.905 1.105a.32.32 0 0 0-.187.254.388.388 0 0 0 .157.314L36.192 56a.822.822 0 0 0 .538.179Zm-10.832-6.663a.747.747 0 0 0-.351.082l-1.905 1.105a.306.306 0 0 0-.18.254.366.366 0 0 0 .158.314l1.77 1.494c.157.12.348.186.546.187a.657.657 0 0 0 .343-.09l1.905-1.105a.32.32 0 0 0 .187-.247.38.38 0 0 0-.165-.321l-1.77-1.494a.859.859 0 0 0-.538-.18Zm6.649 9.09a.687.687 0 0 0 .343-.081l1.913-1.106a.336.336 0 0 0 .179-.254.403.403 0 0 0-.157-.321l-1.778-1.494a.822.822 0 0 0-.53-.187.747.747 0 0 0-.359.09l-1.905 1.105a.327.327 0 0 0-.179.247.372.372 0 0 0 .157.314l1.778 1.494c.15.127.34.196.538.194ZM30.08 47.089a.746.746 0 0 0-.343.082l-1.905 1.105a.344.344 0 0 0-.187.255.372.372 0 0 0 .157.313l1.778 1.494c.151.125.342.19.538.187a.68.68 0 0 0 .35-.09l1.906-1.105a.329.329 0 0 0 .18-.247.373.373 0 0 0-.158-.32l-1.778-1.495a.822.822 0 0 0-.538-.18Zm3.646-1.614a.822.822 0 0 0-.882-.104l-1.912 1.098a.351.351 0 0 0-.18.254.372.372 0 0 0 .158.313l1.77 1.495a.857.857 0 0 0 .545.186.665.665 0 0 0 .352-.09l1.904-1.105a.328.328 0 0 0 .18-.246.396.396 0 0 0-.157-.322l-1.778-1.479Zm2.898 2.488a.859.859 0 0 0-.545-.187.746.746 0 0 0-.344.082l-1.904 1.106a.359.359 0 0 0-.187.254.404.404 0 0 0 .164.321l1.77 1.494c.152.124.343.19.538.187a.665.665 0 0 0 .352-.09l1.904-1.098a.357.357 0 0 0 .187-.254.388.388 0 0 0-.157-.314l-1.778-1.501Zm-7.403 16.733a.746.746 0 0 0 .351-.082l1.905-1.106a.328.328 0 0 0 .187-.254.372.372 0 0 0-.157-.313l-1.778-1.494a.866.866 0 0 0-.538-.187.665.665 0 0 0-.35.09l-1.905 1.105a.337.337 0 0 0-.187.254.38.38 0 0 0 .157.314l1.777 1.494a.86.86 0 0 0 .538.157v.022Zm-3.13 1.778a.746.746 0 0 0 .352-.082l1.904-1.106a.336.336 0 0 0 .187-.246.417.417 0 0 0-.157-.322L26.6 63.223a.867.867 0 0 0-.545-.194.657.657 0 0 0-.344.09l-1.86 1.09a.337.337 0 0 0-.186.254.387.387 0 0 0 .164.314l1.77 1.494a.86.86 0 0 0 .493.202Zm6.895-13.446a.665.665 0 0 0 .352-.09l1.912-1.098a.321.321 0 0 0 0-.568l-1.778-1.494a.851.851 0 0 0-.538-.187.747.747 0 0 0-.351.082l-1.905 1.106a.358.358 0 0 0-.187.254.403.403 0 0 0 .165.321l1.778 1.494c.163.127.37.186.575.165l-.023.015Zm-7.32.747a.747.747 0 0 0-.359.082l-1.905 1.105a.337.337 0 0 0-.18.254.39.39 0 0 0 .165.321l1.77 1.495a.836.836 0 0 0 .538.186.665.665 0 0 0 .352-.09l1.904-1.097a.352.352 0 0 0 .18-.254.38.38 0 0 0-.15-.322l-1.778-1.494a.851.851 0 0 0-.515-.179l-.022-.007Zm3.107-1.8a.747.747 0 0 0-.358.081l-1.883 1.136a.338.338 0 0 0-.18.254.389.389 0 0 0 .165.321l1.77 1.494c.152.125.343.19.538.187a.62.62 0 0 0 .344-.09l1.912-1.098a.35.35 0 0 0 .18-.254.374.374 0 0 0-.157-.321l-1.77-1.494a.851.851 0 0 0-.538-.21l-.023-.007Zm-6.193 3.607a.747.747 0 0 0-.35.082l-1.913 1.106a.35.35 0 0 0-.18.254.396.396 0 0 0 .157.321l1.778 1.494c.152.118.339.18.53.18a.747.747 0 0 0 .36-.083l1.904-1.105a.35.35 0 0 0 .18-.254.38.38 0 0 0-.15-.321L23.12 55.76a.822.822 0 0 0-.538-.18Zm-3.115 1.8a.747.747 0 0 0-.343.083l-1.913 1.105a.352.352 0 0 0-.179.254.397.397 0 0 0 .157.322l1.778 1.494a.86.86 0 0 0 .889.097l1.905-1.106a.35.35 0 0 0 .179-.254.388.388 0 0 0-.157-.313l-1.778-1.495a.822.822 0 0 0-.538-.186Zm29.881-3.69a.373.373 0 0 0 .157.322l1.778 1.494a.844.844 0 0 0 .881.097l1.905-1.106a.357.357 0 0 0 .187-.254.402.402 0 0 0-.157-.314l-1.778-1.494a.888.888 0 0 0-.545-.186.634.634 0 0 0-.344.09l-1.912 1.105a.314.314 0 0 0-.142.246h-.03ZM26.3 62.208a.746.746 0 0 0 .352-.082l1.905-1.105a.33.33 0 0 0 .179-.254.395.395 0 0 0-.157-.322l-1.778-1.494a.807.807 0 0 0-.53-.186.665.665 0 0 0-.351.09l-1.883 1.06a.328.328 0 0 0-.18.254.387.387 0 0 0 .158.314l1.77 1.494c.149.14.342.221.545.231h-.03Zm-3.107 1.8a.747.747 0 0 0 .351-.081l1.905-1.106a.33.33 0 0 0 .18-.246.404.404 0 0 0-.158-.322l-1.778-1.494a.866.866 0 0 0-.537-.187.657.657 0 0 0-.344.09L20.9 61.767a.329.329 0 0 0-.18.254.39.39 0 0 0 .157.313l1.77 1.494a.858.858 0 0 0 .576.18h-.03Zm9.136-1.105a.747.747 0 0 0 .351-.082l1.905-1.106a.337.337 0 0 0 .187-.254.372.372 0 0 0-.157-.313l-1.778-1.494a.867.867 0 0 0-.538-.187.665.665 0 0 0-.351.09l-1.905 1.105a.306.306 0 0 0-.18.247.373.373 0 0 0 .158.32l1.778 1.495c.151.117.338.18.53.18Zm-2.891-2.465a.746.746 0 0 0 .351-.082l1.905-1.106a.329.329 0 0 0 .18-.254.396.396 0 0 0-.158-.321L29.94 57.18a.807.807 0 0 0-.53-.187.687.687 0 0 0-.36.09l-1.904 1.105a.327.327 0 0 0-.18.247.373.373 0 0 0 .157.314l1.778 1.494a.822.822 0 0 0 .538.164v.03Zm3.675-20.386a.822.822 0 0 0 .882.104l1.912-1.157a.32.32 0 0 0 0-.568l-1.77-1.494a.86.86 0 0 0-.546-.187.665.665 0 0 0-.35.09l-1.906 1.098a.335.335 0 0 0-.179.254.426.426 0 0 0 .157.321l1.8 1.539ZM26.9 43.659a.844.844 0 0 0 .882.097l1.912-1.105a.337.337 0 0 0 .18-.255.389.389 0 0 0-.158-.313l-1.777-1.494a.866.866 0 0 0-.538-.187.665.665 0 0 0-.351.09l-1.905 1.105a.327.327 0 0 0-.18.247.38.38 0 0 0 .157.32L26.9 43.66Zm3.108-1.808c.166.113.368.16.567.135.12 0 .238-.028.344-.083l1.898-1.083a.352.352 0 0 0 .179-.254.372.372 0 0 0-.157-.314l-1.77-1.494a.904.904 0 0 0-.546-.186.665.665 0 0 0-.35.09l-1.92 1.083a.335.335 0 0 0-.18.254.426.426 0 0 0 .157.32l1.778 1.532Zm-6.215 3.608a.858.858 0 0 0 .888.097l1.905-1.105a.33.33 0 0 0 .18-.254.389.389 0 0 0-.157-.314l-1.778-1.494a.866.866 0 0 0-.538-.187.62.62 0 0 0-.344.09l-1.912 1.105a.328.328 0 0 0-.18.247.38.38 0 0 0 .158.321l1.778 1.494Zm-10.399 5.999a.86.86 0 0 0 .889.097l1.905-1.106a.344.344 0 0 0 .194-.246.372.372 0 0 0-.157-.314l-1.778-1.494a.867.867 0 0 0-.537-.187.665.665 0 0 0-.352.09l-1.905 1.105a.307.307 0 0 0-.179.247.374.374 0 0 0 .15.321l1.77 1.487Zm3.115-1.808a.822.822 0 0 0 .882.105l1.904-1.106a.358.358 0 0 0 .187-.254.372.372 0 0 0-.157-.314l-1.777-1.494a.867.867 0 0 0-.538-.187.665.665 0 0 0-.352.09l-1.904 1.106a.307.307 0 0 0-.18.246.38.38 0 0 0 .157.322l1.778 1.486Zm3.108-1.8a.822.822 0 0 0 .881.104l1.905-1.105a.344.344 0 0 0 .187-.254.372.372 0 0 0-.157-.314l-1.778-1.494a.822.822 0 0 0-.538-.187.665.665 0 0 0-.35.09l-1.89 1.083a.314.314 0 0 0-.173.246.38.38 0 0 0 .157.322l1.756 1.509Zm20.259-2.241a.367.367 0 0 0 .157.32l1.778 1.495a.82.82 0 0 0 .53.187.665.665 0 0 0 .351-.09l1.905-1.098a.343.343 0 0 0 .187-.254.397.397 0 0 0-.157-.321l-1.778-1.494a.822.822 0 0 0-.538-.187.747.747 0 0 0-.351.082l-1.905 1.106a.32.32 0 0 0-.187.231l.008.023Zm6.611 5.64a.395.395 0 0 0 .157.32l1.778 1.495a.86.86 0 0 0 .538.18c.12 0 .237-.029.343-.083l1.913-1.106a.321.321 0 0 0 0-.567l-1.77-1.494a.86.86 0 0 0-.546-.187.68.68 0 0 0-.351.09l-1.89 1.053a.329.329 0 0 0-.18.276l.008.023Zm-2.898-2.466a.388.388 0 0 0 .156.314l1.778 1.494a.86.86 0 0 0 .546.187c.12 0 .237-.028.343-.082l1.905-1.106a.36.36 0 0 0 .187-.254.402.402 0 0 0-.164-.32l-1.77-1.495a.822.822 0 0 0-.539-.187.665.665 0 0 0-.35.09l-1.906 1.105a.336.336 0 0 0-.194.232l.008.022Zm5.154 8.748a.746.746 0 0 0 .351-.082l1.905-1.106a.322.322 0 0 0 .18-.254.366.366 0 0 0-.15-.313L49.25 54.28a.867.867 0 0 0-.545-.179.635.635 0 0 0-.344.082l-1.912 1.106a.315.315 0 0 0-.172.246.373.373 0 0 0 .157.322l1.778 1.494a.86.86 0 0 0 .522.157l.008.022ZM34.078 40.663a.366.366 0 0 0 .157.314l1.778 1.494c.151.125.342.19.538.187a.62.62 0 0 0 .343-.082l1.898-1.09a.32.32 0 0 0 .186-.247.403.403 0 0 0-.156-.322l-1.778-1.494a.86.86 0 0 0-.53-.186.748.748 0 0 0-.36.09l-1.904 1.105a.306.306 0 0 0-.172.231Zm2.891 2.466a.388.388 0 0 0 .157.313l1.778 1.494a.867.867 0 0 0 .538.187.664.664 0 0 0 .35-.09l1.906-1.105a.328.328 0 0 0 .179-.247.374.374 0 0 0-.157-.32l-1.778-1.495a.86.86 0 0 0-.889-.097l-1.905 1.106a.328.328 0 0 0-.179.254Zm-26.691 10.13a.86.86 0 0 0 .889.096l1.905-1.105a.306.306 0 0 0 .18-.254.381.381 0 0 0-.15-.314l-1.778-1.494a.866.866 0 0 0-.546-.194.657.657 0 0 0-.343.09L8.53 51.188a.305.305 0 0 0-.18.246.366.366 0 0 0 .158.322l1.77 1.501Zm38.748 5.228a.86.86 0 0 0-.546-.187.746.746 0 0 0-.343.083l-1.875 1.128a.307.307 0 0 0-.18.254.36.36 0 0 0 .157.313l1.77 1.494a.86.86 0 0 0 .897.105l1.905-1.106a.336.336 0 0 0 .18-.253.426.426 0 0 0-.157-.322l-1.808-1.509ZM35.52 66.308a.866.866 0 0 0-.546-.179.748.748 0 0 0-.343.082l-1.913 1.106a.33.33 0 0 0-.179.254.426.426 0 0 0 .157.321l1.778 1.494a.83.83 0 0 0 .545.187c.12 0 .238-.028.344-.082l1.912-1.106a.352.352 0 0 0 .18-.254.419.419 0 0 0-.157-.32l-1.778-1.503Zm3.107-1.8a.881.881 0 0 0-.545-.179.686.686 0 0 0-.344.082l-1.934 1.128a.314.314 0 0 0-.172.247.366.366 0 0 0 .157.32l1.778 1.495a.866.866 0 0 0 .537.187.687.687 0 0 0 .344-.082l1.905-1.106a.358.358 0 0 0 .187-.254.403.403 0 0 0-.157-.321l-1.756-1.517Zm3.108-1.8a.903.903 0 0 0-.545-.187.68.68 0 0 0-.351.09l-1.905 1.105a.343.343 0 0 0-.18.247.402.402 0 0 0 .165.321l1.77 1.494c.157.12.348.186.545.187.12 0 .238-.028.344-.082l1.905-1.106a.344.344 0 0 0 .187-.254.419.419 0 0 0-.157-.321l-1.778-1.494Zm15.284-6.312-1.778-1.494a.866.866 0 0 0-.538-.187.664.664 0 0 0-.35.09l-1.906 1.105a.307.307 0 0 0-.209.269.396.396 0 0 0 .157.321l1.778 1.494a.866.866 0 0 0 .538.187.746.746 0 0 0 .35-.082l1.906-1.106a.352.352 0 0 0 .179-.254.397.397 0 0 0-.127-.321v-.022Zm-4.886.283a.86.86 0 0 0-.537-.179.657.657 0 0 0-.351.082l-1.905 1.106a.328.328 0 0 0-.18.246.396.396 0 0 0 .157.322l1.778 1.494a.89.89 0 0 0 .545.187c.12 0 .238-.028.344-.083l1.905-1.105a.35.35 0 0 0 .18-.254.38.38 0 0 0-.158-.322l-1.778-1.494Zm-6.506 2.608a.658.658 0 0 0 .351-.083l1.905-1.105a.329.329 0 0 0 .18-.247.373.373 0 0 0-.158-.32l-1.778-1.495a.822.822 0 0 0-.537-.187.62.62 0 0 0-.344.082l-1.905 1.106a.337.337 0 0 0-.187.254.403.403 0 0 0 .157.314L45.09 59.1c.15.13.34.203.538.209v-.022Zm.291 1a.845.845 0 0 0-.889-.104l-1.905 1.106a.308.308 0 0 0-.179.254.358.358 0 0 0 .157.313l1.778 1.494c.151.125.342.19.538.187a.746.746 0 0 0 .35-.082l1.906-1.106a.335.335 0 0 0 .179-.254.404.404 0 0 0-.157-.32l-1.778-1.487Zm-13.513 7.844a.822.822 0 0 0-.538-.186.687.687 0 0 0-.344.082l-1.905 1.105a.336.336 0 0 0-.186.254.425.425 0 0 0 .156.322l1.778 1.493a.83.83 0 0 0 .546.187c.12 0 .237-.027.343-.082l1.913-1.105a.314.314 0 0 0 .172-.254.38.38 0 0 0-.157-.322l-1.778-1.494Zm-5.23-23.516a.746.746 0 0 0-.35.082l-1.905 1.106a.328.328 0 0 0-.18.254.365.365 0 0 0 .15.314l1.778 1.494c.156.12.348.185.545.186a.68.68 0 0 0 .373-.09l1.905-1.105a.345.345 0 0 0 .18-.246.403.403 0 0 0-.165-.322l-1.77-1.494a.836.836 0 0 0-.546-.171l-.014-.008Zm6.724-3.421a.859.859 0 0 0-.89-.097l-1.904 1.105a.329.329 0 0 0-.18.254.388.388 0 0 0 .157.314l1.778 1.494c.15.127.342.195.538.194a.62.62 0 0 0 .344-.09l1.912-1.105a.329.329 0 0 0 .18-.246.403.403 0 0 0-.157-.322l-1.778-1.501Zm-10.937 5.849a.746.746 0 0 0-.35.082l-1.913 1.106a.329.329 0 0 0-.18.254.39.39 0 0 0 .158.313l1.777 1.494a.852.852 0 0 0 .546.195c.12.002.24-.03.343-.09l1.905-1.105a.307.307 0 0 0 .18-.247.367.367 0 0 0-.157-.321l-1.778-1.494a.843.843 0 0 0-.486-.18l-.045-.007Zm7.291-4.228a.746.746 0 0 0-.35.082l-1.906 1.106a.351.351 0 0 0-.179.254.365.365 0 0 0 .15.313l1.777 1.494a.873.873 0 0 0 .546.187c.12.004.24-.028.343-.09l1.913-1.105a.315.315 0 0 0 .171-.247.374.374 0 0 0-.156-.32l-1.778-1.495a.807.807 0 0 0-.486-.172l-.045-.007Zm-10.398 6.028a.748.748 0 0 0-.351.082l-1.913 1.106a.342.342 0 0 0-.179.254.39.39 0 0 0 .157.314l1.778 1.494a.867.867 0 0 0 .545.194.66.66 0 0 0 .344-.09l1.905-1.105a.33.33 0 0 0 .179-.247.367.367 0 0 0-.157-.321l-1.77-1.494a.86.86 0 0 0-.493-.18l-.045-.007Zm-6.17 3.6a.747.747 0 0 0-.352.083l-1.905 1.106a.36.36 0 0 0-.186.254.374.374 0 0 0 .156.313l1.778 1.494a.866.866 0 0 0 .538.187.665.665 0 0 0 .351-.09l1.905-1.105a.329.329 0 0 0 .18-.247.403.403 0 0 0-.157-.32l-1.778-1.495a.822.822 0 0 0-.53-.18Zm3.107-1.8a.747.747 0 0 0-.351.083l-1.905 1.105a.343.343 0 0 0-.187.254.373.373 0 0 0 .157.314l1.778 1.494a.866.866 0 0 0 .538.187.664.664 0 0 0 .351-.09l1.905-1.105a.305.305 0 0 0 .18-.247.367.367 0 0 0-.158-.321l-1.77-1.494a.86.86 0 0 0-.538-.172v-.007Zm29.052 4.393a.757.757 0 0 0 .343-.082l1.913-1.106a.335.335 0 0 0 .179-.254.372.372 0 0 0-.157-.313l-1.77-1.495a.904.904 0 0 0-.546-.186.68.68 0 0 0-.35.09l-1.906 1.105a.328.328 0 0 0-.18.246.38.38 0 0 0 .165.322l1.77 1.494a.86.86 0 0 0 .539.187v-.008Zm-3.116 1.8a.747.747 0 0 0 .36-.082l1.904-1.105a.33.33 0 0 0 .18-.247.395.395 0 0 0-.158-.321l-1.778-1.494a.829.829 0 0 0-.537-.194.665.665 0 0 0-.352.09l-1.904 1.105a.33.33 0 0 0-.18.254.359.359 0 0 0 .157.314l1.778 1.494c.15.123.337.192.53.194v-.008Zm-3.107 1.808c.125 0 .248-.03.358-.09l1.905-1.105a.33.33 0 0 0 .18-.247.395.395 0 0 0-.157-.32l-1.778-1.495a.83.83 0 0 0-.538-.194.62.62 0 0 0-.344.09l-1.912 1.105a.328.328 0 0 0-.18.247.375.375 0 0 0 .143.291l1.778 1.494c.148.14.341.221.545.232v-.008Zm.112-12.512a.822.822 0 0 0-.538-.187.746.746 0 0 0-.351.082l-1.905 1.106a.307.307 0 0 0-.18.254.358.358 0 0 0 .158.313l1.778 1.494c.149.123.337.19.53.187a.665.665 0 0 0 .351-.09l1.905-1.105a.337.337 0 0 0 .187-.247.397.397 0 0 0-.157-.32l-1.778-1.487Zm-2.898-2.473a.844.844 0 0 0-.882-.097l-1.912 1.105a.336.336 0 0 0-.18.254.388.388 0 0 0 .157.314l1.778 1.494a.845.845 0 0 0 .538.194.665.665 0 0 0 .351-.09l1.905-1.112a.329.329 0 0 0 .18-.247.373.373 0 0 0-.158-.321l-1.778-1.494Zm6.618 5.64a.822.822 0 0 0-.538-.187.665.665 0 0 0-.35.09l-1.906 1.105a.306.306 0 0 0-.179.247.351.351 0 0 0 .157.314l1.77 1.494a.858.858 0 0 0 .546.186c.12 0 .237-.027.343-.082l1.905-1.105a.307.307 0 0 0 .18-.254.373.373 0 0 0-.157-.322l-1.77-1.486Zm-11.34 17.839a.665.665 0 0 0 .351-.09l1.913-1.106a.329.329 0 0 0 .18-.253.375.375 0 0 0-.158-.314l-1.77-1.494a.904.904 0 0 0-.545-.18.656.656 0 0 0-.352.083l-1.904 1.09a.328.328 0 0 0-.18.254.381.381 0 0 0 .157.314l1.778 1.494c.147.13.335.203.53.21v-.008Zm10.414-6.021a.68.68 0 0 0 .35-.09l1.89-1.113a.307.307 0 0 0 .18-.247.373.373 0 0 0-.157-.32l-1.77-1.495a.86.86 0 0 0-.546-.186.747.747 0 0 0-.343.082l-1.905 1.105a.32.32 0 0 0-.187.254.404.404 0 0 0 .157.314l1.778 1.494c.155.13.35.201.553.202Zm-4.184 2.42c.12 0 .238-.028.344-.082l1.905-1.106a.327.327 0 0 0 .187-.254.389.389 0 0 0-.157-.313l-1.778-1.494a.866.866 0 0 0-.538-.187.665.665 0 0 0-.351.09l-1.905 1.105a.328.328 0 0 0-.18.247.396.396 0 0 0 .158.32l1.778 1.495a.86.86 0 0 0 .53.18h.008Zm-3.107 1.8c.12 0 .237-.027.344-.082l1.912-1.105a.329.329 0 0 0 .18-.254.374.374 0 0 0-.158-.314l-1.77-1.494a.904.904 0 0 0-.545-.18.657.657 0 0 0-.352.083l-1.904 1.105a.329.329 0 0 0-.18.247.419.419 0 0 0 .157.321l1.778 1.494a.87.87 0 0 0 .53.18h.008Zm-6.223 3.608a.642.642 0 0 0 .351-.09l1.913-1.105a.329.329 0 0 0 .179-.246.396.396 0 0 0-.157-.321l-1.778-1.495a.822.822 0 0 0-.538-.186.747.747 0 0 0-.35.082l-1.906 1.105a.329.329 0 0 0-.179.255.38.38 0 0 0 .157.313l1.778 1.494c.147.122.331.19.523.194h.007Zm6.432-7.873a.747.747 0 0 0 .351-.082l1.898-1.076a.345.345 0 0 0 .186-.254.372.372 0 0 0-.157-.314l-1.777-1.494a.867.867 0 0 0-.538-.186.665.665 0 0 0-.351.007l-1.913 1.106a.342.342 0 0 0-.179.246.402.402 0 0 0 .164.321l1.778 1.494a.859.859 0 0 0 .53.232h.008Z" fill="url(#s)"/><path d="M22.276 81.817c0 .313-.217.44-.494.283a1.09 1.09 0 0 1-.485-.851c0-.314.216-.44.485-.284a1.076 1.076 0 0 1 .494.852Zm16.449-9.495c0 .314-.224.44-.493.284a1.097 1.097 0 0 1-.493-.852c0-.313.224-.44.493-.283a1.099 1.099 0 0 1 .493.851Z" fill="#C2C4C4"/><defs><linearGradient id="a" x1="9.035" y1="17.343" x2="5.005" y2="17.994" gradientUnits="userSpaceOnUse"><stop stop-color="#2137FF"/><stop offset="1" stop-color="#0047FF"/></linearGradient><linearGradient id="b" x1="9.016" y1="11.972" x2="8.706" y2="13.355" gradientUnits="userSpaceOnUse"><stop stop-color="#2137FF"/><stop offset="1" stop-color="#0047FF"/></linearGradient><linearGradient id="c" x1="12.251" y1="16.202" x2="8.65" y2="16.889" gradientUnits="userSpaceOnUse"><stop stop-color="#E4E7FF"/><stop offset="1" stop-color="#2137FF"/></linearGradient><linearGradient id="d" x1="8.052" y1="15.558" x2="4.591" y2="16.928" gradientUnits="userSpaceOnUse"><stop stop-color="#E4E7FF"/><stop offset="1" stop-color="#2137FF"/></linearGradient><linearGradient id="e" x1="24.225" y1="18.645" x2="20.104" y2="25.457" gradientUnits="userSpaceOnUse"><stop stop-color="#E4E7FF"/><stop offset="1" stop-color="#2137FF"/></linearGradient><linearGradient id="f" x1="12.972" y1="16.12" x2="12.397" y2="17.399" gradientUnits="userSpaceOnUse"><stop stop-color="#2137FF"/><stop offset="1" stop-color="#0047FF"/></linearGradient><linearGradient id="g" x1="14.715" y1="18.302" x2="12.335" y2="18.977" gradientUnits="userSpaceOnUse"><stop stop-color="#E4E7FF"/><stop offset="1" stop-color="#2137FF"/></linearGradient><linearGradient id="h" x1="12.326" y1="16.434" x2="15.376" y2="16.827" gradientUnits="userSpaceOnUse"><stop stop-color="#E4E7FF"/><stop offset="1" stop-color="#2137FF"/></linearGradient><linearGradient id="i" x1="10.152" y1="25.808" x2="-3.803" y2="29.179" gradientUnits="userSpaceOnUse"><stop stop-color="#E4E7FF"/><stop offset="1" stop-color="#2137FF"/></linearGradient><linearGradient id="j" x1="41.287" y1="70.253" x2="42.026" y2="70.253" gradientUnits="userSpaceOnUse"><stop stop-color="#27262A"/><stop offset=".6" stop-color="#2F2F34"/><stop offset="1" stop-color="#37373D"/></linearGradient><linearGradient id="k" x1="39.367" y1="50.644" x2="41.452" y2="50.644" gradientUnits="userSpaceOnUse"><stop stop-color="#27262A"/><stop offset=".6" stop-color="#2F2F34"/><stop offset="1" stop-color="#37373D"/></linearGradient><linearGradient id="l" x1="38.912" y1="71.627" x2="39.651" y2="71.627" gradientUnits="userSpaceOnUse"><stop stop-color="#27262A"/><stop offset=".6" stop-color="#2F2F34"/><stop offset="1" stop-color="#37373D"/></linearGradient><linearGradient id="m" x1="24.905" y1="79.718" x2="25.645" y2="79.718" gradientUnits="userSpaceOnUse"><stop stop-color="#27262A"/><stop offset=".6" stop-color="#2F2F34"/><stop offset="1" stop-color="#37373D"/></linearGradient><linearGradient id="n" x1="22.977" y1="60.101" x2="25.062" y2="60.101" gradientUnits="userSpaceOnUse"><stop stop-color="#27262A"/><stop offset=".6" stop-color="#2F2F34"/><stop offset="1" stop-color="#37373D"/></linearGradient><linearGradient id="o" x1="22.522" y1="81.092" x2="23.262" y2="81.092" gradientUnits="userSpaceOnUse"><stop stop-color="#27262A"/><stop offset=".6" stop-color="#2F2F34"/><stop offset="1" stop-color="#37373D"/></linearGradient><linearGradient id="p" x1="23.855" y1="64.789" x2="9.424" y2="68.916" gradientUnits="userSpaceOnUse"><stop stop-color="#E4E7FF"/><stop offset="1" stop-color="#2137FF"/></linearGradient><linearGradient id="q" x1="54.864" y1="65.03" x2="28.055" y2="79.041" gradientUnits="userSpaceOnUse"><stop stop-color="#E4E7FF"/><stop offset="1" stop-color="#2137FF"/></linearGradient><linearGradient id="r" x1="36.599" y1="35.651" x2="31.491" y2="51.054" gradientUnits="userSpaceOnUse"><stop stop-color="#2137FF"/><stop offset="1" stop-color="#0047FF"/></linearGradient><linearGradient id="s" x1="48.383" y1="52.102" x2="-.133" y2="73.825" gradientUnits="userSpaceOnUse"><stop stop-color="#E4E7FF"/><stop offset="1" stop-color="#2137FF"/></linearGradient></defs></svg>