<svg width="1164" height="145" fill="none" xmlns="http://www.w3.org/2000/svg"><path d="M108.8 143.8h-5.4l-64.6-73L4 106.6v37.2H0V3.8h4v97.4L98.8 3.8h5.4L41.8 68l67 75.8Zm29.872-73h90.2v3.8h-90.2v-3.8Zm0-70.8h90.2v3.8h-90.2V0Zm0 143.8h90.2V140h-90.2v3.8Zm168.04 0h-4V96.2l-57-92.4h4.6l54.4 88.2 54.4-88.2h4.6l-57 92.4v47.6Zm85.765 0h-4V3.8h3.4l65.6 114.8 65.6-114.8h3.4v140h-4V12.4l-63.8 111.6h-2.4l-63.8-111.2v131Zm167.011 0h-4.6l65-140h4l65 140h-4.6l-62.4-134.6-62.4 134.6Zm157.895-140h47.4c17.2 0 30.667 4.067 40.4 12.2 9.733 8 14.6 19.267 14.6 33.8 0 14.533-4.867 25.867-14.6 34-9.733 8-23.2 12-40.4 12h-43.4v48h-4V92h47.8c16.533 0 29.067-3.667 37.6-11 8.667-7.333 13-17.733 13-31.2 0-13.467-4.333-23.867-13-31.2-8.533-7.333-21.067-11-37.6-11h-47.8V3.8ZM844.92 144.4c-1.466 0-2.733-.467-3.8-1.4-.933-1.067-1.4-2.333-1.4-3.8 0-1.467.467-2.667 1.4-3.6 1.067-1.067 2.334-1.6 3.8-1.6 1.467 0 2.667.533 3.6 1.6 1.067.933 1.6 2.133 1.6 3.6s-.533 2.733-1.6 3.8c-.933.933-2.133 1.4-3.6 1.4Z" fill="#0047FF"/><path d="M951 144.4c-8.4 0-15.933-1.2-22.6-3.6-6.667-2.533-12.333-6.267-17-11.2-4.667-4.933-8.267-11.067-10.8-18.4-2.4-7.467-3.6-16.133-3.6-26V3.8h4V85c0 18.8 4.333 32.8 13 42 8.667 9.067 21 13.6 37 13.6s28.333-4.533 37-13.6c8.667-9.2 13-23.2 13-42V3.8h4v81.4c0 9.867-1.27 18.533-3.8 26-2.4 7.333-5.933 13.467-10.6 18.4-4.667 4.933-10.333 8.667-17 11.2-6.667 2.4-14.2 3.6-22.6 3.6Z" fill="url(#a)"/><path d="M1034.6 143.8h-4.6l65-140h4l65 140h-4.6L1097 9.2l-62.4 134.6Z" fill="url(#b)"/><defs><linearGradient id="a" x1="951" y1="3.8" x2="951" y2="144.4" gradientUnits="userSpaceOnUse"><stop stop-color="#0047FF"/><stop offset="1" stop-color="#2F0DFF"/></linearGradient><linearGradient id="b" x1="1097" y1="3.8" x2="1097" y2="143.8" gradientUnits="userSpaceOnUse"><stop stop-color="#FFCE21"/><stop offset="1" stop-color="#FFA621"/></linearGradient></defs></svg>