<svg width="32" height="32" viewBox="0 0 32 32" fill="none" xmlns="http://www.w3.org/2000/svg">
<g filter="url(#filter0_d_1343_1621)">
<path fill-rule="evenodd" clip-rule="evenodd" d="M27 5.6C27 5.17565 26.8314 4.76869 26.5314 4.46863C26.2313 4.16857 25.8243 4 25.4 4H6.2C5.77565 4 5.36869 4.16857 5.06863 4.46863C4.76857 4.76869 4.6 5.17565 4.6 5.6C4.6 6.02435 4.76857 6.43131 5.06863 6.73137C5.36869 7.03143 5.77565 7.2 6.2 7.2H25.4C25.8243 7.2 26.2313 7.03143 26.5314 6.73137C26.8314 6.43131 27 6.02435 27 5.6ZM27 15.6C27 15.1757 26.8314 14.7687 26.5314 14.4686C26.2313 14.1686 25.8243 14 25.4 14H15.8C15.3757 14 14.9687 14.1686 14.6686 14.4686C14.3686 14.7687 14.2 15.1757 14.2 15.6C14.2 16.0243 14.3686 16.4313 14.6686 16.7314C14.9687 17.0314 15.3757 17.2 15.8 17.2H25.4C25.8243 17.2 26.2313 17.0314 26.5314 16.7314C26.8314 16.4313 27 16.0243 27 15.6ZM27 25.6C27 25.1757 26.8314 24.7687 26.5314 24.4686C26.2313 24.1686 25.8243 24 25.4 24H6.2C5.77565 24 5.36869 24.1686 5.06863 24.4686C4.76857 24.7687 4.6 25.1757 4.6 25.6C4.6 26.0243 4.76857 26.4313 5.06863 26.7314C5.36869 27.0314 5.77565 27.2 6.2 27.2H25.4C25.8243 27.2 26.2313 27.0314 26.5314 26.7314C26.8314 26.4313 27 26.0243 27 25.6Z" fill="white"/>
<path d="M26.8849 4.11508C27.2788 4.5089 27.5 5.04305 27.5 5.6C27.5 6.15695 27.2788 6.6911 26.8849 7.08492C26.4911 7.47875 25.957 7.7 25.4 7.7H6.2C5.64304 7.7 5.1089 7.47875 4.71507 7.08492C4.32125 6.6911 4.1 6.15695 4.1 5.6C4.1 5.04305 4.32125 4.5089 4.71507 4.11508C5.1089 3.72125 5.64304 3.5 6.2 3.5H25.4C25.957 3.5 26.4911 3.72125 26.8849 4.11508ZM26.8849 14.1151C27.2788 14.5089 27.5 15.043 27.5 15.6C27.5 16.157 27.2788 16.6911 26.8849 17.0849C26.4911 17.4788 25.957 17.7 25.4 17.7H15.8C15.243 17.7 14.7089 17.4788 14.3151 17.0849C13.9213 16.6911 13.7 16.157 13.7 15.6C13.7 15.043 13.9213 14.5089 14.3151 14.1151C14.7089 13.7212 15.243 13.5 15.8 13.5H25.4C25.957 13.5 26.4911 13.7212 26.8849 14.1151ZM26.8849 24.1151C27.2788 24.5089 27.5 25.043 27.5 25.6C27.5 26.157 27.2788 26.6911 26.8849 27.0849C26.4911 27.4787 25.957 27.7 25.4 27.7H6.2C5.64304 27.7 5.1089 27.4787 4.71507 27.0849C4.32125 26.6911 4.1 26.157 4.1 25.6C4.1 25.043 4.32125 24.5089 4.71507 24.1151C5.1089 23.7212 5.64305 23.5 6.2 23.5H25.4C25.957 23.5 26.4911 23.7212 26.8849 24.1151Z" stroke="url(#paint0_linear_1343_1621)"/>
</g>
<defs>
<filter id="filter0_d_1343_1621" x="3.60001" y="3" width="24.4" height="27.2002" filterUnits="userSpaceOnUse" color-interpolation-filters="sRGB">
<feFlood flood-opacity="0" result="BackgroundImageFix"/>
<feColorMatrix in="SourceAlpha" type="matrix" values="0 0 0 0 0 0 0 0 0 0 0 0 0 0 0 0 0 0 127 0" result="hardAlpha"/>
<feOffset dy="2"/>
<feComposite in2="hardAlpha" operator="out"/>
<feColorMatrix type="matrix" values="0 0 0 0 0.835294 0 0 0 0 0.466667 0 0 0 0 0.0352941 0 0 0 1 0"/>
<feBlend mode="normal" in2="BackgroundImageFix" result="effect1_dropShadow_1343_1621"/>
<feBlend mode="normal" in="SourceGraphic" in2="effect1_dropShadow_1343_1621" result="shape"/>
</filter>
<linearGradient id="paint0_linear_1343_1621" x1="15.8" y1="4" x2="15.8" y2="23.2" gradientUnits="userSpaceOnUse">
<stop offset="0.0350099" stop-color="#F7DE0D"/>
<stop offset="1" stop-color="#F7A50D"/>
</linearGradient>
</defs>
</svg>
