<svg width="52" height="80" fill="none" xmlns="http://www.w3.org/2000/svg"><g clip-path="url(#a)"><path d="m22.277 46.525-.716-1.842a3.413 3.413 0 0 0 1.494 1.603 9.159 9.159 0 0 0 8.306.082c.74-.36 1.33-.969 1.665-1.72l-.682 1.85a3.078 3.078 0 0 1-1.46 1.508 8.013 8.013 0 0 1-7.276-.068 3.003 3.003 0 0 1-1.31-1.413h-.02Z" fill="url(#b)"/><path d="M16.654 45.474a20.392 20.392 0 0 1-4.136-3.282 20.633 20.633 0 0 1-2.996-3.925 19.99 19.99 0 0 1-2.095-4.982 21.157 21.157 0 0 1-.683-5.016c.062 2.921 1.96 5.828 5.72 8.094 7.855 4.723 20.85 4.86 29.039.294 4.156-2.32 6.272-5.412 6.313-8.504-.041.846-.116 1.986-.232 2.832a21.41 21.41 0 0 1-.471 2.26 20.063 20.063 0 0 1-1.993 4.831 22.761 22.761 0 0 1-1.488 2.239 21.018 21.018 0 0 1-2.238 2.49 20.637 20.637 0 0 1-8.504 4.833 19.88 19.88 0 0 1-3.044.614 20.4 20.4 0 0 1-8.449-.683 21.05 21.05 0 0 1-4.709-2.081l-.034-.014Z" fill="#171552"/><path d="M16.954 45.645a7.03 7.03 0 0 1-1.05-.75l-.22-.13-.218-.137c.271.237.561.452.867.642l.328.204.293.17ZM15.59 44.6c-1.658-1.618-2.689-4.157-2.846-7.508l-.28-.163-.28-.171c.158 3.317 1.23 5.883 2.949 7.507l.225.144.232.136v.055Z" fill="url(#c)"/><path d="M34.576 47.065a4.305 4.305 0 0 0 1.508-.997l-.519.191a3.964 3.964 0 0 1-1.508.997l.519-.191Zm1.76-1.256c1.27-1.447 2.048-3.883 2.157-7.187l-.683.246c-.095 3.296-.832 5.72-2.047 7.132l.54-.191h.033Z" fill="url(#d)"/><path d="m40.616 43.468.723-.649c-.791.73-1.67 1.36-2.614 1.877a17.79 17.79 0 0 1-2.389 1.113l-.539.19c-6.38 2.246-14.748 1.755-20.208-1.398l-.232-.137-.225-.143a12.634 12.634 0 0 1-1.904-1.44l.239.218.614.533a17.343 17.343 0 0 0 6.913 3.248 26.664 26.664 0 0 0 14.571-.621l.519-.191c.802-.3 1.58-.66 2.327-1.078a13.39 13.39 0 0 0 2.143-1.468l.062-.054Z" fill="url(#e)"/><path d="M48.382 26.809v2.327c0-3.037-1.959-6.08-5.883-8.442V18.36c3.924 2.361 5.876 5.405 5.883 8.449Z" fill="url(#f)"/><path d="M42.5 18.36v2.34c-8.081-4.866-21.465-4.995-29.886-.3-4.334 2.416-6.511 5.644-6.504 8.872v-2.334c0-3.228 2.163-6.456 6.504-8.872 8.421-4.695 21.839-4.559 29.885.3v-.006Z" fill="url(#g)"/><path d="M17.247 9.938a20.515 20.515 0 0 1 20.59.341 8.456 8.456 0 0 0-6.142-.867 9.691 9.691 0 0 0-8.803-.068c-2.478 1.365-2.56 3.665-.178 5.098a9.719 9.719 0 0 0 8.797.089c2.478-1.365 2.56-3.665.184-5.098a8.456 8.456 0 0 1 6.143.867c.634.402 1.474.948 2.047 1.42.746.58 1.45 1.211 2.11 1.89a20.825 20.825 0 0 1 2.954 3.883 20.101 20.101 0 0 1 2.048 4.893c.178.605.319 1.22.423 1.843.196 1.079.304 2.172.32 3.269.062 3.174-2.047 6.354-6.32 8.729-8.189 4.566-21.156 4.436-29.032-.294-3.863-2.32-5.76-5.323-5.719-8.312.03-.938.107-1.875.232-2.805.17-1.082.427-2.148.771-3.187.157-.54.437-1.236.642-1.754.157-.376.396-.86.566-1.229.24-.518.642-1.167.935-1.658a19.52 19.52 0 0 1 1.973-2.662 20.901 20.901 0 0 1 1.542-1.57 19.954 19.954 0 0 1 3.917-2.832v.014Z" fill="url(#h)"/><path d="M37.428 10.027a7.937 7.937 0 0 0-5.398-.799l.123.075a8.32 8.32 0 0 1 5.671.955l-.396-.231Z" fill="#C3C3C3"/><path d="M16.886 10.142a7.937 7.937 0 0 1 5.46-.853l.109-.061.116-.062a7.269 7.269 0 0 0-4.969.587l-.34.185-.363.204h-.013Z" fill="#231889"/><path d="M20.626 13.282c-.73-1.365-.15-2.914 1.706-3.993l.11-.061.115-.061a10.79 10.79 0 0 1 9.487.082l.122.075-.47.088a9.69 9.69 0 0 0-8.804-.068c-1.754.976-2.307 2.402-1.638 3.665l-.628.293v-.02Zm-7.944 22.174a28.385 28.385 0 0 1 2.73-10.592l-.198-.116-.321-.198a26.985 26.985 0 0 0-2.846 10.517l.396.245.239.144Zm3.044-11.254a34.123 34.123 0 0 1 6.592-9.289l-.082-.048-.136-.082a33.053 33.053 0 0 0-6.88 9.112l.315.197.19.11Zm25.9 11.301a29.045 29.045 0 0 0-2.73-10.598l-.144.081-.41.219a30.595 30.595 0 0 1 2.622 10.667l.498-.266.177-.103h-.014Zm-3.058-11.26a34.634 34.634 0 0 0-6.538-9.31h-.062l-.17.096a35.912 35.912 0 0 1 6.238 9.48l.395-.212.137-.082v.028Z" fill="#231889"/><path d="M32.35 9.44c-.163 0-.334.04-.497.075 2.21 1.433 2.047 3.644-.341 4.995a9.719 9.719 0 0 1-8.798-.088 3.916 3.916 0 0 1-1.46-1.434l-.628.294c.352.62.86 1.138 1.474 1.501l.137.082.082.048a10.777 10.777 0 0 0 9.48.143l.17-.095h.061c2.62-1.502 2.73-3.918.32-5.46v-.062Z" fill="#231889"/><path d="M47.782 27.478c.061 3.173-2.048 6.353-6.32 8.728-8.19 4.566-21.157 4.436-29.033-.293a12.66 12.66 0 0 1-4.811-4.716v-.6a12.394 12.394 0 0 0 4.409 4.47l.396.245.238.144c7.706 4.484 20.154 4.654 28.269.416l.498-.266.177-.102c4.273-2.437 6.32-5.692 6.143-8.914l.034.888Z" fill="url(#i)"/><path d="M7.618 31.183a7.446 7.446 0 0 1-.908-3.596v-.894a7.35 7.35 0 0 0 .894 3.89v.6h.014Z" fill="url(#j)"/><path d="M11.317 20.946c-1.324-2.894-.833-5.228 1.644-7.814l.369-.341.444-.396c-2.73 2.375-3.447 5.33-2.048 7.992-.143.184-.286.368-.423.56h.014Z" fill="#231889"/><path d="m41.087 12.695-.437-.39c4.293 3.68 3.562 8.716-2.082 11.937l-.136.082-.396.212c-6.402 3.344-16.23 3.207-22.31-.335l-.191-.109-.314-.198a9.706 9.706 0 0 1-3.481-3.528c-.143.184-.287.369-.423.56a10.313 10.313 0 0 0 3.897 3.821 20.356 20.356 0 0 0 6.279 2.369c5.616 1.18 12.127.552 16.836-1.911l.41-.219.143-.082c6.688-4.135 5.57-8.981 2.573-11.868l-.368-.341Zm-3.249-2.415.634.395A8.872 8.872 0 0 0 32.33 9.44c-.164 0-.334.04-.498.075l-.157-.103a8.456 8.456 0 0 1 6.142.867h.02Z" fill="#231889"/><path d="M20.98 11.93v-.976a3.057 3.057 0 0 0 1.727 2.485 9.677 9.677 0 0 0 8.797.088c1.277-.682 1.918-1.658 1.918-2.607v.976c0 .949-.634 1.898-1.91 2.614a9.719 9.719 0 0 1-8.798-.088c-1.153-.683-1.733-1.59-1.733-2.492Z" fill="url(#k)"/><path d="M31.689 8.436c2.382 1.433 2.3 3.713-.184 5.091a9.678 9.678 0 0 1-8.798-.088c-2.375-1.427-2.293-3.713.185-5.091a9.677 9.677 0 0 1 8.797.088Z" fill="#fff"/><path d="M12.914 35.913h-.976V52.66h.976V35.913Z" fill="url(#l)"/><path d="M12.77 52.463a.764.764 0 0 0-.682 0 .213.213 0 0 0-.147.201.212.212 0 0 0 .147.201.777.777 0 0 0 .682 0c.191-.109.191-.286 0-.402Z" fill="url(#m)"/><path d="M28.447 39.23h-.976v16.748h.976V39.23Z" fill="url(#n)"/><path d="M28.304 55.752a.764.764 0 0 0-.683 0 .211.211 0 0 0 0 .403.777.777 0 0 0 .683 0c.198-.082.19-.26 0-.403Z" fill="url(#o)"/><path d="M41.946 36.206h-.975v16.748h.975V36.206Z" fill="url(#p)"/><path d="M41.81 52.763a.743.743 0 0 0-.683 0 .21.21 0 0 0-.105.326.21.21 0 0 0 .105.077.764.764 0 0 0 .683 0 .21.21 0 0 0 .106-.326.21.21 0 0 0-.106-.077Z" fill="url(#q)"/><path d="M49.467 27.095h-.976v16.748h.976V27.095Z" fill="url(#r)"/><path d="M49.324 43.652a.743.743 0 0 0-.683 0 .21.21 0 0 0-.106.326.21.21 0 0 0 .106.077.764.764 0 0 0 .683 0 .21.21 0 0 0 .106-.326.21.21 0 0 0-.106-.077Z" fill="url(#s)"/><path d="M6.014 26.276h-.976v16.748h.976V26.276Z" fill="url(#t)"/><path d="M5.877 42.84a.757.757 0 0 0-.682 0c-.191.11-.184.293 0 .403a.765.765 0 0 0 .682 0 .212.212 0 0 0 0-.403Z" fill="url(#u)"/><path d="M28.597 10.129a3.098 3.098 0 0 0-2.805 0 .86.86 0 0 0 0 1.624 3.099 3.099 0 0 0 2.805 0 .86.86 0 0 0 0-1.624Z" fill="url(#v)"/><path d="M29.184 9.385h-3.972v1.556h3.972V9.385Z" fill="url(#w)"/><path d="M28.597 8.573a3.098 3.098 0 0 0-2.805 0 .86.86 0 0 0 0 1.624 3.078 3.078 0 0 0 2.805 0c.785-.45.778-1.174 0-1.624Z" fill="url(#x)"/><path d="M3.387 57.889a3.099 3.099 0 0 0-2.805 0 .853.853 0 0 0 0 1.617 3.099 3.099 0 0 0 2.805 0 .852.852 0 0 0 0-1.617Z" fill="url(#y)"/><path d="M3.973 53.159H.001v5.535h3.972v-5.535Z" fill="url(#z)"/><path d="M3.386 52.34a3.099 3.099 0 0 0-2.805 0 .86.86 0 0 0 0 1.624 3.099 3.099 0 0 0 2.805 0c.785-.43.778-1.153 0-1.624ZM46.24 20.066c.142.34.279.682.388.99.11.306.3.914.41 1.31l.082.3c2.013 3.221 1.603 6.825-1.202 9.903a14.652 14.652 0 0 1-4.456 3.637c-8.19 4.566-21.157 4.436-29.033-.293a14.252 14.252 0 0 1-3.842-3.256c-2.819-3.057-3.228-6.66-1.242-9.882 0-.102.054-.205.082-.293.068-.26.157-.574.252-.867.13-.437.335-.97.519-1.426-5.14 4.886-4.204 11.342 2.955 15.649 8.524 5.132 22.645 5.275 31.53.32 7.712-4.292 8.948-11.035 3.556-16.092Z" fill="#fff"/><path d="M4.95 28.945v-2.048c0 3.208 2.047 6.416 6.203 8.873 8.524 5.132 22.644 5.275 31.53.32 4.573-2.552 6.873-5.95 6.86-9.356v2.047c0 3.413-2.287 6.825-6.86 9.357-8.872 4.955-23.006 4.777-31.53-.314-4.136-2.491-6.197-5.699-6.21-8.913l.006.034Z" fill="url(#A)"/><path d="M49.03 24.017h-1.187c1.651 4.095-.348 8.538-5.945 11.657-8.421 4.696-21.805 4.566-29.885-.3-3.795-2.287-5.747-5.208-5.876-8.149h-1.16c.122 3.112 2.183 6.197 6.196 8.613 8.525 5.132 22.645 5.275 31.53.32 5.809-3.248 7.938-7.889 6.327-12.14Z" fill="#fff"/><path d="M28.14 8.784a2.108 2.108 0 0 0-1.897 0 .58.58 0 0 0 0 1.099 2.123 2.123 0 0 0 1.904 0 .58.58 0 0 0-.007-1.099Z" fill="url(#B)"/><path d="M2.93 52.62a2.103 2.103 0 0 0-1.905 0 .574.574 0 0 0 0 1.092 2.103 2.103 0 0 0 1.904 0 .58.58 0 0 0 0-1.092Z" fill="url(#C)"/><path d="M28.556 2.52v6.824h-2.73V2.84L5.106 14.804a3.55 3.55 0 0 0-1.31 1.365 3.48 3.48 0 0 0-.47 1.754v35.284H.642V17.895a6.354 6.354 0 0 1 .819-3.091 6.51 6.51 0 0 1 2.3-2.3L24.802.349a2.484 2.484 0 0 1 3.754 2.17Z" fill="url(#D)"/><path d="m3.762 12.49 1.337 2.327L25.847 2.84 24.796.342 3.762 12.49Z" fill="url(#E)"/><path d="M3.325 17.895H.636v35.278h2.69V17.895Z" fill="url(#F)"/><path d="m25.847 2.84 1.064-.962 1.625.628V9.33h-2.69V2.84Z" fill="url(#G)"/><path d="m27.287.349-1.46 2.49L24.781.35a2.45 2.45 0 0 1 2.505 0Z" fill="url(#H)"/><path d="m28.556 2.52-1.686.286-1.044 1.078V2.84l1.44-2.491a2.457 2.457 0 0 1 1.29 2.17Z" fill="url(#I)"/><path d="M5.106 14.804a3.55 3.55 0 0 0-1.31 1.365l-2.334-1.365a6.51 6.51 0 0 1 2.3-2.3l1.344 2.3Z" fill="url(#J)"/><path d="M3.796 16.169a3.48 3.48 0 0 0-.47 1.754H.642c0-1.093.282-2.167.819-3.119l2.334 1.365Z" fill="#fff"/><path d="M5.446 63.626 23.02 53.413l28.364 16.374L33.805 80 5.444 63.626Z" fill="#AEC4D4" style="mix-blend-mode:multiply"/><path d="m15.85 66.58-.97.56 8.98 5.18.97-.56-8.98-5.18Z" fill="#231889"/><path d="m25.794 67.257-.964.56v5.062l.964-.56v-5.062Z" fill="#A3A6C7"/><path d="M32.828 78.277 14.88 67.917v-.778L32.828 77.5v.778Zm14.67-8.538L29.557 59.378v-.777l17.941 10.36v.778Z" fill="#171552"/><path d="m15.85 61.517-.97.56v5.062l.97-.56v-5.062Z" fill="#171552"/><path d="m26.802 56.3-1.474.858c.796-.467 1.28-1.462 1.243-2.873l1.48-.858c.038 1.405-.453 2.4-1.25 2.873Z" fill="#E3E8E6"/><path d="m19.177 46.567 1.474-.858c.771-.448 1.866-.398 3.016.261a9.538 9.538 0 0 1 4.403 7.463l-1.48.858a9.51 9.51 0 0 0-4.403-7.463c-1.175-.659-2.239-.709-3.01-.261Z" fill="#fff"/><path d="M29.326 51.66v.38c0 .118 0 .354-.043.503-.04.25-.091.496-.156.74a4.662 4.662 0 0 1-.192.566 9.612 9.612 0 0 1-.311.622 6.347 6.347 0 0 1-.436.622c-.074.1-.192.23-.28.323a7.699 7.699 0 0 1-.584.517c-.143.111-.355.242-.51.342.796-.467 1.287-1.462 1.244-2.873a2.134 2.134 0 0 0 1.268-1.742Z" fill="#F07C04"/><path d="M20.65 45.727c.212-.111.492-.248.71-.342.184-.072.373-.132.566-.18.112 0 .261-.062.373-.075.112-.012.417-.056.622-.068a4.42 4.42 0 0 1 .622 0c.253.022.504.06.752.112.24.053.477.122.71.205.235.091.465.195.69.311l.447.261a10.1 10.1 0 0 1 .647.473c.1.08.187.162.261.236.183.166.355.342.516.529.149.169.288.345.417.529l.187.273c.05.081.124.193.174.28.05.087.118.199.161.286l.15.299c.043.087.093.211.136.304.044.094.087.218.125.311.037.094.1.255.205.653.069.274.124.572.15.74.024.168 0 .255.037.367.037.112 0 .305 0 .442a2.133 2.133 0 0 1-1.244 1.76 9.539 9.539 0 0 0-4.403-7.463c-1.176-.66-2.239-.709-3.01-.243Z" fill="url(#K)"/><path d="m18.095 46.785.908-.523c.815-.472 1.934-.423 3.184.274 2.538 1.411 4.62 4.944 4.652 7.88l-.902.522c-.037-2.936-2.12-6.462-4.652-7.874-1.25-.715-2.369-.752-3.19-.28Z" fill="#2137FF"/><path d="M22.542 57.873a4.56 4.56 0 0 1-1.132-.46 9.551 9.551 0 0 1-4.403-7.463c-.031-2.78 1.865-3.949 4.278-2.612a9.522 9.522 0 0 1 4.403 7.463l.25.137c-.038-2.936-2.121-6.462-4.653-7.873-2.53-1.412-4.564-.18-4.527 2.76a10.099 10.099 0 0 0 4.658 7.88 5.28 5.28 0 0 0 1.126.467v-.299Z" fill="#231889"/><path d="m25.328 57.152-9.329 5.404c.796-.46 1.288-1.462 1.244-2.873l9.328-5.404c.038 1.399-.447 2.406-1.243 2.873Z" fill="#E3E8E6"/><path d="m9.867 51.977 8.408-4.888c.772-.447 1.866-.398 3.01.262a9.52 9.52 0 0 1 4.403 7.462l-8.401 4.882a9.565 9.565 0 0 0-4.403-7.463c-1.182-.653-2.24-.709-3.017-.255Z" fill="url(#L)"/><path d="M12.772 63.14a5.389 5.389 0 0 1-.622-.304 9.52 9.52 0 0 1-4.403-7.463c-.037-2.78 1.866-3.949 4.278-2.612a9.552 9.552 0 0 1 4.403 7.463l.25.137c-.038-2.936-2.122-6.468-4.659-7.88-2.537-1.411-4.558-.174-4.52 2.761a10.056 10.056 0 0 0 4.607 7.899c.2.117.408.218.622.304l.044-.304Z" fill="#231889"/><path d="m15.116 63.084-1.474.859c.796-.467 1.281-1.462 1.244-2.874l2.382-1.386c.037 1.411-1.356 2.935-2.152 3.401Z" fill="#E3E8E6"/><path d="M8.798 61.132c0 .815-.554 1.163-1.244.765a2.805 2.805 0 0 1-1.3-2.19c0-.82.554-1.162 1.244-.77a2.798 2.798 0 0 1 1.3 2.195Z" fill="#231889"/><path d="m8.791 52.195.902-.522c.815-.473 1.94-.423 3.184.273 2.538 1.412 4.621 4.938 4.658 7.88l-.901.522c-.038-2.935-2.121-6.467-4.658-7.88-1.244-.69-2.37-.745-3.185-.273Z" fill="#2137FF"/><path d="M14.905 61.07a9.52 9.52 0 0 0-4.403-7.463c-1.176-.66-2.24-.709-3.01-.261a6.62 6.62 0 0 0-.51.342 4.527 4.527 0 0 0-.864.84 5.275 5.275 0 0 0-.877 1.616 6.067 6.067 0 0 0-.15.579c-.037.174-.05.255-.068.373a5.45 5.45 0 0 0-.044.504c-.006.155 0 .267 0 .379v.441c0 .131 0 .28.044.398.043.119.037.243.062.349.025.105.05.242.08.342.032.1.07.242.094.342.025.1.075.23.112.33.037.099.174.428.261.621.044.087.1.205.15.292.05.088.112.206.161.287l.174.286c.056.08.131.192.193.273l.2.268.21.26s.224.256.517.53l.261.23c.1.08.236.192.342.267.106.075.211.15.305.205.093.056.348.218.503.292.228.117.463.22.703.305.205.069.485.143.697.2.112 0 .267.043.38.061.205.032.413.049.621.05h.38c.208-.011.416-.036.621-.074.112 0 .261-.05.373-.081.112-.031.361-.112.51-.168.15-.056.498-.23.71-.336.795-.473 1.28-1.468 1.262-2.88Zm-7.363.827a2.805 2.805 0 0 1-1.3-2.19c0-.82.553-1.162 1.244-.77a2.8 2.8 0 0 1 1.293 2.195c.031.815-.535 1.163-1.237.765Z" fill="url(#M)"/><path d="M14.905 61.07a9.522 9.522 0 0 0-4.403-7.463c-1.176-.66-2.24-.709-3.01-.261a6.62 6.62 0 0 0-.51.342c-.106.077-.208.16-.305.248-.14.126-.273.258-.398.398.753-.77 1.978-.858 3.364-.087a9.29 9.29 0 0 1 4.285 7.252c0 1.56-.622 2.6-1.567 2.947h.062c.156-.043.361-.111.51-.167.15-.056.498-.23.71-.336.795-.467 1.28-1.462 1.262-2.873Z" fill="#2137FF"/><path d="m7.492 53.358 1.474-.858c.77-.448 1.865-.398 3.016.261a9.552 9.552 0 0 1 4.403 7.463l-1.48.858a9.521 9.521 0 0 0-4.403-7.463c-1.176-.659-2.24-.709-3.01-.261Z" fill="#fff"/><path d="M12.946 62.855v-.367l17.407-9.895 2.12.802v.367l-1.467.865-1.48.211-12.787 7.432-.373.852-1.474.858-1.946-1.125Z" fill="#B1B5D9"/><path d="m13.916 62.295.964.56v5.062l-.964-.554v-5.068Z" fill="#171552"/><path d="m12.946 62.487 1.946 1.126v.367l-1.946-1.126v-.367Z" fill="#231889"/><path d="m31.006 54.26-1.48.211v.367l1.48-.211v-.367Zm-14.64 8.495.373-.852v.367l-.373.852v-.367Z" fill="#9598B6"/><path d="M12.946 62.487 30.52 52.276l1.952 1.12-1.467.864-1.48.211-12.787 7.432-.373.852-1.474.858-1.946-1.126Z" fill="url(#N)"/><path d="m17.56 60.883.902-.523v-.292l-1.84-.018-.243.155 1.181.678Z" fill="#9598B6"/><path d="m17.56 60.597.902-.529-.94-.54-.9.522.938.547Z" fill="#D0D5FF"/><path d="m26.87 55.479.902-.529v-.292l-.933-.243-.914.224-.237.156 1.182.684Z" fill="#9598B6"/><path d="m26.87 55.186.902-.528-.94-.541-.907.522.945.547Z" fill="#D0D5FF"/><path d="m36.26 61.747-1.48.858c.797-.46 1.288-1.455 1.244-2.866l1.474-.859c.044 1.412-.441 2.395-1.237 2.867Z" fill="#E3E8E6"/><path d="m28.63 52.027 1.48-.858c.771-.447 1.866-.398 3.01.255a9.533 9.533 0 0 1 4.403 7.463l-1.474.858a9.565 9.565 0 0 0-4.403-7.463c-1.181-.653-2.239-.702-3.016-.255Z" fill="#fff"/><path d="M38.78 57.114v.386c0 .118-.032.354-.05.504-.037.25-.089.496-.156.74a4.25 4.25 0 0 1-.193.56c-.08.198-.211.447-.31.621a5.32 5.32 0 0 1-.43.622 2.88 2.88 0 0 1-.286.324 7.713 7.713 0 0 1-.578.522 5.543 5.543 0 0 1-.51.336c.796-.46 1.28-1.456 1.244-2.867a2.133 2.133 0 0 0 1.268-1.748Z" fill="#F07C04"/><path d="M30.11 51.17c.23-.127.467-.242.71-.343.181-.073.368-.133.559-.18.112 0 .261-.063.38-.081a9.75 9.75 0 0 1 .59-.062 3.67 3.67 0 0 1 .622 0 6.2 6.2 0 0 1 .759.112c.238.053.473.121.702.205.212.08.491.205.697.31.205.106.31.181.441.262.13.08.218.143.305.205s.243.187.342.268l.267.236a6.839 6.839 0 0 1 .927 1.057c.056.081.137.187.187.274.05.087.124.193.174.28.05.087.118.199.162.286.055.096.105.196.149.298.043.087.1.212.137.305l.124.31c.082.214.15.432.205.654.064.243.114.49.15.74l.043.36v.442a2.134 2.134 0 0 1-1.244 1.766 9.534 9.534 0 0 0-4.403-7.462c-1.15-.64-2.214-.71-2.985-.243Z" fill="url(#O)"/><path d="m27.554 52.245.902-.522c.814-.473 1.94-.423 3.184.273 2.537 1.412 4.62 4.938 4.658 7.88l-.902.522a10.1 10.1 0 0 0-4.658-7.88c-1.244-.69-2.37-.746-3.184-.273Z" fill="#2137FF"/><path d="M31.994 63.333a4.673 4.673 0 0 1-1.125-.46 9.52 9.52 0 0 1-4.403-7.463c-.038-2.78 1.865-3.949 4.278-2.612a9.552 9.552 0 0 1 4.403 7.463l.249.137a10.1 10.1 0 0 0-4.658-7.88c-2.531-1.411-4.558-.174-4.521 2.768a10.056 10.056 0 0 0 4.652 7.855c.354.202.732.359 1.125.466v-.274Z" fill="#231889"/><path d="m34.78 62.606-9.328 5.41c.796-.46 1.281-1.461 1.244-2.873l9.328-5.404c.044 1.412-.447 2.407-1.243 2.867Z" fill="#E3E8E6"/><path d="m19.326 57.431 8.402-4.863c.771-.448 1.835-.398 3.016.261a9.553 9.553 0 0 1 4.403 7.463l-8.408 4.882a9.522 9.522 0 0 0-4.403-7.463c-1.175-.672-2.238-.727-3.01-.28Z" fill="url(#P)"/><path d="M22.2 68.582a5.33 5.33 0 0 1-.622-.298 9.546 9.546 0 0 1-4.403-7.463c-.032-2.78 1.865-3.95 4.278-2.612a9.508 9.508 0 0 1 4.403 7.463l.249.136c-.037-2.941-2.12-6.467-4.652-7.879-2.53-1.412-4.564-.174-4.527 2.761.037 2.936 2.12 6.468 4.658 7.88.199.117.407.219.622.304l-.006-.292Z" fill="#231889"/><path d="m24.588 68.538-1.474.859c.796-.46 1.28-1.456 1.244-2.867l2.375-1.387c.025 1.412-1.362 2.935-2.145 3.395Z" fill="#E3E8E6"/><path d="m18.244 57.655.908-.522c.815-.479 1.934-.423 3.184.274a10.074 10.074 0 0 1 4.652 7.879l-.902.522c-.037-2.941-2.12-6.467-4.651-7.879-1.25-.697-2.376-.746-3.19-.274Z" fill="#2137FF"/><path d="M18.257 66.592c0 .814-.554 1.157-1.244.765a2.799 2.799 0 0 1-1.294-2.19c0-.82.554-1.162 1.244-.77a2.805 2.805 0 0 1 1.294 2.195Z" fill="#231889"/><path d="M24.364 66.53a9.54 9.54 0 0 0-4.403-7.463c-1.182-.66-2.245-.71-3.016-.261a6.39 6.39 0 0 0-.51.342c-.15.112-.212.168-.299.242-.205.192-.394.4-.566.622a5.073 5.073 0 0 0-.87 1.617c-.056.168-.112.398-.156.572-.043.174-.05.261-.062.373-.013.112-.037.355-.05.51-.012.156 0 .261 0 .38v.441c0 .13.031.274.05.392.019.118.037.249.056.355l.08.341c0 .106.069.243.1.343.031.1.075.23.112.323.075.186.174.435.261.622.044.102.094.202.15.298.047.099.101.195.161.286l.174.287c.05.08.13.192.187.273l.199.267.218.262s.217.255.51.528l.267.23c.1.081.236.193.342.268.106.075.205.15.305.205.1.056.348.218.503.292.226.117.458.219.697.305l.703.2.373.061c.206.028.414.045.622.05h.385c.2-.025.397-.062.591-.112.112 0 .267-.05.38-.08l.503-.169c.244-.097.48-.212.71-.342.82-.454 1.305-1.449 1.293-2.86Zm-7.37.827a2.798 2.798 0 0 1-1.293-2.19c0-.82.553-1.162 1.244-.77a2.804 2.804 0 0 1 1.3 2.195c.018.814-.542 1.157-1.25.765Z" fill="url(#Q)"/><path d="M24.364 66.53a9.54 9.54 0 0 0-4.403-7.463c-1.182-.66-2.245-.71-3.017-.261-.155.093-.36.23-.51.342-.149.112-.211.168-.298.242a5.19 5.19 0 0 0-.404.404c.758-.77 1.977-.858 3.364-.087a9.26 9.26 0 0 1 4.285 7.252c0 1.56-.59 2.6-1.567 2.947h.068l.504-.167c.244-.098.48-.212.709-.343.796-.46 1.281-1.455 1.269-2.866Z" fill="#2137FF"/><path d="m16.944 58.818 1.48-.858c.772-.448 1.835-.398 3.01.261a9.508 9.508 0 0 1 4.403 7.463l-1.474.858a9.541 9.541 0 0 0-4.402-7.463c-1.182-.659-2.214-.709-3.017-.26Z" fill="#fff"/><path d="M22.405 68.315v-.367l17.407-9.894 2.114.802v.367l-1.468.858-1.474.217-12.792 7.432-.373.852-1.468.858-1.946-1.125Z" fill="#B1B5D9"/><path d="m22.405 67.948 1.946 1.125v.367l-1.946-1.125v-.367Z" fill="#231889"/><path d="m40.459 59.714-1.474.217v.367l1.474-.218v-.366Zm-14.64 8.501.373-.852v.367l-.373.852v-.367Z" fill="#9598B6"/><path d="M22.405 67.948 39.98 57.73l1.946 1.126-1.468.858-1.474.218-12.792 7.431-.373.852-1.468.858-1.946-1.125Z" fill="url(#R)"/><path d="m27.019 66.343.902-.522v-.292l-1.847-.019-.237.155 1.182.678Z" fill="#9598B6"/><path d="m27.02 66.057.901-.528-.945-.541-.902.522.945.547Z" fill="#D0D5FF"/><path d="m36.323 60.933.908-.523v-.292l-.933-.242-.914.223-.243.156 1.182.678Z" fill="#9598B6"/><path d="m36.323 60.647.908-.529-.946-.541-.901.522.939.548Z" fill="#D0D5FF"/><path d="m25.794 72.32-.964.56 7.998 4.62.964-.56-7.998-4.62Z" fill="#231889"/><path d="m34.768 73.134-.97.56v5.068l.97-.56v-5.068Z" fill="url(#S)"/><path d="m32.828 73.215.964.56v5.062l-.964-.56v-5.062Z" fill="#171552"/><path d="m23.86 67.674.97.56v4.645l-.97-.56v-4.645Zm21.132-1.281-.97.56 3.476 2.008.97-.56-3.476-2.008Z" fill="#231889"/><path d="m47.498 64.677.97.56v5.061l-.97-.56v-5.061Z" fill="#171552"/><path d="m45.732 67.208-1.474.858c.796-.46 1.281-1.462 1.244-2.873l1.48-.858c-.006 1.411-.473 2.412-1.25 2.873Z" fill="#231889"/><path d="m38.089 57.488 1.474-.859c.77-.454 1.834-.398 3.016.255a9.564 9.564 0 0 1 4.403 7.463l-1.48.858a9.526 9.526 0 0 0-4.403-7.462c-1.176-.654-2.208-.71-3.01-.255Z" fill="#fff"/><path d="M48.22 62.575v.38c0 .111 0 .354-.044.509-.04.25-.091.496-.156.74-.05.19-.115.378-.192.56a7.267 7.267 0 0 1-.311.622 6.283 6.283 0 0 1-.436.622 2.823 2.823 0 0 1-.28.323c-.184.183-.38.356-.584.516-.162.126-.332.24-.51.342.796-.46 1.287-1.461 1.244-2.873a2.12 2.12 0 0 0 1.268-1.741Z" fill="#231889"/><path d="M39.563 56.63c.211-.113.491-.256.709-.343a3.9 3.9 0 0 1 .56-.18l.379-.081.622-.069a4.42 4.42 0 0 1 .622 0 5.457 5.457 0 0 1 2.151.628l.448.262c.093.056.212.143.305.205s.242.187.342.267l.261.23c.18.167.35.344.51.53.15.17.292.348.423.534l.186.267.174.286c.05.081.112.2.162.287.05.087.106.205.15.298.043.093.093.212.136.299l.125.317a6.74 6.74 0 0 0 .354 1.393c.025.174 0 .255.037.36.038.106 0 .311 0 .442a2.12 2.12 0 0 1-1.243 1.76 9.565 9.565 0 0 0-4.403-7.463c-1.194-.628-2.24-.684-3.01-.23Z" fill="url(#T)"/><path d="m37.025 57.705.908-.522c.815-.473 1.934-.423 3.184.273a10.075 10.075 0 0 1 4.615 7.88l-.902.522c-.037-2.935-2.12-6.468-4.652-7.88-1.231-.69-2.357-.746-3.153-.273Z" fill="#2137FF"/><path d="M41.453 68.787a4.535 4.535 0 0 1-1.131-.454 9.551 9.551 0 0 1-4.403-7.462c-.031-2.78 1.865-3.95 4.278-2.612A9.522 9.522 0 0 1 44.6 65.72l.25.137c-.038-2.935-2.122-6.467-4.653-7.88-2.53-1.41-4.564-.173-4.527 2.762.037 2.935 2.12 6.468 4.658 7.88.353.203.732.36 1.125.466v-.299Z" fill="#231889"/><path d="m44.24 68.066-9.329 5.41c.796-.466 1.287-1.461 1.244-2.873l9.328-5.41c.038 1.411-.447 2.413-1.243 2.873Z" fill="#231889"/><path d="m28.78 62.892 8.407-4.882c.771-.448 1.866-.398 3.01.261a9.52 9.52 0 0 1 4.403 7.463l-8.402 4.87a9.551 9.551 0 0 0-4.403-7.464c-1.181-.621-2.232-.696-3.016-.248Z" fill="url(#U)"/><path d="M31.659 74.042a5.916 5.916 0 0 1-.622-.298 9.54 9.54 0 0 1-4.397-7.463c-.038-2.774 1.866-3.943 4.279-2.612a9.565 9.565 0 0 1 4.402 7.463l.25.143c-.038-2.942-2.121-6.468-4.659-7.88-2.537-1.411-4.558-.174-4.527 2.762.031 2.935 2.12 6.467 4.658 7.879.2.115.408.216.622.305l-.006-.299Z" fill="#231889"/><path d="m34.028 73.999-1.474.858c.796-.46 1.281-1.456 1.244-2.873l2.382-1.381c.037 1.412-1.356 2.935-2.152 3.396Z" fill="#231889"/><path d="m27.697 63.14.902-.528c.814-.473 1.94-.417 3.184.28 2.537 1.411 4.62 4.937 4.658 7.873l-.902.528c-.037-2.941-2.12-6.467-4.658-7.879-1.238-.721-2.363-.771-3.184-.274Z" fill="#2137FF"/><path d="M27.697 72.046c0 .82-.553 1.163-1.244.771a2.804 2.804 0 0 1-1.3-2.195c0-.815.554-1.157 1.244-.765a2.818 2.818 0 0 1 1.3 2.189Z" fill="#231889"/><path d="M33.816 71.984a9.526 9.526 0 0 0-4.403-7.463c-1.175-.653-2.238-.703-3.01-.255-.161.093-.36.23-.51.336-.149.106-.217.174-.304.249-.202.192-.39.4-.56.622a5.208 5.208 0 0 0-.877 1.617 5.954 5.954 0 0 0-.149.572c-.037.174-.05.26-.068.373-.019.112-.038.354-.05.504-.013.149 0 .267 0 .385v.442c0 .136 0 .273.043.391.044.119.038.25.063.355.024.106.05.236.08.342.032.106.069.236.094.342.025.106.074.23.112.323.074.187.174.436.26.622.088.187.1.212.15.299l.162.286c.05.087.124.199.174.28.05.08.13.199.193.28l.199.267.211.255c.163.185.335.362.516.529a6.002 6.002 0 0 0 .603.504c.106.074.212.149.305.204.094.056.349.218.504.293.229.114.463.216.703.305.205.062.485.143.696.192.112 0 .268.05.38.069a4.3 4.3 0 0 0 .622.043h.379c.18 0 .417-.037.622-.074l.373-.087c.155-.044.354-.106.51-.162.243-.1.48-.214.709-.342.802-.485 1.287-1.48 1.268-2.898Zm-7.363.833a2.806 2.806 0 0 1-1.3-2.195c0-.815.554-1.157 1.244-.765a2.817 2.817 0 0 1 1.294 2.189c.006.82-.535 1.163-1.238.771Z" fill="url(#V)"/><path d="M33.816 71.984a9.528 9.528 0 0 0-4.403-7.463c-1.175-.653-2.239-.703-3.01-.255-.161.093-.36.23-.51.336-.149.106-.217.174-.304.249a3.401 3.401 0 0 0-.398.404c.752-.771 1.977-.858 3.364-.087a9.29 9.29 0 0 1 4.285 7.251c0 1.561-.622 2.6-1.567 2.948h.062c.155-.044.354-.106.51-.162.243-.1.48-.214.709-.342.796-.466 1.281-1.461 1.262-2.88Z" fill="#2137FF"/><path d="m26.404 64.278 1.473-.858c.772-.448 1.866-.398 3.017.255a9.565 9.565 0 0 1 4.403 7.463l-1.48.858a9.528 9.528 0 0 0-4.404-7.463c-1.175-.653-2.238-.702-3.01-.255Z" fill="#fff"/><path d="m49.432 64.677-.964.56v5.061l.964-.56v-5.061Z" fill="url(#W)"/><path d="M31.857 73.775v-.367l17.407-9.895 2.12.803v.367l-1.473.858-1.474.218-12.786 7.431-.373.852-1.474.858-1.947-1.125Z" fill="#231889"/><path d="m31.857 73.408 1.947 1.126v.366l-1.947-1.125v-.367Zm18.054-8.234-1.474.218v.367l1.474-.218v-.367Zm-14.633 8.501.373-.852v.367l-.373.852v-.367Z" fill="#231889"/><path d="M31.857 73.408 49.432 63.19l1.953 1.126-1.474.858-1.474.218-12.786 7.431-.373.852-1.474.859-1.947-1.126Z" fill="url(#X)"/><path d="m36.472 71.803.902-.522v-.292l-1.841-.019-.243.15 1.182.683Z" fill="#231889"/><path d="m36.472 71.511.902-.522-.94-.548-.901.529.939.541Z" fill="#2137FF"/><path d="m45.782 66.393.901-.523v-.292l-.932-.249-.915.23-.236.156 1.182.678Z" fill="#231889"/><path d="m45.782 66.107.901-.529-.945-.54-.902.522.946.547Z" fill="#2137FF"/><path d="M49.159 64.683a.683.683 0 0 1-.622 0 .186.186 0 0 1-.093-.287.186.186 0 0 1 .093-.068.67.67 0 0 1 .622 0c.168.1.168.261 0 .355Zm-14.235 8.258a.703.703 0 0 1-.622 0 .193.193 0 0 1 0-.36.672.672 0 0 1 .622 0 .193.193 0 0 1 0 .36Z" fill="#231889"/></g><defs><linearGradient id="b" x1="28.108" y1="44.648" x2="27.79" y2="46.527" gradientUnits="userSpaceOnUse"><stop stop-color="#2137FF"/><stop offset="1" stop-color="#0047FF"/></linearGradient><linearGradient id="c" x1="14.908" y1="36.759" x2="12.885" y2="39.111" gradientUnits="userSpaceOnUse"><stop stop-color="#2137FF"/><stop offset="1" stop-color="#0047FF"/></linearGradient><linearGradient id="d" x1="36.59" y1="38.622" x2="34.614" y2="40.822" gradientUnits="userSpaceOnUse"><stop stop-color="#2137FF"/><stop offset="1" stop-color="#0047FF"/></linearGradient><linearGradient id="e" x1="29.28" y1="42.819" x2="29.107" y2="45.011" gradientUnits="userSpaceOnUse"><stop stop-color="#2137FF"/><stop offset="1" stop-color="#0047FF"/></linearGradient><linearGradient id="f" x1="44.736" y1="22.035" x2="37.119" y2="21.694" gradientUnits="userSpaceOnUse"><stop stop-color="#E4E7FF"/><stop offset="1" stop-color="#2137FF"/></linearGradient><linearGradient id="g" x1="19.945" y1="19.625" x2="-25.379" y2="10.386" gradientUnits="userSpaceOnUse"><stop stop-color="#E4E7FF"/><stop offset="1" stop-color="#2137FF"/></linearGradient><linearGradient id="h" x1="30.122" y1="7.335" x2="25.37" y2="20.454" gradientUnits="userSpaceOnUse"><stop stop-color="#2137FF"/><stop offset="1" stop-color="#0047FF"/></linearGradient><linearGradient id="i" x1="30.553" y1="26.59" x2="29.684" y2="32.426" gradientUnits="userSpaceOnUse"><stop stop-color="#2137FF"/><stop offset="1" stop-color="#0047FF"/></linearGradient><linearGradient id="j" x1="7.225" y1="26.693" x2="6.46" y2="27.031" gradientUnits="userSpaceOnUse"><stop stop-color="#2137FF"/><stop offset="1" stop-color="#0047FF"/></linearGradient><linearGradient id="k" x1="25.711" y1="12.489" x2="10.329" y2="9.075" gradientUnits="userSpaceOnUse"><stop stop-color="#E4E7FF"/><stop offset="1" stop-color="#2137FF"/></linearGradient><linearGradient id="l" x1="12.426" y1="35.913" x2="12.426" y2="52.661" gradientUnits="userSpaceOnUse"><stop stop-color="#2137FF"/><stop offset="1" stop-color="#0047FF"/></linearGradient><linearGradient id="m" x1="12.428" y1="52.382" x2="12.428" y2="52.944" gradientUnits="userSpaceOnUse"><stop stop-color="#2137FF"/><stop offset="1" stop-color="#0047FF"/></linearGradient><linearGradient id="n" x1="27.959" y1="39.23" x2="27.959" y2="55.977" gradientUnits="userSpaceOnUse"><stop stop-color="#2137FF"/><stop offset="1" stop-color="#0047FF"/></linearGradient><linearGradient id="o" x1="27.962" y1="55.672" x2="27.962" y2="56.234" gradientUnits="userSpaceOnUse"><stop stop-color="#2137FF"/><stop offset="1" stop-color="#0047FF"/></linearGradient><linearGradient id="p" x1="41.458" y1="36.206" x2="41.458" y2="52.954" gradientUnits="userSpaceOnUse"><stop stop-color="#2137FF"/><stop offset="1" stop-color="#0047FF"/></linearGradient><linearGradient id="q" x1="41.469" y1="52.68" x2="41.469" y2="53.246" gradientUnits="userSpaceOnUse"><stop stop-color="#2137FF"/><stop offset="1" stop-color="#0047FF"/></linearGradient><linearGradient id="r" x1="48.979" y1="27.095" x2="48.979" y2="43.843" gradientUnits="userSpaceOnUse"><stop stop-color="#2137FF"/><stop offset="1" stop-color="#0047FF"/></linearGradient><linearGradient id="s" x1="48.983" y1="43.569" x2="48.983" y2="44.135" gradientUnits="userSpaceOnUse"><stop stop-color="#2137FF"/><stop offset="1" stop-color="#0047FF"/></linearGradient><linearGradient id="t" x1="5.526" y1="26.276" x2="5.526" y2="43.024" gradientUnits="userSpaceOnUse"><stop stop-color="#2137FF"/><stop offset="1" stop-color="#0047FF"/></linearGradient><linearGradient id="u" x1="5.539" y1="42.759" x2="5.539" y2="43.323" gradientUnits="userSpaceOnUse"><stop stop-color="#2137FF"/><stop offset="1" stop-color="#0047FF"/></linearGradient><linearGradient id="v" x1="27.476" y1="9.793" x2="27.212" y2="10.779" gradientUnits="userSpaceOnUse"><stop stop-color="#2137FF"/><stop offset="1" stop-color="#0047FF"/></linearGradient><linearGradient id="w" x1="27.48" y1="9.385" x2="27.355" y2="10.079" gradientUnits="userSpaceOnUse"><stop stop-color="#2137FF"/><stop offset="1" stop-color="#0047FF"/></linearGradient><linearGradient id="x" x1="27.481" y1="8.237" x2="27.217" y2="9.225" gradientUnits="userSpaceOnUse"><stop stop-color="#2137FF"/><stop offset="1" stop-color="#0047FF"/></linearGradient><linearGradient id="y" x1="2.266" y1="57.553" x2="2.004" y2="58.537" gradientUnits="userSpaceOnUse"><stop stop-color="#2137FF"/><stop offset="1" stop-color="#0047FF"/></linearGradient><linearGradient id="z" x1="2.269" y1="53.159" x2="1.11" y2="54.962" gradientUnits="userSpaceOnUse"><stop stop-color="#2137FF"/><stop offset="1" stop-color="#0047FF"/></linearGradient><linearGradient id="A" x1="21.899" y1="31.855" x2="-32.718" y2="18.551" gradientUnits="userSpaceOnUse"><stop stop-color="#E4E7FF"/><stop offset="1" stop-color="#2137FF"/></linearGradient><linearGradient id="B" x1="26.871" y1="9.087" x2="23.453" y2="8.601" gradientUnits="userSpaceOnUse"><stop stop-color="#E4E7FF"/><stop offset="1" stop-color="#2137FF"/></linearGradient><linearGradient id="C" x1="1.648" y1="52.92" x2="-1.768" y2="52.434" gradientUnits="userSpaceOnUse"><stop stop-color="#E4E7FF"/><stop offset="1" stop-color="#2137FF"/></linearGradient><linearGradient id="D" x1=".643" y1="26.59" x2="28.529" y2="26.59" gradientUnits="userSpaceOnUse"><stop offset=".06" stop-color="#E1E1E1"/><stop offset=".43" stop-color="#D5D5D5"/><stop offset=".5" stop-color="#D2D2D2"/><stop offset="1" stop-color="#BDBDBD"/></linearGradient><linearGradient id="E" x1="12.158" y1="5.279" x2="-16.05" y2="1.749" gradientUnits="userSpaceOnUse"><stop stop-color="#E4E7FF"/><stop offset="1" stop-color="#2137FF"/></linearGradient><linearGradient id="F" x1="1.659" y1="29.927" x2="-1.83" y2="29.905" gradientUnits="userSpaceOnUse"><stop stop-color="#E4E7FF"/><stop offset="1" stop-color="#2137FF"/></linearGradient><linearGradient id="G" x1="26.869" y1="4.419" x2="23.384" y2="4.316" gradientUnits="userSpaceOnUse"><stop stop-color="#E4E7FF"/><stop offset="1" stop-color="#2137FF"/></linearGradient><linearGradient id="H" x1="25.734" y1=".972" x2="22.502" y2=".737" gradientUnits="userSpaceOnUse"><stop stop-color="#E4E7FF"/><stop offset="1" stop-color="#2137FF"/></linearGradient><linearGradient id="I" x1="26.864" y1="1.555" x2="23.337" y2="1.331" gradientUnits="userSpaceOnUse"><stop stop-color="#E4E7FF"/><stop offset="1" stop-color="#2137FF"/></linearGradient><linearGradient id="J" x1="2.847" y1="13.754" x2="-1.849" y2="13.371" gradientUnits="userSpaceOnUse"><stop stop-color="#E4E7FF"/><stop offset="1" stop-color="#2137FF"/></linearGradient><linearGradient id="K" x1="25.604" y1="45.051" x2="24.168" y2="48.27" gradientUnits="userSpaceOnUse"><stop stop-color="#2137FF"/><stop offset="1" stop-color="#0047FF"/></linearGradient><linearGradient id="L" x1="22.847" y1="52.514" x2="6.455" y2="58.904" gradientUnits="userSpaceOnUse"><stop stop-color="#E4E7FF"/><stop offset="1" stop-color="#2137FF"/></linearGradient><linearGradient id="M" x1="10.646" y1="53.053" x2="8.428" y2="57.182" gradientUnits="userSpaceOnUse"><stop stop-color="#2137FF"/><stop offset="1" stop-color="#0047FF"/></linearGradient><linearGradient id="N" x1="28.966" y1="57.301" x2="11.033" y2="67.118" gradientUnits="userSpaceOnUse"><stop stop-color="#E4E7FF"/><stop offset="1" stop-color="#2137FF"/></linearGradient><linearGradient id="O" x1="35.039" y1="50.49" x2="33.598" y2="53.705" gradientUnits="userSpaceOnUse"><stop stop-color="#2137FF"/><stop offset="1" stop-color="#0047FF"/></linearGradient><linearGradient id="P" x1="32.306" y1="57.992" x2="15.914" y2="64.383" gradientUnits="userSpaceOnUse"><stop stop-color="#E4E7FF"/><stop offset="1" stop-color="#2137FF"/></linearGradient><linearGradient id="Q" x1="20.101" y1="58.513" x2="17.877" y2="62.648" gradientUnits="userSpaceOnUse"><stop stop-color="#2137FF"/><stop offset="1" stop-color="#0047FF"/></linearGradient><linearGradient id="R" x1="38.42" y1="62.758" x2="20.486" y2="72.567" gradientUnits="userSpaceOnUse"><stop stop-color="#E4E7FF"/><stop offset="1" stop-color="#2137FF"/></linearGradient><linearGradient id="S" x1="34.352" y1="73.134" x2="33.503" y2="73.451" gradientUnits="userSpaceOnUse"><stop stop-color="#2137FF"/><stop offset="1" stop-color="#0047FF"/></linearGradient><linearGradient id="T" x1="44.515" y1="55.947" x2="43.081" y2="59.163" gradientUnits="userSpaceOnUse"><stop stop-color="#2137FF"/><stop offset="1" stop-color="#0047FF"/></linearGradient><linearGradient id="U" x1="41.758" y1="63.429" x2="25.371" y2="69.823" gradientUnits="userSpaceOnUse"><stop stop-color="#E4E7FF"/><stop offset="1" stop-color="#2137FF"/></linearGradient><linearGradient id="V" x1="29.554" y1="63.973" x2="27.331" y2="68.107" gradientUnits="userSpaceOnUse"><stop stop-color="#2137FF"/><stop offset="1" stop-color="#0047FF"/></linearGradient><linearGradient id="W" x1="49.019" y1="64.677" x2="48.174" y2="64.99" gradientUnits="userSpaceOnUse"><stop stop-color="#2137FF"/><stop offset="1" stop-color="#0047FF"/></linearGradient><linearGradient id="X" x1="47.877" y1="68.218" x2="29.941" y2="78.032" gradientUnits="userSpaceOnUse"><stop stop-color="#E4E7FF"/><stop offset="1" stop-color="#2137FF"/></linearGradient><clipPath id="a"><path fill="#fff" d="M0 0h51.385v80H0z"/></clipPath></defs></svg>