<svg width="60" height="80" viewBox="0 0 60 80" fill="none" xmlns="http://www.w3.org/2000/svg">
<g clip-path="url(#clip0_216_2056)">
<path d="M59.218 67.04H58.2113C58.1646 67.0089 58.1291 66.9711 58.0779 66.9422L42.6157 58.0156C40.9268 57.04 37.9491 57.1644 35.998 58.2889L21.6224 66.5911C21.335 66.7572 21.068 66.9563 20.8268 67.1844H20.0068V68.74H20.0268C20.0268 69.3622 20.3824 69.96 21.1379 70.4022L36.6091 79.3333C38.298 80.3089 41.2757 80.1844 43.2268 79.06L57.6091 70.7667C58.6935 70.1422 59.2202 69.3355 59.2024 68.5733H59.2246L59.218 67.04Z" fill="#171552"/>
<path d="M36.609 77.7777L21.1468 68.851C19.4579 67.8755 19.6712 66.1555 21.6223 65.0311L35.9979 56.7288C37.949 55.6044 40.9268 55.4799 42.6156 56.4555L58.0779 65.3822C59.7668 66.3577 59.5534 68.0777 57.6023 69.2022L43.2268 77.511C41.2756 78.6355 38.2979 78.7599 36.609 77.7777Z" fill="url(#paint0_linear_216_2056)"/>
<path d="M50.34 65.4178L46.8155 50.7666L32.4089 50.72L28.8978 65.2733C28.4333 67.1578 29.4644 69.1444 31.9844 70.6066C36.2244 73.0511 43.0755 73.0666 47.2889 70.6355C49.7466 69.2089 50.76 67.2733 50.34 65.4178Z" fill="url(#paint1_linear_216_2056)"/>
<path d="M44.7622 54.24C41.9356 55.8711 37.34 55.8644 34.4956 54.2222C31.6511 52.58 31.6378 49.9266 34.4622 48.2933C37.2867 46.66 41.8867 46.6711 44.7289 48.3133C47.5711 49.9555 47.5889 52.6089 44.7622 54.24Z" fill="url(#paint2_linear_216_2056)"/>
<path d="M44.4667 45.8112L34.7578 45.7778V51.2578C34.7578 51.9734 35.2445 52.6867 36.1911 53.2334C38.0934 54.3445 41.1667 54.3445 43.0556 53.2467C43.9934 52.7045 44.4623 51.9956 44.4667 51.2845V45.8112Z" fill="#171552"/>
<path d="M43.0555 47.7779C41.1667 48.869 38.0933 48.8645 36.1911 47.7668C34.2889 46.669 34.28 44.8934 36.1689 43.8023C38.0578 42.7112 41.1333 42.7157 43.0356 43.8157C44.9378 44.9157 44.9422 46.689 43.0555 47.7779Z" fill="#523930"/>
<path d="M37.8309 51.9288L28.6065 46.5954C27.5976 46.0132 27.7176 44.9866 28.8909 44.3154L37.4665 39.3621C38.6309 38.6954 40.4087 38.6177 41.4154 39.1999L50.6398 44.5332C51.6487 45.1154 51.5287 46.1421 50.3576 46.8132L41.7687 51.7777C40.6042 52.4443 38.8287 52.511 37.8309 51.9288Z" fill="#231889"/>
<path d="M37.8309 50.549L28.6065 45.2157C27.5976 44.6334 27.7176 43.6068 28.8909 42.9357L37.4554 38.0001C38.6198 37.3334 40.3976 37.2534 41.4042 37.8357L50.6287 43.169C51.6376 43.7512 51.5176 44.7757 50.3465 45.4468L41.7687 50.4001C40.6042 51.0557 38.8287 51.129 37.8309 50.549Z" fill="url(#paint3_linear_216_2056)"/>
<path d="M44.4667 41.4089L40.0356 41.3978C39.7499 41.3834 39.4636 41.3834 39.1778 41.3978L34.7578 41.3867V44.1778C34.7578 44.8934 35.2445 45.6067 36.1911 46.1534C38.0934 47.2512 41.1667 47.2645 43.0556 46.1667C43.9934 45.6267 44.4623 44.9178 44.4667 44.2067V41.4089Z" fill="#171552"/>
<path d="M43.0555 43.3733C41.1667 44.4644 38.0933 44.4577 36.1911 43.3599C34.2889 42.2621 34.28 40.4866 36.1689 39.3955C38.0578 38.3044 41.1333 38.311 43.0356 39.4088C44.9378 40.5066 44.9422 42.2821 43.0555 43.3733Z" fill="#171552"/>
<path d="M44.3756 38.8423C44.9956 38.4845 45.5467 38.5134 45.7645 38.9912C46.0734 39.6579 45.6 40.9667 44.7111 41.9067C44.483 42.1528 44.2211 42.3652 43.9334 42.5379C43.3111 42.8956 42.76 42.8667 42.5423 42.389C42.2334 41.7223 42.7067 40.4134 43.5978 39.4734C43.8256 39.227 44.0876 39.0145 44.3756 38.8423Z" fill="#171552"/>
<path d="M40.498 45.7512L33.8647 41.8956C33.489 41.6704 33.1942 41.332 33.0225 40.929L39.6558 44.7845C39.8281 45.1871 40.1228 45.5253 40.498 45.7512Z" fill="#231889"/>
<path d="M39.6533 44.7845L33.02 40.929L27.4155 28.6646L34.0489 32.5201L39.6533 44.7845Z" fill="url(#paint4_linear_216_2056)"/>
<path d="M38.7668 24.4999C39.8401 23.8799 40.8668 24.0199 41.3045 24.9755L42.8023 28.2399C43.3801 29.5044 42.7201 31.7355 41.3334 33.1999L40.5268 34.0488C40.2233 34.3754 39.8745 34.6567 39.4912 34.8844C38.4156 35.5044 37.389 35.3644 36.9512 34.4088L35.4556 31.1444C34.8756 29.8777 35.5357 27.6488 36.9245 26.1844L37.729 25.3355C38.0338 25.0094 38.3831 24.7281 38.7668 24.4999Z" fill="#171552"/>
<path d="M37.4644 23.9778L30.8311 20.1245C31.2715 19.6506 31.7773 19.242 32.3333 18.9112C32.7095 18.689 33.1181 18.527 33.5444 18.4312L40.1777 22.2845C39.7514 22.3812 39.3427 22.5439 38.9666 22.7667C38.4107 23.0967 37.9048 23.5046 37.4644 23.9778Z" fill="#171552"/>
<path d="M40.1778 22.2844L33.5444 18.431C34.0921 18.2926 34.6718 18.3648 35.1689 18.6333L41.8022 22.4888C41.3054 22.2196 40.7257 22.1467 40.1778 22.2844Z" fill="#231889"/>
<path d="M36.1753 25.3378L29.542 21.4845L30.8309 20.1245L37.4642 23.9778L36.1753 25.3378Z" fill="#231889"/>
<path d="M48.2487 35.7199C49.0887 37.551 48.1332 40.7821 46.1221 42.9021L44.8332 44.2599C44.3928 44.7338 43.8869 45.1424 43.331 45.4732C41.7754 46.3621 40.2887 46.1688 39.6532 44.7843L34.0532 32.5199C33.2132 30.6888 34.171 27.4577 36.1799 25.3377L37.4687 23.9777C37.9092 23.5044 38.4151 23.0966 38.971 22.7666C40.5265 21.8777 42.0154 22.071 42.651 23.4555L48.2487 35.7199ZM40.5265 34.0488L41.3332 33.1999C42.7199 31.7355 43.3799 29.5043 42.8021 28.2399L41.3043 24.9755C40.8599 24.0199 39.8399 23.8799 38.7665 24.4999C38.3829 24.7281 38.0335 25.0094 37.7287 25.3355L36.9243 26.1843C35.5354 27.6488 34.8754 29.8777 35.4554 31.1443L36.9421 34.4088C37.3865 35.3643 38.4065 35.5043 39.4821 34.8843C39.8685 34.6574 40.2203 34.376 40.5265 34.0488ZM44.7199 41.9066C45.6087 40.9666 46.0821 39.6621 45.7732 38.991C45.551 38.5132 45.0043 38.4843 44.3843 38.8421C44.0963 39.0143 43.8343 39.2268 43.6065 39.4732C42.7176 40.4132 42.2421 41.7177 42.551 42.3888C42.7732 42.8666 43.3199 42.8955 43.9421 42.5377C44.2298 42.3651 44.4917 42.1526 44.7199 41.9066Z" fill="#231889"/>
<path d="M34.0532 32.52L27.4154 28.6667C26.6354 26.9645 27.4154 24.0556 29.1309 21.9534L35.7643 25.8089C34.0398 27.9089 33.2687 30.8178 34.0532 32.52Z" fill="url(#paint5_linear_216_2056)"/>
<path d="M35.7642 25.8066L29.1309 21.951C29.262 21.791 29.3997 21.6333 29.542 21.4844L36.1753 25.3333C36.0331 25.4888 35.8953 25.6444 35.7642 25.8066Z" fill="url(#paint6_linear_216_2056)"/>
<path d="M49.5689 9.76449L50.7866 6.82227C50.9103 7.32358 50.8996 7.84865 50.7555 8.34449L49.5244 11.8423C49.7211 11.1655 49.7364 10.449 49.5689 9.76449Z" fill="#171552"/>
<path d="M40.3667 0.471101L44.0534 0.0133242C44.5867 -0.0533425 45.2734 0.11999 46.0534 0.562213C48.2245 1.78221 50.3445 4.58443 50.7867 6.82221L49.5689 9.76444C48.9623 6.70888 46.0689 2.87555 43.1067 1.21999C42.0311 0.617769 41.0934 0.382213 40.3667 0.471101Z" fill="url(#paint7_linear_216_2056)"/>
<path d="M25.7421 28.9555L49.5688 9.7644C49.8444 11.16 49.5977 12.1533 48.9644 12.6533L25.1377 31.8511C25.771 31.3333 26.0199 30.3488 25.7421 28.9555Z" fill="#171552"/>
<path d="M15.6089 20.0354L39.4422 0.844336C40.1956 0.237669 41.4956 0.315448 43.1067 1.21989C46.0689 2.88434 48.9622 6.70878 49.5689 9.76434L25.7422 28.9554C25.1356 25.8999 22.2444 22.0666 19.28 20.411C17.6711 19.5066 16.3711 19.4288 15.6089 20.0354Z" fill="url(#paint8_linear_216_2056)"/>
<path d="M25.1379 31.8511C23.0899 33.4977 20.893 34.9499 18.5757 36.1889C16.3934 37.3689 13.7645 38.4756 11.8823 39.0089C12.5801 38.8156 12.9068 38.0822 12.6779 36.92C17.3504 34.8253 21.7399 32.1494 25.7423 28.9556C26.0201 30.3489 25.7712 31.3333 25.1379 31.8511Z" fill="#171552"/>
<path d="M12.6777 36.92C13.071 38.92 11.8266 39.6444 9.89767 38.56C7.96878 37.4755 6.08656 34.9866 5.691 33.0044C5.29545 31.0222 6.53989 30.28 8.46878 31.3644C10.3977 32.4488 12.2754 34.9311 12.6777 36.92Z" fill="url(#paint9_linear_216_2056)"/>
<path d="M11.8312 36.4443C12.1312 37.951 11.189 38.5065 9.729 37.6865C8.26899 36.8665 6.84011 34.9821 6.54455 33.4777C6.249 31.9732 7.18899 31.4154 8.64899 32.2354C10.109 33.0554 11.529 34.9377 11.8312 36.4443Z" fill="url(#paint10_linear_216_2056)"/>
<path d="M11.8758 37.111C12.098 38.2621 8.01577 40.1732 6.90021 39.5554C5.78465 38.9377 4.69354 37.4865 4.45577 36.3354C4.21799 35.1843 6.42466 31.3443 7.54021 31.971C8.65577 32.5977 11.6491 35.9532 11.8758 37.111Z" fill="url(#paint11_linear_216_2056)"/>
<path d="M5.80225 31.46C6.72002 29.74 8.35558 27.4155 9.96891 25.5355C11.6685 23.5408 13.5491 21.7078 15.5867 20.06C16.3711 19.4289 17.6711 19.5067 19.28 20.4111C22.2445 22.0755 25.1356 25.9 25.7422 28.9555C21.7398 32.1494 17.3503 34.8253 12.6778 36.92C12.2822 34.9311 10.4 32.44 8.46891 31.3644C7.1778 30.6311 6.19113 30.7222 5.80225 31.46Z" fill="url(#paint12_linear_216_2056)"/>
<path d="M41.5332 29.4778C41.6714 29.3973 41.8214 29.3388 41.9776 29.3045C42.6021 29.1756 42.9821 29.6134 42.8221 30.2823C42.6697 30.8193 42.3142 31.276 41.831 31.5556C41.6935 31.6377 41.5433 31.6963 41.3865 31.7289C40.7599 31.86 40.3821 31.4223 40.5421 30.7512C40.6949 30.2143 41.0503 29.7578 41.5332 29.4778Z" fill="#171552"/>
<path d="M39.8423 33.3334L37.6823 32.0778C37.5363 31.9726 37.4191 31.8325 37.3415 31.6701C37.2638 31.5078 37.2282 31.3286 37.2379 31.1489L39.3868 32.4C39.3773 32.5815 39.4142 32.7623 39.4939 32.9256C39.5736 33.0889 39.6935 33.2292 39.8423 33.3334Z" fill="url(#paint13_linear_216_2056)"/>
<path d="M39.3868 32.4001L37.2268 31.1445C37.2216 30.9253 37.2455 30.7063 37.2979 30.4934L39.4579 31.749C39.4055 31.9619 39.3816 32.1808 39.3868 32.4001Z" fill="url(#paint14_linear_216_2056)"/>
<path d="M47.3402 8.99547L45.1802 7.73991C45.3907 7.68691 45.6135 7.71466 45.8046 7.81769L47.9646 9.07325C47.7735 8.97021 47.5507 8.94246 47.3402 8.99547Z" fill="url(#paint15_linear_216_2056)"/>
<path d="M46.2176 9.22888L44.0576 7.97332L45.1798 7.73999L47.3398 8.99555L46.2176 9.22888Z" fill="white"/>
<path d="M39.4598 31.7488L37.2998 30.4932L42.1176 10.2466L44.2754 11.4999L39.4598 31.7488Z" fill="url(#paint16_linear_216_2056)"/>
<path d="M47.3402 8.99561C48.1513 8.8245 48.6024 9.57117 48.3468 10.6512L43.5291 30.9001C43.3215 31.7578 42.7945 32.5041 42.0557 32.9867C41.9104 33.0735 41.7521 33.1365 41.5868 33.1734L40.4757 33.4067C39.6668 33.5756 39.2135 32.8312 39.4713 31.7489L44.2757 11.5001C44.4847 10.6423 45.0123 9.89631 45.7513 9.41339C45.8958 9.32706 46.0534 9.26477 46.2179 9.22895L47.3402 8.99561ZM42.8202 30.2823C42.9802 29.6156 42.5979 29.1712 41.9757 29.3045C41.8195 29.3388 41.6695 29.3973 41.5313 29.4778C41.0504 29.7611 40.6982 30.22 40.5491 30.7578C40.3891 31.4245 40.7713 31.8689 41.3935 31.7356C41.5503 31.7029 41.7005 31.6444 41.8379 31.5623C42.3192 31.2794 42.6715 30.8203 42.8202 30.2823Z" fill="url(#paint17_linear_216_2056)"/>
<path d="M44.2755 11.4999L42.1177 10.2466C42.3066 9.48021 42.7452 8.79847 43.3643 8.30884L45.5243 9.5555C44.9031 10.0465 44.4636 10.7308 44.2755 11.4999Z" fill="url(#paint18_linear_216_2056)"/>
<path d="M45.5243 9.55547L43.3643 8.29991C43.4346 8.24486 43.5088 8.19509 43.5865 8.15102C43.7312 8.06464 43.8887 8.00164 44.0531 7.96436L46.2131 9.21991C46.0486 9.25573 45.891 9.31802 45.7465 9.40436C45.6693 9.44997 45.5951 9.50044 45.5243 9.55547Z" fill="url(#paint19_linear_216_2056)"/>
<path d="M43.2554 55.4667L45.5176 70.6155L48.942 68.1533L45.6532 54.24C45.6532 54.24 45.142 54.8889 43.2554 55.4667Z" fill="url(#paint20_linear_216_2056)"/>
<path d="M0 39.5133L5.19111 36.3066V37.5644L0.822222 40.7444L1.01333 41.3111L0.737778 41.4689L0 40.7733V39.5133Z" fill="url(#paint21_linear_216_2056)"/>
<path d="M1.01335 40.0532V41.311L0.737793 41.4688V40.211L1.01335 40.0532Z" fill="url(#paint22_linear_216_2056)"/>
<path d="M0.275556 39.3556L4.80444 36.0823L5.19111 36.3067L0.568889 39.6312L1.01333 40.0534L0.737778 40.2112L0 39.5134L0.275556 39.3556Z" fill="white"/>
<path d="M1.79102 40.8177L2.92213 41.0643L7.80213 37.8132V39.0732L3.27324 42.3443L2.99768 42.5043L1.79102 42.0777V40.8177Z" fill="url(#paint23_linear_216_2056)"/>
<path d="M2.06657 40.66L2.79324 40.9177L7.41546 37.5911L7.80213 37.8133L2.99768 41.2444L1.79102 40.8177L2.06657 40.66Z" fill="white"/>
<path d="M40.8069 76.1289H40.3802C40.1376 76.0219 39.8754 75.9666 39.6102 75.9666C39.345 75.9666 39.0828 76.0219 38.8402 76.1289H38.418V76.6667C38.4293 76.7716 38.4678 76.8717 38.5298 76.9571C38.5918 77.0425 38.6751 77.1102 38.7713 77.1534C39.0331 77.286 39.3223 77.3551 39.6157 77.3551C39.9092 77.3551 40.1984 77.286 40.4602 77.1534C40.5558 77.1108 40.6384 77.0434 40.6993 76.9582C40.7602 76.8731 40.7974 76.7732 40.8069 76.669V76.1289Z" fill="#171552"/>
<path d="M40.4598 76.6155C40.1982 76.7486 39.9089 76.818 39.6154 76.818C39.3219 76.818 39.0326 76.7486 38.771 76.6155C38.3021 76.3467 38.2998 75.9089 38.771 75.64C39.0329 75.5069 39.3227 75.4375 39.6165 75.4375C39.9104 75.4375 40.2001 75.5069 40.4621 75.64C40.9221 75.9111 40.9243 76.3489 40.4598 76.6155Z" fill="#7C6A68"/>
<path d="M40.4221 75.6334C40.1704 75.5057 39.8922 75.4392 39.6099 75.4392C39.3277 75.4392 39.0494 75.5057 38.7977 75.6334C38.3532 75.8912 38.3532 76.3112 38.7977 76.5712C39.0494 76.6989 39.3277 76.7654 39.6099 76.7654C39.8922 76.7654 40.1704 76.6989 40.4221 76.5712C40.8732 76.3134 40.871 75.8934 40.4221 75.6334Z" fill="#231889"/>
<path d="M23.8601 66.3445H23.4312C23.1886 66.2374 22.9264 66.1821 22.6612 66.1821C22.396 66.1821 22.1338 66.2374 21.8912 66.3445H21.4712V66.8734C21.4825 66.9787 21.5219 67.0789 21.5852 67.1638C21.6486 67.2486 21.7335 67.3149 21.8312 67.3556C22.0929 67.4882 22.3822 67.5573 22.6756 67.5573C22.969 67.5573 23.2583 67.4882 23.5201 67.3556C23.6162 67.3127 23.6991 67.2451 23.7604 67.1595C23.8217 67.074 23.8592 66.9737 23.869 66.869L23.8601 66.3445Z" fill="#171552"/>
<path d="M23.5109 66.831C23.2493 66.9641 22.96 67.0335 22.6665 67.0335C22.373 67.0335 22.0836 66.9641 21.822 66.831C21.3554 66.5599 21.3531 66.1244 21.822 65.8555C22.0838 65.7229 22.3731 65.6538 22.6665 65.6538C22.9599 65.6538 23.2492 65.7229 23.5109 65.8555C23.9754 66.1266 23.9776 66.5621 23.5109 66.831Z" fill="#7C6A68"/>
<path d="M23.4734 65.8488C23.2218 65.7206 22.9435 65.6538 22.6612 65.6538C22.3788 65.6538 22.1005 65.7206 21.849 65.8488C21.4045 66.1066 21.4045 66.5266 21.849 66.7866C22.1008 66.9138 22.379 66.98 22.6612 66.98C22.9433 66.98 23.2215 66.9138 23.4734 66.7866C23.9267 66.5288 23.9245 66.1088 23.4734 65.8488Z" fill="#231889"/>
<path d="M57.6487 66.4067H57.222C56.9793 66.3001 56.7171 66.2451 56.452 66.2451C56.1869 66.2451 55.9247 66.3001 55.682 66.4067H55.2598V66.9356C55.2711 67.0405 55.3096 67.1406 55.3716 67.226C55.4336 67.3114 55.5169 67.379 55.6131 67.4222C55.8748 67.5548 56.1641 67.6239 56.4575 67.6239C56.751 67.6239 57.0402 67.5548 57.302 67.4222C57.3976 67.3796 57.4802 67.3122 57.5411 67.2271C57.602 67.1419 57.6392 67.0421 57.6487 66.9378V66.4067Z" fill="#171552"/>
<path d="M57.3021 66.889C57.0405 67.022 56.7512 67.0914 56.4577 67.0914C56.1642 67.0914 55.8748 67.022 55.6132 66.889C55.1444 66.6201 55.1421 66.1823 55.6132 65.9156C55.8752 65.7825 56.1649 65.7131 56.4588 65.7131C56.7527 65.7131 57.0424 65.7825 57.3044 65.9156C57.7644 66.1867 57.7666 66.6245 57.3021 66.889Z" fill="#7C6A68"/>
<path d="M57.2644 65.9088C57.0127 65.7811 56.7344 65.7146 56.4522 65.7146C56.17 65.7146 55.8917 65.7811 55.64 65.9088C55.1955 66.1666 55.1955 66.5866 55.64 66.8466C55.8915 66.9748 56.1699 67.0416 56.4522 67.0416C56.7345 67.0416 57.0129 66.9748 57.2644 66.8466C57.7155 66.5888 57.7133 66.1688 57.2644 65.9088Z" fill="#231889"/>
<path d="M42.8576 1.87109L20.1421 20.1244C21.5574 20.8307 22.7862 21.8608 23.7288 23.1311C26.6176 20.8466 45.8599 4.92443 45.8599 4.92443C45.8599 4.92443 44.7488 2.52443 42.8576 1.87109Z" fill="white"/>
<path d="M19.0178 21.2043C19.0178 21.2043 14.6156 24.8377 9.43115 31.1443C10.2457 31.6989 10.9788 32.3646 11.6089 33.1221C11.6089 33.1221 21.5556 25.4688 22.9045 24.7532C21.42 22.9777 19.0178 21.2043 19.0178 21.2043Z" fill="white"/>
</g>
<defs>
<linearGradient id="paint0_linear_216_2056" x1="52.1748" y1="65.8342" x2="16.2559" y2="85.6026" gradientUnits="userSpaceOnUse">
<stop stop-color="#E4E7FF"/>
<stop offset="1" stop-color="#2137FF"/>
</linearGradient>
<linearGradient id="paint1_linear_216_2056" x1="41.1478" y1="50.72" x2="37.3311" y2="58.9555" gradientUnits="userSpaceOnUse">
<stop stop-color="#2137FF"/>
<stop offset="1" stop-color="#0047FF"/>
</linearGradient>
<linearGradient id="paint2_linear_216_2056" x1="44.2638" y1="50.7909" x2="30.9645" y2="58.111" gradientUnits="userSpaceOnUse">
<stop stop-color="#E4E7FF"/>
<stop offset="1" stop-color="#2137FF"/>
</linearGradient>
<linearGradient id="paint3_linear_216_2056" x1="47.1112" y1="43.4273" x2="25.6932" y2="55.224" gradientUnits="userSpaceOnUse">
<stop stop-color="#E4E7FF"/>
<stop offset="1" stop-color="#2137FF"/>
</linearGradient>
<linearGradient id="paint4_linear_216_2056" x1="33.5344" y1="28.6646" x2="33.5344" y2="44.7845" gradientUnits="userSpaceOnUse">
<stop stop-color="#2137FF"/>
<stop offset="1" stop-color="#0047FF"/>
</linearGradient>
<linearGradient id="paint5_linear_216_2056" x1="31.4383" y1="21.9534" x2="31.4383" y2="32.52" gradientUnits="userSpaceOnUse">
<stop stop-color="#2137FF"/>
<stop offset="1" stop-color="#0047FF"/>
</linearGradient>
<linearGradient id="paint6_linear_216_2056" x1="32.6531" y1="21.4844" x2="32.6531" y2="25.8066" gradientUnits="userSpaceOnUse">
<stop stop-color="#2137FF"/>
<stop offset="1" stop-color="#0047FF"/>
</linearGradient>
<linearGradient id="paint7_linear_216_2056" x1="46.3166" y1="-0.000488044" x2="44.6784" y2="3.78669" gradientUnits="userSpaceOnUse">
<stop stop-color="#2137FF"/>
<stop offset="1" stop-color="#0047FF"/>
</linearGradient>
<linearGradient id="paint8_linear_216_2056" x1="28.5202" y1="10.1734" x2="-15.1178" y2="5.90926" gradientUnits="userSpaceOnUse">
<stop stop-color="#E4E7FF"/>
<stop offset="1" stop-color="#2137FF"/>
</linearGradient>
<linearGradient id="paint9_linear_216_2056" x1="11.4692" y1="34.4987" x2="3.56086" y2="36.6855" gradientUnits="userSpaceOnUse">
<stop stop-color="#E4E7FF"/>
<stop offset="1" stop-color="#2137FF"/>
</linearGradient>
<linearGradient id="paint10_linear_216_2056" x1="9.5718" y1="31.8572" x2="8.38792" y2="34.0868" gradientUnits="userSpaceOnUse">
<stop stop-color="#2137FF"/>
<stop offset="1" stop-color="#0047FF"/>
</linearGradient>
<linearGradient id="paint11_linear_216_2056" x1="8.69004" y1="31.9023" x2="7.29058" y2="34.8068" gradientUnits="userSpaceOnUse">
<stop stop-color="#2137FF"/>
<stop offset="1" stop-color="#0047FF"/>
</linearGradient>
<linearGradient id="paint12_linear_216_2056" x1="17.1882" y1="19.6484" x2="14.4471" y2="26.5044" gradientUnits="userSpaceOnUse">
<stop stop-color="#2137FF"/>
<stop offset="1" stop-color="#0047FF"/>
</linearGradient>
<linearGradient id="paint13_linear_216_2056" x1="38.2271" y1="31.8939" x2="34.8785" y2="31.5663" gradientUnits="userSpaceOnUse">
<stop stop-color="#E4E7FF"/>
<stop offset="1" stop-color="#2137FF"/>
</linearGradient>
<linearGradient id="paint14_linear_216_2056" x1="38.0746" y1="31.1437" x2="35.2058" y2="30.8683" gradientUnits="userSpaceOnUse">
<stop stop-color="#E4E7FF"/>
<stop offset="1" stop-color="#2137FF"/>
</linearGradient>
<linearGradient id="paint15_linear_216_2056" x1="46.2388" y1="8.17732" x2="42.7258" y2="7.58727" gradientUnits="userSpaceOnUse">
<stop stop-color="#E4E7FF"/>
<stop offset="1" stop-color="#2137FF"/>
</linearGradient>
<linearGradient id="paint16_linear_216_2056" x1="39.9519" y1="17.5799" x2="30.9092" y2="17.3393" gradientUnits="userSpaceOnUse">
<stop stop-color="#E4E7FF"/>
<stop offset="1" stop-color="#2137FF"/>
</linearGradient>
<linearGradient id="paint17_linear_216_2056" x1="42.828" y1="17.313" x2="31.1383" y2="16.9595" gradientUnits="userSpaceOnUse">
<stop stop-color="#E4E7FF"/>
<stop offset="1" stop-color="#2137FF"/>
</linearGradient>
<linearGradient id="paint18_linear_216_2056" x1="43.4129" y1="9.39716" x2="39.0272" y2="9.01317" gradientUnits="userSpaceOnUse">
<stop stop-color="#E4E7FF"/>
<stop offset="1" stop-color="#2137FF"/>
</linearGradient>
<linearGradient id="paint19_linear_216_2056" x1="44.4474" y1="8.507" x2="40.8297" y2="7.97575" gradientUnits="userSpaceOnUse">
<stop stop-color="#E4E7FF"/>
<stop offset="1" stop-color="#2137FF"/>
</linearGradient>
<linearGradient id="paint20_linear_216_2056" x1="45.4174" y1="59.8248" x2="38.0463" y2="59.6149" gradientUnits="userSpaceOnUse">
<stop stop-color="#E4E7FF"/>
<stop offset="1" stop-color="#2137FF"/>
</linearGradient>
<linearGradient id="paint21_linear_216_2056" x1="1.97362" y1="38.0672" x2="-4.71507" y2="37.5156" gradientUnits="userSpaceOnUse">
<stop stop-color="#E4E7FF"/>
<stop offset="1" stop-color="#2137FF"/>
</linearGradient>
<linearGradient id="paint22_linear_216_2056" x1="0.842557" y1="40.536" x2="0.485183" y2="40.5303" gradientUnits="userSpaceOnUse">
<stop stop-color="#E4E7FF"/>
<stop offset="1" stop-color="#2137FF"/>
</linearGradient>
<linearGradient id="paint23_linear_216_2056" x1="4.07639" y1="39.4131" x2="-3.63635" y2="38.6026" gradientUnits="userSpaceOnUse">
<stop stop-color="#E4E7FF"/>
<stop offset="1" stop-color="#2137FF"/>
</linearGradient>
<clipPath id="clip0_216_2056">
<rect width="59.2178" height="80" fill="white"/>
</clipPath>
</defs>
</svg>
