<svg width="60" height="80" fill="none" xmlns="http://www.w3.org/2000/svg"><g clip-path="url(#a)"><path d="M59.218 67.04h-1.007c-.046-.031-.082-.069-.133-.098l-15.462-8.926c-1.69-.976-4.667-.852-6.618.273L21.622 66.59a4.26 4.26 0 0 0-.795.593h-.82v1.556h.02c0 .622.355 1.22 1.11 1.662l15.472 8.931c1.689.976 4.667.851 6.618-.273l14.382-8.293c1.084-.625 1.611-1.431 1.593-2.194h.023l-.007-1.533Z" fill="#171552"/><path d="M36.609 77.778 21.147 68.85c-1.69-.975-1.476-2.695.475-3.82l14.376-8.302c1.951-1.125 4.929-1.25 6.618-.273l15.462 8.926c1.689.976 1.475 2.696-.476 3.82L43.227 77.51c-1.951 1.124-4.93 1.249-6.618.267Z" fill="url(#b)"/><path d="m50.34 65.418-3.525-14.651-14.406-.047-3.511 14.553c-.465 1.885.566 3.871 3.086 5.334 4.24 2.444 11.091 2.46 15.305.028 2.458-1.426 3.471-3.362 3.051-5.217Z" fill="url(#c)"/><path d="M44.762 54.24c-2.826 1.631-7.422 1.624-10.266-.018-2.845-1.642-2.858-4.295-.034-5.929 2.825-1.633 7.425-1.622 10.267.02 2.842 1.642 2.86 4.296.033 5.927Z" fill="url(#d)"/><path d="m44.467 45.811-9.71-.033v5.48c0 .715.488 1.429 1.434 1.975 1.902 1.111 4.976 1.111 6.865.014.937-.542 1.406-1.251 1.41-1.962V45.81Z" fill="#171552"/><path d="M43.056 47.778c-1.89 1.091-4.963 1.087-6.865-.011-1.902-1.098-1.911-2.874-.022-3.965 1.889-1.09 4.964-1.086 6.867.014 1.902 1.1 1.906 2.873.02 3.962Z" fill="#523930"/><path d="m37.83 51.929-9.223-5.334c-1.01-.582-.89-1.608.284-2.28l8.576-4.953c1.164-.667 2.942-.744 3.948-.162l9.225 5.333c1.009.582.889 1.61-.282 2.28l-8.59 4.965c-1.164.666-2.94.733-3.937.15Z" fill="#231889"/><path d="m37.83 50.549-9.223-5.333c-1.01-.583-.89-1.61.284-2.28L37.455 38c1.165-.667 2.943-.747 3.95-.164l9.224 5.333c1.009.582.889 1.607-.282 2.278L41.769 50.4c-1.165.656-2.94.729-3.938.149Z" fill="url(#e)"/><path d="m44.467 41.409-4.431-.011a8.522 8.522 0 0 0-.858 0l-4.42-.011v2.79c0 .716.486 1.43 1.433 1.976 1.902 1.098 4.976 1.111 6.865.014.937-.54 1.406-1.25 1.41-1.96v-2.798Z" fill="#171552"/><path d="M43.056 43.373c-1.89 1.091-4.963 1.085-6.865-.013-1.902-1.098-1.911-2.873-.022-3.965 1.889-1.09 4.964-1.084 6.867.014 1.902 1.098 1.906 2.873.02 3.964Z" fill="#171552"/><path d="M44.376 38.842c.62-.358 1.17-.329 1.389.15.308.666-.165 1.975-1.054 2.915-.228.246-.49.458-.778.63-.622.359-1.173.33-1.39-.148-.31-.667.164-1.976 1.055-2.916.228-.246.49-.459.778-.63Z" fill="#171552"/><path d="m40.498 45.751-6.633-3.855a2.075 2.075 0 0 1-.843-.967l6.634 3.855c.172.403.467.741.842.967Z" fill="#231889"/><path d="m39.653 44.785-6.633-3.856-5.605-12.264 6.634 3.855 5.604 12.264Z" fill="url(#f)"/><path d="M38.767 24.5c1.073-.62 2.1-.48 2.537.476l1.498 3.264c.578 1.264-.082 3.495-1.469 4.96l-.806.849a4.668 4.668 0 0 1-1.036.835c-1.075.62-2.102.48-2.54-.475l-1.495-3.265c-.58-1.266.08-3.495 1.468-4.96l.805-.849a4.73 4.73 0 0 1 1.038-.835Zm-1.303-.522-6.633-3.854a6.79 6.79 0 0 1 1.502-1.213 4.186 4.186 0 0 1 1.211-.48l6.634 3.854a4.163 4.163 0 0 0-1.211.482 6.78 6.78 0 0 0-1.503 1.21Z" fill="#171552"/><path d="m40.178 22.284-6.634-3.853a2.256 2.256 0 0 1 1.625.202l6.633 3.856a2.256 2.256 0 0 0-1.624-.205Zm-4.003 3.054-6.633-3.854 1.289-1.36 6.633 3.854-1.289 1.36Z" fill="#231889"/><path d="M48.249 35.72c.84 1.831-.116 5.062-2.127 7.182l-1.289 1.358c-.44.474-.946.882-1.502 1.213-1.556.89-3.042.696-3.678-.689l-5.6-12.264c-.84-1.831.118-5.062 2.127-7.182l1.289-1.36a6.78 6.78 0 0 1 1.502-1.211c1.556-.89 3.044-.696 3.68.689l5.598 12.264Zm-7.723-1.671.807-.85c1.387-1.463 2.047-3.695 1.47-4.96l-1.499-3.264c-.444-.955-1.464-1.095-2.538-.475-.383.228-.733.51-1.037.835l-.805.85c-1.389 1.464-2.049 3.693-1.469 4.96l1.487 3.264c.444.955 1.465 1.095 2.54.475a4.667 4.667 0 0 0 1.044-.835Zm4.194 7.858c.889-.94 1.362-2.245 1.053-2.916-.222-.478-.769-.507-1.389-.149-.288.172-.55.385-.778.631-.888.94-1.364 2.245-1.055 2.916.222.478.769.506 1.391.149.288-.173.55-.385.778-.631Z" fill="#231889"/><path d="m34.053 32.52-6.638-3.853c-.78-1.703 0-4.611 1.716-6.714l6.633 3.856c-1.724 2.1-2.495 5.009-1.71 6.711Z" fill="url(#g)"/><path d="m35.764 25.807-6.633-3.856c.131-.16.269-.318.411-.467l6.633 3.85c-.142.155-.28.31-.41.473Z" fill="url(#h)"/><path d="m49.569 9.764 1.218-2.942a2.935 2.935 0 0 1-.032 1.522l-1.23 3.498a4.02 4.02 0 0 0 .044-2.078Z" fill="#171552"/><path d="m40.367.471 3.686-.458c.534-.066 1.22.107 2 .55 2.172 1.22 4.291 4.021 4.734 6.26l-1.218 2.941c-.607-3.055-3.5-6.888-6.462-8.544-1.076-.602-2.014-.838-2.74-.749Z" fill="url(#i)"/><path d="M25.742 28.956 49.57 9.764c.275 1.396.029 2.39-.605 2.89L25.138 31.85c.633-.518.882-1.502.604-2.895Z" fill="#171552"/><path d="M15.609 20.035 39.442.845c.754-.607 2.054-.53 3.665.375 2.962 1.664 5.855 5.489 6.462 8.544L25.742 28.955c-.606-3.055-3.498-6.888-6.462-8.544-1.609-.904-2.909-.982-3.671-.376Z" fill="url(#j)"/><path d="M25.138 31.851a42.313 42.313 0 0 1-6.562 4.338c-2.183 1.18-4.812 2.287-6.694 2.82.698-.193 1.025-.927.796-2.089a60.863 60.863 0 0 0 13.064-7.964c.278 1.393.03 2.377-.604 2.895Z" fill="#171552"/><path d="M12.678 36.92c.393 2-.851 2.724-2.78 1.64-1.93-1.085-3.811-3.573-4.207-5.556-.396-1.982.849-2.724 2.778-1.64 1.929 1.085 3.806 3.567 4.209 5.556Z" fill="url(#k)"/><path d="M11.831 36.444c.3 1.507-.642 2.063-2.102 1.242-1.46-.82-2.889-2.704-3.184-4.208-.296-1.505.644-2.063 2.104-1.243 1.46.82 2.88 2.703 3.182 4.21Z" fill="url(#l)"/><path d="M11.876 37.111c.222 1.151-3.86 3.062-4.976 2.444-1.115-.617-2.206-2.069-2.444-3.22-.238-1.15 1.969-4.99 3.084-4.364 1.116.627 4.11 3.982 4.336 5.14Z" fill="url(#m)"/><path d="M5.802 31.46c.918-1.72 2.554-4.044 4.167-5.925a42.444 42.444 0 0 1 5.618-5.475c.784-.631 2.084-.553 3.693.351 2.964 1.665 5.856 5.489 6.462 8.544a60.86 60.86 0 0 1-13.064 7.965c-.396-1.989-2.278-4.48-4.21-5.556-1.29-.733-2.277-.642-2.666.096Z" fill="url(#n)"/><path d="M41.533 29.478c.138-.08.288-.14.445-.174.624-.128 1.004.31.844.978a2.15 2.15 0 0 1-.991 1.274c-.138.082-.288.14-.445.173-.626.131-1.004-.307-.844-.978.153-.537.508-.993.991-1.273Z" fill="#171552"/><path d="m39.842 33.333-2.16-1.255a1.072 1.072 0 0 1-.444-.93l2.149 1.252a1.07 1.07 0 0 0 .455.933Z" fill="url(#o)"/><path d="m39.387 32.4-2.16-1.255a2.55 2.55 0 0 1 .07-.652l2.16 1.256a2.478 2.478 0 0 0-.07.651Z" fill="url(#p)"/><path d="M47.34 8.995 45.18 7.74a.869.869 0 0 1 .625.078l2.16 1.255a.869.869 0 0 0-.625-.078Z" fill="url(#q)"/><path d="m46.218 9.229-2.16-1.256 1.122-.233 2.16 1.256-1.122.233Z" fill="#fff"/><path d="m39.46 31.749-2.16-1.256 4.818-20.246 2.157 1.253-4.815 20.249Z" fill="url(#r)"/><path d="M47.34 8.996c.811-.171 1.262.575 1.007 1.655l-4.818 20.25a3.467 3.467 0 0 1-1.473 2.086 1.59 1.59 0 0 1-.47.186l-1.11.234c-.81.169-1.262-.576-1.005-1.658L44.276 11.5a3.476 3.476 0 0 1 1.475-2.087 1.57 1.57 0 0 1 .467-.184l1.122-.233Zm-4.52 21.286c.16-.666-.222-1.11-.844-.977a1.539 1.539 0 0 0-.445.173c-.48.283-.833.742-.982 1.28-.16.666.222 1.11.845.978.156-.033.306-.092.444-.174.481-.283.834-.742.982-1.28Z" fill="url(#s)"/><path d="m44.276 11.5-2.158-1.253a3.555 3.555 0 0 1 1.246-1.938l2.16 1.247a3.555 3.555 0 0 0-1.248 1.944Z" fill="url(#t)"/><path d="M45.524 9.555 43.364 8.3c.07-.055.145-.105.223-.149.144-.086.302-.15.466-.187l2.16 1.256a1.555 1.555 0 0 0-.467.184 2.116 2.116 0 0 0-.222.151Z" fill="url(#u)"/><path d="m43.255 55.467 2.263 15.148 3.424-2.462-3.289-13.913s-.511.649-2.398 1.227Z" fill="url(#v)"/><path d="m0 39.513 5.191-3.206v1.257l-4.369 3.18.191.567-.275.158L0 40.773v-1.26Z" fill="url(#w)"/><path d="M1.013 40.053v1.258l-.275.158V40.21l.275-.158Z" fill="url(#x)"/><path d="m.276 39.356 4.528-3.274.387.225L.57 39.63l.444.422-.275.158L0 39.513l.276-.157Z" fill="#fff"/><path d="m1.791 40.818 1.131.246 4.88-3.25v1.26l-4.529 3.27-.275.16-1.207-.426v-1.26Z" fill="url(#y)"/><path d="m2.067 40.66.726.258 4.622-3.327.387.222-4.804 3.431-1.207-.426.276-.158Z" fill="#fff"/><path d="M40.807 76.129h-.427a1.908 1.908 0 0 0-1.54 0h-.422v.538a.604.604 0 0 0 .353.486 1.869 1.869 0 0 0 1.69 0 .588.588 0 0 0 .346-.484v-.54Z" fill="#171552"/><path d="M40.46 76.615a1.862 1.862 0 0 1-1.689 0c-.469-.268-.471-.706 0-.975a1.867 1.867 0 0 1 1.691 0c.46.271.462.709-.002.975Z" fill="#7C6A68"/><path d="M40.422 75.633a1.795 1.795 0 0 0-1.624 0c-.445.258-.445.678 0 .938a1.795 1.795 0 0 0 1.624 0c.451-.258.449-.678 0-.938Z" fill="#231889"/><path d="M23.86 66.344h-.429a1.906 1.906 0 0 0-1.54 0h-.42v.53a.591.591 0 0 0 .36.482 1.868 1.868 0 0 0 1.69 0 .592.592 0 0 0 .348-.487l-.009-.525Z" fill="#171552"/><path d="M23.51 66.831a1.862 1.862 0 0 1-1.688 0c-.467-.271-.469-.707 0-.975a1.869 1.869 0 0 1 1.689 0c.464.27.467.706 0 .975Z" fill="#7C6A68"/><path d="M23.473 65.849a1.789 1.789 0 0 0-1.624 0c-.445.258-.445.678 0 .938a1.801 1.801 0 0 0 1.624 0c.454-.258.451-.678 0-.938Z" fill="#231889"/><path d="M57.649 66.407h-.427a1.915 1.915 0 0 0-1.54 0h-.422v.529a.604.604 0 0 0 .353.486 1.868 1.868 0 0 0 1.689 0 .589.589 0 0 0 .347-.484v-.531Z" fill="#171552"/><path d="M57.302 66.889a1.863 1.863 0 0 1-1.689 0c-.469-.269-.47-.707 0-.973a1.867 1.867 0 0 1 1.691 0c.46.27.463.709-.002.973Z" fill="#7C6A68"/><path d="M57.264 65.909a1.795 1.795 0 0 0-1.624 0c-.444.258-.444.678 0 .938a1.789 1.789 0 0 0 1.624 0c.451-.258.45-.678 0-.938Z" fill="#231889"/><path d="M42.858 1.871 20.142 20.124a10.06 10.06 0 0 1 3.587 3.007c2.889-2.284 22.13-18.207 22.13-18.207s-1.11-2.4-3.001-3.053Zm-23.84 19.333s-4.402 3.634-9.587 9.94c.815.555 1.548 1.22 2.178 1.978 0 0 9.947-7.653 11.295-8.369-1.484-1.775-3.886-3.549-3.886-3.549Z" fill="#fff"/></g><defs><linearGradient id="b" x1="52.175" y1="65.834" x2="16.256" y2="85.603" gradientUnits="userSpaceOnUse"><stop stop-color="#E4E7FF"/><stop offset="1" stop-color="#2137FF"/></linearGradient><linearGradient id="c" x1="41.148" y1="50.72" x2="37.331" y2="58.956" gradientUnits="userSpaceOnUse"><stop stop-color="#2137FF"/><stop offset="1" stop-color="#0047FF"/></linearGradient><linearGradient id="d" x1="44.264" y1="50.791" x2="30.965" y2="58.111" gradientUnits="userSpaceOnUse"><stop stop-color="#E4E7FF"/><stop offset="1" stop-color="#2137FF"/></linearGradient><linearGradient id="e" x1="47.111" y1="43.427" x2="25.693" y2="55.224" gradientUnits="userSpaceOnUse"><stop stop-color="#E4E7FF"/><stop offset="1" stop-color="#2137FF"/></linearGradient><linearGradient id="f" x1="33.534" y1="28.665" x2="33.534" y2="44.785" gradientUnits="userSpaceOnUse"><stop stop-color="#2137FF"/><stop offset="1" stop-color="#0047FF"/></linearGradient><linearGradient id="g" x1="31.438" y1="21.953" x2="31.438" y2="32.52" gradientUnits="userSpaceOnUse"><stop stop-color="#2137FF"/><stop offset="1" stop-color="#0047FF"/></linearGradient><linearGradient id="h" x1="32.653" y1="21.484" x2="32.653" y2="25.807" gradientUnits="userSpaceOnUse"><stop stop-color="#2137FF"/><stop offset="1" stop-color="#0047FF"/></linearGradient><linearGradient id="i" x1="46.317" y1="0" x2="44.678" y2="3.787" gradientUnits="userSpaceOnUse"><stop stop-color="#2137FF"/><stop offset="1" stop-color="#0047FF"/></linearGradient><linearGradient id="j" x1="28.52" y1="10.173" x2="-15.118" y2="5.909" gradientUnits="userSpaceOnUse"><stop stop-color="#E4E7FF"/><stop offset="1" stop-color="#2137FF"/></linearGradient><linearGradient id="k" x1="11.469" y1="34.499" x2="3.561" y2="36.685" gradientUnits="userSpaceOnUse"><stop stop-color="#E4E7FF"/><stop offset="1" stop-color="#2137FF"/></linearGradient><linearGradient id="l" x1="9.572" y1="31.857" x2="8.388" y2="34.087" gradientUnits="userSpaceOnUse"><stop stop-color="#2137FF"/><stop offset="1" stop-color="#0047FF"/></linearGradient><linearGradient id="m" x1="8.69" y1="31.902" x2="7.291" y2="34.807" gradientUnits="userSpaceOnUse"><stop stop-color="#2137FF"/><stop offset="1" stop-color="#0047FF"/></linearGradient><linearGradient id="n" x1="17.188" y1="19.648" x2="14.447" y2="26.504" gradientUnits="userSpaceOnUse"><stop stop-color="#2137FF"/><stop offset="1" stop-color="#0047FF"/></linearGradient><linearGradient id="o" x1="38.227" y1="31.894" x2="34.879" y2="31.566" gradientUnits="userSpaceOnUse"><stop stop-color="#E4E7FF"/><stop offset="1" stop-color="#2137FF"/></linearGradient><linearGradient id="p" x1="38.075" y1="31.144" x2="35.206" y2="30.868" gradientUnits="userSpaceOnUse"><stop stop-color="#E4E7FF"/><stop offset="1" stop-color="#2137FF"/></linearGradient><linearGradient id="q" x1="46.239" y1="8.177" x2="42.726" y2="7.587" gradientUnits="userSpaceOnUse"><stop stop-color="#E4E7FF"/><stop offset="1" stop-color="#2137FF"/></linearGradient><linearGradient id="r" x1="39.952" y1="17.58" x2="30.909" y2="17.339" gradientUnits="userSpaceOnUse"><stop stop-color="#E4E7FF"/><stop offset="1" stop-color="#2137FF"/></linearGradient><linearGradient id="s" x1="42.828" y1="17.313" x2="31.138" y2="16.959" gradientUnits="userSpaceOnUse"><stop stop-color="#E4E7FF"/><stop offset="1" stop-color="#2137FF"/></linearGradient><linearGradient id="t" x1="43.413" y1="9.397" x2="39.027" y2="9.013" gradientUnits="userSpaceOnUse"><stop stop-color="#E4E7FF"/><stop offset="1" stop-color="#2137FF"/></linearGradient><linearGradient id="u" x1="44.447" y1="8.507" x2="40.83" y2="7.976" gradientUnits="userSpaceOnUse"><stop stop-color="#E4E7FF"/><stop offset="1" stop-color="#2137FF"/></linearGradient><linearGradient id="v" x1="45.417" y1="59.825" x2="38.046" y2="59.615" gradientUnits="userSpaceOnUse"><stop stop-color="#E4E7FF"/><stop offset="1" stop-color="#2137FF"/></linearGradient><linearGradient id="w" x1="1.974" y1="38.067" x2="-4.715" y2="37.516" gradientUnits="userSpaceOnUse"><stop stop-color="#E4E7FF"/><stop offset="1" stop-color="#2137FF"/></linearGradient><linearGradient id="x" x1=".843" y1="40.536" x2=".485" y2="40.53" gradientUnits="userSpaceOnUse"><stop stop-color="#E4E7FF"/><stop offset="1" stop-color="#2137FF"/></linearGradient><linearGradient id="y" x1="4.076" y1="39.413" x2="-3.636" y2="38.603" gradientUnits="userSpaceOnUse"><stop stop-color="#E4E7FF"/><stop offset="1" stop-color="#2137FF"/></linearGradient><clipPath id="a"><path fill="#fff" d="M0 0h59.218v80H0z"/></clipPath></defs></svg>