<svg width="80" height="76" fill="none" xmlns="http://www.w3.org/2000/svg"><path d="M17.861 62.674v8.154L1.106 61.153V53.01l16.755 9.664Z" fill="#171552"/><path d="M17.861 62.674v8.155l41.687-24.081v-8.144l-41.687 24.07Z" fill="url(#a)"/><path d="M17.617 61.94v1.266L0 53.03v-1.255L17.617 61.94Z" fill="#231889"/><path d="m17.617 61.94 43.027-24.835L43.026 26.93 0 51.777 17.617 61.94Z" fill="url(#b)"/><path d="m2.68 51.904 40.57-23.432 14.725 8.505L17.405 60.4 2.678 51.904Z" fill="url(#c)"/><path d="m43.25 29.641 13.715 7.92 1.01-.584-14.725-8.505L2.68 51.904l1.01.585L43.25 29.64Z" fill="#231889"/><path d="M17.617 61.94v1.265l43.027-24.857v-1.243L17.617 61.94Z" fill="url(#d)"/><path d="M43.25 28.472v1.17l13.715 7.92 1.01-.585-14.725-8.505ZM37.594 63.94a.542.542 0 0 1 0 .137c.006.05.006.1 0 .15v.084l-.053.075a.34.34 0 0 1-.096.085h-.319l-4.593-2.648a.818.818 0 0 1 0-.871c.234-.33.755-.224.755-.224l4.508 2.605c-.266.33-.202.49-.202.606Zm16.341-9.559a.542.542 0 0 1 0 .139s0 .106-.053.148v.075a.213.213 0 0 1 0 .085l-.107.085h-.329l-4.582-2.647a.809.809 0 0 1 0-.872c.233-.34.765-.224.765-.224l4.508 2.605a.32.32 0 1 1-.202.606Z" fill="#231889"/><path d="M50.66 27.153c0 2.127-2.977 3.753-6.655 3.753-3.679 0-6.645-1.68-6.645-3.753 0-2.073 2.977-3.753 6.645-3.753 3.668 0 6.655 1.68 6.655 3.753Z" fill="#DEE4E6"/><path d="M50.767 37.572c.005.05.005.1 0 .15.01.105.01.212 0 .318a2.818 2.818 0 0 1-.096.32 3.134 3.134 0 0 1-.149.329 1.456 1.456 0 0 1-.202.319 3.463 3.463 0 0 1-.255.33 8.325 8.325 0 0 1-5.72 2.051h-.287a10.345 10.345 0 0 1-4.39-.914 5.39 5.39 0 0 1-1.606-1.138 3.61 3.61 0 0 1-.468-.648 2.126 2.126 0 0 1-.149-.32 1.176 1.176 0 0 1-.085-.318 1.979 1.979 0 0 1-.053-.32v-.329a1.98 1.98 0 0 1 .149-.648c.043-.106.093-.209.149-.308a1.29 1.29 0 0 1 .212-.32c.076-.116.161-.227.255-.33l.33-.318c.138-.106.276-.223.425-.319.15-.096.34-.223.521-.319l.457-.234a5.43 5.43 0 0 1 .628-.255l.18-.064c.23-.08.465-.147.702-.202a10.914 10.914 0 0 1 1.616-.276c.374-.04.75-.057 1.127-.053h.075c.361 0 .701 0 1.063.053.548.052 1.092.145 1.626.276.298.075.596.17.872.266.21.072.417.157.617.255.16.067.317.146.468.234.18.095.354.202.52.319.145.098.284.204.415.319a3.32 3.32 0 0 1 .808.968c.06.097.11.2.149.308.076.21.126.427.149.648a.92.92 0 0 1-.053.17Z" fill="#DEE6FF"/><path d="M50.618 36.924v.149a1.635 1.635 0 0 1-.053.33 1.818 1.818 0 0 1-.096.318c-.043.11-.093.216-.149.32a2.12 2.12 0 0 1-.213.329 3.52 3.52 0 0 1-.265.319l-.351.319a8.602 8.602 0 0 1-5.231 1.637h-.245a9.93 9.93 0 0 1-4.252-.883 5.706 5.706 0 0 1-1.223-.765l-.35-.319a3.524 3.524 0 0 1-.267-.319 2.775 2.775 0 0 1-.212-.319 3.105 3.105 0 0 1-.15-.33 1.818 1.818 0 0 1-.095-.318 1.634 1.634 0 0 1-.053-.33v-.319a1.87 1.87 0 0 1 .149-.638c0-.106.096-.212.149-.319.053-.106.127-.212.202-.319a3.71 3.71 0 0 1 .276-.319c.106-.114.22-.22.34-.319.135-.115.277-.222.426-.319.114-.084.235-.159.361-.223.155-.09.315-.171.479-.244.191-.096.404-.181.627-.266h.064c.269-.1.545-.184.829-.255a11.63 11.63 0 0 1 1.69-.277h1.159c.305-.016.61-.016.915 0 .57.05 1.134.143 1.69.277a8.838 8.838 0 0 1 1.531.542l.468.244c.124.069.245.143.361.224.149.097.291.203.426.319a3.3 3.3 0 0 1 .34.319l.276.319c.075.106.138.212.202.319.059.102.108.208.149.319.085.202.135.418.149.637-.064.043-.053.096-.053.16Z" fill="#E1E7FF"/><path d="M50.469 36.265a1.635 1.635 0 0 1-.053.5c0 .106-.064.212-.096.319l-.16.318a2.898 2.898 0 0 1-.223.32 2.654 2.654 0 0 1-.276.329 5.497 5.497 0 0 1-.362.319l-.446.319a9.143 9.143 0 0 1-4.636 1.222h-.201a9.878 9.878 0 0 1-4.115-.84 6.664 6.664 0 0 1-.723-.393l-.447-.319-.361-.319a4.12 4.12 0 0 1-.276-.33 2.124 2.124 0 0 1-.224-.318c-.053-.107-.106-.213-.148-.32a1.868 1.868 0 0 1-.107-.318 3.04 3.04 0 0 1-.053-.33v-.319c.012-.22.062-.435.149-.638.04-.11.09-.216.149-.319.058-.114.13-.22.212-.319a2.67 2.67 0 0 1 .277-.33l.35-.318.266-.202c.117-.075.234-.16.372-.234.153-.097.313-.183.479-.255.189-.098.384-.183.585-.255h.053c.287-.107.585-.202.904-.287.59-.142 1.19-.239 1.796-.287h1.755c.605.047 1.206.143 1.796.287.32.085.617.18.904.287.218.079.431.171.638.276.168.075.332.16.489.255l.361.234.266.202.351.32c.1.101.193.212.276.329.083.098.155.205.213.319.065.099.115.206.149.319.087.202.137.418.149.638a.745.745 0 0 1-.032.138Z" fill="#E3E8FF"/><path d="M50.32 35.616c.005.06.005.12 0 .18.006.107.006.214 0 .32a2.977 2.977 0 0 1-.106.33c-.048.11-.105.217-.17.318a2.898 2.898 0 0 1-.223.32 3.89 3.89 0 0 1-.288.318 2.675 2.675 0 0 1-.372.32 7.324 7.324 0 0 1-.468.329l-.605.319a9.568 9.568 0 0 1-3.86.808h-.16a9.57 9.57 0 0 1-3.954-.787h-.064l-.606-.319a7.134 7.134 0 0 1-.468-.33 3.478 3.478 0 0 1-.882-.956 2.238 2.238 0 0 1-.276-.648c0-.107 0-.214-.054-.32-.053-.106 0-.117 0-.18v-.139c.013-.218.06-.434.138-.638a1.83 1.83 0 0 1 .16-.319 3.49 3.49 0 0 1 .212-.33c.09-.11.186-.217.288-.318l.19-.181.277-.223.372-.256a4.35 4.35 0 0 1 .49-.265c.155-.083.315-.158.478-.224l.17-.063a7.83 7.83 0 0 1 .925-.298 9.761 9.761 0 0 1 1.903-.287h1.361a9.57 9.57 0 0 1 1.903.287c.315.078.624.178.925.298.222.082.438.178.649.287.168.078.331.167.489.265l.372.256.276.223c.069.055.133.115.191.18.102.102.198.208.288.32l.212.319c.062.102.115.208.16.319.077.208.123.426.138.648a.76.76 0 0 1-.01.117Z" fill="#E5EAFF"/><path d="M50.171 34.968c.005.063.005.127 0 .19 0 .107 0 .213-.053.32-.053.106-.074.212-.117.319-.044.113-.1.22-.17.319a2.318 2.318 0 0 1-.234.33c-.097.11-.2.217-.308.318l-.383.32c-.157.12-.324.227-.5.318a5.088 5.088 0 0 1-.638.32 5.511 5.511 0 0 1-.893.318 9.973 9.973 0 0 1-2.743.404h-.117a10.046 10.046 0 0 1-2.86-.404 5.514 5.514 0 0 1-.893-.319 6.22 6.22 0 0 1-.595-.308 3.347 3.347 0 0 1-.5-.32l-.382-.318a4.257 4.257 0 0 1-.309-.319 2.324 2.324 0 0 1-.234-.33 1.52 1.52 0 0 1-.17-.319c0-.106-.085-.212-.117-.319-.032-.106 0-.212-.053-.319a1.153 1.153 0 0 1 0-.19v-.128c.023-.222.073-.44.149-.649 0-.106.106-.213.16-.319.067-.111.141-.218.223-.319a.74.74 0 0 1 .117-.138l.212-.213.287-.255c.117-.085.245-.18.383-.266l.49-.287.36-.17.298-.117c.304-.124.616-.224.936-.298a9.943 9.943 0 0 1 2.126-.308h.915c.717.027 1.43.13 2.126.308.316.076.625.175.925.298.226.08.446.177.66.287l.499.287.372.266.298.255.202.213c.042.047.08.097.117.149.081.101.156.207.223.319.061.102.115.208.16.319.074.206.124.42.148.638l-.117.117Z" fill="#E8EBFF"/><path d="M50.023 34.309c.005.067.005.134 0 .202a1.803 1.803 0 0 1-.064.33c-.03.109-.069.215-.117.318-.049.11-.105.217-.17.319l-.245.319a2.267 2.267 0 0 1-.319.319c-.125.118-.26.224-.404.319-.16.117-.34.223-.52.33a5.91 5.91 0 0 1-.692.318c-.32.132-.651.239-.989.32-.785.199-1.592.302-2.402.308h-.085a9.719 9.719 0 0 1-2.488-.309 6.721 6.721 0 0 1-.989-.319h-.138l-.553-.265-.521-.32c-.138-.106-.276-.212-.404-.329a2.263 2.263 0 0 1-.319-.319 3.038 3.038 0 0 1-.234-.319 1.614 1.614 0 0 1-.18-.319 1.934 1.934 0 0 1-.118-.319 1.69 1.69 0 0 1-.063-.319 1.423 1.423 0 0 1 0-.212v-.117c.016-.22.066-.434.148-.638l.16-.33v-.074l.149-.213c.064-.085.138-.16.212-.244.095-.098.194-.19.298-.277.128-.096.255-.202.394-.287a5.39 5.39 0 0 1 .489-.298l.244-.117.425-.19c.308-.124.624-.223.947-.299a9.8 9.8 0 0 1 2.498-.308h.191c.78.006 1.554.11 2.307.309.323.073.64.173.947.297.234.096.457.202.67.308.212.107.34.192.5.298l.382.287c.104.087.204.18.298.277l.212.255c.056.063.106.13.15.202.02.027.037.055.052.085.066.1.12.207.16.319.082.203.132.419.149.638l.032.064Z" fill="#EAEDFF"/><path d="M49.873 33.66c.006.07.006.142 0 .213a1.69 1.69 0 0 1-.063.319 1.46 1.46 0 0 1-.128.318c-.05.116-.11.226-.18.33a3.372 3.372 0 0 1-.256.319 4.393 4.393 0 0 1-.33.319 3.184 3.184 0 0 1-.425.319c-.175.12-.36.228-.552.319a5.09 5.09 0 0 1-.734.319c-.37.14-.75.25-1.138.33a10.06 10.06 0 0 1-2.009.201c-.689 0-1.376-.067-2.052-.202a6.978 6.978 0 0 1-1.127-.33l-.234-.084-.5-.234a3.952 3.952 0 0 1-.552-.32 4.415 4.415 0 0 1-.426-.318 3.357 3.357 0 0 1-.585-.638 1.986 1.986 0 0 1-.18-.33 1.419 1.419 0 0 1-.128-.319 1.69 1.69 0 0 1-.063-.319 1.423 1.423 0 0 1 0-.212v-.106c.013-.209.06-.413.138-.606 0 0 0-.117.085-.17.085-.054.096-.17.149-.256l.223-.297c.096-.096.191-.202.298-.298l.393-.298c.157-.117.324-.22.5-.308l.117-.064a4.12 4.12 0 0 1 .542-.255c.297-.117.627-.223.967-.319.8-.2 1.621-.3 2.446-.298h.223c.752.02 1.501.12 2.233.298.33.096.659.202.956.319.227.091.447.198.66.319.175.088.342.19.5.308.137.09.268.19.393.298.104.097.204.2.297.308.083.09.158.185.224.287.053.085.106.17.148.256l.085.17c.079.193.126.398.139.606l-.053.106Z" fill="#ECEEFF"/><path d="M49.725 32.99c0 1.786-2.563 3.19-5.72 3.19-3.158 0-5.72-1.446-5.72-3.19 0-1.743 2.562-3.19 5.72-3.19 3.157 0 5.72 1.425 5.72 3.19Z" fill="#CAD2D6"/><path d="M49.725 32.99c0 1.786-2.563 3.19-5.72 3.19-3.158 0-5.72-1.446-5.72-3.19 0-1.743 2.562-3.19 5.72-3.19 3.157 0 5.72 1.425 5.72 3.19Z" fill="#231889"/><path d="M49.831 32.331c0 .202-.032.403-.096.595l-.063.181c0 .085-.085.17-.139.255-.06.1-.127.197-.202.287a1.64 1.64 0 0 1-.266.298 3.31 3.31 0 0 1-.35.308 4.716 4.716 0 0 1-.447.309l-.595.308c-.27.123-.547.23-.83.319a9.963 9.963 0 0 1-2.806.415 10 10 0 0 1-2.828-.415l-.49-.18-.34-.139-.595-.308a4.727 4.727 0 0 1-.447-.309 3.316 3.316 0 0 1-.35-.308 2.317 2.317 0 0 1-.266-.298 2.629 2.629 0 0 1-.202-.276 2.898 2.898 0 0 1-.138-.255l-.064-.17a1.883 1.883 0 0 1-.096-.596 1.532 1.532 0 0 1 0-.319 1.68 1.68 0 0 1 .096-.33c.036-.111.086-.218.149-.318a1.67 1.67 0 0 1 .212-.32 2.89 2.89 0 0 1 .287-.329c.117-.106.245-.223.372-.319a4.82 4.82 0 0 1 .49-.319 8.431 8.431 0 0 1 4.157-.988h.308a8.346 8.346 0 0 1 3.88 1.01c.171.093.335.2.49.319.127.095.255.212.372.319.104.102.2.212.287.33.083.097.154.204.212.318.063.1.113.207.15.319.042.106.074.217.095.33.026.09.043.182.053.276Z" fill="#F1F3FF"/><path d="M49.938 31.683c-.004.213-.04.424-.107.627 0 .106-.085.212-.138.319a.593.593 0 0 1-.053.085 1.125 1.125 0 0 1-.128.212l-.191.245c-.087.097-.18.19-.277.276l-.35.287-.458.298a5.314 5.314 0 0 1-.606.298 6.99 6.99 0 0 1-.829.308 8.83 8.83 0 0 1-1.456.309c-.434.055-.87.083-1.308.084-.444 0-.888-.029-1.33-.084a8.391 8.391 0 0 1-1.456-.309 5.636 5.636 0 0 1-.637-.223l-.203-.085a4.434 4.434 0 0 1-.595-.298 3.766 3.766 0 0 1-.457-.297 3.608 3.608 0 0 1-.362-.288 2.137 2.137 0 0 1-.265-.276 2.4 2.4 0 0 1-.202-.255.808.808 0 0 1-.128-.202.602.602 0 0 1-.053-.085 4.01 4.01 0 0 1-.138-.32 2.125 2.125 0 0 1-.096-.626v-.32c.02-.109.053-.216.096-.318a1.77 1.77 0 0 1 .138-.33c.064-.106.138-.213.213-.319.083-.113.176-.22.276-.319.117-.118.24-.228.372-.33a5.16 5.16 0 0 1 .532-.36 8.58 8.58 0 0 1 4.252-1.064 7.984 7.984 0 0 1 4.774 1.393c.138.106.255.212.372.319a3.952 3.952 0 0 1 .489.648c.057.105.103.215.138.33.043.102.075.21.096.319.064.138.064.244.075.35Z" fill="#EFF1FF"/><path d="M50.033 31.045c0 .212-.032.424-.096.627 0 .106-.085.223-.138.33a2.63 2.63 0 0 1-.202.319l-.106.148-.192.213-.276.244c-.11.101-.227.193-.35.277l-.469.287a5.34 5.34 0 0 1-.606.287 6.68 6.68 0 0 1-.85.298 8.075 8.075 0 0 1-1.51.297 8.498 8.498 0 0 1-1.18.075 9.262 9.262 0 0 1-1.233-.075 8.248 8.248 0 0 1-1.51-.297 7.403 7.403 0 0 1-.776-.266h-.075a5.325 5.325 0 0 1-.605-.287l-.468-.287a3.085 3.085 0 0 1-.351-.277l-.277-.244-.191-.213-.106-.149a5.306 5.306 0 0 1-.202-.319 1.773 1.773 0 0 1-.128-.33 1.81 1.81 0 0 1-.106-.626c-.01-.11-.01-.22 0-.33.013-.11.042-.217.085-.319.035-.11.081-.218.138-.319.057-.116.125-.226.202-.33.083-.113.176-.22.276-.318.267-.279.571-.519.904-.713a8.315 8.315 0 0 1 3.445-1.063c.315-.016.63-.016.946 0a7.548 7.548 0 0 1 5.316 1.776 2.547 2.547 0 0 1 .478.649c.056.102.106.209.15.318.035.107.06.217.074.33a1.63 1.63 0 0 1-.011.287Z" fill="#EBEFFF"/><path d="M50.14 30.396c0 .217-.036.433-.107.638a2 2 0 0 1-.128.32c-.063.105-.127.212-.202.318a2.481 2.481 0 0 1-.255.33l-.18.18-.266.224-.351.255-.468.276c-.2.103-.407.195-.617.277-.28.116-.567.212-.86.287a8.973 8.973 0 0 1-1.574.297 8.51 8.51 0 0 1-1.063.064h-.075c-.373 0-.746-.02-1.116-.064a8.911 8.911 0 0 1-1.584-.297 6.302 6.302 0 0 1-.861-.287h-.064l-.553-.255c-.16-.096-.32-.181-.457-.277l-.362-.255-.266-.234-.18-.17a2.49 2.49 0 0 1-.256-.33 5.291 5.291 0 0 1-.202-.319 2 2 0 0 1-.127-.319 1.913 1.913 0 0 1-.106-.637 1.635 1.635 0 0 1 0-.32c.013-.113.041-.223.085-.329a1.38 1.38 0 0 1 .138-.319 2.64 2.64 0 0 1 .191-.33 4.253 4.253 0 0 1 1.18-1.063 7.303 7.303 0 0 1 2.19-.86 10.63 10.63 0 0 1 2.318-.256c2.573 0 4.774.893 5.688 2.126.075.107.139.224.202.33.064.106.096.213.139.319.034.107.06.217.074.33.038.113.063.23.074.35Z" fill="#E9EEFF"/><path d="M50.245 29.8a2.124 2.124 0 0 1-.244.968c-.056.11-.12.217-.191.319a3.358 3.358 0 0 1-.585.638l-.255.202-.351.244-.468.256-.617.276a6.967 6.967 0 0 1-.871.276 8.713 8.713 0 0 1-1.648.298H42.94a9.038 9.038 0 0 1-1.647-.298 6.96 6.96 0 0 1-.872-.276l-.202-.085-.415-.191-.457-.256a4.281 4.281 0 0 1-.361-.244l-.256-.202c-.117-.107-.234-.213-.33-.32a3.343 3.343 0 0 1-.254-.318 2.047 2.047 0 0 1-.192-.33 2.894 2.894 0 0 1-.138-.319 2.213 2.213 0 0 1-.096-.637c-.01-.11-.01-.22 0-.33 0-.106 0-.213.075-.33.074-.117.085-.212.138-.319a3.689 3.689 0 0 1 1.35-1.371c.336-.21.692-.384 1.063-.521a9.694 9.694 0 0 1 3.615-.66c2.85 0 5.242 1.064 5.996 2.552.054.107.096.213.139.32.035.107.06.217.074.329.036.107.061.217.075.33Z" fill="#E6ECFF"/><path d="M50.341 29.11c.001.216-.031.431-.095.638a3.16 3.16 0 0 1-.139.33c0 .105-.117.212-.18.318-.064.107-.16.213-.255.32a4.786 4.786 0 0 1-.33.329l-.415.319-.35.223c-.148.09-.3.172-.458.244l-.627.266a7.143 7.143 0 0 1-.882.266 8.88 8.88 0 0 1-1.744.287h-1.722a8.915 8.915 0 0 1-1.744-.287c-.3-.07-.594-.158-.882-.266l-.34-.138-.288-.128a4.63 4.63 0 0 1-.457-.244l-.35-.223-.415-.32-.33-.329-.244-.319a2.513 2.513 0 0 1-.192-.319 1.996 1.996 0 0 1-.127-.319 1.924 1.924 0 0 1-.107-.648v-.33c0-.106 0-.213.075-.319a3.242 3.242 0 0 1 1.233-1.552l.33-.223a9.133 9.133 0 0 1 4.678-1.16c3.115 0 5.698 1.266 6.24 2.935a2.1 2.1 0 0 1 .096.649h.021Z" fill="#E4EBFF"/><path d="M50.447 28.461c.003.22-.033.44-.106.649-.033.11-.076.216-.127.319a4.814 4.814 0 0 1-.181.319 2.488 2.488 0 0 1-.255.33 3.376 3.376 0 0 1-.32.318c-.28.245-.586.46-.913.638-.152.09-.308.172-.468.245-.192.084-.404.17-.628.244a7.13 7.13 0 0 1-.882.276c-.611.145-1.234.237-1.86.277h-1.404a11.057 11.057 0 0 1-1.85-.277 6.766 6.766 0 0 1-.893-.276 3.888 3.888 0 0 1-.49-.191l-.137-.053-.468-.245a4.12 4.12 0 0 1-.51-.319c-.139-.096-.277-.213-.404-.319-.128-.106-.224-.213-.32-.319-.093-.1-.175-.21-.244-.33a1.945 1.945 0 0 1-.191-.319 1.996 1.996 0 0 1-.128-.318 1.924 1.924 0 0 1-.106-.649 2.829 2.829 0 0 1 0-.319c.117-.613.44-1.168.914-1.573a8.335 8.335 0 0 1 5.497-1.744c3.37 0 6.134 1.457 6.379 3.328.038.1.07.204.096.308Z" fill="#E1E9FF"/><path d="M50.543 27.802c-.003.22-.039.439-.106.649a1.762 1.762 0 0 1-.128.329 2.95 2.95 0 0 1-.18.308 3.78 3.78 0 0 1-.245.33 3.378 3.378 0 0 1-.319.319 3.694 3.694 0 0 1-.393.319c-.16.117-.33.223-.5.33a5.246 5.246 0 0 1-.648.318l-.617.245a7.652 7.652 0 0 1-.914.266c-.67.156-1.354.245-2.042.265h-.914c-.688-.02-1.371-.11-2.041-.265a8.274 8.274 0 0 1-.915-.266l-.616-.245a5.947 5.947 0 0 1-.638-.319l-.5-.319-.393-.33a4.22 4.22 0 0 1-.309-.318 2.48 2.48 0 0 1-.255-.33 2.273 2.273 0 0 1-.18-.319 2 2 0 0 1-.128-.318 2.22 2.22 0 0 1-.106-.638 2.33 2.33 0 0 1 .435-1.319l.107-.149c1-1.307 3.317-2.222 6.007-2.222 3.614-.01 6.538 1.638 6.538 3.679Z" fill="#231889"/><path d="M50.65 27.153a2.296 2.296 0 0 1-.224.99 4.812 4.812 0 0 1-.18.318L50 28.78c-.094.114-.197.22-.308.319l-.393.33-.49.319c-.2.12-.405.23-.616.329-.27.123-.547.23-.83.319a8.02 8.02 0 0 1-.903.244 10.92 10.92 0 0 1-2.297.224h-.191a10.633 10.633 0 0 1-2.445-.266 7.662 7.662 0 0 1-.915-.244 6.688 6.688 0 0 1-1.403-.638l-.49-.32-.392-.329a2.939 2.939 0 0 1-.309-.319l-.244-.319c-.064-.106-.128-.212-.181-.319a2 2 0 0 1-.128-.319 2.322 2.322 0 0 1 .022-1.393 2.42 2.42 0 0 1 .106-.244c.755-1.605 3.338-2.786 6.379-2.786 3.7.054 6.677 1.712 6.677 3.785Z" fill="#B8C9CF"/><path d="M44.005 36.03v.947c.005.064.005.128 0 .191v4.2h-.287a10.345 10.345 0 0 1-4.391-.914 5.39 5.39 0 0 1-1.606-1.138 3.61 3.61 0 0 1-.467-.649 2.14 2.14 0 0 1-.15-.319 1.183 1.183 0 0 1-.084-.318 1.98 1.98 0 0 1-.053-.32v-.329c.012-.223.063-.442.148-.648.022-.219.072-.433.15-.638a1.99 1.99 0 0 1 .148-.649c.02-.215.07-.426.149-.627.014-.222.06-.44.138-.649.018-.219.068-.434.149-.638a1.95 1.95 0 0 1 .138-.606 2.243 2.243 0 0 1-.096-.584 2.023 2.023 0 0 1-.095-.617 1.924 1.924 0 0 1-.117-.638 2.122 2.122 0 0 1-.096-.638 34.694 34.694 0 0 1-.202-1.286 2.243 2.243 0 0 1-.106-.649 2.492 2.492 0 0 1-.106-.627 1.869 1.869 0 0 1-.075-.351 1.424 1.424 0 0 1 0-.298 1.402 1.402 0 0 1 0-.361c.018-.116.047-.23.085-.34h1l.829.127 1.063.192c.447.095.882.202 1.297.318h.202c.4.12.792.268 1.17.447.37.149.705.377.978.67a.958.958 0 0 1 .276.702c0 .17 0 .404-.053.67-.053.265 0 .36 0 .563v3.923a.56.56 0 0 0 0 .138v1.169c.074.34.074.48.064.575Z" fill="#E8EFEF" style="mix-blend-mode:multiply"/><path d="M40.783 35.67s0 .116-.074.233l-.139.436v.18c0 .075-.084.31-.138.5a.321.321 0 0 0 0 .107c-.053.18-.106.361-.16.574 0 .191-.084.393-.137.606 0 .223-.096.457-.15.691-.052.234-.095.457-.148.691-.053.234-.075.457-.128.702a5.392 5.392 0 0 1-1.605-1.138 3.623 3.623 0 0 1-.468-.648 2.13 2.13 0 0 1-.149-.32 1.183 1.183 0 0 1-.085-.318 1.991 1.991 0 0 1-.053-.32v-.329a1.99 1.99 0 0 1 .149-.648c.022-.218.072-.433.149-.638.013-.223.063-.442.149-.649.019-.215.069-.426.148-.627.015-.222.061-.44.139-.649.018-.218.068-.433.149-.637.013-.209.06-.413.138-.606a2.24 2.24 0 0 1-.096-.585 2.02 2.02 0 0 1-.096-.617 1.924 1.924 0 0 1-.116-.638 2.126 2.126 0 0 1-.096-.638 34.666 34.666 0 0 1-.202-1.286 2.242 2.242 0 0 1-.107-.649 2.497 2.497 0 0 1-.106-.627 1.87 1.87 0 0 1-.074-.35 1.41 1.41 0 0 1 0-.298 1.402 1.402 0 0 1 0-.362c.018-.116.047-.23.085-.34l.096-.213.414.15h.117l.361.17c.18.099.35.213.51.34.156.136.276.307.352.5v.127c0 .16.053.33.095.52.043.192.085.426.128.66.043.234.074.436.117.67a.264.264 0 0 0 0 .085c0 .191.074.382.096.584 0 .202.063.404.106.617 0 .17.053.33.085.5.032.17 0 .074 0 .117l.064.372a1.692 1.692 0 0 0 0 .244 1.996 1.996 0 0 0 0 .266c.015.122.036.242.063.362v.16c0 .159.054.307.075.467 0 0 .021.16 0 0 0 .18.053.361.085.52.032.16 0 0 0 .054 0 .053 0 .319.074.468v.149c0 .138 0 .265.075.382a1.548 1.548 0 0 0 0 .234v.298c.115.121.218.253.308.393Z" fill="#F2F2F2" style="mix-blend-mode:multiply"/><path d="M50.66 27.153c0 2.127-2.977 3.753-6.655 3.753-3.679 0-6.645-1.68-6.645-3.753 0-2.073 2.977-3.753 6.645-3.753 3.668 0 6.655 1.68 6.655 3.753Z" fill="url(#e)"/><path d="M50.033 27.1c0 1.85-2.7 3.35-6.028 3.35-3.328 0-6.028-1.5-6.028-3.35s2.7-3.349 6.028-3.349c3.328 0 6.028 1.5 6.028 3.35Z" fill="#231889"/><path d="M50.033 27.1c0-1.85-2.7-3.349-6.028-3.349a10.143 10.143 0 0 0-2.477.298c.167 2.111.47 4.21.903 6.283.521.077 1.047.116 1.574.117 3.349 0 6.028-1.499 6.028-3.349Z" fill="#171552"/><path d="M36.977 34.436c0 2.073-2.977 3.764-6.655 3.764-3.679 0-6.645-1.69-6.645-3.764 0-2.073 2.977-3.753 6.645-3.753 3.668 0 6.655 1.68 6.655 3.753Z" fill="#DEE4E6"/><path d="M37.084 44.855c.004.05.004.1 0 .149a1.7 1.7 0 0 1 0 .319c-.021.11-.053.216-.096.319a3.105 3.105 0 0 1-.15.33 2.71 2.71 0 0 1-.19.33l-.266.318a8.325 8.325 0 0 1-5.72 2.052h-.319a10.346 10.346 0 0 1-4.391-.914 5.391 5.391 0 0 1-1.605-1.138c-.096-.117-.192-.213-.266-.319a3.407 3.407 0 0 1-.202-.33c-.064-.116-.096-.212-.138-.318a1.206 1.206 0 0 1-.096-.32 1.813 1.813 0 0 1-.053-.318v-.33a2.296 2.296 0 0 1 .298-.957c.054-.116.126-.224.212-.319.076-.117.161-.227.255-.33l.33-.318.425-.32c.16-.106.34-.223.521-.318l.457-.234.628-.255.18-.064.702-.202c.9-.206 1.82-.316 2.743-.33h.085c.355 0 .71.02 1.063.064a9.979 9.979 0 0 1 1.627.266c.297.074.595.17.872.266l.627.255c.157.07.31.147.457.234.192.096.362.212.532.319l.414.319c.117.106.234.212.33.319.097.102.186.212.266.33.08.097.147.204.202.318a2.299 2.299 0 0 1 .298.957.913.913 0 0 1-.032.17Z" fill="#DEE6FF"/><path d="M36.935 44.206a.802.802 0 0 1 0 .16 1.7 1.7 0 0 1 0 .319c0 .106-.064.213-.107.319a1.836 1.836 0 0 1-.149.33 2.762 2.762 0 0 1-.212.318 3.507 3.507 0 0 1-.266.32l-.34.318a8.665 8.665 0 0 1-5.241 1.638h-.277a9.963 9.963 0 0 1-4.253-.883 5.713 5.713 0 0 1-1.222-.765 3.32 3.32 0 0 1-.34-.32 3.485 3.485 0 0 1-.277-.318l-.213-.32a3.947 3.947 0 0 1-.148-.318 1.918 1.918 0 0 1-.096-.33 1.673 1.673 0 0 1-.053-.319v-.33c.023-.217.073-.431.149-.637 0-.106.095-.213.148-.32a2.78 2.78 0 0 1 .213-.318 3.512 3.512 0 0 1 .606-.638c.136-.118.282-.225.436-.319.109-.087.226-.161.35-.223.156-.09.316-.172.48-.245l.627-.266h.063c.27-.099.546-.184.83-.255.56-.133 1.128-.225 1.7-.276h1.096c.304-.017.61-.017.914 0 .573.05 1.142.143 1.701.276.308.085.606.17.883.277.276.106.436.17.638.266l.467.244a4.1 4.1 0 0 1 .362.223c.15.095.292.201.425.32.12.097.235.204.34.318a2.634 2.634 0 0 1 .478.638c.059.102.109.209.15.32.084.202.134.418.148.637a.86.86 0 0 1-.01.16Z" fill="#E1E7FF"/><path d="M36.786 43.547a1.666 1.666 0 0 1-.053.5 1.818 1.818 0 0 1-.096.32c-.045.11-.098.216-.16.318a2.387 2.387 0 0 1-.212.32 2.777 2.777 0 0 1-.287.329 5.468 5.468 0 0 1-.362.319l-.446.319a9.016 9.016 0 0 1-4.636 1.222h-.191a9.876 9.876 0 0 1-4.114-.84 5.636 5.636 0 0 1-.713-.393 5.647 5.647 0 0 1-.457-.32l-.35-.318a3.872 3.872 0 0 1-.288-.319 1.583 1.583 0 0 1-.212-.33 2.224 2.224 0 0 1-.16-.319 1.865 1.865 0 0 1-.106-.318 3.02 3.02 0 0 1 0-.33v-.319c.016-.219.066-.434.148-.638 0-.106.096-.212.15-.319.064-.11.135-.217.212-.319a4.12 4.12 0 0 1 .574-.616c.084-.077.173-.148.266-.213l.372-.234c.152-.098.312-.183.478-.255.19-.096.386-.181.585-.255h.053c.295-.111.597-.204.904-.277.59-.15 1.19-.25 1.797-.297h1.722c.607.045 1.208.145 1.797.297.307.072.609.164.904.277.218.079.43.171.637.276.17.072.334.158.49.255l.361.234.276.213.34.308c.105.1.197.21.277.33.08.1.152.206.213.319.178.289.28.618.297.957a.77.77 0 0 1-.01.117Z" fill="#E3E8FF"/><path d="M36.637 42.899c.006.06.006.12 0 .18a1.775 1.775 0 0 1-.053.33c0 .107-.064.213-.106.32-.045.11-.098.216-.16.318l-.223.32-.298.318c-.116.118-.24.228-.372.33l-.468.319-.606.319a9.568 9.568 0 0 1-3.848.808h-.16a9.569 9.569 0 0 1-3.955-.787h-.064l-.595-.32-.479-.318a5.507 5.507 0 0 1-.372-.33 3.856 3.856 0 0 1-.287-.319 2.898 2.898 0 0 1-.223-.319 2.234 2.234 0 0 1-.16-.319 1.727 1.727 0 0 1-.116-.329c0-.106 0-.213-.053-.319-.054-.106 0-.117 0-.18v-.139c.011-.22.061-.436.148-.638 0-.106.096-.212.15-.319.064-.114.135-.224.212-.33a3.89 3.89 0 0 1 .287-.318l.191-.181.277-.223.372-.256.489-.265c.16-.085.319-.15.478-.224l.17-.063c.301-.118.61-.214.925-.287a9.746 9.746 0 0 1 1.903-.298h1.404c.643.034 1.28.134 1.903.298.316.07.625.166.925.287.221.082.438.178.648.287.168.08.331.168.49.265l.372.256.287.223.191.18.277.32.212.319c.064.104.117.214.16.33.077.204.127.419.148.637l-.02.117Z" fill="#E5EAFF"/><path d="M36.488 42.25a1.23 1.23 0 0 1 0 .192v.319c0 .106-.074.212-.117.319a1.934 1.934 0 0 1-.17.33c-.07.11-.149.217-.234.318a4.078 4.078 0 0 1-.297.32l-.394.318a3.867 3.867 0 0 1-.489.32 7.355 7.355 0 0 1-.648.329 8.305 8.305 0 0 1-.883.319c-.892.256-1.815.388-2.743.393h-.17c-.967.002-1.93-.13-2.86-.393a8.718 8.718 0 0 1-.893-.32 7.822 7.822 0 0 1-.595-.308 4.008 4.008 0 0 1-.5-.319l-.383-.319a4.22 4.22 0 0 1-.308-.319l-.234-.318a3.167 3.167 0 0 1-.17-.33 1.608 1.608 0 0 1-.106-.319 1.691 1.691 0 0 1-.064-.319v-.191a.513.513 0 0 1 0-.128 1.98 1.98 0 0 1 .149-.648c0-.107.095-.213.148-.32a2.9 2.9 0 0 1 .224-.318.732.732 0 0 1 .117-.139l.212-.223c.089-.09.185-.171.287-.244.122-.1.25-.193.383-.277l.49-.287.36-.17.298-.117c.305-.12.618-.219.936-.298a9.938 9.938 0 0 1 2.126-.308h.915c.717.027 1.43.13 2.126.308a8.001 8.001 0 0 1 1.584.585l.5.287.372.277c.104.075.203.157.298.244l.202.223.127.139.213.319c.061.102.115.208.16.319.08.207.13.426.148.648l-.117.107Z" fill="#E8EBFF"/><path d="M36.34 41.591a1.362 1.362 0 0 1-.065.532 1.9 1.9 0 0 1-.116.319 2.321 2.321 0 0 1-.415.638 3.113 3.113 0 0 1-.319.33 6.721 6.721 0 0 1-.404.318 5.91 5.91 0 0 1-1.212.638c-.32.132-.651.238-.989.32a10.03 10.03 0 0 1-2.402.307h-.075a9.719 9.719 0 0 1-2.488-.308 6.722 6.722 0 0 1-.989-.319h-.138l-.553-.266-.51-.319-.415-.319a2.24 2.24 0 0 1-.308-.33 1.702 1.702 0 0 1-.244-.318 2.42 2.42 0 0 1-.181-.32c0-.105-.085-.212-.117-.318a1.691 1.691 0 0 1-.064-.319v-.213a1.862 1.862 0 0 1 .149-.755c.041-.11.09-.216.149-.318l.053-.085.149-.203c.065-.092.14-.177.223-.255.088-.1.184-.192.287-.276l.393-.287a5.42 5.42 0 0 1 .49-.298l.244-.117.425-.18a6.57 6.57 0 0 1 .947-.309 9.8 9.8 0 0 1 2.498-.308h.191c.78.006 1.554.11 2.308.308a5.8 5.8 0 0 1 .946.309 5.532 5.532 0 0 1 1.17.595l.382.287c.104.087.204.179.298.276l.212.255c.056.063.106.13.15.203l.052.085c.064.1.117.207.16.319.087.202.137.418.149.637l-.022.064Z" fill="#EAEDFF"/><path d="M36.19 40.943c.006.07.006.142 0 .212-.01.108-.032.215-.063.32a3.01 3.01 0 0 1-.309.648 3.358 3.358 0 0 1-.255.319c-.1.117-.21.223-.33.319-.13.12-.272.227-.425.319-.175.12-.36.227-.553.319-.235.129-.48.239-.733.33a8.722 8.722 0 0 1-1.127.318 11 11 0 0 1-2.02.213 9.71 9.71 0 0 1-2.052-.213 8.26 8.26 0 0 1-1.127-.319l-.245-.095-.5-.234a4.669 4.669 0 0 1-.552-.32 3.198 3.198 0 0 1-.425-.318 3.358 3.358 0 0 1-.585-.638 3.261 3.261 0 0 1-.18-.33 1.422 1.422 0 0 1-.128-.319l-.064-.319v-.212a.327.327 0 0 1 0-.107 1.94 1.94 0 0 1 .127-.606l.075-.17c.045-.09.099-.175.16-.255.062-.104.137-.2.223-.287.09-.11.19-.214.297-.308.117-.096.245-.202.383-.298.16-.114.326-.217.5-.308l.117-.064c.178-.098.363-.183.552-.255.312-.124.632-.226.957-.308a9.385 9.385 0 0 1 2.446-.309h.223c.753.016 1.503.12 2.232.309a6.474 6.474 0 0 1 1.627.627c.173.092.34.195.5.308.138.096.266.202.383.298.104.097.204.2.297.308.086.086.161.183.224.287l.16.255c0 .064 0 .117.074.181.078.193.125.398.138.606l-.022.096Z" fill="#ECEEFF"/><path d="M30.322 43.516c3.159 0 5.72-1.447 5.72-3.232 0-1.785-2.561-3.233-5.72-3.233-3.16 0-5.72 1.448-5.72 3.233 0 1.785 2.56 3.232 5.72 3.232Z" fill="#CAD2D6"/><path d="M30.322 43.516c3.159 0 5.72-1.447 5.72-3.232 0-1.785-2.561-3.233-5.72-3.233-3.16 0-5.72 1.448-5.72 3.233 0 1.785 2.56 3.232 5.72 3.232Z" fill="#231889"/><path d="M36.148 39.614c0 .202-.032.403-.096.595l-.063.18-.139.267a1.608 1.608 0 0 1-.191.276 2.411 2.411 0 0 1-.276.298c-.11.11-.227.214-.351.308a4.71 4.71 0 0 1-1.042.617c-.267.12-.54.227-.819.319-.459.14-.928.243-1.403.308a10 10 0 0 1-1.414.106c-.48-.002-.96-.038-1.436-.106a9.199 9.199 0 0 1-1.392-.308l-.49-.181-.33-.138a4.484 4.484 0 0 1-.594-.309 3.8 3.8 0 0 1-.458-.308 3.293 3.293 0 0 1-.35-.308 2.318 2.318 0 0 1-.266-.298 2.628 2.628 0 0 1-.202-.276l-.138-.266-.064-.17a1.882 1.882 0 0 1-.096-.596v-.319c.02-.112.053-.223.096-.33a2 2 0 0 1 .149-.318 3.334 3.334 0 0 1 .5-.649l.382-.319a3.76 3.76 0 0 1 .479-.319 8.504 8.504 0 0 1 4.157-.988h.308a8.346 8.346 0 0 1 3.88 1.063c.171.094.335.2.49.319.138.106.255.212.372.319.104.102.2.212.287.33.084.096.155.203.212.318.063.1.113.207.15.32.042.105.074.216.095.329.023.076.041.154.053.234Z" fill="#F1F3FF"/><path d="M36.254 38.965a2.12 2.12 0 0 1-.244.947v.084l-.138.213a1.46 1.46 0 0 1-.192.245l-.276.276-.351.287-.457.298a5.314 5.314 0 0 1-.606.297 6.396 6.396 0 0 1-.83.309 8.82 8.82 0 0 1-1.456.308 10.396 10.396 0 0 1-2.637 0 8.392 8.392 0 0 1-1.456-.308 5.623 5.623 0 0 1-.638-.224l-.202-.085a4.446 4.446 0 0 1-.596-.297 3.785 3.785 0 0 1-.457-.298 5.361 5.361 0 0 1-.361-.287 3.262 3.262 0 0 1-.33-.298 2.241 2.241 0 0 1-.202-.244l-.127-.213a.214.214 0 0 1 0-.085 2.13 2.13 0 0 1-.15-.319 2.125 2.125 0 0 1-.095-.627 1.65 1.65 0 0 1 0-.33c.018-.108.047-.215.085-.319.04-.112.086-.222.138-.33.064-.106.139-.212.213-.318.087-.114.183-.22.287-.32.11-.12.231-.23.362-.329.169-.131.347-.252.531-.361a8.58 8.58 0 0 1 4.253-1.063 7.984 7.984 0 0 1 4.774 1.392c.138.107.255.213.372.32a3.796 3.796 0 0 1 .489.648c.056.107.105.217.148.33 0 .106.064.212.086.318.036.125.057.254.063.383Z" fill="#EFF1FF"/><path d="M36.35 38.306c0 .213-.033.424-.096.627-.04.113-.085.223-.138.33a2.64 2.64 0 0 1-.202.319l-.106.149-.192.212-.276.256c-.106.085-.223.18-.35.265l-.469.288a5.323 5.323 0 0 1-.606.286 6.51 6.51 0 0 1-.84.298 9.473 9.473 0 0 1-1.51.309 11.522 11.522 0 0 1-2.424 0 9.248 9.248 0 0 1-2.285-.575h-.075a5.307 5.307 0 0 1-.606-.287l-.467-.287-.351-.266-.266-.255a1.73 1.73 0 0 1-.191-.212 1.42 1.42 0 0 1-.117-.15 4.437 4.437 0 0 1-.202-.318c-.064-.106-.096-.213-.128-.319a1.916 1.916 0 0 1-.106-.638 1.635 1.635 0 0 1 0-.319 1.65 1.65 0 0 1 .085-.33c.037-.11.083-.216.138-.318.061-.114.128-.224.202-.33l.276-.319c.274-.276.58-.515.915-.712a8.22 8.22 0 0 1 3.434-1.063 8.78 8.78 0 0 1 .946 0 7.549 7.549 0 0 1 5.316 1.775c.098.101.19.207.276.319.078.104.145.214.202.33.059.102.108.208.15.319.034.108.062.218.084.33-.032.095-.021.201-.021.286Z" fill="#EBEFFF"/><path d="M36.456 37.69c.002.217-.034.432-.106.637a2 2 0 0 1-.128.32 2.94 2.94 0 0 1-.202.318 2.49 2.49 0 0 1-.255.33l-.18.18-.266.224-.351.255-.468.276c-.2.103-.407.195-.617.277-.275.12-.559.215-.85.287a9.281 9.281 0 0 1-1.584.298 8.528 8.528 0 0 1-1.063.063h-.043a9.67 9.67 0 0 1-1.116-.063 8.911 8.911 0 0 1-1.584-.298 5.449 5.449 0 0 1-.862-.287h-.063l-.553-.255c-.16-.096-.32-.181-.457-.277l-.362-.255-.255-.223-.18-.181a2.574 2.574 0 0 1-.267-.33 1.952 1.952 0 0 1-.191-.319 2.066 2.066 0 0 1-.244-.956 1.635 1.635 0 0 1 0-.32 1.88 1.88 0 0 1 .085-.329c.032-.112.078-.219.138-.319a1.77 1.77 0 0 1 .202-.319 3.9 3.9 0 0 1 1.17-1.063 7.303 7.303 0 0 1 2.19-.861 10.749 10.749 0 0 1 2.317-.255c2.573 0 4.774.893 5.688 2.126.075.106.138.223.202.33.064.106.096.212.138.319.035.107.06.217.075.33.026.11.04.225.042.34Z" fill="#E9EEFF"/><path d="M36.563 37.03c.002.22-.034.44-.107.649-.033.11-.076.216-.127.319l-.192.319a2.35 2.35 0 0 1-.266.319c-.102.114-.212.22-.33.318-.08.074-.165.141-.254.202l-.351.245a3.29 3.29 0 0 1-.468.255 5.41 5.41 0 0 1-.617.276 9.279 9.279 0 0 1-.871.288 9.68 9.68 0 0 1-1.648.287h-1.989a9.99 9.99 0 0 1-1.658-.287 9.271 9.271 0 0 1-.872-.288l-.191-.074-.425-.202a3.193 3.193 0 0 1-.457-.255 2.923 2.923 0 0 1-.351-.245l-.266-.202c-.117-.106-.234-.212-.33-.319a3.372 3.372 0 0 1-.255-.319 2.53 2.53 0 0 1-.191-.318c0-.107-.096-.224-.139-.33a2.126 2.126 0 0 1-.095-.638v-.33c.047-.223.119-.44.212-.648a3.763 3.763 0 0 1 1.35-1.371c.339-.205.695-.38 1.064-.521a9.737 9.737 0 0 1 3.615-.649c2.849 0 5.252 1.063 5.996 2.541.052.107.099.217.138.33.035.103.06.21.075.319.01.11.01.22 0 .33Z" fill="#E6ECFF"/><path d="M36.658 36.392c0 .216-.031.432-.096.638a1.796 1.796 0 0 1-.138.33 4.835 4.835 0 0 1-.18.319 3.372 3.372 0 0 1-.256.319 3.184 3.184 0 0 1-.33.33l-.414.318-.34.224-.468.244-.617.266c-.287.106-.584.191-.893.276a9.8 9.8 0 0 1-1.743.277h-1.701a9.953 9.953 0 0 1-1.744-.277 9.546 9.546 0 0 1-.882-.276l-.34-.138-.288-.128c-.159-.074-.308-.16-.457-.244l-.35-.224-.394-.34-.33-.33-.244-.319a2.523 2.523 0 0 1-.191-.318 2 2 0 0 1-.128-.32 1.923 1.923 0 0 1-.106-.648 2.13 2.13 0 0 1 .095-.649 3.307 3.307 0 0 1 1.234-1.552l.34-.223a9.09 9.09 0 0 1 4.667-1.159c3.115 0 5.699 1.265 6.241 2.934.031.109.056.219.074.33.006.114-.001.228-.02.34Z" fill="#E4EBFF"/><path d="M36.722 35.744a1.87 1.87 0 0 1-.106.638 2 2 0 0 1-.128.319c-.053.106-.117.212-.18.319a2.49 2.49 0 0 1-.256.33 6.843 6.843 0 0 1-.319.318 3.192 3.192 0 0 1-.404.319 4.135 4.135 0 0 1-.51.319c-.149.085-.298.17-.457.245l-.638.255a9.63 9.63 0 0 1-.882.266c-.612.144-1.234.236-1.861.276h-1.34a11.069 11.069 0 0 1-1.85-.276 8.92 8.92 0 0 1-.893-.266l-.489-.202h-.138l-.468-.245a4.12 4.12 0 0 1-.51-.319c-.138-.096-.276-.212-.404-.319a3.007 3.007 0 0 1-.563-.648 1.588 1.588 0 0 1-.192-.32 1.67 1.67 0 0 1-.128-.318 1.927 1.927 0 0 1-.106-.649 3.029 3.029 0 0 1 0-.319 2.807 2.807 0 0 1 .915-1.573 8.335 8.335 0 0 1 5.496-1.744c3.37 0 6.135 1.467 6.38 3.328.017.087.028.176.031.266Z" fill="#E1E9FF"/><path d="M36.87 35.117a2.29 2.29 0 0 1-.233.978 4.812 4.812 0 0 1-.18.319l-.245.319-.32.319a2.862 2.862 0 0 1-.393.319c-.16.118-.327.228-.5.33a5.909 5.909 0 0 1-.637.318 6.392 6.392 0 0 1-.628.245 7.66 7.66 0 0 1-.914.265c-.67.157-1.354.246-2.041.266h-.914a10.33 10.33 0 0 1-2.042-.266 7.45 7.45 0 0 1-.903-.265 5.503 5.503 0 0 1-.628-.245 6.876 6.876 0 0 1-1.127-.638 4.181 4.181 0 0 1-.404-.33l-.308-.318a2.131 2.131 0 0 1-.244-.32 2.129 2.129 0 0 1-.319-.648 2.675 2.675 0 0 1-.107-.638 2.33 2.33 0 0 1 .436-1.318l.106-.149c1.01-1.308 3.317-2.222 6.007-2.222 3.605-.043 6.539 1.606 6.539 3.679Z" fill="#231889"/><path d="M36.977 34.436a2.3 2.3 0 0 1-.106.659 1.767 1.767 0 0 1-.128.33c0 .106-.117.212-.18.319a3.188 3.188 0 0 1-.245.319 2.94 2.94 0 0 1-.308.319 4.033 4.033 0 0 1-.394.33 4.304 4.304 0 0 1-.489.318c-.2.12-.405.23-.616.33-.267.12-.54.227-.819.319-.298.095-.595.18-.914.255-.744.163-1.503.249-2.265.255h-.17a11.197 11.197 0 0 1-2.445-.266 10.34 10.34 0 0 1-.915-.255 7.567 7.567 0 0 1-.786-.308 8.37 8.37 0 0 1-.617-.33 5.539 5.539 0 0 1-.489-.319l-.383-.319a3.093 3.093 0 0 1-.319-.33l-.244-.318c-.064-.107-.128-.213-.181-.32l-.128-.318a2.319 2.319 0 0 1 .022-1.393c.03-.084.066-.165.106-.245.755-1.605 3.338-2.785 6.38-2.785 3.656 0 6.633 1.68 6.633 3.753Z" fill="#B8C9CF"/><path d="M30.343 43.314v.574c.007.124.007.248 0 .372v4.391a10.345 10.345 0 0 1-4.391-.915 5.391 5.391 0 0 1-1.605-1.137c-.096-.117-.192-.213-.266-.32a3.418 3.418 0 0 1-.202-.329c-.064-.117-.096-.212-.138-.319a1.206 1.206 0 0 1-.096-.319 1.812 1.812 0 0 1-.053-.319v-.329a2.31 2.31 0 0 1 .149-.649c.023-.218.073-.432.149-.638.012-.223.063-.442.148-.648.02-.215.07-.426.15-.627.014-.222.06-.44.137-.649.022-.22.076-.434.16-.638a1.67 1.67 0 0 1 .127-.606 2.225 2.225 0 0 1-.085-.585 1.798 1.798 0 0 1-.106-.616 2.222 2.222 0 0 1-.106-.638 1.828 1.828 0 0 1-.107-.638 2.122 2.122 0 0 1-.095-.638 1.921 1.921 0 0 1-.107-.648 2.243 2.243 0 0 1-.106-.649 2.501 2.501 0 0 1-.106-.627 1.542 1.542 0 0 1-.074-.649 1.392 1.392 0 0 1 0-.361 2.04 2.04 0 0 1 .095-.34h.415a.966.966 0 0 1 .17 0c.134-.011.27-.011.404 0l.83.127 1.062.202c.447.085.893.202 1.308.308h.202c.397.12.784.27 1.159.447.373.151.71.38.989.67a.955.955 0 0 1 .265.702v4.582a.432.432 0 0 1 0 .117v.457a.56.56 0 0 0 0 .138v1.17c-.276.34-.276.479-.276.575Z" fill="#E8EFEF" style="mix-blend-mode:multiply"/><path d="M27.154 42.952c-.018.08-.043.159-.075.234l-.128.436c0 .053 0 .106-.053.18-.053.075-.085.31-.138.5a.321.321 0 0 0 0 .107c-.053.18-.106.361-.16.574-.053.191-.095.393-.148.606v.053c0 .213-.096.447-.15.68-.052.234-.095.458-.137.692-.043.233-.085.457-.139.701a5.39 5.39 0 0 1-1.605-1.137c-.096-.117-.191-.213-.266-.32a3.418 3.418 0 0 1-.202-.329c-.063-.117-.095-.212-.138-.319a1.214 1.214 0 0 1-.096-.319 1.814 1.814 0 0 1-.053-.319v-.33c.018-.222.068-.44.15-.648.022-.218.072-.432.148-.638a1.99 1.99 0 0 1 .149-.648c.02-.215.07-.426.149-.627.014-.222.06-.44.138-.65.021-.218.075-.433.16-.637a1.67 1.67 0 0 1 .127-.606 2.22 2.22 0 0 1-.085-.585 1.796 1.796 0 0 1-.107-.616 2.226 2.226 0 0 1-.106-.638 1.828 1.828 0 0 1-.106-.638 2.125 2.125 0 0 1-.096-.638 1.924 1.924 0 0 1-.106-.649 2.243 2.243 0 0 1-.106-.648 2.497 2.497 0 0 1-.107-.627 1.941 1.941 0 0 1-.074-.34 1.558 1.558 0 0 1 0-.309 1.393 1.393 0 0 1 0-.361c.022-.116.054-.23.096-.34l.095-.213.415.16h.117l.361.17c.18.099.35.213.51.34.159.133.28.305.351.5a.533.533 0 0 1 0 .137c0 .15.064.32.096.51.032.192.085.426.128.66.042.234.074.436.117.67a.203.203 0 0 1 0 .085c0 .191.074.383.095.585 0 .212.064.404.107.616 0 .16.053.33.085.49.032.159 0 .084 0 .127l.063.372v.5c.016.121.037.242.064.361v.16c0 .159.053.308.075.467 0 .181.064.362.085.521 0 .16.053.33.074.468v.149c0 .138 0 .266.075.383v.234c.01.1.027.2.053.297.234.287.297.404.297.404Z" fill="#F2F2F2" style="mix-blend-mode:multiply"/><path d="M36.977 34.436c0 2.073-2.977 3.764-6.655 3.764-3.679 0-6.645-1.69-6.645-3.764 0-2.073 2.977-3.753 6.645-3.753 3.668 0 6.655 1.68 6.655 3.753Z" fill="url(#f)"/><path d="M36.35 34.383c0 1.85-2.7 3.349-6.028 3.349-3.328 0-6.028-1.5-6.028-3.35 0-1.849 2.7-3.348 6.028-3.348 3.328 0 6.028 1.499 6.028 3.349Z" fill="#231889"/><path d="M36.35 34.383c0-1.85-2.7-3.349-6.028-3.349a10.143 10.143 0 0 0-2.477.298 48.26 48.26 0 0 0 .914 6.283c.517.077 1.04.116 1.563.117 3.327 0 6.028-1.5 6.028-3.349Z" fill="#171552"/><path d="M23.294 41.719c0 2.073-2.977 3.764-6.655 3.764-3.68 0-6.645-1.691-6.645-3.764 0-2.073 2.976-3.753 6.645-3.753 3.667 0 6.655 1.68 6.655 3.753Z" fill="#DEE4E6"/><path d="M23.4 52.127a.71.71 0 0 1 0 .139c.017.105.017.213 0 .319a1.31 1.31 0 0 1-.095.318 1.843 1.843 0 0 1-.149.33c-.056.114-.12.225-.191.33l-.266.319a8.25 8.25 0 0 1-5.71 2.052h-.286a10.197 10.197 0 0 1-4.402-.915 5.39 5.39 0 0 1-1.605-1.137l-.266-.32c-.075-.116-.138-.212-.202-.329a2.885 2.885 0 0 1-.138-.319 1.82 1.82 0 0 1-.096-.319c0-.106 0-.223-.053-.319s0-.106 0-.149v-.18a2.27 2.27 0 0 1 .16-.649c.01-.079.024-.157.042-.234.061-.112.132-.22.212-.319.074-.118.163-.225.266-.319.1-.12.21-.23.33-.33l.415-.318c.17-.117.348-.224.531-.32.147-.088.3-.166.457-.233l.617-.245.18-.074.702-.202a13.172 13.172 0 0 1 2.754-.33h.074c.356 0 .71.02 1.064.064a9.806 9.806 0 0 1 1.626.266c.297.073.588.165.872.276.223.075.425.16.627.245.157.07.31.147.457.234.192.095.362.212.532.319l.415.319c.117.106.234.212.34.33.093.099.179.205.255.318.077.1.145.207.202.32.064.096.117.2.16.308.077.208.123.426.138.648.012.035.023.07.032.106Z" fill="#DEE6FF"/><path d="M23.252 51.49a.817.817 0 0 1 0 .159 1.7 1.7 0 0 1 0 .319c0 .106-.064.212-.107.318a1.305 1.305 0 0 1-.148.33 2.74 2.74 0 0 1-.203.32l-.276.318c-.105.114-.22.221-.34.319a8.666 8.666 0 0 1-5.242 1.648h-.244a9.961 9.961 0 0 1-4.253-.883 5.315 5.315 0 0 1-1.222-.765 2.412 2.412 0 0 1-.34-.319 2.66 2.66 0 0 1-.478-.638 2.233 2.233 0 0 1-.16-.319 1.69 1.69 0 0 1-.096-.33 1.674 1.674 0 0 1-.053-.318v-.33a2.65 2.65 0 0 1 .148-.638c0-.106.096-.212.15-.319a3.52 3.52 0 0 1 .478-.638l.35-.319c.131-.12.274-.227.426-.319l.35-.223c.156-.09.315-.172.48-.244l.626-.266h.064c.271-.1.548-.18.83-.245a10.514 10.514 0 0 1 1.7-.287h1.106c.301-.016.603-.016.904 0 .574.05 1.143.145 1.701.287.3.07.594.159.882.266.224.085.436.17.638.266l.479.244.35.224c.151.094.293.2.426.319a3.3 3.3 0 0 1 .34.319c.098.1.19.207.276.319l.213.318c.053.107.106.213.149.32.076.204.123.42.138.637-.01.05-.024.1-.042.15Z" fill="#E1E7FF"/><path d="M23.103 50.83c.005.06.005.12 0 .181a1.7 1.7 0 0 1 0 .319c0 .106-.064.213-.107.319a1.782 1.782 0 0 1-.159.319 2.372 2.372 0 0 1-.213.319 2.785 2.785 0 0 1-.287.33 5.496 5.496 0 0 1-.361.318c-.14.118-.29.225-.447.32a8.909 8.909 0 0 1-4.635 1.222h-.202a9.877 9.877 0 0 1-4.115-.84 4.558 4.558 0 0 1-.712-.393 4.956 4.956 0 0 1-.457-.32l-.351-.318a3.89 3.89 0 0 1-.287-.32 2.127 2.127 0 0 1-.213-.329 2.234 2.234 0 0 1-.16-.319c0-.106-.074-.212-.106-.319-.031-.106 0-.212 0-.319v-.33c.017-.218.067-.434.15-.637 0-.107.095-.213.148-.32.053-.105.138-.212.213-.318.084-.113.176-.22.276-.319.107-.117.224-.224.351-.319l.266-.213.372-.233c.155-.094.315-.18.478-.256.19-.096.386-.18.585-.255h.053a8.12 8.12 0 0 1 .904-.276 10.503 10.503 0 0 1 1.807-.298h1.712a10.5 10.5 0 0 1 1.807.298c.307.074.609.167.904.276.224.085.436.18.638.277.202.095.33.17.479.255l.372.234.265.212c.125.098.242.205.351.32a2.716 2.716 0 0 1 .479.637c.177.29.283.618.308.957l-.106.138Z" fill="#E3E8FF"/><path d="M22.954 50.182v.18a3.048 3.048 0 0 1-.064.33c-.026.11-.061.216-.106.319-.045.11-.098.217-.16.319a2.9 2.9 0 0 1-.52.638c-.115.12-.24.23-.373.33l-.468.318-.606.32a9.568 9.568 0 0 1-3.848.807h-.17a9.738 9.738 0 0 1-3.955-.786h-.053l-.596-.32a5.915 5.915 0 0 1-.468-.318 2.827 2.827 0 0 1-.372-.33 2.898 2.898 0 0 1-.521-.638 2.234 2.234 0 0 1-.16-.319 1.877 1.877 0 0 1-.105-.319 1.813 1.813 0 0 1-.064-.33v-.382a2.23 2.23 0 0 1 .149-.638c0-.106.095-.212.148-.319.063-.114.137-.221.224-.319a4.12 4.12 0 0 1 .276-.33l.192-.17a2.93 2.93 0 0 1 .276-.233l.383-.255c.157-.1.32-.189.489-.266a3.59 3.59 0 0 1 .468-.213l.17-.074c.302-.113.611-.21.925-.287a9.745 9.745 0 0 1 1.903-.298h1.414a9.73 9.73 0 0 1 1.903.298c.31.076.616.172.914.287.223.08.44.176.649.287.167.08.33.168.489.266l.372.255.287.223.191.18c.098.106.19.216.277.33.08.096.151.2.212.308.064.105.117.215.16.33.082.204.132.419.149.638l-.011.18Z" fill="#E5EAFF"/><path d="M22.805 49.533a1.23 1.23 0 0 1 0 .192 1.7 1.7 0 0 1 0 .319c-.026.11-.065.217-.117.319a1.932 1.932 0 0 1-.17.33c-.067.113-.146.22-.234.318a4.06 4.06 0 0 1-.298.319 3.948 3.948 0 0 1-.393.319 3.87 3.87 0 0 1-.49.319 7.407 7.407 0 0 1-.648.33 8.309 8.309 0 0 1-.882.318c-.892.258-1.815.39-2.743.394h-.128a10.05 10.05 0 0 1-2.86-.394 9.536 9.536 0 0 1-.882-.319 5.39 5.39 0 0 1-.606-.308 4.937 4.937 0 0 1-.5-.319 4.257 4.257 0 0 1-.691-.638l-.234-.319a2.238 2.238 0 0 1-.276-.648 1.69 1.69 0 0 1-.064-.32v-.318c.013-.223.063-.442.149-.649.045-.11.098-.217.16-.319.063-.11.134-.217.212-.319l.117-.138.213-.223.287-.245c.121-.1.249-.192.382-.276l.49-.287.35-.17.298-.117c.306-.118.618-.218.936-.298a10.035 10.035 0 0 1 2.126-.308h.904c.717.026 1.43.13 2.126.308a8.04 8.04 0 0 1 1.584.585l.5.287c.138.085.255.18.383.276l.287.245.202.223.127.138.213.32c.061.101.115.208.16.318.08.208.13.427.148.649l-.138.106Z" fill="#E8EBFF"/><path d="M22.656 48.874c.006.067.006.135 0 .202-.011.11-.03.22-.053.33a2 2 0 0 1-.128.318 2.336 2.336 0 0 1-.414.638 3.113 3.113 0 0 1-.32.33 4.849 4.849 0 0 1-.925.638 5.91 5.91 0 0 1-.69.319 7.16 7.16 0 0 1-.978.319c-.79.198-1.6.302-2.414.308h-.085a9.849 9.849 0 0 1-2.488-.308 6.727 6.727 0 0 1-.988-.32l-.139-.052a6.435 6.435 0 0 1-.542-.266 3.583 3.583 0 0 1-.52-.32 4.449 4.449 0 0 1-.405-.318 3.102 3.102 0 0 1-.319-.33 1.416 1.416 0 0 1-.244-.319 2.425 2.425 0 0 1-.18-.319c0-.106-.086-.212-.118-.319-.032-.106 0-.212-.064-.319-.063-.106 0-.138 0-.212v-.117c.012-.22.062-.436.15-.638.04-.112.093-.22.159-.319a.236.236 0 0 1 .053-.085c.04-.071.086-.139.138-.202.075-.085.138-.17.223-.255.095-.098.194-.19.298-.277l.383-.287c.161-.107.328-.207.5-.297l.233-.117.426-.181c.309-.122.624-.225.946-.308a9.87 9.87 0 0 1 2.498-.309h.192c.782.011 1.56.115 2.317.309a8.049 8.049 0 0 1 1.606.606c.173.088.34.187.5.297l.382.287.298.277.223.255c0 .064.096.128.138.202a.37.37 0 0 1 .053.085c.062.102.116.209.16.319.087.202.137.418.149.638l-.01.117Z" fill="#EAEDFF"/><path d="M22.507 48.225a1.425 1.425 0 0 1-.064.543c0 .106-.074.212-.117.319a2.71 2.71 0 0 1-.19.319l-.245.319a2.406 2.406 0 0 1-.34.319c-.131.12-.274.227-.426.318-.17.117-.35.224-.542.33-.242.12-.49.225-.744.319a9.414 9.414 0 0 1-3.147.531 9.711 9.711 0 0 1-2.052-.212 8.269 8.269 0 0 1-1.127-.319l-.245-.096-.5-.223a6.872 6.872 0 0 1-.552-.33 3.192 3.192 0 0 1-.425-.319 3.094 3.094 0 0 1-.33-.319 2.119 2.119 0 0 1-.245-.318 2.513 2.513 0 0 1-.191-.32 1.937 1.937 0 0 1-.117-.318 1.452 1.452 0 0 1-.064-.542v-.107c.01-.207.053-.412.128-.606l.074-.17a1.68 1.68 0 0 1 .16-.255c.065-.103.14-.199.223-.287.091-.107.19-.207.298-.298a4.442 4.442 0 0 1 .882-.617l.117-.063c.17-.096.362-.17.553-.255a9.385 9.385 0 0 1 3.402-.617h.223c.754.016 1.503.12 2.233.308.325.082.645.185.957.309a6.416 6.416 0 0 1 1.17.627c.134.094.261.197.382.308.197.173.372.37.521.585.06.085.113.173.16.266 0 .053.053.106.074.17.083.191.13.397.138.606l-.032.095Z" fill="#ECEEFF"/><path d="M22.359 47.577c0 1.776-2.552 3.19-5.72 3.19-3.168 0-5.72-1.457-5.72-3.19 0-1.733 2.562-3.19 5.72-3.19 3.157 0 5.72 1.361 5.72 3.19Z" fill="#CAD2D6"/><path d="M22.359 47.577c0 1.776-2.552 3.19-5.72 3.19-3.168 0-5.72-1.457-5.72-3.19 0-1.733 2.562-3.19 5.72-3.19 3.157 0 5.72 1.361 5.72 3.19Z" fill="#231889"/><path d="M22.465 46.897c0 .198-.033.396-.096.584a2.113 2.113 0 0 1-.202.436 1.602 1.602 0 0 1-.191.277 3.506 3.506 0 0 1-.266.297l-.35.309c-.15.106-.298.212-.458.308-.192.115-.39.218-.595.308a8.22 8.22 0 0 1-.819.32 8.17 8.17 0 0 1-1.393.308c-.471.068-.947.103-1.424.106a10.79 10.79 0 0 1-1.436-.106 8.062 8.062 0 0 1-1.392-.309l-.49-.17-.329-.149a4.485 4.485 0 0 1-.595-.308 4.909 4.909 0 0 1-.457-.308 3.304 3.304 0 0 1-.351-.309l-.266-.287-.202-.287a1.996 1.996 0 0 1-.128-.266 1.184 1.184 0 0 1-.074-.17 2.225 2.225 0 0 1-.085-.584 1.635 1.635 0 0 1 0-.32c.011-.11.04-.217.085-.318.043-.113.093-.223.149-.33l.212-.319c.088-.12.188-.23.298-.33a3.76 3.76 0 0 1 .372-.318 3.74 3.74 0 0 1 .479-.32 8.505 8.505 0 0 1 4.156-.988h.309a8.217 8.217 0 0 1 3.88 1c.173.09.337.197.49.318.138.106.255.213.372.32.104.101.2.212.287.329a2.9 2.9 0 0 1 .223.319c.056.107.106.217.149.33.036.103.064.21.085.318.027.101.045.204.053.309Z" fill="#F1F3FF"/><path d="M22.571 46.248c.003.214-.033.426-.106.627a1.797 1.797 0 0 1-.139.33v.085l-.127.202a3.736 3.736 0 0 1-.479.52c-.11.105-.227.2-.35.288a5.03 5.03 0 0 1-.457.297 5.308 5.308 0 0 1-.607.298 5.831 5.831 0 0 1-.829.308 8.82 8.82 0 0 1-1.456.309 10.228 10.228 0 0 1-2.626 0 8.394 8.394 0 0 1-1.457-.309 5.443 5.443 0 0 1-.627-.223l-.213-.085a4.446 4.446 0 0 1-.595-.298 3.785 3.785 0 0 1-.457-.297c-.128-.085-.245-.192-.362-.287a3.273 3.273 0 0 1-.266-.277 2.241 2.241 0 0 1-.202-.244l-.127-.213v-.074a1.456 1.456 0 0 1-.139-.33 1.809 1.809 0 0 1-.106-.627 1.65 1.65 0 0 1 0-.33c.019-.108.047-.215.085-.319.039-.114.089-.225.15-.33a2.66 2.66 0 0 1 .201-.318c.09-.112.186-.218.287-.32.113-.117.234-.227.362-.329.173-.131.354-.252.542-.361a8.654 8.654 0 0 1 4.253-1.064 8.048 8.048 0 0 1 4.784 1.393l.361.33c.102.1.198.207.287.319.075.106.139.212.202.319.056.107.106.217.15.33 0 .106.063.212.084.318.007.121 0 .242-.021.362Z" fill="#EFF1FF"/><path d="M22.667 45.61c0 .213-.033.424-.096.627a1.797 1.797 0 0 1-.138.33c-.056.11-.12.218-.191.319l-.117.149-.192.212-.265.256-.362.265a4.785 4.785 0 0 1-1.074.575 6.515 6.515 0 0 1-.84.297 9.259 9.259 0 0 1-1.51.309c-.382 0-.775.063-1.19.074h-.053a11.819 11.819 0 0 1-1.18-.085 9.258 9.258 0 0 1-2.286-.574h-.075a5.323 5.323 0 0 1-.606-.287 4.787 4.787 0 0 1-.457-.287l-.361-.266-.266-.255a1.724 1.724 0 0 1-.191-.213l-.117-.149a2.536 2.536 0 0 1-.192-.319 2.056 2.056 0 0 1-.244-.957 1.635 1.635 0 0 1 0-.319c.017-.112.045-.222.085-.33 0-.105.085-.212.138-.318.06-.116.132-.227.213-.33.082-.111.17-.218.266-.319.272-.272.58-.508.914-.701a8.069 8.069 0 0 1 3.445-1.063c.311-.017.624-.017.935 0a7.548 7.548 0 0 1 5.316 1.775c.098.101.19.207.277.319.076.106.147.216.212.33.053.106.096.212.138.319.043.106.064.223.085.33.022.105-.02.18-.02.286Z" fill="#EBEFFF"/><path d="M22.773 44.972c.003.218-.033.434-.106.638-.034.11-.076.217-.128.32a2.042 2.042 0 0 1-.191.329l-.266.319-.18.18-.267.224a2.121 2.121 0 0 1-.35.255l-.468.276a8.02 8.02 0 0 1-.606.277c-.28.116-.568.216-.861.297a9.288 9.288 0 0 1-1.584.287 8.49 8.49 0 0 1-1.064.064h-.074c-.373 0-.746-.02-1.116-.064a9.288 9.288 0 0 1-1.585-.287 7.455 7.455 0 0 1-.86-.297h-.065l-.542-.255a4.925 4.925 0 0 1-.468-.277l-.35-.255a2.934 2.934 0 0 1-.266-.223l-.18-.181a3.536 3.536 0 0 1-.267-.319 2.04 2.04 0 0 1-.191-.33 4.088 4.088 0 0 1-.138-.319 2.124 2.124 0 0 1-.107-.638 1.634 1.634 0 0 1 0-.318 2.153 2.153 0 0 1 .224-.649 2.66 2.66 0 0 1 .202-.319 4.052 4.052 0 0 1 1.17-1.063 7.303 7.303 0 0 1 2.19-.861 10.741 10.741 0 0 1 2.317-.255c2.573 0 4.774.893 5.688 2.126.077.1.145.206.202.319.053.106.096.212.138.319.043.106.064.223.085.33.028.115.05.232.064.35Z" fill="#E9EEFF"/><path d="M22.9 44.313c.003.22-.033.44-.105.649-.034.11-.076.216-.128.319-.053.106-.128.212-.191.319a3.343 3.343 0 0 1-.256.318 4.951 4.951 0 0 1-.34.32 2.73 2.73 0 0 1-.255.212c-.106.075-.223.16-.35.234a3.29 3.29 0 0 1-.469.255c-.198.107-.404.2-.616.276-.277.107-.564.202-.861.288a9.98 9.98 0 0 1-1.659.287h-2.01a9.981 9.981 0 0 1-1.658-.287 10.601 10.601 0 0 1-.872-.288l-.191-.074a3.77 3.77 0 0 1-.415-.202 3.842 3.842 0 0 1-.457-.255l-.35-.234-.267-.213c-.116-.095-.223-.212-.33-.319a3.343 3.343 0 0 1-.254-.319 2.536 2.536 0 0 1-.192-.318c-.053-.107-.095-.224-.138-.33a2.13 2.13 0 0 1-.096-.638v-.33c.019-.108.047-.215.085-.319.03-.115.077-.226.139-.33a3.647 3.647 0 0 1 1.34-1.37c.338-.205.693-.38 1.063-.521a9.739 9.739 0 0 1 3.614-.65c2.85 0 5.252 1.064 5.997 2.542.056.105.103.215.138.33a1.735 1.735 0 0 1 .085.648Z" fill="#E6ECFF"/><path d="M22.986 43.675a2.128 2.128 0 0 1-.107.638 1.77 1.77 0 0 1-.127.33c-.064.106-.117.212-.192.319a3.372 3.372 0 0 1-.255.319c-.099.12-.21.23-.33.33a6.682 6.682 0 0 1-.403.318l-.351.223-.468.245-.617.266c-.287.106-.574.191-.882.276a10.07 10.07 0 0 1-1.754.276h-1.712a10.07 10.07 0 0 1-1.754-.276 9.539 9.539 0 0 1-.883-.276l-.34-.138-.276-.128a4.81 4.81 0 0 1-.468-.245l-.351-.223-.415-.319a3.102 3.102 0 0 1-.319-.33 2.402 2.402 0 0 1-.255-.318 2.53 2.53 0 0 1-.191-.32 2.242 2.242 0 0 1-.234-.968v-.318a1.72 1.72 0 0 1 .085-.33 3.189 3.189 0 0 1 1.244-1.53l.34-.224a9.09 9.09 0 0 1 4.668-1.158c3.115 0 5.698 1.265 6.24 2.934.036.107.061.217.075.33.02.097.03.197.032.297Z" fill="#E4EBFF"/><path d="M23.081 43.026c.001.217-.031.432-.095.638-.04.11-.086.216-.138.32a1.361 1.361 0 0 1-.181.318 3.761 3.761 0 0 1-.245.33l-.319.319a3.067 3.067 0 0 1-.414.319 5.997 5.997 0 0 1-.51.33l-.458.233c-.202.085-.414.181-.627.256-.213.074-.585.19-.893.265-.608.145-1.227.237-1.85.277h-1.414a11.06 11.06 0 0 1-1.85-.277c-.308-.074-.606-.17-.893-.265l-.49-.192-.137-.064-.457-.234a4.68 4.68 0 0 1-.51-.33 3.072 3.072 0 0 1-.415-.318c-.107-.106-.224-.213-.32-.32a3.78 3.78 0 0 1-.244-.329 1.587 1.587 0 0 1-.191-.319 1.431 1.431 0 0 1-.128-.319 2.246 2.246 0 0 1-.106-.648 1.635 1.635 0 0 1 0-.32 2.733 2.733 0 0 1 .904-1.573 8.283 8.283 0 0 1 5.496-1.754c3.37 0 6.135 1.467 6.38 3.328.046.106.082.216.105.33Z" fill="#E1E9FF"/><path d="M23.188 42.378c-.005.34-.085.673-.234.978-.052.11-.113.218-.18.32l-.245.318a3.01 3.01 0 0 1-.32.319 4.033 4.033 0 0 1-.393.33l-.5.319a6.106 6.106 0 0 1-.637.319 6.391 6.391 0 0 1-.627.244 8.086 8.086 0 0 1-.904.266 10.4 10.4 0 0 1-2.052.266h-.904a10.4 10.4 0 0 1-2.052-.266 7.45 7.45 0 0 1-.903-.266 5.503 5.503 0 0 1-.628-.244 6.842 6.842 0 0 1-1.127-.638 3.08 3.08 0 0 1-.393-.33 3.2 3.2 0 0 1-.564-.638 2.524 2.524 0 0 1-.19-.319l-.129-.33a2.213 2.213 0 0 1-.095-.637 2.35 2.35 0 0 1 .425-1.33l.106-.148c1.064-1.308 3.318-2.222 6.007-2.222 3.604-.01 6.539 1.637 6.539 3.689Z" fill="#231889"/><path d="M23.294 41.719a2.256 2.256 0 0 1-.106.659 1.76 1.76 0 0 1-.128.33c-.052.11-.112.217-.18.319a2.3 2.3 0 0 1-.245.319 2.994 2.994 0 0 1-.308.33c-.125.113-.256.22-.394.318a3.74 3.74 0 0 1-.478.319 8.678 8.678 0 0 1-.627.33c-.267.12-.54.227-.819.319-.287.095-.595.18-.914.255-.744.163-1.503.249-2.265.255h-.191a11.197 11.197 0 0 1-2.446-.266 10.35 10.35 0 0 1-.914-.255 5.764 5.764 0 0 1-.787-.308 8.426 8.426 0 0 1-.616-.33 4.831 4.831 0 0 1-.49-.319l-.382-.319a2.246 2.246 0 0 1-.309-.33 1.707 1.707 0 0 1-.244-.319 1.616 1.616 0 0 1-.18-.318 2.296 2.296 0 0 1-.235-.99c0-.246.044-.49.128-.722.023-.085.055-.167.096-.245.755-1.605 3.349-2.785 6.379-2.785 3.678 0 6.655 1.68 6.655 3.753Z" fill="#B8C9CF"/><path d="M16.65 50.596v.574c.006.124.006.248 0 .372a1.23 1.23 0 0 1 0 .192v4.189h-.288a10.197 10.197 0 0 1-4.401-.915 5.39 5.39 0 0 1-1.606-1.137l-.265-.32c-.075-.116-.139-.212-.202-.329a2.877 2.877 0 0 1-.139-.319 1.82 1.82 0 0 1-.095-.319c0-.106 0-.223-.053-.319-.054-.095 0-.106 0-.149v-.18a2.31 2.31 0 0 1 .159-.649c.014-.218.06-.433.138-.638.017-.219.067-.434.15-.638a2.27 2.27 0 0 1 .148-.638c.014-.221.06-.44.138-.648a2.23 2.23 0 0 1 .16-.638c.01-.208.052-.412.127-.606a2.22 2.22 0 0 1-.085-.585 1.754 1.754 0 0 1-.106-.616 2.222 2.222 0 0 1-.107-.638 1.828 1.828 0 0 1-.106-.638 2.125 2.125 0 0 1-.096-.638 1.913 1.913 0 0 1-.106-.638 2.232 2.232 0 0 1-.096-.648 2.18 2.18 0 0 1-.116-.639 1.944 1.944 0 0 1-.075-.34 3.008 3.008 0 0 1 0-.308c-.01-.12-.01-.241 0-.361.022-.116.054-.23.096-.34l.414.053a.949.949 0 0 1 .17 0c.139-.011.277-.011.415 0l.83.127 1.063.202c.446.085.893.202 1.307.308l.202.064c.4.12.79.265 1.17.436.368.154.701.382.978.67a.965.965 0 0 1 .266.712v4.689a.432.432 0 0 1 0 .117v.457a.57.57 0 0 0 0 .138v1.17c.01.138.01.265.01.361Z" fill="#E8EFEF" style="mix-blend-mode:multiply"/><path d="m13.428 50.245-.085.234-.128.436a1.65 1.65 0 0 1-.053.181c0 .138-.085.308-.138.5v.106c0 .043-.106.361-.149.574-.053.191-.096.393-.149.606 0 .213-.106.447-.16.68-.052.234-.084.458-.137.692-.054.233-.085.457-.139.701a5.39 5.39 0 0 1-1.605-1.137l-.266-.32c-.074-.116-.138-.212-.202-.329a2.866 2.866 0 0 1-.138-.319 1.819 1.819 0 0 1-.096-.319c0-.106 0-.223-.053-.319-.053-.095 0-.106 0-.149v-.18c.022-.223.075-.442.16-.649.014-.218.06-.433.138-.638.016-.219.066-.434.149-.638.019-.218.069-.433.148-.637.015-.222.061-.44.139-.65.021-.218.075-.433.16-.637.009-.208.052-.412.127-.606a2.22 2.22 0 0 1-.085-.585 1.755 1.755 0 0 1-.107-.616 2.219 2.219 0 0 1-.106-.638 1.826 1.826 0 0 1-.106-.638 2.125 2.125 0 0 1-.096-.638 1.913 1.913 0 0 1-.106-.638 2.23 2.23 0 0 1-.096-.648 2.18 2.18 0 0 1-.117-.638 1.951 1.951 0 0 1-.074-.34 3.048 3.048 0 0 1 0-.309 2.14 2.14 0 0 1 0-.361 2.09 2.09 0 0 1 .095-.34l.096-.213c.149 0 .276.095.415.16h.117l.372.17c.179.099.35.213.51.34.163.128.285.302.351.5a.533.533 0 0 1 0 .137c0 .15.032.32.096.51 0 .203.085.426.127.66.043.234.075.446.117.67v.085c0 .191.064.383.085.584 0 .213.064.404.107.617 0 .16.053.33.085.49.031.159 0 .084 0 .127l.063.372v.5c0 .085 0 .244.064.372v.149c0 .159.053.308.075.467 0 .181.063.362.085.521 0 .17.053.33.074.468v.149c.014.129.036.256.064.383v.244c0 .107 0 .202.053.287l.319.457Z" fill="#F2F2F2" style="mix-blend-mode:multiply"/><path d="M23.294 41.719c0 2.073-2.977 3.764-6.655 3.764-3.68 0-6.645-1.691-6.645-3.764 0-2.073 2.976-3.753 6.645-3.753 3.667 0 6.655 1.68 6.655 3.753Z" fill="url(#g)"/><path d="M22.677 41.666c0 1.85-2.7 3.349-6.038 3.349-3.339 0-6.029-1.5-6.029-3.35s2.722-3.359 6.029-3.359c3.306 0 6.038 1.51 6.038 3.36Z" fill="#231889"/><path d="M22.678 41.666c0-1.85-2.7-3.35-6.04-3.35a10.143 10.143 0 0 0-2.476.298c.166 2.113.472 4.212.914 6.284.517.077 1.04.116 1.563.117 3.338 0 6.039-1.5 6.039-3.35Z" fill="#171552"/><path d="M44.855 74.71v.573l8.017-4.624v-.564l-8.017 4.614Z" fill="#BDCACF"/><path d="m44.855 74.71-11.982-6.933 8.006-4.625 11.993 6.943-8.017 4.614Z" fill="#fff"/><path d="M44.855 74.71v.573l-11.982-6.931v-.575l11.982 6.932Z" fill="#9FA7AB"/><path d="M50.458 68.075a1.734 1.734 0 0 0-1.53.106l-1.861 1.063a5.317 5.317 0 0 0-2.616 4.53v.201l-4.614-2.71 3.455 1.987v-.201a5.251 5.251 0 0 1 2.616-4.519l1.86-1.063a1.744 1.744 0 0 1 1.531-.096l1.16.702Z" fill="url(#h)"/><path d="M43.292 73.061v.202l-3.455-1.999-4.253-2.487-.733-.436v-.192a5.21 5.21 0 0 1 2.594-4.518l1.86-1.063a1.764 1.764 0 0 1 1.776 0l3.774 2.222.68.393c.575.33 1.149.67 1.691.967l.606.362 1.5.872a1.744 1.744 0 0 0-1.532.096l-1.86 1.063a5.251 5.251 0 0 0-2.648 4.518Z" fill="url(#i)"/><path d="M51.607 69.67v.17l-7.102 4.125v-.202a5.317 5.317 0 0 1 2.615-4.53l1.86-1.062a1.734 1.734 0 0 1 1.532-.107 1.722 1.722 0 0 1 1.095 1.606Z" fill="#CBD8E2"/><path d="M49.48 67.427h-.138a1.744 1.744 0 0 0-1.531.095l-1.86 1.063a5.252 5.252 0 0 0-2.616 4.519v.223l-3.498-2.062-4.253-2.467v-.191a5.22 5.22 0 0 1 2.605-4.519l1.871-1.063a1.722 1.722 0 0 1 1.765 0l3.03 1.754.68.394c.575.33 1.149.67 1.691.967l.606.362 1.648.925Z" fill="url(#j)"/><path d="M60.644 65.555v.574l8.016-4.635v-.564l-8.016 4.625Z" fill="#BDCACF"/><path d="m60.644 65.555-11.982-6.932 8.016-4.635L68.66 60.93l-8.016 4.625Z" fill="#fff"/><path d="M60.644 65.555v.574l-11.982-6.943v-.563l11.982 6.932Z" fill="#9FA7AB"/><path d="M66.247 58.879a1.732 1.732 0 0 0-1.531.106l-1.86 1.063a5.23 5.23 0 0 0-2.616 4.518v.202l-4.614-2.69 3.455 2v-.203a5.316 5.316 0 0 1 2.615-4.529l1.86-1.063a1.744 1.744 0 0 1 1.532-.096l1.159.692Z" fill="url(#k)"/><path d="M59.049 63.907v.202l-3.456-1.998-4.253-2.488-.733-.436v-.191a5.21 5.21 0 0 1 2.594-4.519l1.86-1.063a1.744 1.744 0 0 1 1.776 0l3.774 2.211.68.394c.575.33 1.15.67 1.691.967l.606.362 1.5.871a1.742 1.742 0 0 0-1.532.096l-1.86 1.063a5.315 5.315 0 0 0-2.647 4.53Z" fill="url(#l)"/><path d="M67.341 60.505v.128l-7.101 4.125v-.202a5.23 5.23 0 0 1 2.615-4.518l1.86-1.064a1.733 1.733 0 0 1 1.531-.106 1.722 1.722 0 0 1 1.096 1.637Z" fill="#CBD8E2"/><path d="M65.247 58.272a.33.33 0 0 0-.138-.063 1.744 1.744 0 0 0-1.531.095l-1.86 1.063a5.315 5.315 0 0 0-2.616 4.53v.212l-3.455-2.01-4.253-2.466v-.191a5.243 5.243 0 0 1 2.605-4.519l1.871-1.063a1.67 1.67 0 0 1 1.765 0c.106 0 1.467.85 3.03 1.744l.68.393c.575.33 1.149.67 1.69.968l.607.361c.723.436 1.35.798 1.605.946Z" fill="url(#m)"/><path d="M63.119 69.298a3.78 3.78 0 0 1-.67.298 3.653 3.653 0 0 1-.766.18h-2.19l-.223-.053-.202-.074a3.402 3.402 0 0 1-.596-.277l-.106-.063-.106-.064h-.053a.738.738 0 0 0-.107-.085 1.016 1.016 0 0 1-.106-.106c-.107-.1-.2-.215-.276-.34v-.096a1.201 1.201 0 0 1-.15-.553.478.478 0 0 1 0-.128v-42.4c.002.196.057.387.16.554.128.237.31.44.532.595.097.076.2.143.308.202.455.255.952.428 1.467.51.868.146 1.758.08 2.595-.191a3.78 3.78 0 0 0 .67-.298 1.775 1.775 0 0 0 .924-1.063v41.963a1.52 1.52 0 0 1-1.105 1.489Z" fill="url(#n)"/><path d="M55.86 28.62v-.818h10.27v.936a2.722 2.722 0 0 1-1.436 1.69c-.337.193-.693.35-1.063.468a8.506 8.506 0 0 1-3.998.276 6.9 6.9 0 0 1-2.254-.776 4.01 4.01 0 0 1-.467-.319 2.775 2.775 0 0 1-.83-.925c-.074-.191-.223-.531-.223-.531Z" fill="#231889"/><path d="M57.337 25.675a8.069 8.069 0 0 1 7.304 0c2.03 1.18 2.052 3.062.053 4.253a8.016 8.016 0 0 1-7.293 0c-2.02-1.19-2.02-3.104-.064-4.253Z" fill="url(#o)"/><path d="M57.72 27.674v-5.369h6.655v5.37a1.776 1.776 0 0 1-.925 1.063 4.773 4.773 0 0 1-.67.297 5.592 5.592 0 0 1-2.594.181 4.433 4.433 0 0 1-1.467-.51 2.21 2.21 0 0 1-.308-.202 1.722 1.722 0 0 1-.532-.596 1.175 1.175 0 0 1-.16-.234Z" fill="#fff"/><path d="M64.195 24.485a1.885 1.885 0 0 1-.543.595 2.129 2.129 0 0 1-.297.202 4.615 4.615 0 0 1-1.467.51 5.592 5.592 0 0 1-2.595-.18 3.859 3.859 0 0 1-.67-.298 1.756 1.756 0 0 1-.935-1.063v2.126a1.754 1.754 0 0 0 .936 1.064c.208.128.434.229.67.297a5.454 5.454 0 0 0 2.594.192 4.615 4.615 0 0 0 1.467-.51 2.12 2.12 0 0 0 .297-.203c.222-.157.407-.36.543-.595a1.2 1.2 0 0 0 .148-.553v-1.935c-.035.123-.085.24-.148.35Z" fill="url(#p)"/><path d="M64.343 24.591v-2.179 1.797c.023.126.023.256 0 .382Z" fill="#B5B5B5"/><path d="m63.078 11.78.18-.096.171.096-.17.106-.18-.106Zm-4.55-2.52.17-.095.17.095-.17.107-.17-.107Z" fill="#8D8B8E"/><path d="M55.86 21.72v-.829h10.27v.915a2.732 2.732 0 0 1-1.436 1.7 5.42 5.42 0 0 1-1.063.458 8.506 8.506 0 0 1-3.998.276 6.655 6.655 0 0 1-2.254-.776 3.955 3.955 0 0 1-.467-.308 2.806 2.806 0 0 1-.83-.936c-.074-.17-.223-.5-.223-.5Z" fill="#231889"/><path d="M57.337 18.765a8.079 8.079 0 0 1 7.304 0c2.03 1.17 2.052 3.062.053 4.253a8.05 8.05 0 0 1-7.293 0c-2.02-1.212-2.02-3.094-.064-4.253Z" fill="url(#q)"/><path d="M57.72 20.721v-5.316h6.655v5.423a1.753 1.753 0 0 1-.925 1.063c-.213.12-.437.22-.67.297a5.466 5.466 0 0 1-2.594.181 4.253 4.253 0 0 1-1.467-.5 2.22 2.22 0 0 1-.308-.202 1.85 1.85 0 0 1-.532-.606 1.066 1.066 0 0 1-.16-.34Z" fill="#fff"/><path d="M58.645 13.98a5.316 5.316 0 0 1 4.731 0c1.319.766 1.34 1.989 0 2.744a5.23 5.23 0 0 1-4.731 0c-1.276-.744-1.297-1.999 0-2.743Z" fill="#fff"/><path d="M63.163 14.098a4.741 4.741 0 0 0-4.252 0c-1.17.659-1.191 1.722 0 2.37a4.774 4.774 0 0 0 4.252 0c1.138-.659 1.16-1.722 0-2.37Z" fill="#171552"/><path d="M58.932 14.119a4.826 4.826 0 0 1 3.933-.16l-3.232 2.818a3.558 3.558 0 0 1-.712-.287c-1.18-.649-1.159-1.712.01-2.371Z" fill="#231889"/><path d="M63.259 12.205v4.53l.17-.107v-4.519l-.17.096Z" fill="#171552"/><path d="m63.259 12.205-.18-.096v4.519l.18.106v-4.529Z" fill="#231889"/><path d="M58.698 9.686v4.529l.17-.107V9.59l-.17.096Z" fill="#171552"/><path d="m58.698 9.685-.17-.106v4.53l.17.105V9.685Z" fill="#231889"/><path d="M64.311 15.554a1.219 1.219 0 0 1-.116.33c-.136.238-.32.445-.543.606a2.129 2.129 0 0 1-.297.202 4.359 4.359 0 0 1-1.467.5 5.592 5.592 0 0 1-2.595-.17 3.851 3.851 0 0 1-.67-.298 1.754 1.754 0 0 1-.935-1.063v2.126a1.755 1.755 0 0 0 .936 1.063c.21.125.435.225.67.298a5.454 5.454 0 0 0 2.594.191 4.612 4.612 0 0 0 1.467-.51 2.07 2.07 0 0 0 .297-.202c.225-.158.41-.365.543-.606.094-.165.145-.352.148-.542v-1.925h-.032Z" fill="url(#r)"/><path d="M64.195 31.852a1.877 1.877 0 0 1-.543.596 3.6 3.6 0 0 1-.297.213 4.88 4.88 0 0 1-1.467.5 5.59 5.59 0 0 1-2.595-.181 3.851 3.851 0 0 1-.67-.298 1.753 1.753 0 0 1-.935-1.063v.308a1.755 1.755 0 0 0 .936 1.063c.21.125.435.225.67.298.837.268 1.727.33 2.594.18a4.361 4.361 0 0 0 1.467-.5c.105-.061.204-.133.297-.212a1.78 1.78 0 0 0 .543-.595c.094-.17.145-.36.148-.553v-.085a1.537 1.537 0 0 1-.148.33Z" fill="url(#s)"/><path d="M64.195 36.074a2.031 2.031 0 0 1-.543.606 2.129 2.129 0 0 1-.297.202 4.359 4.359 0 0 1-1.467.5 5.454 5.454 0 0 1-2.595-.181 3.19 3.19 0 0 1-.67-.298 1.743 1.743 0 0 1-.935-1.063v.297a1.755 1.755 0 0 0 .936 1.064c.21.124.435.224.67.297a5.592 5.592 0 0 0 2.594.192 4.612 4.612 0 0 0 1.467-.51c.105-.06.204-.127.297-.203.222-.157.407-.36.543-.595a1.2 1.2 0 0 0 .148-.553v-.096a1.36 1.36 0 0 1-.148.34Z" fill="url(#t)"/><path d="M64.195 40.294a2.03 2.03 0 0 1-.543.606 2.12 2.12 0 0 1-.297.202 4.357 4.357 0 0 1-1.467.5 5.454 5.454 0 0 1-2.595-.18 3.19 3.19 0 0 1-.67-.298 1.743 1.743 0 0 1-.935-1.064v.309a1.764 1.764 0 0 0 .936 1.063c.208.129.434.229.67.298a5.592 5.592 0 0 0 2.594.191 4.615 4.615 0 0 0 1.467-.51c.105-.059.204-.127.297-.202.222-.157.407-.36.543-.596a1.2 1.2 0 0 0 .148-.553v-.095a1.221 1.221 0 0 1-.148.33Z" fill="url(#u)"/><path d="M64.195 44.515a1.91 1.91 0 0 1-.543.606 2.13 2.13 0 0 1-.297.202 4.359 4.359 0 0 1-1.467.5 5.592 5.592 0 0 1-2.595-.17 3.851 3.851 0 0 1-.67-.298 1.784 1.784 0 0 1-.935-1.063v.308a1.787 1.787 0 0 0 .936 1.063c.213.12.437.22.67.298.837.269 1.727.33 2.594.18a4.147 4.147 0 0 0 1.467-.51c.105-.058.204-.126.297-.202.222-.157.407-.36.543-.595a1.2 1.2 0 0 0 .148-.553v-.096a1.22 1.22 0 0 1-.148.33Z" fill="url(#v)"/><path d="M64.195 48.747a1.885 1.885 0 0 1-.543.595 2.129 2.129 0 0 1-.297.202 4.36 4.36 0 0 1-1.467.51 5.593 5.593 0 0 1-2.595-.18 3.867 3.867 0 0 1-.67-.298 1.756 1.756 0 0 1-.935-1.063v.308a1.787 1.787 0 0 0 .936 1.063c.213.12.437.22.67.298.837.268 1.727.33 2.594.18a4.147 4.147 0 0 0 1.467-.51c.105-.058.204-.126.297-.202.222-.157.407-.36.543-.595.094-.17.145-.36.148-.553v-.085a1.541 1.541 0 0 1-.148.33Z" fill="url(#w)"/><path d="M64.195 52.967a1.877 1.877 0 0 1-.543.596c-.093.08-.192.15-.297.212a4.602 4.602 0 0 1-1.467.5 5.592 5.592 0 0 1-2.595-.18 3.19 3.19 0 0 1-.67-.298 1.765 1.765 0 0 1-.935-1.063v.297a1.755 1.755 0 0 0 .936 1.063c.21.125.435.225.67.298.837.269 1.727.33 2.594.18a4.359 4.359 0 0 0 1.467-.499 2.07 2.07 0 0 0 .297-.202c.222-.16.407-.367.543-.606.094-.169.145-.359.148-.553v-.085a1.537 1.537 0 0 1-.148.34Z" fill="url(#x)"/><path d="M64.195 57.188a2.031 2.031 0 0 1-.543.606 2.129 2.129 0 0 1-.297.202 4.359 4.359 0 0 1-1.467.5 5.454 5.454 0 0 1-2.595-.18 3.19 3.19 0 0 1-.67-.299 1.743 1.743 0 0 1-.935-1.063v.298a1.755 1.755 0 0 0 .936 1.063c.21.125.435.225.67.298a5.592 5.592 0 0 0 2.594.191 4.612 4.612 0 0 0 1.467-.51c.105-.059.204-.127.297-.202.222-.157.407-.36.543-.596a1.2 1.2 0 0 0 .148-.552v-.096a1.36 1.36 0 0 1-.148.34Z" fill="url(#y)"/><path d="M64.195 61.409c-.136.238-.32.445-.543.606a2.13 2.13 0 0 1-.297.202 4.359 4.359 0 0 1-1.467.5 5.454 5.454 0 0 1-2.595-.181 2.728 2.728 0 0 1-.67-.298 1.743 1.743 0 0 1-.935-1.063v.308a1.764 1.764 0 0 0 .936 1.064c.21.128.435.231.67.308a5.592 5.592 0 0 0 2.594.18 4.371 4.371 0 0 0 1.467-.51c.105-.058.204-.126.297-.202.222-.157.407-.36.543-.595a1.2 1.2 0 0 0 .148-.553v-.096a1.22 1.22 0 0 1-.148.33Z" fill="url(#z)"/><path d="M64.195 65.63c-.133.24-.318.448-.543.606a2.129 2.129 0 0 1-.297.202 4.615 4.615 0 0 1-1.467.51 5.731 5.731 0 0 1-2.595-.18 3.867 3.867 0 0 1-.67-.298 1.756 1.756 0 0 1-.935-1.064v.309a1.787 1.787 0 0 0 .936 1.063c.213.12.437.22.67.298.837.268 1.727.33 2.594.18a4.147 4.147 0 0 0 1.467-.51 2.07 2.07 0 0 0 .297-.202c.222-.157.407-.36.543-.595a1.2 1.2 0 0 0 .148-.553v-.085c-.034.112-.084.22-.148.319Z" fill="url(#A)"/><path d="M63.259 11.216v1.106l.244-.138v-1.116l-.244.149Z" fill="url(#B)"/><path d="m63.259 11.216-.255-.148v1.116l.255.138v-1.105Z" fill="url(#C)"/><path d="m63.004 11.068.255-.139.244.139-.244.149-.255-.15Z" fill="url(#D)"/><path d="M58.698 8.792V9.91l.245-.15V8.655l-.245.138Z" fill="#0147FF"/><path d="m58.698 8.792-.245-.148V9.76l.245.149V8.792Z" fill="url(#E)"/><path d="m58.453 8.644.245-.139.244.15-.244.137-.245-.148Z" fill="url(#F)"/><path d="M62.164 22.358v1.457l.17-.106v-1.457l-.17.107Z" fill="#231889"/><path d="m62.164 22.358-.17-.106v1.457l.17.106v-1.457Z" fill="#171552"/><path d="M64.79 21.466v1.456l.17-.096V21.37l-.17.096Z" fill="#231889"/><path d="m64.79 21.466-.17-.096v1.456l.17.096v-1.456Z" fill="#171552"/><path d="M65.96 19.711v1.457l.17-.096v-1.456l-.17.095Z" fill="#231889"/><path d="m65.96 19.711-.181-.095v1.456l.18.096V19.71Z" fill="#171552"/><path d="M64.875 17.872v1.456l.17-.095v-1.467l-.17.106Z" fill="#231889"/><path d="m64.875 17.872-.17-.106v1.467l.17.095v-1.456Z" fill="#171552"/><path d="M60.016 22.358v1.457l-.17-.106v-1.457l.17.107Z" fill="#231889"/><path d="m60.016 22.358.181-.106v1.457l-.18.106v-1.457Z" fill="#171552"/><path d="M57.242 21.466v1.456l-.181-.096V21.37l.18.096Z" fill="#231889"/><path d="m57.242 21.466.17-.096v1.456l-.17.096v-1.456Z" fill="#171552"/><path d="M56.072 19.711v1.457l-.17-.096v-1.456l.17.095Z" fill="#231889"/><path d="m56.072 19.711.17-.095v1.456l-.17.096V19.71Z" fill="#171552"/><path d="M57.156 17.872v1.456l-.18-.095v-1.467l.18.106Z" fill="#231889"/><path d="m57.156 17.872.17-.106v1.467l-.17.095v-1.456Z" fill="#171552"/><path d="M66.119 19.275a2.883 2.883 0 0 0-1.478-1.733l-.298-.148v.393l.107.064a2.383 2.383 0 0 1 1.36 1.658.432.432 0 0 1 0 .117v.064a2.222 2.222 0 0 1-1.307 1.775c-.476.26-.983.457-1.51.585h-.096l-.393.085c-.95.155-1.92.155-2.87 0l-.575-.117a6 6 0 0 1-1.51-.616 2.285 2.285 0 0 1-1.35-1.786 1.176 1.176 0 0 1 0-.192 2.254 2.254 0 0 1 1.298-1.573.468.468 0 0 1 .16-.085v-.394l-.341.17a2.67 2.67 0 0 0-1.446 1.765 1.073 1.073 0 0 0 0 .17.76.76 0 0 0 0 .16 2.594 2.594 0 0 0 1.53 2.126 8.016 8.016 0 0 0 7.294 0 2.699 2.699 0 0 0 1.436-1.7 1.9 1.9 0 0 0 0-.543.511.511 0 0 0-.011-.245Z" fill="#231889"/><path d="m64.641 17.18-.297-.148v.393l.106.064a2.308 2.308 0 0 1 1.371 1.776v.063a.93.93 0 0 1 0 .17 2.34 2.34 0 0 1-1.297 1.606 7.665 7.665 0 0 1-6.953 0 2.36 2.36 0 0 1-1.34-1.67.44.44 0 0 1 0-.116 2.127 2.127 0 0 1 1.308-1.765.468.468 0 0 1 .16-.085v-.393l-.34.17a2.488 2.488 0 0 0-1.478 2.126.912.912 0 0 0 0 .17 2.658 2.658 0 0 0 1.52 1.924 6.753 6.753 0 0 0 1.68.66l.574.116c.95.155 1.92.155 2.87 0l.394-.084h.096a5.698 5.698 0 0 0 1.68-.65 2.697 2.697 0 0 0 1.435-1.7v-.191a2.498 2.498 0 0 0-1.489-2.435Z" fill="url(#G)"/><path d="M62.164 29.259v1.456l.17-.096v-1.456l-.17.096Z" fill="#231889"/><path d="m62.164 29.258-.17-.106v1.467l.17.096v-1.457Z" fill="#171552"/><path d="M64.79 28.366v1.456l.17-.095V28.27l-.17.096Z" fill="#231889"/><path d="m64.79 28.366-.17-.096v1.457l.17.095v-1.456Z" fill="#171552"/><path d="M65.96 26.622v1.456l.17-.106v-1.456l-.17.106Z" fill="#231889"/><path d="m65.96 26.622-.181-.106v1.456l.18.106v-1.456Z" fill="#171552"/><path d="M64.875 24.772v1.457l.17-.096v-1.457l-.17.096Z" fill="#231889"/><path d="m64.875 24.772-.17-.096v1.457l.17.096v-1.457Z" fill="#171552"/><path d="M60.016 29.259v1.456l-.17-.096v-1.456l.17.096Z" fill="#231889"/><path d="m60.016 29.258.181-.106v1.467l-.18.096v-1.457Z" fill="#171552"/><path d="M57.242 28.366v1.456l-.181-.095V28.27l.18.096Z" fill="#231889"/><path d="m57.242 28.366.17-.096v1.457l-.17.095v-1.456Z" fill="#171552"/><path d="M56.072 26.622v1.456l-.17-.106v-1.456l.17.106Z" fill="#231889"/><path d="m56.072 26.622.17-.106v1.456l-.17.106v-1.456Z" fill="#171552"/><path d="M57.156 24.772v1.457l-.18-.096v-1.457l.18.096Z" fill="#231889"/><path d="m57.156 24.772.17-.096v1.457l-.17.096v-1.457Z" fill="#171552"/><path d="M66.119 26.186a2.838 2.838 0 0 0-1.478-1.722 2.658 2.658 0 0 0-.298-.16v.404l.107.054a2.381 2.381 0 0 1 1.36 1.658.476.476 0 0 1 0 .117v.074a2.2 2.2 0 0 1-1.307 1.776 6.2 6.2 0 0 1-1.51.585h-.096l-.393.085c-.95.154-1.92.154-2.87 0l-.575-.117a5.982 5.982 0 0 1-1.51-.606 2.296 2.296 0 0 1-1.35-1.797 1.223 1.223 0 0 1 0-.191 2.264 2.264 0 0 1 1.298-1.574l.16-.085v-.393l-.341.17a2.67 2.67 0 0 0-1.446 1.765 1.073 1.073 0 0 0 0 .17.817.817 0 0 0 0 .16 2.594 2.594 0 0 0 1.53 2.126 8.016 8.016 0 0 0 7.294 0 2.71 2.71 0 0 0 1.435-1.712 1.76 1.76 0 0 0 0-.542.457.457 0 0 0-.01-.245Z" fill="#231889"/><path d="M64.641 24.091a2.633 2.633 0 0 0-.297-.159v.404h.106a2.308 2.308 0 0 1 1.371 1.776v.063a.93.93 0 0 1 0 .17 2.318 2.318 0 0 1-1.297 1.606 6.996 6.996 0 0 1-3.423.808 7.22 7.22 0 0 1-3.53-.85 2.36 2.36 0 0 1-1.34-1.68.395.395 0 0 1 0-.117 2.127 2.127 0 0 1 1.308-1.765l.16-.085v-.394l-.34.17a2.488 2.488 0 0 0-1.478 2.127.912.912 0 0 0 0 .17 2.657 2.657 0 0 0 1.52 1.924 6.05 6.05 0 0 0 1.68.66l.574.116c.95.154 1.92.154 2.87 0l.394-.085h.096a5.985 5.985 0 0 0 1.68-.638 2.71 2.71 0 0 0 1.424-1.7v-.192a2.478 2.478 0 0 0-1.478-2.329Z" fill="url(#H)"/><path d="M76.94 60.792a3.78 3.78 0 0 1-.67.298 3.666 3.666 0 0 1-.765.18h-2.191l-.223-.052-.202-.075a3.402 3.402 0 0 1-.595-.276l-.106-.064-.107-.064h-.053a.745.745 0 0 0-.106-.085.988.988 0 0 1-.107-.106c-.107-.1-.2-.215-.276-.34v-.096a1.2 1.2 0 0 1-.149-.553.478.478 0 0 1 0-.127v-42.4c.001.195.057.387.16.553.128.237.31.441.531.595.097.076.2.144.308.202a4.43 4.43 0 0 0 1.468.51c.867.147 1.757.08 2.594-.19.232-.078.457-.178.67-.298a1.775 1.775 0 0 0 .925-1.064v41.964a1.52 1.52 0 0 1-1.106 1.488Z" fill="url(#I)"/><path d="M69.68 20.115v-.818h10.27v.935a2.722 2.722 0 0 1-1.435 1.69c-.336.194-.693.35-1.063.468a8.506 8.506 0 0 1-3.997.277 6.9 6.9 0 0 1-2.254-.776 3.985 3.985 0 0 1-.468-.32 2.774 2.774 0 0 1-.83-.924 18.435 18.435 0 0 0-.223-.532Z" fill="#231889"/><path d="M71.158 17.17a8.069 8.069 0 0 1 7.304 0c2.03 1.18 2.052 3.062.053 4.253a8.017 8.017 0 0 1-7.293 0c-2.02-1.191-2.02-3.105-.064-4.253Z" fill="url(#J)"/><path d="M71.541 19.17V13.8h6.656v5.37a1.777 1.777 0 0 1-.925 1.062c-.216.117-.44.216-.67.298a5.592 5.592 0 0 1-2.594.18 4.435 4.435 0 0 1-1.468-.51 2.213 2.213 0 0 1-.308-.202 1.722 1.722 0 0 1-.531-.595 1.172 1.172 0 0 1-.16-.234Z" fill="#fff"/><path d="M78.016 15.98a1.885 1.885 0 0 1-.543.595 2.123 2.123 0 0 1-.297.202 4.615 4.615 0 0 1-1.467.51 5.594 5.594 0 0 1-2.595-.18 3.867 3.867 0 0 1-.67-.298 1.754 1.754 0 0 1-.935-1.063v2.126a1.755 1.755 0 0 0 .936 1.063 2.7 2.7 0 0 0 .67.298 5.454 5.454 0 0 0 2.594.191 4.615 4.615 0 0 0 1.467-.51c.105-.059.204-.127.297-.202.222-.157.407-.36.543-.596.093-.17.144-.359.148-.552v-1.935c-.034.122-.084.24-.148.35Z" fill="url(#K)"/><path d="M78.165 16.086v-2.18 1.797c.023.127.023.257 0 .383Z" fill="#B5B5B5"/><path d="m76.9 3.275.18-.096.17.096-.17.106-.18-.106ZM72.35.755l.17-.096.17.096-.17.106-.17-.106Z" fill="#8D8B8E"/><path d="M69.68 13.215v-.829h10.27v.914a2.732 2.732 0 0 1-1.435 1.701c-.337.19-.693.344-1.063.458a8.506 8.506 0 0 1-3.997.276 6.657 6.657 0 0 1-2.254-.776 3.96 3.96 0 0 1-.468-.308 2.806 2.806 0 0 1-.83-.936c-.074-.17-.223-.5-.223-.5Z" fill="#231889"/><path d="M71.158 10.26a8.08 8.08 0 0 1 7.304 0c2.03 1.17 2.052 3.062.053 4.252a8.048 8.048 0 0 1-7.293 0c-2.02-1.212-2.02-3.094-.064-4.252Z" fill="url(#L)"/><path d="M71.541 12.216V6.9h6.656v5.422a1.755 1.755 0 0 1-.925 1.063c-.214.121-.438.22-.67.298a5.463 5.463 0 0 1-2.594.18 4.253 4.253 0 0 1-1.468-.499 2.204 2.204 0 0 1-.308-.202 1.85 1.85 0 0 1-.531-.606 1.064 1.064 0 0 1-.16-.34Z" fill="#fff"/><path d="M72.466 5.475a5.316 5.316 0 0 1 4.731 0c1.319.766 1.34 1.988 0 2.743a5.23 5.23 0 0 1-4.73 0c-1.276-.744-1.298-1.999 0-2.743Z" fill="#fff"/><path d="M76.985 5.592a4.741 4.741 0 0 0-4.253 0c-1.17.66-1.19 1.723 0 2.371a4.774 4.774 0 0 0 4.253 0c1.137-.659 1.159-1.722 0-2.37Z" fill="#171552"/><path d="M72.753 5.614a4.827 4.827 0 0 1 3.934-.16l-3.232 2.818a3.561 3.561 0 0 1-.713-.288c-1.18-.648-1.159-1.711.01-2.37Z" fill="#231889"/><path d="M77.08 3.7v4.529l.17-.106V3.604l-.17.096Z" fill="#171552"/><path d="m77.08 3.7-.18-.096v4.519l.18.106v-4.53Z" fill="#231889"/><path d="M72.52 1.18v4.53l.17-.107V1.084l-.17.096Z" fill="#171552"/><path d="m72.52 1.18-.17-.106v4.529l.17.106V1.18Z" fill="#231889"/><path d="M78.133 7.05a1.225 1.225 0 0 1-.117.329c-.136.238-.32.445-.543.606a2.12 2.12 0 0 1-.297.202 4.359 4.359 0 0 1-1.467.5 5.592 5.592 0 0 1-2.595-.17 3.858 3.858 0 0 1-.67-.298 1.754 1.754 0 0 1-.935-1.064v2.127a1.754 1.754 0 0 0 .936 1.063c.21.124.435.224.67.298a5.455 5.455 0 0 0 2.594.191 4.615 4.615 0 0 0 1.467-.51c.105-.06.204-.127.297-.202.225-.159.41-.366.543-.606.094-.166.145-.352.148-.543V7.05h-.031Z" fill="url(#M)"/><path d="M78.016 23.347a1.899 1.899 0 0 1-.543.596 3.605 3.605 0 0 1-.297.212 4.9 4.9 0 0 1-1.467.5 5.592 5.592 0 0 1-2.595-.18 3.859 3.859 0 0 1-.67-.299 1.755 1.755 0 0 1-.935-1.063v.309a1.755 1.755 0 0 0 .936 1.063c.21.124.435.224.67.297a5.444 5.444 0 0 0 2.594.181 4.358 4.358 0 0 0 1.467-.5c.105-.062.204-.133.297-.212.224-.154.41-.358.543-.596.094-.169.145-.359.148-.552v-.085a1.546 1.546 0 0 1-.148.33Z" fill="url(#N)"/><path d="M78.016 27.568a2.032 2.032 0 0 1-.543.606 2.123 2.123 0 0 1-.297.202 4.36 4.36 0 0 1-1.467.5 5.456 5.456 0 0 1-2.595-.18 3.188 3.188 0 0 1-.67-.299 1.745 1.745 0 0 1-.935-1.063v.298a1.754 1.754 0 0 0 .936 1.063c.21.125.435.225.67.298a5.593 5.593 0 0 0 2.594.191 4.615 4.615 0 0 0 1.467-.51 2.07 2.07 0 0 0 .297-.202c.222-.157.407-.36.543-.595.093-.17.144-.36.148-.553v-.096c-.033.12-.083.234-.148.34Z" fill="url(#O)"/><path d="M78.016 31.79a2.033 2.033 0 0 1-.543.605 2.123 2.123 0 0 1-.297.202 4.36 4.36 0 0 1-1.467.5 5.454 5.454 0 0 1-2.595-.181 3.183 3.183 0 0 1-.67-.298 1.745 1.745 0 0 1-.935-1.063v.308a1.766 1.766 0 0 0 .936 1.064c.209.129.434.229.67.297a5.591 5.591 0 0 0 2.594.192 4.615 4.615 0 0 0 1.467-.51c.105-.06.204-.127.297-.203.222-.157.407-.36.543-.595.093-.17.144-.36.148-.553v-.096a1.226 1.226 0 0 1-.148.33Z" fill="url(#P)"/><path d="M78.016 36.01c-.136.238-.32.445-.543.606a2.123 2.123 0 0 1-.297.202 4.358 4.358 0 0 1-1.467.5 5.593 5.593 0 0 1-2.595-.17 3.867 3.867 0 0 1-.67-.298 1.787 1.787 0 0 1-.935-1.064v.309a1.786 1.786 0 0 0 .936 1.063c.213.12.437.22.67.298.837.268 1.727.33 2.594.18a4.145 4.145 0 0 0 1.467-.51 2.07 2.07 0 0 0 .297-.202c.222-.157.407-.36.543-.595.093-.17.144-.36.148-.553v-.096a1.226 1.226 0 0 1-.148.33Z" fill="url(#Q)"/><path d="M78.016 40.241a1.877 1.877 0 0 1-.543.596 2.123 2.123 0 0 1-.297.202 4.381 4.381 0 0 1-1.467.51 5.592 5.592 0 0 1-2.595-.18 3.867 3.867 0 0 1-.67-.298 1.754 1.754 0 0 1-.935-1.064v.309a1.786 1.786 0 0 0 .936 1.063c.213.12.437.22.67.297a5.444 5.444 0 0 0 2.594.181 4.145 4.145 0 0 0 1.467-.51c.105-.059.204-.127.297-.202.222-.157.407-.36.543-.596.094-.169.145-.359.148-.552v-.085a1.544 1.544 0 0 1-.148.33Z" fill="url(#R)"/><path d="M78.016 44.462a1.885 1.885 0 0 1-.543.595c-.093.08-.192.15-.297.213a4.605 4.605 0 0 1-1.467.5 5.59 5.59 0 0 1-2.595-.181 3.183 3.183 0 0 1-.67-.298 1.764 1.764 0 0 1-.935-1.063v.298a1.754 1.754 0 0 0 .936 1.063c.21.125.435.224.67.298.837.268 1.727.33 2.594.18a4.356 4.356 0 0 0 1.467-.5c.105-.058.204-.126.297-.201.222-.161.407-.368.543-.606a1.17 1.17 0 0 0 .148-.553v-.085a1.542 1.542 0 0 1-.148.34Z" fill="url(#S)"/><path d="M78.016 48.683a2.032 2.032 0 0 1-.543.606 2.123 2.123 0 0 1-.297.202 4.36 4.36 0 0 1-1.467.5 5.456 5.456 0 0 1-2.595-.181 3.183 3.183 0 0 1-.67-.298 1.745 1.745 0 0 1-.935-1.063v.297a1.754 1.754 0 0 0 .936 1.064c.21.124.435.224.67.297a5.593 5.593 0 0 0 2.594.192 4.615 4.615 0 0 0 1.467-.51c.105-.06.204-.127.297-.203.222-.157.407-.36.543-.595.093-.17.144-.36.148-.553v-.096c-.033.12-.083.235-.148.34Z" fill="url(#T)"/><path d="M78.016 52.904c-.136.238-.32.445-.543.606a2.123 2.123 0 0 1-.297.202 4.358 4.358 0 0 1-1.467.5 5.454 5.454 0 0 1-2.595-.181 2.732 2.732 0 0 1-.67-.298 1.745 1.745 0 0 1-.935-1.063v.308a1.766 1.766 0 0 0 .936 1.063c.21.129.435.232.67.309a5.594 5.594 0 0 0 2.594.18 4.368 4.368 0 0 0 1.467-.51c.105-.059.204-.127.297-.202.222-.157.407-.36.543-.596.093-.17.144-.359.148-.552v-.096a1.226 1.226 0 0 1-.148.33Z" fill="url(#U)"/><path d="M78.016 57.124c-.133.24-.318.448-.543.606a2.123 2.123 0 0 1-.297.202 4.615 4.615 0 0 1-1.467.51 5.73 5.73 0 0 1-2.595-.18 3.867 3.867 0 0 1-.67-.298 1.754 1.754 0 0 1-.935-1.063v.308a1.786 1.786 0 0 0 .936 1.064c.213.12.437.22.67.297.837.269 1.727.33 2.594.181a4.145 4.145 0 0 0 1.467-.51c.105-.06.204-.127.297-.202.222-.157.407-.36.543-.596.093-.17.144-.359.148-.552v-.086a1.29 1.29 0 0 1-.148.32Z" fill="url(#V)"/><path d="M77.08 2.711v1.106l.245-.138V2.562l-.245.15Z" fill="url(#W)"/><path d="m77.08 2.711-.255-.149V3.68l.255.138V2.71Z" fill="url(#X)"/><path d="m76.825 2.562.255-.138.245.138-.245.15-.255-.15Z" fill="url(#Y)"/><path d="M72.52.287v1.116l.244-.149V.15l-.245.138Z" fill="#0147FF"/><path d="m72.52.287-.245-.149v1.117l.244.148V.287Z" fill="url(#Z)"/><path d="M72.275.138 72.519 0l.245.149-.245.138-.244-.149Z" fill="url(#aa)"/><path d="M75.985 13.853v1.457l.17-.107v-1.456l-.17.106Z" fill="#231889"/><path d="m75.985 13.853-.17-.106v1.456l.17.107v-1.457Z" fill="#171552"/><path d="M78.611 12.96v1.457l.17-.096v-1.457l-.17.096Z" fill="#231889"/><path d="m78.611 12.96-.17-.096v1.457l.17.096V12.96Z" fill="#171552"/><path d="M79.78 11.206v1.456l.17-.095V11.11l-.17.096Z" fill="#231889"/><path d="m79.78 11.206-.18-.096v1.457l.18.095v-1.456Z" fill="#171552"/><path d="M78.696 9.367v1.456l.17-.096V9.26l-.17.107Z" fill="#231889"/><path d="m78.696 9.367-.17-.107v1.467l.17.096V9.367Z" fill="#171552"/><path d="M73.838 13.853v1.457l-.17-.107v-1.456l.17.106Z" fill="#231889"/><path d="m73.838 13.853.18-.106v1.456l-.18.107v-1.457Z" fill="#171552"/><path d="M71.063 12.96v1.457l-.18-.096v-1.457l.18.096Z" fill="#231889"/><path d="m71.063 12.96.17-.096v1.457l-.17.096V12.96Z" fill="#171552"/><path d="M69.893 11.206v1.456l-.17-.095V11.11l.17.096Z" fill="#231889"/><path d="m69.893 11.206.17-.096v1.457l-.17.095v-1.456Z" fill="#171552"/><path d="M70.978 9.367v1.456l-.181-.096V9.26l.18.107Z" fill="#231889"/><path d="m70.978 9.367.17-.107v1.467l-.17.096V9.367Z" fill="#171552"/><path d="M79.94 10.77a2.884 2.884 0 0 0-1.478-1.733l-.297-.149v.394l.106.063a2.382 2.382 0 0 1 1.36 1.659.432.432 0 0 1 0 .117v.064a2.223 2.223 0 0 1-1.307 1.775c-.475.26-.983.457-1.51.585h-.095l-.393.085a8.978 8.978 0 0 1-2.871 0l-.574-.117a5.996 5.996 0 0 1-1.51-.617 2.285 2.285 0 0 1-1.35-1.786 1.153 1.153 0 0 1 0-.191 2.253 2.253 0 0 1 1.297-1.574.468.468 0 0 1 .16-.085v-.393l-.34.17a2.668 2.668 0 0 0-1.447 1.765 1.073 1.073 0 0 0 0 .17.76.76 0 0 0 0 .16 2.595 2.595 0 0 0 1.531 2.126 8.017 8.017 0 0 0 7.294 0 2.7 2.7 0 0 0 1.435-1.701c.027-.18.027-.363 0-.542a.512.512 0 0 0-.01-.245Z" fill="#231889"/><path d="m78.463 8.675-.298-.148v.393l.106.064a2.307 2.307 0 0 1 1.372 1.775v.064a.93.93 0 0 1 0 .17 2.342 2.342 0 0 1-1.297 1.606 7.666 7.666 0 0 1-6.954 0 2.36 2.36 0 0 1-1.34-1.67.432.432 0 0 1 0-.117 2.127 2.127 0 0 1 1.308-1.764.468.468 0 0 1 .16-.085v-.394l-.34.17a2.488 2.488 0 0 0-1.478 2.127.912.912 0 0 0 0 .17 2.658 2.658 0 0 0 1.52 1.924 6.749 6.749 0 0 0 1.68.66l.574.116c.95.154 1.92.154 2.87 0l.394-.085h.096a5.7 5.7 0 0 0 1.68-.648 2.7 2.7 0 0 0 1.435-1.701v-.192a2.498 2.498 0 0 0-1.488-2.435Z" fill="url(#ab)"/><path d="M75.985 20.753v1.457l.17-.096v-1.457l-.17.096Z" fill="#231889"/><path d="m75.985 20.753-.17-.106v1.467l.17.096v-1.457Z" fill="#171552"/><path d="M78.611 19.86v1.457l.17-.096v-1.457l-.17.096Z" fill="#231889"/><path d="m78.611 19.86-.17-.096v1.457l.17.096V19.86Z" fill="#171552"/><path d="M79.78 18.116v1.457l.17-.106V18.01l-.17.106Z" fill="#231889"/><path d="m79.78 18.116-.18-.106v1.457l.18.106v-1.457Z" fill="#171552"/><path d="M78.696 16.267v1.456l.17-.096v-1.456l-.17.096Z" fill="#231889"/><path d="m78.696 16.267-.17-.096v1.456l.17.096v-1.456Z" fill="#171552"/><path d="M73.838 20.753v1.457l-.17-.096v-1.457l.17.096Z" fill="#231889"/><path d="m73.838 20.753.18-.106v1.467l-.18.096v-1.457Z" fill="#171552"/><path d="M71.063 19.86v1.457l-.18-.096v-1.457l.18.096Z" fill="#231889"/><path d="m71.063 19.86.17-.096v1.457l-.17.096V19.86Z" fill="#171552"/><path d="M69.893 18.116v1.457l-.17-.106V18.01l.17.106Z" fill="#231889"/><path d="m69.893 18.116.17-.106v1.457l-.17.106v-1.457Z" fill="#171552"/><path d="M70.978 16.267v1.456l-.181-.096v-1.456l.18.096Z" fill="#231889"/><path d="m70.978 16.267.17-.096v1.456l-.17.096v-1.456Z" fill="#171552"/><path d="M79.94 17.68a2.838 2.838 0 0 0-1.478-1.722 2.641 2.641 0 0 0-.297-.159v.404l.106.053a2.38 2.38 0 0 1 1.36 1.659.476.476 0 0 1 0 .117v.074a2.2 2.2 0 0 1-1.307 1.775 6.2 6.2 0 0 1-1.51.585h-.095l-.394.085c-.95.155-1.92.155-2.87 0l-.574-.117a5.974 5.974 0 0 1-1.51-.606 2.297 2.297 0 0 1-1.35-1.796 1.223 1.223 0 0 1 0-.192 2.264 2.264 0 0 1 1.297-1.573l.16-.085v-.394l-.34.17a2.67 2.67 0 0 0-1.447 1.765 1.073 1.073 0 0 0 0 .17.802.802 0 0 0 0 .16 2.594 2.594 0 0 0 1.531 2.126 8.015 8.015 0 0 0 7.294 0 2.712 2.712 0 0 0 1.435-1.711 1.83 1.83 0 0 0 0-.543.457.457 0 0 0-.01-.244Z" fill="#231889"/><path d="M78.463 15.586a2.626 2.626 0 0 0-.298-.16v.405h.106a2.307 2.307 0 0 1 1.372 1.775v.064a.93.93 0 0 1 0 .17 2.318 2.318 0 0 1-1.297 1.605 6.996 6.996 0 0 1-3.424.808 7.22 7.22 0 0 1-3.53-.85 2.361 2.361 0 0 1-1.34-1.68.395.395 0 0 1 0-.117 2.127 2.127 0 0 1 1.308-1.765l.16-.085v-.393l-.34.17a2.488 2.488 0 0 0-1.478 2.126.912.912 0 0 0 0 .17 2.658 2.658 0 0 0 1.52 1.925 6.02 6.02 0 0 0 1.68.659l.574.117c.95.154 1.92.154 2.87 0l.394-.085h.096a5.988 5.988 0 0 0 1.68-.638 2.712 2.712 0 0 0 1.424-1.701v-.192a2.477 2.477 0 0 0-1.477-2.328Z" fill="url(#ac)"/><defs><linearGradient id="a" x1="41.665" y1="38.604" x2="36.969" y2="51.765" gradientUnits="userSpaceOnUse"><stop stop-color="#2137FF"/><stop offset="1" stop-color="#0047FF"/></linearGradient><linearGradient id="b" x1="23.056" y1="38.87" x2="-54.057" y2="27.915" gradientUnits="userSpaceOnUse"><stop stop-color="#E4E7FF"/><stop offset="1" stop-color="#2137FF"/></linearGradient><linearGradient id="c" x1="34.254" y1="28.472" x2="30.596" y2="42.196" gradientUnits="userSpaceOnUse"><stop stop-color="#2137FF"/><stop offset="1" stop-color="#0047FF"/></linearGradient><linearGradient id="d" x1="33.975" y1="46.006" x2="-20.839" y2="38.595" gradientUnits="userSpaceOnUse"><stop stop-color="#E4E7FF"/><stop offset="1" stop-color="#2137FF"/></linearGradient><linearGradient id="e" x1="44.955" y1="23.4" x2="44.111" y2="26.637" gradientUnits="userSpaceOnUse"><stop stop-color="#2137FF"/><stop offset="1" stop-color="#0047FF"/></linearGradient><linearGradient id="f" x1="31.272" y1="30.683" x2="30.426" y2="33.923" gradientUnits="userSpaceOnUse"><stop stop-color="#2137FF"/><stop offset="1" stop-color="#0047FF"/></linearGradient><linearGradient id="g" x1="17.588" y1="37.966" x2="16.743" y2="41.206" gradientUnits="userSpaceOnUse"><stop stop-color="#2137FF"/><stop offset="1" stop-color="#0047FF"/></linearGradient><linearGradient id="h" x1="43.875" y1="69.537" x2="30.324" y2="67.785" gradientUnits="userSpaceOnUse"><stop stop-color="#E4E7FF"/><stop offset="1" stop-color="#2137FF"/></linearGradient><linearGradient id="i" x1="40.356" y1="66.058" x2="21.79" y2="64.041" gradientUnits="userSpaceOnUse"><stop stop-color="#E4E7FF"/><stop offset="1" stop-color="#2137FF"/></linearGradient><linearGradient id="j" x1="43.519" y1="62.782" x2="42.004" y2="67.106" gradientUnits="userSpaceOnUse"><stop stop-color="#2137FF"/><stop offset="1" stop-color="#0047FF"/></linearGradient><linearGradient id="k" x1="59.663" y1="60.344" x2="46.113" y2="58.586" gradientUnits="userSpaceOnUse"><stop stop-color="#E4E7FF"/><stop offset="1" stop-color="#2137FF"/></linearGradient><linearGradient id="l" x1="56.112" y1="56.901" x2="37.546" y2="54.886" gradientUnits="userSpaceOnUse"><stop stop-color="#E4E7FF"/><stop offset="1" stop-color="#2137FF"/></linearGradient><linearGradient id="m" x1="59.304" y1="53.608" x2="57.797" y2="57.915" gradientUnits="userSpaceOnUse"><stop stop-color="#2137FF"/><stop offset="1" stop-color="#0047FF"/></linearGradient><linearGradient id="n" x1="60.396" y1="42.592" x2="51.758" y2="42.485" gradientUnits="userSpaceOnUse"><stop stop-color="#E4E7FF"/><stop offset="1" stop-color="#2137FF"/></linearGradient><linearGradient id="o" x1="60.258" y1="27.116" x2="47.154" y2="25.272" gradientUnits="userSpaceOnUse"><stop stop-color="#E4E7FF"/><stop offset="1" stop-color="#2137FF"/></linearGradient><linearGradient id="p" x1="61.488" y1="24.134" x2="61.042" y2="25.797" gradientUnits="userSpaceOnUse"><stop stop-color="#2137FF"/><stop offset="1" stop-color="#0047FF"/></linearGradient><linearGradient id="q" x1="60.258" y1="20.205" x2="47.155" y2="18.36" gradientUnits="userSpaceOnUse"><stop stop-color="#E4E7FF"/><stop offset="1" stop-color="#2137FF"/></linearGradient><linearGradient id="r" x1="61.488" y1="15.554" x2="61.044" y2="17.213" gradientUnits="userSpaceOnUse"><stop stop-color="#2137FF"/><stop offset="1" stop-color="#0047FF"/></linearGradient><linearGradient id="s" x1="61.488" y1="31.523" x2="61.36" y2="32.437" gradientUnits="userSpaceOnUse"><stop stop-color="#2137FF"/><stop offset="1" stop-color="#0047FF"/></linearGradient><linearGradient id="t" x1="61.488" y1="35.733" x2="61.359" y2="36.649" gradientUnits="userSpaceOnUse"><stop stop-color="#2137FF"/><stop offset="1" stop-color="#0047FF"/></linearGradient><linearGradient id="u" x1="61.488" y1="39.965" x2="61.359" y2="40.881" gradientUnits="userSpaceOnUse"><stop stop-color="#2137FF"/><stop offset="1" stop-color="#0047FF"/></linearGradient><linearGradient id="v" x1="61.488" y1="44.185" x2="61.359" y2="45.105" gradientUnits="userSpaceOnUse"><stop stop-color="#2137FF"/><stop offset="1" stop-color="#0047FF"/></linearGradient><linearGradient id="w" x1="61.488" y1="48.417" x2="61.36" y2="49.331" gradientUnits="userSpaceOnUse"><stop stop-color="#2137FF"/><stop offset="1" stop-color="#0047FF"/></linearGradient><linearGradient id="x" x1="61.488" y1="52.627" x2="61.36" y2="53.542" gradientUnits="userSpaceOnUse"><stop stop-color="#2137FF"/><stop offset="1" stop-color="#0047FF"/></linearGradient><linearGradient id="y" x1="61.488" y1="56.848" x2="61.359" y2="57.764" gradientUnits="userSpaceOnUse"><stop stop-color="#2137FF"/><stop offset="1" stop-color="#0047FF"/></linearGradient><linearGradient id="z" x1="61.488" y1="61.079" x2="61.359" y2="61.997" gradientUnits="userSpaceOnUse"><stop stop-color="#2137FF"/><stop offset="1" stop-color="#0047FF"/></linearGradient><linearGradient id="A" x1="61.488" y1="65.311" x2="61.36" y2="66.225" gradientUnits="userSpaceOnUse"><stop stop-color="#2137FF"/><stop offset="1" stop-color="#0047FF"/></linearGradient><linearGradient id="B" x1="63.398" y1="11.068" x2="63.191" y2="11.155" gradientUnits="userSpaceOnUse"><stop stop-color="#2137FF"/><stop offset="1" stop-color="#0047FF"/></linearGradient><linearGradient id="C" x1="63.149" y1="11.068" x2="62.936" y2="11.162" gradientUnits="userSpaceOnUse"><stop stop-color="#2137FF"/><stop offset="1" stop-color="#0047FF"/></linearGradient><linearGradient id="D" x1="63.289" y1="10.929" x2="63.256" y2="11.053" gradientUnits="userSpaceOnUse"><stop stop-color="#2137FF"/><stop offset="1" stop-color="#0047FF"/></linearGradient><linearGradient id="E" x1="58.593" y1="8.644" x2="58.386" y2="8.73" gradientUnits="userSpaceOnUse"><stop stop-color="#2137FF"/><stop offset="1" stop-color="#0047FF"/></linearGradient><linearGradient id="F" x1="58.733" y1="8.505" x2="58.699" y2="8.629" gradientUnits="userSpaceOnUse"><stop stop-color="#2137FF"/><stop offset="1" stop-color="#0047FF"/></linearGradient><linearGradient id="G" x1="61.734" y1="17.032" x2="61.178" y2="19.351" gradientUnits="userSpaceOnUse"><stop stop-color="#2137FF"/><stop offset="1" stop-color="#0047FF"/></linearGradient><linearGradient id="H" x1="61.726" y1="23.868" x2="61.178" y2="26.17" gradientUnits="userSpaceOnUse"><stop stop-color="#2137FF"/><stop offset="1" stop-color="#0047FF"/></linearGradient><linearGradient id="I" x1="74.218" y1="34.086" x2="65.579" y2="33.98" gradientUnits="userSpaceOnUse"><stop stop-color="#E4E7FF"/><stop offset="1" stop-color="#2137FF"/></linearGradient><linearGradient id="J" x1="74.079" y1="18.611" x2="60.975" y2="16.767" gradientUnits="userSpaceOnUse"><stop stop-color="#E4E7FF"/><stop offset="1" stop-color="#2137FF"/></linearGradient><linearGradient id="K" x1="75.309" y1="15.629" x2="74.863" y2="17.291" gradientUnits="userSpaceOnUse"><stop stop-color="#2137FF"/><stop offset="1" stop-color="#0047FF"/></linearGradient><linearGradient id="L" x1="74.079" y1="11.7" x2="60.976" y2="9.854" gradientUnits="userSpaceOnUse"><stop stop-color="#E4E7FF"/><stop offset="1" stop-color="#2137FF"/></linearGradient><linearGradient id="M" x1="75.309" y1="7.049" x2="74.865" y2="8.708" gradientUnits="userSpaceOnUse"><stop stop-color="#2137FF"/><stop offset="1" stop-color="#0047FF"/></linearGradient><linearGradient id="N" x1="75.309" y1="23.018" x2="75.181" y2="23.932" gradientUnits="userSpaceOnUse"><stop stop-color="#2137FF"/><stop offset="1" stop-color="#0047FF"/></linearGradient><linearGradient id="O" x1="75.309" y1="27.228" x2="75.18" y2="28.144" gradientUnits="userSpaceOnUse"><stop stop-color="#2137FF"/><stop offset="1" stop-color="#0047FF"/></linearGradient><linearGradient id="P" x1="75.309" y1="31.459" x2="75.18" y2="32.375" gradientUnits="userSpaceOnUse"><stop stop-color="#2137FF"/><stop offset="1" stop-color="#0047FF"/></linearGradient><linearGradient id="Q" x1="75.309" y1="35.68" x2="75.18" y2="36.599" gradientUnits="userSpaceOnUse"><stop stop-color="#2137FF"/><stop offset="1" stop-color="#0047FF"/></linearGradient><linearGradient id="R" x1="75.309" y1="39.912" x2="75.181" y2="40.826" gradientUnits="userSpaceOnUse"><stop stop-color="#2137FF"/><stop offset="1" stop-color="#0047FF"/></linearGradient><linearGradient id="S" x1="75.309" y1="44.122" x2="75.181" y2="45.036" gradientUnits="userSpaceOnUse"><stop stop-color="#2137FF"/><stop offset="1" stop-color="#0047FF"/></linearGradient><linearGradient id="T" x1="75.309" y1="48.343" x2="75.18" y2="49.258" gradientUnits="userSpaceOnUse"><stop stop-color="#2137FF"/><stop offset="1" stop-color="#0047FF"/></linearGradient><linearGradient id="U" x1="75.309" y1="52.574" x2="75.18" y2="53.491" gradientUnits="userSpaceOnUse"><stop stop-color="#2137FF"/><stop offset="1" stop-color="#0047FF"/></linearGradient><linearGradient id="V" x1="75.309" y1="56.805" x2="75.181" y2="57.72" gradientUnits="userSpaceOnUse"><stop stop-color="#2137FF"/><stop offset="1" stop-color="#0047FF"/></linearGradient><linearGradient id="W" x1="77.22" y1="2.562" x2="77.013" y2="2.65" gradientUnits="userSpaceOnUse"><stop stop-color="#2137FF"/><stop offset="1" stop-color="#0047FF"/></linearGradient><linearGradient id="X" x1="76.971" y1="2.562" x2="76.757" y2="2.656" gradientUnits="userSpaceOnUse"><stop stop-color="#2137FF"/><stop offset="1" stop-color="#0047FF"/></linearGradient><linearGradient id="Y" x1="77.11" y1="2.424" x2="77.078" y2="2.548" gradientUnits="userSpaceOnUse"><stop stop-color="#2137FF"/><stop offset="1" stop-color="#0047FF"/></linearGradient><linearGradient id="Z" x1="72.414" y1=".138" x2="72.207" y2=".225" gradientUnits="userSpaceOnUse"><stop stop-color="#2137FF"/><stop offset="1" stop-color="#0047FF"/></linearGradient><linearGradient id="aa" x1="72.554" y1="0" x2="72.521" y2=".123" gradientUnits="userSpaceOnUse"><stop stop-color="#2137FF"/><stop offset="1" stop-color="#0047FF"/></linearGradient><linearGradient id="ab" x1="75.555" y1="8.527" x2="74.999" y2="10.845" gradientUnits="userSpaceOnUse"><stop stop-color="#2137FF"/><stop offset="1" stop-color="#0047FF"/></linearGradient><linearGradient id="ac" x1="75.547" y1="15.363" x2="74.999" y2="17.665" gradientUnits="userSpaceOnUse"><stop stop-color="#2137FF"/><stop offset="1" stop-color="#0047FF"/></linearGradient></defs></svg>