<svg width="363" height="368" fill="none" xmlns="http://www.w3.org/2000/svg"><path d="M354.117 237.587a181.521 181.521 0 0 1-20.398 42.765l-1.548-1.005a179.662 179.662 0 0 0 20.191-42.331l1.755.571Zm-150.498 124.06a181.521 181.521 0 0 1-47.379-.413l.257-1.828a179.626 179.626 0 0 0 46.897.41l.225 1.831ZM29.281 280.352a181.508 181.508 0 0 1-20.398-42.765l1.755-.571a179.645 179.645 0 0 0 20.19 42.331l-1.547 1.005ZM53.16 53.16a181.497 181.497 0 0 1 37.59-28.844l.923 1.598a179.661 179.661 0 0 0-37.208 28.55L53.16 53.16Zm219.09-28.844a181.52 181.52 0 0 1 37.59 28.844l-1.305 1.305a179.66 179.66 0 0 0-37.208-28.55l.923-1.599Z" fill="#FDCD24"/><path d="M310 47v8h-8m38 225h-8v-8m-172 94.928L156 360l6.928-4M5 242.928 9 236l6.928 4M84 24h8v8" stroke="#FDCD24" stroke-width="2"/></svg>