<svg width="32" height="32" viewBox="0 0 32 32" fill="none" xmlns="http://www.w3.org/2000/svg">
<g filter="url(#filter0_d_1349_2675)">
<path d="M24.0697 22.127C24.4608 21.7366 24.4611 21.103 24.0704 20.7122L19.9829 16.6239C19.5924 16.2335 19.5924 15.6004 19.9828 15.2099L24.0695 11.1217C24.4598 10.7313 24.4599 10.0985 24.0698 9.70798L22.656 8.29275C22.2656 7.9019 21.6322 7.9017 21.2415 8.29231L17.1531 12.38C16.7626 12.7704 16.1295 12.7704 15.739 12.3799L11.6514 8.29232C11.2607 7.9017 10.6274 7.90181 10.2369 8.29257L8.82248 9.70798C8.43224 10.0985 8.4323 10.7314 8.8226 11.1218L12.9093 15.21C13.2996 15.6005 13.2996 16.2334 12.9093 16.6239L8.8231 20.7116C8.4326 21.1022 8.43277 21.7355 8.82348 22.1259L10.2388 23.5402C10.6294 23.9306 11.2625 23.9304 11.6529 23.5398L15.7388 19.4525C16.1293 19.0618 16.7627 19.0618 17.1532 19.4525L21.2395 23.5402C21.6298 23.9306 22.2626 23.931 22.6532 23.541L24.0697 22.127Z" fill="white"/>
<path d="M24.7776 20.0052C25.559 20.7867 25.5584 22.0539 24.7762 22.8347L23.3597 24.2487C22.5784 25.0287 21.3128 25.028 20.5323 24.2472L16.446 20.1594L12.3601 24.2468L11.6811 23.5681L12.3601 24.2468C11.5793 25.0279 10.3131 25.0283 9.53191 24.2476L8.11662 22.8333L8.11662 22.8333L8.82348 22.1259L24.7776 20.0052ZM24.7776 20.0052L20.69 15.9169M24.7776 20.0052L20.69 15.9169M20.69 15.9169L24.7768 11.8287M20.69 15.9169L24.7768 11.8287M24.7768 11.8287C25.5573 11.0479 25.5575 9.78232 24.7773 9.00125M24.7768 11.8287L24.7773 9.00125M24.7773 9.00125L23.3635 7.58602L24.7773 9.00125Z" stroke="url(#paint0_linear_1349_2675)" stroke-width="2"/>
</g>
<defs>
<filter id="filter0_d_1349_2675" x="6.52983" y="5.99951" width="19.8334" height="21.8335" filterUnits="userSpaceOnUse" color-interpolation-filters="sRGB">
<feFlood flood-opacity="0" result="BackgroundImageFix"/>
<feColorMatrix in="SourceAlpha" type="matrix" values="0 0 0 0 0 0 0 0 0 0 0 0 0 0 0 0 0 0 127 0" result="hardAlpha"/>
<feOffset dy="2"/>
<feComposite in2="hardAlpha" operator="out"/>
<feColorMatrix type="matrix" values="0 0 0 0 0.835294 0 0 0 0 0.466667 0 0 0 0 0.0352941 0 0 0 1 0"/>
<feBlend mode="normal" in2="BackgroundImageFix" result="effect1_dropShadow_1349_2675"/>
<feBlend mode="normal" in="SourceGraphic" in2="effect1_dropShadow_1349_2675" result="shape"/>
</filter>
<linearGradient id="paint0_linear_1349_2675" x1="16.447" y1="7.58496" x2="16.447" y2="24.247" gradientUnits="userSpaceOnUse">
<stop offset="0.0350099" stop-color="#F7DE0D"/>
<stop offset="1" stop-color="#F7A50D"/>
</linearGradient>
</defs>
</svg>
