<svg width="80" height="100" viewBox="0 0 80 100" fill="none" xmlns="http://www.w3.org/2000/svg">
<g clip-path="url(#clip0_216_2119)">
<path d="M72.2612 65.6356C72.0369 65.6354 71.8167 65.5752 71.6234 65.4613L67.8076 63.1713L68.0408 62.7864L71.8566 65.0736C71.9777 65.1459 72.116 65.184 72.257 65.184C72.398 65.184 72.5364 65.1459 72.6574 65.0736L78.87 61.4489C78.9192 61.4209 78.9597 61.3798 78.987 61.3302C79.0143 61.2806 79.0273 61.2244 79.0246 61.1679C79.0249 61.1104 79.0097 61.054 78.9805 61.0045C78.9513 60.955 78.9093 60.9144 78.8588 60.8869L70.5837 56.4558L70.7945 56.0596L79.0723 60.4935C79.1917 60.5572 79.2919 60.6517 79.3625 60.7671C79.4331 60.8825 79.4715 61.0147 79.4738 61.15C79.4761 61.2853 79.4422 61.4188 79.3755 61.5365C79.3089 61.6543 79.212 61.7521 79.0948 61.8198L72.885 65.4529C72.697 65.5682 72.4817 65.6313 72.2612 65.6356Z" fill="#2137FF"/>
<path d="M56.8264 99.9999C56.5531 100 56.2841 99.9306 56.0453 99.7976L40.8187 91.3202C40.7098 91.2596 40.6192 91.1709 40.5561 91.0635C40.4929 90.9561 40.4597 90.8337 40.4597 90.7091C40.4597 90.5845 40.4929 90.4621 40.5561 90.3547C40.6192 90.2473 40.7098 90.1586 40.8187 90.098L47.7113 86.2119C47.7484 86.1915 47.7793 86.1614 47.8005 86.1247C47.8218 86.0881 47.8327 86.0464 47.8321 86.004C47.8321 85.9618 47.821 85.9202 47.7998 85.8837C47.7785 85.8472 47.748 85.8169 47.7113 85.7961L40.0488 81.3986C39.9464 81.3392 39.861 81.2544 39.801 81.1524C39.7409 81.0504 39.7082 80.9347 39.7059 80.8163C39.7037 80.6979 39.732 80.581 39.7881 80.4768C39.8442 80.3726 39.9263 80.2846 40.0263 80.2213L43.1396 78.2319L43.3813 78.6113L40.2483 80.595C40.2132 80.6169 40.1846 80.6476 40.1654 80.6842C40.1461 80.7207 40.1369 80.7617 40.1387 80.803C40.1391 80.844 40.1501 80.8843 40.1708 80.9198C40.1915 80.9553 40.2211 80.9847 40.2567 81.0053L47.9248 85.4083C48.0306 85.468 48.1187 85.5548 48.1799 85.6597C48.2412 85.7646 48.2735 85.8839 48.2735 86.0054C48.2735 86.1269 48.2412 86.2462 48.1799 86.3511C48.1187 86.456 48.0306 86.5428 47.9248 86.6025L41.0351 90.4913C40.9958 90.5129 40.963 90.5446 40.9402 90.5832C40.9174 90.6217 40.9054 90.6657 40.9054 90.7105C40.9054 90.7553 40.9174 90.7993 40.9402 90.8378C40.963 90.8764 40.9958 90.9081 41.0351 90.9297L56.2645 99.4042C56.443 99.5033 56.6445 99.5537 56.8487 99.5502C57.0529 99.5468 57.2526 99.4896 57.4278 99.3845L63.2189 95.8244C63.235 95.8145 63.2482 95.8003 63.2571 95.7835C63.266 95.7668 63.2703 95.7479 63.2695 95.7289C63.2695 95.7101 63.2646 95.6917 63.2552 95.6754C63.2458 95.6591 63.2323 95.6456 63.2161 95.6362L59.0266 93.0876L59.2598 92.7055L63.4493 95.2512C63.5306 95.3016 63.5977 95.372 63.6442 95.4556C63.6908 95.5391 63.7152 95.6332 63.7152 95.7289C63.7152 95.8246 63.6908 95.9187 63.6442 96.0023C63.5977 96.0859 63.5306 96.1562 63.4493 96.2066L57.6582 99.7667C57.4072 99.9185 57.1197 99.9991 56.8264 99.9999Z" fill="#2137FF"/>
<path d="M63.4046 65.8658L56.0652 61.6285C55.6157 61.3672 55.6719 60.9148 56.1917 60.6142L63.281 56.5202C63.548 56.3727 63.8456 56.2893 64.1504 56.2766C64.4552 56.2639 64.7588 56.3223 65.0371 56.4472L72.3793 60.6872C72.8317 60.9457 72.7726 61.4009 72.2528 61.7016L65.1636 65.7955C64.896 65.9431 64.5977 66.0262 64.2924 66.0384C63.9871 66.0506 63.6831 65.9915 63.4046 65.8658Z" fill="#2137FF"/>
<path d="M74.8123 57.4588V54.2864H67.7006L65.242 52.8675C64.68 52.5415 63.6909 52.5865 63.039 52.9602L60.7462 54.2836H53.626V57.5459C53.6247 57.6705 53.6599 57.7929 53.7273 57.8977C53.7947 58.0026 53.8914 58.0854 54.0053 58.136L63.1992 63.4438C63.7612 63.7669 64.7474 63.7248 65.3993 63.351L74.2757 58.2259C74.6522 58.0011 74.8348 57.7201 74.8123 57.4588Z" fill="url(#paint0_linear_216_2119)"/>
<path d="M64.2136 52.6455C63.8007 52.6499 63.3954 52.7561 63.0334 52.9546L60.7406 54.278H53.626V57.5403C53.6247 57.6649 53.6599 57.7873 53.7273 57.8921C53.7947 57.997 53.8914 58.0798 54.0053 58.1303L63.1992 63.4382C63.5138 63.5999 63.866 63.6746 64.2192 63.6545L64.2136 52.6455Z" fill="#171552"/>
<path d="M54.4324 54.2751H53.626V57.5374C53.6247 57.6621 53.6599 57.7844 53.7273 57.8893C53.7947 57.9941 53.8914 58.0769 54.0053 58.1275L54.4324 58.3719V54.2751Z" fill="#5793CE"/>
<path d="M63.3398 63.5028C63.9094 63.7085 64.534 63.7015 65.0988 63.4832V59.7798H63.3398V63.5028Z" fill="white"/>
<path d="M63.1993 60.1844L54.0054 54.8766C53.4434 54.5507 53.5109 53.9803 54.1628 53.6038L63.0391 48.4786C63.691 48.1021 64.6773 48.0627 65.242 48.3887L74.4331 53.6965C74.995 54.0224 74.9276 54.59 74.2757 54.9665L65.3994 60.0917C64.7475 60.4682 63.7612 60.5104 63.1993 60.1844Z" fill="#A7B0FF"/>
<path d="M63.3708 59.229L55.669 54.781C55.1941 54.5 55.2531 54.0307 55.8011 53.716L63.2388 49.4198C63.5192 49.264 63.8323 49.176 64.1528 49.1629C64.4733 49.1497 64.7925 49.2117 65.0848 49.3439L72.7895 53.7919C73.2615 54.0729 73.2025 54.5421 72.6546 54.8568L65.2169 59.1503C64.9369 59.3071 64.6239 59.3959 64.3032 59.4096C63.9826 59.4233 63.6632 59.3614 63.3708 59.229Z" fill="#171552"/>
<path d="M71.4321 58.2962C71.4232 58.4249 71.3849 58.5498 71.3201 58.6614C71.2553 58.7729 71.1658 58.8681 71.0584 58.9396C70.8533 59.0576 70.6875 58.9593 70.6875 58.7233C70.6944 58.5944 70.7315 58.469 70.796 58.3572C70.8604 58.2454 70.9503 58.1503 71.0584 58.0798C71.2635 57.9618 71.4321 58.0573 71.4321 58.2962Z" fill="white"/>
<path d="M72.6265 57.6049C72.6196 57.7338 72.5824 57.8592 72.518 57.971C72.4535 58.0828 72.3636 58.1779 72.2556 58.2484C72.0504 58.3664 71.8818 58.2709 71.8818 58.0349C71.889 57.9057 71.9266 57.7801 71.9916 57.6683C72.0565 57.5565 72.147 57.4616 72.2556 57.3914C72.4607 57.2734 72.6265 57.3689 72.6265 57.6049Z" fill="white"/>
<path d="M73.8204 56.9166C73.8131 57.0453 73.7758 57.1706 73.7114 57.2823C73.647 57.3941 73.5573 57.4892 73.4495 57.56C73.2444 57.678 73.0786 57.5825 73.0786 57.3437C73.0855 57.2148 73.1226 57.0894 73.1871 56.9776C73.2515 56.8658 73.3414 56.7707 73.4495 56.7002C73.6546 56.5822 73.8204 56.6721 73.8204 56.9166Z" fill="white"/>
<path d="M74.8123 52.3898V49.2175H67.7006L65.242 47.8125C64.68 47.4866 63.6909 47.5316 63.039 47.9053L60.7462 49.2287H53.626V52.4572C53.6245 52.5816 53.6597 52.7036 53.7271 52.8081C53.7946 52.9125 53.8914 52.9948 54.0054 53.0445L63.1992 58.3579C63.7612 58.6839 64.7474 58.6389 65.3993 58.268L74.2757 53.1428C74.6522 52.9321 74.8348 52.6511 74.8123 52.3898Z" fill="url(#paint1_linear_216_2119)"/>
<path d="M64.2138 47.5737C63.801 47.5804 63.3959 47.6875 63.0337 47.8856L60.7408 49.2091H53.6207V52.4573C53.6191 52.5816 53.6543 52.7036 53.7218 52.8081C53.7892 52.9126 53.886 52.9948 54 53.0445L63.1995 58.358C63.5138 58.5207 63.866 58.5964 64.2194 58.5771L64.2138 47.5737Z" fill="#171552"/>
<path d="M54.4325 49.2063H53.626V52.4573C53.6245 52.5816 53.6597 52.7037 53.7271 52.8081C53.7946 52.9126 53.8914 52.9948 54.0054 53.0446L54.4325 53.2918V49.2063Z" fill="#5793CE"/>
<path d="M63.3398 58.4338C63.9094 58.6394 64.534 58.6324 65.0988 58.4141V54.7051H63.3398V58.4338Z" fill="white"/>
<path d="M63.1993 55.1154L54.0054 49.8075C53.4434 49.4816 53.5109 48.9112 54.1628 48.5347L63.0391 43.4095C63.691 43.033 64.6773 42.9936 65.242 43.3196L74.4331 48.6274C74.995 48.9533 74.9276 49.5209 74.2757 49.8974L65.3994 55.0226C64.7475 55.3991 63.7612 55.4413 63.1993 55.1154Z" fill="#A7B0FF"/>
<path d="M63.3708 54.1599L55.669 49.7119C55.1941 49.4309 55.2531 48.9616 55.8011 48.6469L63.2388 44.3507C63.5192 44.1949 63.8323 44.1069 64.1528 44.0938C64.4733 44.0806 64.7925 44.1426 65.0848 44.2748L72.7895 48.7228C73.2615 49.0038 73.2025 49.473 72.6546 49.7877L65.2169 54.0812C64.9369 54.238 64.6239 54.3268 64.3032 54.3405C63.9826 54.3542 63.6632 54.2923 63.3708 54.1599Z" fill="#171552"/>
<path d="M71.4321 53.2271C71.4245 53.3557 71.3867 53.4807 71.3218 53.592C71.2568 53.7033 71.1666 53.7978 71.0584 53.8677C70.8533 53.9885 70.6875 53.8902 70.6875 53.6542C70.6944 53.5253 70.7315 53.3999 70.796 53.2881C70.8604 53.1763 70.9503 53.0812 71.0584 53.0107C71.2635 52.8927 71.4321 52.9882 71.4321 53.2271Z" fill="white"/>
<path d="M72.6265 52.5359C72.6196 52.6647 72.5824 52.7901 72.518 52.9019C72.4535 53.0138 72.3636 53.1088 72.2556 53.1793C72.0504 53.2973 71.8818 53.2018 71.8818 52.9658C71.889 52.8366 71.9266 52.7111 71.9916 52.5992C72.0565 52.4874 72.147 52.3925 72.2556 52.3223C72.4607 52.2043 72.6265 52.2998 72.6265 52.5359Z" fill="white"/>
<path d="M73.8204 51.8474C73.8133 51.9758 73.7761 52.1008 73.7116 52.2121C73.6472 52.3234 73.5574 52.418 73.4495 52.4881C73.2444 52.6089 73.0786 52.5105 73.0786 52.2745C73.0855 52.1456 73.1226 52.0202 73.1871 51.9084C73.2515 51.7966 73.3414 51.7016 73.4495 51.6311C73.6546 51.513 73.8204 51.6142 73.8204 51.8474Z" fill="white"/>
<path d="M74.8124 47.3207V44.1484H67.7006L65.242 42.7435C64.68 42.4175 63.691 42.4625 63.0391 42.8334L60.7462 44.1596H53.6261V47.3994C53.624 47.5242 53.6589 47.6469 53.7264 47.7519C53.7939 47.8569 53.891 47.9395 54.0054 47.9895L63.1993 53.3001C63.7612 53.626 64.7475 53.5811 65.3994 53.2102L74.2757 48.085C74.6522 47.863 74.8349 47.582 74.8124 47.3207Z" fill="url(#paint2_linear_216_2119)"/>
<path d="M64.2139 42.5046C63.8014 42.5117 63.3967 42.6177 63.0337 42.8137L60.7409 44.14H53.6207V47.3994C53.6186 47.5242 53.6535 47.6469 53.721 47.7519C53.7885 47.8569 53.8856 47.9396 54 47.9895L63.1995 53.3001C63.5139 53.4629 63.866 53.5385 64.2195 53.5193L64.2139 42.5046Z" fill="#171552"/>
<path d="M54.4325 44.1372H53.6261V47.3995C53.624 47.5243 53.6589 47.6469 53.7264 47.7519C53.7939 47.8569 53.891 47.9396 54.0054 47.9895L54.4325 48.2368V44.1372Z" fill="#5793CE"/>
<path d="M63.3398 53.3649C63.9094 53.5706 64.534 53.5636 65.0988 53.3452V49.6475H63.3398V53.3649Z" fill="white"/>
<path d="M63.1993 50.0434L54.0054 44.7356C53.4434 44.4125 53.5109 43.8421 54.1628 43.4656L63.0391 38.3404C63.691 37.9639 64.6773 37.9245 65.242 38.2505L74.4331 43.5583C74.995 43.8842 74.9276 44.4518 74.2757 44.8284L65.3994 49.9535C64.7475 50.3301 63.7612 50.3694 63.1993 50.0434Z" fill="url(#paint3_linear_216_2119)"/>
<path d="M74.2757 44.2048L65.3993 49.33C64.7475 49.7065 63.7612 49.7458 63.1992 49.4199L54.0054 44.1121C53.8945 44.0503 53.7986 43.9649 53.7244 43.862C53.5305 44.1739 53.6204 44.5139 54.0054 44.7358L63.1992 50.0437C63.7612 50.3696 64.7475 50.3247 65.3993 49.9537L74.2757 44.8286C74.7814 44.5476 74.936 44.1289 74.7168 43.8086C74.6034 43.9739 74.4522 44.1097 74.2757 44.2048Z" fill="white"/>
<path d="M71.4321 48.1552C71.4249 48.2844 71.3873 48.4099 71.3224 48.5218C71.2574 48.6336 71.167 48.7285 71.0584 48.7987C70.8533 48.9167 70.6875 48.8212 70.6875 48.5851C70.6944 48.4563 70.7315 48.3309 70.796 48.2191C70.8604 48.1072 70.9503 48.0122 71.0584 47.9417C71.2635 47.8237 71.4321 47.9192 71.4321 48.1552Z" fill="white"/>
<path d="M72.6265 47.467C72.6196 47.5959 72.5824 47.7213 72.518 47.8331C72.4535 47.9449 72.3636 48.0399 72.2556 48.1105C72.0504 48.2285 71.8818 48.1329 71.8818 47.8969C71.889 47.7678 71.9266 47.6422 71.9916 47.5304C72.0565 47.4186 72.147 47.3237 72.2556 47.2535C72.4607 47.1354 72.6265 47.231 72.6265 47.467Z" fill="white"/>
<path d="M73.8204 46.7756C73.8138 46.9045 73.7767 47.03 73.7122 47.1419C73.6478 47.2537 73.5577 47.3487 73.4495 47.4191C73.2444 47.5371 73.0786 47.4415 73.0786 47.2055C73.0855 47.0766 73.1226 46.9512 73.1871 46.8394C73.2515 46.7276 73.3414 46.6326 73.4495 46.5621C73.6546 46.444 73.8204 46.5396 73.8204 46.7756Z" fill="white"/>
<path d="M63.7417 46.7533L59.437 44.2694C59.1729 44.1177 59.2066 43.8507 59.51 43.6765L63.6658 41.2769C63.8222 41.1904 63.9965 41.1416 64.175 41.1343C64.3536 41.1269 64.5313 41.1614 64.6942 41.2348L68.9905 43.7187C69.2546 43.8704 69.2209 44.1373 68.9174 44.3144L64.7757 46.7112C64.6193 46.8005 64.4438 46.851 64.2638 46.8583C64.0839 46.8657 63.9048 46.8297 63.7417 46.7533Z" fill="url(#paint4_linear_216_2119)"/>
<path d="M64.1548 44.674L63.5591 44.3312C63.5225 44.3087 63.5253 44.2722 63.5591 44.2497L64.1351 43.9154C64.1576 43.905 64.182 43.8997 64.2067 43.8997C64.2315 43.8997 64.2559 43.905 64.2784 43.9154L64.8713 44.261C64.9078 44.2806 64.905 44.3172 64.8713 44.3424L64.3093 44.674C64.2861 44.6885 64.2593 44.6961 64.232 44.6961C64.2047 44.6961 64.1779 44.6885 64.1548 44.674Z" fill="white"/>
<path d="M59.4369 44.2694C59.4564 44.2538 59.477 44.2397 59.4987 44.2273L63.6545 41.8276C63.8108 41.7412 63.9852 41.6923 64.1637 41.685C64.3422 41.6777 64.52 41.7121 64.6829 41.7855L68.9904 44.2694C69.2349 44.0952 69.2461 43.8592 68.9904 43.7074L64.6885 41.2235C64.5256 41.1501 64.3478 41.1157 64.1693 41.123C63.9908 41.1304 63.8164 41.1792 63.6601 41.2657L59.5043 43.6653C59.2093 43.8507 59.1756 44.1177 59.4369 44.2694Z" fill="#171552"/>
<path d="M46.8657 81.0785L30.9984 72.0308C30.4196 71.6936 30.4898 71.1091 31.1614 70.7214L40.2906 65.4501C40.9622 65.0651 41.9765 65.023 42.5554 65.3573L58.4226 74.4051C59.0043 74.7395 58.9312 75.3267 58.2596 75.7117L49.1304 80.983C48.4589 81.3707 47.4473 81.4129 46.8657 81.0785Z" fill="#2137FF"/>
<path d="M59.8387 71.3591V34.3168L45.1066 30.4616L42.3951 28.8937C41.7713 28.5341 40.6867 28.5818 39.9674 28.9949L37.4385 30.456H29.585L31.9003 66.2255C31.899 66.3628 31.938 66.4974 32.0124 66.6127C32.0868 66.7281 32.1934 66.8191 32.3189 66.8746L47.0145 77.9651C47.6383 78.3247 48.7257 78.2798 49.4422 77.8639L59.2374 72.2077C59.6617 71.9576 59.8612 71.6485 59.8387 71.3591Z" fill="url(#paint5_linear_216_2119)"/>
<path d="M41.2712 28.655C40.8165 28.6621 40.3702 28.7787 39.9703 28.995L37.4414 30.4561H29.585V67.5968C29.5832 67.7339 29.6216 67.8684 29.6955 67.9838C29.7694 68.0992 29.8756 68.1903 30.0009 68.2459L47.023 77.954C47.3698 78.1319 47.7577 78.2143 48.1469 78.1928L48.324 40.8217L41.2712 28.655Z" fill="url(#paint6_linear_216_2119)"/>
<path d="M47.1804 78.0268C47.8091 78.2541 48.4988 78.2461 49.122 78.0044V40.3748H47.1804V78.0268Z" fill="#171552"/>
<path d="M47.023 40.8217L30.0009 31.1165C29.3771 30.7568 29.4557 30.1302 30.1751 29.7115L39.9702 24.0553C40.6896 23.6422 41.7742 23.5973 42.3979 23.9569L59.4201 33.6622C60.0438 34.0219 59.9652 34.6485 59.2458 35.0671L49.4507 40.7206C48.7342 41.1364 47.6355 41.1814 47.023 40.8217Z" fill="url(#paint7_linear_216_2119)"/>
<path d="M59.2457 34.3786L49.4505 40.032C48.734 40.4479 47.6466 40.4929 47.0228 40.1332L30.0007 30.428C29.8776 30.358 29.7712 30.2621 29.6888 30.147C29.4753 30.4898 29.5736 30.8635 30.0007 31.1108L47.0228 40.816C47.6466 41.1757 48.734 41.1307 49.4505 40.7148L59.2457 35.0614C59.8077 34.7383 59.9735 34.2887 59.7318 33.9375C59.6081 34.1219 59.4413 34.2734 59.2457 34.3786Z" fill="#FAFDFF"/>
<path d="M47.5035 36.8878L36.1713 30.3183C35.8903 30.1497 35.9156 29.8575 36.2528 29.6636L40.8357 27.0167C41.0085 26.9205 41.2014 26.8661 41.399 26.8578C41.5966 26.8495 41.7934 26.8876 41.9737 26.969L53.3058 33.5384C53.5868 33.707 53.5615 34.002 53.2243 34.1959L48.6415 36.84C48.4689 36.9369 48.2759 36.9917 48.0782 37C47.8804 37.0083 47.6836 36.9698 47.5035 36.8878Z" fill="#171552"/>
<path d="M41.3864 30.6133L40.7289 30.234C40.6895 30.2115 40.6951 30.1722 40.7289 30.1441L41.3639 29.7788C41.3883 29.7664 41.4152 29.76 41.4426 29.76C41.4699 29.76 41.4968 29.7664 41.5212 29.7788L42.1787 30.1581C42.2181 30.1834 42.2124 30.2227 42.1787 30.2508L41.5437 30.6161C41.5193 30.6287 41.4921 30.6351 41.4647 30.6346C41.4372 30.6341 41.4103 30.6268 41.3864 30.6133Z" fill="url(#paint8_linear_216_2119)"/>
<path d="M43.581 31.875L42.9235 31.4957C42.8841 31.4732 42.887 31.4339 42.9235 31.4058L43.5585 31.0405C43.5829 31.0282 43.6098 31.0217 43.6372 31.0217C43.6645 31.0217 43.6915 31.0282 43.7159 31.0405L44.3706 31.4198C44.4127 31.4451 44.4071 31.4845 44.3706 31.5126L43.7383 31.8778C43.7137 31.8898 43.6867 31.8957 43.6593 31.8952C43.632 31.8947 43.6052 31.8878 43.581 31.875Z" fill="url(#paint9_linear_216_2119)"/>
<path d="M45.7754 33.1367L45.1067 32.7574C45.0645 32.7349 45.0702 32.6956 45.1067 32.6675L45.7417 32.3022C45.7656 32.2899 45.7921 32.2834 45.819 32.2834C45.8459 32.2834 45.8724 32.2899 45.8963 32.3022L46.5538 32.6815C46.5959 32.7068 46.5903 32.7462 46.5538 32.7743L45.9215 33.1395C45.8983 33.1492 45.8733 33.1539 45.8482 33.1534C45.8231 33.1529 45.7983 33.1472 45.7754 33.1367Z" fill="url(#paint10_linear_216_2119)"/>
<path d="M47.9669 34.3982L47.3123 34.0189C47.2701 33.9964 47.2757 33.9543 47.3123 33.929L47.9445 33.5637C47.9689 33.5514 47.9958 33.5449 48.0231 33.5449C48.0505 33.5449 48.0774 33.5514 48.1018 33.5637L48.7593 33.943C48.7987 33.9683 48.7959 34.0077 48.7593 34.0358L48.1243 34.401C48.0995 34.4123 48.0725 34.4179 48.0453 34.4174C48.0181 34.417 47.9913 34.4104 47.9669 34.3982Z" fill="url(#paint11_linear_216_2119)"/>
<path d="M36.1712 30.3185H36.1853L36.2527 30.2707L40.8356 27.6266C41.0084 27.5304 41.2013 27.476 41.3989 27.4677C41.5965 27.4594 41.7933 27.4975 41.9736 27.5788L53.2917 34.1399C53.5727 33.9488 53.5727 33.6875 53.3057 33.5301L41.9736 26.9607C41.7933 26.8793 41.5965 26.8412 41.3989 26.8495C41.2013 26.8578 41.0084 26.9122 40.8356 27.0084L36.2527 29.6553C35.9155 29.8576 35.879 30.1499 36.1712 30.3185Z" fill="#A7B0FF"/>
<path d="M51.364 48.1608L57.8071 44.4715C58.0072 44.3288 58.171 44.141 58.2852 43.9233C58.3995 43.7056 58.4609 43.4641 58.4646 43.2183V40.9142C58.4646 40.4309 58.1695 40.2089 57.8071 40.4169L51.364 44.1062C51.1638 44.2495 51 44.4378 50.8858 44.656C50.7716 44.8741 50.7102 45.116 50.7065 45.3622V47.6803C50.7065 48.1496 51.0072 48.3716 51.364 48.1608Z" fill="#171552"/>
<path d="M58.1276 40.3467C58.1858 40.4116 58.2302 40.4877 58.2582 40.5703C58.2862 40.6528 58.2972 40.7402 58.2906 40.8272V43.1312C58.2872 43.3768 58.2262 43.6182 58.1125 43.8358C57.9988 44.0535 57.8355 44.2414 57.6359 44.3844L51.1901 48.0738C51.0962 48.1348 50.9834 48.1597 50.8726 48.144C50.9399 48.2033 51.0257 48.2374 51.1154 48.2404C51.2051 48.2435 51.293 48.2154 51.3643 48.1609L57.8073 44.4716C58.0075 44.3288 58.1713 44.141 58.2855 43.9234C58.3997 43.7057 58.4611 43.4642 58.4648 43.2184V40.9143C58.4648 40.5855 58.3271 40.3748 58.1276 40.3467Z" fill="#A7B0FF"/>
<path d="M51.364 64.8205L57.8071 61.1312C58.0072 60.9884 58.171 60.8007 58.2852 60.583C58.3995 60.3653 58.4609 60.1238 58.4646 59.878V57.5739C58.4646 57.0906 58.1695 56.8686 57.8071 57.0765L51.364 60.7659C51.1638 60.9092 51 61.0975 50.8858 61.3156C50.7716 61.5338 50.7102 61.7757 50.7065 62.0219V64.326C50.7065 64.8008 51.0072 65.0228 51.364 64.8205Z" fill="#171552"/>
<path d="M58.1276 56.998C58.1858 57.063 58.2302 57.1391 58.2582 57.2216C58.2862 57.3042 58.2972 57.3916 58.2906 57.4785V59.7826C58.287 60.0285 58.2259 60.2702 58.1123 60.4883C57.9986 60.7064 57.8354 60.8948 57.6359 61.0386L51.1901 64.728C51.0954 64.787 50.983 64.8109 50.8726 64.7954C50.9399 64.8547 51.0257 64.8887 51.1154 64.8918C51.2051 64.8949 51.293 64.8668 51.3643 64.8123L57.8073 61.1229C58.0075 60.9802 58.1713 60.7924 58.2855 60.5747C58.3997 60.357 58.4611 60.1155 58.4648 59.8697V57.5656C58.4648 57.2341 58.3271 57.0346 58.1276 56.998Z" fill="#A7B0FF"/>
<path d="M51.364 73.1379L57.8071 69.4485C58.0072 69.3058 58.171 69.118 58.2852 68.9003C58.3995 68.6827 58.4609 68.4412 58.4646 68.1953V65.8913C58.4646 65.408 58.1695 65.186 57.8071 65.3939L51.364 69.0833C51.1638 69.2266 51 69.4149 50.8858 69.633C50.7716 69.8512 50.7102 70.0931 50.7065 70.3393V72.6433C50.7065 73.1266 51.0072 73.3486 51.364 73.1379Z" fill="#171552"/>
<path d="M58.1276 65.3235C58.1858 65.3884 58.2302 65.4645 58.2582 65.5471C58.2862 65.6296 58.2972 65.717 58.2906 65.804V68.1081C58.287 68.354 58.2259 68.5956 58.1123 68.8137C57.9986 69.0318 57.8354 69.2203 57.6359 69.3641L51.1901 73.0534C51.0954 73.1125 50.983 73.1364 50.8726 73.1208C50.9399 73.1801 51.0257 73.2142 51.1154 73.2172C51.2051 73.2203 51.293 73.1922 51.3643 73.1377L57.8073 69.4484C58.0075 69.3056 58.1713 69.1179 58.2855 68.9002C58.3997 68.6825 58.4611 68.441 58.4648 68.1952V65.8911C58.4648 65.5623 58.3271 65.36 58.1276 65.3235Z" fill="#A7B0FF"/>
<path d="M53.303 70.6343L53.893 70.2943C53.9377 70.2624 53.974 70.2202 53.9989 70.1713C54.0239 70.1224 54.0367 70.0682 54.0363 70.0133V69.3811C54.0363 69.2743 53.9717 69.2265 53.893 69.2715L53.303 69.6143C53.2583 69.6462 53.222 69.6884 53.1971 69.7373C53.1722 69.7862 53.1593 69.8404 53.1597 69.8953V70.5275C53.1597 70.6315 53.2243 70.6821 53.303 70.6343Z" fill="white"/>
<path d="M55.2781 69.4933L55.8681 69.1533C55.9133 69.1219 55.95 69.0798 55.975 69.0308C56 68.9817 56.0125 68.9273 56.0114 68.8723V68.2485C56.0114 68.1417 55.9496 68.094 55.8681 68.1389L55.2781 68.4733C55.2334 68.5052 55.1971 68.5474 55.1722 68.5963C55.1472 68.6452 55.1344 68.6994 55.1348 68.7543V69.3865C55.1348 69.4905 55.1994 69.5411 55.2781 69.4933Z" fill="#396CAA"/>
<path d="M51.364 56.4865L57.8071 52.7972C58.0072 52.6545 58.171 52.4667 58.2852 52.249C58.3995 52.0313 58.4609 51.7898 58.4646 51.544V49.2399C58.4646 48.7566 58.1695 48.5346 57.8071 48.7425L51.364 52.4319C51.1638 52.5752 51 52.7635 50.8858 52.9816C50.7716 53.1998 50.7102 53.4417 50.7065 53.6879V55.992C50.7065 56.4753 51.0072 56.6973 51.364 56.4865Z" fill="#171552"/>
<path d="M58.1276 48.6724C58.1858 48.7373 58.2302 48.8134 58.2582 48.8959C58.2862 48.9785 58.2972 49.0659 58.2906 49.1529V51.4569C58.287 51.7028 58.2259 51.9445 58.1123 52.1626C57.9986 52.3807 57.8354 52.5692 57.6359 52.7129L51.1901 56.391C51.0962 56.452 50.9834 56.477 50.8726 56.4613C50.9399 56.5205 51.0257 56.5546 51.1154 56.5577C51.2051 56.5608 51.293 56.5327 51.3643 56.4781L57.8073 52.7888C58.0075 52.6461 58.1713 52.4583 58.2855 52.2406C58.3997 52.0229 58.4611 51.7814 58.4648 51.5356V49.2315C58.4648 48.9112 58.3271 48.7061 58.1276 48.6724Z" fill="#A7B0FF"/>
<path d="M45.3566 44.8087L31.3383 36.7219C31.2453 36.6551 31.1691 36.5674 31.116 36.466C31.0628 36.3645 31.034 36.252 31.032 36.1375V34.0076C31.032 33.78 31.1697 33.6789 31.3383 33.7744L45.351 41.8668C45.4443 41.9328 45.5206 42.0198 45.5739 42.1209C45.6271 42.222 45.6557 42.3342 45.6573 42.4484V44.5895C45.6685 44.8031 45.5252 44.9071 45.3566 44.8087Z" fill="url(#paint12_linear_216_2119)"/>
<path d="M34.2635 37.3261L32.1814 36.1206C32.0918 36.0562 32.0184 35.972 31.9667 35.8745C31.915 35.777 31.8866 35.6689 31.8835 35.5587C31.8835 35.3395 32.0184 35.2383 32.1814 35.3339L34.2719 36.5421C34.3623 36.6058 34.4363 36.6898 34.4881 36.7875C34.5398 36.8851 34.5678 36.9936 34.5698 37.1041C34.5613 37.3204 34.4293 37.4216 34.2635 37.3261Z" fill="#D4ECFF"/>
<path d="M36.0447 37.9612C36.0447 38.1804 35.893 38.2675 35.7019 38.1579C35.6023 38.0929 35.5194 38.0054 35.4598 37.9024C35.4003 37.7994 35.3658 37.6838 35.3591 37.5651C35.3591 37.3459 35.5137 37.2588 35.7019 37.3656C35.8021 37.4307 35.8854 37.5186 35.945 37.6222C36.0045 37.7257 36.0387 37.8419 36.0447 37.9612Z" fill="white"/>
<path d="M37.2559 38.658C37.2559 38.8771 37.1014 38.9671 36.9131 38.8575C36.813 38.7923 36.7297 38.7044 36.6701 38.6009C36.6105 38.4973 36.5763 38.3811 36.5703 38.2618C36.5703 38.0454 36.722 37.9555 36.9131 38.0651C37.0127 38.1301 37.0957 38.2177 37.1552 38.3207C37.2148 38.4236 37.2493 38.5392 37.2559 38.658Z" fill="white"/>
<path d="M38.4642 39.3577C38.4642 39.5741 38.3096 39.664 38.1214 39.5544C38.0217 39.4894 37.9388 39.4019 37.8793 39.2989C37.8197 39.1959 37.7852 39.0803 37.7786 38.9616C37.7786 38.7424 37.9331 38.6525 38.1214 38.762C38.221 38.8277 38.304 38.9157 38.3635 39.0192C38.423 39.1226 38.4575 39.2386 38.4642 39.3577Z" fill="white"/>
<path d="M39.6724 40.0545C39.6724 40.2736 39.5207 40.3608 39.3296 40.254C39.2299 40.1884 39.147 40.1003 39.0875 39.9968C39.0279 39.8934 38.9935 39.7775 38.9868 39.6583C38.9868 39.4391 39.1414 39.352 39.3296 39.4616C39.4297 39.5261 39.513 39.6135 39.5726 39.7166C39.6322 39.8197 39.6664 39.9355 39.6724 40.0545Z" fill="white"/>
<path d="M45.3566 49.8076L31.3383 41.718C31.2453 41.6512 31.1691 41.5635 31.116 41.4621C31.0628 41.3606 31.034 41.2481 31.032 41.1336V39.0037C31.032 38.7761 31.1697 38.675 31.3383 38.7705L45.351 46.8629C45.4443 46.9289 45.5206 47.0159 45.5739 47.117C45.6271 47.2181 45.6557 47.3303 45.6573 47.4445V49.5772C45.6685 49.802 45.5252 49.906 45.3566 49.8076Z" fill="url(#paint13_linear_216_2119)"/>
<path d="M34.2635 42.3248L32.1814 41.1194C32.0918 41.055 32.0184 40.9708 31.9667 40.8733C31.915 40.7758 31.8866 40.6677 31.8835 40.5574C31.8835 40.3383 32.0184 40.2371 32.1814 40.3327L34.2719 41.5409C34.3623 41.6045 34.4363 41.6886 34.4881 41.7862C34.5398 41.8839 34.5678 41.9924 34.5698 42.1029C34.5613 42.3192 34.4293 42.4204 34.2635 42.3248Z" fill="#D4ECFF"/>
<path d="M36.0447 42.96C36.0447 43.1792 35.893 43.2663 35.7019 43.1567C35.6023 43.0917 35.5194 43.0041 35.4598 42.9012C35.4003 42.7982 35.3658 42.6826 35.3591 42.5638C35.3591 42.3447 35.5137 42.2576 35.7019 42.3643C35.8021 42.4295 35.8854 42.5174 35.945 42.621C36.0045 42.7245 36.0387 42.8407 36.0447 42.96Z" fill="white"/>
<path d="M37.2559 43.6568C37.2559 43.8759 37.1014 43.9658 36.9131 43.8563C36.813 43.7911 36.7297 43.7032 36.6701 43.5996C36.6105 43.4961 36.5763 43.3799 36.5703 43.2606C36.5703 43.0442 36.722 42.9543 36.9131 43.0639C37.0127 43.1289 37.0957 43.2164 37.1552 43.3194C37.2148 43.4224 37.2493 43.538 37.2559 43.6568Z" fill="white"/>
<path d="M38.4642 44.3565C38.4642 44.5729 38.3096 44.6628 38.1214 44.5532C38.0217 44.4882 37.9388 44.4006 37.8793 44.2977C37.8197 44.1947 37.7852 44.0791 37.7786 43.9603C37.7786 43.7412 37.9331 43.6512 38.1214 43.7608C38.221 43.8265 38.304 43.9145 38.3635 44.018C38.423 44.1214 38.4575 44.2374 38.4642 44.3565Z" fill="white"/>
<path d="M39.6724 45.0533C39.6724 45.2724 39.5207 45.3595 39.3296 45.25C39.2297 45.1853 39.1465 45.0978 39.0869 44.9947C39.0273 44.8917 38.993 44.776 38.9868 44.6571C38.9868 44.4379 39.1414 44.3508 39.3296 44.4604C39.4297 44.5249 39.513 44.6123 39.5726 44.7154C39.6322 44.8185 39.6664 44.9343 39.6724 45.0533Z" fill="white"/>
<path d="M45.3566 54.8062L31.3383 46.7166C31.2453 46.6497 31.1691 46.562 31.116 46.4606C31.0628 46.3591 31.034 46.2467 31.032 46.1321V44.0023C31.032 43.7747 31.1697 43.6735 31.3383 43.769L45.351 51.8586C45.448 51.9257 45.5275 52.015 45.5827 52.1192C45.638 52.2233 45.6674 52.3392 45.6685 52.4571V54.5898C45.6685 54.8005 45.5252 54.9045 45.3566 54.8062Z" fill="url(#paint14_linear_216_2119)"/>
<path d="M34.2635 47.3236L32.1814 46.1182C32.0918 46.0538 32.0184 45.9695 31.9667 45.8721C31.915 45.7746 31.8866 45.6665 31.8835 45.5562C31.8835 45.3371 32.0184 45.2359 32.1814 45.3314L34.2719 46.5397C34.3623 46.6033 34.4363 46.6874 34.4881 46.785C34.5398 46.8827 34.5678 46.9911 34.5698 47.1016C34.5613 47.318 34.4293 47.4192 34.2635 47.3236Z" fill="#D4ECFF"/>
<path d="M36.0447 47.9615C36.0447 48.1807 35.893 48.2678 35.7019 48.1582C35.6023 48.0932 35.5194 48.0056 35.4598 47.9026C35.4003 47.7996 35.3658 47.6841 35.3591 47.5653C35.3591 47.3461 35.5137 47.259 35.7019 47.3658C35.8021 47.4309 35.8854 47.5189 35.945 47.6224C36.0045 47.726 36.0387 47.8422 36.0447 47.9615Z" fill="white"/>
<path d="M37.2559 48.6555C37.2559 48.8747 37.1014 48.9646 36.9131 48.855C36.813 48.7899 36.7297 48.702 36.6701 48.5984C36.6105 48.4949 36.5763 48.3787 36.5703 48.2593C36.5703 48.043 36.722 47.9531 36.9131 48.0627C37.0127 48.1277 37.0957 48.2152 37.1552 48.3182C37.2148 48.4212 37.2493 48.5368 37.2559 48.6555Z" fill="white"/>
<path d="M38.4642 49.3663C38.4642 49.5826 38.3096 49.6726 38.1214 49.563C38.0217 49.4979 37.9388 49.4104 37.8793 49.3074C37.8197 49.2044 37.7852 49.0889 37.7786 48.9701C37.7786 48.7509 37.9331 48.661 38.1214 48.7706C38.221 48.8362 38.304 48.9243 38.3635 49.0277C38.423 49.1312 38.4575 49.2471 38.4642 49.3663Z" fill="white"/>
<path d="M39.6724 50.052C39.6724 50.2712 39.5207 50.3583 39.3296 50.2515C39.2299 50.1859 39.147 50.0978 39.0875 49.9944C39.0279 49.891 38.9935 49.775 38.9868 49.6558C38.9868 49.4367 39.1414 49.3496 39.3296 49.4592C39.4297 49.5237 39.513 49.6111 39.5726 49.7142C39.6322 49.8173 39.6664 49.9331 39.6724 50.052Z" fill="white"/>
<path d="M45.3566 59.8049L31.3383 51.7154C31.2453 51.6485 31.1691 51.5608 31.116 51.4594C31.0628 51.3579 31.034 51.2454 31.032 51.1309V49.001C31.032 48.7734 31.1697 48.6723 31.3383 48.7678L45.351 56.8574C45.444 56.9243 45.5201 57.0119 45.5733 57.1134C45.6265 57.2148 45.6552 57.3273 45.6573 57.4418V59.5745C45.6685 59.7993 45.5252 59.9033 45.3566 59.8049Z" fill="url(#paint15_linear_216_2119)"/>
<path d="M34.2635 52.3224L32.1814 51.117C32.0918 51.0526 32.0184 50.9683 31.9667 50.8708C31.915 50.7734 31.8866 50.6653 31.8835 50.555C31.8835 50.3358 32.0184 50.2347 32.1814 50.3302L34.2719 51.5384C34.3623 51.6021 34.4363 51.6861 34.4881 51.7838C34.5398 51.8814 34.5678 51.9899 34.5698 52.1004C34.5613 52.3168 34.4293 52.4179 34.2635 52.3224Z" fill="#D4ECFF"/>
<path d="M36.0447 52.9573C36.0447 53.1765 35.893 53.2636 35.7019 53.154C35.6023 53.089 35.5194 53.0015 35.4598 52.8985C35.4003 52.7955 35.3658 52.6799 35.3591 52.5611C35.3591 52.342 35.5137 52.2549 35.7019 52.3616C35.8021 52.4268 35.8854 52.5147 35.945 52.6183C36.0045 52.7218 36.0387 52.838 36.0447 52.9573Z" fill="white"/>
<path d="M37.2559 53.6543C37.2559 53.8735 37.1014 53.9606 36.9131 53.8538C36.813 53.7887 36.7297 53.7007 36.6701 53.5972C36.6105 53.4936 36.5763 53.3774 36.5703 53.2581C36.5703 53.0418 36.722 52.9518 36.9131 53.0614C37.0127 53.1265 37.0957 53.214 37.1552 53.317C37.2148 53.42 37.2493 53.5355 37.2559 53.6543Z" fill="white"/>
<path d="M38.4642 54.3538C38.4642 54.5702 38.3096 54.6601 38.1214 54.5505C38.0217 54.4855 37.9388 54.398 37.8793 54.295C37.8197 54.192 37.7852 54.0764 37.7786 53.9576C37.7786 53.7385 37.9331 53.6486 38.1214 53.7581C38.221 53.8238 38.304 53.9118 38.3635 54.0153C38.423 54.1187 38.4575 54.2347 38.4642 54.3538Z" fill="white"/>
<path d="M39.6724 55.0508C39.6724 55.27 39.5207 55.3571 39.3296 55.2475C39.2297 55.1828 39.1465 55.0954 39.0869 54.9923C39.0273 54.8892 38.993 54.7735 38.9868 54.6546C38.9868 54.4355 39.1414 54.3484 39.3296 54.4579C39.4297 54.5225 39.513 54.6099 39.5726 54.713C39.6322 54.8161 39.6664 54.9319 39.6724 55.0508Z" fill="white"/>
<path d="M45.3566 64.8037L31.3383 56.7141C31.2453 56.6473 31.1691 56.5596 31.116 56.4581C31.0628 56.3567 31.034 56.2442 31.032 56.1297V53.9998C31.032 53.7722 31.1697 53.6711 31.3383 53.7666L45.351 61.8562C45.444 61.923 45.5201 62.0107 45.5733 62.1122C45.6265 62.2136 45.6552 62.3261 45.6573 62.4406V64.5733C45.6685 64.7981 45.5252 64.9021 45.3566 64.8037Z" fill="url(#paint16_linear_216_2119)"/>
<path d="M34.2635 57.3212L32.1814 56.1101C32.0918 56.0457 32.0184 55.9615 31.9667 55.864C31.915 55.7665 31.8866 55.6584 31.8835 55.5482C31.8835 55.329 32.0184 55.2278 32.1814 55.3234L34.2719 56.5316C34.3623 56.5953 34.4363 56.6793 34.4881 56.777C34.5398 56.8746 34.5678 56.9831 34.5698 57.0936C34.5613 57.3156 34.4293 57.4167 34.2635 57.3212Z" fill="#D4ECFF"/>
<path d="M36.0447 57.9561C36.0447 58.1753 35.893 58.2624 35.7019 58.1528C35.6023 58.0878 35.5194 58.0002 35.4598 57.8972C35.4003 57.7943 35.3658 57.6787 35.3591 57.5599C35.3591 57.3408 35.5137 57.2537 35.7019 57.3604C35.8021 57.4256 35.8854 57.5135 35.945 57.6171C36.0045 57.7206 36.0387 57.8368 36.0447 57.9561Z" fill="white"/>
<path d="M37.2559 58.6529C37.2559 58.872 37.1014 58.9591 36.9131 58.8523C36.813 58.7872 36.7297 58.6993 36.6701 58.5957C36.6105 58.4922 36.5763 58.376 36.5703 58.2567C36.5703 58.0403 36.722 57.9504 36.9131 58.06C37.0127 58.125 37.0957 58.2125 37.1552 58.3155C37.2148 58.4185 37.2493 58.5341 37.2559 58.6529Z" fill="white"/>
<path d="M38.4642 59.3526C38.4642 59.569 38.3096 59.6589 38.1214 59.5493C38.0217 59.4843 37.9388 59.3967 37.8793 59.2937C37.8197 59.1908 37.7852 59.0752 37.7786 58.9564C37.7786 58.7373 37.9331 58.6473 38.1214 58.7569C38.221 58.8226 38.304 58.9106 38.3635 59.0141C38.423 59.1175 38.4575 59.2334 38.4642 59.3526Z" fill="white"/>
<path d="M39.6724 60.0437C39.6724 60.2629 39.5207 60.35 39.3296 60.2404C39.2297 60.1757 39.1465 60.0883 39.0869 59.9852C39.0273 59.8822 38.993 59.7664 38.9868 59.6475C38.9868 59.4284 39.1414 59.3413 39.3296 59.4509C39.4297 59.5154 39.513 59.6028 39.5726 59.7059C39.6322 59.809 39.6664 59.9248 39.6724 60.0437Z" fill="white"/>
<path d="M45.3566 69.8025L31.3383 61.7129C31.2453 61.646 31.1691 61.5584 31.116 61.4569C31.0628 61.3555 31.034 61.243 31.032 61.1285V58.9986C31.032 58.771 31.1697 58.6698 31.3383 58.7654L45.351 66.8549C45.444 66.9218 45.5201 67.0095 45.5733 67.1109C45.6265 67.2124 45.6552 67.3249 45.6573 67.4394V69.5721C45.6685 69.7969 45.5252 69.9008 45.3566 69.8025Z" fill="url(#paint17_linear_216_2119)"/>
<path d="M34.2635 62.3197L32.1814 61.1143C32.0918 61.0499 32.0184 60.9656 31.9667 60.8682C31.915 60.7707 31.8866 60.6626 31.8835 60.5523C31.8835 60.3331 32.0184 60.232 32.1814 60.3275L34.2719 61.5358C34.3623 61.5994 34.4363 61.6835 34.4881 61.7811C34.5398 61.8788 34.5678 61.9872 34.5698 62.0977C34.5613 62.3141 34.4293 62.4153 34.2635 62.3197Z" fill="#D4ECFF"/>
<path d="M36.0447 62.9549C36.0447 63.1741 35.893 63.2612 35.7019 63.1516C35.6023 63.0866 35.5194 62.999 35.4598 62.896C35.4003 62.793 35.3658 62.6775 35.3591 62.5587C35.3591 62.3395 35.5137 62.2524 35.7019 62.3592C35.8021 62.4243 35.8854 62.5123 35.945 62.6158C36.0045 62.7194 36.0387 62.8356 36.0447 62.9549Z" fill="white"/>
<path d="M37.2559 63.6516C37.2559 63.8708 37.1014 63.9579 36.9131 63.8511C36.813 63.786 36.7297 63.698 36.6701 63.5945C36.6105 63.491 36.5763 63.3748 36.5703 63.2554C36.5703 63.0391 36.722 62.9492 36.9131 63.0587C37.0127 63.1238 37.0957 63.2113 37.1552 63.3143C37.2148 63.4173 37.2493 63.5328 37.2559 63.6516Z" fill="white"/>
<path d="M38.4642 64.3514C38.4642 64.5678 38.3096 64.6577 38.1214 64.5481C38.0217 64.4831 37.9388 64.3955 37.8793 64.2925C37.8197 64.1895 37.7852 64.074 37.7786 63.9552C37.7786 63.736 37.9331 63.6461 38.1214 63.7557C38.221 63.8213 38.304 63.9094 38.3635 64.0128C38.423 64.1163 38.4575 64.2322 38.4642 64.3514Z" fill="white"/>
<path d="M39.6724 65.0481C39.6724 65.2673 39.5207 65.3544 39.3296 65.2448C39.2297 65.1801 39.1465 65.0927 39.0869 64.9896C39.0273 64.8865 38.993 64.7708 38.9868 64.6519C38.9868 64.4328 39.1414 64.3457 39.3296 64.4553C39.4297 64.5198 39.513 64.6072 39.5726 64.7103C39.6322 64.8134 39.6664 64.9292 39.6724 65.0481Z" fill="white"/>
<path d="M45.3566 74.8013L31.3383 66.7117C31.2453 66.6448 31.1691 66.5572 31.116 66.4557C31.0628 66.3542 31.034 66.2418 31.032 66.1272V63.9974C31.032 63.7698 31.1697 63.6686 31.3383 63.7642L45.3566 71.8453C45.4496 71.9122 45.5257 71.9998 45.5789 72.1013C45.6321 72.2028 45.6608 72.3152 45.6629 72.4297V74.5624C45.6685 74.7957 45.5252 74.8996 45.3566 74.8013Z" fill="url(#paint18_linear_216_2119)"/>
<path d="M34.2635 67.3185L32.1814 66.1131C32.0918 66.0486 32.0184 65.9644 31.9667 65.8669C31.915 65.7695 31.8866 65.6614 31.8835 65.5511C31.8835 65.3319 32.0184 65.2308 32.1814 65.3263L34.2719 66.5345C34.3623 66.5982 34.4363 66.6822 34.4881 66.7799C34.5398 66.8775 34.5678 66.986 34.5698 67.0965C34.5613 67.3129 34.4293 67.414 34.2635 67.3185Z" fill="#D4ECFF"/>
<path d="M36.0447 67.9537C36.0447 68.1728 35.893 68.26 35.7019 68.1504C35.6023 68.0853 35.5194 67.9978 35.4598 67.8948C35.4003 67.7918 35.3658 67.6763 35.3591 67.5575C35.3591 67.3383 35.5137 67.2512 35.7019 67.358C35.8021 67.4231 35.8854 67.5111 35.945 67.6146C36.0045 67.7182 36.0387 67.8344 36.0447 67.9537Z" fill="white"/>
<path d="M37.2559 68.6504C37.2559 68.8696 37.1014 68.9567 36.9131 68.8499C36.813 68.7848 36.7297 68.6968 36.6701 68.5933C36.6105 68.4897 36.5763 68.3735 36.5703 68.2542C36.5703 68.0379 36.722 67.9479 36.9131 68.0575C37.0127 68.1226 37.0957 68.2101 37.1552 68.3131C37.2148 68.4161 37.2493 68.5316 37.2559 68.6504Z" fill="white"/>
<path d="M38.4642 69.3502C38.4642 69.5665 38.3096 69.6564 38.1214 69.5469C38.0217 69.4818 37.9388 69.3943 37.8793 69.2913C37.8197 69.1883 37.7852 69.0728 37.7786 68.954C37.7786 68.7348 37.9331 68.6449 38.1214 68.7545C38.221 68.8201 38.304 68.9082 38.3635 69.0116C38.423 69.1151 38.4575 69.231 38.4642 69.3502Z" fill="white"/>
<path d="M39.6724 70.0469C39.6724 70.2661 39.5207 70.3532 39.3296 70.2436C39.2297 70.1789 39.1465 70.0915 39.0869 69.9884C39.0273 69.8853 38.993 69.7696 38.9868 69.6507C38.9868 69.4316 39.1414 69.3444 39.3296 69.454C39.4297 69.5186 39.513 69.606 39.5726 69.7091C39.6322 69.8122 39.6664 69.928 39.6724 70.0469Z" fill="white"/>
<path d="M41.4538 30.2594C41.3942 30.2594 41.337 30.2358 41.2948 30.1936C41.2527 30.1514 41.229 30.0943 41.229 30.0346V20.7958C41.229 20.7362 41.2527 20.679 41.2948 20.6369C41.337 20.5947 41.3942 20.571 41.4538 20.571C41.5134 20.571 41.5706 20.5947 41.6127 20.6369C41.6549 20.679 41.6786 20.7362 41.6786 20.7958V30.0375C41.6778 30.0966 41.6538 30.153 41.6117 30.1946C41.5697 30.2361 41.5129 30.2594 41.4538 30.2594Z" fill="#A7B0FF"/>
<path d="M42.2631 20.2168H40.6587V23.6814H42.2631V20.2168Z" fill="url(#paint19_linear_216_2119)"/>
<path d="M42.0157 24.0075C41.8415 24.0956 41.6489 24.1415 41.4537 24.1415C41.2585 24.1415 41.0659 24.0956 40.8917 24.0075C40.8233 23.9843 40.7638 23.9403 40.7217 23.8815C40.6796 23.8228 40.657 23.7524 40.657 23.6801C40.657 23.6079 40.6796 23.5374 40.7217 23.4787C40.7638 23.42 40.8233 23.376 40.8917 23.3528C41.0663 23.2659 41.2587 23.2207 41.4537 23.2207C41.6487 23.2207 41.8411 23.2659 42.0157 23.3528C42.0841 23.376 42.1436 23.42 42.1857 23.4787C42.2278 23.5374 42.2504 23.6079 42.2504 23.6801C42.2504 23.7524 42.2278 23.8228 42.1857 23.8815C42.1436 23.9403 42.0841 23.9843 42.0157 24.0075Z" fill="url(#paint20_linear_216_2119)"/>
<path d="M42.7604 15.3867H40.1584V20.821H42.7604V15.3867Z" fill="#0147FF"/>
<path d="M40.6558 20.7844V21.959C40.9105 22.0647 41.1836 22.1191 41.4594 22.1191C41.7352 22.1191 42.0083 22.0647 42.263 21.959V20.7844C42.0083 20.6787 41.7352 20.6243 41.4594 20.6243C41.1836 20.6243 40.9105 20.6787 40.6558 20.7844Z" fill="#171552"/>
<path d="M42.3783 21.352C42.0934 21.4962 41.7787 21.5713 41.4594 21.5713C41.1402 21.5713 40.8254 21.4962 40.5406 21.352C40.032 21.071 40.032 20.5821 40.5406 20.2899C40.8254 20.1457 41.1402 20.0706 41.4594 20.0706C41.7787 20.0706 42.0934 20.1457 42.3783 20.2899C42.8869 20.5821 42.8869 21.0598 42.3783 21.352Z" fill="#0147FF"/>
<path d="M43.654 31.5716C43.6245 31.5716 43.5952 31.5657 43.568 31.5545C43.5407 31.5432 43.5159 31.5266 43.495 31.5057C43.4742 31.4849 43.4576 31.4601 43.4463 31.4328C43.435 31.4055 43.4292 31.3763 43.4292 31.3468V22.1108C43.4292 22.0512 43.4529 21.994 43.495 21.9518C43.5372 21.9097 43.5944 21.886 43.654 21.886C43.7136 21.886 43.7708 21.9097 43.8129 21.9518C43.8551 21.994 43.8788 22.0512 43.8788 22.1108V31.3496C43.878 31.4087 43.854 31.4652 43.812 31.5067C43.7699 31.5483 43.7131 31.5716 43.654 31.5716Z" fill="#A7B0FF"/>
<path d="M44.4548 21.5264H42.8503V24.9909H44.4548V21.5264Z" fill="url(#paint21_linear_216_2119)"/>
<path d="M44.2215 25.3168C44.0473 25.4049 43.8548 25.4509 43.6595 25.4509C43.4643 25.4509 43.2718 25.4049 43.0975 25.3168C43.0291 25.2936 42.9697 25.2496 42.9275 25.1909C42.8854 25.1321 42.8628 25.0617 42.8628 24.9895C42.8628 24.9172 42.8854 24.8468 42.9275 24.788C42.9697 24.7293 43.0291 24.6853 43.0975 24.6621C43.2721 24.5752 43.4645 24.53 43.6595 24.53C43.8545 24.53 44.0469 24.5752 44.2215 24.6621C44.2899 24.6853 44.3494 24.7293 44.3915 24.788C44.4336 24.8468 44.4562 24.9172 44.4562 24.9895C44.4562 25.0617 44.4336 25.1321 44.3915 25.1909C44.3494 25.2496 44.2899 25.2936 44.2215 25.3168Z" fill="url(#paint22_linear_216_2119)"/>
<path d="M44.955 16.699H42.353V22.1332H44.955V16.699Z" fill="#0147FF"/>
<path d="M42.8586 22.1107V23.2824C43.1126 23.3894 43.3853 23.4445 43.6609 23.4445C43.9364 23.4445 44.2092 23.3894 44.4631 23.2824V22.1107C44.2092 22.0036 43.9364 21.9485 43.6609 21.9485C43.3853 21.9485 43.1126 22.0036 42.8586 22.1107Z" fill="#171552"/>
<path d="M44.5728 22.6727C44.2879 22.8183 43.9725 22.8941 43.6526 22.8941C43.3327 22.8941 43.0173 22.8183 42.7324 22.6727C42.2266 22.3918 42.2266 21.9057 42.7324 21.6106C43.0177 21.4666 43.3329 21.3916 43.6526 21.3916C43.9722 21.3916 44.2874 21.4666 44.5728 21.6106C45.0814 21.8944 45.0814 22.3693 44.5728 22.6727Z" fill="#0147FF"/>
<path d="M45.8485 32.8838C45.819 32.8838 45.7898 32.878 45.7625 32.8667C45.7352 32.8554 45.7104 32.8388 45.6896 32.8179C45.6687 32.7971 45.6521 32.7723 45.6408 32.745C45.6295 32.7177 45.6237 32.6885 45.6237 32.659V23.4174C45.6202 23.3859 45.6233 23.3541 45.6329 23.324C45.6426 23.2938 45.6584 23.266 45.6795 23.2425C45.7006 23.2189 45.7264 23.2 45.7553 23.1871C45.7842 23.1742 45.8155 23.1675 45.8471 23.1675C45.8787 23.1675 45.91 23.1742 45.9389 23.1871C45.9678 23.2 45.9936 23.2189 46.0147 23.2425C46.0358 23.266 46.0516 23.2938 46.0613 23.324C46.0709 23.3541 46.074 23.3859 46.0705 23.4174V32.659C46.0709 32.6884 46.0654 32.7175 46.0544 32.7448C46.0434 32.7721 46.0271 32.7969 46.0065 32.8178C45.9858 32.8387 45.9612 32.8553 45.9341 32.8666C45.907 32.8779 45.8779 32.8838 45.8485 32.8838Z" fill="#A7B0FF"/>
<path d="M46.6494 22.8357H45.0449V26.3002H46.6494V22.8357Z" fill="url(#paint23_linear_216_2119)"/>
<path d="M46.4159 26.6289C46.2413 26.7158 46.0489 26.761 45.8539 26.761C45.6589 26.761 45.4666 26.7158 45.292 26.6289C45.2225 26.6064 45.162 26.5625 45.119 26.5034C45.0761 26.4443 45.053 26.3732 45.053 26.3002C45.053 26.2272 45.0761 26.156 45.119 26.097C45.162 26.0379 45.2225 25.994 45.292 25.9714C45.4666 25.8846 45.6589 25.8394 45.8539 25.8394C46.0489 25.8394 46.2413 25.8846 46.4159 25.9714C46.484 25.9953 46.543 26.0398 46.5848 26.0987C46.6265 26.1576 46.6489 26.228 46.6489 26.3002C46.6489 26.3724 46.6265 26.4428 46.5848 26.5017C46.543 26.5606 46.484 26.605 46.4159 26.6289Z" fill="url(#paint24_linear_216_2119)"/>
<path d="M47.1493 18.0083H44.5474V23.4426H47.1493V18.0083Z" fill="#0147FF"/>
<path d="M45.0449 23.4061V24.5778C45.2988 24.6848 45.5716 24.7399 45.8471 24.7399C46.1227 24.7399 46.3954 24.6848 46.6493 24.5778V23.4061C46.3954 23.299 46.1227 23.2439 45.8471 23.2439C45.5716 23.2439 45.2988 23.299 45.0449 23.4061Z" fill="#171552"/>
<path d="M46.7673 23.9708C46.4824 24.1164 46.167 24.1922 45.8471 24.1922C45.5271 24.1922 45.2118 24.1164 44.9268 23.9708C44.4183 23.6899 44.4183 23.2037 44.9268 22.9087C45.2122 22.7647 45.5274 22.6897 45.8471 22.6897C46.1667 22.6897 46.4819 22.7647 46.7673 22.9087C47.2759 23.2037 47.2759 23.6786 46.7673 23.9708Z" fill="#0147FF"/>
<path d="M48.0402 34.1931C47.9806 34.1931 47.9234 34.1695 47.8813 34.1273C47.8391 34.0852 47.8154 34.028 47.8154 33.9684V24.7267C47.8154 24.6671 47.8391 24.6099 47.8813 24.5678C47.9234 24.5256 47.9806 24.502 48.0402 24.502C48.0998 24.502 48.157 24.5256 48.1992 24.5678C48.2413 24.6099 48.265 24.6671 48.265 24.7267V33.9684C48.265 34.028 48.2413 34.0852 48.1992 34.1273C48.157 34.1695 48.0998 34.1931 48.0402 34.1931Z" fill="#A7B0FF"/>
<path d="M48.8437 24.1479H47.2393V27.6125H48.8437V24.1479Z" fill="url(#paint25_linear_216_2119)"/>
<path d="M48.6077 27.9384C48.4331 28.0253 48.2408 28.0705 48.0457 28.0705C47.8507 28.0705 47.6584 28.0253 47.4838 27.9384C47.4153 27.9153 47.3559 27.8712 47.3138 27.8125C47.2717 27.7538 47.249 27.6833 47.249 27.6111C47.249 27.5388 47.2717 27.4684 47.3138 27.4097C47.3559 27.351 47.4153 27.3069 47.4838 27.2837C47.658 27.1956 47.8505 27.1497 48.0457 27.1497C48.241 27.1497 48.4335 27.1956 48.6077 27.2837C48.6762 27.3069 48.7356 27.351 48.7777 27.4097C48.8198 27.4684 48.8425 27.5388 48.8425 27.6111C48.8425 27.6833 48.8198 27.7538 48.7777 27.8125C48.7356 27.8712 48.6762 27.9153 48.6077 27.9384Z" fill="url(#paint26_linear_216_2119)"/>
<path d="M49.3439 19.3179H46.7419V24.7521H49.3439V19.3179Z" fill="#0147FF"/>
<path d="M47.2393 24.7155V25.8872C47.4932 25.9942 47.7659 26.0493 48.0415 26.0493C48.317 26.0493 48.5898 25.9942 48.8437 25.8872V24.7155C48.5894 24.6098 48.3168 24.5554 48.0415 24.5554C47.7661 24.5554 47.4935 24.6098 47.2393 24.7155Z" fill="#171552"/>
<path d="M48.9616 25.283C48.6763 25.427 48.3611 25.5021 48.0414 25.5021C47.7218 25.5021 47.4066 25.427 47.1212 25.283C46.6126 24.988 46.6126 24.5131 47.1212 24.2209C47.4061 24.0754 47.7215 23.9995 48.0414 23.9995C48.3613 23.9995 48.6767 24.0754 48.9616 24.2209C49.4674 24.5131 49.4674 24.988 48.9616 25.283Z" fill="#0147FF"/>
<path d="M58.237 29.2534L61.7269 27.1994L58.4056 23.052L57.5317 24.4794L58.237 29.2534Z" fill="url(#paint27_linear_216_2119)"/>
<path d="M32.9089 6.49633L38.4781 3.28467C38.4781 3.28467 38.2673 6.48229 38.2673 6.48791C38.2673 6.49352 35.0697 7.49945 35.0697 7.49945L32.9089 6.49633Z" fill="url(#paint28_linear_216_2119)"/>
<path d="M59.2065 18.8261C58.8365 18.6045 58.4288 18.4531 58.0039 18.3794C57.4419 15.429 55.3879 12.296 52.9461 10.8827C52.3167 10.4979 51.6091 10.2589 50.8753 10.183C50.5409 6.60608 48.0654 2.54303 45.0364 0.800914C43.4601 -0.10948 42.0299 -0.216254 40.9733 0.340098L40.9228 0.371006L40.8413 0.415964L37.5594 2.35476L38.644 3.21458C37.6661 3.64168 37.0452 4.74033 37.0452 6.36443C37.0452 9.35693 39.1469 12.9957 41.7404 14.4933L59.2065 26.9663C61.1537 28.0902 62.7329 27.1798 62.7329 24.932C62.7329 22.6841 61.1537 19.9501 59.2065 18.8261Z" fill="url(#paint29_linear_216_2119)"/>
<path d="M37.208 5.04359L44.7412 0.643356C43.2801 -0.120925 41.9595 -0.182742 40.9676 0.339891L40.917 0.370799L40.8355 0.415757L37.5536 2.35456L38.6438 3.21437C38.2799 3.38828 37.961 3.6438 37.712 3.96107C37.463 4.27834 37.2905 4.64878 37.208 5.04359Z" fill="url(#paint30_linear_216_2119)"/>
<path d="M51.1226 17.9943L56.6271 14.7686C55.6774 13.1389 54.3792 11.7143 52.9406 10.8713C52.7581 10.7683 52.5705 10.6746 52.3786 10.5903L45.3877 14.6843L51.1226 17.9943Z" fill="url(#paint31_linear_216_2119)"/>
<path d="M39.1021 2.72276L41.5522 4.12769L46.048 1.48361C45.7267 1.23468 45.3898 1.00661 45.0393 0.800817C44.5497 0.509994 44.022 0.288704 43.4714 0.143311L39.1021 2.72276Z" fill="white"/>
<path d="M56.0145 13.8188L51.6255 16.4067L53.1512 18.0926L57.1356 15.7408C56.818 15.069 56.4429 14.426 56.0145 13.8188Z" fill="white"/>
<path d="M55.7615 20.8548C55.3895 20.6387 54.9809 20.493 54.5561 20.4249C53.9941 17.4745 51.9429 14.3415 49.4984 12.9282C48.8685 12.5439 48.1612 12.304 47.4275 12.2257C47.0931 8.65156 44.6177 4.5885 41.5858 2.84639C38.3404 0.969406 35.7076 2.48954 35.7076 6.23789C35.7076 6.36714 35.7076 6.49359 35.7076 6.62284C33.3333 5.52137 31.4788 6.76333 31.4788 9.576C31.4872 12.5573 33.5862 16.2101 36.1797 17.6909L55.7615 28.9977C57.7088 30.1217 59.2851 29.2085 59.2851 26.9606C59.2851 24.7127 57.7088 21.9787 55.7615 20.8548Z" fill="#D4ECFF"/>
<path d="M35.716 6.60885C35.716 6.47959 35.716 6.35315 35.716 6.2239V6.20985C34.4066 5.69845 33.2771 5.92886 32.5718 6.74091C33.3276 6.09464 34.4459 6.02159 35.716 6.60885Z" fill="white"/>
<path d="M56.0481 20.5765C55.6762 20.3597 55.2676 20.2131 54.8427 20.1438C54.2807 17.1934 52.2295 14.0605 49.785 12.6499C49.1562 12.2632 48.4484 12.0231 47.7141 11.9474C47.3797 8.3733 44.9042 4.30744 41.8724 2.56533C39.8521 1.39924 38.0679 1.54816 37.0085 2.73392C38.0875 1.81229 39.7369 1.77576 41.5858 2.84631C44.6064 4.58842 47.0931 8.65148 47.4275 12.2256C48.1612 12.3039 48.8685 12.5438 49.4984 12.9281C51.9457 14.333 53.9941 17.4744 54.5561 20.4248C54.9818 20.4973 55.3905 20.6478 55.7615 20.8687C57.7088 21.9927 59.2851 24.7267 59.2851 26.9746C59.3205 27.6464 59.1219 28.3097 58.7231 28.8515C59.2514 28.4441 59.5661 27.7051 59.5661 26.6964C59.5717 24.4344 57.9954 21.7005 56.0481 20.5765Z" fill="white"/>
<path d="M35.3001 7.49957L36.7725 8.18236L36.6994 6.56107C36.6994 6.44868 36.6994 6.33348 36.6994 6.22108C36.6994 4.77682 37.1378 3.72593 37.9301 3.26792C38.7225 2.80992 39.8493 2.95603 41.1025 3.68097C43.7971 5.23482 46.1602 9.0197 46.4552 12.3016L46.5114 13.1193L47.3544 13.1839C47.9408 13.2466 48.5061 13.4385 49.0094 13.7459C51.1477 14.9822 53.0781 17.8539 53.5951 20.5738L53.7243 21.2538L54.4099 21.3634C54.716 21.4179 55.0094 21.5284 55.2754 21.6893C56.9079 22.6728 58.3128 25.064 58.3128 26.9606C58.3128 27.6715 58.1161 28.1942 57.7733 28.3909C57.4305 28.5875 56.8798 28.5004 56.2645 28.1436L36.6769 16.8395C34.401 15.5245 32.4622 12.192 32.4622 9.562C32.4622 8.52798 32.7656 7.74402 33.3051 7.40403C33.54 7.26075 33.8113 7.18854 34.0863 7.1961C34.508 7.20852 34.9221 7.31204 35.3001 7.49957Z" fill="url(#paint32_linear_216_2119)"/>
<path d="M45.0757 19.7757L45.5899 19.5143L45.0813 19.1294L45.0757 19.7757Z" fill="#171552"/>
<path d="M43.5247 12.7961L44.0248 12.5432L44.0332 12.8073L43.5247 12.7961Z" fill="#5793CE"/>
<path d="M46.548 18.1433L47.0706 17.8792L46.0647 16.9238L46.548 18.1433Z" fill="#171552"/>
<path d="M45.4382 19.4976L42.9936 18.059C42.9268 18.0122 42.8717 17.9505 42.8327 17.8788C42.7937 17.8072 42.7718 17.7275 42.7688 17.6459V14.8164L45.6686 16.5192V19.3515C45.6686 19.5061 45.5618 19.5819 45.4382 19.4976Z" fill="#171552"/>
<path d="M44.0192 12.5572L41.3779 14.2431C41.2655 14.3162 41.3555 14.5831 41.5269 14.6842L44.2243 16.2718L46.9218 17.8622C47.0904 17.9605 47.1831 17.8004 47.0707 17.5812L44.4491 12.782C44.3367 12.5909 44.1316 12.4729 44.0192 12.5572Z" fill="#171552"/>
<path d="M44.9155 19.7618L42.4681 18.3231C42.4011 18.2767 42.3461 18.215 42.3076 18.1432C42.269 18.0714 42.2479 17.9916 42.2461 17.9101V15.0806L45.1487 16.7721V19.6044C45.1402 19.7702 45.0391 19.8348 44.9155 19.7618Z" fill="white"/>
<path d="M43.4938 12.81L40.8525 14.496C40.7401 14.569 40.8301 14.836 41.0015 14.9371L43.6989 16.5247L46.3964 18.1151C46.5678 18.2134 46.6577 18.0532 46.5481 17.8341L43.9237 13.0629C43.8113 12.855 43.609 12.737 43.4938 12.81Z" fill="white"/>
<path d="M6.23233 73.5734C6.05528 73.5729 5.88125 73.5275 5.72656 73.4413L0.264199 70.3505C0.184251 70.3044 0.117856 70.238 0.0716901 70.1581C0.0255246 70.0782 0.0012207 69.9876 0.0012207 69.8953C0.0012207 69.803 0.0255246 69.7123 0.0716901 69.6324C0.117856 69.5525 0.184251 69.4862 0.264199 69.4401L13.8864 61.5725C14.2713 61.3519 14.7072 61.2358 15.1508 61.2358C15.5945 61.2358 16.0304 61.3519 16.4153 61.5725L31.9847 70.564L31.7599 70.9546L16.1905 61.9631C15.8732 61.7809 15.5138 61.685 15.148 61.685C14.7822 61.685 14.4228 61.7809 14.1056 61.9631L0.483367 69.8307C0.471626 69.8374 0.461992 69.8473 0.455542 69.8592C0.449091 69.8711 0.446078 69.8846 0.446838 69.8981C0.446284 69.9112 0.449411 69.9242 0.455867 69.9356C0.462323 69.947 0.471851 69.9564 0.483367 69.9627L5.94573 73.0536C6.0378 73.1052 6.14223 73.1306 6.24772 73.1271C6.35321 73.1237 6.45574 73.0914 6.54423 73.0339L8.85112 71.5419L9.09558 71.9184L6.78869 73.4132C6.62227 73.5185 6.42925 73.5741 6.23233 73.5734Z" fill="#2137FF"/>
<path d="M13.3552 74.7702L6.013 70.5301C5.56342 70.2688 5.61962 69.8164 6.13944 69.5157L13.2287 65.4218C13.4961 65.2738 13.7942 65.1902 14.0996 65.1775C14.4049 65.1648 14.709 65.2234 14.9877 65.3487L22.3186 69.5972C22.7682 69.8557 22.712 70.3109 22.1922 70.6116L15.1029 74.7055C14.8363 74.8504 14.5398 74.9316 14.2366 74.9428C13.9334 74.954 13.6317 74.8949 13.3552 74.7702Z" fill="#2137FF"/>
<path d="M24.7521 66.3605V63.1882H17.6404L15.1818 61.7832C14.6198 61.4573 13.6335 61.5023 12.9817 61.876L10.686 63.1994H3.56864V66.4617C3.5674 66.5859 3.60233 66.7079 3.66919 66.8127C3.73604 66.9174 3.83192 67.0005 3.94516 67.0517L13.139 72.3595C13.701 72.6855 14.69 72.6405 15.3391 72.2668L24.2183 67.1416C24.5948 66.9028 24.7746 66.6218 24.7521 66.3605Z" fill="url(#paint33_linear_216_2119)"/>
<path d="M14.1618 61.5471C13.7489 61.5511 13.3435 61.6573 12.9817 61.8562L10.686 63.1796H3.56864V66.4419C3.5674 66.5662 3.60233 66.6881 3.66919 66.7929C3.73604 66.8977 3.83192 66.9807 3.94516 67.032L13.139 72.3398C13.4547 72.5013 13.8077 72.5759 14.1618 72.5561V61.5471Z" fill="#171552"/>
<path d="M4.36371 63.1768H3.56009V66.439C3.55885 66.5633 3.59378 66.6852 3.66063 66.79C3.72749 66.8948 3.82338 66.9778 3.93661 67.0291L4.36371 67.2763V63.1768Z" fill="white"/>
<path d="M13.2793 72.4073C13.8495 72.6144 14.4756 72.6074 15.0411 72.3876V68.6814H13.2793V72.4073Z" fill="white"/>
<path d="M13.139 69.0858L3.94515 63.778C3.38317 63.4521 3.45342 62.8817 4.1025 62.5052L12.9816 57.38C13.6335 57.0063 14.617 56.9641 15.1818 57.2901L24.3756 62.5979C24.9376 62.9238 24.8701 63.4914 24.2183 63.8679L15.3391 68.9931C14.69 69.3696 13.7038 69.4118 13.139 69.0858Z" fill="url(#paint34_linear_216_2119)"/>
<path d="M13.3046 68.1307L5.60002 63.6967C5.12796 63.4157 5.18697 62.9465 5.73208 62.6318L13.1726 58.3355C13.4526 58.1798 13.7651 58.0918 14.0852 58.0786C14.4053 58.0655 14.724 58.1274 15.0158 58.2596L22.7205 62.7076C23.1925 62.9886 23.1335 63.4579 22.5884 63.7726L15.1479 68.0688C14.8668 68.2223 14.5537 68.3079 14.2336 68.3186C13.9135 68.3293 13.5954 68.265 13.3046 68.1307Z" fill="#171552"/>
<path d="M21.3717 67.1978C21.3648 67.3266 21.3277 67.4521 21.2632 67.5639C21.1988 67.6757 21.1088 67.7707 21.0008 67.8412C20.7957 67.9592 20.6299 67.8637 20.6299 67.6249C20.6372 67.4961 20.6745 67.3708 20.7389 67.2591C20.8033 67.1474 20.893 67.0523 21.0008 66.9814C21.2059 66.8634 21.3717 66.9589 21.3717 67.1978Z" fill="white"/>
<path d="M22.566 66.5066C22.5594 66.6355 22.5223 66.761 22.4578 66.8728C22.3934 66.9847 22.3033 67.0797 22.1951 67.15C21.99 67.268 21.8242 67.1725 21.8242 66.9365C21.8311 66.8076 21.8682 66.6822 21.9327 66.5704C21.9971 66.4586 22.087 66.3635 22.1951 66.293C22.4002 66.175 22.566 66.2705 22.566 66.5066Z" fill="white"/>
<path d="M23.7518 65.8181C23.745 65.947 23.7078 66.0724 23.6433 66.1842C23.5789 66.296 23.489 66.391 23.3809 66.4615C23.1758 66.5796 23.01 66.484 23.01 66.2452C23.0171 66.1168 23.0544 65.9918 23.1188 65.8805C23.1833 65.7692 23.2731 65.6746 23.3809 65.6045C23.5945 65.4837 23.7518 65.5821 23.7518 65.8181Z" fill="white"/>
<path d="M24.7521 61.2914V58.1191H17.6404L15.1818 56.7141C14.6198 56.3882 13.6335 56.4332 12.9817 56.8069L10.686 58.1303H3.56864V61.3926C3.5674 61.5168 3.60233 61.6388 3.66919 61.7436C3.73604 61.8483 3.83192 61.9314 3.94516 61.9826L13.139 67.2905C13.701 67.6164 14.69 67.5714 15.3391 67.1977L24.2183 62.0725C24.5948 61.8337 24.7746 61.5527 24.7521 61.2914Z" fill="url(#paint35_linear_216_2119)"/>
<path d="M14.1618 56.478C13.7489 56.4821 13.3435 56.5882 12.9817 56.7871L10.686 58.1106H3.56864V61.3728C3.5674 61.4971 3.60233 61.619 3.66919 61.7238C3.73604 61.8286 3.83192 61.9116 3.94516 61.9629L13.139 67.2707C13.4547 67.4322 13.8077 67.5069 14.1618 67.487V56.478Z" fill="#171552"/>
<path d="M4.36371 58.1079H3.56009V61.3702C3.55885 61.4944 3.59378 61.6164 3.66063 61.7212C3.72749 61.8259 3.82338 61.909 3.93661 61.9602L4.36371 62.2047V58.1079Z" fill="white"/>
<path d="M13.2793 67.3494C13.8499 67.5543 14.4752 67.5473 15.0411 67.3297V63.6123H13.2793V67.3494Z" fill="white"/>
<path d="M13.139 64.017L3.94515 58.7092C3.38317 58.3832 3.45342 57.8128 4.1025 57.4363L12.9816 52.3111C13.6335 51.9374 14.617 51.8953 15.1818 52.2212L24.3756 57.529C24.9376 57.855 24.8701 58.4226 24.2183 58.7991L15.3391 63.9243C14.69 64.3008 13.7038 64.3429 13.139 64.017Z" fill="url(#paint36_linear_216_2119)"/>
<path d="M13.3046 63.0617L5.60002 58.6137C5.12796 58.3327 5.18697 57.8635 5.73208 57.5488L13.1726 53.2525C13.4526 53.0968 13.7651 53.0088 14.0852 52.9956C14.4053 52.9825 14.724 53.0444 15.0158 53.1766L22.7205 57.6246C23.1925 57.9056 23.1335 58.3748 22.5884 58.6896L15.1479 62.9858C14.8679 63.1415 14.5554 63.2295 14.2353 63.2427C13.9152 63.2559 13.5965 63.1939 13.3046 63.0617Z" fill="#171552"/>
<path d="M21.3717 62.1287C21.3644 62.2574 21.327 62.3827 21.2626 62.4944C21.1982 62.6062 21.1085 62.7013 21.0008 62.7721C20.7957 62.8902 20.6299 62.7946 20.6299 62.5558C20.6372 62.427 20.6745 62.3018 20.7389 62.19C20.8033 62.0783 20.893 61.9832 21.0008 61.9123C21.2059 61.7943 21.3717 61.8898 21.3717 62.1287Z" fill="white"/>
<path d="M22.566 61.4486C22.5592 61.5775 22.522 61.7029 22.4575 61.8147C22.3931 61.9266 22.3032 62.0216 22.1951 62.0921C21.99 62.2101 21.8242 62.1146 21.8242 61.8786C21.8311 61.7497 21.8682 61.6243 21.9327 61.5125C21.9971 61.4007 22.087 61.3056 22.1951 61.2351C22.4002 61.1058 22.566 61.2014 22.566 61.4486Z" fill="white"/>
<path d="M23.7518 60.749C23.7445 60.8778 23.7072 61.0031 23.6428 61.1148C23.5783 61.2265 23.4887 61.3216 23.3809 61.3925C23.1758 61.5105 23.01 61.415 23.01 61.1761C23.0173 61.0474 23.0547 60.9221 23.1191 60.8104C23.1835 60.6986 23.2732 60.6035 23.3809 60.5327C23.5945 60.4147 23.7518 60.5102 23.7518 60.749Z" fill="white"/>
<path d="M24.7519 56.2225V53.0501H17.6402L15.1816 51.6143C14.6196 51.2884 13.6333 51.3333 12.9814 51.707L10.6858 53.0305H3.56842V56.2927C3.56665 56.4167 3.6014 56.5385 3.66835 56.643C3.7353 56.7474 3.83149 56.8298 3.94494 56.88L13.1388 62.1878C13.7008 62.5137 14.6898 62.4688 15.3389 62.0979L24.2181 56.9727C24.5946 56.7648 24.7744 56.4838 24.7519 56.2225Z" fill="url(#paint37_linear_216_2119)"/>
<path d="M14.1616 51.4062C13.7486 51.4123 13.3435 51.5194 12.9814 51.7181L10.6858 53.0416H3.56842V56.3038C3.56665 56.4279 3.6014 56.5497 3.66835 56.6541C3.7353 56.7585 3.83149 56.8409 3.94494 56.8911L13.1388 62.1989C13.4543 62.3614 13.8072 62.437 14.1616 62.4181V51.4062Z" fill="#171552"/>
<path d="M4.36374 53.0388H3.56012V56.3011C3.55835 56.4251 3.5931 56.5469 3.66005 56.6513C3.727 56.7557 3.82319 56.8382 3.93664 56.8883L4.36374 57.1356V53.0388Z" fill="white"/>
<path d="M13.2793 62.2665C13.8499 62.4714 14.4752 62.4644 15.0411 62.2468V58.5435H13.2793V62.2665Z" fill="white"/>
<path d="M13.139 58.9481L3.94515 53.6403C3.38317 53.3144 3.45342 52.7439 4.1025 52.3674L12.9816 47.2423C13.6335 46.8657 14.617 46.8264 15.1818 47.1523L24.3756 52.4573C24.9376 52.7833 24.8701 53.3509 24.2183 53.7274L15.3391 58.8526C14.69 59.2319 13.7038 59.2741 13.139 58.9481Z" fill="url(#paint38_linear_216_2119)"/>
<path d="M24.2181 53.1064L15.3389 58.2316C14.6899 58.6081 13.7036 58.6474 13.1388 58.3215L3.94498 53.0193C3.83352 52.9596 3.73735 52.875 3.66399 52.772C3.47011 53.0839 3.55722 53.4211 3.94498 53.6459L13.1388 58.9537C13.7008 59.2796 14.6899 59.2347 15.3389 58.861L24.2181 53.7358C24.7239 53.4548 24.8784 53.0361 24.6564 52.7158C24.5435 52.879 24.3932 53.0129 24.2181 53.1064Z" fill="white"/>
<path d="M21.3717 57.0598C21.3646 57.1883 21.3273 57.3132 21.2629 57.4245C21.1984 57.5359 21.1086 57.6304 21.0008 57.7005C20.7957 57.8213 20.6299 57.723 20.6299 57.4869C20.6367 57.3581 20.6739 57.2326 20.7384 57.1208C20.8028 57.009 20.8927 56.914 21.0008 56.8435C21.2059 56.7255 21.3717 56.821 21.3717 57.0598Z" fill="white"/>
<path d="M22.566 56.3686C22.5592 56.4975 22.522 56.6229 22.4575 56.7347C22.3931 56.8465 22.3032 56.9415 22.1951 57.0121C21.99 57.1301 21.8242 57.0346 21.8242 56.7985C21.8309 56.6696 21.8679 56.5441 21.9324 56.4323C21.9969 56.3204 22.0869 56.2254 22.1951 56.1551C22.4002 56.0371 22.566 56.1326 22.566 56.3686Z" fill="white"/>
<path d="M23.7518 55.6802C23.7445 55.809 23.7072 55.9342 23.6428 56.046C23.5783 56.1577 23.4887 56.2528 23.3809 56.3237C23.1758 56.4417 23.01 56.3433 23.01 56.1073C23.0169 55.9784 23.054 55.853 23.1185 55.7412C23.1829 55.6294 23.2728 55.5344 23.3809 55.4638C23.5945 55.3458 23.7518 55.4414 23.7518 55.6802Z" fill="white"/>
<path d="M13.6812 55.6547L9.37936 53.1736C9.11523 53.0191 9.14894 52.7521 9.45522 52.5779L13.6082 50.1783C13.765 50.0918 13.9399 50.0429 14.1188 50.0356C14.2978 50.0283 14.476 50.0627 14.6394 50.1362L18.9413 52.6201C19.2054 52.7718 19.1717 53.0387 18.8654 53.2158L14.7125 55.6126C14.5564 55.7015 14.3814 55.7517 14.202 55.759C14.0226 55.7663 13.844 55.7306 13.6812 55.6547Z" fill="url(#paint39_linear_216_2119)"/>
<path d="M14.0942 53.5812L13.4985 53.2384C13.4619 53.2187 13.4676 53.1794 13.4985 53.1569L14.0604 52.8254C14.0825 52.8135 14.1071 52.8074 14.1321 52.8074C14.1571 52.8074 14.1817 52.8135 14.2037 52.8254L14.7994 53.1682C14.836 53.1878 14.8304 53.2244 14.7994 53.2496L14.2375 53.5812C14.2154 53.593 14.1908 53.5992 14.1658 53.5992C14.1408 53.5992 14.1162 53.593 14.0942 53.5812Z" fill="#D4ECFF"/>
<path d="M9.37941 53.1738C9.3991 53.1584 9.41975 53.1443 9.44123 53.1316L13.5942 50.732C13.751 50.6455 13.9259 50.5966 14.1048 50.5893C14.2838 50.582 14.462 50.6164 14.6254 50.6898L18.9133 53.1681C19.1577 52.9939 19.1718 52.7551 18.9273 52.6062L14.6254 50.1222C14.462 50.0488 14.2838 50.0144 14.1048 50.0217C13.9259 50.029 13.751 50.0779 13.5942 50.1644L9.44123 52.564C9.14057 52.7523 9.11528 53.0192 9.37941 53.1738Z" fill="#171552"/>
<path d="M12.5461 59.8752C12.5461 60.0326 12.4337 60.0972 12.296 60.0185C12.2237 59.9706 12.1636 59.9066 12.1202 59.8315C12.0768 59.7564 12.0514 59.6723 12.0459 59.5858C12.0459 59.4257 12.1583 59.361 12.296 59.4397C12.3686 59.4879 12.429 59.5524 12.4724 59.628C12.5158 59.7036 12.541 59.7882 12.5461 59.8752Z" fill="white"/>
<path d="M11.7704 59.4286C11.7704 59.5887 11.658 59.6534 11.5203 59.5747C11.4481 59.5267 11.3879 59.4627 11.3446 59.3877C11.3012 59.3126 11.2757 59.2285 11.2703 59.142C11.2703 58.9818 11.3827 58.9172 11.5203 58.9959C11.5926 59.0438 11.6527 59.1078 11.6961 59.1829C11.7395 59.258 11.7649 59.342 11.7704 59.4286Z" fill="white"/>
<path d="M12.5461 60.8082C12.5461 60.9684 12.4337 61.033 12.296 60.9543C12.2237 60.9064 12.1636 60.8424 12.1202 60.7673C12.0768 60.6922 12.0514 60.6081 12.0459 60.5216C12.0459 60.3615 12.1583 60.2968 12.296 60.3755C12.3682 60.4234 12.4284 60.4875 12.4718 60.5625C12.5152 60.6376 12.5406 60.7217 12.5461 60.8082Z" fill="white"/>
<path d="M11.7704 60.3641C11.7704 60.5243 11.658 60.5889 11.5203 60.5102C11.4481 60.4623 11.3879 60.3983 11.3446 60.3232C11.3012 60.2481 11.2757 60.164 11.2703 60.0775C11.2703 59.9174 11.3827 59.8527 11.5203 59.9314C11.5926 59.9794 11.6527 60.0434 11.6961 60.1184C11.7395 60.1935 11.7649 60.2776 11.7704 60.3641Z" fill="white"/>
<path d="M12.5461 64.9189C12.5461 65.0763 12.4337 65.1409 12.296 65.0622C12.2237 65.0143 12.1636 64.9503 12.1202 64.8752C12.0768 64.8001 12.0514 64.716 12.0459 64.6295C12.0459 64.4693 12.1583 64.4047 12.296 64.4862C12.3682 64.5341 12.4284 64.5982 12.4718 64.6732C12.5152 64.7483 12.5406 64.8324 12.5461 64.9189Z" fill="white"/>
<path d="M11.7704 64.4723C11.7704 64.6324 11.658 64.6971 11.5203 64.6184C11.4481 64.5704 11.3879 64.5064 11.3446 64.4314C11.3012 64.3563 11.2757 64.2722 11.2703 64.1857C11.2703 64.0255 11.3827 63.9609 11.5203 64.0396C11.5926 64.0875 11.6527 64.1515 11.6961 64.2266C11.7395 64.3017 11.7649 64.3857 11.7704 64.4723Z" fill="white"/>
<path d="M12.5461 65.8547C12.5461 66.0121 12.4337 66.0767 12.296 65.998C12.2237 65.9501 12.1636 65.886 12.1202 65.811C12.0768 65.7359 12.0514 65.6518 12.0459 65.5653C12.0459 65.4051 12.1583 65.3405 12.296 65.422C12.3682 65.4699 12.4284 65.5339 12.4718 65.609C12.5152 65.6841 12.5406 65.7682 12.5461 65.8547Z" fill="white"/>
<path d="M11.7704 65.4078C11.7704 65.568 11.658 65.6326 11.5203 65.5539C11.4481 65.506 11.3879 65.442 11.3446 65.3669C11.3012 65.2918 11.2757 65.2078 11.2703 65.1212C11.2703 64.9611 11.3827 64.8964 11.5203 64.9751C11.5926 65.0231 11.6527 65.0871 11.6961 65.1621C11.7395 65.2372 11.7649 65.3213 11.7704 65.4078Z" fill="white"/>
<path d="M12.5461 69.9626C12.5461 70.1228 12.4337 70.1874 12.296 70.1059C12.2237 70.058 12.1636 69.994 12.1202 69.9189C12.0768 69.8438 12.0514 69.7597 12.0459 69.6732C12.0459 69.513 12.1583 69.4484 12.296 69.5299C12.3682 69.5778 12.4284 69.6419 12.4718 69.7169C12.5152 69.792 12.5406 69.8761 12.5461 69.9626Z" fill="white"/>
<path d="M11.7704 69.5188C11.7704 69.6761 11.658 69.7408 11.5203 69.6621C11.4481 69.6141 11.3879 69.5501 11.3446 69.475C11.3012 69.4 11.2757 69.3159 11.2703 69.2294C11.2703 69.0692 11.3827 69.0046 11.5203 69.086C11.5926 69.134 11.6527 69.198 11.6961 69.2731C11.7395 69.3481 11.7649 69.4322 11.7704 69.5188Z" fill="white"/>
<path d="M12.5461 70.8984C12.5461 71.0558 12.4337 71.1204 12.296 71.0417C12.2237 70.9938 12.1636 70.9298 12.1202 70.8547C12.0768 70.7796 12.0514 70.6955 12.0459 70.609C12.0459 70.4488 12.1583 70.3842 12.296 70.4657C12.3682 70.5136 12.4284 70.5776 12.4718 70.6527C12.5152 70.7278 12.5406 70.8119 12.5461 70.8984Z" fill="white"/>
<path d="M11.7704 70.4543C11.7704 70.6117 11.658 70.6763 11.5203 70.5976C11.4481 70.5497 11.3879 70.4857 11.3446 70.4106C11.3012 70.3355 11.2757 70.2515 11.2703 70.1649C11.2703 70.0048 11.3827 69.9401 11.5203 70.0188C11.5929 70.067 11.6533 70.1315 11.6967 70.2071C11.7401 70.2827 11.7654 70.3673 11.7704 70.4543Z" fill="white"/>
<path d="M14.2798 78.5412C14.0126 78.5414 13.7501 78.4717 13.5183 78.3388L8.88763 75.6498C8.81054 75.6059 8.74644 75.5423 8.70186 75.4655C8.65728 75.3888 8.63379 75.3016 8.63379 75.2129C8.63379 75.1241 8.65728 75.037 8.70186 74.9602C8.74644 74.8835 8.81054 74.8199 8.88763 74.7759L11.9335 73.0086L12.1583 73.3963L9.11242 75.1637C9.10401 75.1686 9.097 75.1755 9.09207 75.1839C9.08715 75.1923 9.08448 75.2018 9.08432 75.2115C9.08398 75.2217 9.08641 75.2318 9.09136 75.2407C9.09631 75.2496 9.10359 75.257 9.11242 75.2621L13.7459 77.9483C13.9076 78.0407 14.0907 78.0893 14.2769 78.0893C14.4632 78.0893 14.6463 78.0407 14.808 77.9483L23.881 72.7781C24.1111 72.6463 24.3717 72.5769 24.6369 72.5769C24.9021 72.5769 25.1626 72.6463 25.3927 72.7781L32.9934 77.184C33.156 77.2785 33.3406 77.3283 33.5287 77.3283C33.7167 77.3283 33.9014 77.2785 34.064 77.184L37.7168 75.0654L37.9416 75.4531L34.2887 77.5718C34.0576 77.7049 33.7955 77.775 33.5287 77.775C33.2619 77.775 32.9998 77.7049 32.7686 77.5718L25.182 73.1799C25.0198 73.0873 24.8363 73.0386 24.6495 73.0386C24.4628 73.0386 24.2792 73.0873 24.1171 73.1799L15.0412 78.3445C14.809 78.4757 14.5464 78.5435 14.2798 78.5412Z" fill="#2137FF"/>
<path d="M54.5252 95.6474L47.1831 91.4073C46.7307 91.146 46.7897 90.6936 47.3095 90.393L54.3988 86.299C54.6658 86.1515 54.9635 86.0681 55.2683 86.0554C55.5731 86.0427 55.8766 86.1011 56.155 86.226L63.4971 90.466C63.9467 90.7245 63.8905 91.1797 63.3707 91.4804L56.2814 95.5744C56.0144 95.7219 55.7167 95.8053 55.4119 95.818C55.1071 95.8306 54.8036 95.7723 54.5252 95.6474Z" fill="#2137FF"/>
<path d="M65.9332 87.2376V84.0653H58.8186L56.36 82.6463C55.798 82.3203 54.8118 82.3653 54.1599 82.739L51.867 84.0624H44.7469V87.3247C44.7455 87.4494 44.7807 87.5717 44.8481 87.6766C44.9155 87.7814 45.0122 87.8642 45.1262 87.9148L54.3172 93.2226C54.8792 93.5485 55.8683 93.5036 56.5202 93.1299L65.3965 88.0047C65.773 87.7799 65.9529 87.4989 65.9332 87.2376Z" fill="url(#paint40_linear_216_2119)"/>
<path d="M55.34 82.4243C54.9272 82.4287 54.5218 82.5349 54.1599 82.7334L51.867 84.0568H44.7469V87.3191C44.7455 87.4438 44.7807 87.5661 44.8481 87.6709C44.9155 87.7758 45.0122 87.8586 45.1262 87.9092L54.3172 93.217C54.633 93.3785 54.9859 93.4531 55.34 93.4333V82.4243Z" fill="#171552"/>
<path d="M45.5533 84.054H44.7469V87.3162C44.7455 87.4409 44.7807 87.5632 44.8481 87.6681C44.9155 87.7729 45.0122 87.8557 45.1262 87.9063L45.5533 88.1507V84.054Z" fill="white"/>
<path d="M54.4604 93.2817C55.03 93.4873 55.6546 93.4803 56.2194 93.262V89.5474H54.4604V93.2817Z" fill="white"/>
<path d="M54.3173 89.9633L45.1263 84.6555C44.5643 84.3295 44.6317 83.7591 45.2836 83.3826L54.16 78.2574C54.8118 77.8837 55.7981 77.8416 56.3601 78.1675L65.5539 83.4753C66.1159 83.8013 66.0485 84.3689 65.3966 84.7454L56.5202 89.8706C55.8683 90.2471 54.8821 90.2892 54.3173 89.9633Z" fill="url(#paint41_linear_216_2119)"/>
<path d="M54.4832 89.0078L46.7926 84.5598C46.3206 84.2788 46.3796 83.8095 46.9275 83.4948L54.3652 79.1986C54.6457 79.0428 54.9587 78.9548 55.2792 78.9417C55.5998 78.9285 55.919 78.9905 56.2113 79.1227L63.9131 83.5707C64.3879 83.8517 64.3289 84.3209 63.781 84.6356L56.3433 88.9319C56.0611 89.0899 55.7455 89.1792 55.4223 89.1923C55.0991 89.2055 54.7774 89.1423 54.4832 89.0078Z" fill="#171552"/>
<path d="M62.5504 88.075C62.5431 88.2037 62.5057 88.329 62.4413 88.4407C62.3769 88.5525 62.2873 88.6476 62.1795 88.7184C61.9744 88.8364 61.8086 88.7409 61.8086 88.5021C61.8159 88.3733 61.8532 88.248 61.9177 88.1363C61.9821 88.0246 62.0717 87.9295 62.1795 87.8586C62.3846 87.7406 62.5504 87.8361 62.5504 88.075Z" fill="white"/>
<path d="M63.7471 87.3837C63.7397 87.5128 63.702 87.6383 63.637 87.7501C63.5721 87.8619 63.4818 87.9568 63.3733 88.0272C63.171 88.1452 63.0024 88.0497 63.0024 87.8137C63.011 87.6852 63.0489 87.5604 63.1132 87.4489C63.1775 87.3373 63.2665 87.242 63.3733 87.1702C63.5785 87.0522 63.7471 87.1477 63.7471 87.3837Z" fill="white"/>
<path d="M64.9415 86.6953C64.9342 86.8241 64.8969 86.9494 64.8324 87.0611C64.768 87.1728 64.6784 87.2679 64.5706 87.3388C64.3655 87.4568 64.1997 87.3613 64.1997 87.1224C64.207 86.9937 64.2444 86.8684 64.3088 86.7567C64.3732 86.6449 64.4628 86.5498 64.5706 86.479C64.7757 86.361 64.9415 86.4565 64.9415 86.6953Z" fill="white"/>
<path d="M65.9332 82.1687V78.9964H58.8186L56.36 77.5774C55.798 77.2515 54.8118 77.2964 54.1599 77.6702L51.8671 78.9936H44.7469V82.2418C44.7453 82.3661 44.7805 82.4882 44.848 82.5926C44.9155 82.6971 45.0122 82.7793 45.1262 82.8291L54.3172 88.1425C54.8792 88.4684 55.8683 88.4235 56.5202 88.0526L65.3965 82.9274C65.773 82.711 65.9529 82.43 65.9332 82.1687Z" fill="url(#paint42_linear_216_2119)"/>
<path d="M55.34 77.3525C54.9272 77.3593 54.5222 77.4663 54.1599 77.6644L51.8671 78.9879H44.7469V82.2417C44.7453 82.366 44.7805 82.4881 44.848 82.5925C44.9155 82.697 45.0122 82.7792 45.1262 82.8289L54.3172 88.1424C54.6327 88.3049 54.9857 88.3805 55.34 88.3616V77.3525Z" fill="#171552"/>
<path d="M45.5533 78.9851H44.7469V82.2417C44.7453 82.3661 44.7805 82.4881 44.848 82.5926C44.9155 82.697 45.0122 82.7793 45.1262 82.829L45.5533 83.0763V78.9851Z" fill="white"/>
<path d="M54.4604 88.2126C55.03 88.4182 55.6546 88.4112 56.2194 88.1929V84.4895H54.4604V88.2126Z" fill="white"/>
<path d="M54.3173 84.8942L45.1263 79.5863C44.5643 79.2604 44.6317 78.69 45.2836 78.3135L54.16 73.1883C54.8118 72.8118 55.7981 72.7724 56.3601 73.0984L65.5539 78.4062C66.1159 78.7321 66.0485 79.2997 65.3966 79.6763L56.5202 84.8014C55.8683 85.178 54.8821 85.2201 54.3173 84.8942Z" fill="url(#paint43_linear_216_2119)"/>
<path d="M54.4832 83.9277L46.7926 79.4909C46.3206 79.2099 46.3796 78.7407 46.9275 78.426L54.3652 74.1297C54.6457 73.974 54.9587 73.886 55.2792 73.8728C55.5998 73.8597 55.919 73.9216 56.2113 74.0538L63.9131 78.5019C64.3879 78.7828 64.3289 79.2521 63.781 79.5668L56.3433 83.8603C56.0606 84.0176 55.7447 84.1057 55.4214 84.1175C55.098 84.1292 54.7765 84.0641 54.4832 83.9277Z" fill="#171552"/>
<path d="M62.5504 83.0059C62.5433 83.1343 62.506 83.2593 62.4416 83.3706C62.3772 83.4819 62.2874 83.5764 62.1795 83.6465C61.9744 83.7673 61.8086 83.669 61.8086 83.433C61.8155 83.3041 61.8526 83.1787 61.9171 83.0669C61.9815 82.9551 62.0714 82.86 62.1795 82.7895C62.3846 82.6715 62.5504 82.767 62.5504 83.0059Z" fill="white"/>
<path d="M63.7471 82.3147C63.7397 82.4437 63.702 82.5692 63.637 82.681C63.5721 82.7928 63.4818 82.8877 63.3733 82.9581C63.171 83.0761 63.0024 82.9806 63.0024 82.7446C63.0092 82.616 63.046 82.4908 63.11 82.3791C63.1739 82.2673 63.2631 82.1721 63.3705 82.1011C63.5785 81.9831 63.7471 82.0786 63.7471 82.3147Z" fill="white"/>
<path d="M64.9415 81.6262C64.9342 81.755 64.8969 81.8803 64.8324 81.992C64.768 82.1037 64.6784 82.1988 64.5706 82.2697C64.3655 82.3877 64.1997 82.2894 64.1997 82.0533C64.2066 81.9245 64.2437 81.799 64.3082 81.6872C64.3726 81.5754 64.4625 81.4804 64.5706 81.4099C64.7757 81.2919 64.9415 81.3986 64.9415 81.6262Z" fill="white"/>
<path d="M65.9332 77.0996V73.9273H58.8187L56.36 72.5083C55.7981 72.1824 54.8118 72.2274 54.1599 72.6011L51.8671 73.9245H44.7469V77.1839C44.7448 77.3088 44.7797 77.4314 44.8472 77.5364C44.9147 77.6414 45.0118 77.7241 45.1262 77.774L54.3173 83.0846C54.8793 83.4106 55.8683 83.3656 56.5202 82.9947L65.3965 77.8695C65.7731 77.6419 65.9529 77.361 65.9332 77.0996Z" fill="url(#paint44_linear_216_2119)"/>
<path d="M55.3401 72.2837C54.9272 72.2904 54.5222 72.3975 54.1599 72.5956L51.8671 73.919H44.7469V77.1841C44.7448 77.3089 44.7797 77.4315 44.8472 77.5365C44.9147 77.6416 45.0118 77.7242 45.1262 77.7742L54.3173 83.0848C54.6327 83.2472 54.9857 83.3229 55.3401 83.304V72.2837Z" fill="#171552"/>
<path d="M45.5533 73.916H44.7469V77.1839C44.7448 77.3087 44.7797 77.4313 44.8472 77.5363C44.9147 77.6414 45.0118 77.724 45.1262 77.774L45.5533 78.0212V73.916Z" fill="white"/>
<path d="M54.4604 83.1437C55.03 83.3494 55.6546 83.3424 56.2194 83.124V79.4319H54.4604V83.1437Z" fill="white"/>
<path d="M54.3173 79.8253L45.1263 74.5175C44.5643 74.1915 44.6317 73.6211 45.2836 73.2446L54.16 68.1194C54.8118 67.7429 55.7981 67.7036 56.3601 68.0295L65.5539 73.3373C66.1159 73.6633 66.0485 74.2309 65.3966 74.6074L56.5202 79.7326C55.8683 80.1091 54.8821 80.1484 54.3173 79.8253Z" fill="url(#paint45_linear_216_2119)"/>
<path d="M65.3965 73.9836L56.5202 79.1088C55.8683 79.4853 54.882 79.5246 54.3173 79.1987L45.1262 73.8909C45.0149 73.8297 44.9189 73.7442 44.8452 73.6408C44.6514 73.9527 44.7413 74.2927 45.1262 74.5175L54.3173 79.8253C54.8792 80.1484 55.8683 80.1063 56.5202 79.7326L65.3965 74.6074C65.9023 74.3264 66.0568 73.9077 65.8377 73.5874C65.7243 73.7527 65.573 73.8885 65.3965 73.9836Z" fill="white"/>
<path d="M62.5504 77.9343C62.5437 78.0632 62.5067 78.1887 62.4422 78.3006C62.3778 78.4124 62.2877 78.5074 62.1795 78.5777C61.9744 78.6986 61.8086 78.6002 61.8086 78.3642C61.8155 78.2353 61.8526 78.1099 61.9171 77.9981C61.9815 77.8863 62.0714 77.7913 62.1795 77.7207C62.3846 77.6027 62.5504 77.6983 62.5504 77.9343Z" fill="white"/>
<path d="M63.7471 77.2459C63.7397 77.3749 63.702 77.5004 63.637 77.6122C63.5721 77.724 63.4818 77.8189 63.3733 77.8893C63.171 78.0073 63.0024 77.9118 63.0024 77.6758C63.0095 77.547 63.0468 77.4216 63.1112 77.3098C63.1756 77.1981 63.2654 77.103 63.3733 77.0323C63.5785 76.9031 63.7471 77.0098 63.7471 77.2459Z" fill="white"/>
<path d="M64.9415 76.5574C64.9344 76.6858 64.8972 76.8108 64.8327 76.9221C64.7683 77.0334 64.6785 77.128 64.5706 77.198C64.3655 77.3189 64.1997 77.2205 64.1997 76.9845C64.2066 76.8556 64.2437 76.7302 64.3082 76.6184C64.3726 76.5066 64.4625 76.4116 64.5706 76.341C64.7757 76.223 64.9415 76.3186 64.9415 76.5574Z" fill="white"/>
<path d="M54.8624 76.5321L50.5605 74.0482C50.2964 73.8965 50.3301 73.6295 50.6336 73.4553L54.7894 71.0557C54.9457 70.9692 55.1201 70.9204 55.2986 70.9131C55.4771 70.9058 55.6549 70.9402 55.8178 71.0136L60.1197 73.4975C60.3838 73.6492 60.3501 73.9162 60.0466 74.0932L55.8908 76.49C55.7351 76.5784 55.5606 76.6284 55.3817 76.6357C55.2028 76.643 55.0248 76.6075 54.8624 76.5321Z" fill="url(#paint46_linear_216_2119)"/>
<path d="M55.2725 74.4529L54.6797 74.1101C54.6431 74.0876 54.646 74.0511 54.6797 74.0286L55.2416 73.697C55.264 73.6861 55.2885 73.6804 55.3133 73.6804C55.3381 73.6804 55.3626 73.6861 55.3849 73.697L55.9778 74.0426C56.0144 74.0623 56.0115 74.0988 55.9778 74.1241L55.4018 74.4557C55.3814 74.4648 55.3592 74.4692 55.3369 74.4687C55.3145 74.4682 55.2926 74.4628 55.2725 74.4529Z" fill="white"/>
<path d="M50.5605 74.0482L50.6223 74.0061L54.7781 71.6065C54.9345 71.52 55.1088 71.4711 55.2873 71.4638C55.4659 71.4565 55.6436 71.4909 55.8065 71.5643L60.0972 74.0426C60.3388 73.8684 60.3529 73.6296 60.0972 73.4806L55.8178 71.0023C55.6549 70.9289 55.4771 70.8945 55.2986 70.9018C55.1201 70.9092 54.9457 70.958 54.7894 71.0445L50.6336 73.4441C50.3301 73.6296 50.2964 73.8965 50.5605 74.0482Z" fill="#171552"/>
<path d="M41.2121 23.08C41.2121 23.2402 41.0997 23.3048 40.962 23.2233C40.8898 23.1754 40.8296 23.1114 40.7862 23.0363C40.7428 22.9612 40.7174 22.8772 40.7119 22.7906C40.7119 22.6305 40.8243 22.5658 40.962 22.6473C41.0342 22.6953 41.0944 22.7593 41.1378 22.8344C41.1812 22.9094 41.2066 22.9935 41.2121 23.08Z" fill="white"/>
<path d="M43.4208 24.4148C43.4208 24.5749 43.3084 24.6396 43.1707 24.5581C43.0974 24.5113 43.0364 24.4475 42.9929 24.3722C42.9493 24.2969 42.9246 24.2122 42.9207 24.1253C42.9207 23.9652 43.0302 23.9006 43.1707 23.982C43.243 24.03 43.3031 24.094 43.3465 24.1691C43.3899 24.2441 43.4153 24.3282 43.4208 24.4148Z" fill="white"/>
<path d="M45.6151 25.7636C45.6151 25.9238 45.5028 25.9884 45.3651 25.9069C45.2928 25.859 45.2327 25.795 45.1893 25.7199C45.1459 25.6448 45.1205 25.5608 45.115 25.4742C45.115 25.3141 45.2274 25.2494 45.3651 25.3309C45.4373 25.3789 45.4975 25.4429 45.5409 25.518C45.5842 25.593 45.6097 25.6771 45.6151 25.7636Z" fill="white"/>
<path d="M47.8153 27.0842C47.8153 27.2444 47.7029 27.309 47.5653 27.2275C47.493 27.1796 47.4329 27.1155 47.3895 27.0405C47.3461 26.9654 47.3207 26.8813 47.3152 26.7948C47.3152 26.6346 47.4276 26.57 47.5653 26.6515C47.6375 26.6994 47.6977 26.7634 47.7411 26.8385C47.7844 26.9136 47.8099 26.9977 47.8153 27.0842Z" fill="white"/>
</g>
<defs>
<linearGradient id="paint0_linear_216_2119" x1="65.7247" y1="52.6489" x2="64.5746" y2="57.4431" gradientUnits="userSpaceOnUse">
<stop stop-color="#2137FF"/>
<stop offset="1" stop-color="#0047FF"/>
</linearGradient>
<linearGradient id="paint1_linear_216_2119" x1="65.7247" y1="47.594" x2="64.5804" y2="52.3767" gradientUnits="userSpaceOnUse">
<stop stop-color="#2137FF"/>
<stop offset="1" stop-color="#0047FF"/>
</linearGradient>
<linearGradient id="paint2_linear_216_2119" x1="65.7247" y1="42.5247" x2="64.5782" y2="47.3118" gradientUnits="userSpaceOnUse">
<stop stop-color="#2137FF"/>
<stop offset="1" stop-color="#0047FF"/>
</linearGradient>
<linearGradient id="paint3_linear_216_2119" x1="61.6807" y1="42.2023" x2="34.7375" y2="38.3753" gradientUnits="userSpaceOnUse">
<stop stop-color="#E4E7FF"/>
<stop offset="1" stop-color="#2137FF"/>
</linearGradient>
<linearGradient id="paint4_linear_216_2119" x1="64.9175" y1="41.1333" x2="64.2611" y2="43.5945" gradientUnits="userSpaceOnUse">
<stop stop-color="#2137FF"/>
<stop offset="1" stop-color="#0047FF"/>
</linearGradient>
<linearGradient id="paint5_linear_216_2119" x1="46.8612" y1="28.6519" x2="35.8853" y2="43.1695" gradientUnits="userSpaceOnUse">
<stop stop-color="#2137FF"/>
<stop offset="1" stop-color="#0047FF"/>
</linearGradient>
<linearGradient id="paint6_linear_216_2119" x1="36.7094" y1="45.5509" x2="12.4235" y2="44.7975" gradientUnits="userSpaceOnUse">
<stop stop-color="#E4E7FF"/>
<stop offset="1" stop-color="#2137FF"/>
</linearGradient>
<linearGradient id="paint7_linear_216_2119" x1="44.6767" y1="26.1317" x2="37.4436" y2="37.8375" gradientUnits="userSpaceOnUse">
<stop stop-color="#213CFF"/>
<stop offset="1" stop-color="white"/>
</linearGradient>
<linearGradient id="paint8_linear_216_2119" x1="41.4521" y1="29.8819" x2="41.0853" y2="30.4675" gradientUnits="userSpaceOnUse">
<stop stop-color="#213CFF"/>
<stop offset="1" stop-color="white"/>
</linearGradient>
<linearGradient id="paint9_linear_216_2119" x1="43.6459" y1="31.1435" x2="43.2798" y2="31.7288" gradientUnits="userSpaceOnUse">
<stop stop-color="#213CFF"/>
<stop offset="1" stop-color="white"/>
</linearGradient>
<linearGradient id="paint10_linear_216_2119" x1="45.8285" y1="32.4047" x2="45.4647" y2="32.9892" gradientUnits="userSpaceOnUse">
<stop stop-color="#213CFF"/>
<stop offset="1" stop-color="white"/>
</linearGradient>
<linearGradient id="paint11_linear_216_2119" x1="48.0336" y1="33.6665" x2="47.668" y2="34.2516" gradientUnits="userSpaceOnUse">
<stop stop-color="#213CFF"/>
<stop offset="1" stop-color="white"/>
</linearGradient>
<linearGradient id="paint12_linear_216_2119" x1="39.3836" y1="33.7385" x2="37.7871" y2="38.2928" gradientUnits="userSpaceOnUse">
<stop stop-color="#2137FF"/>
<stop offset="1" stop-color="#0047FF"/>
</linearGradient>
<linearGradient id="paint13_linear_216_2119" x1="39.3836" y1="38.7346" x2="37.7864" y2="43.2898" gradientUnits="userSpaceOnUse">
<stop stop-color="#2137FF"/>
<stop offset="1" stop-color="#0047FF"/>
</linearGradient>
<linearGradient id="paint14_linear_216_2119" x1="39.3896" y1="43.7332" x2="37.7933" y2="48.2891" gradientUnits="userSpaceOnUse">
<stop stop-color="#2137FF"/>
<stop offset="1" stop-color="#0047FF"/>
</linearGradient>
<linearGradient id="paint15_linear_216_2119" x1="39.3836" y1="48.7319" x2="37.7864" y2="53.2871" gradientUnits="userSpaceOnUse">
<stop stop-color="#2137FF"/>
<stop offset="1" stop-color="#0047FF"/>
</linearGradient>
<linearGradient id="paint16_linear_216_2119" x1="39.3836" y1="53.7307" x2="37.7864" y2="58.2859" gradientUnits="userSpaceOnUse">
<stop stop-color="#2137FF"/>
<stop offset="1" stop-color="#0047FF"/>
</linearGradient>
<linearGradient id="paint17_linear_216_2119" x1="39.3836" y1="58.7295" x2="37.7864" y2="63.2846" gradientUnits="userSpaceOnUse">
<stop stop-color="#2137FF"/>
<stop offset="1" stop-color="#0047FF"/>
</linearGradient>
<linearGradient id="paint18_linear_216_2119" x1="39.3865" y1="63.7283" x2="37.7898" y2="68.2837" gradientUnits="userSpaceOnUse">
<stop stop-color="#2137FF"/>
<stop offset="1" stop-color="#0047FF"/>
</linearGradient>
<linearGradient id="paint19_linear_216_2119" x1="41.5748" y1="20.2168" x2="40.7773" y2="21.017" gradientUnits="userSpaceOnUse">
<stop stop-color="#2137FF"/>
<stop offset="1" stop-color="#0047FF"/>
</linearGradient>
<linearGradient id="paint20_linear_216_2119" x1="41.5669" y1="23.2207" x2="41.4613" y2="23.6165" gradientUnits="userSpaceOnUse">
<stop stop-color="#2137FF"/>
<stop offset="1" stop-color="#0047FF"/>
</linearGradient>
<linearGradient id="paint21_linear_216_2119" x1="43.7665" y1="21.5264" x2="42.9689" y2="22.3265" gradientUnits="userSpaceOnUse">
<stop stop-color="#2137FF"/>
<stop offset="1" stop-color="#0047FF"/>
</linearGradient>
<linearGradient id="paint22_linear_216_2119" x1="43.7727" y1="24.53" x2="43.6671" y2="24.9258" gradientUnits="userSpaceOnUse">
<stop stop-color="#2137FF"/>
<stop offset="1" stop-color="#0047FF"/>
</linearGradient>
<linearGradient id="paint23_linear_216_2119" x1="45.9611" y1="22.8357" x2="45.1635" y2="23.6359" gradientUnits="userSpaceOnUse">
<stop stop-color="#2137FF"/>
<stop offset="1" stop-color="#0047FF"/>
</linearGradient>
<linearGradient id="paint24_linear_216_2119" x1="45.9643" y1="25.8394" x2="45.8587" y2="26.2355" gradientUnits="userSpaceOnUse">
<stop stop-color="#2137FF"/>
<stop offset="1" stop-color="#0047FF"/>
</linearGradient>
<linearGradient id="paint25_linear_216_2119" x1="48.1554" y1="24.1479" x2="47.3579" y2="24.9481" gradientUnits="userSpaceOnUse">
<stop stop-color="#2137FF"/>
<stop offset="1" stop-color="#0047FF"/>
</linearGradient>
<linearGradient id="paint26_linear_216_2119" x1="48.1589" y1="27.1497" x2="48.0533" y2="27.5455" gradientUnits="userSpaceOnUse">
<stop stop-color="#2137FF"/>
<stop offset="1" stop-color="#0047FF"/>
</linearGradient>
<linearGradient id="paint27_linear_216_2119" x1="59.6246" y1="23.9162" x2="57.0214" y2="25.5502" gradientUnits="userSpaceOnUse">
<stop stop-color="#213CFF"/>
<stop offset="1" stop-color="white"/>
</linearGradient>
<linearGradient id="paint28_linear_216_2119" x1="35.6873" y1="3.87201" x2="33.7628" y2="6.23159" gradientUnits="userSpaceOnUse">
<stop stop-color="#213CFF"/>
<stop offset="1" stop-color="white"/>
</linearGradient>
<linearGradient id="paint29_linear_216_2119" x1="51.7132" y1="-0.000243473" x2="46.6998" y2="10.1643" gradientUnits="userSpaceOnUse">
<stop stop-color="#2137FF"/>
<stop offset="1" stop-color="#0047FF"/>
</linearGradient>
<linearGradient id="paint30_linear_216_2119" x1="40.9662" y1="0.702212" x2="38.7347" y2="3.79446" gradientUnits="userSpaceOnUse">
<stop stop-color="#213CFF"/>
<stop offset="1" stop-color="white"/>
</linearGradient>
<linearGradient id="paint31_linear_216_2119" x1="50.9949" y1="11.6221" x2="47.7368" y2="16.2114" gradientUnits="userSpaceOnUse">
<stop stop-color="#213CFF"/>
<stop offset="1" stop-color="white"/>
</linearGradient>
<linearGradient id="paint32_linear_216_2119" x1="47.2232" y1="3.0061" x2="42.7991" y2="12.7273" gradientUnits="userSpaceOnUse">
<stop stop-color="#2137FF"/>
<stop offset="1" stop-color="#0047FF"/>
</linearGradient>
<linearGradient id="paint33_linear_216_2119" x1="15.6657" y1="61.5647" x2="14.5152" y2="66.3592" gradientUnits="userSpaceOnUse">
<stop stop-color="#2137FF"/>
<stop offset="1" stop-color="#0047FF"/>
</linearGradient>
<linearGradient id="paint34_linear_216_2119" x1="11.6221" y1="61.243" x2="-15.3235" y2="57.4156" gradientUnits="userSpaceOnUse">
<stop stop-color="#E4E7FF"/>
<stop offset="1" stop-color="#2137FF"/>
</linearGradient>
<linearGradient id="paint35_linear_216_2119" x1="15.6657" y1="56.4956" x2="14.5152" y2="61.2901" gradientUnits="userSpaceOnUse">
<stop stop-color="#2137FF"/>
<stop offset="1" stop-color="#0047FF"/>
</linearGradient>
<linearGradient id="paint36_linear_216_2119" x1="11.6221" y1="56.1742" x2="-15.3235" y2="52.3467" gradientUnits="userSpaceOnUse">
<stop stop-color="#E4E7FF"/>
<stop offset="1" stop-color="#2137FF"/>
</linearGradient>
<linearGradient id="paint37_linear_216_2119" x1="15.6655" y1="51.3958" x2="14.5155" y2="56.1893" gradientUnits="userSpaceOnUse">
<stop stop-color="#2137FF"/>
<stop offset="1" stop-color="#0047FF"/>
</linearGradient>
<linearGradient id="paint38_linear_216_2119" x1="11.6221" y1="51.1046" x2="-15.3235" y2="47.2773" gradientUnits="userSpaceOnUse">
<stop stop-color="#E4E7FF"/>
<stop offset="1" stop-color="#2137FF"/>
</linearGradient>
<linearGradient id="paint39_linear_216_2119" x1="14.8646" y1="50.0347" x2="14.2088" y2="52.4959" gradientUnits="userSpaceOnUse">
<stop stop-color="#2137FF"/>
<stop offset="1" stop-color="#0047FF"/>
</linearGradient>
<linearGradient id="paint40_linear_216_2119" x1="56.8453" y1="82.4277" x2="55.695" y2="87.2223" gradientUnits="userSpaceOnUse">
<stop stop-color="#2137FF"/>
<stop offset="1" stop-color="#0047FF"/>
</linearGradient>
<linearGradient id="paint41_linear_216_2119" x1="52.8015" y1="82.1205" x2="25.8583" y2="78.2937" gradientUnits="userSpaceOnUse">
<stop stop-color="#E4E7FF"/>
<stop offset="1" stop-color="#2137FF"/>
</linearGradient>
<linearGradient id="paint42_linear_216_2119" x1="56.8453" y1="77.3589" x2="55.6971" y2="82.1492" gradientUnits="userSpaceOnUse">
<stop stop-color="#2137FF"/>
<stop offset="1" stop-color="#0047FF"/>
</linearGradient>
<linearGradient id="paint43_linear_216_2119" x1="52.8015" y1="77.0507" x2="25.8582" y2="73.2242" gradientUnits="userSpaceOnUse">
<stop stop-color="#E4E7FF"/>
<stop offset="1" stop-color="#2137FF"/>
</linearGradient>
<linearGradient id="paint44_linear_216_2119" x1="56.8454" y1="72.2898" x2="55.6949" y2="77.0845" gradientUnits="userSpaceOnUse">
<stop stop-color="#2137FF"/>
<stop offset="1" stop-color="#0047FF"/>
</linearGradient>
<linearGradient id="paint45_linear_216_2119" x1="52.8015" y1="71.9815" x2="25.8583" y2="68.1546" gradientUnits="userSpaceOnUse">
<stop stop-color="#E4E7FF"/>
<stop offset="1" stop-color="#2137FF"/>
</linearGradient>
<linearGradient id="paint46_linear_216_2119" x1="56.0442" y1="70.9121" x2="55.3884" y2="73.373" gradientUnits="userSpaceOnUse">
<stop stop-color="#2137FF"/>
<stop offset="1" stop-color="#0047FF"/>
</linearGradient>
<clipPath id="clip0_216_2119">
<rect width="79.474" height="100" fill="white"/>
</clipPath>
</defs>
</svg>
