<svg width="80" height="100" fill="none" xmlns="http://www.w3.org/2000/svg"><g clip-path="url(#a)"><path d="M72.261 65.636a1.25 1.25 0 0 1-.638-.175l-3.815-2.29.233-.385 3.816 2.288a.78.78 0 0 0 .8 0l6.213-3.625a.307.307 0 0 0 .155-.281.318.318 0 0 0-.166-.281l-8.275-4.431.21-.396 8.278 4.433a.76.76 0 0 1 .023 1.327l-6.21 3.633a1.24 1.24 0 0 1-.624.183ZM56.826 100a1.61 1.61 0 0 1-.78-.202L40.818 91.32a.699.699 0 0 1 0-1.222l6.892-3.886a.232.232 0 0 0 .121-.208.24.24 0 0 0-.12-.208L40.048 81.4a.688.688 0 0 1-.023-1.178l3.114-1.99.241.38-3.133 1.984a.232.232 0 0 0-.11.208.236.236 0 0 0 .119.202l7.668 4.403a.685.685 0 0 1 0 1.195l-6.89 3.888a.25.25 0 0 0 0 .439l15.23 8.474a1.163 1.163 0 0 0 1.163-.02l5.79-3.56a.107.107 0 0 0 .051-.095.107.107 0 0 0-.053-.093l-4.19-2.548.234-.382 4.19 2.545a.562.562 0 0 1 0 .956l-5.792 3.56a1.616 1.616 0 0 1-.832.233Z" fill="#2137FF"/><path d="m63.405 65.866-7.34-4.237c-.45-.262-.393-.714.127-1.015l7.089-4.094a1.967 1.967 0 0 1 1.756-.073l7.342 4.24c.453.259.394.714-.126 1.015l-7.09 4.094a1.966 1.966 0 0 1-1.758.07Z" fill="#2137FF"/><path d="M74.812 57.459v-3.173h-7.111l-2.459-1.419c-.562-.325-1.551-.28-2.203.093l-2.293 1.324h-7.12v3.262a.638.638 0 0 0 .38.59l9.193 5.308c.562.323 1.548.28 2.2-.093l8.877-5.125c.376-.225.559-.506.536-.767Z" fill="url(#b)"/><path d="M64.214 52.645a2.51 2.51 0 0 0-1.18.31l-2.293 1.323h-7.115v3.262a.638.638 0 0 0 .38.59l9.193 5.308c.315.162.667.237 1.02.216l-.005-11.009Z" fill="#171552"/><path d="M54.432 54.275h-.806v3.262a.639.639 0 0 0 .38.59l.426.245v-4.097Z" fill="#5793CE"/><path d="M63.34 63.503c.57.206 1.194.199 1.759-.02V59.78h-1.76v3.723Z" fill="#fff"/><path d="m63.2 60.184-9.195-5.307c-.562-.326-.494-.897.158-1.273l8.876-5.125c.652-.377 1.638-.416 2.203-.09l9.191 5.307c.562.326.495.894-.157 1.27l-8.877 5.126c-.651.376-1.638.418-2.2.092Z" fill="#A7B0FF"/><path d="m63.37 59.229-7.701-4.448c-.475-.281-.416-.75.132-1.065l7.438-4.296a2.055 2.055 0 0 1 1.846-.076l7.705 4.448c.471.28.412.75-.135 1.065l-7.438 4.293a2.049 2.049 0 0 1-1.846.079Z" fill="#171552"/><path d="M71.432 58.296a.843.843 0 0 1-.374.644c-.205.118-.37.02-.37-.217a.82.82 0 0 1 .37-.643c.205-.118.374-.023.374.216Zm1.194-.691a.821.821 0 0 1-.37.643c-.206.118-.374.023-.374-.213a.82.82 0 0 1 .374-.644c.205-.118.37-.022.37.214Zm1.194-.688a.826.826 0 0 1-.37.643c-.206.118-.371.023-.371-.216a.82.82 0 0 1 .37-.644c.206-.118.371-.028.371.217Z" fill="#fff"/><path d="M74.812 52.39v-3.172h-7.111l-2.459-1.406c-.562-.325-1.551-.28-2.203.093l-2.293 1.324h-7.12v3.228a.633.633 0 0 0 .38.587l9.193 5.314c.562.326 1.548.28 2.2-.09l8.877-5.125c.376-.21.559-.492.536-.753Z" fill="url(#c)"/><path d="M64.214 47.574a2.546 2.546 0 0 0-1.18.312l-2.293 1.323h-7.12v3.248a.632.632 0 0 0 .379.587l9.2 5.314c.314.163.666.238 1.02.22l-.006-11.004Z" fill="#171552"/><path d="M54.432 49.206h-.806v3.251a.633.633 0 0 0 .38.588l.426.247v-4.086Z" fill="#5793CE"/><path d="M63.34 58.434c.57.205 1.194.198 1.759-.02v-3.709h-1.76v3.729Z" fill="#fff"/><path d="m63.2 55.115-9.195-5.308c-.562-.325-.494-.896.158-1.272l8.876-5.125c.652-.377 1.638-.416 2.203-.09l9.191 5.307c.562.326.495.894-.157 1.27l-8.877 5.126c-.651.376-1.638.418-2.2.092Z" fill="#A7B0FF"/><path d="m63.37 54.16-7.701-4.448c-.475-.281-.416-.75.132-1.065l7.438-4.296a2.055 2.055 0 0 1 1.846-.076l7.705 4.448c.471.28.412.75-.135 1.065l-7.438 4.293a2.049 2.049 0 0 1-1.846.079Z" fill="#171552"/><path d="M71.432 53.227a.82.82 0 0 1-.374.64c-.205.122-.37.023-.37-.213a.82.82 0 0 1 .37-.643c.205-.118.374-.023.374.216Zm1.194-.691a.821.821 0 0 1-.37.643c-.206.118-.374.023-.374-.213a.82.82 0 0 1 .374-.644c.205-.118.37-.022.37.214Zm1.194-.689a.817.817 0 0 1-.37.641c-.206.12-.371.023-.371-.213a.82.82 0 0 1 .37-.644c.206-.118.371-.017.371.216Z" fill="#fff"/><path d="M74.812 47.32v-3.172h-7.111l-2.459-1.405c-.562-.326-1.551-.28-2.203.09l-2.293 1.327h-7.12v3.24a.632.632 0 0 0 .38.59l9.193 5.31c.562.326 1.549.281 2.2-.09l8.877-5.125c.376-.222.559-.503.536-.764Z" fill="url(#d)"/><path d="M64.214 42.505a2.577 2.577 0 0 0-1.18.309L60.74 44.14h-7.12v3.26a.632.632 0 0 0 .379.59l9.2 5.31c.314.163.666.239 1.02.22l-.006-11.015Z" fill="#171552"/><path d="M54.432 44.137h-.806V47.4a.632.632 0 0 0 .38.59l.426.247v-4.1Z" fill="#5793CE"/><path d="M63.34 53.365c.57.206 1.194.199 1.759-.02v-3.697h-1.76v3.717Z" fill="#fff"/><path d="m63.2 50.043-9.195-5.307c-.562-.323-.494-.894.158-1.27l8.876-5.126c.652-.376 1.638-.416 2.203-.09l9.191 5.308c.562.326.495.894-.157 1.27l-8.877 5.125c-.651.377-1.638.416-2.2.09Z" fill="url(#e)"/><path d="m74.276 44.205-8.877 5.125c-.651.377-1.638.416-2.2.09l-9.194-5.308a.866.866 0 0 1-.28-.25c-.194.312-.105.652.28.874l9.194 5.308c.562.326 1.549.28 2.2-.09l8.877-5.125c.505-.281.66-.7.44-1.02a1.26 1.26 0 0 1-.44.396Zm-2.844 3.95a.822.822 0 0 1-.374.644c-.205.118-.37.022-.37-.214a.82.82 0 0 1 .37-.643c.205-.118.374-.023.374.213Zm1.194-.688a.821.821 0 0 1-.37.644c-.206.117-.374.022-.374-.214a.82.82 0 0 1 .374-.643c.205-.119.37-.023.37.213Zm1.194-.691a.817.817 0 0 1-.37.643c-.206.118-.371.023-.371-.213a.82.82 0 0 1 .37-.644c.206-.118.371-.022.371.214Z" fill="#fff"/><path d="m63.742 46.753-4.305-2.484c-.264-.151-.23-.418.073-.593l4.156-2.4a1.149 1.149 0 0 1 1.028-.041l4.296 2.484c.265.151.23.418-.073.595l-4.141 2.397a1.124 1.124 0 0 1-1.034.042Z" fill="url(#f)"/><path d="m64.155 44.674-.596-.343c-.036-.022-.034-.059 0-.081l.576-.335a.17.17 0 0 1 .143 0l.593.346c.037.02.034.056 0 .081l-.562.332a.146.146 0 0 1-.154 0Z" fill="#fff"/><path d="M59.437 44.27a.48.48 0 0 1 .062-.043l4.155-2.4a1.15 1.15 0 0 1 1.029-.041l4.307 2.483c.245-.174.256-.41 0-.562l-4.301-2.483a1.15 1.15 0 0 0-1.029.042l-4.156 2.4c-.295.185-.328.452-.067.603Z" fill="#171552"/><path d="M46.866 81.079 30.998 72.03c-.578-.337-.508-.922.163-1.31l9.13-5.27c.671-.386 1.686-.428 2.264-.094l15.868 9.048c.581.335.508.922-.163 1.307l-9.13 5.271c-.671.388-1.683.43-2.264.096Z" fill="#2137FF"/><path d="M59.839 71.36V34.316l-14.732-3.855-2.712-1.568c-.624-.36-1.708-.312-2.428.1l-2.529 1.462h-7.853l2.315 35.77a.702.702 0 0 0 .419.649l14.695 11.09c.624.36 1.712.315 2.428-.101l9.795-5.656c.425-.25.624-.56.602-.849Z" fill="url(#g)"/><path d="M41.271 28.655a2.827 2.827 0 0 0-1.3.34l-2.53 1.461h-7.856v37.14a.7.7 0 0 0 .416.65l17.022 9.708c.347.178.735.26 1.124.239l.177-37.371-7.053-12.167Z" fill="url(#h)"/><path d="M47.18 78.027c.63.227 1.319.22 1.942-.023v-37.63H47.18v37.653Z" fill="#171552"/><path d="m47.023 40.822-17.022-9.706c-.624-.36-.545-.986.174-1.404l9.795-5.657c.72-.413 1.804-.458 2.428-.098l17.022 9.705c.624.36.545.986-.174 1.405l-9.795 5.654c-.717.415-1.816.46-2.428.1Z" fill="url(#i)"/><path d="m59.246 34.379-9.796 5.653c-.716.416-1.803.46-2.427.101L30 30.428a.978.978 0 0 1-.312-.281c-.214.343-.115.716.312.964l17.022 9.705c.624.36 1.711.315 2.427-.101l9.796-5.654c.562-.323.727-.772.486-1.123a1.36 1.36 0 0 1-.486.44Z" fill="#FAFDFF"/><path d="m47.504 36.888-11.333-6.57c-.28-.168-.255-.46.082-.654l4.583-2.647a1.267 1.267 0 0 1 1.138-.048l11.332 6.57c.28.168.256.463-.082.657l-4.582 2.644a1.259 1.259 0 0 1-1.139.048Z" fill="#171552"/><path d="m41.386 30.613-.657-.379c-.04-.023-.034-.062 0-.09l.635-.365a.173.173 0 0 1 .157 0l.658.38c.04.024.033.064 0 .092l-.635.365a.166.166 0 0 1-.158-.003Z" fill="url(#j)"/><path d="m43.581 31.875-.658-.38c-.039-.022-.036-.061 0-.09l.636-.364a.175.175 0 0 1 .157 0l.655.379c.042.025.036.064 0 .093l-.633.365a.173.173 0 0 1-.157-.003Z" fill="url(#k)"/><path d="m45.775 33.137-.668-.38c-.042-.022-.037-.061 0-.09l.635-.365a.169.169 0 0 1 .154 0l.658.38c.042.025.036.064 0 .092l-.633.365a.18.18 0 0 1-.146-.002Z" fill="url(#l)"/><path d="m47.967 34.398-.655-.38c-.042-.022-.036-.064 0-.089l.633-.365a.175.175 0 0 1 .157 0l.657.379c.04.025.037.065 0 .093l-.635.365a.182.182 0 0 1-.157-.003Z" fill="url(#m)"/><path d="M36.171 30.319h.014l.068-.048 4.583-2.644a1.267 1.267 0 0 1 1.138-.048l11.318 6.56c.28-.19.28-.452.014-.609l-11.332-6.57a1.267 1.267 0 0 0-1.138.048l-4.583 2.647c-.337.203-.374.495-.082.663Z" fill="#A7B0FF"/><path d="m51.364 48.16 6.443-3.688a1.568 1.568 0 0 0 .658-1.254v-2.304c0-.483-.296-.705-.658-.497l-6.443 3.69a1.573 1.573 0 0 0-.657 1.255v2.318c0 .47.3.692.657.48Z" fill="#171552"/><path d="M58.128 40.347a.645.645 0 0 1 .163.48v2.304a1.568 1.568 0 0 1-.655 1.253l-6.446 3.69a.463.463 0 0 1-.317.07.387.387 0 0 0 .491.017l6.443-3.69a1.569 1.569 0 0 0 .658-1.253v-2.304c0-.328-.138-.54-.337-.567Z" fill="#A7B0FF"/><path d="m51.364 64.82 6.443-3.689a1.569 1.569 0 0 0 .658-1.253v-2.304c0-.483-.296-.705-.658-.497l-6.443 3.689a1.574 1.574 0 0 0-.657 1.256v2.304c0 .475.3.697.657.495Z" fill="#171552"/><path d="M58.128 56.998a.647.647 0 0 1 .163.48v2.305a1.578 1.578 0 0 1-.655 1.256l-6.446 3.689a.476.476 0 0 1-.317.067.387.387 0 0 0 .491.017l6.443-3.69a1.567 1.567 0 0 0 .658-1.252v-2.304c0-.332-.138-.531-.337-.568Z" fill="#A7B0FF"/><path d="m51.364 73.138 6.443-3.69a1.568 1.568 0 0 0 .658-1.253v-2.304c0-.483-.296-.705-.658-.497l-6.443 3.69a1.574 1.574 0 0 0-.657 1.255v2.304c0 .484.3.706.657.495Z" fill="#171552"/><path d="M58.128 65.323a.645.645 0 0 1 .163.481v2.304a1.577 1.577 0 0 1-.655 1.256l-6.446 3.69a.474.474 0 0 1-.317.067.387.387 0 0 0 .491.017l6.443-3.69a1.568 1.568 0 0 0 .658-1.253v-2.304c0-.329-.138-.531-.337-.568Z" fill="#A7B0FF"/><path d="m53.303 70.634.59-.34a.341.341 0 0 0 .143-.28v-.633c0-.107-.064-.154-.143-.11l-.59.343a.341.341 0 0 0-.143.281v.633c0 .103.064.154.143.106Z" fill="#fff"/><path d="m55.278 69.493.59-.34a.334.334 0 0 0 .143-.28v-.624c0-.107-.061-.155-.143-.11l-.59.334a.341.341 0 0 0-.143.281v.632c0 .105.064.155.143.107Z" fill="#396CAA"/><path d="m51.364 56.486 6.443-3.689a1.568 1.568 0 0 0 .658-1.253V49.24c0-.483-.296-.705-.658-.498l-6.443 3.69a1.574 1.574 0 0 0-.657 1.256v2.304c0 .483.3.705.657.495Z" fill="#171552"/><path d="M58.128 48.672a.646.646 0 0 1 .163.48v2.305a1.578 1.578 0 0 1-.655 1.256L51.19 56.39a.464.464 0 0 1-.317.07.388.388 0 0 0 .491.017l6.443-3.69a1.567 1.567 0 0 0 .658-1.252V49.23c0-.32-.138-.525-.337-.559Z" fill="#A7B0FF"/><path d="m45.357 44.809-14.019-8.087a.735.735 0 0 1-.306-.584v-2.13c0-.228.138-.33.306-.234l14.013 8.093a.726.726 0 0 1 .306.581v2.142c.012.213-.132.317-.3.219Z" fill="url(#n)"/><path d="m34.264 37.326-2.083-1.205a.716.716 0 0 1-.297-.562c0-.22.134-.32.297-.225l2.09 1.208a.703.703 0 0 1 .299.562c-.009.216-.14.318-.306.222Z" fill="#D4ECFF"/><path d="M36.045 37.961c0 .22-.152.306-.343.197a.759.759 0 0 1-.343-.593c0-.22.155-.306.343-.2a.755.755 0 0 1 .343.596Zm1.211.697c0 .22-.155.31-.343.2a.757.757 0 0 1-.343-.596c0-.217.152-.306.343-.197a.758.758 0 0 1 .343.593Zm1.208.7c0 .216-.154.306-.343.196a.757.757 0 0 1-.342-.592c0-.22.154-.31.342-.2a.765.765 0 0 1 .343.596Zm1.208.696c0 .22-.151.307-.342.2a.763.763 0 0 1-.343-.596c0-.219.154-.306.343-.196a.75.75 0 0 1 .342.592Z" fill="#fff"/><path d="m45.357 49.808-14.019-8.09a.735.735 0 0 1-.306-.584v-2.13c0-.228.138-.329.306-.233l14.013 8.092a.726.726 0 0 1 .306.581v2.133c.012.225-.132.329-.3.23Z" fill="url(#o)"/><path d="m34.264 42.325-2.083-1.206a.716.716 0 0 1-.297-.562c0-.219.134-.32.297-.224l2.09 1.208a.702.702 0 0 1 .299.562c-.009.216-.14.317-.306.222Z" fill="#D4ECFF"/><path d="M36.045 42.96c0 .22-.152.306-.343.197a.76.76 0 0 1-.343-.593c0-.22.155-.306.343-.2a.756.756 0 0 1 .343.596Zm1.211.697c0 .219-.155.309-.343.2a.757.757 0 0 1-.343-.596c0-.217.152-.307.343-.197a.758.758 0 0 1 .343.593Zm1.208.699c0 .217-.154.307-.343.197a.758.758 0 0 1-.342-.593c0-.219.154-.309.342-.2a.765.765 0 0 1 .343.596Zm1.208.697c0 .22-.151.306-.342.197a.753.753 0 0 1-.343-.593c0-.22.154-.306.343-.197a.75.75 0 0 1 .342.593Z" fill="#fff"/><path d="m45.357 54.806-14.019-8.09a.736.736 0 0 1-.306-.584v-2.13c0-.227.138-.329.306-.233l14.013 8.09a.736.736 0 0 1 .318.598v2.133c0 .21-.144.314-.312.216Z" fill="url(#p)"/><path d="m34.264 47.324-2.083-1.206a.717.717 0 0 1-.297-.562c0-.219.134-.32.297-.225l2.09 1.209a.702.702 0 0 1 .299.562c-.009.216-.14.317-.306.222Z" fill="#D4ECFF"/><path d="M36.045 47.962c0 .219-.152.306-.343.196a.76.76 0 0 1-.343-.593c0-.219.155-.306.343-.2a.756.756 0 0 1 .343.596Zm1.211.694c0 .219-.155.309-.343.199a.755.755 0 0 1-.343-.596c0-.216.152-.306.343-.196a.758.758 0 0 1 .343.593Zm1.208.71c0 .217-.154.307-.343.197a.758.758 0 0 1-.342-.593c0-.22.154-.309.342-.2a.765.765 0 0 1 .343.596Zm1.208.686c0 .22-.151.306-.342.2a.764.764 0 0 1-.343-.596c0-.22.154-.306.343-.197a.75.75 0 0 1 .342.593Z" fill="#fff"/><path d="m45.357 59.805-14.019-8.09a.736.736 0 0 1-.306-.584V49c0-.228.138-.329.306-.233l14.013 8.09a.736.736 0 0 1 .306.584v2.133c.012.224-.132.328-.3.23Z" fill="url(#q)"/><path d="m34.264 52.322-2.083-1.205a.716.716 0 0 1-.297-.562c0-.22.134-.32.297-.225l2.09 1.208a.703.703 0 0 1 .299.562c-.009.217-.14.318-.306.222Z" fill="#D4ECFF"/><path d="M36.045 52.957c0 .22-.152.307-.343.197a.759.759 0 0 1-.343-.593c0-.219.155-.306.343-.2a.756.756 0 0 1 .343.596Zm1.211.697c0 .22-.155.307-.343.2a.756.756 0 0 1-.343-.596c0-.216.152-.306.343-.197a.76.76 0 0 1 .343.593Zm1.208.7c0 .216-.154.306-.343.197a.757.757 0 0 1-.342-.593c0-.22.154-.31.342-.2a.765.765 0 0 1 .343.596Zm1.208.696c0 .22-.151.307-.342.198a.753.753 0 0 1-.343-.593c0-.22.154-.307.343-.197a.75.75 0 0 1 .342.593Z" fill="#fff"/><path d="m45.357 64.804-14.019-8.09a.735.735 0 0 1-.306-.584V54c0-.228.138-.329.306-.233l14.013 8.09a.736.736 0 0 1 .306.584v2.132c.012.225-.132.33-.3.23Z" fill="url(#r)"/><path d="m34.264 57.321-2.083-1.21a.716.716 0 0 1-.297-.563c0-.219.134-.32.297-.225l2.09 1.209a.703.703 0 0 1 .299.562c-.009.222-.14.323-.306.227Z" fill="#D4ECFF"/><path d="M36.045 57.956c0 .22-.152.306-.343.197a.76.76 0 0 1-.343-.593c0-.22.155-.306.343-.2a.756.756 0 0 1 .343.596Zm1.211.697c0 .219-.155.306-.343.2a.755.755 0 0 1-.343-.596c0-.217.152-.307.343-.197a.758.758 0 0 1 .343.593Zm1.208.7c0 .216-.154.306-.343.196a.757.757 0 0 1-.342-.593c0-.219.154-.309.342-.2a.765.765 0 0 1 .343.597Zm1.208.691c0 .219-.151.306-.342.196a.753.753 0 0 1-.343-.593c0-.219.154-.306.343-.196a.75.75 0 0 1 .342.593Z" fill="#fff"/><path d="m45.357 69.802-14.019-8.09a.735.735 0 0 1-.306-.584v-2.13c0-.227.138-.328.306-.233l14.013 8.09a.737.737 0 0 1 .306.584v2.133c.012.225-.132.329-.3.23Z" fill="url(#s)"/><path d="m34.264 62.32-2.083-1.206a.717.717 0 0 1-.297-.562c0-.219.134-.32.297-.224l2.09 1.208a.702.702 0 0 1 .299.562c-.009.216-.14.317-.306.222Z" fill="#D4ECFF"/><path d="M36.045 62.955c0 .22-.152.306-.343.197a.76.76 0 0 1-.343-.593c0-.22.155-.307.343-.2a.756.756 0 0 1 .343.596Zm1.211.697c0 .219-.155.306-.343.2a.756.756 0 0 1-.343-.597c0-.216.152-.306.343-.196a.76.76 0 0 1 .343.593Zm1.208.699c0 .217-.154.307-.343.197a.757.757 0 0 1-.342-.593c0-.219.154-.309.342-.2a.765.765 0 0 1 .343.596Zm1.208.697c0 .22-.151.306-.342.197a.753.753 0 0 1-.343-.593c0-.22.154-.306.343-.197a.75.75 0 0 1 .342.593Z" fill="#fff"/><path d="m45.357 74.801-14.019-8.09a.735.735 0 0 1-.306-.584v-2.13c0-.227.138-.328.306-.233l14.019 8.081a.736.736 0 0 1 .306.585v2.132c.006.234-.138.338-.306.24Z" fill="url(#t)"/><path d="m34.264 67.319-2.083-1.206a.717.717 0 0 1-.297-.562c0-.22.134-.32.297-.225l2.09 1.209a.703.703 0 0 1 .299.562c-.009.216-.14.317-.306.222Z" fill="#D4ECFF"/><path d="M36.045 67.954c0 .219-.152.306-.343.196a.76.76 0 0 1-.343-.593c0-.219.155-.306.343-.199a.756.756 0 0 1 .343.596Zm1.211.696c0 .22-.155.307-.343.2a.756.756 0 0 1-.343-.596c0-.216.152-.306.343-.197a.76.76 0 0 1 .343.593Zm1.208.7c0 .217-.154.306-.343.197a.758.758 0 0 1-.342-.593c0-.22.154-.31.342-.2a.765.765 0 0 1 .343.596Zm1.208.697c0 .22-.151.306-.342.197a.753.753 0 0 1-.343-.593c0-.22.154-.307.343-.197a.75.75 0 0 1 .342.593Z" fill="#fff"/><path d="M41.454 30.26a.225.225 0 0 1-.225-.225v-9.24a.225.225 0 0 1 .45 0v9.242a.225.225 0 0 1-.225.222Z" fill="#A7B0FF"/><path d="M42.263 20.217H40.66v3.464h1.604v-3.464Z" fill="url(#u)"/><path d="M42.016 24.008a1.246 1.246 0 0 1-1.124 0 .346.346 0 0 1 0-.655 1.261 1.261 0 0 1 1.124 0 .346.346 0 0 1 0 .654Z" fill="url(#v)"/><path d="M42.76 15.387h-2.602v5.434h2.602v-5.434Z" fill="#0147FF"/><path d="M40.656 20.784v1.175a2.097 2.097 0 0 0 1.607 0v-1.175a2.097 2.097 0 0 0-1.607 0Z" fill="#171552"/><path d="M42.378 21.352a2.035 2.035 0 0 1-1.837 0c-.509-.281-.509-.77 0-1.062a2.034 2.034 0 0 1 1.837 0c.509.292.509.77 0 1.062Z" fill="#0147FF"/><path d="M43.654 31.572a.226.226 0 0 1-.208-.14.225.225 0 0 1-.017-.085V22.11a.225.225 0 0 1 .45 0v9.239a.225.225 0 0 1-.225.222Z" fill="#A7B0FF"/><path d="M44.455 21.526H42.85v3.465h1.605v-3.465Z" fill="url(#w)"/><path d="M44.221 25.317a1.245 1.245 0 0 1-1.123 0 .346.346 0 0 1 0-.655 1.261 1.261 0 0 1 1.123 0 .346.346 0 0 1 0 .655Z" fill="url(#x)"/><path d="M44.955 16.699h-2.602v5.434h2.602V16.7Z" fill="#0147FF"/><path d="M42.859 22.11v1.172a2.066 2.066 0 0 0 1.604 0v-1.171a2.064 2.064 0 0 0-1.604 0Z" fill="#171552"/><path d="M44.573 22.673a2.022 2.022 0 0 1-1.84 0c-.506-.281-.506-.767 0-1.062a2.042 2.042 0 0 1 1.84 0c.508.283.508.758 0 1.062Z" fill="#0147FF"/><path d="M45.849 32.884a.225.225 0 0 1-.225-.225v-9.242a.225.225 0 1 1 .447 0v9.242a.221.221 0 0 1-.222.225Z" fill="#A7B0FF"/><path d="M46.65 22.836h-1.605V26.3h1.604v-3.464Z" fill="url(#y)"/><path d="M46.416 26.629a1.261 1.261 0 0 1-1.124 0 .345.345 0 0 1 0-.658 1.262 1.262 0 0 1 1.124 0 .349.349 0 0 1 0 .658Z" fill="url(#z)"/><path d="M47.15 18.008h-2.603v5.435h2.602v-5.435Z" fill="#0147FF"/><path d="M45.045 23.406v1.172a2.066 2.066 0 0 0 1.604 0v-1.172a2.064 2.064 0 0 0-1.604 0Z" fill="#171552"/><path d="M46.767 23.97a2.022 2.022 0 0 1-1.84 0c-.509-.28-.509-.766 0-1.061a2.043 2.043 0 0 1 1.84 0c.509.295.509.77 0 1.062Z" fill="#0147FF"/><path d="M48.04 34.193a.224.224 0 0 1-.225-.225v-9.241a.224.224 0 1 1 .45 0v9.241a.225.225 0 0 1-.225.225Z" fill="#A7B0FF"/><path d="M48.844 24.148h-1.605v3.465h1.605v-3.465Z" fill="url(#A)"/><path d="M48.608 27.938a1.261 1.261 0 0 1-1.124 0 .345.345 0 0 1 0-.654 1.245 1.245 0 0 1 1.124 0 .346.346 0 0 1 0 .654Z" fill="url(#B)"/><path d="M49.344 19.318h-2.602v5.434h2.602v-5.434Z" fill="#0147FF"/><path d="M47.24 24.715v1.172a2.065 2.065 0 0 0 1.604 0v-1.172a2.09 2.09 0 0 0-1.605 0Z" fill="#171552"/><path d="M48.962 25.283a2.042 2.042 0 0 1-1.84 0c-.51-.295-.51-.77 0-1.062a2.023 2.023 0 0 1 1.84 0c.505.292.505.767 0 1.062Z" fill="#0147FF"/><path d="m58.237 29.253 3.49-2.054-3.321-4.147-.874 1.427.705 4.774Z" fill="url(#C)"/><path d="m32.909 6.496 5.57-3.211-.212 3.203c0 .006-3.197 1.011-3.197 1.011l-2.161-1.003Z" fill="url(#D)"/><path d="M59.206 18.826a3.507 3.507 0 0 0-1.202-.447c-.562-2.95-2.616-6.083-5.058-7.496a4.945 4.945 0 0 0-2.07-.7c-.335-3.577-2.81-7.64-5.84-9.382C43.46-.11 42.03-.216 40.973.34l-.05.03-.082.045-3.282 1.939 1.085.86c-.978.427-1.599 1.525-1.599 3.15 0 2.992 2.102 6.63 4.695 8.128l17.466 12.473c1.948 1.124 3.527.214 3.527-2.034 0-2.248-1.58-4.982-3.526-6.106Z" fill="url(#E)"/><path d="m37.208 5.044 7.533-4.4c-1.46-.765-2.782-.827-3.773-.304l-.051.03-.081.046-3.282 1.939 1.09.86a2.621 2.621 0 0 0-1.436 1.829Z" fill="url(#F)"/><path d="m51.123 17.994 5.504-3.225c-.95-1.63-2.248-3.055-3.686-3.898a6.292 6.292 0 0 0-.562-.28l-6.991 4.093 5.735 3.31Z" fill="url(#G)"/><path d="m39.102 2.723 2.45 1.405 4.496-2.644A9.504 9.504 0 0 0 45.039.8a6.14 6.14 0 0 0-1.568-.658l-4.369 2.58Zm16.912 11.096-4.389 2.588 1.526 1.686 3.985-2.352a12.891 12.891 0 0 0-1.122-1.922Z" fill="#fff"/><path d="M55.761 20.855a3.504 3.504 0 0 0-1.205-.43c-.562-2.95-2.613-6.084-5.058-7.497a4.994 4.994 0 0 0-2.07-.702c-.335-3.574-2.81-7.638-5.842-9.38C38.34.97 35.708 2.49 35.708 6.238v.385c-2.375-1.102-4.23.14-4.23 2.953.01 2.981 2.108 6.634 4.702 8.115l19.58 11.307c1.948 1.124 3.524.21 3.524-2.037 0-2.248-1.576-4.982-3.523-6.106Z" fill="#D4ECFF"/><path d="M35.716 6.609V6.21c-1.31-.512-2.439-.281-3.144.53.756-.645 1.874-.718 3.144-.131Zm20.332 13.967a3.518 3.518 0 0 0-1.205-.432c-.562-2.95-2.614-6.083-5.058-7.494a4.915 4.915 0 0 0-2.07-.703c-.335-3.574-2.81-7.64-5.843-9.382-2.02-1.166-3.804-1.017-4.864.169 1.08-.922 2.729-.958 4.578.112 3.02 1.742 5.507 5.805 5.842 9.38a4.994 4.994 0 0 1 2.07.702c2.448 1.405 4.496 4.546 5.058 7.497.426.072.835.223 1.206.444 1.947 1.124 3.523 3.858 3.523 6.106a2.908 2.908 0 0 1-.562 1.877c.528-.408.843-1.147.843-2.156.006-2.262-1.57-4.995-3.518-6.12Z" fill="#fff"/><path d="m35.3 7.5 1.473.682-.074-1.62v-.34c0-1.445.439-2.496 1.231-2.954.792-.458 1.92-.312 3.172.413 2.695 1.554 5.058 5.339 5.353 8.62l.056.818.843.065a3.989 3.989 0 0 1 1.655.562c2.139 1.236 4.07 4.108 4.586 6.828l.13.68.685.11c.306.054.6.164.865.325 1.633.984 3.038 3.375 3.038 5.272 0 .71-.197 1.233-.54 1.43-.343.197-.893.11-1.509-.247L36.677 16.84c-2.276-1.316-4.215-4.648-4.215-7.278 0-1.034.304-1.818.843-2.158.235-.143.506-.215.781-.208.422.013.836.116 1.214.304Z" fill="url(#H)"/><path d="m45.076 19.776.514-.262-.509-.385-.005.647Z" fill="#171552"/><path d="m43.525 12.796.5-.253.008.264-.508-.01Z" fill="#5793CE"/><path d="m46.548 18.143.523-.264-1.006-.955.483 1.22Zm-1.11 1.355-2.444-1.439a.528.528 0 0 1-.225-.413v-2.83l2.9 1.703v2.833c0 .154-.107.23-.23.146Z" fill="#171552"/><path d="m44.02 12.557-2.642 1.686c-.112.073-.023.34.149.441l2.697 1.588 2.698 1.59c.168.099.261-.062.149-.28l-2.622-4.8c-.112-.191-.317-.31-.43-.225Z" fill="#171552"/><path d="m44.916 19.762-2.448-1.439a.515.515 0 0 1-.222-.413v-2.83l2.903 1.692v2.832c-.009.166-.11.23-.233.158Z" fill="#fff"/><path d="m43.494 12.81-2.642 1.686c-.112.073-.022.34.15.441l2.697 1.588 2.697 1.59c.172.098.262-.062.152-.28l-2.624-4.772c-.113-.208-.315-.326-.43-.253Z" fill="#fff"/><path d="M6.232 73.573c-.177 0-.35-.045-.505-.132l-5.463-3.09a.526.526 0 0 1 0-.91l13.622-7.869a2.543 2.543 0 0 1 2.53 0l15.569 8.992-.225.39-15.57-8.99a2.093 2.093 0 0 0-2.084 0L.483 69.83a.073.073 0 0 0-.036.067.07.07 0 0 0 .036.065l5.463 3.09a.578.578 0 0 0 .598-.02l2.307-1.491.245.376-2.307 1.495c-.167.106-.36.161-.557.16Z" fill="#2137FF"/><path d="m13.355 74.77-7.342-4.24c-.45-.261-.393-.714.126-1.014l7.09-4.094a1.967 1.967 0 0 1 1.759-.073l7.33 4.248c.45.259.394.714-.126 1.015l-7.09 4.094a1.966 1.966 0 0 1-1.747.064Z" fill="#2137FF"/><path d="M24.752 66.36v-3.172H17.64l-2.458-1.405c-.562-.326-1.549-.28-2.2.093l-2.296 1.323H3.569v3.263a.64.64 0 0 0 .376.59l9.194 5.307c.562.327 1.551.282 2.2-.092l8.88-5.125c.376-.24.556-.52.533-.781Z" fill="url(#I)"/><path d="M14.162 61.547a2.5 2.5 0 0 0-1.18.31l-2.296 1.323H3.569v3.262a.64.64 0 0 0 .376.59l9.194 5.308a2 2 0 0 0 1.023.216V61.547Z" fill="#171552"/><path d="M4.364 63.177H3.56v3.262a.64.64 0 0 0 .377.59l.427.247v-4.1Zm8.916 9.23c.57.207 1.196.2 1.761-.02v-3.706H13.28v3.726Z" fill="#fff"/><path d="m13.139 69.086-9.194-5.308c-.562-.326-.492-.896.158-1.273l8.879-5.125c.652-.374 1.635-.416 2.2-.09l9.194 5.308c.562.326.494.893-.158 1.27l-8.879 5.125c-.649.377-1.635.419-2.2.093Z" fill="url(#J)"/><path d="M13.305 68.13 5.6 63.698c-.472-.281-.413-.75.132-1.065l7.44-4.296a2.052 2.052 0 0 1 1.844-.076l7.705 4.448c.471.28.413.75-.133 1.065l-7.44 4.296a2.05 2.05 0 0 1-1.843.062Z" fill="#171552"/><path d="M21.372 67.198a.82.82 0 0 1-.371.643c-.205.118-.371.023-.371-.216a.826.826 0 0 1 .37-.644c.206-.118.372-.022.372.217Zm1.194-.691a.816.816 0 0 1-.37.643c-.206.118-.372.022-.372-.214a.82.82 0 0 1 .371-.643c.205-.118.371-.023.371.214Zm1.186-.689a.819.819 0 0 1-.371.644c-.205.118-.371.022-.371-.217a.819.819 0 0 1 .37-.64c.215-.121.372-.023.372.213Z" fill="#fff"/><path d="M24.752 61.291V58.12H17.64l-2.458-1.405c-.562-.326-1.549-.28-2.2.093l-2.296 1.323H3.569v3.263a.64.64 0 0 0 .376.59l9.194 5.307c.562.326 1.551.281 2.2-.092l8.88-5.125c.376-.24.556-.52.533-.782Z" fill="url(#K)"/><path d="M14.162 56.478a2.5 2.5 0 0 0-1.18.31l-2.296 1.323H3.569v3.262a.64.64 0 0 0 .376.59l9.194 5.308a2 2 0 0 0 1.023.216V56.478Z" fill="#171552"/><path d="M4.364 58.108H3.56v3.262a.64.64 0 0 0 .377.59l.427.245v-4.097Zm8.916 9.242c.57.204 1.195.197 1.761-.02v-3.718H13.28v3.737Z" fill="#fff"/><path d="m13.139 64.017-9.194-5.308c-.562-.326-.492-.896.158-1.273l8.879-5.125c.652-.374 1.635-.416 2.2-.09l9.194 5.308c.562.326.494.894-.158 1.27l-8.879 5.125c-.649.377-1.635.419-2.2.093Z" fill="url(#L)"/><path d="M13.305 63.062 5.6 58.614c-.472-.281-.413-.75.132-1.065l7.44-4.297a2.052 2.052 0 0 1 1.844-.075l7.705 4.448c.471.28.413.75-.133 1.065l-7.44 4.296a2.052 2.052 0 0 1-1.843.076Z" fill="#171552"/><path d="M21.372 62.129a.826.826 0 0 1-.371.643c-.205.118-.371.023-.371-.216a.826.826 0 0 1 .37-.644c.206-.118.372-.022.372.217Zm1.194-.68a.819.819 0 0 1-.37.643c-.206.118-.372.023-.372-.213a.82.82 0 0 1 .371-.644c.205-.13.371-.034.371.214Zm1.186-.7a.826.826 0 0 1-.371.643c-.205.118-.371.023-.371-.216a.826.826 0 0 1 .37-.643c.215-.118.372-.023.372.216Z" fill="#fff"/><path d="M24.752 56.222V53.05H17.64l-2.458-1.436c-.562-.326-1.549-.28-2.2.093l-2.296 1.324H3.568v3.262a.633.633 0 0 0 .377.587l9.194 5.308c.562.326 1.55.28 2.2-.09l8.88-5.125c.376-.208.555-.49.533-.75Z" fill="url(#M)"/><path d="M14.162 51.406a2.53 2.53 0 0 0-1.18.312l-2.296 1.324H3.568v3.262a.632.632 0 0 0 .377.587l9.194 5.308a2 2 0 0 0 1.023.22V51.405Z" fill="#171552"/><path d="M4.364 53.039H3.56V56.3a.632.632 0 0 0 .377.587l.427.248v-4.097Zm8.916 9.228c.57.204 1.195.197 1.761-.02v-3.703H13.28v3.723Z" fill="#fff"/><path d="M13.139 58.948 3.945 53.64c-.562-.326-.492-.896.158-1.273l8.879-5.125c.652-.376 1.635-.416 2.2-.09l9.194 5.305c.562.326.494.894-.158 1.27l-8.879 5.126c-.649.379-1.635.421-2.2.095Z" fill="url(#N)"/><path d="m24.218 53.106-8.88 5.126c-.648.376-1.634.415-2.2.09l-9.193-5.303a.82.82 0 0 1-.281-.247c-.194.312-.107.65.281.874l9.194 5.308c.562.326 1.55.28 2.2-.093l8.88-5.125c.505-.281.66-.7.437-1.02a1.247 1.247 0 0 1-.438.39Zm-2.846 3.954a.818.818 0 0 1-.371.64c-.205.121-.371.023-.371-.213a.82.82 0 0 1 .37-.644c.206-.118.372-.022.372.217Zm1.194-.691a.819.819 0 0 1-.37.643c-.206.118-.372.023-.372-.214a.818.818 0 0 1 .371-.643c.205-.118.371-.022.371.214Zm1.186-.689a.826.826 0 0 1-.371.644c-.205.118-.371.02-.371-.217a.82.82 0 0 1 .37-.643c.215-.118.372-.023.372.216Z" fill="#fff"/><path d="M13.681 55.655 9.38 53.174c-.264-.155-.23-.422.076-.596l4.153-2.4a1.155 1.155 0 0 1 1.031-.042l4.302 2.484c.264.152.23.419-.076.596l-4.152 2.397a1.124 1.124 0 0 1-1.032.042Z" fill="url(#O)"/><path d="m14.094 53.581-.595-.343c-.037-.02-.031-.059 0-.081l.561-.332a.151.151 0 0 1 .144 0l.595.343c.037.02.031.056 0 .082l-.561.331a.152.152 0 0 1-.144 0Z" fill="#D4ECFF"/><path d="M9.38 53.174c.02-.016.04-.03.061-.042l4.153-2.4a1.155 1.155 0 0 1 1.031-.042l4.288 2.478c.245-.174.259-.413.014-.562l-4.302-2.484a1.155 1.155 0 0 0-1.03.042l-4.154 2.4c-.3.188-.326.455-.062.61Z" fill="#171552"/><path d="M12.546 59.875c0 .158-.112.222-.25.144a.56.56 0 0 1-.25-.433c0-.16.112-.225.25-.146a.562.562 0 0 1 .25.435Zm-.776-.446c0 .16-.112.224-.25.146a.562.562 0 0 1-.25-.433c0-.16.113-.225.25-.146a.56.56 0 0 1 .25.433Zm.776 1.379c0 .16-.112.225-.25.146a.56.56 0 0 1-.25-.432c0-.16.112-.225.25-.146a.563.563 0 0 1 .25.432Zm-.776-.444c0 .16-.112.225-.25.146a.56.56 0 0 1-.25-.432c0-.16.113-.225.25-.147a.563.563 0 0 1 .25.433Zm.776 4.555c0 .157-.112.222-.25.143a.56.56 0 0 1-.25-.433c0-.16.112-.224.25-.143a.563.563 0 0 1 .25.433Zm-.776-.447c0 .16-.112.225-.25.146a.562.562 0 0 1-.25-.432c0-.16.113-.225.25-.146a.56.56 0 0 1 .25.432Zm.776 1.383c0 .157-.112.222-.25.143a.562.562 0 0 1-.25-.433c0-.16.112-.224.25-.143a.562.562 0 0 1 .25.433Zm-.776-.447c0 .16-.112.225-.25.146a.56.56 0 0 1-.25-.433c0-.16.113-.225.25-.146a.563.563 0 0 1 .25.433Zm.776 4.555c0 .16-.112.224-.25.143a.56.56 0 0 1-.25-.433c0-.16.112-.225.25-.143a.563.563 0 0 1 .25.433Zm-.776-.444c0 .157-.112.222-.25.143a.562.562 0 0 1-.25-.433c0-.16.113-.224.25-.143a.562.562 0 0 1 .25.433Zm.776 1.379c0 .158-.112.222-.25.144a.56.56 0 0 1-.25-.433c0-.16.112-.225.25-.143a.562.562 0 0 1 .25.432Zm-.776-.444c0 .158-.112.222-.25.144a.56.56 0 0 1-.25-.433c0-.16.113-.225.25-.146a.562.562 0 0 1 .25.435Z" fill="#fff"/><path d="M14.28 78.541c-.267 0-.53-.07-.762-.202l-4.63-2.69a.502.502 0 0 1 0-.873l3.046-1.767.224.387-3.046 1.768a.056.056 0 0 0-.028.047.056.056 0 0 0 .028.051l4.634 2.686a1.07 1.07 0 0 0 1.062 0l9.073-5.17a1.52 1.52 0 0 1 1.512 0l7.6 4.406a1.065 1.065 0 0 0 1.071 0l3.653-2.119.225.388-3.653 2.119a1.523 1.523 0 0 1-1.52 0l-7.587-4.392a1.074 1.074 0 0 0-1.065 0l-9.076 5.164a1.521 1.521 0 0 1-.761.197Zm40.245 17.106-7.342-4.24c-.452-.261-.393-.713.127-1.014l7.089-4.094a1.968 1.968 0 0 1 1.756-.073l7.342 4.24c.45.259.394.714-.126 1.014l-7.09 4.094a1.968 1.968 0 0 1-1.756.073Z" fill="#2137FF"/><path d="M65.933 87.238v-3.173H58.82l-2.459-1.419c-.562-.326-1.548-.28-2.2.093l-2.293 1.323h-7.12v3.263a.638.638 0 0 0 .38.59l9.19 5.308c.562.326 1.551.28 2.203-.093l8.877-5.125c.376-.225.556-.506.536-.767Z" fill="url(#P)"/><path d="M55.34 82.424a2.51 2.51 0 0 0-1.18.31l-2.293 1.323h-7.12v3.262a.637.637 0 0 0 .38.59l9.19 5.308a2 2 0 0 0 1.023.216V82.424Z" fill="#171552"/><path d="M45.553 84.054h-.806v3.262a.638.638 0 0 0 .38.59l.426.245v-4.097Zm8.907 9.228a2.52 2.52 0 0 0 1.76-.02v-3.715h-1.76v3.735Z" fill="#fff"/><path d="m54.317 89.963-9.19-5.307c-.563-.327-.495-.897.157-1.273l8.876-5.126c.652-.373 1.638-.415 2.2-.09l9.194 5.308c.562.326.495.894-.157 1.27l-8.877 5.126c-.652.376-1.638.418-2.203.092Z" fill="url(#Q)"/><path d="m54.483 89.008-7.69-4.448c-.472-.281-.413-.75.135-1.065l7.437-4.296a2.055 2.055 0 0 1 1.846-.076l7.702 4.448c.475.28.416.75-.132 1.065l-7.438 4.296a2.056 2.056 0 0 1-1.86.076Z" fill="#171552"/><path d="M62.55 88.075a.826.826 0 0 1-.37.643c-.206.118-.371.023-.371-.216a.825.825 0 0 1 .37-.643c.206-.118.371-.023.371.216Zm1.197-.691a.823.823 0 0 1-.374.643c-.202.118-.37.023-.37-.213a.843.843 0 0 1 .37-.644c.206-.118.374-.022.374.214Zm1.195-.689a.825.825 0 0 1-.371.644c-.206.118-.371.022-.371-.217a.826.826 0 0 1 .37-.643c.206-.118.372-.022.372.216Z" fill="#fff"/><path d="M65.933 82.169v-3.173H58.82l-2.459-1.419c-.562-.326-1.548-.28-2.2.093l-2.293 1.324h-7.12v3.248a.631.631 0 0 0 .38.587l9.19 5.314c.562.325 1.551.28 2.203-.09l8.877-5.126c.376-.216.556-.497.536-.758Z" fill="url(#R)"/><path d="M55.34 77.353a2.547 2.547 0 0 0-1.18.311l-2.293 1.324h-7.12v3.254a.631.631 0 0 0 .38.587l9.19 5.313a2 2 0 0 0 1.023.22v-11.01Z" fill="#171552"/><path d="M45.553 78.985h-.806v3.257a.632.632 0 0 0 .38.587l.426.247v-4.09Zm8.907 9.228a2.52 2.52 0 0 0 1.76-.02V84.49h-1.76v3.723Z" fill="#fff"/><path d="m54.317 84.894-9.19-5.308c-.563-.326-.495-.896.157-1.272l8.876-5.126c.652-.376 1.638-.416 2.2-.09l9.194 5.308c.562.326.495.894-.157 1.27l-8.877 5.125c-.652.377-1.638.42-2.203.093Z" fill="url(#S)"/><path d="m54.483 83.928-7.69-4.437c-.472-.281-.413-.75.135-1.065l7.437-4.296a2.058 2.058 0 0 1 1.846-.076l7.702 4.448c.475.28.416.75-.132 1.065l-7.438 4.293a2.05 2.05 0 0 1-1.86.068Z" fill="#171552"/><path d="M62.55 83.006a.819.819 0 0 1-.37.64c-.206.121-.371.023-.371-.213a.82.82 0 0 1 .37-.644c.206-.118.371-.022.371.217Zm1.197-.691a.823.823 0 0 1-.374.643c-.202.118-.37.023-.37-.213a.822.822 0 0 1 .367-.644c.209-.118.377-.022.377.214Zm1.195-.689a.825.825 0 0 1-.371.644c-.206.118-.371.02-.371-.217a.82.82 0 0 1 .37-.643c.206-.118.372-.011.372.216Z" fill="#fff"/><path d="M65.933 77.1v-3.173H58.82l-2.459-1.419c-.562-.326-1.548-.28-2.2.093l-2.293 1.323h-7.12v3.26a.632.632 0 0 0 .38.59l9.19 5.31c.562.327 1.551.282 2.203-.09l8.877-5.124c.376-.228.556-.509.536-.77Z" fill="url(#T)"/><path d="M55.34 72.284a2.546 2.546 0 0 0-1.18.312l-2.293 1.323h-7.12v3.265a.632.632 0 0 0 .38.59l9.19 5.31c.316.163.669.239 1.023.22v-11.02Z" fill="#171552"/><path d="M45.553 73.916h-.806v3.268a.632.632 0 0 0 .38.59l.426.247v-4.105Zm8.907 9.228a2.52 2.52 0 0 0 1.76-.02v-3.692h-1.76v3.712Z" fill="#fff"/><path d="m54.317 79.825-9.19-5.308c-.563-.325-.495-.896.157-1.272l8.876-5.126c.652-.376 1.638-.415 2.2-.09l9.194 5.308c.562.326.495.894-.157 1.27l-8.877 5.126c-.652.376-1.638.415-2.203.092Z" fill="url(#U)"/><path d="m65.397 73.984-8.877 5.125c-.652.376-1.638.416-2.203.09l-9.19-5.308a.845.845 0 0 1-.282-.25c-.194.312-.104.652.281.876l9.191 5.308c.562.323 1.551.281 2.203-.092l8.877-5.126c.505-.28.66-.7.44-1.02a1.26 1.26 0 0 1-.44.397Zm-2.847 3.95a.818.818 0 0 1-.37.644c-.206.12-.371.022-.371-.214a.82.82 0 0 1 .37-.643c.206-.118.371-.023.371.213Zm1.197-.688a.823.823 0 0 1-.374.643c-.202.118-.37.023-.37-.213a.824.824 0 0 1 .37-.644c.206-.129.374-.022.374.214Zm1.195-.689a.817.817 0 0 1-.371.641c-.206.12-.371.023-.371-.213a.82.82 0 0 1 .37-.644c.206-.118.372-.022.372.216Z" fill="#fff"/><path d="m54.862 76.532-4.302-2.484c-.264-.151-.23-.419.074-.593l4.155-2.4a1.149 1.149 0 0 1 1.029-.041l4.302 2.484c.264.151.23.418-.073.595L55.89 76.49a1.124 1.124 0 0 1-1.029.042Z" fill="url(#V)"/><path d="m55.273 74.453-.593-.343c-.037-.022-.034-.059 0-.081l.562-.332a.164.164 0 0 1 .143 0l.593.346c.036.02.033.056 0 .081l-.576.332a.151.151 0 0 1-.13-.003Z" fill="#fff"/><path d="m50.56 74.048.062-.042 4.156-2.4a1.15 1.15 0 0 1 1.029-.042l4.29 2.479c.242-.175.256-.413 0-.562l-4.28-2.479a1.15 1.15 0 0 0-1.028.043l-4.155 2.4c-.304.185-.338.452-.074.603Z" fill="#171552"/><path d="M41.212 23.08c0 .16-.112.225-.25.143a.562.562 0 0 1-.25-.432c0-.16.112-.225.25-.144a.563.563 0 0 1 .25.433Zm2.208 1.335c0 .16-.112.225-.25.143a.543.543 0 0 1-.25-.433c0-.16.11-.224.25-.143a.562.562 0 0 1 .25.433Zm2.195 1.349c0 .16-.112.224-.25.143a.56.56 0 0 1-.25-.433c0-.16.112-.225.25-.143a.563.563 0 0 1 .25.433Zm2.2 1.32c0 .16-.112.225-.25.143a.562.562 0 0 1-.25-.432c0-.16.113-.225.25-.144a.562.562 0 0 1 .25.433Z" fill="#fff"/></g><defs><linearGradient id="b" x1="65.725" y1="52.649" x2="64.575" y2="57.443" gradientUnits="userSpaceOnUse"><stop stop-color="#2137FF"/><stop offset="1" stop-color="#0047FF"/></linearGradient><linearGradient id="c" x1="65.725" y1="47.594" x2="64.58" y2="52.377" gradientUnits="userSpaceOnUse"><stop stop-color="#2137FF"/><stop offset="1" stop-color="#0047FF"/></linearGradient><linearGradient id="d" x1="65.725" y1="42.525" x2="64.578" y2="47.312" gradientUnits="userSpaceOnUse"><stop stop-color="#2137FF"/><stop offset="1" stop-color="#0047FF"/></linearGradient><linearGradient id="e" x1="61.681" y1="42.202" x2="34.737" y2="38.375" gradientUnits="userSpaceOnUse"><stop stop-color="#E4E7FF"/><stop offset="1" stop-color="#2137FF"/></linearGradient><linearGradient id="f" x1="64.918" y1="41.133" x2="64.261" y2="43.594" gradientUnits="userSpaceOnUse"><stop stop-color="#2137FF"/><stop offset="1" stop-color="#0047FF"/></linearGradient><linearGradient id="g" x1="46.861" y1="28.652" x2="35.885" y2="43.169" gradientUnits="userSpaceOnUse"><stop stop-color="#2137FF"/><stop offset="1" stop-color="#0047FF"/></linearGradient><linearGradient id="h" x1="36.709" y1="45.551" x2="12.424" y2="44.797" gradientUnits="userSpaceOnUse"><stop stop-color="#E4E7FF"/><stop offset="1" stop-color="#2137FF"/></linearGradient><linearGradient id="i" x1="44.677" y1="26.132" x2="37.444" y2="37.837" gradientUnits="userSpaceOnUse"><stop stop-color="#213CFF"/><stop offset="1" stop-color="#fff"/></linearGradient><linearGradient id="j" x1="41.452" y1="29.882" x2="41.085" y2="30.468" gradientUnits="userSpaceOnUse"><stop stop-color="#213CFF"/><stop offset="1" stop-color="#fff"/></linearGradient><linearGradient id="k" x1="43.646" y1="31.143" x2="43.28" y2="31.729" gradientUnits="userSpaceOnUse"><stop stop-color="#213CFF"/><stop offset="1" stop-color="#fff"/></linearGradient><linearGradient id="l" x1="45.828" y1="32.405" x2="45.465" y2="32.989" gradientUnits="userSpaceOnUse"><stop stop-color="#213CFF"/><stop offset="1" stop-color="#fff"/></linearGradient><linearGradient id="m" x1="48.034" y1="33.666" x2="47.668" y2="34.252" gradientUnits="userSpaceOnUse"><stop stop-color="#213CFF"/><stop offset="1" stop-color="#fff"/></linearGradient><linearGradient id="n" x1="39.384" y1="33.739" x2="37.787" y2="38.293" gradientUnits="userSpaceOnUse"><stop stop-color="#2137FF"/><stop offset="1" stop-color="#0047FF"/></linearGradient><linearGradient id="o" x1="39.384" y1="38.735" x2="37.786" y2="43.29" gradientUnits="userSpaceOnUse"><stop stop-color="#2137FF"/><stop offset="1" stop-color="#0047FF"/></linearGradient><linearGradient id="p" x1="39.39" y1="43.733" x2="37.793" y2="48.289" gradientUnits="userSpaceOnUse"><stop stop-color="#2137FF"/><stop offset="1" stop-color="#0047FF"/></linearGradient><linearGradient id="q" x1="39.384" y1="48.732" x2="37.786" y2="53.287" gradientUnits="userSpaceOnUse"><stop stop-color="#2137FF"/><stop offset="1" stop-color="#0047FF"/></linearGradient><linearGradient id="r" x1="39.384" y1="53.731" x2="37.786" y2="58.286" gradientUnits="userSpaceOnUse"><stop stop-color="#2137FF"/><stop offset="1" stop-color="#0047FF"/></linearGradient><linearGradient id="s" x1="39.384" y1="58.73" x2="37.786" y2="63.285" gradientUnits="userSpaceOnUse"><stop stop-color="#2137FF"/><stop offset="1" stop-color="#0047FF"/></linearGradient><linearGradient id="t" x1="39.386" y1="63.728" x2="37.79" y2="68.284" gradientUnits="userSpaceOnUse"><stop stop-color="#2137FF"/><stop offset="1" stop-color="#0047FF"/></linearGradient><linearGradient id="u" x1="41.575" y1="20.217" x2="40.777" y2="21.017" gradientUnits="userSpaceOnUse"><stop stop-color="#2137FF"/><stop offset="1" stop-color="#0047FF"/></linearGradient><linearGradient id="v" x1="41.567" y1="23.221" x2="41.461" y2="23.616" gradientUnits="userSpaceOnUse"><stop stop-color="#2137FF"/><stop offset="1" stop-color="#0047FF"/></linearGradient><linearGradient id="w" x1="43.767" y1="21.526" x2="42.969" y2="22.326" gradientUnits="userSpaceOnUse"><stop stop-color="#2137FF"/><stop offset="1" stop-color="#0047FF"/></linearGradient><linearGradient id="x" x1="43.773" y1="24.53" x2="43.667" y2="24.926" gradientUnits="userSpaceOnUse"><stop stop-color="#2137FF"/><stop offset="1" stop-color="#0047FF"/></linearGradient><linearGradient id="y" x1="45.961" y1="22.836" x2="45.163" y2="23.636" gradientUnits="userSpaceOnUse"><stop stop-color="#2137FF"/><stop offset="1" stop-color="#0047FF"/></linearGradient><linearGradient id="z" x1="45.964" y1="25.839" x2="45.859" y2="26.235" gradientUnits="userSpaceOnUse"><stop stop-color="#2137FF"/><stop offset="1" stop-color="#0047FF"/></linearGradient><linearGradient id="A" x1="48.155" y1="24.148" x2="47.358" y2="24.948" gradientUnits="userSpaceOnUse"><stop stop-color="#2137FF"/><stop offset="1" stop-color="#0047FF"/></linearGradient><linearGradient id="B" x1="48.159" y1="27.15" x2="48.053" y2="27.546" gradientUnits="userSpaceOnUse"><stop stop-color="#2137FF"/><stop offset="1" stop-color="#0047FF"/></linearGradient><linearGradient id="C" x1="59.625" y1="23.916" x2="57.021" y2="25.55" gradientUnits="userSpaceOnUse"><stop stop-color="#213CFF"/><stop offset="1" stop-color="#fff"/></linearGradient><linearGradient id="D" x1="35.687" y1="3.872" x2="33.763" y2="6.232" gradientUnits="userSpaceOnUse"><stop stop-color="#213CFF"/><stop offset="1" stop-color="#fff"/></linearGradient><linearGradient id="E" x1="51.713" y1="0" x2="46.7" y2="10.164" gradientUnits="userSpaceOnUse"><stop stop-color="#2137FF"/><stop offset="1" stop-color="#0047FF"/></linearGradient><linearGradient id="F" x1="40.966" y1=".702" x2="38.735" y2="3.794" gradientUnits="userSpaceOnUse"><stop stop-color="#213CFF"/><stop offset="1" stop-color="#fff"/></linearGradient><linearGradient id="G" x1="50.995" y1="11.622" x2="47.737" y2="16.211" gradientUnits="userSpaceOnUse"><stop stop-color="#213CFF"/><stop offset="1" stop-color="#fff"/></linearGradient><linearGradient id="H" x1="47.223" y1="3.006" x2="42.799" y2="12.727" gradientUnits="userSpaceOnUse"><stop stop-color="#2137FF"/><stop offset="1" stop-color="#0047FF"/></linearGradient><linearGradient id="I" x1="15.666" y1="61.565" x2="14.515" y2="66.359" gradientUnits="userSpaceOnUse"><stop stop-color="#2137FF"/><stop offset="1" stop-color="#0047FF"/></linearGradient><linearGradient id="J" x1="11.622" y1="61.243" x2="-15.323" y2="57.416" gradientUnits="userSpaceOnUse"><stop stop-color="#E4E7FF"/><stop offset="1" stop-color="#2137FF"/></linearGradient><linearGradient id="K" x1="15.666" y1="56.496" x2="14.515" y2="61.29" gradientUnits="userSpaceOnUse"><stop stop-color="#2137FF"/><stop offset="1" stop-color="#0047FF"/></linearGradient><linearGradient id="L" x1="11.622" y1="56.174" x2="-15.323" y2="52.347" gradientUnits="userSpaceOnUse"><stop stop-color="#E4E7FF"/><stop offset="1" stop-color="#2137FF"/></linearGradient><linearGradient id="M" x1="15.665" y1="51.396" x2="14.515" y2="56.189" gradientUnits="userSpaceOnUse"><stop stop-color="#2137FF"/><stop offset="1" stop-color="#0047FF"/></linearGradient><linearGradient id="N" x1="11.622" y1="51.105" x2="-15.323" y2="47.277" gradientUnits="userSpaceOnUse"><stop stop-color="#E4E7FF"/><stop offset="1" stop-color="#2137FF"/></linearGradient><linearGradient id="O" x1="14.865" y1="50.035" x2="14.209" y2="52.496" gradientUnits="userSpaceOnUse"><stop stop-color="#2137FF"/><stop offset="1" stop-color="#0047FF"/></linearGradient><linearGradient id="P" x1="56.845" y1="82.428" x2="55.695" y2="87.222" gradientUnits="userSpaceOnUse"><stop stop-color="#2137FF"/><stop offset="1" stop-color="#0047FF"/></linearGradient><linearGradient id="Q" x1="52.801" y1="82.121" x2="25.858" y2="78.294" gradientUnits="userSpaceOnUse"><stop stop-color="#E4E7FF"/><stop offset="1" stop-color="#2137FF"/></linearGradient><linearGradient id="R" x1="56.845" y1="77.359" x2="55.697" y2="82.149" gradientUnits="userSpaceOnUse"><stop stop-color="#2137FF"/><stop offset="1" stop-color="#0047FF"/></linearGradient><linearGradient id="S" x1="52.801" y1="77.051" x2="25.858" y2="73.224" gradientUnits="userSpaceOnUse"><stop stop-color="#E4E7FF"/><stop offset="1" stop-color="#2137FF"/></linearGradient><linearGradient id="T" x1="56.845" y1="72.29" x2="55.695" y2="77.085" gradientUnits="userSpaceOnUse"><stop stop-color="#2137FF"/><stop offset="1" stop-color="#0047FF"/></linearGradient><linearGradient id="U" x1="52.801" y1="71.981" x2="25.858" y2="68.155" gradientUnits="userSpaceOnUse"><stop stop-color="#E4E7FF"/><stop offset="1" stop-color="#2137FF"/></linearGradient><linearGradient id="V" x1="56.044" y1="70.912" x2="55.388" y2="73.373" gradientUnits="userSpaceOnUse"><stop stop-color="#2137FF"/><stop offset="1" stop-color="#0047FF"/></linearGradient><clipPath id="a"><path fill="#fff" d="M0 0h79.474v100H0z"/></clipPath></defs></svg>