<svg width="32" height="32" viewBox="0 0 32 32" fill="none" xmlns="http://www.w3.org/2000/svg">
<g clip-path="url(#clip0_1227_931)">
<path d="M31.2748 5.924C30.7721 6.14694 30.2552 6.33513 29.7271 6.48794C30.3523 5.78082 30.829 4.94882 31.12 4.03839C31.1853 3.83432 31.1177 3.61095 30.9499 3.47745C30.7823 3.34389 30.5496 3.32789 30.3652 3.4372C29.2436 4.10239 28.0336 4.58045 26.7649 4.85995C25.4868 3.61114 23.751 2.90039 21.9565 2.90039C18.1686 2.90039 15.087 5.982 15.087 9.76974C15.087 10.068 15.1058 10.3647 15.1432 10.6573C10.4429 10.2446 6.073 7.93431 3.07226 4.25339C2.96533 4.1222 2.80058 4.05145 2.63189 4.06501C2.46314 4.0782 2.31146 4.17339 2.22621 4.3197C1.61758 5.36401 1.29583 6.55844 1.29583 7.77375C1.29583 9.42899 1.88677 10.9994 2.9307 12.2266C2.61327 12.1167 2.30527 11.9793 2.01127 11.8161C1.85346 11.7282 1.66083 11.7296 1.50402 11.8195C1.34715 11.9094 1.24877 12.0747 1.24458 12.2555C1.24383 12.2859 1.24383 12.3164 1.24383 12.3472C1.24383 14.8179 2.57358 17.0423 4.60663 18.2547C4.43195 18.2373 4.25745 18.212 4.08401 18.1788C3.9052 18.1446 3.72139 18.2073 3.60083 18.3437C3.48008 18.48 3.44008 18.6699 3.49576 18.8433C4.24826 21.1928 6.18569 22.9208 8.52787 23.4477C6.58525 24.6644 4.36376 25.3017 2.03171 25.3017C1.54508 25.3017 1.05571 25.2732 0.576775 25.2165C0.338838 25.1882 0.111339 25.3287 0.0302768 25.555C-0.0507854 25.7814 0.0351518 26.0337 0.237526 26.1635C3.23345 28.0844 6.69756 29.0997 10.2552 29.0997C17.2491 29.0997 21.6244 25.8017 24.0631 23.0349C27.1041 19.585 28.8482 15.0187 28.8482 10.5068C28.8482 10.3183 28.8453 10.128 28.8395 9.93824C30.0393 9.0343 31.0722 7.94031 31.9128 6.68294C32.0405 6.492 32.0267 6.23957 31.8787 6.06382C31.7312 5.88775 31.4849 5.83088 31.2748 5.924Z" fill="#3A426B"/>
</g>
<defs>
<clipPath id="clip0_1227_931">
<rect width="32" height="32" fill="white"/>
</clipPath>
</defs>
</svg>
