<svg width="1700" height="1171" fill="none" xmlns="http://www.w3.org/2000/svg"><mask id="b" fill="#fff"><path fill-rule="evenodd" clip-rule="evenodd" d="m752.431 870.946-6.523-2.706-7.385-5.73v-11.46l-1.846-15.12 1.846-11.938-1.846-10.823-5.662 2.069-3.692-7.481-9.724 2.229-3.2-7.163h-5.784l-3.2-4.457h-5.047l-1.723-5.889 1.723-3.342v-6.526h5.047l-1.97-6.367-3.077-3.82-5.046 3.82-3.815-6.685 7.138-3.979v-11.619l4.8-4.934-3.077-7.805-1.723-4.139h-5.13v4.139l-2.008 3.82h-5.992l-3.323-3.82v-6.367l-3.815-2.228-3.57-2.388v-3.342h-4.308v-4.775h-3.692l-1.6 4.775-3.909-4.775v-5.187l-4.431-7.322 1.97-5.889 4.431-5.73 1.939-6.208v-9.231l1.6-3.979h3.692v-4.298l-7.231-2.228 1.939-4.298 5.292-7.003-3.692-3.024-3.539-2.706v-6.366l-4.431-3.98h-3.693l-3.077 3.98-2.215 2.069h-5.46l-5.17-2.069-3.077-7.004h-3.692v-7.076h-3.693v-7.249l-3.815-2.865-4.062-3.342h-6.646l-4.923-3.82h-6.646l-3.693 3.82-2.092 3.342v6.526h-3.077l-2.954-6.526v-3.342l-1.846-3.82-2.768 3.82v3.342h-4.431l-2.338-3.342 2.338-3.82 4.431-4.726v-6.048l-2.831-2.547-1.6 2.547h-2.338l-3.57 6.048h-5.169l-2.585-6.048v-2.547h-2.83v2.547l-5.785 2.865v-5.412l2.092-6.685-6.523-2.546h-7.581l-6.646-5.656-1.846-5.093-5.539-2.228-3.2-4.616v-2.706h-3.2l-4.677 2.706h-4.8l-2.831-2.706v-3.183l-9.663 3.183-4.308 2.706-3.938 4.616h-2.708l-2.462-4.616h-3.815l-4.062 6.844-2.338 5.093h-7.262l-5.538-5.093-5.293-2.228h-2.215v4.874l-2.708 2.447-4.8 2.168-3.446-2.168-3.077-5.093h-4.062l-2.092 2.646h-3.693l1.97 4.615 1.723 6.034-3.693 2.243h-4.061l-1.97-4.789-2.092-3.488-2.092 6.034-3.446 2.243v6.989h-4.062l-2.831 2.865-4.677 3.183-2.708-3.183h-3.815l-2.093 3.183-4.553 2.243h-4.431v6.303l-4.8 3.342v6.526h-3.57l-2.831 5.953v4.711l-4.43 3.024h-13.936l-2.954 3.98-4.923-3.98-3.077 3.98h-7.385l-6.031 2.069-8.705 2.317-11.2-2.317-7.508 2.317-4.8 1.98-9.108-1.98-3.446 4.686h-5.415v3.024l-3.2 4.387-2.339 6.914-5.908 6.526-6.154 3.979h-5.538l-4.431 2.317h-3.693l-3.077-6.296-3.323-4.298v-6.526h-5.561l-5.292-2.616-3.816-4.387v-5.73l-4.43-1.98-5.047-4.386-5.413 2.069-5.169-2.069h-4.677l-2.954 4.386h-5.785l-5.169 1.98-4.431 2.706-2.954-2.706h-4.677l-6.154-4.297-4.431-2.069h-5.169l-3.323 2.069-4.062 2.317h-4.062l-2.338-4.386-4.431-3.98h-10.708l-2.954-3.024h-4.923l-4.062-2.413-1.969 5.437h-5.169l-3.692-3.024h-4.185l-2.339-4.711-5.292-2.365-2.216-3.588h-4.553l-4.308-6.526-3.2 2.865-2.339 7.249-4.554 7.076-4.308 3.024-3.938-3.024-3.57-2.413v5.437l-2.092 3.98h-3.815l-3.2-3.98v-3.024l3.2-4.711-3.2-5.953-4.15-3.661v-2.865h-2.83l-3.816 2.865-5.189 3.661-4.061-3.661-3.693-2.865v-7.162l-3.323-2.483v-2.243l-3.938-3.183-1.847-5.412h-2.215l-1.97 2.547h-6.4l-2.584-2.547-4.185-6.685v-8.202l-5.17-2.447v-4.874l-3.692-2.317-3.815 2.317L0 579.449v-10.187l3.077-3.501L0 561.622v-5.889l3.077-3.979h3.815l3.693-5.889 2.338-3.183h2.831l4.185-8.436-2.216-5.093 4.8-5.89v-6.759l1.65-4.775 1.92-2.706v-5.253l2.83-2.228 1.97-5.571 5.712-2.706 2.288-7.003 1.65-5.889h3.447l5.98 5.889h11.835l2 4.616 5.35 2.387-1.657-7.003 1.657-5.889-5.35-2.547h-4.83v-3.82l-3.816-2.546h-3.046v-3.82l3.046-5.412v-6.048l3.815-3.024v-2.547l-3.815-4.616v-6.844l-3.046-5.817v-7.799l-2.143-4.616-2.28-2.547v-4.456l2.28-5.388 5.189-4.616 3.815-4.138 2.831-5.412 4.15-3.661 3.2-4.615 1.772-6.208h4.136l1.772-6.048 4.062-4.775 8.056-11.588 8.018-8.914 4.308-3.501 2.567-5.253 4.202-3.183 2.813-5.73 4.818-5.252 4.185-2.706 3.692-4.616 9.583-6.526 4.061-3.502 2.479-4.934 5.398-3.82v-3.979l3.095-3.82 7.647-2.487h17.6l3.307-6.207v-9.194l6.477-2.069 4.108-3.502-4.108-3.342 1.847-8.277-3.893-4.934v-5.571l-4.431-4.775v-4.138h-3.307l-3.508-3.343v-3.979l3.508-3.024h9.784l4.108-2.387-2.261-3.82-8.324-4.298-5.169-4.138v-5.412l-5.092-3.82v-8.436l-6.355-7.48v-3.025l2.17-2.228-4.508-3.82-7.8-5.889-1.8-4.298v-6.525l-8.493-2.07v-5.57l2.954-4.298 2.444-5.983-2.444-3.661-2.954-2.865 2.954-3.979-5.433-2.748v-4.298l5.433-2.546-2.954-3.184v-3.979l-2.479-4.138 5.433-4.457h5.539l1.8-2.706h5.847l4.291 2.706 6.355 2.069 5.092 6.526 5.169-4.138 8.324-2.388v-4.775l6.938-4.615 10.299-8.277 2.255-9.232 3.652-4.775 2.133-4.934 7.631-3.183 8.824 3.183 4.263-3.183h6.972l6.986 3.183 2.122-3.183h8.884l6.77-2.737h8l4.899-2.388 9.132-3.183h7.36l7.04 3.183 6.905 2.388h11.2l3.311 2.737 4.435-2.737h9.723l5.747-2.388h6.031l10.462 2.388 7.877 2.737 5.9-2.737 5.414 2.737 4.975 8.117 4.908-2.392 5.431 2.392 7.37-2.392h4.553l2.093 2.392 1.839 4.775h6.646l5.546-2.242h4.062l13.661 5.961 7.67 2.388 5.254 3.125h3.446l4.8-3.125h8.262l10.093 3.125 1.846 4.057-1.846 4.22 1.846 4.615h7.631l1.584 2.706-1.584 4.457 3.692 2.147h6.877l3.938-4.535 4.308-2.069 7.716 2.069 4.778 4.535h4.8l4.677 5.97-2.562 3.184-2.115 6.844h4.677l6.4-4.298 1.992-5.73-1.992-3.979 3.592-4.138h3.793l4.822 4.138 5.047 3.979h8.789l5.785-3.979 2.83-6.526 4.627-4.775h6.697v7.163l2.338 2.147 4.431 5.97v3.184h2.768l1.846-3.184 6.031-3.979h4.197l4.923 3.979h5.416l2.818 5.73v4.298l2.597 6.727 4.049 6.526 4.062-3.661-1.957-2.865v-6.727l1.957-6.844 7.508-3.184 3.692-3.979h8.247l3.609-1.991 1.851-4.535 5.292-2.069 6.154 2.069 3.909 4.535v1.991l3.694 7.163 1.598 6.844-1.598 2.748 5.906 3.979v6.526l5.294 5.983v-5.983h5.414l5.992 2.396 2.008-6.057v-2.865l6.853-3.979 3.077-2.748h10.954l3.2 2.748 2.894 3.979h5.293l3.569-3.979h4.308l3.014-2.748h9.231l10.256-2.103 5.662 2.103 3.2 6.727 5.907 2.865 2.954 6.057v7.885l4.924 5.57 4.184-2.079 3.939 4.149 5.169 3.331 1.846-5.401 3.2-2.079 3.693-3.491v-4.298l-1.846-3.587v-6.057l-5.047-2.865 3.2-3.979-3.2-2.748v-4.298l-4.307-2.546-2.708-7.163 2.708-4.138 2.461-4.457 1.846-7.321 5.047-4.22v-4.057l3.776-3.125v-6.107l5.293-9.709 2.953-3.183h3.447l2.461-5.125 4.923-3.183 1.97-5.134 3.323-2.706 1.6-7.48 4.677-2.547h16.258l3.804 2.547 3.323 2.069 4.308-2.07 3.446-6.207 6.4-2.546 20.929 2.546h9.341l4.916-2.546h7.345l6.893 2.546 2.092 6.208 2.831 5.235 4.308-3.166h4.8l7.631 3.166 2.461-5.235 8.746-6.208 5.047-2.546 2.338-4.692-2.338-6.048 2.338-4.138 3.535-3.109v-3.501l-3.535-5.89 3.535-3.979h7.384l4.677 3.98h4.185l8.616 2.864 7.384 6.526h5.663l6.15-3.501h3.57l4.43 3.501 4.56-6.525 6.89-2.866h3.08l2.34-3.979h4.43l2.7-5.889h3.72l7.02 3.048h3.69l2.58-3.048h2.59l3.08 3.048h5.78l4.92 2.841-1.97 3.98 1.97 2.864 4.68-2.864 7.23-6.821 7.02-3.048 9.35 3.048 2.22 2.841 6.4 6.845 3.45 6.525 6.02 3.109 4.19 7.381 3.32 4.775-3.32 2.721v10.824l5.66 5.411v4.76l4.18 3.08 7.39 8.308v3.183h3.32l5.54 4.934 4.04 2.532 4.18 8.35v7.182l-4.18 4.22h-9.58l-3.32 2.151h-7.39l-6.52 2.464v2.706l2.34 2.069 4.18 6.526 5.52 7.163 1.87 6.844-1.87 6.727v2.865l-2.1 3.661 3.97 2.396 6.62 5.592-3.3 5.784v4.149l-5.19 3.331 5.19 3.194 3.3-3.194h13.41l4.52 3.194h7.63l4.76 4.298 2.83 3.333h11.03l11-3.333 2.21-2.079h5.42l6.15-2.219 6.65 4.298 1.6 5.889v13.36l5.29 3.193 6.28-3.193h4.8l5.53 3.193v3.97l-2.95 4.466h-4.8v3.82l4.8 5.412 2.95 8.436 2.7 3.82v5.411l4.43 7.322 2.09 8.913 2.22 5.571h-4.31l-4.43 4.934 2.21 5.78v9.341l4.31 5.571h3.94l5.91 5.692 1.72 8.694 5.05 3.82 6.73 3.979 1.73-3.979 4.18-3.82 2.34-5.495 9.59-3.199h13.2l11.32 3.199 2.71 5.495 3.33 7.799 6.03 6.725h4.55l5.29-2.905h4.06l5.29 2.905 5.29 2.029v7.391l6.03 2.637 3.82-6.526 9.23-5.531 8.19-6.725 8-3.979h8.99l3.2 3.979 9.47-3.979 6.65-3.82 7.26-5.495 4.43-3.199h7.51l4.06 3.199v5.495l4.19 7.799h4.8l5.53 3.82v4.934l-1.96 7.391 1.96 2.637 5.42 7.322 4.45 10.982h4.43l8 5.875 5.17 2.561 5.05 7.467 2.74 4.948v3.24h2.46l3.69-3.24h4.07l5.66-4.948v-7.467l-2.1-5.253 2.1-3.183 7.87 3.183 2.22-3.183 5.11 3.183 2.34 5.253v3.501h4.43l6.03 3.966 2.46 2.253h4l2.22-2.253h3.81l2.59 2.253 3.69-2.253h2.83v4.948l2.96 3.24 3.2 3.456h7.18l4.93 4.892 3.57 4.775 5.19 2.549 5.79-2.549 3.57-2.544 3.2-4.934 4.8-2.189 3.2 2.189 2.71 4.934v5.093l3.81 7.163 5.54 2.544h3.94l3.2-2.544h5.04l2.96 2.544h6.89l2.41 4.615 2.09 6.824 1.97 6.387 8 2.367 4.8 2.249 3.81 5.388 5.79-2.225h4.18l3.08-5.412 5.42-2.367h4.61l6.65 2.367 1.97 2.249v5.388l-4.19 4.456h-4.43v7.163l2.71 7.799 5.91 5.817 2.83 6.844-2.83 7.163v6.123l-4.19 2.949-1.72 5.412-7.32 3.82-5.42 6.366v5.403l-3.08 5.412h-4.18l-3.93-2.379-5.67 4.616-6.94 2.387v5.09l3.69 3.187 3.25 7.481h3.81l3.87 2.706 4.18-2.706h1.92l4.73 5.23 3.77-5.23h4.61l2.71 5.23-2.71 6.048-4.61 6.049-5.42 2.803-5-2.803-4.18-3.087h-3.87l-3.81 3.087v2.803h-4.8v5.093l-2.14 3.245v5.191l-3.72 6.587v2.485l5.86 3.979h4.8l5.67 2.45 3.93 7.578-1.92 3.501 1.92 5.182 2.26 7.322 1.92 7.321-1.92 2.168-6.19 3.488 3.93 2.546 4.18 2.243 3.08-2.243 5.42 2.243v6.989l-3.77 2.865h-4.73l-1.92 5.426-2.26 6.303-3.93 3.342v2.865l3.93 7.249-1.92 2.365-3.87-2.365-3.81 4.663 3.81 5.437-3.81 6.049 2.17 7.003-2.17 7.411-4.8 2.616h-4.23l-7.83-2.616h-2.41l-4.36 2.616-5.49-2.616-5.04 2.616-5.47-2.616-4.07-4.387h-6.95l-5.91 4.387-4.8 2.616-3.2-2.616-3.57-4.387h-5.79l-5.19 2.037-6.31-2.037-4.18 4.387-2.96 6.914-2.23 6.526v6.296l-3.2 3.858h-5.79l-6.28 5.889-10.03 3.375h-12.92l-7.45 7.843v11.098l1.83 5.187v4.775l-4.05 5.73-5.55 4.456 1.72 4.139 7.88 3.82 3.28 3.985-3.28 4.934h-4.05l-5.55 5.038 1.72 6.581 1.6 6.844-5.64 3.82-2.1 6.367-5.43 2.332v-2.332l1.87-4.035-1.87-2.332-2.2-3.82-3.69 3.82h-5.2l-5.05-3.82h-7.77l-5.4 3.82-6.53 2.332h-7.77l-5.53-2.332h-4.8l-4.19 8.699-6.64 4.194-2.46 9.231-2.47 4.457-4.43 4.934-1.72-2.761 1.72-2.173-4.79-4.457h-4.8l-6.9 4.457-6.89 2.173-7.96 2.761-2.09 5.412h-4.55l-2.34 4.06h-3.25v6.763l-1.92 5.333-2.71 6.605-3.56 5.81h-3.33v-3.024l3.33-4.775 1.59-4.616-1.59-5.333-3.33-2.784h-9.72l-2.96 2.784h-6.03l-5.29 5.333h-8.47l-3.21 4.616-4.55 4.775-1.72 6.048h-2.34l-1.97-3.024-3.33-3.024-2.71-2.786-2.82 2.786h-4.43l-4.07-2.786-4.38 2.786-11.55 3.024-9.2 3.024-5.91 6.286-4.71 7.851-7.07 3.609-4.37 3.394-7.2 2.336-2.09 5.144-4.43 6.208c-3.77 4.775-5.65 7.162-5.65 7.162l-4.8 9.709-6.26 9.232-2.6 6.844-6.89 6.367-9.44 3.258h-3.36v-5.253l3.36-4.372 12.8-3.586 6.13-12.49 6.26-7.724 2.22-5.889h-4.8v-7.321l2.58-4.583-6.26-2.706-6.13-5.73 1.6 5.73 1.93 5.144v2.145l-3.53 7.321-3.36 5.889-6.65 7.724-11.57 3.792-2.21-3.792-3.66 6.657-4.68 2.575 1.72 6.844v11.789l2.96 8.117v12.575l3.66 6.366 4.34 10.187 6.65 15.121 9.44 18.856 6.89 9.71 6.28 11.78 7.38 10.34 5.65 3.82 6.52 5.57h3.94l5.91-3.34 8.79-2.23 4.71-3.82 1.73-4.61 4.18-2.87 2.34-8.5h4.2l2.66 2.55-2.66 3.09 2.66 2.86 5.59 2.87 5.96 4.61 2.78-4.61 1.6-5.73 6.03-5.64h15.64l3.87 2.55 3.94-2.55 3.75 5.64 4.06-3.09h5.29l2.33 5.95 6.03-2.86 2.96 2.86 1.92 7.48-1.92 3.82h-6.03l-5.29-3.82-2.96 3.82 2.96 5.57-2.96 2.65h-2.33l-2.51 8.43-3.63 8.6 2.08 6.36 6.39 3.67-2.33 2.86-7.81 4.93h-6.09l-4.06-2.06v5.09l-5.3 2.55-8-2.55-1.96-3.03h-5.67l-2.78 5.58h-5.96l-2.86 3.06h-6.91l-2.68-3.06-2.34-5.58-5.91-4.93-6.73-6.53h-9.42l-7.2 3.67-6.52 5.73v5.09l2.21 2.55-2.21 3.06h-5.65v4.46h-9.07l-1.99 5.1-6.13 2.38-3.36 4.46v6.21l-4.76 4.45h-4.68l-3.36-4.45-3.29-2.39-4.34 2.39-1.93 4.45-4.69-4.45-1.72 4.45-7.62-4.45-6.07 4.45-2.83 3.62-9.62 2.22-7.29 3.35-2.95 4.29-4.18 7.8-4.04 7.96-2.24 7.48h-3.3l-3.32 2.87-1.87 5.25h-5.52l-2.58 7.48-7.26 3.82-10.21 4.62h-5.42l-6.65-4.62-4.68 4.62h-7.56l-2.58-4.62h-5.29v-3.82l-3.49-7.48-4.68 2.07-8-4.62-5.78-5.57-2.59-5.25 2.59-2.23 3.08-3.5h8.73v-4.46l1.97-7.8-1.97-4.29v-9.19l1.97-6.84 4.68-3.82 3.49-4.46v-7.48l-5.42-10.07v-7.96l-4.72-6.53-2.95-3.18-7.34-6.53h-4.11l-6.27 3.35h-4.64l-2.38-3.35h-6.42l-6.77-9.87-9.97-6.46-8.99-9.39h-9.72l-5.663 3.82-5.304 2.23h-7.754l-7.127-6.05-2.579-4.61v-5.73l6.764-5.64 6.405-6.14 7.877-2.48 4.062-5.095h6.649v-4.616l4.55-5.252 6.27-6.048 21.3-8.994v-4.456l2.7-2.388 6.1 2.388 10.91-2.388 5.67-9.699h10.7l4.68-4.846h3.49l3.74 4.846 1.55-8.417 5.47-6.175h-7.02l-3.74 3.38v-10.543l1.57-4.615-3.44-3.024 3.44-7.932-3.44-1.995v-4.372l-3.55 2.361-2.75 2.011v5.253l-1.97 2.164-2.95 2.51h-3.08l-5.78-2.51-2.59-5.422-6.27-4.006h-3.06l-3.96 2.011v-4.372l-1.71-6.844-2.01 3.258-2.7 3.586-4.43 2.361-2.34-2.361-5.13-3.586v5.947l-4.84 2.011h-10.83l-6.12-2.011-5.079 2.011-7.648 1.995h-4.291l-6.405 3.258h-6.764l-9.482-3.258-8.821-1.995-3.939-4.372v-3.586l-6.906-3.258-6.017-2.575-4.075-6.657h-6.64l-5.299-3.764-2.092-3.96h-3.071v3.96h-3.822l-7.345-3.96v-5.889h11.167l10.462-3.258 1.84-4.063 2.345-2.145-2.345-5.144h-7.139l-8.985-2.336-5.532-3.394h-3.983l-2.746 3.394v5.042h-4.146l-2.585-5.042-4.8-3.394-2.708-3.609-2.954-7.851 7.852 3.268 5.195-3.268h6.892l5.908 3.268 7.429 2.144h5.163l7.139 2.439h6.859l5.572 3.609 6.417-3.609 6.889 7.003 2.948-3.394-2.948-3.609-2.099-4.583 2.099-3.268-3.939-6.286-2.95 4.227h-3.956l-2.461 5.327-3.556-3.268v-6.286l-6.53-3.024-4.185-5.81-2.468-6.605-2.831-5.333v-8.754l5.299-7.481v-9.391l-2.468 2.137-2.831 7.254-5.163 5.412v8.039l3.071 5.876-3.071 4.775 3.071 6.857-3.071 3.024-5.538 3.024-7.799-3.024-6.892-3.024h-2.585l-4.8 6.048h-2.708l-2.954-3.024h-5.198v-5.81l-3.939 2.786-2.1 3.024-4.8 3.024h-5.169l-9.348-3.024-7.637 3.024h-6.031l-6.394 4.227h-6.277l-5.293 5.327h-7.384l-3.447 4.583 3.447 3.609v13.019l-3.447 4.063-5.218 3.258v5.889l-3.028 7.724-5.623 6.657-3.2 9.419-4.307 2.361-2.708 7.264-13.047 12.313-4.518 5.094v5.449l-4.343 6.366-6.75 4.846-4.184 5.341-1.661-5.341-2.893-4.846v4.846l-1.6 5.341h-3.939l-2.708-5.341h-4.614v12.087l-3.014 4.456-4.308-4.456-6.279 4.456v3.919l4.247 5.075-4.247 6.048h-2.583l-6.094 5.252v-7.528l-4.016-3.772-1.768-8.994 1.768-6.844-4.968-4.358 1.645 4.358-1.645 2.388v8.375l-1.97 5.075v6.048l-3.077 7.733 8.247 7.23-3.2 2.48 3.2 6.14h8.984v5.64l-3.2 5.73 3.2 8.43v5.57l-3.2 6.46v4.62h-4.016l-3.323-4.62 1.555-6.46-3.2-9.39-5.047-4.61-6.853-2.87h-6.271l-5.052-2.86h-7.385l-8-3.09-1.6 5.95-3.909 7.48h-6.154l-5.292 3.82-5.46 2.23-2.688 3.34-5.559 2.65-2.072-2.65h-5.313l-3.815-3.34v3.34l3.815 6.46-3.815 2.32-8.111 2.3-5.415-2.3h-5.416l-9.12-6.13-10.645-2.65-6.769-9.39v-7.48l-3.57-5.95-5.169-2.55 2.042-6.14 6.697-2.48h3.938l7.445 2.48h6.031l2.092-2.48 2.105-7.23 1.588-2.481-1.588-5.252-4.197-6.048 2.092-5.075 7.028-3.919v-4.456l8.234-2.388 2.597-4.358 2.397-5.341h5.714v-8.417l-4.062-6.175 2.105-2.069 9.465-5.094 6.769-2.032 5.17-2.583-2.688-7.698V914.9l2.688-2.361 5.46-6.844-1.851-5.44-6.297-3.792-2.482-3.764 2.482-3.96v-5.889l-2.482-9.466 2.482-7.48 6.297-7.003h4.066l9.231-4.583h5.509l2.094 4.583-2.094 7.003 2.094 5.042-3.694 4.583 1.6 4.063 3.692-4.063 4.308-2.145v-7.48l3.57-3.394 1.724 3.394 2.091 2.336 5.052-5.73h4.263l3.815 3.394v5.042h3.323l4.8 8.646h3.615l3.323-4.063-1.768-4.583 4.229-2.706 4.755-2.336 2.894 2.336 2.583 5.144v6.208l2.71 3.258 5.229-3.258 2.648-4.063 7.628 2.071h8.247l2.893-2.071v-4.583Z"/></mask><path clip-rule="evenodd" d="m752.431 870.946-6.523-2.706-7.385-5.73v-11.46l-1.846-15.12 1.846-11.938-1.846-10.823-5.662 2.069-3.692-7.481-9.724 2.229-3.2-7.163h-5.784l-3.2-4.457h-5.047l-1.723-5.889 1.723-3.342v-6.526h5.047l-1.97-6.367-3.077-3.82-5.046 3.82-3.815-6.685 7.138-3.979v-11.619l4.8-4.934-3.077-7.805-1.723-4.139h-5.13v4.139l-2.008 3.82h-5.992l-3.323-3.82v-6.367l-3.815-2.228-3.57-2.388v-3.342h-4.308v-4.775h-3.692l-1.6 4.775-3.909-4.775v-5.187l-4.431-7.322 1.97-5.889 4.431-5.73 1.939-6.208v-9.231l1.6-3.979h3.692v-4.298l-7.231-2.228 1.939-4.298 5.292-7.003-3.692-3.024-3.539-2.706v-6.366l-4.431-3.98h-3.693l-3.077 3.98-2.215 2.069h-5.46l-5.17-2.069-3.077-7.004h-3.692v-7.076h-3.693v-7.249l-3.815-2.865-4.062-3.342h-6.646l-4.923-3.82h-6.646l-3.693 3.82-2.092 3.342v6.526h-3.077l-2.954-6.526v-3.342l-1.846-3.82-2.768 3.82v3.342h-4.431l-2.338-3.342 2.338-3.82 4.431-4.726v-6.048l-2.831-2.547-1.6 2.547h-2.338l-3.57 6.048h-5.169l-2.585-6.048v-2.547h-2.83v2.547l-5.785 2.865v-5.412l2.092-6.685-6.523-2.546h-7.581l-6.646-5.656-1.846-5.093-5.539-2.228-3.2-4.616v-2.706h-3.2l-4.677 2.706h-4.8l-2.831-2.706v-3.183l-9.663 3.183-4.308 2.706-3.938 4.616h-2.708l-2.462-4.616h-3.815l-4.062 6.844-2.338 5.093h-7.262l-5.538-5.093-5.293-2.228h-2.215v4.874l-2.708 2.447-4.8 2.168-3.446-2.168-3.077-5.093h-4.062l-2.092 2.646h-3.693l1.97 4.615 1.723 6.034-3.693 2.243h-4.061l-1.97-4.789-2.092-3.488-2.092 6.034-3.446 2.243v6.989h-4.062l-2.831 2.865-4.677 3.183-2.708-3.183h-3.815l-2.093 3.183-4.553 2.243h-4.431v6.303l-4.8 3.342v6.526h-3.57l-2.831 5.953v4.711l-4.43 3.024h-13.936l-2.954 3.98-4.923-3.98-3.077 3.98h-7.385l-6.031 2.069-8.705 2.317-11.2-2.317-7.508 2.317-4.8 1.98-9.108-1.98-3.446 4.686h-5.415v3.024l-3.2 4.387-2.339 6.914-5.908 6.526-6.154 3.979h-5.538l-4.431 2.317h-3.693l-3.077-6.296-3.323-4.298v-6.526h-5.561l-5.292-2.616-3.816-4.387v-5.73l-4.43-1.98-5.047-4.386-5.413 2.069-5.169-2.069h-4.677l-2.954 4.386h-5.785l-5.169 1.98-4.431 2.706-2.954-2.706h-4.677l-6.154-4.297-4.431-2.069h-5.169l-3.323 2.069-4.062 2.317h-4.062l-2.338-4.386-4.431-3.98h-10.708l-2.954-3.024h-4.923l-4.062-2.413-1.969 5.437h-5.169l-3.692-3.024h-4.185l-2.339-4.711-5.292-2.365-2.216-3.588h-4.553l-4.308-6.526-3.2 2.865-2.339 7.249-4.554 7.076-4.308 3.024-3.938-3.024-3.57-2.413v5.437l-2.092 3.98h-3.815l-3.2-3.98v-3.024l3.2-4.711-3.2-5.953-4.15-3.661v-2.865h-2.83l-3.816 2.865-5.189 3.661-4.061-3.661-3.693-2.865v-7.162l-3.323-2.483v-2.243l-3.938-3.183-1.847-5.412h-2.215l-1.97 2.547h-6.4l-2.584-2.547-4.185-6.685v-8.202l-5.17-2.447v-4.874l-3.692-2.317-3.815 2.317L0 579.449v-10.187l3.077-3.501L0 561.622v-5.889l3.077-3.979h3.815l3.693-5.889 2.338-3.183h2.831l4.185-8.436-2.216-5.093 4.8-5.89v-6.759l1.65-4.775 1.92-2.706v-5.253l2.83-2.228 1.97-5.571 5.712-2.706 2.288-7.003 1.65-5.889h3.447l5.98 5.889h11.835l2 4.616 5.35 2.387-1.657-7.003 1.657-5.889-5.35-2.547h-4.83v-3.82l-3.816-2.546h-3.046v-3.82l3.046-5.412v-6.048l3.815-3.024v-2.547l-3.815-4.616v-6.844l-3.046-5.817v-7.799l-2.143-4.616-2.28-2.547v-4.456l2.28-5.388 5.189-4.616 3.815-4.138 2.831-5.412 4.15-3.661 3.2-4.615 1.772-6.208h4.136l1.772-6.048 4.062-4.775 8.056-11.588 8.018-8.914 4.308-3.501 2.567-5.253 4.202-3.183 2.813-5.73 4.818-5.252 4.185-2.706 3.692-4.616 9.583-6.526 4.061-3.502 2.479-4.934 5.398-3.82v-3.979l3.095-3.82 7.647-2.487h17.6l3.307-6.207v-9.194l6.477-2.069 4.108-3.502-4.108-3.342 1.847-8.277-3.893-4.934v-5.571l-4.431-4.775v-4.138h-3.307l-3.508-3.343v-3.979l3.508-3.024h9.784l4.108-2.387-2.261-3.82-8.324-4.298-5.169-4.138v-5.412l-5.092-3.82v-8.436l-6.355-7.48v-3.025l2.17-2.228-4.508-3.82-7.8-5.889-1.8-4.298v-6.525l-8.493-2.07v-5.57l2.954-4.298 2.444-5.983-2.444-3.661-2.954-2.865 2.954-3.979-5.433-2.748v-4.298l5.433-2.546-2.954-3.184v-3.979l-2.479-4.138 5.433-4.457h5.539l1.8-2.706h5.847l4.291 2.706 6.355 2.069 5.092 6.526 5.169-4.138 8.324-2.388v-4.775l6.938-4.615 10.299-8.277 2.255-9.232 3.652-4.775 2.133-4.934 7.631-3.183 8.824 3.183 4.263-3.183h6.972l6.986 3.183 2.122-3.183h8.884l6.77-2.737h8l4.899-2.388 9.132-3.183h7.36l7.04 3.183 6.905 2.388h11.2l3.311 2.737 4.435-2.737h9.723l5.747-2.388h6.031l10.462 2.388 7.877 2.737 5.9-2.737 5.414 2.737 4.975 8.117 4.908-2.392 5.431 2.392 7.37-2.392h4.553l2.093 2.392 1.839 4.775h6.646l5.546-2.242h4.062l13.661 5.961 7.67 2.388 5.254 3.125h3.446l4.8-3.125h8.262l10.093 3.125 1.846 4.057-1.846 4.22 1.846 4.615h7.631l1.584 2.706-1.584 4.457 3.692 2.147h6.877l3.938-4.535 4.308-2.069 7.716 2.069 4.778 4.535h4.8l4.677 5.97-2.562 3.184-2.115 6.844h4.677l6.4-4.298 1.992-5.73-1.992-3.979 3.592-4.138h3.793l4.822 4.138 5.047 3.979h8.789l5.785-3.979 2.83-6.526 4.627-4.775h6.697v7.163l2.338 2.147 4.431 5.97v3.184h2.768l1.846-3.184 6.031-3.979h4.197l4.923 3.979h5.416l2.818 5.73v4.298l2.597 6.727 4.049 6.526 4.062-3.661-1.957-2.865v-6.727l1.957-6.844 7.508-3.184 3.692-3.979h8.247l3.609-1.991 1.851-4.535 5.292-2.069 6.154 2.069 3.909 4.535v1.991l3.694 7.163 1.598 6.844-1.598 2.748 5.906 3.979v6.526l5.294 5.983v-5.983h5.414l5.992 2.396 2.008-6.057v-2.865l6.853-3.979 3.077-2.748h10.954l3.2 2.748 2.894 3.979h5.293l3.569-3.979h4.308l3.014-2.748h9.231l10.256-2.103 5.662 2.103 3.2 6.727 5.907 2.865 2.954 6.057v7.885l4.924 5.57 4.184-2.079 3.939 4.149 5.169 3.331 1.846-5.401 3.2-2.079 3.693-3.491v-4.298l-1.846-3.587v-6.057l-5.047-2.865 3.2-3.979-3.2-2.748v-4.298l-4.307-2.546-2.708-7.163 2.708-4.138 2.461-4.457 1.846-7.321 5.047-4.22v-4.057l3.776-3.125v-6.107l5.293-9.709 2.953-3.183h3.447l2.461-5.125 4.923-3.183 1.97-5.134 3.323-2.706 1.6-7.48 4.677-2.547h16.258l3.804 2.547 3.323 2.069 4.308-2.07 3.446-6.207 6.4-2.546 20.929 2.546h9.341l4.916-2.546h7.345l6.893 2.546 2.092 6.208 2.831 5.235 4.308-3.166h4.8l7.631 3.166 2.461-5.235 8.746-6.208 5.047-2.546 2.338-4.692-2.338-6.048 2.338-4.138 3.535-3.109v-3.501l-3.535-5.89 3.535-3.979h7.384l4.677 3.98h4.185l8.616 2.864 7.384 6.526h5.663l6.15-3.501h3.57l4.43 3.501 4.56-6.525 6.89-2.866h3.08l2.34-3.979h4.43l2.7-5.889h3.72l7.02 3.048h3.69l2.58-3.048h2.59l3.08 3.048h5.78l4.92 2.841-1.97 3.98 1.97 2.864 4.68-2.864 7.23-6.821 7.02-3.048 9.35 3.048 2.22 2.841 6.4 6.845 3.45 6.525 6.02 3.109 4.19 7.381 3.32 4.775-3.32 2.721v10.824l5.66 5.411v4.76l4.18 3.08 7.39 8.308v3.183h3.32l5.54 4.934 4.04 2.532 4.18 8.35v7.182l-4.18 4.22h-9.58l-3.32 2.151h-7.39l-6.52 2.464v2.706l2.34 2.069 4.18 6.526 5.52 7.163 1.87 6.844-1.87 6.727v2.865l-2.1 3.661 3.97 2.396 6.62 5.592-3.3 5.784v4.149l-5.19 3.331 5.19 3.194 3.3-3.194h13.41l4.52 3.194h7.63l4.76 4.298 2.83 3.333h11.03l11-3.333 2.21-2.079h5.42l6.15-2.219 6.65 4.298 1.6 5.889v13.36l5.29 3.193 6.28-3.193h4.8l5.53 3.193v3.97l-2.95 4.466h-4.8v3.82l4.8 5.412 2.95 8.436 2.7 3.82v5.411l4.43 7.322 2.09 8.913 2.22 5.571h-4.31l-4.43 4.934 2.21 5.78v9.341l4.31 5.571h3.94l5.91 5.692 1.72 8.694 5.05 3.82 6.73 3.979 1.73-3.979 4.18-3.82 2.34-5.495 9.59-3.199h13.2l11.32 3.199 2.71 5.495 3.33 7.799 6.03 6.725h4.55l5.29-2.905h4.06l5.29 2.905 5.29 2.029v7.391l6.03 2.637 3.82-6.526 9.23-5.531 8.19-6.725 8-3.979h8.99l3.2 3.979 9.47-3.979 6.65-3.82 7.26-5.495 4.43-3.199h7.51l4.06 3.199v5.495l4.19 7.799h4.8l5.53 3.82v4.934l-1.96 7.391 1.96 2.637 5.42 7.322 4.45 10.982h4.43l8 5.875 5.17 2.561 5.05 7.467 2.74 4.948v3.24h2.46l3.69-3.24h4.07l5.66-4.948v-7.467l-2.1-5.253 2.1-3.183 7.87 3.183 2.22-3.183 5.11 3.183 2.34 5.253v3.501h4.43l6.03 3.966 2.46 2.253h4l2.22-2.253h3.81l2.59 2.253 3.69-2.253h2.83v4.948l2.96 3.24 3.2 3.456h7.18l4.93 4.892 3.57 4.775 5.19 2.549 5.79-2.549 3.57-2.544 3.2-4.934 4.8-2.189 3.2 2.189 2.71 4.934v5.093l3.81 7.163 5.54 2.544h3.94l3.2-2.544h5.04l2.96 2.544h6.89l2.41 4.615 2.09 6.824 1.97 6.387 8 2.367 4.8 2.249 3.81 5.388 5.79-2.225h4.18l3.08-5.412 5.42-2.367h4.61l6.65 2.367 1.97 2.249v5.388l-4.19 4.456h-4.43v7.163l2.71 7.799 5.91 5.817 2.83 6.844-2.83 7.163v6.123l-4.19 2.949-1.72 5.412-7.32 3.82-5.42 6.366v5.403l-3.08 5.412h-4.18l-3.93-2.379-5.67 4.616-6.94 2.387v5.09l3.69 3.187 3.25 7.481h3.81l3.87 2.706 4.18-2.706h1.92l4.73 5.23 3.77-5.23h4.61l2.71 5.23-2.71 6.048-4.61 6.049-5.42 2.803-5-2.803-4.18-3.087h-3.87l-3.81 3.087v2.803h-4.8v5.093l-2.14 3.245v5.191l-3.72 6.587v2.485l5.86 3.979h4.8l5.67 2.45 3.93 7.578-1.92 3.501 1.92 5.182 2.26 7.322 1.92 7.321-1.92 2.168-6.19 3.488 3.93 2.546 4.18 2.243 3.08-2.243 5.42 2.243v6.989l-3.77 2.865h-4.73l-1.92 5.426-2.26 6.303-3.93 3.342v2.865l3.93 7.249-1.92 2.365-3.87-2.365-3.81 4.663 3.81 5.437-3.81 6.049 2.17 7.003-2.17 7.411-4.8 2.616h-4.23l-7.83-2.616h-2.41l-4.36 2.616-5.49-2.616-5.04 2.616-5.47-2.616-4.07-4.387h-6.95l-5.91 4.387-4.8 2.616-3.2-2.616-3.57-4.387h-5.79l-5.19 2.037-6.31-2.037-4.18 4.387-2.96 6.914-2.23 6.526v6.296l-3.2 3.858h-5.79l-6.28 5.889-10.03 3.375h-12.92l-7.45 7.843v11.098l1.83 5.187v4.775l-4.05 5.73-5.55 4.456 1.72 4.139 7.88 3.82 3.28 3.985-3.28 4.934h-4.05l-5.55 5.038 1.72 6.581 1.6 6.844-5.64 3.82-2.1 6.367-5.43 2.332v-2.332l1.87-4.035-1.87-2.332-2.2-3.82-3.69 3.82h-5.2l-5.05-3.82h-7.77l-5.4 3.82-6.53 2.332h-7.77l-5.53-2.332h-4.8l-4.19 8.699-6.64 4.194-2.46 9.231-2.47 4.457-4.43 4.934-1.72-2.761 1.72-2.173-4.79-4.457h-4.8l-6.9 4.457-6.89 2.173-7.96 2.761-2.09 5.412h-4.55l-2.34 4.06h-3.25v6.763l-1.92 5.333-2.71 6.605-3.56 5.81h-3.33v-3.024l3.33-4.775 1.59-4.616-1.59-5.333-3.33-2.784h-9.72l-2.96 2.784h-6.03l-5.29 5.333h-8.47l-3.21 4.616-4.55 4.775-1.72 6.048h-2.34l-1.97-3.024-3.33-3.024-2.71-2.786-2.82 2.786h-4.43l-4.07-2.786-4.38 2.786-11.55 3.024-9.2 3.024-5.91 6.286-4.71 7.851-7.07 3.609-4.37 3.394-7.2 2.336-2.09 5.144-4.43 6.208c-3.77 4.775-5.65 7.162-5.65 7.162l-4.8 9.709-6.26 9.232-2.6 6.844-6.89 6.367-9.44 3.258h-3.36v-5.253l3.36-4.372 12.8-3.586 6.13-12.49 6.26-7.724 2.22-5.889h-4.8v-7.321l2.58-4.583-6.26-2.706-6.13-5.73 1.6 5.73 1.93 5.144v2.145l-3.53 7.321-3.36 5.889-6.65 7.724-11.57 3.792-2.21-3.792-3.66 6.657-4.68 2.575 1.72 6.844v11.789l2.96 8.117v12.575l3.66 6.366 4.34 10.187 6.65 15.121 9.44 18.856 6.89 9.71 6.28 11.78 7.38 10.34 5.65 3.82 6.52 5.57h3.94l5.91-3.34 8.79-2.23 4.71-3.82 1.73-4.61 4.18-2.87 2.34-8.5h4.2l2.66 2.55-2.66 3.09 2.66 2.86 5.59 2.87 5.96 4.61 2.78-4.61 1.6-5.73 6.03-5.64h15.64l3.87 2.55 3.94-2.55 3.75 5.64 4.06-3.09h5.29l2.33 5.95 6.03-2.86 2.96 2.86 1.92 7.48-1.92 3.82h-6.03l-5.29-3.82-2.96 3.82 2.96 5.57-2.96 2.65h-2.33l-2.51 8.43-3.63 8.6 2.08 6.36 6.39 3.67-2.33 2.86-7.81 4.93h-6.09l-4.06-2.06v5.09l-5.3 2.55-8-2.55-1.96-3.03h-5.67l-2.78 5.58h-5.96l-2.86 3.06h-6.91l-2.68-3.06-2.34-5.58-5.91-4.93-6.73-6.53h-9.42l-7.2 3.67-6.52 5.73v5.09l2.21 2.55-2.21 3.06h-5.65v4.46h-9.07l-1.99 5.1-6.13 2.38-3.36 4.46v6.21l-4.76 4.45h-4.68l-3.36-4.45-3.29-2.39-4.34 2.39-1.93 4.45-4.69-4.45-1.72 4.45-7.62-4.45-6.07 4.45-2.83 3.62-9.62 2.22-7.29 3.35-2.95 4.29-4.18 7.8-4.04 7.96-2.24 7.48h-3.3l-3.32 2.87-1.87 5.25h-5.52l-2.58 7.48-7.26 3.82-10.21 4.62h-5.42l-6.65-4.62-4.68 4.62h-7.56l-2.58-4.62h-5.29v-3.82l-3.49-7.48-4.68 2.07-8-4.62-5.78-5.57-2.59-5.25 2.59-2.23 3.08-3.5h8.73v-4.46l1.97-7.8-1.97-4.29v-9.19l1.97-6.84 4.68-3.82 3.49-4.46v-7.48l-5.42-10.07v-7.96l-4.72-6.53-2.95-3.18-7.34-6.53h-4.11l-6.27 3.35h-4.64l-2.38-3.35h-6.42l-6.77-9.87-9.97-6.46-8.99-9.39h-9.72l-5.663 3.82-5.304 2.23h-7.754l-7.127-6.05-2.579-4.61v-5.73l6.764-5.64 6.405-6.14 7.877-2.48 4.062-5.095h6.649v-4.616l4.55-5.252 6.27-6.048 21.3-8.994v-4.456l2.7-2.388 6.1 2.388 10.91-2.388 5.67-9.699h10.7l4.68-4.846h3.49l3.74 4.846 1.55-8.417 5.47-6.175h-7.02l-3.74 3.38v-10.543l1.57-4.615-3.44-3.024 3.44-7.932-3.44-1.995v-4.372l-3.55 2.361-2.75 2.011v5.253l-1.97 2.164-2.95 2.51h-3.08l-5.78-2.51-2.59-5.422-6.27-4.006h-3.06l-3.96 2.011v-4.372l-1.71-6.844-2.01 3.258-2.7 3.586-4.43 2.361-2.34-2.361-5.13-3.586v5.947l-4.84 2.011h-10.83l-6.12-2.011-5.079 2.011-7.648 1.995h-4.291l-6.405 3.258h-6.764l-9.482-3.258-8.821-1.995-3.939-4.372v-3.586l-6.906-3.258-6.017-2.575-4.075-6.657h-6.64l-5.299-3.764-2.092-3.96h-3.071v3.96h-3.822l-7.345-3.96v-5.889h11.167l10.462-3.258 1.84-4.063 2.345-2.145-2.345-5.144h-7.139l-8.985-2.336-5.532-3.394h-3.983l-2.746 3.394v5.042h-4.146l-2.585-5.042-4.8-3.394-2.708-3.609-2.954-7.851 7.852 3.268 5.195-3.268h6.892l5.908 3.268 7.429 2.144h5.163l7.139 2.439h6.859l5.572 3.609 6.417-3.609 6.889 7.003 2.948-3.394-2.948-3.609-2.099-4.583 2.099-3.268-3.939-6.286-2.95 4.227h-3.956l-2.461 5.327-3.556-3.268v-6.286l-6.53-3.024-4.185-5.81-2.468-6.605-2.831-5.333v-8.754l5.299-7.481v-9.391l-2.468 2.137-2.831 7.254-5.163 5.412v8.039l3.071 5.876-3.071 4.775 3.071 6.857-3.071 3.024-5.538 3.024-7.799-3.024-6.892-3.024h-2.585l-4.8 6.048h-2.708l-2.954-3.024h-5.198v-5.81l-3.939 2.786-2.1 3.024-4.8 3.024h-5.169l-9.348-3.024-7.637 3.024h-6.031l-6.394 4.227h-6.277l-5.293 5.327h-7.384l-3.447 4.583 3.447 3.609v13.019l-3.447 4.063-5.218 3.258v5.889l-3.028 7.724-5.623 6.657-3.2 9.419-4.307 2.361-2.708 7.264-13.047 12.313-4.518 5.094v5.449l-4.343 6.366-6.75 4.846-4.184 5.341-1.661-5.341-2.893-4.846v4.846l-1.6 5.341h-3.939l-2.708-5.341h-4.614v12.087l-3.014 4.456-4.308-4.456-6.279 4.456v3.919l4.247 5.075-4.247 6.048h-2.583l-6.094 5.252v-7.528l-4.016-3.772-1.768-8.994 1.768-6.844-4.968-4.358 1.645 4.358-1.645 2.388v8.375l-1.97 5.075v6.048l-3.077 7.733 8.247 7.23-3.2 2.48 3.2 6.14h8.984v5.64l-3.2 5.73 3.2 8.43v5.57l-3.2 6.46v4.62h-4.016l-3.323-4.62 1.555-6.46-3.2-9.39-5.047-4.61-6.853-2.87h-6.271l-5.052-2.86h-7.385l-8-3.09-1.6 5.95-3.909 7.48h-6.154l-5.292 3.82-5.46 2.23-2.688 3.34-5.559 2.65-2.072-2.65h-5.313l-3.815-3.34v3.34l3.815 6.46-3.815 2.32-8.111 2.3-5.415-2.3h-5.416l-9.12-6.13-10.645-2.65-6.769-9.39v-7.48l-3.57-5.95-5.169-2.55 2.042-6.14 6.697-2.48h3.938l7.445 2.48h6.031l2.092-2.48 2.105-7.23 1.588-2.481-1.588-5.252-4.197-6.048 2.092-5.075 7.028-3.919v-4.456l8.234-2.388 2.597-4.358 2.397-5.341h5.714v-8.417l-4.062-6.175 2.105-2.069 9.465-5.094 6.769-2.032 5.17-2.583-2.688-7.698V914.9l2.688-2.361 5.46-6.844-1.851-5.44-6.297-3.792-2.482-3.764 2.482-3.96v-5.889l-2.482-9.466 2.482-7.48 6.297-7.003h4.066l9.231-4.583h5.509l2.094 4.583-2.094 7.003 2.094 5.042-3.694 4.583 1.6 4.063 3.692-4.063 4.308-2.145v-7.48l3.57-3.394 1.724 3.394 2.091 2.336 5.052-5.73h4.263l3.815 3.394v5.042h3.323l4.8 8.646h3.615l3.323-4.063-1.768-4.583 4.229-2.706 4.755-2.336 2.894 2.336 2.583 5.144v6.208l2.71 3.258 5.229-3.258 2.648-4.063 7.628 2.071h8.247l2.893-2.071v-4.583Z" stroke="url(#a)" stroke-width="2" mask="url(#b)"/><defs><radialGradient id="a" cx="0" cy="0" r="1" gradientUnits="userSpaceOnUse" gradientTransform="matrix(-712.45235 997.23743 -1777.18175 -1269.66486 966.39 644.743)"><stop stop-color="#0D0D0D"/><stop offset="1" stop-color="#FDCD24"/></radialGradient></defs></svg>