<svg width="91" height="80" viewBox="0 0 91 80" fill="none" xmlns="http://www.w3.org/2000/svg">
<path d="M65.4464 12.0483L14.2111 41.3662L0 31.807L49.3015 3.71045L65.4464 12.0483Z" fill="url(#paint0_linear_216_952)"/>
<path d="M90.1211 42.4779L28.1198 79.9999L10.1206 67.7657L72.564 31.8069L90.1211 42.4779Z" fill="url(#paint1_linear_216_952)"/>
<path d="M10.1208 39.0364V40.9982L11.8782 41.9275V40.9982L67.9958 8.85408H65.7838L63.4706 8.53027L10.1208 39.0364Z" fill="white"/>
<path d="M12.0483 39.5178L0 31.8069V60.2408L19.7592 74.2168L12.0483 39.5178Z" fill="#231889"/>
<path d="M67.9957 8.85376L11.8782 40.9979L17.3498 64.5786L71.8079 32.7712L67.9957 8.85376Z" fill="url(#paint2_linear_216_952)"/>
<path d="M70.0061 15.1649L14.7253 46.8235L12.6567 45.8179L68.7278 13.7085L70.0061 15.1649Z" fill="white"/>
<path d="M65.4741 0L69.4369 2.2539L67.38 3.43287L63.4172 1.17896L65.4741 0Z" fill="white"/>
<path d="M63.4172 1.1792L67.38 3.4331V15.7429L65.9855 9.99832L63.4172 8.53039V1.1792Z" fill="#3B0BC3"/>
<path d="M69.4368 2.25415L67.3799 3.43312V15.7429L69.4368 14.5639V2.25415Z" fill="url(#paint3_linear_216_952)"/>
<path d="M62.1738 21.3255V23.6834L67.3451 20.6782V18.3203L62.1738 21.3255Z" fill="#3B0BC3"/>
<path d="M66.9034 20.424V19.0947L62.6152 21.5914V22.9206L66.9034 20.424Z" fill="#3B0BC3"/>
<path d="M66.8917 20.0887L66.0899 19.5801L62.6152 21.5913V22.9205L66.8917 20.0887Z" fill="#3331FF"/>
<path d="M66.8917 20.0889L66.9034 20.4241L62.6152 22.9207V22.5624L66.8917 20.0889Z" fill="#ADB8BF"/>
<path d="M66.8917 20.0889L68.2863 20.8748L64.0097 23.3484L62.6152 22.5624L66.8917 20.0889Z" fill="#8CACFF"/>
<path d="M63.9983 22.5047L62.6154 21.7188L62.1738 21.973L63.5451 22.759L63.9983 22.5047Z" fill="#F5F5F5"/>
<path d="M68.7278 19.7767L67.3449 18.9907L66.9033 19.2566L68.2862 20.0425L68.7278 19.7767Z" fill="#F5F5F5"/>
<path d="M55.0266 25.4171V27.775L60.2096 24.7698V22.4119L55.0266 25.4171Z" fill="#3B0BC3"/>
<path d="M59.7564 24.5155V23.1863L55.4683 25.6829V27.0121L59.7564 24.5155Z" fill="#3B0BC3"/>
<path d="M59.7448 24.1804L58.9429 23.6719L55.4683 25.683V27.0123L59.7448 24.1804Z" fill="#3331FF"/>
<path d="M59.7448 24.1802L59.7564 24.5154L55.4683 27.012V26.6537L59.7448 24.1802Z" fill="#ADB8BF"/>
<path d="M59.7448 24.1802L61.1393 24.9662L56.8628 27.4397L55.4683 26.6537L59.7448 24.1802Z" fill="#8CACFF"/>
<path d="M56.8511 26.596L55.4682 25.8101L55.0266 26.0643L56.3979 26.8503L56.8511 26.596Z" fill="#F5F5F5"/>
<path d="M61.5811 23.8685L60.1982 23.0825L59.7566 23.3484L61.1395 24.1343L61.5811 23.8685Z" fill="#F5F5F5"/>
<path d="M47.8799 29.5207V31.867L53.0512 28.8618V26.5039L47.8799 29.5207Z" fill="#3B0BC3"/>
<path d="M52.6097 28.6073V27.2781L48.3215 29.7747V31.1039L52.6097 28.6073Z" fill="#3B0BC3"/>
<path d="M52.598 28.272L51.7962 27.7634L48.3215 29.7746V31.1038L52.598 28.272Z" fill="#3331FF"/>
<path d="M52.598 28.272L52.6097 28.6072L48.3215 31.1038V30.7455L52.598 28.272Z" fill="#ADB8BF"/>
<path d="M52.598 28.272L53.9926 29.0695L49.716 31.5315L48.3215 30.7455L52.598 28.272Z" fill="#8CACFF"/>
<path d="M49.7044 30.6878L48.3215 29.9019L47.8799 30.1561L49.2512 30.9421L49.7044 30.6878Z" fill="#F5F5F5"/>
<path d="M54.4339 27.96L53.051 27.1855L52.6094 27.4398L53.9923 28.2258L54.4339 27.96Z" fill="#F5F5F5"/>
<path d="M40.7329 33.612V35.9583L45.9042 32.9531V30.5952L40.7329 33.612Z" fill="#3B0BC3"/>
<path d="M45.4627 32.6989V31.3696L41.1746 33.8663V35.1955L45.4627 32.6989Z" fill="#3B0BC3"/>
<path d="M45.4511 32.3637L44.6492 31.8667L41.1746 33.8663V35.1955L45.4511 32.3637Z" fill="#3331FF"/>
<path d="M45.4511 32.364L45.4627 32.6992L41.1746 35.1958V34.8375L45.4511 32.364Z" fill="#ADB8BF"/>
<path d="M45.4511 32.364L46.834 33.1616L42.5691 35.6235L41.1746 34.8375L45.4511 32.364Z" fill="#8CACFF"/>
<path d="M42.5574 34.7796L41.1745 33.9937L40.7329 34.2595L42.1042 35.0339L42.5574 34.7796Z" fill="#F5F5F5"/>
<path d="M47.2871 32.0633L45.9042 31.2773L45.4626 31.5316L46.8339 32.3176L47.2871 32.0633Z" fill="#F5F5F5"/>
<path d="M33.5862 37.7039V40.0619L38.7575 37.0451V34.6987L33.5862 37.7039Z" fill="#3B0BC3"/>
<path d="M38.3157 36.7907V35.4614L34.0276 37.9581V39.2873L38.3157 36.7907Z" fill="#3B0BC3"/>
<path d="M38.3041 36.4558L37.4906 35.9587L34.0276 37.9584V39.2876L38.3041 36.4558Z" fill="#3331FF"/>
<path d="M38.3041 36.4553L38.3157 36.7905L34.0276 39.2872V38.9288L38.3041 36.4553Z" fill="#ADB8BF"/>
<path d="M38.3041 36.4553L39.687 37.2529L35.4221 39.7148L34.0276 38.9288L38.3041 36.4553Z" fill="#8CACFF"/>
<path d="M35.4107 38.8712L34.0278 38.0852L33.5862 38.351L34.9575 39.137L35.4107 38.8712Z" fill="#F5F5F5"/>
<path d="M40.1404 36.1551L38.7575 35.3691L38.3159 35.6234L39.6872 36.4094L40.1404 36.1551Z" fill="#F5F5F5"/>
<path d="M26.4392 41.7955V44.1534L31.6105 41.1482V38.7903L26.4392 41.7955Z" fill="#3B0BC3"/>
<path d="M31.169 40.8824V39.5532L26.8809 42.0499V43.3791L31.169 40.8824Z" fill="#3B0BC3"/>
<path d="M31.1457 40.5586L30.3439 40.05L26.8809 42.0497V43.3789L31.1457 40.5586Z" fill="#3331FF"/>
<path d="M31.1457 40.5588L31.169 40.8825L26.8809 43.3791V43.0208L31.1457 40.5588Z" fill="#ADB8BF"/>
<path d="M31.1457 40.5588L32.5403 41.3448L28.2754 43.8068L26.8809 43.0208L31.1457 40.5588Z" fill="#8CACFF"/>
<path d="M28.2637 42.9629L26.8808 42.1885L26.4392 42.4428L27.8105 43.2287L28.2637 42.9629Z" fill="#F5F5F5"/>
<path fill-rule="evenodd" clip-rule="evenodd" d="M63.5446 22.7586L71.6444 44.4192L62.1734 38.9636V21.9727L63.5446 22.7586ZM56.3978 26.8506L64.4976 48.5112L55.0265 43.0556V26.0646L56.3978 26.8506ZM57.3508 52.6026L49.251 30.942L47.8797 30.1561V47.147L57.3508 52.6026ZM42.1041 35.0337L50.2039 56.6943L40.7329 51.2387V34.2593L42.1041 35.0337ZM43.0571 60.7976L34.9573 39.137L33.586 38.351V55.3304L43.0571 60.7976ZM27.8102 43.2287L35.91 64.8893L26.439 59.4221V42.4427L27.8102 43.2287Z" fill="#231889"/>
<path d="M32.9934 40.2467L31.6105 39.4607L31.1689 39.715L32.5402 40.501L32.9934 40.2467Z" fill="#F5F5F5"/>
<path d="M19.2922 45.8873V48.2452L24.4636 45.24V42.8821L19.2922 45.8873Z" fill="#3B0BC3"/>
<path d="M24.022 44.9856V43.6448L19.7339 46.1414V47.4706L24.022 44.9856Z" fill="#3B0BC3"/>
<path d="M23.9988 44.6504L23.1969 44.1418L19.7339 46.1415V47.4707L23.9988 44.6504Z" fill="#3331FF"/>
<path d="M23.9988 44.6504L24.022 44.9856L19.7339 47.4707V47.1123L23.9988 44.6504Z" fill="#ADB8BF"/>
<path fill-rule="evenodd" clip-rule="evenodd" d="M68.2862 20.8748L64.0096 23.3483L71.6679 43.8646L75.9327 41.3911L68.2862 20.8748ZM61.1393 24.9665L56.8628 27.44L64.521 47.9563L68.7859 45.4828L61.1393 24.9665ZM49.716 31.5319L53.9925 29.0699L61.6391 49.5862L57.3742 52.0482L49.716 31.5319ZM46.834 33.1614L42.5692 35.6234L50.2274 56.1396L54.4922 53.6777L46.834 33.1614ZM35.4221 39.7151L39.687 37.2531L47.3452 57.7694L43.0803 60.2314L35.4221 39.7151ZM32.5401 41.3448L28.2753 43.8068L35.9335 64.3231L40.1983 61.8611L32.5401 41.3448ZM21.1284 47.8985L25.3933 45.4366L33.0515 65.9529L28.7866 68.4264L21.1284 47.8985Z" fill="url(#paint4_linear_216_952)"/>
<path d="M23.9988 44.6504L25.3933 45.4364L21.1284 47.8983L19.7339 47.1123L23.9988 44.6504Z" fill="#8CACFF"/>
<path fill-rule="evenodd" clip-rule="evenodd" d="M66.892 20.0889L68.2865 20.8749L75.9331 41.3912L76.3515 41.6917L68.2865 20.0426L66.892 19.2451V20.0889ZM59.7449 24.1808L61.1395 24.9668L68.786 45.4831L69.2044 45.7836L61.1395 24.1346L59.7449 23.3486V24.1808ZM53.9926 29.0701L52.5981 28.2725V27.4403L53.9926 28.2263L62.0576 49.8753L61.6392 49.5863L53.9926 29.0701ZM45.4513 32.364L46.8342 33.1615L54.4924 53.6778L54.9107 53.9668L46.8342 32.3177L45.4513 31.5318V32.364ZM39.6874 37.2532L38.3045 36.4557V35.6235L39.6874 36.4095L47.7639 58.0585L47.3456 57.7695L39.6874 37.2532ZM31.1459 40.5589L32.5404 41.3449L40.1986 61.8612L40.6169 62.1502L32.5404 40.5012L31.1459 39.7152V40.5589ZM25.3935 45.4366L23.999 44.6506V43.8069L25.3935 44.5928L33.4701 66.2419L33.0517 65.9529L25.3935 45.4366Z" fill="#3B0BC3"/>
<path d="M21.1167 47.0663L19.7338 46.2803L19.2922 46.5346L20.6635 47.3205L21.1167 47.0663Z" fill="#F5F5F5"/>
<path d="M28.7633 68.9812L20.6635 47.3206L19.2922 46.5347V63.5141L28.7633 68.9812Z" fill="#231889"/>
<path fill-rule="evenodd" clip-rule="evenodd" d="M76.8044 41.4372L68.7278 19.7766L68.2862 20.0424L76.3512 41.6915L76.8044 41.4372ZM72.0862 44.165L63.998 22.5044L63.5448 22.7587L71.6446 44.4193L72.0862 44.165ZM56.8512 26.5961L64.9394 48.2567L64.4978 48.511L56.398 26.8504L56.8512 26.5961ZM69.6573 45.5291L61.5807 23.8686L61.1391 24.1344L69.2041 45.7834L69.6573 45.5291ZM49.7041 30.6878L57.7923 52.3484L57.3507 52.6027L49.2509 30.9421L49.7041 30.6878ZM62.5105 49.6206L54.4339 27.96L53.9923 28.2259L62.0572 49.8749L62.5105 49.6206ZM42.5573 34.7795L50.6455 56.4401L50.2039 56.6944L42.1041 35.0338L42.5573 34.7795ZM55.3635 53.7123L47.2869 32.0633L46.8337 32.3176L54.9103 53.9666L55.3635 53.7123ZM35.4104 38.8712L43.4986 60.5318L43.057 60.7977L34.9572 39.1371L35.4104 38.8712ZM48.2167 57.804L40.1401 36.155L39.6869 36.4093L47.7634 58.0583L48.2167 57.804ZM28.2636 42.9632L36.3518 64.6237L35.9102 64.8896L27.8104 43.229L28.2636 42.9632ZM41.0698 61.8959L32.9933 40.2469L32.54 40.5012L40.6166 62.1502L41.0698 61.8959ZM21.1165 47.0664L29.2047 68.7154L28.7631 68.9813L20.6633 47.3207L21.1165 47.0664ZM33.923 65.9874L25.8464 44.3384L25.3932 44.5927L33.4698 66.2417L33.923 65.9874Z" fill="white"/>
<path d="M25.8467 44.3382L24.4638 43.5522L24.0222 43.8065L25.3935 44.5925L25.8467 44.3382Z" fill="#F5F5F5"/>
<path d="M63.2195 4.85449L67.252 9.05022L68.2862 20.0423L67.926 19.8227L66.8917 19.2448L66.7523 17.0256L66.0782 15.2109L65.6831 10.183L63.2195 8.66879V4.85449Z" fill="#231889"/>
<path d="M58.4897 7.5708L62.5106 11.7665L63.5449 22.7586L63.1846 22.539L62.1503 21.9727L62.0225 19.7534L61.3485 17.9388L60.9534 12.9108L58.4897 11.3967V7.5708Z" fill="#231889"/>
<path d="M56.0728 8.94629L60.0936 13.142L61.1279 24.1341L60.7676 23.9145L59.7333 23.3482L59.5939 21.1174L58.9315 19.3027L58.5248 14.2747L56.0728 12.7606V8.94629Z" fill="#231889"/>
<path d="M51.343 11.6626L55.3639 15.8583L56.3981 26.8504L56.0379 26.6308L55.0036 26.0645L54.8642 23.8452L54.2018 22.0306L53.795 17.0026L51.343 15.4885V11.6626Z" fill="#231889"/>
<path d="M48.9255 13.0383L52.9464 17.2341L53.9806 28.2262L53.6204 28.0066L52.5861 27.4286L52.4583 25.2094L51.7843 23.3947L51.3776 18.3668L48.9255 16.8526V13.0383Z" fill="#231889"/>
<path d="M44.196 15.7544L48.2169 19.9501L49.2512 30.9422L48.8909 30.7226L47.8566 30.1563L47.7172 27.937L47.0548 26.1223L46.6481 21.0944L44.196 19.5803V15.7544Z" fill="#231889"/>
<path d="M41.7788 17.1296L45.8113 21.3254L46.8339 32.3175L46.4853 32.0979L45.451 31.5315L45.3116 29.3007L44.6376 27.4976L44.2424 22.4581L41.7788 20.9439V17.1296Z" fill="#231889"/>
<path d="M37.0491 19.8577L41.0699 24.0534L42.1042 35.0339L41.7439 34.8143L40.7097 34.248L40.5818 32.0287L39.9078 30.2141L39.5011 25.1861L37.0491 23.672V19.8577Z" fill="#231889"/>
<path d="M34.6318 21.2214L38.6643 25.4172L39.687 36.4093L39.3383 36.1897L38.3041 35.6117L38.1646 33.3925L37.4906 31.5778L37.0955 26.5499L34.6318 25.0357V21.2214Z" fill="#231889"/>
<path d="M29.9023 23.9377L33.9232 28.1335L34.9575 39.1256L34.5972 38.906L33.5629 38.3396L33.4351 36.1204L32.7611 34.3057L32.366 29.2778L29.9023 27.7636V23.9377Z" fill="#231889"/>
<path d="M27.4851 25.313L31.506 29.5087L32.5402 40.5008L32.18 40.2812L31.1457 39.7149L31.0179 37.4841L30.3439 35.6809L29.9371 30.653L27.4851 29.1388V25.313Z" fill="#231889"/>
<path d="M22.7554 28.041L26.7762 32.2367L27.8105 43.2289L27.4502 43.0092L26.416 42.4429L26.2765 40.2121L25.6141 38.3974L25.2074 33.3695L22.7554 31.8553V28.041Z" fill="#231889"/>
<path d="M20.3384 29.405L24.3708 33.6123L25.3935 44.5929L25.0332 44.3733L23.999 43.8069L23.8711 41.5877L23.1971 39.773L22.7904 34.745L20.3384 33.2309V29.405Z" fill="#231889"/>
<path fill-rule="evenodd" clip-rule="evenodd" d="M67.6936 8.78476L63.6727 4.60059L63.2195 4.85487L67.252 9.0506L67.6936 8.78476ZM62.9639 11.5123L58.9431 7.31662L58.4899 7.57091L62.5107 11.7666L62.9639 11.5123ZM56.5143 8.69229L60.5468 12.888L60.0935 13.1423L56.0727 8.94658L56.5143 8.69229ZM55.8052 15.6043L51.7844 11.4086L51.3428 11.6629L55.3637 15.8586L55.8052 15.6043ZM49.3791 12.784L53.3999 16.9682L52.9467 17.234L48.9259 13.0383L49.3791 12.784ZM48.67 19.6958L44.6492 15.5001L44.196 15.7543L48.2168 19.9501L48.67 19.6958ZM42.232 16.8755L46.2529 21.0712L45.8113 21.3255L41.7788 17.1298L42.232 16.8755ZM41.5232 23.7875L37.5024 19.5918L37.0491 19.8576L41.07 24.0533L41.5232 23.7875ZM35.0852 20.9559L39.106 25.1632L38.6644 25.4175L34.632 21.2217L35.0852 20.9559ZM34.3764 27.8792L30.3555 23.6834L29.9023 23.9377L33.9232 28.1335L34.3764 27.8792ZM27.9383 25.0591L31.9592 29.2548L31.506 29.5091L27.4851 25.3134L27.9383 25.0591ZM27.2295 31.9827L23.2087 27.7869L22.7555 28.0412L26.7763 32.2369L27.2295 31.9827ZM20.7915 29.1506L24.8124 33.3463L24.3708 33.6122L20.3383 29.4049L20.7915 29.1506ZM20.0827 36.0744L16.0619 31.8786L15.6086 32.1329L19.6295 36.3286L20.0827 36.0744Z" fill="url(#paint5_linear_216_952)"/>
<path d="M15.6084 32.1326L19.6292 36.3283L20.6635 47.3204L20.3033 47.1008L19.269 46.5344L19.1412 44.3036L18.4672 42.5005L18.0604 37.461L15.6084 35.9469V32.1326Z" fill="#231889"/>
<path fill-rule="evenodd" clip-rule="evenodd" d="M67.2523 9.05051L67.6939 8.78467L68.7281 19.7768L68.2865 20.0426L67.2523 9.05051ZM62.5109 11.7667L62.9641 11.5125L63.9983 22.5046L63.5451 22.7589L62.5109 11.7667ZM60.5469 12.8879L60.0937 13.1422L61.1279 24.1343L61.5695 23.8684L60.5469 12.8879ZM55.364 15.8584L55.8056 15.6042L56.8399 26.5963L56.3983 26.8506L55.364 15.8584ZM53.4001 16.9681L52.9468 17.2339L53.9811 28.226L54.4343 27.9602L53.4001 16.9681ZM48.217 19.9501L48.6702 19.6959L49.6928 30.688L49.2512 30.9423L48.217 19.9501ZM46.2531 21.071L45.8115 21.3253L46.8342 32.3174L47.2874 32.0516L46.2531 21.071ZM41.0701 24.0534L41.5233 23.7876L42.5576 34.7797L42.1044 35.034L41.0701 24.0534ZM39.1061 25.1628L38.6645 25.417L39.6871 36.4091L40.1403 36.1433L39.1061 25.1628ZM33.9233 28.1333L34.3765 27.879L35.4108 38.8711L34.9576 39.1254L33.9233 28.1333ZM31.9593 29.2547L31.5061 29.509L32.5404 40.5011L32.9936 40.2468L31.9593 29.2547ZM26.7762 32.2368L27.2294 31.9825L28.2637 42.9631L27.8105 43.2289L26.7762 32.2368ZM24.8124 33.3464L24.3708 33.6122L25.3935 44.5928L25.8467 44.3385L24.8124 33.3464ZM19.6294 36.3285L20.0826 36.0742L21.1169 47.0663L20.6637 47.3206L19.6294 36.3285Z" fill="white"/>
<path d="M11.8666 30.6992L15.8409 32.9531L13.784 34.1321L9.82129 31.8782L11.8666 30.6992Z" fill="white"/>
<path d="M9.82129 31.8784L13.784 34.1323V46.4421L12.3895 40.7091L9.82129 39.2412V31.8784Z" fill="#3B0BC3"/>
<path d="M15.8408 32.9534L13.7839 34.1323V46.4421L15.8408 45.2631V32.9534Z" fill="url(#paint6_linear_216_952)"/>
<defs>
<linearGradient id="paint0_linear_216_952" x1="32.2011" y1="-3.85594" x2="26.9724" y2="15.5559" gradientUnits="userSpaceOnUse">
<stop stop-color="#2137FF"/>
<stop offset="1" stop-color="#0047FF"/>
</linearGradient>
<linearGradient id="paint1_linear_216_952" x1="50.9053" y1="22.1232" x2="44.153" y2="46.9318" gradientUnits="userSpaceOnUse">
<stop stop-color="#2137FF"/>
<stop offset="1" stop-color="#0047FF"/>
</linearGradient>
<linearGradient id="paint2_linear_216_952" x1="34.663" y1="27.8586" x2="-42.4809" y2="21.0542" gradientUnits="userSpaceOnUse">
<stop stop-color="#E4E7FF"/>
<stop offset="1" stop-color="#2137FF"/>
</linearGradient>
<linearGradient id="paint3_linear_216_952" x1="68.4083" y1="2.25415" x2="68.4083" y2="15.7429" gradientUnits="userSpaceOnUse">
<stop stop-color="#2137FF"/>
<stop offset="1" stop-color="#6821FF"/>
</linearGradient>
<linearGradient id="paint4_linear_216_952" x1="50.1209" y1="27.47" x2="63.8024" y2="56.8916" gradientUnits="userSpaceOnUse">
<stop stop-color="#E4E7FF"/>
<stop offset="1" stop-color="#2137FF"/>
</linearGradient>
<linearGradient id="paint5_linear_216_952" x1="35.4109" y1="15.4214" x2="-30.9534" y2="6.48636" gradientUnits="userSpaceOnUse">
<stop stop-color="#E4E7FF"/>
<stop offset="1" stop-color="#2137FF"/>
</linearGradient>
<linearGradient id="paint6_linear_216_952" x1="14.8124" y1="32.9534" x2="14.8124" y2="46.4421" gradientUnits="userSpaceOnUse">
<stop stop-color="#2137FF"/>
<stop offset="1" stop-color="#6821FF"/>
</linearGradient>
</defs>
</svg>
