<svg width="91" height="80" fill="none" xmlns="http://www.w3.org/2000/svg"><path d="M65.446 12.048 14.211 41.366 0 31.807 49.301 3.71l16.145 8.338Z" fill="url(#a)"/><path d="M90.121 42.478 28.12 80l-18-12.234 62.444-35.96 17.557 10.672Z" fill="url(#b)"/><path d="M10.12 39.036v1.962l1.758.93v-.93L67.996 8.854h-2.212L63.47 8.53 10.12 39.036Z" fill="#fff"/><path d="M12.048 39.518 0 31.807V60.24l19.76 13.976-7.712-34.7Z" fill="#231889"/><path d="M67.996 8.854 11.878 40.998l5.472 23.58 54.458-31.807-3.812-23.917Z" fill="url(#c)"/><path d="m70.006 15.165-55.28 31.659-2.07-1.006 56.072-32.11 1.278 1.457ZM65.474 0l3.963 2.254-2.057 1.179-3.963-2.254L65.474 0Z" fill="#fff"/><path d="m63.417 1.18 3.963 2.253v12.31l-1.394-5.745-2.569-1.468V1.18Z" fill="#3B0BC3"/><path d="m69.437 2.254-2.057 1.18v12.309l2.057-1.18V2.255Z" fill="url(#d)"/><path d="M62.174 21.326v2.357l5.171-3.005V18.32l-5.171 3.006Z" fill="#3B0BC3"/><path d="M66.903 20.424v-1.33l-4.288 2.497v1.33l4.288-2.497Z" fill="#3B0BC3"/><path d="m66.892 20.089-.802-.509-3.475 2.011v1.33l4.277-2.832Z" fill="#3331FF"/><path d="m66.892 20.089.011.335-4.288 2.497v-.359l4.277-2.473Z" fill="#ADB8BF"/><path d="m66.892 20.089 1.394.786-4.276 2.473-1.395-.786 4.277-2.473Z" fill="#8CACFF"/><path d="m63.998 22.505-1.383-.786-.441.254 1.371.786.453-.254Zm4.73-2.728-1.383-.786-.442.266 1.383.785.442-.265Z" fill="#F5F5F5"/><path d="M55.027 25.417v2.358l5.183-3.005v-2.358l-5.183 3.005Z" fill="#3B0BC3"/><path d="M59.756 24.515v-1.329l-4.288 2.497v1.33l4.288-2.498Z" fill="#3B0BC3"/><path d="m59.745 24.18-.802-.508-3.475 2.011v1.33l4.277-2.833Z" fill="#3331FF"/><path d="m59.745 24.18.011.335-4.288 2.497v-.358l4.277-2.474Z" fill="#ADB8BF"/><path d="m59.745 24.18 1.394.786-4.276 2.474-1.395-.786 4.277-2.474Z" fill="#8CACFF"/><path d="m56.851 26.596-1.383-.786-.441.254 1.37.786.454-.254Zm4.73-2.727-1.383-.787-.441.266 1.383.786.441-.265Z" fill="#F5F5F5"/><path d="M47.88 29.52v2.347l5.171-3.005v-2.358L47.88 29.52Z" fill="#3B0BC3"/><path d="M52.61 28.607v-1.329l-4.288 2.497v1.329l4.288-2.497Z" fill="#3B0BC3"/><path d="m52.598 28.272-.802-.509-3.474 2.012v1.329l4.276-2.832Z" fill="#3331FF"/><path d="m52.598 28.272.012.335-4.288 2.497v-.358l4.276-2.474Z" fill="#ADB8BF"/><path d="m52.598 28.272 1.395.798-4.277 2.462-1.395-.787 4.277-2.473Z" fill="#8CACFF"/><path d="m49.704 30.688-1.383-.786-.441.254 1.371.786.453-.254Zm4.73-2.728-1.383-.774-.442.254 1.383.786.442-.266Z" fill="#F5F5F5"/><path d="M40.733 33.612v2.346l5.171-3.005v-2.358l-5.171 3.017Z" fill="#3B0BC3"/><path d="M45.463 32.699v-1.33l-4.288 2.497v1.33l4.288-2.497Z" fill="#3B0BC3"/><path d="m45.451 32.364-.802-.497-3.474 2v1.329l4.276-2.832Z" fill="#3331FF"/><path d="m45.451 32.364.012.335-4.288 2.497v-.358l4.276-2.474Z" fill="#ADB8BF"/><path d="m45.451 32.364 1.383.798-4.265 2.462-1.394-.787 4.276-2.473Z" fill="#8CACFF"/><path d="m42.557 34.78-1.383-.786-.441.266 1.371.774.453-.254Zm4.73-2.717-1.383-.786-.441.255 1.37.786.454-.255Z" fill="#F5F5F5"/><path d="M33.586 37.704v2.358l5.172-3.017V34.7l-5.172 3.005Z" fill="#3B0BC3"/><path d="M38.316 36.79v-1.329l-4.288 2.497v1.33l4.288-2.497Z" fill="#3B0BC3"/><path d="m38.304 36.456-.813-.497-3.463 2v1.329l4.276-2.832Z" fill="#3331FF"/><path d="m38.304 36.455.012.336-4.288 2.496v-.358l4.276-2.474Z" fill="#ADB8BF"/><path d="m38.304 36.455 1.383.798-4.265 2.462-1.394-.786 4.276-2.474Z" fill="#8CACFF"/><path d="m35.41 38.871-1.382-.786-.442.266 1.372.786.453-.266Zm4.73-2.716-1.383-.786-.441.254 1.371.786.453-.254Z" fill="#F5F5F5"/><path d="M26.44 41.795v2.358l5.17-3.005V38.79l-5.17 3.005Z" fill="#3B0BC3"/><path d="M31.169 40.882v-1.329l-4.288 2.497v1.33l4.288-2.498Z" fill="#3B0BC3"/><path d="m31.146 40.559-.802-.509-3.463 2v1.329l4.265-2.82Z" fill="#3331FF"/><path d="m31.146 40.559.023.324-4.288 2.496v-.358l4.265-2.462Z" fill="#ADB8BF"/><path d="m31.146 40.559 1.394.786-4.265 2.462-1.394-.786 4.265-2.462Z" fill="#8CACFF"/><path d="m28.264 42.963-1.383-.775-.442.255 1.372.786.453-.266Z" fill="#F5F5F5"/><path fill-rule="evenodd" clip-rule="evenodd" d="m63.545 22.759 8.1 21.66-9.472-5.455V21.973l1.372.786Zm-7.147 4.092 8.1 21.66-9.472-5.455V26.065l1.372.786Zm.953 25.752-8.1-21.661-1.371-.786v16.991l9.47 5.456Zm-15.247-17.57 8.1 21.661-9.471-5.455v-16.98l1.371.775Zm.953 25.765-8.1-21.661-1.371-.786v16.98l9.471 5.467ZM27.81 43.228l8.1 21.661-9.471-5.467v-16.98l1.371.787Z" fill="#231889"/><path d="m32.993 40.247-1.383-.786-.441.254 1.371.786.453-.254Z" fill="#F5F5F5"/><path d="M19.292 45.887v2.358l5.172-3.005v-2.358l-5.172 3.005Z" fill="#3B0BC3"/><path d="M24.022 44.986v-1.341l-4.288 2.496v1.33l4.288-2.485Z" fill="#3B0BC3"/><path d="m23.999 44.65-.802-.508-3.463 2v1.329l4.265-2.82Z" fill="#3331FF"/><path d="m23.999 44.65.023.336-4.288 2.485v-.359l4.265-2.462Z" fill="#ADB8BF"/><path fill-rule="evenodd" clip-rule="evenodd" d="m68.286 20.875-4.276 2.473 7.658 20.517 4.265-2.474-7.647-20.516Zm-7.147 4.091-4.276 2.474 7.658 20.516 4.265-2.473-7.647-20.516Zm-11.423 6.566 4.276-2.462 7.647 20.516-4.265 2.462-7.658-20.516Zm-2.882 1.63-4.265 2.461 7.658 20.517 4.265-2.462-7.658-20.517Zm-11.412 6.553 4.265-2.462 7.658 20.516-4.265 2.462-7.658-20.516Zm-2.882 1.63-4.265 2.462 7.659 20.516 4.264-2.462-7.658-20.516Zm-11.412 6.553 4.265-2.461 7.658 20.516-4.264 2.473-7.659-20.528Z" fill="url(#e)"/><path d="m23.999 44.65 1.394.786-4.265 2.462-1.394-.786 4.265-2.462Z" fill="#8CACFF"/><path fill-rule="evenodd" clip-rule="evenodd" d="m66.892 20.089 1.395.786 7.646 20.516.418.3-8.064-21.648-1.395-.798v.844Zm-7.147 4.092 1.395.786 7.646 20.516.418.3-8.064-21.648-1.395-.786v.832Zm-5.752 4.89-1.395-.799v-.832l1.395.786 8.065 21.65-.419-.29-7.646-20.516Zm-8.542 3.293 1.383.797 7.658 20.517.419.289-8.077-21.65-1.383-.785v.832Zm-5.764 4.89-1.383-.798v-.833l1.383.787 8.077 21.649-.418-.29-7.659-20.516Zm-8.541 3.305 1.394.786L40.2 61.86l.418.29L32.54 40.5l-1.394-.786v.844Zm-5.753 4.878L24 44.65v-.844l1.395.786 8.076 21.649-.418-.29-7.659-20.515Z" fill="#3B0BC3"/><path d="m21.117 47.066-1.383-.786-.442.255 1.371.786.454-.255Z" fill="#F5F5F5"/><path d="m28.763 68.981-8.1-21.66-1.37-.786v16.98l9.47 5.466Z" fill="#231889"/><path fill-rule="evenodd" clip-rule="evenodd" d="m76.804 41.437-8.076-21.66-.442.265 8.065 21.65.453-.255Zm-4.718 2.728-8.088-21.66-.453.254 8.1 21.66.441-.254ZM56.851 26.596l8.088 21.66-.441.255-8.1-21.66.453-.255ZM69.657 45.53l-8.076-21.66-.442.265 8.065 21.65.453-.255ZM49.704 30.688l8.088 21.66-.441.255-8.1-21.66.453-.255ZM62.51 49.62l-8.076-21.66-.442.266 8.065 21.649.453-.254ZM42.558 34.779l8.088 21.661-.441.254-8.1-21.66.453-.255Zm12.806 18.933-8.076-21.649-.453.255 8.076 21.649.454-.255ZM35.41 38.872l8.089 21.66-.442.266-8.1-21.66.453-.267Zm12.807 18.932L40.14 36.155l-.453.254 8.076 21.65.454-.255Zm-19.953-14.84 8.088 21.66-.442.266-8.1-21.661.454-.266ZM41.07 61.895l-8.077-21.65-.453.255 8.077 21.65.453-.255Zm-19.954-14.83 8.089 21.65-.442.265-8.1-21.66.453-.255Zm12.807 18.921-8.077-21.649-.453.255 8.077 21.649.453-.255Z" fill="#fff"/><path d="m25.847 44.338-1.383-.786-.442.255 1.372.785.453-.254Z" fill="#F5F5F5"/><path d="m63.22 4.854 4.032 4.196 1.034 10.992-.36-.22-1.034-.577-.14-2.22-.674-1.814-.395-5.028-2.464-1.514V4.854ZM58.49 7.57l4.02 4.197 1.035 10.992-.36-.22-1.035-.566-.127-2.22-.675-1.814-.395-5.028-2.463-1.514V7.57Z" fill="#231889"/><path d="m56.073 8.946 4.02 4.196 1.035 10.992-.36-.22-1.035-.566-.14-2.23-.662-1.815-.406-5.028-2.452-1.514V8.946Zm-4.73 2.717 4.02 4.195 1.035 10.992-.36-.22-1.034-.566-.14-2.219-.662-1.814-.407-5.028-2.452-1.514v-3.826Z" fill="#231889"/><path d="m48.925 13.038 4.021 4.196 1.035 10.992-.36-.22-1.035-.577-.128-2.22-.674-1.814-.406-5.028-2.453-1.514v-3.815Zm-4.729 2.716 4.02 4.196 1.035 10.992-.36-.22-1.034-.566-.14-2.219-.662-1.815-.407-5.028-2.452-1.514v-3.826Z" fill="#231889"/><path d="m41.779 17.13 4.032 4.195 1.023 10.993-.349-.22-1.034-.566-.14-2.231-.673-1.803-.396-5.04-2.463-1.514V17.13Zm-4.729 2.728 4.02 4.195 1.034 10.98-.36-.219-1.034-.566-.128-2.22-.674-1.814-.407-5.028-2.452-1.514v-3.814Z" fill="#231889"/><path d="m34.632 21.221 4.032 4.196 1.023 10.992-.349-.22-1.034-.577-.14-2.22-.673-1.814-.395-5.028-2.464-1.514V21.22Zm-4.73 2.717 4.021 4.196 1.035 10.992-.36-.22-1.035-.566-.128-2.22-.674-1.814-.395-5.028-2.464-1.514v-3.826Z" fill="#231889"/><path d="m27.485 25.313 4.021 4.196L32.54 40.5l-.36-.22-1.034-.566-.128-2.23-.674-1.804-.407-5.028-2.452-1.514v-3.826Zm-4.73 2.728 4.021 4.196 1.035 10.992-.36-.22-1.035-.566-.14-2.23-.662-1.816-.407-5.027-2.452-1.515v-3.814Z" fill="#231889"/><path d="m20.338 29.405 4.033 4.207 1.023 10.98-.36-.219-1.035-.566-.128-2.22-.674-1.814-.407-5.028-2.452-1.514v-3.826Z" fill="#231889"/><path fill-rule="evenodd" clip-rule="evenodd" d="M67.694 8.785 63.673 4.6l-.454.254 4.033 4.196.442-.266Zm-4.73 2.727-4.02-4.195-.454.254 4.02 4.196.454-.255Zm-6.45-2.82 4.033 4.196-.453.254-4.021-4.195.441-.255Zm-.709 6.912-4.02-4.195-.442.254 4.02 4.196.442-.255Zm-6.426-2.82 4.02 4.184-.452.266-4.021-4.196.453-.254Zm-.709 6.912L44.65 15.5l-.454.254 4.02 4.196.454-.254Zm-6.438-2.82 4.02 4.195-.44.255-4.033-4.196.453-.255Zm-.709 6.912-4.02-4.196-.454.266 4.021 4.195.453-.265Zm-6.438-2.832 4.021 4.207-.442.255-4.032-4.196.453-.266Zm-.709 6.923-4.02-4.196-.454.255 4.021 4.196.453-.255Zm-6.438-2.82 4.021 4.196-.453.254-4.02-4.196.452-.254Zm-.708 6.924-4.021-4.196-.453.254 4.02 4.196.454-.254Zm-6.44-2.833 4.021 4.195-.441.266-4.033-4.207.453-.254Zm-.708 6.923-4.021-4.195-.453.254 4.02 4.196.454-.255Z" fill="url(#f)"/><path d="m15.608 32.133 4.021 4.195 1.034 10.992-.36-.22-1.034-.566-.128-2.23-.674-1.803-.407-5.04-2.452-1.514v-3.814Z" fill="#231889"/><path fill-rule="evenodd" clip-rule="evenodd" d="m67.252 9.05.442-.265 1.034 10.992-.441.266L67.252 9.05Zm-4.741 2.717.453-.255 1.034 10.993-.453.254-1.034-10.992Zm-1.964 1.12-.453.255 1.034 10.992.441-.266-1.022-10.98Zm-5.183 2.971.442-.254 1.034 10.992-.442.255-1.034-10.993Zm-1.964 1.11-.453.266 1.034 10.992.453-.266L53.4 16.968Zm-5.183 2.982.453-.254 1.023 10.992-.442.254-1.034-10.992Zm-1.964 1.121-.441.254 1.022 10.992.453-.265-1.034-10.981Zm-5.183 2.982.453-.265 1.035 10.992-.454.254-1.034-10.98Zm-1.964 1.11-.442.254 1.023 10.992.453-.266-1.034-10.98Zm-5.183 2.97.453-.254 1.035 10.992-.453.254-1.035-10.992Zm-1.964 1.122-.453.254 1.034 10.992.454-.254-1.035-10.992Zm-5.183 2.982.453-.255 1.035 10.981-.453.266-1.035-10.992Zm-1.964 1.11-.441.265 1.023 10.98.453-.253-1.035-10.993Zm-5.183 2.981.454-.254 1.034 10.992-.453.255-1.035-10.992Z" fill="#fff"/><path d="m11.867 30.7 3.974 2.253-2.057 1.18-3.963-2.255 2.046-1.179Z" fill="#fff"/><path d="m9.821 31.878 3.963 2.254v12.31l-1.395-5.733-2.568-1.468v-7.363Z" fill="#3B0BC3"/><path d="m15.84 32.953-2.056 1.18v12.31l2.057-1.18v-12.31Z" fill="url(#g)"/><defs><linearGradient id="a" x1="32.201" y1="-3.856" x2="26.972" y2="15.556" gradientUnits="userSpaceOnUse"><stop stop-color="#2137FF"/><stop offset="1" stop-color="#0047FF"/></linearGradient><linearGradient id="b" x1="50.905" y1="22.123" x2="44.153" y2="46.932" gradientUnits="userSpaceOnUse"><stop stop-color="#2137FF"/><stop offset="1" stop-color="#0047FF"/></linearGradient><linearGradient id="c" x1="34.663" y1="27.859" x2="-42.481" y2="21.054" gradientUnits="userSpaceOnUse"><stop stop-color="#E4E7FF"/><stop offset="1" stop-color="#2137FF"/></linearGradient><linearGradient id="d" x1="68.408" y1="2.254" x2="68.408" y2="15.743" gradientUnits="userSpaceOnUse"><stop stop-color="#2137FF"/><stop offset="1" stop-color="#6821FF"/></linearGradient><linearGradient id="e" x1="50.121" y1="27.47" x2="63.802" y2="56.892" gradientUnits="userSpaceOnUse"><stop stop-color="#E4E7FF"/><stop offset="1" stop-color="#2137FF"/></linearGradient><linearGradient id="f" x1="35.411" y1="15.421" x2="-30.953" y2="6.486" gradientUnits="userSpaceOnUse"><stop stop-color="#E4E7FF"/><stop offset="1" stop-color="#2137FF"/></linearGradient><linearGradient id="g" x1="14.812" y1="32.953" x2="14.812" y2="46.442" gradientUnits="userSpaceOnUse"><stop stop-color="#2137FF"/><stop offset="1" stop-color="#6821FF"/></linearGradient></defs></svg>